<svg xmlns="http://www.w3.org/2000/svg" viewBox="0 0 100 60" enable-background="new 0 0 100 60"><path fill="#e5e5e5" d="m-77.3-103.5h254.7v268.6h-254.7z"/><g transform="translate(0 1)"><path fill="#fff" d="m13.4 83.4c0 21.7-16.4 39.3-36.6 39.3-20.2 0-36.6-17.6-36.6-39.3s16.4-39.3 36.6-39.3c20.2 0 36.6 17.6 36.6 39.3"/><path fill="#421" d="m47-15.4c0 0 3.6 4.3 4.9 8.1 1.4 3.9.9 9.4.9 9.4l-9.6-9.5 3.8-8"/><path fill="#97dcff" d="m97.3 63.4l-4.3-27-10.1 7.1-8.2-9.7 19.3-13.1 6.6 2.5 11.7 50.7-15-10.5"/><path fill="#f2d3b3" d="m-4.3 53.8c0 0 6 11.2 14 21.3 7.9 10.1 14.2 14 14.2 14l59.4.2 40.4.3-8.4-15c0 0-24.2-22.4-39.6-43.2-15.6-20.7-29.6-43.4-29.6-43.4l-37.5 16.4-12.9 49.4"/><path fill="#f8f3ed" d="m43 17.6c-2.7 0-7 1.1-11.8 3.9-6.6 4-10.6 8.5-10.6 10.4 0 .2 0 .3.1.4.8 1.6 5.5 7.5 11.9 7.5 2.3 0 4.8-.7 7.5-2.7 5.1-3.8 6.4-9.3 6.4-13.4 0-2.7-.6-4.8-.9-5.4-.3-.4-1.2-.7-2.6-.7"/><path d="m69.1 2.4c0 0-4.6-1.5-9.8 2-5.2 3.5-6.4 6.5-10.5 8.7-4.1 2.2-8.9.4-18 5.5-9.1 5.1-11 9.5-13.9 11.5-2.9 2-9.3 6.8-11.3 8.5-2 1.7-1.3 3.9-1.3 3.9s.9-.8 1.9-1.1c1-.2 1.4 0 1.4 0s11.5-6 13-5c1.5 1.1 8.8 10.9 20.5 3.1 11.7-7.8 6-21.2 10-23.1 1.7-.8 3.4 1.1 5.5 3 2.4 2.1 5.3 4.2 9.4 2.8 8.8-3 3.6-15.6 3.6-15.6l.6-2.1-1.1-2.1m-29 34.8c-10.1 7.4-18.4-2.6-19.4-4.8-.8-1.5 3.3-6.5 10.5-10.9 7.2-4.3 13.5-4.6 14.4-3.2.9 1.5 3.1 12.7-5.5 18.9m26-17.5c-5 2.9-10.4-4.5-11.1-6.2-.7-1.7-.4-3 4-5.9 4.4-2.9 7.3-1.9 8.3-.3 1.8 2.6 3.4 9.7-1.2 12.4"/><path fill="#fafdff" d="m64.1 5.8c-.1 0-.1 0-.2 0-1.3.1-2.9.6-4.8 1.8-.1 0-.1.1-.2.1 2.4 3.6 5.1 7.5 7.9 11.5 3.8-3 2.2-9.5.5-12-.6-.8-1.7-1.4-3.2-1.4"/><path fill="#f8f3ed" d="m58.9 7.7c-4.2 2.8-4.5 4.1-3.8 5.8.6 1.4 4.5 6.9 8.7 6.9.1 0 .1 0 .2 0 .7 0 1.4-.2 2.2-.7.2-.1.5-.3.7-.5-2.9-4-5.6-7.9-8-11.5"/><path fill="#bfc2c4" d="m64.2 5.8c-.1 0-.2 0-.3 0 0 0 .1 0 .3 0 1.5 0 2.6.7 3.1 1.5 1.7 2.5 3.2 9-.5 12-.2.2-.4.3-.7.5-.7.4-1.4.6-2.2.7.7 0 1.5-.2 2.2-.7 4.6-2.7 3-9.8 1.2-12.4-.5-1-1.6-1.6-3.1-1.6"/><path fill="#e2bb98" d="m7.2 72.1c0 0 4.4-2.3 5.7-6.5 1.3-4.2.4-9.7.4-9.7l2.1-5.1c0 0 2.7 3.5 5.1 3.8 6.8.7 9.8-9.5 26.2-11.8 5.5-.8 13.4-2.5 19.9-4.9 8.1-3 8.7-6.4 8.7-6.4l38.4 44 9.3 13.4-99.5.3c0 0-4.8-3.7-9.1-8.2-4.2-4.6-7.2-8.9-7.2-8.9"/><g fill="#421"><path d="m-3.5 56.1c0 0-13.3-5.5-18.7-18.2-.9-2.2-1.6-4.6-2-7-.2-1-3.6-6.8-3.6-6.8s3.2 2.3 3.2 1.6c-.2-10.1 4.5-20.8 15.1-28.9 32.8-25.2 22.2-28.7 22.2-28.7s3.2-1.1 5.4 3c2.2 4.2.8 7.5.8 7.5s4.4-3.8 4.4-13.4c0-6.4-7.1-11-7.1-11s23.6-2 32.3 16.8c3.9 8.4-1.5 19.8-10.7 25-6.7 3.8-20.8 12-25.1 15.3-8.2 6.3-8.5 12.7-8.5 12.7l3.6-2.1c0 0-2.7 4.3-4.1 8.3-1.7 5 11.7 20.6 11.7 20.6l-2.1 5.3c0 0-4.8-5.9-7.6-6.4-3.5-.6-9.2 6.4-9.2 6.4"/><path d="m17.1 52.3l-1.7 5.1-.9-.9 1.8-4.7.8.5"/></g><path fill="#603719" d="m48.8-28.8c-4.9-13.2-17.3-14.6-17.3-14.6s8.5 1.6 11.6 16.4c4 18.7-18 30-18 30s3.5-1.3 7.4-3c7.7-3.3 21-15.7 16.3-28.8"/><g fill="#f2d3b3"><path d="m11.6 57.5c.2 4.8-3.3 8.8-7.7 9-4.4.2-8.2-3.5-8.3-8.2-.2-4.8 3.3-8.8 7.7-9s8.1 3.5 8.3 8.2"/><path d="m56.4 24l8-2.1 1.8 5.5-1.4 5-6.5.2-1.9-8.6"/></g><path fill="#c69e87" d="m55.7 24.3c0 0 6.7-2.6 8.5-1.6 1.8 1 .5 7.1-.4 8.8-1 1.7-6.2 1-6.2 1s4.9 1.7 7.2 0c2.3-1.7 3-9.9.8-11.1-2.1-1.4-9.9 2.9-9.9 2.9"/><g fill="#421"><path d="m27.3 12l8.1-7.3 6.6 3.3-7.5 1-7.2 3"/><path d="m49.8 7.1l2-6.4 5.3.7-4.4 2.4-2.9 3.3"/></g><path fill="#442f26" d="m69.6 41.1c0 0-6.2 3.4-13.7 5.1-7.5 1.6-11.8 1.8-14.8 1.4-2.9-.4-3.6 8.5-3.6 8.5s7.8 1.2 16.9-2.6c9.2-3.8 15.2-12.4 15.2-12.4"/><path fill="#fff" d="m40.3 49.4c-.9 1.3-.2 3.7-.2 3.7s6.1 0 12.6-2.1c6.5-2.1 8.3-5.6 8.3-5.6s-5.3 2-11.6 2.8c-6.3.8-8.2-.1-9.1 1.2"/><path fill="#cea282" d="m63.5 54.4c0 0 .8 2.3-3.7 4.6-4.5 2.3-10.4 2-10.4 2s5.8 4.4 10.5 1.6c4.8-2.8 3.6-8.2 3.6-8.2"/><path fill="#97dcff" d="m15.8 89c0 0 28.5 36.8 68.2 63.6 39.6 26.8 80.9 29.1 80.9 29.1l10.3-51-6.1-14.7 6.9-13.6-34.6-12.7-42-30.9 13.6 23.4-21-5.7-16-1.3c0 0-20.7 9.3-36.8 11.8-16.1 2.4-23.4 2-23.4 2"/><path fill="#82ccf9" d="m96.4 55.7l10.1 3.3-3.9 5.7-6.2-9"/></g></svg>