<svg xmlns="http://www.w3.org/2000/svg" viewBox="0 0 100 60" enable-background="new 0 0 100 60"><path fill="#e5e5e5" d="m-77.3-103.6h254.7v268.6h-254.7z"/><g transform="translate(606 166)"><path fill="#343434" d="m-548.7-106.6l37.6-7.7v48.3l3.9 1.6 5.2-1.6v-54.7l-49.5-25.4-62.4 5.8v54.1l4.1 1.9 5.3-1.9v-34.5l20 16.3v49.5l5.2 2 5.6-2v-46.6l15.7-3.2v16.9l4.2 2.2 5-2.2v-18.8h.1"/><g transform="translate(31)"><path fill="#9b9b9b" d="m-540.2-161l-13.8 36-37.4 6.2-38.1-16.8 29.9-6.6 12.1-30.7 47.3 11.9"/><path fill="#c4ebff" d="m-555.5-127.4l-41.8-15.6 11.1-27.9 43 11.1"/><g transform="matrix(.95106.30902-.30902.95106 85.17 23.557)"><path d="m-698 36.4c0-2.3 1.6-4.2 3.6-4.2 1.9 0 3.4 1.7 3.6 3.9v.1c0 .2-.2.4-.4.4h-6.1c.1 1.8 1.4 3.2 2.9 3.2 1 0 1.9-.6 2.4-1.5.1-.2.3-.2.5-.1.2.1.2.4.1.6-.6 1.1-1.7 1.9-3 1.9-2-.2-3.6-2.1-3.6-4.3m.8-.7h5.6c-.2-1.6-1.4-2.7-2.8-2.7-1.4 0-2.6 1.1-2.8 2.7"/><path d="m-670.3 32.1c-1.8 0-3.2 1.5-3.2 3.4v4.6c0 .2.2.4.4.4.2 0 .4-.2.4-.4v-4.6c0-1.4 1.1-2.6 2.4-2.6 1.3 0 2.4 1.2 2.4 2.6v4.6c0 .2.2.4.4.4.2 0 .4-.2.4-.4v-4.6c0-1.8-1.5-3.4-3.2-3.4"/><path d="m-686.4 32.1c-1.8 0-3.2 1.5-3.2 3.4v4.6c0 .2.2.4.4.4.2 0 .4-.2.4-.4v-4.6c0-1.4 1.1-2.6 2.4-2.6 1.3 0 2.4 1.2 2.4 2.6v4.6c0 .2.2.4.4.4.2 0 .4-.2.4-.4v-4.6c0-1.8-1.4-3.4-3.2-3.4"/><path d="m-665.9 32.6c0-.2.2-.4.4-.4.2 0 .4.2.4.4v7.5c0 .2-.2.4-.4.4-.2 0-.4-.2-.4-.4v-7.5"/><path d="m-663.7 36.3c0-2.3 1.8-4.2 4.1-4.2.9 0 1.8.3 2.5.9.2.1.2.4 0 .6-.1.2-.4.2-.5.1-.6-.5-1.3-.8-2-.8-1.9 0-3.3 1.5-3.3 3.4 0 1.9 1.5 3.4 3.3 3.4.8 0 1.5-.3 2-.7.2-.1.4-.1.5.1.1.2.1.4-.1.6-.7.5-1.6.9-2.5.9-2.2-.1-4-1.9-4-4.3"/><path d="m-681.2 35.7c.3-1.5 1.5-2.7 2.8-2.7 1.4 0 2.6 1.2 2.8 2.7h.8c-.3-2-1.8-3.5-3.6-3.5-1.8 0-3.3 1.6-3.6 3.5h.8"/><path d="m-675.5 37c-.3 1.5-1.4 2.7-2.8 2.7-1.4 0-2.6-1.2-2.8-2.7h-.8c.3 2 1.8 3.5 3.6 3.5 1.8 0 3.3-1.6 3.6-3.5h-.8"/></g></g></g><g transform="translate(292 55)"><path d="m-293.9-27.7l3.7-1.3 13.8-11.1 1.8 1.6-12.8 17-2.3.3.3 1.8-3.1 4.1-6.5-5.7 5.1-6.7"/><path d="m-295.5-17.9l3.8-.9 15-9.4 1.6 1.8-14.7 15.3h-2.3l.1 1.8-3.6 3.7-5.8-6.4 5.9-5.9"/></g></svg>