<svg xmlns="http://www.w3.org/2000/svg" viewBox="0 0 100 60" enable-background="new 0 0 100 60"><path fill="#e5e5e5" d="m-77.3-105h254.7v268.6h-254.7z"/><path fill="#d62929" d="m37.6 37.6c0 0-.9-7.8-9.1-15.7-8.2-7.9-20-4.6-26.3-13.1s-9.6-16.6-9.6-16.6-.7 4.9-5.5 7.1c-4.8 2.2-14.9-1.7-14.9-1.7s10 16.4 25.2 24.5c15.1 8.1 24.5 7 29 8.2 4.4 1.3 11.2 7.3 11.2 7.3"/><g fill="#eb3636"><path d="m38.1 34.8c0 0-2.7-10.8-11.1-16.9s-17-2-24-16.3c-4.6-9.3-.3-19.2.8-25.4 1.2-6.5-.8-15 1.8-18.9 3.8-5.6 11.3-8.6 11.3-8.6s-35.9-7.8-42.2 14.7c-5.4 19.4 12.5 24.9 16.6 31.3 4.2 6.4 1.1 11 10.4 17.5 9.3 6.4 13.6 4.4 23 9.8s12.8 12.8 12.8 12.8h.6"/><path d="m35.1 35.9c0 0 6-5.2-.2-8-5.2-2.4-19.1-4.3-28.5-6.9-10-2.8-18-7.5-20.9-10.4-7.1-7.1-13.5-21.4-17.3-22.8-3.8-1.4-8.3-2.3-14.3 8.7s2.3 21.6 1.3 26.8c-1 5.3-9.2 10.7-11.9 17.6s2.7 21 2.7 21l7.5-.2c0 0-3.2 13.9-1.3 23 1.9 9.1 6.1 13.2 12.2 13.4 6.1.2 14.7-12.4 23.4-23.7 8.9-11.3 17.9-20.7 25.2-25.6 7.3-5 17.1-6.4 17.1-6.4l5-6.5"/></g><path fill="#ebbd9b" d="m4.8 43.9c0 0-.4 2.2-1.5 6.5-.6 2.5-.7 5.4-.7 5.4s1.8-1.2 3-.2c1.3 1 3.4 2.2 2.8 3.6-.3.8-1.9.6-2.8-.6-.5-.7-.5 1-.5 1.9 0 .8 1.4 1.6 1.1 1.2-.7-1.2-.9-2.4 1.1-1.8 1.6.5 7 1.8 5.4 4.1-.6.8-5.5 5.6-7.2 6.2-1.7.6-8.3-5.2-8.8-7.1-.3-1.1.8-5.8 2-10.4 1.6-6.8 2.3-10.4 2.3-10.4l3.8 1.6"/><path fill="#fff" d="m31.8 33.7l-27.5-7.2-3.8 13.3-2.4.8-.3 5.5 5.2.3 2.8 1.5 3.2-4.8-1.6-1.4 1.7-5.3 22.1 6.8.6-9.5"/><path fill="#efc4a0" d="m20 66.7l15-58.8 26.9-7.9 20.3 7-4.1 10c0 0 1.4.6 2.2 1.2.8.6-.7 4.8-1.9 5.1-1.2.4-2.4 0-2.4 0l-11.4 36.9-44.6 6.5"/><path fill="#82543c" d="m85.8.7c.5-5.6-7.7-14.3-17.1-17.4-13.8-4.5-25.6-4.2-32.3 5.6-5.9 8.6-2.2 22.2-2.2 22.2l4 .5 3.5-2.6 5.4 3.1 10.2-10.2c0 0 .1 1-1 2.6-1.1 1.6-3.3 2.6-3.3 2.6s2.6-.4 4.5-2c1.9-1.6 2.6-2.9 2.6-2.9s-.4 2.6-2.1 4.8c-2.7 3.3-5.6 3.9-5.6 3.9s3.3-.4 6.4-2.1c4-2.2 5.7-4 5.7-4s-.8 1.9-2.2 3.3c-2 2-4.7 3.3-4.7 3.3s3.2-.4 6.5-2.2c3.3-1.8 6.9-5.2 6.9-5.2s-2.3 3.5-7.4 6.9c-2.2 1.5-5.9 3.8-5.9 3.8l7.3-2.2-8.5 5.2 6.4-1.9-4.8 3.7c0 0 2.4-.6 5.5-2.2 3-1.7 7.1-3.4 7.1-3.4s-.6 1-2.9 3.2c-3.2 3-6.6 4-6.6 4s3.2.1 7.8-2.7c4.3-2.5 4.7-4.5 4.7-4.5s-.4 1.6-2.8 4.3c-2 2.3-4.2 3.9-4.2 3.9s2.4-1.4 6.8-4.6c3.2-2.3 9.7-9.1 10.8-11.6 1.2-2.4 1.4-3.8 1.5-5.2"/><path fill="#efc4a0" d="m47.8 10c0 2.7-2.2 4.9-4.9 4.9-2.7.1-4.9-2.1-4.9-4.9 0-2.7 2.2-4.9 4.9-4.9 2.7 0 4.9 2.2 4.9 4.9"/><path fill="#442f26" d="m72.7 26.9l-6.5-.3c0 0-.6 2.5.9 2.7 2 .3 2.4-1.5 2.4-1.5l3.2-.9"/><g fill="#bf997f"><path d="m72.8 25.7c-.3-.1-.4-.2-.3-.4l.5-1.9c0-.2.2-.3.4-.2.2 0 .3.2.2.4l-.5 1.9c0 .1-.2.2-.3.2"/><path d="m71.7 25.5c-.3 0-.4-.2-.3-.4l.4-1.9c0-.2.2-.3.4-.3.2 0 .3.2.3.4l-.5 2c0 .1-.1.2-.3.2"/><path d="m70.7 25.3c-.2 0-.4-.2-.3-.4l.3-1.7c0-.2.2-.3.4-.3.2 0 .3.2.3.4l-.4 1.7c0 .2-.2.3-.3.3"/><path d="m69.5 25.1c-.2 0-.4-.2-.3-.4l.2-1.4c0-.2.2-.3.4-.3.2 0 .3.2.3.4l-.2 1.4c0 .2-.2.3-.4.3"/><path d="m68.4 25.1c-.2 0-.4-.2-.3-.4l.2-1.2c0-.2.2-.3.4-.3.2 0 .3.2.3.4l-.2 1.2c-.1.2-.2.3-.4.3"/><path d="m66.2 25.6c-.2 0-.3-.2-.3-.4v-.9c0-.2.2-.3.4-.3.2 0 .3.2.3.4v.9c0 .1-.2.3-.4.3"/><path d="m65.1 26.1c-.2 0-.3-.2-.3-.3v-.7c0-.2.2-.3.3-.3.2 0 .3.2.3.3v.7c0 .1-.1.3-.3.3"/><path d="m67.2 25.4c-.2 0-.4-.2-.3-.4l.1-1.2c0-.2.2-.3.4-.3.2 0 .3.2.3.4l-.1 1.2c0 .2-.2.3-.4.3"/><path d="m73.9 26.1c-.2-.1-.3-.2-.3-.4l.5-1.8c.1-.2.2-.3.4-.2.2.1.3.2.2.4l-.5 1.8c0 .1-.1.2-.3.2"/><path d="m74.8 26.4c-.2-.1-.3-.3-.2-.4l.5-1.2c.1-.2.2-.2.4-.2.2.1.2.2.2.4l-.5 1.2c-.1.2-.3.2-.4.2"/></g><path fill="#ebbd9b" d="m81.9 59.6c0 0 1.6-1.6 4.8-4.5 1.9-1.7 3.6-4.1 3.6-4.1s-2.1 0-2.6-1.6c-.5-1.6-1.6-3.7-.3-4.5.7-.5 1.9.6 2 2.1.1.8 1-.6 1.5-1.3.4-.7-.3-2-.3-1.6-.1 1.4-.5 2.5-1.9.9-1.1-1.3-4.8-5.3-2.2-6.4.9-.4 7.7-1.6 9.4-1.2 1.7.4 3.9 8.9 3.4 10.8-.3 1.1-3.9 4.3-7.4 7.5-5.2 4.7-7.8 7.2-7.8 7.2l-2.2-3.3"/><g fill="#fff"><path d="m52.5 54.9l21.5 19.2 9.2-8.7 2.4.6 3.4-4.4-4.2-3.1-1.5-2.8-5.3 2.2.6 2.1-4.4 3.4-15.9-16.1-5.8 7.6"/><path d="m28.5 31.7l-9.2 31.8-10.1 31.4 15.3 6.9 16.1-.4 4.9-5.3v5.5l3.7-.8 11.1-28.8 8.7-16 .5-11.6-6.8 3.2-5.5-3.7-13.3-3.5-15.4-8.7"/></g><path fill="#e5e5e5" d="m62.9 47.5l-2.9-3.7-5.4 5.4 4.5-2.3 3.8.6"/><g fill="#fff"><path d="m28.4 29.8l-1.6 1c0 0 7.9 7.4 14.4 11.2 7.2 4.1 13.5 7.1 13.5 7.1l5.3-5.3c0 0-9.7-3-16.4-5.8-6.8-2.8-15.2-8.2-15.2-8.2"/><path d="m67.1 45.3l1.7 7.5 4-3.8-2.4-4.8-3.3 1.1"/></g><path fill="#e5e5e5" d="m62.6 47.5l4.6-2.2 1.3 6.3-2.3-3.3-3.6-.8"/><path fill="#ededed" d="m64.1 51c0 .9-.7 1.6-1.6 1.6s-1.6-.7-1.6-1.6.7-1.6 1.6-1.6 1.6.7 1.6 1.6"/><g fill="#cc1414"><path d="m60.8 47.5c.6-.6 3.4-.3 3.6.7.3 1-1.7 4.1-2.5 3.9-.9-.3-1.7-4-1.1-4.6"/><path d="m62.1 51.9c0 0-1.7 1.3-3.1 3.2-1.4 1.9-2.7 7.8-10.9 14.2-5.7 4.5-13.3 6.5-13.3 6.5l-2.8 2.7 3.4.7c0 0 7.3-2.1 12.8-6 8.8-6.2 12.8-15.2 13.4-16.4.5-1.2.5-4.9.5-4.9"/></g><path fill="#eb3636" d="m48.3 39.7c0 0-7.2-9.9-16.8-13.2-4-1.4-18.1-.2-23.5-1.6-7.4-1.9-10.7-3.2-10.7-3.2l13.6 6.4 37.4 11.6"/></svg>