<svg xmlns="http://www.w3.org/2000/svg" viewBox="0 0 100 60" enable-background="new 0 0 100 60"><defs><filter id="1" filterUnits="userSpaceOnUse" x="-297.6" y="-227.8" width="26.2" height="15.9"><feColorMatrix type="matrix" values="1 0 0 0 0  0 1 0 0 0  0 0 1 0 0  0 0 0 1 0"/></filter><mask maskUnits="userSpaceOnUse" x="-297.6" y="-227.8" width="26.2" height="15.9" id="0"><g filter="url(#1)"><path fill="#fff" d="m-284-227.8c-.2 0-.4 0-.6 0-7.7.1-13 2.1-13 3.6 0 2 2.3 12.2 12.2 12.2.5 0 1.1 0 1.6-.1 9.5-1 12.3-10.4 12.1-11.9 0-1.4-5-3.8-12.3-3.8"/></g></mask></defs><path fill="#e5e5e5" d="m-77.3-103.6h254.7v268.6h-254.7z"/><g transform="translate(186 92)"><path fill="#421" d="m-113.6-106.1c0 0 4.5.3 3.4 10s-8.1 19.4-8.1 19.4l-.2-28.1 4.9-1.3"/><path fill="#f2d3b3" d="M-112.9,43H-172l-3.2-141.6h62.3V43"/><path fill="#e2bb98" d="m-112.9 43h-59.1l-2.2-100.1c1.6.1 2.9-1.2 3-2.8l-.1-6.2 3.8-1.3c0 0 .5 3.6 1.7 5.8 1.1 2.2 3.1 5 6.6 6.2 4 1.3 11.9-1.2 25.1-1.8 13.6-.7 21.4.9 21.4.9v99.3"/><path fill="#f2d3b3" d="m-169.7-70.1c0 4.7-3.8 8.4-8.4 8.4-4.7 0-8.4-3.8-8.4-8.4 0-4.7 3.8-8.4 8.4-8.4 4.6 0 8.4 3.8 8.4 8.4"/><path fill="#421" d="m-177.1-78.5c0 0-5.5-6.9-4.2-18.9 1.2-12 5.1-14.8 5.1-14.8v3.5c0 0 5.5-11.1 22.5-12.8 32.7-3.3 31.1-12.3 31.1-12.3s2.4 1.2 2.3 5.3c-.1 4.2-1.9 5.4-1.9 5.4s3.2-.8 7.4-7.9c2.8-4.7 1.1-11.4 1.1-11.4s16.6 9.4 13.9 27.3c-2.6 17.9-21.8 22.5-32 23.4-10.2.9-27.6-1.7-27.6-1.7l1.8 4.7c0 0-5-4.1-7.8-1.8-5 4.3-2 23.9-2 23.9l-3.9 1.5c0 0-.7-7.2-2.1-9.8-1.5-2.9-3.7-3.6-3.7-3.6"/><path fill="#603719" d="m-99.3-116.9c.2-17.8-14.5-25.7-14.5-25.7s9.7 6.2 6.7 24.9c-3.9 23.7-36.5 25.7-36.5 25.7s5 .3 10.6.3c11.1 0 33.5-7.5 33.7-25.2"/><path fill="#421" d="m-167.1-65l-4.2 2v-1.1l4.1-1.7.1.8"/><g transform="translate(135.89 145.2)"><path mask="url(#0)" fill="#f8f3ed" d="m-297.6-227.8h26.2v15.9h-26.2v-15.9"/></g><path fill="#fafdff" d="m-112.9-82.2v13.4c4.2-2.4 4.8-9.2 4.5-11.5-.2-1.2-1.7-1.8-4.5-1.9"/><path fill="#f8f3ed" d="m-113.8-82.2c-.6 0-1.3 0-2.1.1-4.7.3-10 2.2-10.2 3.8-.1 1.6 1.7 10.5 9.8 10.5 1.3 0 2.5-.3 3.4-.9v-13.4c-.3-.1-.6-.1-.9-.1"/><path d="m-105-83.2c0 0-4.9-2-10.6-1.6-5.7.4-11.2 3.6-15.4 3.4-4.2-.1-7.4-3.6-16.9-3.7-9.5-.1-12.8 2.4-16 2.6-3.2.3-10.4 1.1-12.7 1.5-2.3.4-2.6 2.4-2.6 2.4s1.1-.3 2 0c.9.3 1.1.6 1.1.6s11.8.5 12.6 1.9c.8 1.5 2.8 12.1 15.4 11.3 12.7-.8 13.5-13.5 17.5-13.2 3.6.2 2.6 12.3 14 12 11.3-.3 10.2-13.9 10.2-13.9l1.3-1.3v-2h.1m-42.8 16.3c-11.3 1.2-13.9-10-13.9-12.1 0-1.5 5.4-3.5 13-3.6 7.7-.1 12.9 2.4 13 3.9.1 1.4-2.6 10.8-12.1 11.8m31.5-1c-8 0-9.9-8.9-9.8-10.5.1-1.6 5.4-3.5 10.2-3.8 4.7-.3 7.3.3 7.5 1.9.4 2.8-.5 12.4-7.9 12.4"/><g fill="#421"><path d="m-144.9-88.5l11.5 4.6v-4.6h-11.5"/><path d="m-127.8-87.2v4l8.4-5.9-8.4 1.9"/></g><path fill="#c69e87" d="m-129.1-69.1c0 0 6.1 2.4 6.9 4.1.7 1.7-3.6 4.9-5.3 5.4-1.6.5-4.9-3.1-4.9-3.1s2.5 4.1 5.1 4.4c2.6.3 7.7-4.6 6.9-6.7-.8-2.1-8.7-4.1-8.7-4.1"/><path fill="#442f26" d="m-123.6-52.2c0 0-10.4-2.1-18.2.8-6 2.2-9.2 9.3-7.4 10.6 1.8 1.2 7-1.1 13.6-3 6.6-2 14-1.3 14-1.3s-5.1-1.2-5.1-2.4c0-1.1-.3-1.8.1-3.3.4-1.7 3-1.4 3-1.4"/><path fill="#fff" d="m-127.7-52v4.4c0 0-3.4.2-8.9.8-5.5.6-9.9 1.3-9.9 1.3s.6-4 6.1-5.7c5.3-1.6 12.7-.8 12.7-.8"/><path fill="#f2d3b3" d="m-101.9-48.4l-6.8-11.2 3.5-8.3 3.1 3.3-1.1 4 2.8 3.4 13-17.2 3 2-.6 4.8 3.5 4.3 1.7 8.7-10.6 10.8-11.5-4.6"/><path fill="#4f4b48" d="m-104.8-73.5l6 21.8 11.6-6.9-6.9-22.4-10.7 7.5"/><path fill="#bbefff" d="m-103.7-73l4.9 17.8 9.5-5.7-5.6-18.2-8.8 6.1"/><g fill="#97dcff"><path d="m-114.7 4.2l28.2-23.7-1.1-27.1-7.9.3 1 21.8-20.2 16.1v12.6"/><path d="m-171.9 6.2l-30.9-25.9 1.2-33 8.6 1.9-1.1 25.7 22.1 17.6.1 13.7"/></g></g></svg>