<svg xmlns="http://www.w3.org/2000/svg" viewBox="0 0 100 60" enable-background="new 0 0 100 60"><path fill="#e5e5e5" d="m-77.3-105h254.7v268.6h-254.7z"/><path fill="#fff" d="m125.1 205.1h-174.8v-267.7h174.8v267.7"/><path fill="#b6ebff" d="m116.4 187.3h-157.8v-240.2h157.8v240.2"/><path fill="none" stroke="#fff" stroke-width="8" d="m-41.2-52.8l43 15v199l-43 26.3"/><path fill="#efc4a0" d="m86.8 44.4l3.4-6.7.1-5 3-11.2 1.9.4-.3 5.5 6.1-3.8 2.8-5.1 2.7-.7 1.8 3.7-2.1 9.1-8.6 6.6-3.1 2.2-4.1 7.5-3.6-2.5"/><path fill="#2e85bc" d="m52.1 56.9l29.5 4.8 10.4-15.4-5.9-2.8-7.8 10.9-19-4-7.2 6.5"/><g transform="translate(72 102)"><path fill="#3a3a3a" d="m-50.8-60.3c2.4-8-2.2-16.4-10.2-18.8-8-2.4-16.4 2.2-18.8 10.2-.2.5-18.2 61.1-18.2 61.1l29 8.6c.1 0 18.1-60.6 18.2-61.1"/><g fill="#efc4a0"><path d="m-68.1-29.8l20.5-79.3 30.1-1.4 24.1 8.3-20.7 64.5-54 7.9"/><path d="m-34.5-98.3c0 3.3-2.7 5.9-5.9 5.9-3.3 0-5.9-2.7-5.9-5.9 0-3.3 2.7-5.9 5.9-5.9 3.2-.1 5.9 2.6 5.9 5.9"/></g><g fill="#2e85bc"><path d="m-57.8-72.2l-14.2 37.9c0 0-3.5 8.5-5.8 26.4-2.3 17.9 14.7 18.7 14.7 18.7l19.9 1.3 5.9.1c0 0 13.8 3.8 21.1-20.4 6.1-20.3 7.4-34.7 7.4-34.7l.6-14-6.7 7.5-8.2-7.7c0 0-7.5-1.3-16.1-4.7-13.3-5.3-18.6-10.4-18.6-10.4"/><path d="m-71.3-56.4c-6.5 12-14.3 35.2-14.3 35.2l27.1 7.5c0 0-.2-2.3.6-5.5s2-4.5 2-4.5l-12-3.7 10.9-32.7c0 0-7.9-8.2-14.3 3.7"/></g><path fill="#3a3a3a" d="m-46.9-27.1c0 0 .3-1 .4-1.4 3.1-11 .8-21.4-6-28.5-5.1-5.3-10.6-6.2-10.7-6.3l1.2-3.5c.3.1 6.5 1.2 12.2 7.2 5.3 5.6 11.2 16.6 6.8 32.1-.2.6-.6 1.8-.6 1.8l-3.3-1.4"/><path fill="#efc4a0" d="m-9.6-88.8c0 0 1 4.5 1.2 5.7.3 1.9-1.2 2.6-3.2 2.9-1.8.3-3-1.5-3-1.5s.8 2.4 3.1 2.6c2.6.2 4.7-1.8 4.2-4.1-.4-1.6-2.3-5.6-2.3-5.6"/><path fill="#c69e87" d="m-7.5-72.7l-3.6.8-4.7-.1 4.6 1.9 3.7-2.6"/><path fill="#efc4a0" d="m-44.6-96.6c.2 2.9-2.1 5.4-5 5.5-2.9.2-5.4-2.1-5.5-5-.2-2.9 2.1-5.4 5-5.5s5.4 2.1 5.5 5"/><path fill="#442f26" d="m-11.3-65.3l-7.4.3c0 0-.5 2.9 1.3 3 2.3.1 2.6-1.9 2.6-1.9l3.5-1.4"/></g><g fill="#4dafd6"><path d="m58 55.1l-1.3-.3.2-.7 1.3.3-.2.7"/><path d="m56.5 55.5l-1.3-.3.2-.7 1.3.3-.2.7"/><path d="m57.7 56.5l-1.3-.3.2-.7 1.3.3-.2.7"/><path d="m56.3 56.8l-1.3-.3.2-.7 1.3.3-.2.7"/><path d="m57.4 57.8l-1.3-.3.2-.7 1.3.3-.2.7"/><path d="m55.9 58.2l-1.3-.3.2-.7 1.3.3-.2.7"/><path d="m57.1 59.2l-1.3-.3.2-.7 1.3.3-.2.7"/><path d="m55.6 59.6l-1.3-.3.2-.7 1.3.3-.2.7"/><path d="m56.8 60.5l-1.3-.3.2-.7 1.3.3-.2.7"/></g><g transform="translate(221 220)" fill="#fff"><path d="m-167.3-163.1c.3-1.3 1.4-2.3 2.7-2.2 1.3 0 2.3 1.1 2.5 2.4h.7c-.2-1.7-1.5-3.1-3.2-3.1-1.7-.1-3.1 1.2-3.4 2.9h.7"/><path d="m-162.1-161.8c-.3 1.3-1.4 2.3-2.7 2.2-1.3 0-2.4-1.1-2.5-2.4h-.7c.2 1.7 1.5 3.1 3.2 3.2 1.7.1 3.1-1.2 3.4-2.9l-.7-.1"/></g><g transform="translate(163 62)"><path fill="#2e85bc" d="m-140.7-62c0 0 3.2-18.1 9.9-23.7 5.7-4.8 14.8-7.2 28.1-4.4 13.3 2.8 18.4 7.6 21.4 15 2.9 7.4-.3 15.4-.9 20.3-.3 1.8 1.3 4.2 1.3 4.2s-14.4 7.1-26.6 5.9c-14.4-1.5-27.9-12-27.9-12l-5.3-5.3"/><path fill="#3597c9" d="m-81.5-51.5c0 0 3.8 6.5 5.4 9.8 2.1 4.2-2.1 5.9-5.4 6.3-9.9 1-26.3 1.7-34.9-3.1-9.8-5.4-19.1-18.2-19.1-18.2s17.3 7.2 34.6 7.8c16.6.7 19.4-2.6 19.4-2.6"/></g><g transform="translate(218 122)" fill="#fff"><path d="m-166.3-117.9l3.6.5c0-.9-.7-1.7-1.6-1.8-.9-.1-1.7.4-2 1.3m-.6.3c.2-1.3 1.4-2.2 2.7-2.1 1.2.2 2.1 1.3 2 2.6 0 .1-.1.2-.3.2l-3.9-.6c-.1 1 .6 2 1.6 2.1.6.1 1.3-.2 1.7-.6.1-.1.2-.1.3 0 .1.1.1.2 0 .3-.5.6-1.3.9-2.1.8-1.3-.2-2.1-1.4-2-2.7"/><path d="m-148.8-118.7c-1.1 0-2 .9-2 2v2.6c0 .1.1.2.2.2.1 0 .2-.1.2-.2v-2.6c0-.8.7-1.5 1.5-1.5.8 0 1.5.7 1.5 1.5v2.6c0 .1.1.2.2.2.1 0 .2-.1.2-.2v-2.6c.1-1.2-.7-2-1.8-2"/><path d="m-159.2-119.1c-1.1-.1-2 .7-2.1 1.8l-.2 2.6c0 .1.1.2.2.3.1 0 .2-.1.3-.2l.2-2.6c.1-.8.8-1.4 1.6-1.3.8.1 1.4.8 1.3 1.6l-.2 2.6c0 .1.1.2.2.3.1 0 .2-.1.3-.2l.2-2.6c.1-1.3-.7-2.2-1.8-2.3"/><path d="m-145.7-118.6c0-.1.1-.2.2-.2.1 0 .2.1.2.2v4.3c0 .1-.1.2-.2.2-.1 0-.2-.1-.2-.2v-4.3"/><path d="m-144.2-116.7c0-1.3 1-2.4 2.3-2.4.5 0 1 .2 1.4.5.1.1.1.2 0 .3-.1.1-.2.1-.3 0-.3-.3-.7-.4-1.2-.4-1 0-1.9.9-1.9 1.9 0 1.1.8 1.9 1.9 1.9.4 0 .8-.2 1.2-.4.1-.1.2 0 .3 0 .1.1.1.3 0 .3-.4.3-.9.5-1.4.5-1.3.2-2.3-.9-2.3-2.2"/><path d="m-155.9-116.8c.2-.9 1-1.5 1.8-1.5.9 0 1.6.8 1.7 1.7h.5c-.1-1.1-1-2.1-2.2-2.1-1.1-.1-2.1.8-2.3 1.9h.5"/><path d="m-152.4-115.9c-.2.9-1 1.5-1.8 1.5-.9 0-1.6-.8-1.7-1.7h-.5c.1 1.2 1 2.1 2.2 2.2 1.2.1 2.1-.8 2.3-2h-.5"/></g></svg>