<svg xmlns="http://www.w3.org/2000/svg" viewBox="0 0 100 60" enable-background="new 0 0 100 60"><path fill="#e5e5e5" d="m-77.3-103.6h254.7v268.6h-254.7z"/><g transform="translate(0-144)"><path fill="#000407" d="m-26.5 144.9l132.6 25.7v70.1l-3.5 3.8-5-1.1v-57.5l-31.2 32.6v62.8l-3.9 4.6-6.6-2.3v-64l-122.6-28.8 40.2-45.9"/><path fill="#4c5159" d="m8.7 98.2l72.7 12.3v2.3l-18 60-27 28.6-76.6-16.1 14.9-30.4 34-56.7"/><path fill="#6b6f75" d="m79.8 111.8l-17.2 54.1-78.9-15.6 25.7-50.3 70.4 11.8"/><path fill="#94979b" d="m20.8 117l-11.6 34 30.8 6 5.7-16.6-9.8-2 6-17.6-21.1-3.8"/><g fill="#f2d3b3"><path d="m-66 134.1l22-61.3 66.3 5.6-25.4 73.9-62.9-18.2"/><path d="m13.9 183.8l5.1-13 15.2-2.8 2.3 2.6 3.9.8 1 3.1 2.8 1.5-3.6 3.2-5.4-.9-8 7.9-11.1 2-2.2-4.4"/></g><path fill="#73d2ef" d="m-14.7 128.9c0 0 7.5-1.9 11.6 18.3 1.9 9.3 9.3 34.9 9.3 34.9l9.3-1.9c0 0 3.9-1 5.4 3.1 1.5 4.1-1.8 4.9-1.8 4.9l-19.6 2.8-7.6-22.3-12.1 38.4c0 0-7.1 9.6-24.8 10.8-17.7 1.3-37.4-2.9-37.4-2.9l-1-87.8 68.7 1.7"/><path fill="#fff" d="m69.2 196.7l1.4-18h-19.7l1.4 18.1v.1c0 .1 0 .3.1.4v.1c.5 1.9 4.1 3.3 8.4 3.3 4.3 0 7.8-1.5 8.4-3.3 0-.1.1-.3.1-.5l-.1-.2"/><path fill="#ccc" d="m70.6 178.8c0 2.5-4.4 4.5-9.8 4.5s-9.8-2-9.8-4.5 4.4-4.5 9.8-4.5 9.8 2 9.8 4.5"/><g fill="#fff"><path d="m69.7 191.6c-2.5 0-4.6-2-4.6-4.5s2-4.5 4.6-4.5c2.5 0 4.6 2 4.6 4.5s-2.1 4.5-4.6 4.5m0-7.7c-1.7 0-3.1 1.4-3.1 3.1 0 1.7 1.4 3.1 3.1 3.1 1.7 0 3.1-1.4 3.1-3.1 0-1.7-1.4-3.1-3.1-3.1"/><path d="m68.3 181.1l7.1-16.6-18.6-6.3-4.5 17.6v.1c0 .1-.1.3-.1.4v.1c-.1 2 2.8 4.5 6.9 5.8 4.1 1.4 7.9 1.1 9-.5.1-.1.2-.3.2-.4v-.2"/></g><path fill="#ccc" d="m75.4 164.5c-.8 2.3-5.6 2.8-10.7 1.1-5.1-1.7-8.7-5-7.9-7.4.8-2.3 5.6-2.8 10.7-1.1 5.1 1.8 8.7 5.1 7.9 7.4"/><g fill="#fff"><path d="m70.4 176.4c-2.4-.8-3.7-3.4-2.9-5.7.8-2.4 3.4-3.6 5.8-2.8 2.4.8 3.7 3.4 2.9 5.7-.8 2.3-3.4 3.6-5.8 2.8m2.5-7.3c-1.6-.6-3.4.3-4 2-.6 1.6.3 3.4 2 3.9 1.6.6 3.4-.3 4-2 .5-1.5-.4-3.3-2-3.9"/><path d="m93.7 183.2l1.2-16.4h-17.9l1.2 16.4v.1c0 .1 0 .3 0 .4v.1c.5 1.7 3.7 3 7.6 3 3.9 0 7.1-1.3 7.6-3 0-.1.1-.3.1-.4l.2-.2"/></g><path fill="#ccc" d="m94.9 166.9c0 2.2-4 4.1-8.9 4.1-4.9 0-8.9-1.8-8.9-4.1 0-2.2 4-4.1 8.9-4.1 4.9 0 8.9 1.8 8.9 4.1"/></g></svg>