<svg width="50" height="49" viewBox="0 0 50 49" xmlns="http://www.w3.org/2000/svg"><g fill="none" fill-rule="evenodd"><path d="m42.661 12.593v7.716h-3.265v-7.716h-7.617v-3.211h7.617v-7.648h3.265v7.648h5.815c.43 1.042.801 2.114 1.111 3.211h-6.926m-38.626 22.17c4.244-2.608 9.961-2.952 13.05-3.149-.957-1.23-2.061-2.534-2.061-4.674 0-1.156.343-1.845.687-2.657-.761.074-1.497.148-2.184.148-7.238 0-11.335-5.412-11.335-10.75 0-3.149 1.448-6.647 4.367-9.178 3.901-3.215 8.538-3.764 12.218-3.764h14.06l-4.367 2.463h-4.22c1.57 1.301 4.833 4.04 4.833 9.25 0 5.068-2.871 7.454-5.717 9.717-.908.886-1.914 1.845-1.914 3.346 0 1.501 1.01 2.337 1.766 2.952l2.453 1.919c3.02 2.509 5.741 4.846 5.741 9.57 0 3.115-1.45 6.241-4.274 8.64-1.52.248-3.079.38-4.668.384 2.868-1.262 4.354-3.57 4.354-6.343 0-3.493-2.233-5.338-7.434-9.05-.54-.049-.883-.049-1.57-.049-.613 0-4.294.123-7.164 1.082-1.497.541-5.864 2.189-5.864 7.06 0 .529.056 1.043.166 1.537-7.194-5.351-4.077-4.596-4.896-4.596.819-1.381 2.089-2.738 3.97-3.854m10.452-31.767c-1.766 0-3.68.891-4.784 2.261-1.153 1.437-1.497 3.282-1.497 5.05 0 4.6 2.65 12.202 8.538 12.202 1.693 0 3.533-.836 4.637-1.919 1.57-1.574 1.693-3.764 1.693-4.994 0-4.945-2.92-12.603-8.587-12.603" fill="#fff"/></g></svg>