<svg width="31" height="30" viewBox="0 0 31 30" xmlns="http://www.w3.org/2000/svg"><g fill="none" fill-rule="evenodd"><path d="m.76 9.958v19.484h6.312v-19.484h-6.312m3.571-9.538c-2.159 0-3.571 1.455-3.571 3.365 0 1.871 1.37 3.368 3.489 3.368h.04c2.201 0 3.571-1.497 3.571-3.368-.041-1.91-1.371-3.365-3.53-3.365m18.642 9.538c-3.351 0-4.851 1.891-5.689 3.218v-2.76h-6.312c.083 1.828 0 19.484 0 19.484h6.312v-10.881c0-.582.041-1.163.208-1.58.456-1.163 1.495-2.368 3.238-2.368 2.285 0 3.198 1.787 3.198 4.405v10.424h6.311v-11.171c0-5.985-3.114-8.77-7.267-8.77" fill="#fff"/></g></svg>