<svg width="31" height="27" viewBox="0 0 31 27" xmlns="http://www.w3.org/2000/svg"><g fill="none" fill-rule="evenodd"><path d="m15.07 7.543l.064 1.101-1.065-.135c-3.877-.517-7.264-2.27-10.139-5.214l-1.406-1.461-.362 1.079c-.767 2.405-.277 4.944 1.321 6.652.852.944.66 1.079-.809.517-.511-.18-.959-.315-1-.247-.149.157.362 2.202.767 3.01.554 1.124 1.683 2.225 2.918 2.877l1.044.517-1.235.022c-1.193 0-1.235.022-1.108.494.426 1.461 2.109 3.01 3.983 3.686l1.321.472-1.15.719c-1.704 1.034-3.706 1.618-5.709 1.663-.959.022-1.747.112-1.747.18 0 .225 2.599 1.483 4.111 1.978 4.537 1.461 9.926.832 13.973-1.663 2.876-1.775 5.751-5.304 7.093-8.72.724-1.82 1.448-5.147 1.448-6.742 0-1.034.064-1.169 1.257-2.405.703-.719 1.363-1.506 1.491-1.73.213-.427.192-.427-.895-.045-1.811.674-2.066.584-1.172-.427.66-.719 1.448-2.023 1.448-2.405 0-.067-.32.045-.682.247-.383.225-1.235.562-1.874.764l-1.15.382-1.044-.742c-.575-.405-1.385-.854-1.811-.989-1.086-.315-2.748-.27-3.728.09-2.663 1.011-4.345 3.618-4.154 6.472" fill="#fff"/></g></svg>