<svg width="33" height="23" viewBox="0 0 33 23" xmlns="http://www.w3.org/2000/svg"><g fill="none" fill-rule="evenodd"><path d="m32.27 19.226c-.4 1.738-1.822 3.02-3.533 3.211-4.053.453-8.155.455-12.239.453-4.084.002-8.186 0-12.238-.453-1.711-.191-3.132-1.473-3.532-3.211-.569-2.476-.569-5.177-.569-7.725 0-2.549.007-5.25.575-7.726.4-1.738 1.821-3.02 3.532-3.211 4.053-.453 8.155-.455 12.239-.453 4.084-.002 8.186 0 12.238.453 1.711.191 3.133 1.473 3.533 3.211.569 2.476.566 5.177.566 7.726 0 2.548-.003 5.25-.572 7.725m-18.711-13.756l9.05 5.222-9.05 5.222v-10.444" fill="#fff"/></g></svg>