<svg width="1770" height="615" viewBox="0 0 1770 615" xmlns="http://www.w3.org/2000/svg"><g fill="#fff" fill-rule="evenodd"><path d="m1249.79 53.846c-11.483 0-20.792-9.309-20.792-20.792 0-11.483 9.309-20.792 20.792-20.792 1.299 0 2.571.119 3.805.347 3.177-7.415 10.542-12.609 19.12-12.609 10.696 0 19.506 8.08 20.663 18.464 2.174-.904 4.558-1.404 7.06-1.404 10.158 0 18.393 8.235 18.393 18.393 0 9.98-7.948 18.1-17.86 18.385v.008h-51.18"/><path d="m11.663 335.2c-6.441 0-11.663-5.222-11.663-11.663 0-6.441 5.222-11.663 11.663-11.663.729 0 1.442.067 2.134.195 1.782-4.159 5.913-7.07 10.725-7.07 6 0 10.941 4.53 11.59 10.357 1.219-.507 2.557-.787 3.96-.787 5.698 0 10.317 4.619 10.317 10.317 0 5.598-4.458 10.154-10.02 10.313v.004h-28.708" opacity=".313"/><path d="m635.66 614.2c-6.441 0-11.663-5.222-11.663-11.663 0-6.441 5.222-11.663 11.663-11.663.729 0 1.442.067 2.134.195 1.782-4.159 5.913-7.07 10.725-7.07 6 0 10.941 4.53 11.59 10.357 1.219-.507 2.557-.787 3.96-.787 5.698 0 10.317 4.619 10.317 10.317 0 5.598-4.458 10.154-10.02 10.313v.004h-28.708"/><path d="m1738.46 104.9c-5.225 0-9.462-4.305-9.462-9.615 0-5.31 4.236-9.615 9.462-9.615.591 0 1.17.055 1.731.161 1.446-3.429 4.797-5.831 8.701-5.831 4.867 0 8.876 3.735 9.403 8.539.989-.418 2.074-.649 3.213-.649 4.623 0 8.37 3.808 8.37 8.506 0 4.615-3.617 8.372-8.127 8.502v.004h-23.29" opacity=".574"/></g></svg>