<svg width="1862" height="753" viewBox="0 0 1862 753" xmlns="http://www.w3.org/2000/svg"><g fill="#fff" fill-rule="evenodd"><g><path d="m1648.46 346.9c-5.225 0-9.462-4.305-9.462-9.615 0-5.31 4.236-9.615 9.462-9.615.591 0 1.17.055 1.731.161 1.446-3.429 4.797-5.831 8.701-5.831 4.867 0 8.876 3.735 9.403 8.539.989-.418 2.074-.649 3.213-.649 4.623 0 8.37 3.808 8.37 8.506 0 4.615-3.617 8.372-8.127 8.502v.004h-23.29" opacity=".349"/><path d="m680.66 604.2c-6.441 0-11.663-5.222-11.663-11.663 0-6.441 5.222-11.663 11.663-11.663.729 0 1.442.067 2.134.195 1.782-4.159 5.913-7.07 10.725-7.07 6 0 10.941 4.53 11.59 10.357 1.219-.507 2.557-.787 3.96-.787 5.698 0 10.317 4.619 10.317 10.317 0 5.598-4.458 10.154-10.02 10.313v.004h-28.708"/><path d="m1565.45 37.411c-7.978 0-14.446-6.468-14.446-14.446 0-7.978 6.468-14.446 14.446-14.446.903 0 1.786.083 2.643.241 2.208-5.152 7.324-8.761 13.284-8.761 7.431 0 13.552 5.611 14.356 12.828 1.51-.628 3.167-.975 4.905-.975 7.06 0 12.779 5.721 12.779 12.779 0 6.934-5.522 12.578-12.409 12.774v.005h-35.559" opacity=".75"/><path d="m55.88 163.71c-1.282-17.385-22.54-23.11-31.23-8.227-5.636-3.431-12.823.606-13.273 7.699-6.179.815-10.965 6.482-10.965 13.356 0 7.434 5.596 13.46 12.499 13.46h39.17c6.903 0 12.499-6.03 12.499-13.46 0-6.01-3.658-11.1-8.706-12.827"/></g><path d="m20.792 53.846c-11.483 0-20.792-9.309-20.792-20.792 0-11.483 9.309-20.792 20.792-20.792 1.299 0 2.571.119 3.805.347 3.177-7.415 10.542-12.609 19.12-12.609 10.696 0 19.506 8.08 20.663 18.464 2.174-.904 4.558-1.404 7.06-1.404 10.158 0 18.393 8.235 18.393 18.393 0 9.98-7.948 18.1-17.86 18.385v.008h-51.18" transform="translate(1772 699)"/></g></svg>