<svg xmlns="http://www.w3.org/2000/svg" viewBox="0 0 567.2 324.6" enable-background="new 0 0 567.2 324.6"><path fill="#2a78a0" d="m561.5 272.2c.1 0 5.7 9 5.7 17.9 0 13-10.9 17.6-23.8 17.6-36.6 0-61.7-9.3-81.4-37l-15.1-30.2 58.3 18.4c19.2-1.1 41.5 1.5 56.3 13.3 3.4 2.8 5.7 9 5.7 17.9"/><path fill="#2e85bc" d="m0 213.3c21 14.1 50.5 29.5 117.7 36.7 99.7 10.7 260.3 18 311.2-31.9 0-229.3-199-218-222.9-218-52.1 0-206 7.7-206 212"/><path fill="#3597c9" d="m503.3 266c-62.7 3.7-125.8 51.7-221.5 58.4-22.7 1.6-44.1-6-62.5-16.6 0 0-55.5-24.1-90.7-56.6 0 0 37.6 3.7 196.2-58.7 10.2-4 37.8-10.7 49.3-10.7 21.2 0 41.1 5.2 58.7 14.5l122.8 71.9c-.2-.1-39.5-2.9-52.3-2.2"/><g fill="#fff"><path d="m230.9 155.1c-.8-8.5 5.2-16.1 13.5-16.8 7.9-.7 14.8 5 16.1 12.9v.1.2c.1.8-.6 1.4-1.4 1.5l-25.2 2.4c.9 6.7 6.7 11.3 13 10.7 4.1-.4 7.6-2.9 9.4-6.5.4-.8 1.3-1 2-.7.7.4 1.1 1.3.7 2.1-2.2 4.4-6.6 7.6-11.8 8.1-8.2.7-15.5-5.6-16.3-14m3-2.8l23.3-2.2c-1.5-5.7-6.8-9.4-12.5-8.9-5.8.6-10.2 5.2-10.8 11.1"/><path d="m342.2 129.2c-6.9.6-12 6.8-11.3 13.7l1.6 16.7c.1.9.8 1.4 1.6 1.4.8-.1 1.4-.8 1.4-1.6l-1.6-16.7c-.5-5.2 3.3-9.9 8.6-10.4 5.3-.5 9.9 3.4 10.4 8.6l1.6 16.7c.1.9.8 1.4 1.6 1.4.8-.1 1.4-.8 1.4-1.6l-1.6-16.7c-.7-7-6.8-12.2-13.7-11.5"/><path d="m277.8 135.2c-6.9.6-12 6.8-11.3 13.7l1.6 16.7c.1.9.8 1.4 1.6 1.4.8-.1 1.4-.8 1.4-1.6l-1.6-16.7c-.5-5.2 3.3-9.9 8.6-10.4 5.3-.5 9.9 3.4 10.4 8.6l1.6 16.7c.1.9.8 1.4 1.6 1.4.8-.1 1.4-.8 1.4-1.6l-1.6-16.7c-.7-7-6.8-12.1-13.7-11.5"/><path d="m361.7 128.8c-.1-.9.5-1.6 1.4-1.6.9-.1 1.6.5 1.7 1.4l2.6 27.7c.1.8-.5 1.6-1.4 1.7-.8.1-1.6-.5-1.6-1.4l-2.7-27.8"/><path d="m371.7 141.8c-.8-8.5 5.6-16 14.4-16.8 3.6-.3 7.2.6 10.1 2.5.7.4.9 1.3.4 2.1-.5.6-1.3.9-2 .4-2.4-1.6-5.2-2.3-8.2-2-7.2.7-12.3 6.8-11.6 13.6.6 6.9 6.8 11.9 14 11.2 3-.3 5.6-1.5 7.7-3.4.6-.6 1.5-.5 2.1.1.6.6.6 1.6-.1 2.2-2.4 2.2-5.7 3.8-9.4 4.2-8.9.7-16.6-5.4-17.4-14.1"/><path d="m300.1 146.2c.5-5.8 4.9-10.6 10.4-11.1 5.5-.5 10.7 3.4 12.3 9l3-.3c-1.8-7.2-8.3-12.4-15.6-11.7-7.3.7-12.7 7-13.2 14.4l3.1-.3"/><path d="m323.2 148.7c-.5 5.9-4.8 10.7-10.4 11.2-5.6.5-10.7-3.4-12.3-9.1l-3 .3c1.7 7.2 8.3 12.5 15.6 11.8 7.4-.7 12.8-7.1 13.2-14.5l-3.1.3"/></g></svg>