<svg width="168" height="165" viewBox="0 0 168 165" xmlns="http://www.w3.org/2000/svg"><g fill="#fc5d4b" fill-rule="evenodd" transform="translate(1)"><path d="m61.708 153.19l-3.358 9.629c-.028.076-.081.133-.159.173-.081.038-.158.046-.234.018l-2.457-.857c-.415-.144-.78-.361-1.095-.653-.317-.291-.563-.624-.74-.997-.179-.373-.283-.776-.311-1.202-.028-.428.031-.85.177-1.27.229-.658.575-1.147 1.036-1.468.46-.32 1-.558 1.635-.71.136-.038.22-.106.255-.203.021-.063.026-.136.012-.22l-.597-4.113c-.011-.073-.008-.136.011-.188.015-.044.04-.083.078-.116.078-.075.19-.087.332-.038l.312.11c.116.04.191.096.228.171.037.075.063.161.08.265l.606 4.277c.002.054.02.104.054.153.034.049.089.087.165.113l1.591.557c.095.032.162.003.2-.092l1.274-3.654c.026-.073.076-.132.153-.173.075-.04.153-.047.233-.02l.338.119c.073.024.128.076.165.156.037.08.041.158.015.234m-2.603 4.557c.032-.095 0-.159-.101-.196l-1.69-.589c-.291-.101-.586-.142-.883-.121-.298.021-.58.096-.843.223-.262.125-.494.298-.696.515-.2.217-.353.473-.456.768-.101.289-.141.583-.119.881.021.297.096.577.225.837.128.26.301.493.517.696.217.203.474.356.769.459l1.69.59c.096.034.162 0 .202-.096l1.384-3.968"/><path d="m53.727 150.23l-4.428 9.189c-.035.072-.093.122-.177.151-.084.031-.162.028-.236-.008l-4.356-2.099c-.072-.035-.122-.095-.151-.179-.031-.083-.028-.162.008-.234l.164-.341c.035-.072.093-.121.177-.147.083-.028.161-.024.234.011l3.627 1.748c.09.043.162.02.211-.073l1.517-3.146c.043-.092.017-.159-.078-.205l-3.477-1.676c-.073-.034-.124-.095-.153-.18-.031-.084-.028-.165.009-.237l.156-.324c.035-.073.095-.125.18-.156.084-.029.164-.026.236.008l3.477 1.676c.092.043.162.018.213-.075l1.621-3.362c.043-.092.018-.162-.075-.213l-3.654-1.761c-.072-.035-.124-.095-.153-.18-.031-.083-.028-.161.008-.234l.161-.333c.035-.072.093-.124.174-.153.081-.032.161-.028.239.011l4.382 2.111c.073.035.124.095.153.179.029.083.028.161-.008.234"/><path d="m44.825 150.09c-.199.355-.413.714-.642 1.075-.229.361-.459.705-.691 1.036-.234.329-.451.609-.653.846-.278.324-.595.601-.951.835-.355.231-.734.396-1.135.494-.401.095-.817.112-1.247.047-.43-.064-.861-.233-1.294-.508-.421-.268-.765-.587-1.034-.961-.268-.373-.448-.759-.543-1.159-.095-.398-.11-.809-.043-1.231.067-.422.22-.82.457-1.195l.032-.05c.044-.067.107-.112.193-.132.086-.02.161-.011.226.032l.34.216c.067.043.11.106.128.188.02.084.006.162-.04.234l-.032.05c-.17.268-.281.548-.332.84-.052.292-.041.578.032.855.073.28.203.546.392.8.188.252.439.479.753.678.315.2.621.321.921.367.3.043.592.031.875-.041.283-.07.546-.187.791-.35.243-.165.456-.352.638-.564.213-.24.436-.523.672-.852.234-.327.465-.67.691-1.026.226-.356.437-.711.635-1.062.196-.353.358-.676.485-.97.096-.208.171-.447.228-.719.057-.271.063-.551.02-.84-.043-.289-.145-.574-.307-.852-.162-.28-.422-.532-.779-.759-.349-.22-.691-.353-1.029-.398-.338-.044-.653-.031-.947.047-.292.076-.551.199-.776.369-.223.17-.396.352-.517.543l-.893 1.407c-.055.084-.037.156.054.213l1.606 1.02c.069.044.113.11.133.196.021.089.009.167-.034.233l-.199.314c-.043.067-.107.112-.191.133-.086.02-.162.008-.236-.038l-2.293-1.455c-.067-.043-.112-.107-.133-.193-.02-.084-.008-.162.038-.234l1.338-2.109c.269-.425.589-.754.958-.991.369-.237.759-.39 1.172-.457.411-.069.832-.054 1.257.047.427.101.834.274 1.221.52.789.502 1.291 1.156 1.502 1.969.213.809.106 1.673-.321 2.588-.128.28-.294.6-.494.955"/><path d="m39.1 141.6l-6.2 8.1c-.049.063-.116.102-.203.115-.087.012-.161-.005-.223-.052l-.285-.217c-.061-.047-.096-.115-.107-.202-.011-.087.008-.162.058-.226l6.2-8.1c.049-.063.115-.102.199-.116.086-.015.161.003.226.054l.285.219c.061.046.098.113.109.202.011.086-.009.161-.058.225"/><path d="m34.596 141.68l-.164.179c-.054.058-.124.092-.211.098-.087.005-.164-.021-.228-.08l-.289-.263c-.061-.055-.095-.125-.101-.213-.008-.089.018-.164.076-.228l.162-.177c.179-.197.323-.428.43-.694.109-.265.162-.541.158-.829-.003-.289-.067-.575-.193-.864-.125-.286-.329-.558-.612-.815-.525-.474-1.08-.701-1.664-.675-.587.024-1.101.281-1.545.771-.237.259-.389.52-.457.78-.069.26-.076.534-.021.82.054.289.173.584.356.892.182.307.392.656.626 1.049.165.231.323.494.474.792.151.297.254.604.304.922.05.317.034.646-.054.985-.087.338-.283.676-.587 1.011-.311.341-.649.592-1.011.748-.363.156-.731.231-1.106.228-.375-.003-.74-.081-1.098-.233-.358-.15-.685-.363-.985-.633-.33-.301-.581-.632-.751-.993-.168-.361-.26-.727-.275-1.095-.014-.369.044-.731.174-1.085.13-.355.33-.681.601-.979l.136-.151c.055-.058.124-.092.21-.099.086-.008.159.017.22.073l.266.24c.057.052.087.122.09.211.003.087-.023.159-.076.219l-.138.151c-.185.205-.318.427-.398.668-.08.24-.11.483-.093.73.017.246.086.489.203.73.118.24.283.456.494.649.254.228.511.389.774.482.262.092.515.127.759.102.245-.021.474-.09.688-.208.216-.118.402-.263.56-.439.237-.259.364-.52.384-.782.018-.262-.023-.52-.121-.777-.101-.255-.231-.509-.393-.762-.161-.251-.318-.497-.473-.74-.223-.372-.413-.734-.568-1.088-.154-.355-.245-.702-.271-1.045-.024-.343.023-.684.144-1.025.122-.341.341-.687.659-1.037.338-.372.707-.646 1.106-.818.399-.174.809-.26 1.227-.259.416.002.823.086 1.218.251.396.165.754.393 1.075.685.366.332.646.701.838 1.103.194.402.3.811.317 1.224.017.413-.046.815-.188 1.21-.142.393-.363.753-.659 1.081"/><path d="m23.584 141.05l-.281.252c-.06.054-.133.078-.223.073-.087-.005-.159-.038-.213-.098l-3.913-4.355c-.054-.06-.078-.135-.073-.223.006-.087.038-.159.098-.213l.28-.252c.06-.055.133-.078.217-.073.086.005.158.037.214.101l1.508 1.68c.066.075.139.076.217.006l6.966-6.255c.06-.054.135-.08.223-.073.09.006.162.038.217.099l.26.291c.055.061.081.136.076.225-.005.09-.037.162-.096.216l-6.966 6.255c-.073.067-.078.142-.012.223l1.519 1.692c.054.06.078.133.075.219-.002.087-.034.158-.093.211"/><path d="m25.533 128.35l-8.249 5.998c-.064.046-.141.063-.229.049-.087-.012-.154-.054-.202-.118l-2.844-3.91c-.047-.066-.064-.142-.05-.231.014-.087.054-.154.119-.203l.304-.22c.066-.047.141-.063.226-.047.086.015.153.057.202.122l2.366 3.255c.06.081.133.093.222.035l2.825-2.054c.081-.058.09-.132.028-.217l-2.268-3.12c-.047-.066-.064-.144-.05-.233.014-.087.055-.156.121-.203l.291-.213c.067-.047.144-.066.234-.052.089.014.156.054.203.119l2.27 3.12c.06.083.133.093.222.035l3.02-2.195c.083-.058.093-.133.035-.222l-2.385-3.28c-.047-.066-.064-.142-.05-.231.012-.087.052-.156.118-.203l.298-.217c.066-.047.141-.066.226-.054.087.012.154.052.207.122l2.86 3.934c.047.066.064.142.05.229-.014.089-.054.156-.119.203"/><path d="m20.982 121.86l-8.872 5.03c-.07.04-.148.047-.234.026-.086-.024-.147-.07-.187-.139l-1.283-2.264c-.217-.381-.347-.786-.393-1.213-.046-.428-.012-.84.099-1.239.112-.399.298-.768.56-1.109.26-.34.584-.62.968-.838.607-.343 1.19-.483 1.747-.422.558.063 1.124.243 1.698.545.127.063.237.066.327.014.057-.031.109-.083.154-.156l2.262-3.486c.04-.063.083-.11.132-.136.04-.023.084-.035.136-.035.107-.006.197.058.274.191l.162.288c.061.106.081.2.058.278-.021.08-.06.164-.113.251l-2.363 3.616c-.034.043-.054.092-.061.151-.008.058.009.124.049.194l.831 1.465c.05.089.119.11.211.064l3.365-1.909c.07-.04.147-.049.231-.029.083.018.145.066.187.138l.176.312c.038.069.046.142.021.228-.026.084-.072.145-.142.185m-4.961 1.712c.087-.05.106-.121.052-.213l-.883-1.559c-.151-.268-.347-.491-.586-.67-.237-.182-.497-.312-.779-.389-.281-.078-.569-.102-.864-.07-.294.029-.577.122-.849.275-.266.151-.489.347-.67.584-.18.24-.307.497-.382.779-.075.28-.098.568-.07.866.031.295.122.578.275.85l.884 1.559c.049.087.121.107.216.06l3.656-2.073"/><path d="m16.924 114.36l-9.386 3.994c-.073.032-.151.032-.234-.003-.083-.032-.139-.086-.171-.159l-1.894-4.45c-.032-.073-.031-.153.003-.236.034-.083.086-.139.161-.17l.347-.148c.073-.031.151-.029.231.005.081.034.138.09.168.164l1.577 3.703c.04.093.109.122.208.086l3.214-1.368c.092-.041.118-.11.076-.207l-1.511-3.55c-.032-.075-.031-.154.003-.239.034-.081.089-.141.164-.171l.33-.142c.076-.031.154-.031.239.002.084.035.141.089.173.164l1.511 3.55c.04.092.109.121.208.084l3.437-1.462c.092-.04.119-.109.083-.208l-1.588-3.732c-.032-.075-.032-.153.002-.236.032-.084.087-.141.161-.171l.34-.145c.075-.032.151-.032.234-.002.081.032.139.087.171.164l1.906 4.477c.032.075.031.153-.003.236-.032.083-.086.139-.159.171"/><path d="m13.946 107.05l-9.785 2.877c-.078.023-.154.012-.233-.029-.078-.043-.128-.104-.151-.179l-.783-2.663c-.141-.48-.188-.936-.142-1.368.046-.431.162-.824.349-1.181.187-.355.434-.667.745-.939.311-.272.661-.496 1.049-.673.283-.124.615-.254.994-.39.379-.135.774-.263 1.184-.384.41-.121.814-.229 1.21-.324.396-.096.748-.164 1.055-.208.997-.154 1.839-.012 2.518.424.682.434 1.153 1.097 1.416 1.992l.783 2.663c.023.075.012.153-.031.231-.043.078-.102.128-.179.151m-1.074-.684c.096-.028.132-.093.107-.197l-.551-1.869c-.116-.396-.28-.716-.489-.958-.21-.243-.442-.428-.693-.554-.252-.125-.511-.199-.779-.223-.266-.024-.512-.02-.739.017-.315.05-.668.119-1.063.205-.393.087-.792.19-1.199.311-.404.119-.797.248-1.175.387-.378.141-.713.275-1 .404-.254.116-.489.268-.704.454-.216.187-.385.404-.509.65-.124.246-.202.52-.234.821-.032.3.003.627.107.981l.551 1.869c.028.098.093.133.196.107l8.179-2.405"/><path d="m7.01 94.83c-.402.064-.817.118-1.242.164-.424.043-.838.075-1.241.096-.402.021-.759.026-1.068.012-.427-.017-.841-.093-1.245-.228-.402-.135-.766-.33-1.092-.584-.324-.255-.594-.571-.809-.948-.217-.378-.35-.821-.404-1.332-.05-.497-.011-.968.121-1.412.13-.444.326-.828.586-1.152.26-.324.575-.59.948-.8.373-.21.769-.337 1.19-.379l.06-.008c.081-.008.154.017.223.072.069.055.107.121.116.2l.041.407c.008.078-.014.151-.069.22-.054.067-.122.107-.208.115l-.06.006c-.285.029-.555.115-.812.254-.255.141-.476.326-.659.558-.182.231-.321.499-.413.805-.092.304-.119.642-.081 1.013.038.37.132.687.285.948.15.263.341.485.572.662.229.179.485.314.765.402.28.09.56.141.838.153.321.017.682.017 1.085-.003.404-.018.814-.049 1.234-.092.421-.044.829-.098 1.227-.161.399-.064.753-.138 1.063-.219.222-.055.456-.142.704-.266.248-.125.471-.294.672-.506.2-.213.361-.47.479-.769.118-.301.156-.661.112-1.081-.043-.41-.15-.759-.324-1.048-.173-.288-.381-.52-.621-.698-.242-.177-.497-.298-.769-.364-.272-.066-.522-.087-.746-.063l-.06.006c-.08.006-.154-.015-.223-.067-.069-.052-.107-.121-.115-.205l-.043-.407c-.009-.08.017-.151.072-.22.057-.067.124-.107.203-.113l.061-.008c.5-.052.958-.005 1.371.138.415.144.777.358 1.086.639.311.283.558.624.743 1.022.185.399.301.828.349 1.285.096.932-.109 1.732-.613 2.4-.505.668-1.248 1.12-2.23 1.352-.301.072-.653.139-1.057.203"/><path d="m6.195 85.38c-.407.015-.824.018-1.253.009-.427-.009-.841-.028-1.242-.057-.402-.028-.757-.067-1.062-.119-.422-.069-.824-.196-1.208-.381-.382-.184-.72-.422-1.011-.716-.291-.294-.519-.641-.687-1.042-.168-.402-.246-.861-.237-1.375.011-.502.109-.951.292-1.349.185-.398.428-.737.731-1.02.303-.281.649-.506 1.04-.675.39-.167.797-.277 1.221-.329.307-.032.662-.057 1.066-.069.402-.011.817-.014 1.245-.005.427.009.844.029 1.251.057.407.029.763.066 1.069.113.997.156 1.774.545 2.334 1.166.557.623.828 1.401.808 2.339-.02.938-.321 1.709-.904 2.31-.584.604-1.377.961-2.38 1.072-.307.034-.665.058-1.074.07m-2.46-1.069c.402.032.814.05 1.236.06.422.009.835.006 1.237-.009.404-.012.763-.043 1.081-.086.226-.026.471-.086.731-.177.262-.093.505-.234.73-.421.225-.188.415-.422.569-.708.154-.283.236-.638.245-1.062.008-.415-.058-.769-.2-1.068-.142-.298-.323-.545-.54-.742-.217-.196-.454-.346-.711-.45-.257-.102-.499-.173-.724-.207-.315-.043-.675-.08-1.077-.11-.402-.031-.814-.05-1.236-.06-.422-.009-.835-.006-1.237.009-.402.014-.763.034-1.08.064-.278.034-.552.109-.824.225-.271.116-.514.271-.73.465-.216.196-.387.433-.517.71-.128.277-.197.603-.205.976-.006.373.047.699.165.979.118.28.28.523.486.73.207.207.444.37.711.494.266.124.537.21.812.255.317.057.675.102 1.077.132"/><path d="m10.357 75.995l-10.07-1.62c-.08-.014-.145-.054-.197-.122-.054-.069-.073-.141-.061-.216l.159-.991c.028-.164.138-.249.337-.257l9.138-1.051c.038-.026.06-.064.069-.118.008-.05-.009-.096-.054-.138l-8.35-3.855c-.168-.069-.237-.188-.21-.363l.17-1.059c.014-.078.055-.144.127-.197.073-.052.148-.072.228-.058l10.07 1.62c.08.012.145.055.197.127.052.072.072.148.06.226l-.054.337c-.014.08-.057.145-.128.197-.072.052-.148.072-.226.058l-8.791-1.413c-.05-.009-.078.008-.084.046-.006.04.005.066.032.081l8.45 4c.165.087.236.208.211.361l-.078.482c-.024.153-.128.245-.312.277l-9.279 1.158c-.031.006-.05.024-.055.06-.006.035.017.057.066.064l8.789 1.415c.08.011.145.054.197.122.054.07.072.147.058.231l-.054.335c-.012.08-.055.145-.127.199-.072.05-.148.072-.228.058"/><path d="m12.395 65.05l-9.767-2.938c-.076-.021-.138-.072-.179-.15-.043-.078-.052-.156-.029-.233l.75-2.492c.127-.421.329-.794.606-1.123.277-.327.598-.589.965-.785.366-.193.762-.314 1.187-.359.427-.046.852-.006 1.274.121.433.13.812.332 1.14.606.327.271.589.59.785.955.197.364.321.76.37 1.185.05.427.012.85-.115 1.271l-.515 1.715c-.029.096.005.162.099.196l3.705 1.115c.078.021.138.072.18.145.044.073.054.151.029.231l-.102.343c-.023.075-.072.132-.151.173-.076.04-.154.049-.231.024m-4.665-2.403c.096.029.159-.008.19-.109l.517-1.715c.089-.295.115-.59.081-.887-.034-.298-.119-.574-.259-.831-.138-.257-.32-.483-.545-.675-.226-.191-.488-.332-.788-.422-.294-.089-.589-.115-.886-.081-.297.035-.572.121-.826.26-.255.141-.479.323-.673.548-.194.226-.335.489-.427.788l-.515 1.715c-.029.098.006.164.106.197l4.02 1.211"/><path d="m14.229 58.954l-8.369-6.651c-.132-.087-.164-.21-.099-.367l.303-.733c.066-.158.174-.222.324-.191l10.628 1.21c.02.003.04.009.058.015.043.017.078.055.109.113.046.075.046.168-.003.281l-.15.364c-.064.156-.174.219-.33.188l-2.7-.327c-.148-.006-.251.06-.307.196l-1.23 2.971c-.057.138-.029.257.086.358l2.122 1.699c.135.086.171.205.11.352l-.142.344c-.046.112-.112.177-.196.196-.058.011-.109.009-.151-.008-.018-.009-.04-.012-.061-.011m-2.769-3.462c.021.015.043.026.061.035.067.026.116 0 .15-.081l1.068-2.577c.035-.086.017-.144-.055-.174-.021-.009-.047-.014-.076-.014l-5.389-.684c-.06.003-.098.017-.112.041l-.018.044c-.015.037.003.075.055.11l4.317 3.299"/><path d="m17.79 50.703l-8.906-4.97c-.07-.041-.118-.102-.142-.188-.024-.084-.017-.162.021-.231l.389-.699c.04-.069.083-.113.132-.132.047-.02.133-.024.255-.02l9.482 1.06c.037-.003.06-.02.07-.047.011-.029-.005-.055-.044-.076l-7.608-4.246c-.07-.04-.118-.101-.142-.187-.024-.083-.018-.161.02-.229l.15-.266c.038-.069.099-.115.185-.139.084-.021.162-.015.233.024l8.906 4.97c.07.038.119.099.144.184.028.083.018.161-.023.234l-.385.691c-.038.069-.081.116-.128.138-.047.023-.133.028-.259.014l-9.545-1.085c-.035.003-.06.018-.069.046-.011.031.002.055.037.073l7.674 4.283c.07.038.118.101.142.185.026.086.018.162-.02.233l-.148.265c-.04.069-.101.116-.185.138-.086.024-.164.017-.234-.021"/><path d="m13.586 37.893c-.06-.012-.11-.032-.15-.063-.041-.028-.072-.069-.09-.119-.041-.098-.034-.188.026-.269l.289-.405c.084-.118.205-.153.361-.104l5.732 1.465c.106.026.132-.008.075-.104l-3.257-4.924c-.098-.133-.104-.257-.02-.378l.291-.404c.058-.083.142-.121.251-.116.054.002.104.017.148.05.037.024.07.066.101.118l3.836 6.074 2.781 1.985c.066.049.106.115.122.199.015.087-.002.165-.052.234l-.231.326c-.047.066-.115.106-.203.119-.087.014-.164-.002-.229-.049l-2.767-1.978-7.01-1.658"/><path d="m27.28 32.15l-.171-.171c-.055-.058-.084-.13-.086-.217 0-.089.029-.162.092-.223l.275-.277c.058-.057.132-.086.219-.089.089-.002.162.026.222.089l.171.171c.188.188.411.343.67.465.26.121.532.188.82.2.289.012.58-.037.873-.148.292-.112.575-.301.844-.569.503-.5.757-1.042.76-1.629.006-.587-.225-1.112-.688-1.58-.249-.249-.502-.416-.757-.497-.257-.083-.531-.106-.818-.064-.291.038-.592.142-.909.309-.315.167-.676.358-1.08.572-.239.151-.511.297-.815.433-.304.136-.616.222-.936.255-.321.035-.649 0-.982-.104-.333-.104-.661-.317-.979-.638-.326-.327-.558-.678-.696-1.048-.136-.37-.194-.743-.17-1.117.023-.373.119-.736.288-1.085.17-.35.398-.667.684-.95.317-.317.661-.551 1.029-.699.369-.151.739-.225 1.107-.22.37.006.728.083 1.075.229.347.148.662.366.945.65l.144.145c.057.057.087.128.089.214.003.086-.024.158-.083.216l-.254.252c-.055.055-.127.083-.214.081-.089-.002-.161-.031-.217-.089l-.144-.144c-.194-.196-.41-.341-.647-.433-.236-.09-.477-.133-.724-.128-.246.003-.494.058-.739.164-.245.106-.47.26-.673.462-.242.24-.416.488-.52.746-.106.257-.154.508-.144.753.011.245.069.479.174.698.106.222.242.416.408.583.248.249.502.39.762.422.26.032.52.005.782-.081.262-.086.522-.203.782-.352.26-.147.514-.294.762-.436.384-.203.756-.373 1.118-.509.361-.136.713-.21 1.057-.217.343-.006.681.06 1.016.197.333.139.667.375 1 .71.355.358.609.74.762 1.147.153.41.217.821.194 1.239-.023.416-.128.817-.314 1.204-.185.387-.431.731-.739 1.039-.35.349-.733.609-1.144.78-.413.173-.826.257-1.239.252-.413-.005-.812-.086-1.198-.249-.385-.162-.734-.401-1.046-.714"/><path d="m28.693 20.667c-.054-.028-.098-.061-.128-.101-.032-.038-.049-.086-.054-.139-.014-.106.018-.191.098-.252l.389-.312c.113-.09.239-.09.376 0l5.115 2.971c.095.054.128.026.101-.081l-1.793-5.626c-.058-.153-.031-.275.084-.367l.389-.311c.078-.063.17-.078.274-.044.05.017.095.047.128.089.029.037.05.084.066.142l2.037 6.888 2.134 2.669c.05.064.072.139.064.226-.009.086-.046.156-.112.208l-.314.251c-.063.049-.138.07-.226.06-.089-.008-.158-.046-.208-.109l-2.123-2.657-6.298-3.504"/><path d="m39.665 21.339l-.13-.203c-.043-.067-.055-.144-.038-.231.018-.086.064-.153.138-.199l.33-.21c.067-.043.145-.057.231-.04.087.017.153.061.199.133l.13.205c.142.223.327.424.554.598.226.176.48.3.759.372.278.073.572.089.883.044.311-.046.627-.17.948-.375.598-.379.962-.855 1.094-1.427.13-.572.018-1.135-.335-1.692-.188-.298-.398-.514-.632-.649-.233-.136-.494-.216-.785-.239-.292-.024-.609.011-.953.107-.344.095-.737.205-1.179.327-.266.096-.561.179-.887.246-.327.067-.652.084-.971.047-.32-.034-.632-.139-.936-.312-.303-.173-.575-.451-.818-.834-.248-.392-.399-.782-.454-1.173-.054-.392-.029-.766.073-1.127.104-.361.275-.693.515-.997.24-.304.531-.564.872-.782.378-.24.763-.393 1.156-.462.393-.067.768-.058 1.129.026.359.084.693.236 1 .456.306.217.568.497.783.838l.11.171c.043.067.057.144.04.228-.015.084-.058.15-.128.193l-.301.193c-.066.043-.142.054-.226.032-.086-.02-.15-.064-.193-.132l-.11-.171c-.147-.236-.327-.422-.538-.563-.211-.138-.437-.234-.679-.283-.242-.047-.494-.047-.757.003-.262.05-.514.151-.756.306-.288.182-.511.389-.668.616-.159.229-.26.463-.303.704-.043.243-.035.483.02.72.057.237.147.457.274.656.188.297.407.489.653.577.246.087.506.116.78.089.274-.028.554-.086.84-.176.285-.089.564-.176.838-.262.418-.116.818-.202 1.201-.257.382-.055.742-.05 1.078.017.337.066.653.203.95.411.297.205.571.509.824.907.269.427.436.854.497 1.285.061.431.037.849-.076 1.25-.112.402-.301.771-.564 1.109-.265.338-.58.623-.945.855-.418.266-.847.437-1.286.517-.439.08-.861.072-1.263-.02-.402-.093-.774-.26-1.117-.502-.341-.242-.632-.551-.867-.924"/><path d="m43.22 10.868l-.168-.338c-.037-.072-.04-.15-.012-.234.028-.084.078-.144.15-.18l5.241-2.613c.072-.035.15-.038.234-.011.084.029.144.078.18.151l.168.338c.035.072.04.148.014.228-.028.081-.08.141-.154.177l-2.022 1.01c-.089.043-.11.113-.063.207l4.176 8.379c.035.073.04.151.011.236-.029.086-.081.145-.153.18l-.35.176c-.073.035-.151.04-.237.012-.086-.028-.145-.076-.182-.15l-4.176-8.379c-.044-.089-.115-.113-.211-.07l-2.034 1.013c-.072.037-.15.041-.233.015-.083-.026-.142-.075-.177-.147"/><path d="m54.966 16.13l-3.573-9.553c-.028-.076-.024-.154.012-.234.037-.081.093-.136.168-.165l4.529-1.693c.076-.029.153-.024.236.014.08.037.135.092.164.168l.132.352c.028.076.023.153-.015.233-.038.078-.095.132-.171.159l-3.769 1.41c-.095.037-.127.104-.095.205l1.224 3.272c.035.093.102.122.202.084l3.615-1.352c.076-.028.156-.023.237.015.081.038.138.095.165.17l.127.338c.028.076.023.156-.014.237-.037.083-.093.138-.168.167l-3.615 1.352c-.095.035-.127.102-.095.203l1.309 3.497c.035.095.102.127.203.093l3.8-1.421c.075-.028.153-.023.236.012.081.038.136.093.164.168l.13.347c.028.075.024.153-.009.234-.035.078-.092.133-.173.164l-4.557 1.704c-.075.029-.153.024-.234-.014-.081-.035-.136-.092-.164-.167"/><path d="m62.39 13.421l-2.285-9.94c-.018-.078-.006-.154.038-.229.043-.075.102-.119.176-.138l.979-.225c.162-.038.283.034.364.214l4.412 8.07c.038.024.084.031.135.018.05-.011.086-.044.106-.101l.433-9.187c0-.18.086-.291.257-.33l1.045-.24c.078-.018.154-.003.231.043.075.049.121.112.139.188l2.287 9.94c.018.08.003.156-.044.233-.046.075-.109.121-.188.139l-.33.075c-.078.018-.156.005-.231-.043-.075-.046-.121-.109-.139-.188l-1.996-8.678c-.012-.047-.037-.069-.075-.06-.04.009-.06.031-.064.061l-.529 9.334c-.02.187-.104.297-.255.33l-.476.11c-.151.035-.275-.028-.373-.185l-4.563-8.161c-.017-.029-.043-.038-.076-.031-.035.009-.046.038-.035.086l1.995 8.676c.02.078.006.154-.038.229-.046.075-.11.121-.193.141l-.33.076c-.08.018-.156.003-.231-.043-.075-.049-.122-.112-.141-.19"/><path d="m77.13 5.643c-.012-.428-.014-.843-.006-1.247.008-.402.031-.757.067-1.065.047-.425.154-.832.318-1.225.165-.393.385-.74.664-1.046.278-.304.613-.551 1-.739.392-.187.844-.288 1.357-.303.502-.015.968.06 1.401.222.433.165.8.387 1.104.67.304.283.546.618.728 1 .182.387.278.792.292 1.215l.002.06c.003.081-.026.154-.087.219-.06.064-.128.098-.208.099l-.408.012c-.081.003-.151-.026-.216-.084-.064-.058-.096-.132-.099-.216l-.002-.061c-.008-.286-.073-.563-.194-.829-.121-.263-.289-.497-.506-.698-.217-.199-.476-.356-.772-.471-.298-.115-.633-.167-1-.156-.372.011-.694.083-.967.214-.274.132-.508.304-.702.522-.194.217-.347.462-.457.734-.11.272-.182.548-.214.824-.041.318-.067.681-.078 1.081-.011.404-.009.815.003 1.239.012.421.035.834.07 1.234.034.402.081.762.141 1.077.037.225.107.465.213.72.106.255.259.493.456.708.197.216.442.393.733.534.291.139.647.203 1.069.191.411-.012.768-.095 1.068-.246.3-.153.548-.343.742-.569.194-.228.335-.474.421-.742.086-.266.124-.512.118-.739l-.003-.06c-.002-.081.026-.154.084-.219.057-.064.128-.096.213-.099l.408-.012c.08-.003.151.028.214.089.064.061.098.132.099.211l.003.06c.014.503-.066.956-.239 1.358-.174.404-.413.748-.717 1.037-.306.288-.664.509-1.074.664-.411.156-.847.24-1.308.254-.935.028-1.718-.236-2.348-.786-.63-.554-1.025-1.329-1.185-2.325-.049-.304-.09-.661-.125-1.068-.034-.407-.058-.823-.07-1.25"/><path d="m86.61 10.657l.87-10.163c.006-.078.044-.147.112-.205.067-.058.142-.083.223-.075l4.817.411c.081.006.15.044.207.112.057.069.083.142.076.223l-.034.375c-.006.081-.044.148-.112.203-.069.054-.142.078-.223.072l-4.01-.344c-.101-.009-.159.04-.173.144l-.298 3.48c-.008.101.041.156.147.165l3.846.329c.08.006.148.044.207.115.058.069.084.144.076.225l-.031.359c-.008.08-.046.15-.113.208-.069.058-.144.084-.225.076l-3.844-.329c-.101-.009-.159.04-.173.145l-.32 3.72c-.008.099.041.158.147.171l4.04.347c.081.005.15.043.208.112.058.067.083.142.076.222l-.032.369c-.006.08-.043.148-.109.205-.066.058-.141.084-.225.076l-4.849-.416c-.08-.006-.148-.044-.207-.112-.057-.069-.081-.141-.075-.222"/><path d="m94.49 11.465l2.01-9.999c.015-.078.06-.142.133-.191.075-.049.15-.067.228-.05l2.553.512c.428.086.821.252 1.173.497.352.246.642.541.87.887.229.346.385.73.471 1.149.086.419.086.847-.002 1.28-.138.684-.413 1.218-.824 1.598-.413.379-.919.688-1.524.925-.128.057-.205.135-.225.239-.012.064-.008.136.017.217l1.155 3.995c.021.069.026.132.017.187-.009.046-.031.087-.063.127-.067.084-.176.112-.324.081l-.324-.066c-.119-.023-.203-.07-.249-.138-.046-.069-.084-.151-.115-.251l-1.185-4.153c-.009-.055-.034-.102-.073-.147-.04-.043-.099-.073-.179-.09l-1.652-.33c-.099-.021-.161.018-.185.116l-.763 3.792c-.015.08-.058.145-.128.194-.069.05-.144.067-.226.05l-.35-.07c-.076-.014-.139-.06-.187-.133-.047-.073-.063-.15-.047-.229m1.956-4.869c-.02.098.021.158.125.179l1.756.352c.301.061.598.061.89-.002.294-.061.56-.173.805-.333.243-.162.45-.364.618-.607.17-.243.286-.517.347-.823.06-.3.06-.598-.002-.889-.063-.294-.176-.558-.338-.8-.162-.24-.364-.447-.607-.618-.243-.171-.517-.288-.824-.349l-1.756-.355c-.099-.02-.161.023-.187.124l-.828 4.121"/><path d="m104.86 3.668l.115-.361c.023-.076.075-.135.154-.176.078-.04.156-.049.233-.026l5.582 1.771c.076.023.135.075.176.154.04.078.049.156.024.233l-.115.359c-.024.078-.073.136-.15.174-.075.038-.153.046-.234.021l-2.152-.684c-.096-.029-.159.005-.191.107l-2.828 8.924c-.024.076-.078.135-.158.176-.08.04-.158.047-.236.024l-.373-.118c-.078-.026-.138-.078-.179-.158-.041-.08-.05-.158-.026-.233l2.83-8.924c.029-.096-.005-.164-.102-.199l-2.168-.687c-.076-.024-.136-.075-.177-.151-.04-.076-.049-.154-.024-.229"/><path d="m109.7 15.685l3.813-9.459c.032-.073.086-.13.165-.165.081-.034.158-.038.229-.009l.333.135c.07.029.124.084.158.164.032.083.034.161.005.236l-3.815 9.458c-.031.075-.084.13-.161.167-.078.037-.156.04-.233.009l-.333-.135c-.072-.029-.124-.084-.158-.165-.034-.081-.035-.159-.005-.234"/><path d="m113.15 17.12l4.545-9.13c.037-.072.096-.122.18-.151.084-.028.162-.024.234.012l4.329 2.155c.072.037.122.096.15.179.029.086.026.164-.011.236l-.168.337c-.035.073-.095.121-.179.148-.083.026-.161.02-.234-.017l-3.604-1.794c-.09-.044-.161-.02-.213.072l-1.556 3.127c-.046.09-.021.159.075.207l3.454 1.719c.073.035.124.098.151.18.029.086.026.164-.011.236l-.164.33c-.037.072-.096.122-.182.15-.084.029-.162.026-.236-.012l-3.454-1.719c-.092-.044-.162-.023-.214.07l-2.037 4.093c-.035.072-.093.122-.174.151-.08.032-.158.028-.231-.008l-.321-.161c-.07-.034-.118-.093-.145-.177-.026-.084-.021-.162.015-.233"/><path d="m119.9 20.676l5.245-8.748c.04-.07.102-.115.188-.138.084-.024.159-.015.228.026l.306.184c.067.04.11.102.132.188.018.084.009.162-.032.231l-5.245 8.748c-.04.07-.102.116-.185.141-.083.023-.159.014-.231-.029l-.306-.184c-.067-.04-.11-.102-.132-.188-.02-.086-.009-.162.032-.231"/><path d="m125.15 19.318c.22-.343.456-.687.707-1.034.252-.344.503-.675.756-.988.254-.314.488-.581.705-.805.297-.306.63-.564 1-.774.37-.21.757-.35 1.164-.422.407-.072.821-.063 1.247.029.425.09.846.286 1.26.587.405.295.73.638.971 1.033.245.395.399.797.468 1.205.067.41.055.823-.038 1.241-.093.418-.263.797-.511 1.14l-.035.049c-.049.064-.115.106-.202.118-.087.015-.164-.002-.228-.047l-.33-.24c-.064-.046-.104-.112-.118-.197-.015-.086.003-.164.054-.231l.035-.05c.168-.231.286-.489.352-.774.067-.283.075-.572.026-.863-.05-.289-.158-.572-.324-.844-.165-.274-.398-.519-.701-.737-.3-.219-.6-.359-.895-.422-.297-.063-.589-.069-.875-.014-.288.052-.558.151-.811.301-.254.148-.479.323-.673.523-.228.226-.468.496-.722.808-.255.312-.506.639-.754.982-.249.341-.482.682-.699 1.022-.219.338-.401.65-.546.936-.109.202-.199.434-.272.702-.073.268-.096.546-.072.838.024.291.109.581.254.869.145.289.389.557.73.806.335.242.667.393.997.456.33.063.641.064.935.003.292-.061.554-.17.785-.33.229-.158.411-.329.545-.511l.035-.05c.047-.066.115-.106.199-.121.086-.017.162 0 .231.049l.33.242c.063.046.102.113.116.2.012.087-.005.164-.052.228l-.035.049c-.295.408-.635.717-1.019.928-.382.214-.783.341-1.201.384-.416.041-.835 0-1.256-.128-.421-.13-.817-.327-1.19-.6-.757-.548-1.216-1.236-1.378-2.057-.161-.823 0-1.676.482-2.564.147-.271.332-.578.554-.922"/><path d="m129.6 27.407l9.127-5.563c.127-.092.254-.081.379.034l.584.537c.124.116.147.24.067.372l-4.799 9.557c-.011.018-.023.037-.035.05-.031.034-.08.055-.144.064-.086.017-.173-.017-.263-.101l-.291-.266c-.124-.115-.145-.24-.061-.376l1.237-2.421c.057-.136.031-.255-.078-.355l-2.366-2.18c-.109-.099-.229-.113-.366-.041l-2.324 1.406c-.13.095-.252.089-.37-.018l-.274-.252c-.089-.083-.128-.165-.116-.251.009-.06.029-.106.06-.139.014-.015.024-.032.031-.055m4.203-1.406c-.021.017-.04.032-.052.046-.05.055-.041.11.023.17l2.051 1.891c.069.061.128.064.182.006.015-.017.029-.037.041-.066l2.498-4.823c.018-.057.018-.098.002-.118l-.037-.035c-.031-.028-.07-.021-.122.015l-4.586 2.914"/><path d="m142.33 25.879l.28-.252c.061-.054.135-.078.223-.073.089.005.161.038.214.098l3.908 4.358c.054.06.08.135.073.223-.005.087-.037.159-.096.213l-.281.252c-.06.054-.132.078-.217.073-.086-.005-.156-.038-.213-.101l-1.508-1.681c-.066-.075-.139-.078-.217-.006l-6.971 6.25c-.06.054-.135.078-.223.072-.09-.006-.162-.038-.216-.099l-.262-.291c-.054-.061-.08-.136-.075-.225.003-.09.035-.162.095-.216l6.971-6.25c.075-.067.08-.142.012-.222l-1.517-1.693c-.054-.06-.078-.133-.075-.219.003-.087.035-.158.095-.211"/><path d="m140.4 38.689l8.09-6.217c.063-.05.139-.069.225-.06.087.009.154.046.203.109l.217.283c.047.061.066.136.052.223-.012.086-.05.153-.113.203l-8.09 6.218c-.064.047-.138.069-.223.061-.086-.009-.154-.044-.205-.11l-.217-.285c-.049-.063-.066-.138-.054-.223.014-.087.052-.154.115-.203"/><path d="m145.79 39.36c.332-.239.678-.471 1.039-.701.361-.229.716-.444 1.066-.642.35-.199.667-.363.95-.489.39-.174.795-.292 1.216-.35.422-.058.835-.046 1.239.035.404.084.788.246 1.15.489.363.24.681.578.958 1.013.268.422.436.85.503 1.285.067.433.052.85-.043 1.253-.096.404-.26.783-.493 1.138-.233.356-.511.672-.835.95-.237.199-.52.416-.849.647-.329.233-.673.465-1.034.694-.361.228-.717.444-1.072.646-.355.202-.673.367-.953.499-.918.422-1.781.531-2.59.321-.809-.208-1.464-.708-1.969-1.501-.503-.791-.678-1.598-.526-2.423.151-.824.615-1.562 1.389-2.21.237-.199.522-.416.854-.653m2.64-.473c-.352.197-.705.408-1.062.635-.356.226-.699.457-1.025.693-.329.234-.612.459-.852.672-.174.147-.346.33-.511.554-.167.22-.291.471-.375.753-.084.281-.112.583-.083.904.029.323.158.664.384 1.02.223.349.476.607.76.779.283.168.569.274.858.318.291.043.571.037.841-.02.272-.055.511-.132.719-.228.286-.139.606-.309.958-.505.35-.196.705-.408 1.062-.636.356-.226.699-.456 1.025-.691.329-.236.616-.453.864-.652.211-.184.399-.398.56-.644.162-.248.28-.511.35-.792.072-.281.084-.574.038-.875-.046-.303-.17-.612-.37-.927-.2-.315-.427-.557-.679-.724-.252-.17-.522-.281-.809-.338-.286-.057-.575-.064-.866-.02-.291.046-.563.124-.818.239-.294.128-.618.289-.97.486"/><path d="m147.48 49.52l9.219-4.363c.072-.035.15-.038.234-.008.083.028.142.078.176.15l.343.724c.034.072.044.133.032.184-.014.049-.057.122-.135.219l-6.368 7.105c-.018.031-.018.058-.002.084.017.024.046.028.087.009l7.875-3.729c.073-.034.151-.037.234-.009.084.031.142.08.176.151l.13.277c.034.07.035.147.006.231-.031.083-.083.141-.154.174l-9.219 4.366c-.072.034-.15.037-.233.011-.083-.028-.141-.08-.177-.156l-.338-.716c-.035-.072-.047-.133-.038-.184.009-.052.055-.124.139-.22l6.426-7.139c.018-.031.018-.058.002-.084-.017-.026-.044-.029-.081-.012l-7.943 3.761c-.072.035-.15.038-.233.008-.084-.029-.142-.08-.176-.151l-.13-.274c-.035-.072-.037-.148-.006-.233.031-.081.083-.141.154-.176"/><path d="m152.48 61.74l9.758-2.968c.076-.024.154-.015.233.026.078.038.128.096.15.171l.106.341c.021.075.012.151-.031.228-.041.076-.101.127-.177.151l-9.758 2.968c-.078.023-.154.017-.233-.021-.076-.038-.127-.096-.151-.176l-.104-.343c-.023-.073-.012-.15.029-.226.043-.078.102-.127.179-.151"/><path d="m156.17 64.27l.236-.052c.08-.015.156-.002.229.046.075.047.121.113.139.197l.081.382c.018.08.003.156-.041.233-.046.075-.112.121-.194.139l-.237.05c-.26.055-.511.159-.754.312-.242.153-.447.346-.612.581-.165.236-.281.508-.346.814-.066.306-.058.647.021 1.02.148.691.468 1.198.959 1.519.491.321 1.059.413 1.703.275.344-.075.62-.197.828-.369.208-.17.373-.389.497-.653.122-.266.2-.575.229-.932.031-.356.064-.762.102-1.218.002-.285.028-.59.076-.921.05-.329.148-.638.292-.925.144-.289.349-.545.618-.769.268-.225.623-.384 1.066-.48.451-.096.87-.102 1.257-.017.385.084.73.239 1.031.459.303.223.555.5.757.829.202.332.346.696.43 1.089.095.439.106.854.032 1.245-.073.392-.211.742-.415 1.049-.203.309-.462.568-.776.78-.312.213-.664.361-1.057.445l-.199.043c-.08.017-.154.002-.229-.041-.073-.043-.119-.106-.136-.188l-.075-.349c-.017-.076 0-.151.047-.225.049-.073.113-.118.191-.135l.2-.041c.271-.058.508-.164.713-.311.203-.15.372-.329.5-.54.13-.21.217-.447.262-.711.043-.263.035-.534-.026-.814-.07-.335-.187-.615-.346-.843-.159-.226-.344-.402-.555-.526-.213-.124-.439-.202-.682-.233-.243-.029-.48-.021-.711.031-.343.073-.598.21-.766.411-.167.2-.285.434-.353.701-.069.268-.112.551-.127.849-.017.297-.031.59-.046.876-.037.431-.095.838-.174 1.216-.081.378-.211.713-.39 1-.179.292-.418.541-.714.75-.298.205-.678.358-1.14.456-.491.107-.95.115-1.377.021-.425-.092-.808-.26-1.146-.505-.338-.245-.62-.549-.844-.915-.225-.364-.382-.759-.474-1.184-.102-.482-.116-.944-.038-1.384.078-.439.231-.832.457-1.178.226-.346.512-.636.858-.873.346-.236.734-.402 1.167-.494"/><path d="m158.98 72.917c.405-.058.82-.107 1.245-.147.425-.037.84-.066 1.242-.083.402-.014.759-.014 1.068.005.427.021.841.102 1.242.245.401.139.763.34 1.085.598.321.26.587.58.798.961.211.381.34.828.387 1.34.044.499-.002.958-.142 1.374-.138.415-.343.779-.612 1.094-.269.315-.589.575-.959.786-.37.21-.763.363-1.178.462-.303.067-.653.128-1.051.185-.399.057-.812.104-1.237.142-.425.038-.843.066-1.25.083-.408.017-.766.018-1.075.006-1.01-.044-1.825-.344-2.449-.899-.623-.557-.976-1.302-1.062-2.238-.084-.933.132-1.732.644-2.395.512-.662 1.262-1.106 2.247-1.326.301-.067.655-.132 1.057-.191m2.564.792c-.402.012-.814.038-1.234.076-.421.038-.831.087-1.228.145-.399.058-.754.127-1.065.207-.223.05-.459.138-.708.259-.249.121-.476.286-.679.497-.202.211-.364.467-.486.766-.122.298-.164.661-.125 1.083.037.41.142.757.317 1.039.174.28.381.506.618.676.239.171.489.294.757.369.266.075.514.116.742.127.318.008.679.003 1.083-.011.402-.012.814-.04 1.234-.076.421-.04.831-.087 1.23-.145.399-.058.754-.119 1.066-.184.272-.066.537-.171.794-.315.257-.145.482-.326.675-.545.191-.216.337-.47.434-.76.098-.289.128-.621.095-.993-.034-.372-.124-.69-.272-.955-.147-.266-.335-.491-.563-.672-.229-.182-.483-.321-.762-.413-.278-.095-.557-.15-.837-.165-.32-.02-.681-.024-1.085-.011"/><path d="m162.44 87.2c.246.002.512.026.795.07.428.058.826.188 1.192.39.364.202.675.457.932.766.254.309.448.658.58 1.049.132.392.179.805.141 1.237-.038.431-.154.821-.352 1.167-.197.346-.453.642-.768.892-.314.246-.675.437-1.08.572-.405.135-.831.21-1.276.225-.309.012-.659.012-1.052-.003-.393-.014-.792-.038-1.198-.075-.407-.035-.809-.081-1.208-.138-.399-.055-.76-.116-1.083-.184-1.034-.234-1.813-.633-2.336-1.196-.525-.563-.746-1.288-.668-2.171.037-.411.147-.803.333-1.172.187-.369.424-.685.713-.948.288-.263.618-.463.991-.604.373-.139.766-.191 1.176-.154.081.006.15.046.208.113.057.07.083.145.075.226l-.031.344c-.006.081-.044.151-.113.208-.069.058-.144.084-.223.078-.269-.024-.529.012-.785.107-.255.098-.483.236-.685.413-.2.179-.372.395-.511.647-.139.252-.222.525-.246.821-.057.635.113 1.155.511 1.56.396.405.927.694 1.592.87.092.017.197.04.32.066.122.026.249.047.382.064.132.015.259.029.378.038.119.009.225.012.315.011.07-.005.118-.032.141-.083.024-.05.015-.113-.028-.188-.052-.086-.118-.19-.194-.315-.076-.124-.145-.275-.208-.451-.061-.176-.11-.379-.145-.609-.035-.229-.041-.482-.017-.756.038-.433.156-.831.352-1.193.196-.363.45-.672.762-.924.312-.254.668-.448 1.068-.583.401-.135.818-.199 1.251-.191m.295.988c-.144-.012-.277-.014-.399-.005-.278.015-.554.064-.828.142-.272.08-.519.197-.739.355-.222.156-.405.358-.551.601-.145.243-.234.541-.265.892-.06.687.101 1.219.482 1.603.381.384.886.639 1.517.765.254.052.529.078.828.073.239-.009.488-.05.751-.127.262-.075.505-.19.731-.344.226-.153.419-.355.581-.606.161-.251.257-.552.288-.909.032-.349-.003-.659-.104-.924-.101-.266-.243-.496-.43-.688-.185-.193-.402-.352-.655-.477-.252-.125-.511-.22-.779-.285-.144-.032-.288-.055-.43-.067"/><path d="m158.69 95.86c.404.063.814.138 1.233.225.419.087.823.182 1.213.283.39.102.73.205 1.022.306.402.136.779.318 1.126.552.346.231.638.506.873.826.237.32.402.684.497 1.092.095.41.09.866-.015 1.369-.19.916-.621 1.585-1.291 2.01-.67.425-1.508.597-2.513.515-.309-.021-.664-.069-1.065-.136-.402-.067-.809-.144-1.224-.231-.415-.087-.818-.18-1.213-.283-.395-.102-.739-.199-1.034-.292-.404-.135-.783-.317-1.137-.543-.353-.228-.647-.503-.881-.826-.234-.323-.396-.691-.488-1.103-.092-.411-.086-.864.018-1.363.191-.918.621-1.589 1.294-2.01.672-.424 1.51-.597 2.516-.515.309.023.664.066 1.068.128m2.218 1.438c-.387-.099-.785-.193-1.195-.277-.408-.086-.812-.161-1.21-.222-.399-.063-.757-.106-1.077-.132-.226-.015-.483-.008-.765.029-.283.037-.555.116-.818.242-.262.125-.497.309-.708.552-.21.243-.356.563-.437.956-.073.355-.072.676.008.967.078.292.205.549.379.771.174.225.385.421.633.586.248.167.506.301.772.404.303.104.649.208 1.037.315.389.107.788.202 1.198.288.408.086.812.156 1.208.213.396.057.762.099 1.095.128.228.017.486.008.774-.029.286-.034.56-.115.817-.242.257-.125.489-.309.696-.551.208-.242.353-.563.437-.967.072-.344.069-.664-.006-.956-.076-.292-.2-.552-.373-.782-.174-.228-.382-.427-.627-.597-.246-.168-.506-.297-.78-.384-.318-.107-.67-.211-1.059-.314"/><path d="m156.69 104.76c.392.11.791.236 1.196.372.405.136.795.278 1.17.427.375.147.701.289.979.425.382.182.733.41 1.051.681.317.272.574.58.769.927.196.346.317.725.363 1.144.046.416-.014.869-.179 1.357-.298.886-.806 1.499-1.522 1.84-.717.341-1.569.413-2.558.213-.303-.06-.65-.147-1.04-.262-.392-.118-.786-.243-1.187-.378-.401-.133-.791-.275-1.172-.425-.379-.148-.71-.286-.991-.413-.384-.182-.739-.408-1.063-.678-.323-.268-.583-.575-.776-.924-.193-.349-.311-.733-.353-1.152-.041-.421.02-.87.18-1.351.3-.89.808-1.505 1.527-1.846.717-.343 1.569-.413 2.559-.213.304.06.653.145 1.046.255m2.03 1.695c-.373-.147-.757-.288-1.153-.421-.396-.133-.788-.254-1.176-.364-.387-.109-.739-.196-1.051-.259-.225-.043-.479-.064-.765-.063-.285.003-.564.049-.84.142-.275.092-.532.248-.769.463-.239.217-.421.515-.549.898-.115.341-.151.662-.109.959.043.3.138.571.285.812.147.243.333.46.56.656.226.196.465.361.719.494.288.138.618.285.991.436.373.151.759.295 1.155.428.395.135.786.252 1.175.355.387.106.743.191 1.072.259.223.044.48.066.771.064.289 0 .569-.047.84-.141.271-.095.523-.249.759-.463.233-.216.416-.519.548-.909.112-.333.148-.65.109-.95-.04-.298-.133-.572-.277-.82-.145-.248-.329-.47-.552-.667-.223-.197-.467-.355-.728-.476-.303-.144-.639-.291-1.013-.436"/><path d="m155.93 114.18l.486.222c.124.057.222.142.294.259.072.115.122.211.154.286l1.488 3.664c.044.119.046.233.003.34l-.182.398c-.034.072-.09.124-.173.153-.084.031-.162.029-.234-.005l-9.28-4.234c-.073-.034-.125-.09-.158-.171-.034-.08-.032-.158.003-.234l.127-.277c.032-.073.09-.124.173-.153.083-.031.162-.029.234.005l8.194 3.74c.046.02.078.015.098-.015.018-.029.023-.058.014-.083l-1.499-3.638c-.04-.084-.026-.158.04-.217.067-.061.139-.075.217-.038"/><path d="m148.48 123.41c.35.208.702.433 1.057.672.355.24.693.48 1.014.722.323.242.598.467.828.675.317.288.586.612.809.974.222.361.376.745.462 1.149.086.404.09.82.014 1.247-.076.428-.257.855-.545 1.28-.28.415-.612.751-.997 1.01-.385.257-.782.425-1.189.508-.407.08-.821.083-1.242.005-.419-.078-.805-.236-1.155-.471l-.05-.035c-.066-.044-.109-.11-.127-.196-.017-.087-.003-.164.041-.229l.228-.34c.046-.064.11-.107.194-.125.084-.015.162-.002.234.047l.049.032c.237.162.5.269.786.326.286.057.574.055.863-.005.289-.06.568-.177.834-.352.268-.176.505-.418.713-.725.208-.309.338-.612.39-.912.054-.297.047-.589-.015-.873-.063-.285-.173-.551-.329-.8-.158-.248-.338-.467-.546-.655-.234-.22-.512-.45-.832-.694-.323-.243-.658-.483-1.01-.719-.35-.237-.698-.459-1.043-.665-.347-.205-.665-.376-.956-.511-.205-.102-.442-.185-.711-.249-.269-.063-.549-.076-.84-.043-.291.037-.577.13-.861.286-.283.153-.541.405-.779.757-.231.34-.372.678-.424 1.011-.05.332-.041.644.031.933.07.292.19.549.356.774.167.225.344.401.532.526l.049.034c.067.044.11.109.128.194.02.086.006.162-.041.233l-.229.338c-.044.066-.11.107-.197.122-.086.017-.162.002-.229-.043l-.05-.032c-.416-.283-.737-.612-.964-.987-.225-.376-.367-.772-.424-1.187-.057-.416-.028-.835.086-1.26.113-.425.3-.829.558-1.21.522-.776 1.192-1.259 2.01-1.447.817-.19 1.675-.06 2.579.393.277.138.59.311.941.52"/><path d="m139.96 128.82l7.743 6.637c.061.052.095.122.102.211.006.089-.017.164-.069.225l-3.146 3.671c-.052.061-.124.095-.211.102-.089.008-.164-.017-.225-.069l-.288-.245c-.06-.054-.093-.122-.098-.21-.005-.089.02-.164.072-.225l2.62-3.056c.066-.076.06-.15-.017-.223l-2.652-2.273c-.076-.066-.148-.058-.219.023l-2.51 2.929c-.054.063-.124.096-.214.104-.089.005-.165-.018-.228-.07l-.274-.236c-.061-.054-.096-.124-.102-.213-.008-.09.015-.167.067-.228l2.512-2.931c.066-.076.061-.15-.017-.223l-2.834-2.431c-.078-.064-.151-.058-.225.02l-2.639 3.078c-.052.061-.124.096-.213.104-.089.006-.164-.017-.225-.069l-.281-.24c-.06-.054-.096-.122-.104-.208-.008-.089.015-.164.07-.229l3.166-3.694c.054-.061.124-.095.213-.101.089-.008.164.017.225.069"/><path d="m134.69 134.77l6.949 7.465c.055.06.081.132.08.222-.003.089-.034.159-.093.214l-1.904 1.773c-.321.298-.684.52-1.089.662-.405.144-.814.208-1.228.191-.413-.017-.817-.113-1.207-.288-.392-.174-.739-.424-1.04-.748-.476-.511-.748-1.046-.815-1.602-.069-.557-.024-1.15.135-1.777.031-.138.011-.245-.061-.321-.044-.049-.107-.087-.188-.115l-3.916-1.392c-.07-.024-.125-.057-.164-.096-.031-.034-.052-.075-.064-.125-.029-.104.011-.207.122-.309l.242-.226c.089-.083.176-.124.259-.121.081.002.173.02.269.052l4.066 1.461c.047.023.102.032.162.024.058-.006.118-.037.176-.093l1.234-1.147c.073-.067.078-.141.012-.219l-2.636-2.833c-.055-.058-.083-.132-.083-.216 0-.087.031-.158.092-.214l.262-.245c.057-.052.13-.078.217-.072.087.005.158.035.213.095m2.815 4.43c-.069-.075-.141-.075-.219-.003l-1.311 1.221c-.225.21-.398.451-.519.725-.119.272-.185.555-.196.847-.011.292.032.577.132.857.098.28.254.534.465.762.21.223.451.396.725.517.272.119.554.184.844.193.291.008.575-.038.857-.133.281-.098.537-.252.765-.467l1.311-1.221c.075-.069.078-.142.009-.223l-2.864-3.075"/><path d="m134.98 147.73l.226.303c.047.064.066.141.054.229-.012.086-.05.154-.115.203l-4.69 3.507c-.064.047-.141.066-.228.052-.087-.012-.156-.05-.205-.116l-.225-.301c-.049-.066-.066-.138-.055-.223.012-.084.052-.153.121-.203l1.808-1.352c.08-.06.089-.132.024-.216l-5.606-7.498c-.047-.064-.066-.141-.052-.228.014-.09.054-.159.118-.207l.314-.234c.064-.05.142-.067.231-.055.089.011.158.05.205.115l5.606 7.497c.061.081.135.092.222.032l1.82-1.361c.064-.047.139-.067.226-.055.086.011.153.047.2.112"/><path d="m122.42 144.65l5.479 8.603c.044.067.057.144.038.231-.017.086-.058.148-.124.191l-.303.193c-.066.041-.141.052-.226.031-.086-.018-.15-.064-.193-.132l-5.479-8.603c-.043-.066-.057-.144-.041-.228.015-.086.058-.15.128-.194l.301-.191c.066-.041.142-.054.228-.032.084.018.148.064.191.132"/><path d="m119.24 146.64l4.786 9.01c.038.072.043.15.018.234-.026.086-.075.147-.145.184l-4.271 2.27c-.07.038-.15.043-.234.018-.086-.026-.147-.075-.184-.145l-.177-.333c-.038-.072-.043-.148-.015-.231.028-.084.076-.144.148-.184l3.555-1.888c.089-.047.112-.119.066-.216l-1.64-3.084c-.046-.089-.116-.107-.211-.058l-3.408 1.811c-.07.038-.15.044-.236.018-.084-.026-.147-.075-.184-.145l-.174-.326c-.038-.07-.043-.15-.017-.236.026-.084.075-.145.147-.184l3.408-1.813c.09-.047.112-.119.066-.214l-2.145-4.04c-.038-.072-.046-.147-.024-.231.023-.083.07-.144.144-.182l.317-.17c.069-.035.144-.04.228-.014.084.028.144.075.182.147"/><path d="m112.4 150.07l4.067 9.352c.032.075.032.151.002.234-.031.081-.083.138-.153.168l-.329.144c-.072.032-.148.031-.229-.005-.081-.032-.138-.086-.17-.159l-4.066-9.354c-.032-.073-.034-.151-.006-.233.029-.081.081-.138.158-.171l.329-.142c.072-.031.147-.031.228.003.081.034.138.087.17.162"/><path d="m108.99 151.52l3.299 9.651c.026.076.018.154-.02.234-.04.08-.096.133-.173.159l-4.577 1.563c-.075.026-.153.02-.233-.018-.081-.04-.133-.098-.159-.173l-.122-.358c-.026-.076-.018-.153.021-.229.041-.078.099-.13.176-.158l3.809-1.3c.095-.034.128-.101.099-.202l-1.13-3.306c-.032-.095-.098-.125-.199-.092l-3.653 1.25c-.075.026-.154.018-.234-.021-.081-.04-.135-.099-.161-.176l-.118-.341c-.026-.076-.02-.156.02-.237.04-.081.098-.133.173-.161l3.653-1.248c.096-.034.128-.101.099-.202l-1.208-3.533c-.032-.095-.099-.128-.202-.098l-3.838 1.311c-.076.028-.154.021-.236-.017-.08-.041-.132-.098-.159-.174l-.119-.349c-.026-.076-.02-.154.017-.234.037-.078.095-.132.176-.159l4.604-1.574c.076-.026.154-.02.234.018.08.041.133.098.159.174"/><path d="m101.47 153.96l2.154 9.97c.017.08.002.156-.047.229-.047.075-.11.121-.19.138l-2.711.586c-.489.106-.948.119-1.375.041-.427-.076-.811-.22-1.152-.433-.341-.211-.635-.482-.883-.812-.248-.33-.447-.694-.595-1.095-.104-.291-.21-.632-.317-1.02-.107-.389-.205-.791-.295-1.208-.09-.418-.17-.829-.236-1.231-.066-.402-.11-.759-.13-1.068-.08-1.01.122-1.834.606-2.481.483-.647 1.181-1.069 2.091-1.265l2.712-.587c.078-.017.154 0 .229.047.075.049.121.113.138.19m-.76 1.022c-.021-.098-.084-.138-.188-.122l-1.906.413c-.404.086-.734.226-.991.418-.259.193-.457.41-.601.652-.145.242-.237.494-.281.759-.043.265-.055.511-.038.739.028.317.072.676.128 1.075.058.398.132.805.22 1.219.09.411.191.812.303 1.199.112.389.222.731.327 1.034.098.26.233.506.402.734.17.226.375.413.612.554.236.142.503.242.8.295.298.054.627.041.987-.037l1.906-.41c.098-.023.138-.086.121-.19l-1.8-8.332"/><path d="m58.22 75.69v-23.21c0-.184.069-.347.213-.491.144-.142.306-.214.489-.214h3.52c.184 0 .346.072.489.214.142.144.214.307.214.491v23.21c0 .182-.072.346-.214.488-.144.144-.306.216-.489.216h-3.52c-.184 0-.346-.072-.489-.216-.144-.142-.213-.306-.213-.488"/><path d="m66.46 69.07v-1.048c0-.184.07-.347.213-.489.144-.144.304-.216.486-.216l3.529.011c.182 0 .344.069.485.207.142.136.214.303.214.497v1.046c0 .824.297 1.513.89 2.06.595.549 1.444.824 2.551.824 1.049 0 1.892-.275 2.525-.826.633-.549.951-1.239.951-2.065 0-.756-.277-1.338-.831-1.745-.554-.407-1.493-.765-2.816-1.075-1.097-.229-2.128-.54-3.094-.93-.967-.39-1.799-.876-2.496-1.462-.699-.584-1.253-1.296-1.664-2.132-.411-.837-.618-1.819-.618-2.942 0-1.026.2-1.99.601-2.891.401-.901.961-1.683 1.68-2.351.72-.667 1.566-1.19 2.539-1.572.97-.382 2.045-.572 3.223-.572 1.161 0 2.238.191 3.226.575.991.382 1.843.909 2.555 1.579.711.668 1.265 1.456 1.664 2.36.399.904.598 1.871.598 2.9v.532c0 .184-.07.347-.214.489-.142.144-.303.216-.485.216h-3.529c-.182 0-.344-.073-.485-.217-.144-.144-.214-.309-.214-.494v-.535c0-.707-.269-1.326-.805-1.862-.537-.538-1.308-.808-2.311-.808-.982 0-1.735.237-2.259.707-.525.47-.788 1.062-.788 1.771 0 .678.291 1.222.873 1.635.581.411 1.329.711 2.242.895 1.21.265 2.337.589 3.385.973 1.046.384 1.944.887 2.692 1.513.751.624 1.343 1.384 1.777 2.279.434.895.65 1.949.65 3.165 0 1.146-.21 2.189-.633 3.128-.424.939-1.016 1.75-1.776 2.431-.76.681-1.669 1.211-2.726 1.589-1.057.378-2.203.566-3.439.566-1.211 0-2.328-.2-3.351-.6-1.023-.402-1.904-.948-2.642-1.641-.737-.694-1.317-1.51-1.742-2.449-.422-.939-.633-1.949-.633-3.03"/><path d="m86.12 66.66c-.05-.846-.076-1.706-.076-2.579 0-.875.023-1.725.067-2.555.044-.829.119-1.621.222-2.377.115-1.051.387-2.047.821-2.984.434-.939 1-1.762 1.713-2.47.707-.71 1.548-1.27 2.524-1.683.976-.413 2.068-.616 3.278-.616 1.21 0 2.299.203 3.269.616.97.413 1.811.973 2.525 1.683.713.708 1.286 1.531 1.719 2.47.433.938.708 1.933.821 2.984.09.756.156 1.548.197 2.377.04.829.06 1.68.06 2.555 0 .873-.017 1.73-.05 2.571-.035.84-.104 1.628-.207 2.359-.113 1.054-.389 2.048-.821 2.986-.433.939-1.01 1.765-1.719 2.48-.714.714-1.556 1.277-2.525 1.69-.97.411-2.059.616-3.269.616-1.21 0-2.302-.205-3.278-.616-.976-.413-1.817-.976-2.524-1.69-.708-.714-1.279-1.54-1.713-2.48-.433-.938-.707-1.932-.821-2.986-.09-.719-.162-1.504-.213-2.351m4.919-5.14c-.047.834-.069 1.686-.069 2.561 0 .873.021 1.732.069 2.577.044.844.115 1.637.205 2.371.092.782.416 1.449.973 2 .555.552 1.372.828 2.452.828 1.078 0 1.892-.275 2.443-.828.552-.552.878-1.219.982-2 .092-.725.154-1.511.188-2.362.034-.852.052-1.713.052-2.587 0-.875-.018-1.727-.052-2.561-.034-.834-.096-1.631-.188-2.389-.093-.78-.418-1.444-.973-1.99-.557-.546-1.374-.82-2.452-.82-1.08 0-1.894.277-2.443.828-.551.552-.878 1.213-.982 1.982-.09.759-.161 1.556-.205 2.389"/><path d="m63.861 111.55c.176-.844.246-1.828.246-2.917 0-.317-.317-.457-.633-.213-.702.563-2.25 1.441-4.01 1.441-3.973 0-6.925-3.234-7.206-7.206-.035-.526-.035-1.195 0-1.826.211-3.973 3.234-7.136 7.206-7.136 4.077 0 6.89 3.234 7.381 7.31.353 2.813.317 7.734 0 10.547-.457 4.04-3.162 7.31-7.24 7.31-3.761 0-7.136-2.952-7.136-6.712 0-.387.317-.704.704-.704h1.826c.387 0 .704.317.704.704 0 1.791 1.933 3.549 3.902 3.549 2.356 0 3.725-1.652 4.252-4.147m-4.393-14.623c-2.285 0-3.656 1.722-3.937 3.867-.07.667-.07 1.335 0 1.898.281 2.143 1.652 3.936 3.937 3.936 2.284 0 3.656-1.439 3.936-3.936.07-.563.07-1.231 0-1.898-.28-2.145-1.652-3.867-3.936-3.867"/><path d="m85.31 101c.35 2.813.317 7.734 0 10.547-.422 3.865-2.919 7.31-7.558 7.31-4.219 0-6.995-2.776-7.556-7.31-.353-2.847-.353-7.734 0-10.547.456-3.832 2.917-7.31 7.556-7.31 4.219 0 6.995 2.776 7.558 7.31m-3.165 10.547c.424-2.954.424-7.593 0-10.547-.28-2.109-1.545-4.112-4.393-4.147-2.32 0-4.078 1.546-4.395 4.147-.385 2.954-.385 7.593 0 10.547.283 2.073 1.582 4.147 4.395 4.147 2.391 0 4.01-1.58 4.393-4.147"/><path d="m103.59 101c.35 2.813.315 7.734 0 10.547-.424 3.865-2.917 7.31-7.56 7.31-4.217 0-6.994-2.776-7.556-7.31-.352-2.847-.352-7.734 0-10.547.457-3.832 2.917-7.31 7.556-7.31 4.219 0 6.997 2.776 7.56 7.31m-3.165 10.547c.422-2.954.422-7.593 0-10.547-.28-2.109-1.546-4.112-4.395-4.147-2.319 0-4.077 1.546-4.393 4.147-.387 2.954-.387 7.593 0 10.547.281 2.073 1.582 4.147 4.393 4.147 2.392 0 4.01-1.58 4.395-4.147"/><path d="m115.65 94.68v23.2c0 .387-.318.702-.704.702h-1.863c-.387 0-.702-.315-.702-.702v-19.298c0-.21-.213-.246-.317-.139l-4.956 4.532c-.317.281-.774.107-.774-.28v-2.145c0-.526.139-.913.387-1.159l5.343-5.097c.176-.177.457-.317.704-.317h2.178c.385 0 .704.317.704.704"/></g></svg>