<svg xmlns="http://www.w3.org/2000/svg" viewBox="0 0 1173.6 545.4" enable-background="new 0 0 1173.6 545.4"><path fill="#dddcdb" d="m673.6 126.3l-56-30.2c-4.3-2.5-11.6-2.1-11.6-2.1s-190.5 0-282 0c-20.9-5-44.3-4.1-47.4-4.1-13.9 0-22.8-8.9-22.8-8.9l-37.1-42h-57.2l31.3 64.9c0 0-.2.2-.4.3-1.8.6-2.8 1.6-2.8 3.6s.9 3.1 2.8 3.5c22.6 5.6 84.6 27 84.6 27l76.7 11.7c0 0 271.5 0 285.6 0 14.2 0 37.9-15.1 37.9-15.1s2.8-1.8 2.8-3.7c.1-2.5-4.4-4.9-4.4-4.9"/><g fill="#d1d1d1"><path d="m379.8 116.2l-26.7 26.8h-45.4l-32.7-4.9-25.6-8.6-3.6-1.2 22-20.2z"/><path d="m351.8 150c0 0 271.4 0 285.6 0 6.9 0 16.1-3.7 23.7-7.4-9.1 0-353.2.5-353.2.5l44.1 6.8"/></g><path fill="#e6e6e6" d="m190.8 104l95.8-11.4-4.8 11z"/><path fill="#f7f7f7" d="m170.5 45l-20.2 1.9 5.8 2.4 62.9-2.5-5.8-1.8h-12.7z"/><g fill="#e6e6e6"><path d="m146.6 45l3.1 4.5 13.6-.8-10.8-3.7z"/><path d="m379.8 103h251.7l-13.8-7.2c0 0-3.3-2.1-11.3-2.1-8.1 0-226.5.1-226.5.1v9.2z"/></g><path fill="#f7f7f7" d="m379.8 96.2l237.8-.2c0 0-3.3-2.2-11.3-2.2-8.1 0-226.5 0-226.5 0v2.4"/><path fill="#d1d1d1" d="m219 46.5l-37.7 37.7-17.1-35.4z"/><path fill="#7a7b7b" d="m329.8 96.1c0 3.1 0 7.3 0 7.3s0 4.3 0 7.4c0 3.1-13.1 2.7-13.1 2.7-30.3 0-46.9-5.4-46.9-5.4v-9.2c0 0 16.5-5.4 46.9-5.4 0-.1 13.1-.5 13.1 2.6"/><path fill="#dddcdb" d="m381.8 90.6c0 5.4 0 12.8 0 12.8s0 7.4 0 12.8-23.6 4.7-23.6 4.7c-52.9 0-82.4-9.5-82.4-9.5v-16c0 0 29.5-9.5 82.4-9.5 0 0 23.6-.7 23.6 4.7"/><path fill="#c4c3c2" d="m275.8 111.4c0 0 29.5 9.5 82.4 9.5 0 0 23.6.7 23.6-4.7s0-13.2 0-13.2h-106v8.4"/><g fill="#e4e5e6"><path d="m381.8 103v-.4c0 0 0-7.1 0-12.2 0-1.9-3-3-7-3.6v16.2h7"/><path d="m306.8 89.1c-20 2.6-31 6-31 6v7.8h31v-13.8"/></g><g fill="#cfcecf"><path d="m374.8 103v17c4-.6 7-1.7 7-3.5 0-5 0-12 0-12s0-.5 0-1.5h-7"/><path d="m275.8 103v8.5c0 0 11 3.7 31 6.3v-14.8h-31"/></g><path fill="#6d6d6d" d="m269.8 103h6v6.5c0 0-4-1-6-1.5 0-1.2 0-5 0-5"/><path fill="#f7f7f7" d="m383.3 140l-32.8 2.2 16.9 17.9 97.2-10.8-9-9.3h-19.7z"/><path fill="#e6e6e6" d="m303.1 110l24.5 47.3 39.8 2.5-47.1-49.8z"/><g fill="#7a7b7b"><circle cx="476.4" cy="117.8" r="5.5"/><circle cx="448.9" cy="117.8" r="5.5"/><circle cx="503.9" cy="117.8" r="5.5"/><circle cx="531.4" cy="117.8" r="5.5"/><circle cx="558.9" cy="117.8" r="5.5"/><path d="m623.8 106v8h13.7l-7.9-8z"/><path d="m631.2 106l8.1 8h12.3l-15-8z"/></g><path fill="#f7f7f7" d="m304.1 89h77.4c0 0-2-3.5-18.7-3.5s-39.6 1.5-58.7 3.5"/><path fill="#dddcdb" d="m328.6 380.4l-115-54.8-71.4-58.6h-49l42.2 114.4z"/><path fill="#8c8c8c" d="m93.3 360h27.6l20.2 40h-38.5l-9.1-9z"/><path fill="#dddcdb" d="m847.4 497.5c0 0 48.3.6 80.9 0 54.5-1.1 198.2-6.7 198.2-42.8 0-17-43.6-49.3-54.4-59.2-7.3-6.6-23.4-18.1-31.5-23.9-13.5-9.6-38.7-12.5-100.2-11.6s-200-8.7-286.3 19.7l-565 1.3c0 0-11.7 2.7-11.7 17.5 0 14.8 19.3 19.8 19.3 19.8s276 71 354.6 76.1c21.7.1 396.1 3.1 396.1 3.1"/><path fill="#e6e6e6" d="m1090.5 411c-7.2-7-12.3-11.4-15.6-14.4-7.3-6.6-23.4-18.2-31.5-23.9-13.5-9.6-38.7-12.5-100.2-11.6-61.6.9-200-8.7-286.3 19.6l-565 1.3c0 0-11.7 2.9-11.7 17.7 0 4.6 1.9 8.3 4.4 11.3h1005.9"/><path fill="#f2f2f2" d="m78.2 392.2c0-7.2 11.1-11.5 11.1-11.5l565.1-1.3c86.3-28.3 224.8-18.8 286.4-19.7 61.6 0 76.6 1.6 92.7 8-15-1.7-31.2-5.1-92.8-4.6-32.4 0-85.8 0-141.9 0-50.7 0-103.4 7.3-144.3 20.7l-565.2.2-11.1 8.2"/><path fill="#dddcdb" d="m179.1 439c87.9 21 221.4 52.3 272.3 55.5 21.6 0 396 3 396 3s48.3.6 80.9 0c54.5-1.1 198.2-6.7 198.2-42.8 0-4.4-3-9.8-7.6-15.8h-939.8z"/><path fill="#999" d="m142.5 410.6l31.8-8.1 21.5 10.2v8.4l-13.5 9.5-29.3-7.9z"/><path fill="#f7f7f7" d="m104.8 394.9l87.3 23.2-4.8 2.9h-34.8l-50.3-11z"/><path fill="#f2f2f2" d="m159.5 409.4l13.8-3.4 18.5 9.1v3l-8.6 1.3z"/><path fill="#b3b3b3" d="m45.1 348h38.6l28.4 64h-54l-12.7-12.7z"/><g fill="#808080"><path d="m1044.1 386l.6 8h8.5l-2.1-8z"/><path d="m1034.8 386v8h8.1l-.6-8z"/><path d="m1052.6 386l2.4 8h11.9l-10.7-8z"/><path d="m261.9 433.2h-1.1c-1.1 0-2-.9-2-2v-3.5c0-1.1.9-2 2-2h1.1c1.1 0 2 .9 2 2v3.5c0 1.1-.9 2-2 2"/><path d="m303.8 433.2h-1.1c-1.1 0-2-.9-2-2v-3.5c0-1.1.9-2 2-2h1.1c1.1 0 2 .9 2 2v3.5c0 1.1-.9 2-2 2"/><path d="m317.7 433.2h-1.1c-1.1 0-2-.9-2-2v-3.5c0-1.1.9-2 2-2h1.1c1.1 0 2 .9 2 2v3.5c0 1.1-.9 2-2 2"/><path d="m331.7 433.2h-1.1c-1.1 0-2-.9-2-2v-3.5c0-1.1.9-2 2-2h1.1c1.1 0 2 .9 2 2v3.5c0 1.1-.9 2-2 2"/><path d="m345.7 433.2h-1.1c-1.1 0-2-.9-2-2v-3.5c0-1.1.9-2 2-2h1.1c1.1 0 2 .9 2 2v3.5c0 1.1-.9 2-2 2"/><path d="m359.6 433.2h-1.1c-1.1 0-2-.9-2-2v-3.5c0-1.1.9-2 2-2h1.1c1.1 0 2 .9 2 2v3.5c0 1.1-.9 2-2 2"/><path d="m373.6 433.2h-1.1c-1.1 0-2-.9-2-2v-3.5c0-1.1.9-2 2-2h1.1c1.1 0 2 .9 2 2v3.5c0 1.1-.9 2-2 2"/><path d="m387.5 433.2h-1.1c-1.1 0-2-.9-2-2v-3.5c0-1.1.9-2 2-2h1.1c1.1 0 2 .9 2 2v3.5c0 1.1-.9 2-2 2"/><path d="m401.5 433.2h-1.1c-1.1 0-2-.9-2-2v-3.5c0-1.1.9-2 2-2h1.1c1.1 0 2 .9 2 2v3.5c0 1.1-.9 2-2 2"/><path d="m415.5 433.2h-1.1c-1.1 0-2-.9-2-2v-3.5c0-1.1.9-2 2-2h1.1c1.1 0 2 .9 2 2v3.5c0 1.1-.9 2-2 2"/><path d="m429.4 433.2h-1.1c-1.1 0-2-.9-2-2v-3.5c0-1.1.9-2 2-2h1.1c1.1 0 2 .9 2 2v3.5c0 1.1-.9 2-2 2"/><path d="m443.4 433.2h-1.1c-1.1 0-2-.9-2-2v-3.5c0-1.1.9-2 2-2h1.1c1.1 0 2 .9 2 2v3.5c0 1.1-.9 2-2 2"/><path d="m457.4 433.2h-1.1c-1.1 0-2-.9-2-2v-3.5c0-1.1.9-2 2-2h1.1c1.1 0 2 .9 2 2v3.5c0 1.1-.9 2-2 2"/><path d="m471.3 433.2h-1.1c-1.1 0-2-.9-2-2v-3.5c0-1.1.9-2 2-2h1.1c1.1 0 2 .9 2 2v3.5c0 1.1-.9 2-2 2"/><path d="m485.3 433.2h-1.1c-1.1 0-2-.9-2-2v-3.5c0-1.1.9-2 2-2h1.1c1.1 0 2 .9 2 2v3.5c0 1.1-.9 2-2 2"/><path d="m499.3 433.2h-1.1c-1.1 0-2-.9-2-2v-3.5c0-1.1.9-2 2-2h1.1c1.1 0 2 .9 2 2v3.5c0 1.1-.9 2-2 2"/><path d="m513.2 433.2h-1.1c-1.1 0-2-.9-2-2v-3.5c0-1.1.9-2 2-2h1.1c1.1 0 2 .9 2 2v3.5c0 1.1-.9 2-2 2"/><path d="m527.2 433.2h-1.1c-1.1 0-2-.9-2-2v-3.5c0-1.1.9-2 2-2h1.1c1.1 0 2 .9 2 2v3.5c0 1.1-.9 2-2 2"/><path d="m541.2 433.2h-1.2c-1.1 0-2-.9-2-2v-3.5c0-1.1.9-2 2-2h1.1c1.1 0 2 .9 2 2v3.5c.1 1.1-.8 2-1.9 2"/><path d="m555.1 433.2h-1.1c-1.1 0-2-.9-2-2v-3.5c0-1.1.9-2 2-2h1.1c1.1 0 2 .9 2 2v3.5c0 1.1-.9 2-2 2"/><path d="m569.1 433.2h-1.1c-1.1 0-2-.9-2-2v-3.5c0-1.1.9-2 2-2h1.1c1.1 0 2 .9 2 2v3.5c0 1.1-.9 2-2 2"/><path d="m583 433.2h-1.1c-1.1 0-2-.9-2-2v-3.5c0-1.1.9-2 2-2h1.1c1.1 0 2 .9 2 2v3.5c0 1.1-.9 2-2 2"/><path d="m611 433.2h-1.1c-1.1 0-2-.9-2-2v-3.5c0-1.1.9-2 2-2h1.1c1.1 0 2 .9 2 2v3.5c0 1.1-.9 2-2 2"/><path d="m624.9 433.2h-1.1c-1.1 0-2-.9-2-2v-3.5c0-1.1.9-2 2-2h1.1c1.1 0 2 .9 2 2v3.5c0 1.1-.9 2-2 2"/><path d="m638.9 433.2h-1.1c-1.1 0-2-.9-2-2v-3.5c0-1.1.9-2 2-2h1.1c1.1 0 2 .9 2 2v3.5c0 1.1-.9 2-2 2"/><path d="m652.9 433.2h-1.1c-1.1 0-2-.9-2-2v-3.5c0-1.1.9-2 2-2h1.1c1.1 0 2 .9 2 2v3.5c0 1.1-.9 2-2 2"/><path d="m666.8 433.2h-1.1c-1.1 0-2-.9-2-2v-3.5c0-1.1.9-2 2-2h1.1c1.1 0 2 .9 2 2v3.5c0 1.1-.9 2-2 2"/><path d="m680.8 433.2h-1.1c-1.1 0-2-.9-2-2v-3.5c0-1.1.9-2 2-2h1.1c1.1 0 2 .9 2 2v3.5c0 1.1-.9 2-2 2"/><path d="m694.8 433.2h-1.1c-1.1 0-2-.9-2-2v-3.5c0-1.1.9-2 2-2h1.1c1.1 0 2 .9 2 2v3.5c0 1.1-.9 2-2 2"/><path d="m708.7 433.2h-1.1c-1.1 0-2-.9-2-2v-3.5c0-1.1.9-2 2-2h1.1c1.1 0 2 .9 2 2v3.5c0 1.1-.9 2-2 2"/><path d="m722.7 433.2h-1.1c-1.1 0-2-.9-2-2v-3.5c0-1.1.9-2 2-2h1.1c1.1 0 2 .9 2 2v3.5c0 1.1-.9 2-2 2"/><path d="m736.6 433.2h-1.1c-1.1 0-2-.9-2-2v-3.5c0-1.1.9-2 2-2h1.1c1.1 0 2 .9 2 2v3.5c0 1.1-.9 2-2 2"/><path d="m750.6 433.2h-1.1c-1.1 0-2-.9-2-2v-3.5c0-1.1.9-2 2-2h1.1c1.1 0 2 .9 2 2v3.5c0 1.1-.9 2-2 2"/><path d="m764.6 433.2h-1.1c-1.1 0-2-.9-2-2v-3.5c0-1.1.9-2 2-2h1.1c1.1 0 2 .9 2 2v3.5c0 1.1-.9 2-2 2"/><path d="m778.5 433.2h-1.1c-1.1 0-2-.9-2-2v-3.5c0-1.1.9-2 2-2h1.1c1.1 0 2 .9 2 2v3.5c0 1.1-.9 2-2 2"/><path d="m792.5 433.2h-1.1c-1.1 0-2-.9-2-2v-3.5c0-1.1.9-2 2-2h1.1c1.1 0 2 .9 2 2v3.5c0 1.1-.9 2-2 2"/><path d="m806.5 433.2h-1.1c-1.1 0-2-.9-2-2v-3.5c0-1.1.9-2 2-2h1.1c1.1 0 2 .9 2 2v3.5c0 1.1-.9 2-2 2"/><path d="m834.4 433.2h-1.1c-1.1 0-2-.9-2-2v-3.5c0-1.1.9-2 2-2h1.1c1.1 0 2 .9 2 2v3.5c0 1.1-.9 2-2 2"/><path d="m848.4 433.2h-1.1c-1.1 0-2-.9-2-2v-3.5c0-1.1.9-2 2-2h1.1c1.1 0 2 .9 2 2v3.5c0 1.1-.9 2-2 2"/><path d="m862.3 433.2h-1.1c-1.1 0-2-.9-2-2v-3.5c0-1.1.9-2 2-2h1.1c1.1 0 2 .9 2 2v3.5c0 1.1-.9 2-2 2"/><path d="m876.3 433.2h-1.1c-1.1 0-2-.9-2-2v-3.5c0-1.1.9-2 2-2h1.1c1.1 0 2 .9 2 2v3.5c0 1.1-.9 2-2 2"/><path d="m890.3 433.2h-1.1c-1.1 0-2-.9-2-2v-3.5c0-1.1.9-2 2-2h1.1c1.1 0 2 .9 2 2v3.5c0 1.1-.9 2-2 2"/><path d="m904.2 433.2h-1.1c-1.1 0-2-.9-2-2v-3.5c0-1.1.9-2 2-2h1.1c1.1 0 2 .9 2 2v3.5c0 1.1-.9 2-2 2"/><path d="m918.2 433.2h-1.1c-1.1 0-2-.9-2-2v-3.5c0-1.1.9-2 2-2h1.1c1.1 0 2 .9 2 2v3.5c0 1.1-.9 2-2 2"/><path d="m932.1 433.2h-1.1c-1.1 0-2-.9-2-2v-3.5c0-1.1.9-2 2-2h1.1c1.1 0 2 .9 2 2v3.5c0 1.1-.9 2-2 2"/><path d="m946.1 433.2h-1.1c-1.1 0-2-.9-2-2v-3.5c0-1.1.9-2 2-2h1.1c1.1 0 2 .9 2 2v3.5c0 1.1-.9 2-2 2"/><path d="m974 433.2h-1.1c-1.1 0-2-.9-2-2v-3.5c0-1.1.9-2 2-2h1.1c1.1 0 2 .9 2 2v3.5c0 1.1-.9 2-2 2"/><path d="m988 433.2h-1.1c-1.1 0-2-.9-2-2v-3.5c0-1.1.9-2 2-2h1.1c1.1 0 2 .9 2 2v3.5c0 1.1-.9 2-2 2"/><path d="m1002 433.2h-1.1c-1.1 0-2-.9-2-2v-3.5c0-1.1.9-2 2-2h1.1c1.1 0 2 .9 2 2v3.5c0 1.1-.9 2-2 2"/><path d="m1015.9 433.2h-1.1c-1.1 0-2-.9-2-2v-3.5c0-1.1.9-2 2-2h1.1c1.1 0 2 .9 2 2v3.5c0 1.1-.9 2-2 2"/><path d="m1029.9 433.2h-1.1c-1.1 0-2-.9-2-2v-3.5c0-1.1.9-2 2-2h1.1c1.1 0 2 .9 2 2v3.5c0 1.1-.9 2-2 2"/><path d="m1057.8 433.2h-1.1c-1.1 0-2-.9-2-2v-3.5c0-1.1.9-2 2-2h1.1c1.1 0 2 .9 2 2v3.5c0 1.1-.9 2-2 2"/><path d="m1071.8 433.2h-1.1c-1.1 0-2-.9-2-2v-3.5c0-1.1.9-2 2-2h1.1c1.1 0 2 .9 2 2v3.5c0 1.1-.9 2-2 2"/><path d="m1085.7 433.2h-1.1c-1.1 0-2-.9-2-2v-3.5c0-1.1.9-2 2-2h1.1c1.1 0 2 .9 2 2v3.5c0 1.1-.9 2-2 2"/><path d="m1043.9 433.2h-1.1c-1.1 0-2-.9-2-2v-3.5c0-1.1.9-2 2-2h1.1c1.1 0 2 .9 2 2v3.5c0 1.1-.9 2-2 2"/><path d="m736.6 393.9h-1.1c-1.1 0-2-.9-2-2v-3.5c0-1.1.9-2 2-2h1.1c1.1 0 2 .9 2 2v3.5c0 1.1-.9 2-2 2"/><path d="m750.6 393.9h-1.1c-1.1 0-2-.9-2-2v-3.5c0-1.1.9-2 2-2h1.1c1.1 0 2 .9 2 2v3.5c0 1.1-.9 2-2 2"/><path d="m764.6 393.9h-1.1c-1.1 0-2-.9-2-2v-3.5c0-1.1.9-2 2-2h1.1c1.1 0 2 .9 2 2v3.5c0 1.1-.9 2-2 2"/><path d="m778.5 393.9h-1.1c-1.1 0-2-.9-2-2v-3.5c0-1.1.9-2 2-2h1.1c1.1 0 2 .9 2 2v3.5c0 1.1-.9 2-2 2"/><path d="m792.5 393.9h-1.1c-1.1 0-2-.9-2-2v-3.5c0-1.1.9-2 2-2h1.1c1.1 0 2 .9 2 2v3.5c0 1.1-.9 2-2 2"/><path d="m820.4 393.9h-1.1c-1.1 0-2-.9-2-2v-3.5c0-1.1.9-2 2-2h1.1c1.1 0 2 .9 2 2v3.5c0 1.1-.9 2-2 2"/><path d="m834.4 393.9h-1.1c-1.1 0-2-.9-2-2v-3.5c0-1.1.9-2 2-2h1.1c1.1 0 2 .9 2 2v3.5c0 1.1-.9 2-2 2"/><path d="m848.4 393.9h-1.1c-1.1 0-2-.9-2-2v-3.5c0-1.1.9-2 2-2h1.1c1.1 0 2 .9 2 2v3.5c0 1.1-.9 2-2 2"/><path d="m806.5 393.9h-1.1c-1.1 0-2-.9-2-2v-3.5c0-1.1.9-2 2-2h1.1c1.1 0 2 .9 2 2v3.5c0 1.1-.9 2-2 2"/><path d="m862.3 393.9h-1.1c-1.1 0-2-.9-2-2v-3.5c0-1.1.9-2 2-2h1.1c1.1 0 2 .9 2 2v3.5c0 1.1-.9 2-2 2"/><path d="m876.3 393.9h-1.1c-1.1 0-2-.9-2-2v-3.5c0-1.1.9-2 2-2h1.1c1.1 0 2 .9 2 2v3.5c0 1.1-.9 2-2 2"/><path d="m890.3 393.9h-1.1c-1.1 0-2-.9-2-2v-3.5c0-1.1.9-2 2-2h1.1c1.1 0 2 .9 2 2v3.5c0 1.1-.9 2-2 2"/><path d="m904.2 393.9h-1.1c-1.1 0-2-.9-2-2v-3.5c0-1.1.9-2 2-2h1.1c1.1 0 2 .9 2 2v3.5c0 1.1-.9 2-2 2"/><path d="m918.2 393.9h-1.1c-1.1 0-2-.9-2-2v-3.5c0-1.1.9-2 2-2h1.1c1.1 0 2 .9 2 2v3.5c0 1.1-.9 2-2 2"/><path d="m946.1 393.9h-1.1c-1.1 0-2-.9-2-2v-3.5c0-1.1.9-2 2-2h1.1c1.1 0 2 .9 2 2v3.5c0 1.1-.9 2-2 2"/><path d="m960.1 393.9h-1.1c-1.1 0-2-.9-2-2v-3.5c0-1.1.9-2 2-2h1.1c1.1 0 2 .9 2 2v3.5c0 1.1-.9 2-2 2"/><path d="m974 393.9h-1.1c-1.1 0-2-.9-2-2v-3.5c0-1.1.9-2 2-2h1.1c1.1 0 2 .9 2 2v3.5c0 1.1-.9 2-2 2"/><path d="m932.1 393.9h-1.1c-1.1 0-2-.9-2-2v-3.5c0-1.1.9-2 2-2h1.1c1.1 0 2 .9 2 2v3.5c0 1.1-.9 2-2 2"/></g><path fill="#d1d1d1" d="m379.7 484c29.7 6 55.1 9.8 71.7 10.9 21.6 0 396 3.1 396 3.1s48.3.5 80.9-.1c34.1-.7 103.4-2.8 150.3-13.8h-698.9z"/><path fill="#b3b3b3" d="m707.4 476l-194.9-58.1-42.7 1.8 87.9 56.3z"/><path fill="#f2f2f2" d="m512.5 417.9l-45.1 7.1h-5.6v-9h5.6z"/><path fill="#333" d="m605.8 492.1v-8.1h-20.1c0 2 1.1 3.4 3.1 3.6l17 4.5"/><path fill="#cfcecf" d="m633.5 484h-18.7v10.9l18.7 3.9z"/><path fill="#c4c3c2" d="m633.5 484l-.1 21.5c0 0 49.4 7.4 72.4 0 0 0 4 .5 4-21.5h-76.3"/><path fill="#6d6d6d" d="m605.8 484h9v11h-9z"/><path fill="#494949" d="m605.8 476v8h-20.1c0-2 1.1-3.3 3.1-3.5l17-4.5"/><path fill="#e4e5e6" d="m633.5 484h-18.7v-10.7l18.7-4z"/><path fill="#dddcdb" d="m633.5 484l-.1-21.5c0 0 49.4-7.4 72.4 0 0 0 4-.5 4 21.5h-76.3"/><path fill="#7a7b7b" d="m605.8 474h9v10h-9z"/><path fill="#e4e5e6" d="m701.8 484h8.1c0-22-3.8-21.4-3.8-21.4-1.4-.5-3.3-.8-4.3-1.2v22.6"/><path fill="#cfcecf" d="m701.8 484v22.7c1-.3 2.9-.8 4.3-1.2 0 0 3.8.5 3.8-21.5h-8.1"/><path fill="#333" d="m503.8 466.5v-8.5h-20.6c0 2 1.6 3.8 3.6 4l17 4.5"/><path fill="#cfcecf" d="m531 458h-19.2v11.3l19 3.7z"/><path fill="#c4c3c2" d="m531 458l-.1 21.7c0 0 49.4 7.3 72.4-.1 0 0 4 .4 4-21.6h-76.3"/><path fill="#6d6d6d" d="m503.8 458h8v12h-8z"/><path fill="#494949" d="m503.8 450.4v7.6h-20.6c0-1 1.6-2.9 3.6-3.1l17-4.5"/><path fill="#e4e5e6" d="m531 458h-19.2v-10.3l19-4.2z"/><path fill="#dddcdb" d="m531 458l-.1-21.3c0 0 49.4-7.5 72.4-.1 0 0 4-.6 4 21.4h-76.3"/><path fill="#7a7b7b" d="m503.8 448h8v10h-8z"/><path fill="#e4e5e6" d="m598.8 458h8.6c0-22-4-21.3-4-21.3-1.4-.5-2.5-.6-4.5-1v22.3z"/><path fill="#cfcecf" d="m598.8 458v23.1c2-.3 3.1-1 4.5-1.4 0 0 4 .3 4-21.7h-8.5"/><path fill="#fcfcfc" d="m1086.5 230.2c6.4 4-19.9 13.7-36.5 9-16.6-4.7-26.3-15.9-26.3-23.5 0-2.1 16.7-5.3 33.7-2.8 19.3 2.9 16.4 9.4 29.1 17.3"/><path fill="#8c8c8c" d="m868.4 203h23.8l26.9 27h-31.5z"/><path fill="#dddcdb" d="m857.8 222.3l164.5-8.3h4.2l3.6 4.1 28.5 7.9h22.4l28.7 9.7-19.8 8.3-71.1 5.3-24 4.7h-92.2l-44.8-17.2z"/><path fill="#bfbfbf" d="m857.8 236.8l44.8 17.2h92.2l24-4.7 71.1-5.3 17.7-7.3-87.2-4.2 7.7 4.2z"/><path fill="#8c8c8c" d="m895.4 237.5l18.5 12.7 75.1-13.6z"/><path fill="#dddcdb" d="m995.3 235.6l-81.7 13.2-23.8-14.7z"/><path fill="#e6e6e6" d="m1030.5 218.1l-3.5-4.1h-4.2l-164.4 8h186.8z"/><path fill="#b3b3b3" d="m864.4 234h44l-41-35h-25.9z"/></svg>