<svg xmlns="http://www.w3.org/2000/svg" viewBox="0 0 1018 445" enable-background="new 0 0 1018 445"><g fill="#f5f5f5"><path d="m939.4 160.6c-.1-31.2-25.4-56.4-56.6-56.4-22.5 0-42 13.2-51.1 32.2-5.1-4.5-11.8-7.3-19.1-7.3-15.8 0-28.7 12.8-28.7 28.7 0 .5 0 1 0 1.5-22.6 5.6-39.3 25.6-39.3 49.9 0 28.5 23.1 51.4 51.7 51.4h126c28.5 0 51.7-22.9 51.7-51.4.1-22.7-14.4-41.6-34.6-48.6"/><path d="m631.4 362.1c0-43.7-35.1-79.1-78.7-79.1-13.3 0-25.7 3.3-36.8 9.2-4.5-44.3-41.8-78.8-87.3-78.8-35.3 0-65.6 20.8-79.6 50.8-6-1.2-12.1-1.9-18.4-1.9-49.4 0-89.4 39.7-89.4 89.1s40.1 89.1 89.5 89.1h233.8v-.4c38.9-6.1 66.9-38.7 66.9-78"/><path d="m44.1 116.8c0-33.1 26.9-60 60-60 10.1 0 19.7 2.5 28 6.9 3.5-33.5 31.8-59.7 66.3-59.7 26.8 0 49.8 15.8 60.4 38.6 4.5-.9 9.2-1.5 14-1.5 37.5 0 67.9 30.2 67.9 67.7s-30.4 67.7-67.9 67.7h-178.4v-.5c-29-4.6-50.3-29.3-50.3-59.2"/></g><g fill="#1a1a1a"><path d="m362.7 364.4c-1.3 1.3-3.1 2-4.9 2s-3.6-.7-4.9-2c-2-1.9-2.3-4.6-2.3-7.5 0-2.9.4-5.6 2.3-7.5 1.3-1.3 3.1-2 4.9-2s3.6.7 4.9 2c2 1.9 2.3 4.6 2.3 7.5 0 2.9-.4 5.5-2.3 7.5m-1.6-13.5c-.9-.9-2.1-1.4-3.3-1.4s-2.4.5-3.3 1.4c-1.5 1.5-1.6 4-1.6 5.9s.1 4.4 1.6 5.9c.9.9 2.1 1.4 3.3 1.4s2.4-.5 3.3-1.4c1.5-1.5 1.6-4 1.6-5.9s-.2-4.3-1.6-5.9"/><path d="m380.2 357.4c-1 1-2.5 1.5-4.5 1.5h-4.5v7.1h-2.3v-18.3h6.8c2.1 0 3.7.6 4.6 1.6.9 1 1.4 2.3 1.4 3.9 0 1.8-.5 3.2-1.5 4.2m-4.5-7.6h-4.4v7h4.5c2.4 0 3.7-1.1 3.7-3.6-.1-2.3-1.6-3.4-3.8-3.4"/><path d="m385.1 366v-18.3h12.2v2.1h-9.9v5.6h8.7v2.2h-8.7v6.3h9.9v2.1h-12.2"/><path d="m412.3 366l-9-14.7v14.7h-2.2v-18.3h2.6l9 14.7v-14.7h2.2v18.3h-2.6"/><path d="m436.9 364.5c-1.3 1.2-3.2 1.8-5.2 1.8-2.2 0-4-.6-5.2-1.8-1.2-1.1-2-2.7-2-4.4h2.4c0 1.1.5 2.2 1.3 2.9.8.8 2.2 1.1 3.5 1.1 1.4 0 2.6-.3 3.4-1.1.6-.5.9-1.2.9-2.1 0-1.4-.9-2.6-3.1-2.9-1-.2-1.9-.3-2.9-.4-2.7-.4-4.9-1.9-4.9-4.8 0-1.4.6-2.7 1.6-3.6 1.3-1.2 2.9-1.8 4.8-1.8 1.8 0 3.5.6 4.7 1.8 1.1 1.1 1.7 2.4 1.8 3.9h-2.4c-.1-.9-.4-1.7-.9-2.3-.7-.8-1.8-1.3-3.2-1.3-1.3 0-2.4.4-3.2 1.3-.5.5-.7 1.2-.7 2 0 1.6 1.4 2.4 2.7 2.6 1 .1 2 .3 3 .5 3 .4 5.1 2.3 5.1 5.2.1 1.4-.6 2.5-1.5 3.4"/><path d="m453.3 364.4c-1.3 1.3-3.1 2-4.9 2-1.8 0-3.6-.7-4.9-2-2-1.9-2.3-4.6-2.3-7.5 0-2.9.4-5.6 2.3-7.5 1.3-1.3 3.1-2 4.9-2 1.8 0 3.6.7 4.9 2 2 1.9 2.3 4.6 2.3 7.5.1 2.9-.3 5.5-2.3 7.5m-1.6-13.5c-.9-.9-2.1-1.4-3.3-1.4s-2.4.5-3.3 1.4c-1.5 1.5-1.6 4-1.6 5.9s.1 4.4 1.6 5.9c.9.9 2.1 1.4 3.3 1.4s2.4-.5 3.3-1.4c1.5-1.5 1.6-4 1.6-5.9s-.1-4.3-1.6-5.9"/><path d="m465.8 366.3c-4.1 0-6.7-2.5-6.7-7v-11.6h2.3v11.6c0 2.9 1.2 4.8 4.4 4.8 3.2 0 4.4-1.9 4.4-4.8v-11.6h2.3v11.6c-.1 4.5-2.7 7-6.7 7"/><path d="m487.8 366l-3.5-7.6h-5v7.6h-2.3v-18.3h7.2c2.1 0 3.6.6 4.6 1.6.9.9 1.4 2.1 1.4 3.7s-.5 2.7-1.4 3.6c-.5.6-1.3 1-2.2 1.3l3.7 8h-2.5zm-3.6-16.2h-4.9v6.4h4.9c2.2 0 3.7-.9 3.7-3.2 0-2.3-1.5-3.2-3.7-3.2"/><path d="m505 364.4c-1.1 1.1-2.9 2-4.9 2-1.8 0-3.6-.7-4.9-2-2-1.9-2.3-4.6-2.3-7.5 0-2.9.3-5.6 2.3-7.5 1.3-1.3 3.1-2 4.9-2 2 0 3.8.8 4.9 1.9 1.1 1.1 1.7 2.5 1.8 4.2h-2.4c0-1-.4-1.9-1-2.5-.7-.8-1.9-1.3-3.3-1.3-1.2 0-2.4.5-3.3 1.4-1.5 1.5-1.5 4-1.5 5.9s.1 4.4 1.5 5.9c.9.9 2.1 1.4 3.3 1.4 1.4 0 2.6-.6 3.3-1.4.6-.7 1-1.6 1-2.6h2.4c0 1.5-.7 3-1.8 4.1"/><path d="m510.4 366v-18.3h12.2v2.1h-9.9v5.6h8.7v2.2h-8.7v6.3h9.9v2.1h-12.2"/><path d="m832 208.4c-1.1 1.1-2.9 2-4.9 2-1.8 0-3.6-.7-4.9-2-2-1.9-2.3-4.6-2.3-7.5 0-2.9.3-5.6 2.3-7.5 1.3-1.3 3.1-2 4.9-2 2 0 3.8.8 4.9 1.9 1.1 1.1 1.7 2.5 1.8 4.2h-2.4c0-1-.4-1.9-1-2.5-.7-.8-1.9-1.3-3.3-1.3-1.2 0-2.4.5-3.3 1.4-1.5 1.5-1.5 4-1.5 5.9 0 1.9.1 4.4 1.5 5.9.9.9 2.1 1.4 3.3 1.4 1.4 0 2.6-.6 3.3-1.4.6-.7 1-1.6 1-2.6h2.4c-.1 1.6-.7 3.1-1.8 4.1"/><path d="m837.4 210v-18.3h2.3v16.1h8.8v2.1h-11.1z"/><path d="m861.7 208.4c-1.3 1.3-3.1 2-4.9 2-1.8 0-3.6-.7-4.9-2-2-1.9-2.3-4.6-2.3-7.5 0-2.9.4-5.6 2.3-7.5 1.3-1.3 3.1-2 4.9-2 1.8 0 3.6.7 4.9 2 2 1.9 2.3 4.6 2.3 7.5.1 2.9-.3 5.6-2.3 7.5m-1.6-13.4c-.9-.9-2.1-1.4-3.3-1.4s-2.4.5-3.3 1.4c-1.5 1.5-1.6 4-1.6 5.9 0 1.9.1 4.4 1.6 5.9.9.9 2.1 1.4 3.3 1.4s2.4-.5 3.3-1.4c1.5-1.5 1.6-4 1.6-5.9 0-1.9-.1-4.4-1.6-5.9"/><path d="m874.2 210.4c-4.1 0-6.7-2.5-6.7-7v-11.6h2.3v11.6c0 2.9 1.2 4.8 4.4 4.8 3.2 0 4.4-1.9 4.4-4.8v-11.6h2.3v11.6c-.1 4.5-2.6 7-6.7 7"/><path d="m896.6 208.2c-1.3 1.2-3 1.8-4.8 1.8h-6.4v-18.3h6.4c1.8 0 3.5.6 4.8 1.9 2 1.9 2.3 4.6 2.3 7.3s-.3 5.4-2.3 7.3m-1.5-13.1c-.9-.8-2.1-1.3-3.2-1.3h-4.1v14h4.1c1.2 0 2.4-.4 3.2-1.3 1.4-1.5 1.6-3.8 1.6-5.8 0-1.8-.2-4.1-1.6-5.6"/><path d="m139.1 119.8c-1.3 1.2-3.2 1.8-5.2 1.8-2.2 0-4-.6-5.2-1.8-1.2-1.1-2-2.7-2-4.4h2.4c0 1.1.5 2.2 1.3 2.9.8.8 2.2 1.1 3.5 1.1 1.4 0 2.6-.3 3.4-1.1.6-.5.9-1.2.9-2.1 0-1.4-.9-2.6-3.1-2.9-1-.2-1.9-.3-2.9-.4-2.7-.4-4.9-1.9-4.9-4.8 0-1.4.6-2.7 1.6-3.6 1.3-1.2 2.9-1.8 4.8-1.8 1.8 0 3.5.6 4.7 1.8 1.1 1.1 1.7 2.4 1.8 3.9h-2.4c-.1-.9-.4-1.7-.9-2.3-.7-.8-1.8-1.3-3.2-1.3-1.3 0-2.4.4-3.2 1.3-.5.5-.7 1.2-.7 2 0 1.6 1.4 2.4 2.7 2.6 1 .1 2 .3 3 .5 3 .4 5.1 2.3 5.1 5.2 0 1.4-.6 2.6-1.5 3.4"/><path d="m155.4 119.7c-1.3 1.3-3.1 2-4.9 2s-3.6-.7-4.9-2c-2-1.9-2.3-4.6-2.3-7.5 0-2.9.4-5.6 2.3-7.5 1.3-1.3 3.1-2 4.9-2s3.6.7 4.9 2c2 1.9 2.3 4.6 2.3 7.5.1 2.9-.3 5.6-2.3 7.5m-1.6-13.4c-.9-.9-2.1-1.4-3.3-1.4s-2.4.5-3.3 1.4c-1.5 1.5-1.6 4-1.6 5.9 0 1.9.1 4.4 1.6 5.9.9.9 2.1 1.4 3.3 1.4s2.4-.5 3.3-1.4c1.5-1.5 1.6-4 1.6-5.9 0-1.9-.1-4.4-1.6-5.9"/><path d="M164,105.2v6h8.5v2.2H164v8h-2.3v-18.3h11.8v2.1H164z"/><path d="m182.4 105.2v16.1h-2.4v-16.1h-5.4v-2.1h13.2v2.1h-5.4"/><path d="m205.9 121.3h-2.4l-4.2-14.7-4.2 14.7h-2.4l-3.7-18.3h2.1l2.9 15 4.2-14.6h2.1l4.2 14.6 2.9-14.9h2.1l-3.6 18.2"/><path d="m223.3 121.3l-1.5-4.3h-7.9l-1.5 4.3h-2.3l6.4-18.3h2.7l6.5 18.3h-2.4m-5.4-15.9l-3.2 9.5h6.5l-3.3-9.5"/><path d="m239.3 121.3l-3.5-7.6h-5v7.6h-2.3v-18.3h7.2c2.1 0 3.6.6 4.6 1.6.9.9 1.4 2.1 1.4 3.7 0 1.6-.5 2.7-1.4 3.6-.5.6-1.3 1-2.2 1.3l3.7 8h-2.5zm-3.6-16.1h-4.9v6.4h4.9c2.2 0 3.7-.9 3.7-3.2s-1.6-3.2-3.7-3.2"/><path d="m245.5 121.3v-18.3h12.2v2.1h-9.9v5.6h8.7v2.2h-8.7v6.3h9.9v2.1h-12.2"/></g></svg>