<svg width="1270" height="730" viewBox="0 0 1270 730" xmlns="http://www.w3.org/2000/svg"><g fill="#fff" fill-rule="evenodd"><g transform="translate(140 75)"><path d="m301.26 134.33c0 41.605-31.398 75.33-70.13 75.33-38.73 0-70.13-33.728-70.13-75.33 0-41.605 31.398-75.33 70.13-75.33 38.731 0 70.13 33.728 70.13 75.33"/><path d="m658 187c0 103.28-84.39 187-188.5 187-104.1 0-188.5-83.72-188.5-187 0-103.28 84.39-187 188.5-187 104.11 0 188.5 83.72 188.5 187"/><path d="m854 226c0 103.28-84.39 187-188.5 187-104.1 0-188.5-83.72-188.5-187 0-103.28 84.39-187 188.5-187 104.11 0 188.5 83.72 188.5 187"/><path d="m156.08 240.83c0 46.3-34.941 83.83-78.04 83.83-43.1 0-78.04-37.533-78.04-83.83 0-46.3 34.941-83.83 78.04-83.83 43.1 0 78.04 37.534 78.04 83.83"/><path d="m192.23 167c0 27.06-20.422 49-45.615 49-25.19 0-45.615-21.938-45.615-49 0-27.06 20.422-49 45.615-49 25.19 0 45.615 21.938 45.615 49"/><path d="m149.33 354c0 38.66-29.17 70-65.16 70-35.989 0-65.16-31.34-65.16-70 0-38.66 29.17-70 65.16-70 35.989 0 65.16 31.34 65.16 70"/><path d="m638.32 186.67c0 43.998-33.2 79.67-74.16 79.67-40.959 0-74.16-35.668-74.16-79.67 0-43.999 33.2-79.67 74.16-79.67 40.958 0 74.16 35.668 74.16 79.67"/><path d="m793.23 205c0 27.06-20.422 49-45.615 49-25.19 0-45.615-21.938-45.615-49 0-27.06 20.422-49 45.615-49 25.19 0 45.615 21.938 45.615 49"/><path d="m961.5 279.17c0 39.31-29.661 71.17-66.25 71.17-36.589 0-66.25-31.862-66.25-71.17 0-39.3 29.661-71.17 66.25-71.17 36.588 0 66.25 31.862 66.25 71.17"/><path d="m855.85 243.67c0 21.907-16.532 39.667-36.926 39.667-20.393 0-36.925-17.76-36.925-39.667 0-21.907 16.532-39.667 36.925-39.667 20.394 0 36.926 17.76 36.926 39.667"/><path d="m81.69 425h829.13l.621-95.33h42.822l-204.8-112.67-373.6-90-138.4 8.666-164.46 122 8.689 167.33"/><path d="m420.86 237.45c.796 20.417-13.965 37.661-32.972 38.516-19.01.855-35.06-15-35.855-35.419-.796-20.417 13.966-37.661 32.972-38.516 19.01-.856 35.06 15 35.855 35.419"/><path d="m478.59 287.97c1.302 33.384-22.836 61.58-53.914 62.979-31.08 1.398-57.33-24.531-58.63-57.915-1.301-33.384 22.837-61.58 53.915-62.979 31.08-1.398 57.33 24.531 58.63 57.915"/><path d="m769.93 280.97c.786 20.14-13.777 37.15-32.527 37.995-18.749.844-34.584-14.8-35.37-34.941-.785-20.14 13.777-37.15 32.527-37.995 18.749-.844 34.585 14.8 35.37 34.941"/><path d="m951.75 403c0 20.987-15.838 38-35.37 38-19.537 0-35.37-17.01-35.37-38 0-20.987 15.838-38 35.37-38 19.537 0 35.37 17.01 35.37 38"/><path d="m942.19 315.95c1.054 27.04-18.496 49.875-43.666 51.01-25.17 1.132-46.43-19.869-47.48-46.907-1.054-27.04 18.496-49.875 43.666-51.01 25.17-1.132 46.43 19.869 47.48 46.907"/><path d="m997.23 361c0 27.06-20.422 49-45.615 49-25.19 0-45.615-21.938-45.615-49 0-27.06 20.422-49 45.615-49 25.19 0 45.615 21.938 45.615 49"/></g><g fill-opacity=".84"><path d="m124.75 619.61c-68.9 0-124.75-56.03-124.75-125.15 0-69.12 55.854-125.15 124.75-125.15 7.797 0 15.427.718 22.828 2.09 19.07-44.632 63.25-75.898 114.72-75.898 64.18 0 117.04 48.614 123.98 111.14 13.04-5.443 27.351-8.448 42.36-8.448 60.95 0 110.36 49.567 110.36 110.71 0 60.07-47.69 108.97-107.16 110.67v.046h-307.09"/><path d="m507.16 729.61c-92.28 0-167.09-75.05-167.09-167.63 0-92.58 74.81-167.63 167.09-167.63 10.443 0 20.663.961 30.575 2.8 25.536-59.779 84.72-101.66 153.66-101.66 85.958 0 156.76 65.11 166.06 148.86 17.469-7.291 36.633-11.316 56.734-11.316 81.64 0 147.81 66.39 147.81 148.29 0 80.46-63.875 145.95-143.53 148.22v.061h-411.31" opacity=".442"/></g><path d="m670.06 46.03c-30.473-18.486-69.34 3.265-71.77 41.482-33.41 4.391-59.29 34.924-59.29 71.961 0 40.05 30.26 72.53 67.58 72.53h211.82c37.33 0 67.59-32.472 67.59-72.53 0-32.38-19.779-59.796-47.08-69.11-6.932-93.67-121.87-124.54-168.86-44.33" opacity=".738" transform="matrix(-1 0 0 1 1424.99 0)"/><path d="m1011.49 395.96c-36.38-22.07-82.79 3.898-85.69 49.53-39.89 5.242-70.79 41.698-70.79 85.92 0 47.822 36.13 86.59 80.69 86.59h252.91c44.567 0 80.69-38.771 80.69-86.59 0-38.66-23.615-71.39-56.21-82.52-8.276-111.84-145.51-148.69-201.61-52.928" opacity=".353"/></g></svg>