<svg width="1000" height="450" viewBox="0 0 1000 450" xmlns="http://www.w3.org/2000/svg"><g fill="none" fill-rule="evenodd"><g transform="translate(0 154)"><g transform="translate(0 158)"><ellipse fill="#9b9b9b" cx="500" cy="68.37" rx="500" ry="68.37"/><g fill="#8b8b8b"><path d="m115.41 57.57c35.7-25.29 197.52-44.52 386.09-44.52 188.46 0 350.17 19.229 385.87 44.52h103.63c-37.04-32.15-240.27-57.57-489.5-57.57-247.32 0-452.23 25.421-489.5 57.57h103.41"/><path d="m887.61 79.76c-34.2 25.25-196.49 44.34-386.06 44.34-189.67 0-352.08-19.1-386.17-44.34h-103.39c35.543 32.08 241.09 57.54 489.56 57.54 250.25 0 454.24-25.461 489.44-57.54h-103.39"/></g></g><g transform="translate(311)"><g fill="#ccc"><path d="m155.88 163.63h13.942v70.64h-13.942v-70.64"/><path d="m110.97 241.53l94.38-23.22 10.572 9.382-116.37 32.394 11.417-18.552"/><path d="m111.66 223.82l15.271-6.479 83.23 28.05 9.978 20.716-108.48-42.28"/></g><g fill="#000"><path d="m23.759 6.246l-10.171 4.94c-6.266 3.044-9.645 9.972-8.185 16.784l3.142 14.666c1.832 8.547 10.502 13.769 18.914 11.392l13.85-3.914c8.821-2.493 13.418-12.192 9.763-20.598l-6.822-15.691c-3.432-7.894-12.748-11.339-20.491-7.579" transform="matrix(.97815-.20791.20791.97815-5.54 6.615)"/><path d="m63.734 47.47l-20.1 10.84c-7.827 4.221-10.155 14.363-4.953 21.575l40.12 55.628c3.813 5.286 10.648 7.437 16.8 5.286l27.769-9.704c9.734-3.401 13.05-15.496 6.407-23.384l-47.79-56.764c-4.493-5.337-12.11-6.788-18.254-3.477" transform="matrix(.98769-.15643.15643.98769-13.612 14.383)"/><path d="m106.41 134.72l64.28-34.437c2.833-1.517 6.102-2.01 9.259-1.407l59.07 11.359c11.577 2.227 15.392 16.886 6.369 24.474l-50.47 42.44c-3.493 2.938-8.199 3.989-12.61 2.817l-72.886-19.36c-12.282-3.263-14.221-19.881-3.02-25.883"/></g></g><g transform="translate(606 12)"><path d="m134.59 136.97l77.67-15.942v99.88l7.982 3.35 10.764-3.35v-113.04l-102.2-52.36-128.8 11.881v111.62l8.494 3.906 10.961-3.906v-71.14l41.34 33.689v102.17l10.644 4.199 11.63-4.199v-96.17l32.433-6.657v34.963l8.761 4.643 10.327-4.643v-38.881" fill="#343434"/><g transform="translate(31)"><path d="m185.14 24.717l-28.44 74.36-77.23 12.83-78.77-34.774 61.772-13.654 25.06-63.29 97.61 24.535" fill="#9b9b9b"/><path d="m153.57 94.18l-86.23-32.15 22.85-57.57 88.85 23" fill="#c4ebff"/><g transform="matrix(.95106.30902-.30902.95106 85.17 23.557)" fill="#000"><path d="m0 8.677c0-4.797 3.32-8.677 7.456-8.677 3.946 0 7.079 3.527 7.392 8.04v.14c0 .458-.344.775-.751.775h-12.594c.156 3.775 2.789 6.632 5.953 6.632 2.036 0 3.915-1.2 4.948-3.14.22-.423.69-.493 1-.282.346.282.47.777.251 1.2-1.316 2.363-3.603 3.915-6.202 3.915-4.136 0-7.456-3.88-7.456-8.605m1.597-1.375h11.623c-.502-3.247-2.946-5.609-5.764-5.609-2.882 0-5.295 2.329-5.859 5.609"/><path d="m57.21 0c-3.621 0-6.551 3.181-6.551 7.03v9.401c0 .494.362.847.789.847.429 0 .791-.353.791-.847v-9.401c0-2.933 2.205-5.338 4.972-5.338 2.765 0 4.97 2.404 4.97 5.338v9.401c0 .494.362.847.791.847.427 0 .789-.353.789-.847v-9.401c0-3.853-2.929-7.03-6.55-7.03"/><path d="m24.05 0c-3.621 0-6.551 3.181-6.551 7.03v9.401c0 .494.362.847.789.847.429 0 .791-.353.791-.847v-9.401c0-2.933 2.205-5.338 4.972-5.338 2.765 0 4.97 2.404 4.97 5.338v9.401c0 .494.362.847.791.847.427 0 .789-.353.789-.847v-9.401c0-3.853-2.929-7.03-6.55-7.03"/><path d="m66.38.847c0-.495.367-.847.802-.847.466 0 .833.353.833.847v15.59c0 .458-.367.845-.833.845-.435 0-.802-.388-.802-.845v-15.59"/><path d="m70.75 8.607c0-4.797 3.755-8.607 8.45-8.607 1.944 0 3.791.705 5.231 1.905.335.247.402.775.102 1.163-.27.317-.739.425-1.107.142-1.174-.988-2.65-1.552-4.226-1.552-3.822 0-6.841 3.14-6.841 6.949 0 3.878 3.02 6.983 6.841 6.983 1.576 0 3.052-.565 4.226-1.517.369-.282.837-.175 1.107.142.3.388.233.917-.168 1.235-1.374 1.128-3.22 1.833-5.165 1.833-4.694 0-8.45-3.81-8.45-8.675"/><path d="m34.757 7.277c.541-3.197 2.996-5.627 5.856-5.627 2.858 0 5.311 2.43 5.852 5.627h1.572c-.562-4.064-3.644-7.277-7.424-7.277-3.751 0-6.859 3.213-7.424 7.277h1.568"/><path d="m46.47 10.01c-.519 3.191-2.98 5.605-5.855 5.605-2.877 0-5.34-2.414-5.857-5.605h-1.568c.539 4.055 3.656 7.273 7.425 7.273 3.795 0 6.889-3.218 7.423-7.273h-1.568"/></g></g></g></g><g transform="translate(292 55)"><path d="m89.84 35.934c0 0 4.139 4.957 5.722 9.424 1.584 4.467.987 10.848.987 10.848l-11.139-10.996 4.429-9.276" fill="#421"/><path d="m29.383 144.1l5.539-2.518 5.85-13.778 21.286 26.677-11.254.506-8.466-3.906-8.469 3.255-4.59-11.694" fill="#edc6a6"/><g fill="#97dcff"><path d="m75.86 161.52l-52.705-2.472 13.363-4.232-1.783-7.181-5.456-4.999-26.896 13.715-2.167 9.477 5.421 6.513 76.76 12.282-6.538-23.1"/><path d="m148.17 127.21l-4.977-31.24-11.705 8.191-9.458-11.274 22.332-15.12 7.628 2.885 13.563 58.693-17.383-12.13"/></g><path d="m53.699 156.97l11.289.4-5.699-6.4" fill="#79bff2"/><path d="m46.585 140.75c9.192 11.689 16.414 16.206 16.414 16.206l68.775.235 46.796.317-9.698-17.415c0 0-28.07-25.969-45.915-49.977-17.847-24.01-34.09-50.21-34.09-50.21l-43.51 18.9-14.958 57.25c0 0 6.989 12.999 16.182 24.688" fill="#f2d3b3"/><path d="m85.25 74.18c-3.09 0-8.129 1.245-13.636 4.547-7.702 4.616-12.308 9.877-12.314 12.08-.001.192.034.362.104.505.907 1.855 6.323 8.659 13.821 8.659 2.666 0 5.596-.86 8.678-3.109 5.958-4.346 7.419-10.756 7.419-15.53-.001-3.161-.641-5.606-1.042-6.258-.344-.56-1.423-.897-3.03-.897" fill="#f8f3ed"/><path d="m115.48 56.54c0 0-5.329-1.726-11.359 2.347-6.03 4.074-7.424 7.515-12.164 10.04-4.74 2.526-10.267.471-20.835 6.349-10.568 5.879-12.727 10.946-16.07 13.271-3.34 2.325-10.773 7.909-13.09 9.846-2.316 1.936-1.47 4.57-1.47 4.57 0 0 1.01-.983 2.186-1.257 1.176-.274 1.59-.008 1.59-.008 0 0 13.313-6.955 15.05-5.737 1.733 1.218 10.242 12.63 23.761 3.645 13.518-8.986 6.897-24.504 11.57-26.79 1.949-.953 3.889 1.289 6.399 3.531 2.724 2.433 6.119 4.866 10.926 3.216 10.15-3.482 4.119-18.04 4.119-18.04l.676-2.403-1.288-2.58m-33.584 40.32c-11.754 8.574-21.27-3.036-22.499-5.55-.876-1.791 3.838-7.572 12.21-12.59 8.373-5.02 15.662-5.286 16.667-3.649 1 1.637 3.528 14.564-6.377 21.788m30.1-20.326c-5.762 3.341-12.1-5.23-12.891-7.19-.791-1.961-.451-3.468 4.642-6.791 5.093-3.323 8.432-2.195 9.662-.398 2.079 3.037 3.962 11.263-1.412 14.379" fill="#000"/><path d="m109.68 60.43c-.08 0-.161.001-.243.004-1.518.077-3.394.682-5.597 2.12-.064.042-.127.083-.189.124 2.802 4.174 5.884 8.687 9.135 13.328 4.384-3.435 2.591-10.969.622-13.845-.657-.961-1.918-1.731-3.728-1.73" fill="#fafdff"/><path d="m103.66 62.68c-4.912 3.237-5.233 4.73-4.452 6.667.665 1.646 5.24 7.955 10.1 7.955.068 0 .136-.001.203-.004.83-.045 1.667-.279 2.491-.757.283-.164.546-.343.79-.534-3.251-4.64-6.333-9.154-9.135-13.328" fill="#f8f3ed"/><path d="m109.78 60.43c-.11 0-.222.002-.336.008.082-.003.163-.004.243-.004 1.809-.001 3.07.769 3.728 1.73 1.969 2.877 3.762 10.41-.622 13.845-.244.191-.507.369-.79.534-.824.478-1.661.712-2.491.757.861-.031 1.73-.265 2.585-.761 5.374-3.116 3.49-11.342 1.412-14.379-.658-.961-1.918-1.73-3.728-1.73" fill="#bfc2c4"/><path d="m43.771 137.25c0 0 5.11-2.651 6.61-7.559 1.499-4.909.502-11.218.502-11.218l2.398-5.957c0 0 3.086 4.065 5.901 4.374 7.831.858 11.314-10.998 30.374-13.67 6.355-.891 15.56-2.89 23.08-5.677 9.391-3.482 10.04-7.411 10.04-7.411l44.544 50.946 10.752 15.553-115.25.341c0 0-5.522-4.29-10.517-9.512-4.995-5.221-8.43-10.21-8.43-10.21" fill="#e2bb98"/><g fill="#421"><path d="m31.353 118.74c0 0-15.419-6.362-21.679-21.11-1.088-2.563-1.882-5.271-2.359-8.07-.202-1.187-4.182-7.877-4.182-7.877 0 0 3.66 2.671 3.654 1.864-.077-11.699 5.364-24.06 17.658-33.482 38.04-29.14 25.753-33.2 25.753-33.2 0 0 3.755-1.313 6.251 3.518 2.53 4.897.924 8.666.924 8.666 0 0 5.05-4.45 5.103-15.493.034-7.442-8.222-12.71-8.222-12.71 0 0 27.26-2.43 37.32 19.369 4.515 9.782-1.756 22.975-12.396 28.999-7.705 4.362-24.06 13.858-28.998 17.642-9.473 7.262-9.837 14.643-9.837 14.643l4.116-2.384c0 0-3.084 4.939-4.699 9.591-2.027 5.84 13.517 23.799 13.517 23.799l-2.39 6.158c0 0-5.527-6.811-8.837-7.368-4.098-.69-10.701 7.44-10.701 7.44"/><path d="m55.29 114.32l-1.927 5.855-1.018-.998 2.102-5.498.842.641"/></g><path d="m91.93 20.46c-5.614-15.346-19.942-16.954-19.942-16.954 0 0 9.778 1.892 13.42 19.03 4.59 21.594-20.866 34.712-20.866 34.712 0 0 4.04-1.503 8.55-3.466 8.875-3.863 24.391-18.14 18.838-33.32" fill="#603719"/><g fill="#f2d3b3"><path d="m48.89 120.38c.215 5.505-3.768 10.154-8.895 10.385-5.128.23-9.458-4.045-9.673-9.55-.215-5.505 3.768-10.154 8.895-10.385 5.128-.23 9.458 4.045 9.673 9.55"/><path d="m100.73 81.53l9.299-2.435 2.126 6.359-1.676 5.831-7.482.229-2.268-9.984"/></g><path d="m99.92 81.87c0 0 7.756-3.01 9.85-1.892 2.094 1.121.619 8.221-.519 10.189-1.138 1.969-7.145 1.178-7.145 1.178 0 0 5.73 1.946 8.382-.054 2.651-1.999 3.467-11.452.984-12.899-2.482-1.447-11.553 3.478-11.553 3.478" fill="#c69e87"/><g fill="#421"><path d="m67.12 67.66l9.403-8.432 7.61 3.836-8.715 1.089-8.297 3.507"/><path d="m93.19 62.01l2.324-7.384 6.163.774-5.067 2.747-3.42 3.862"/></g><path d="m116.07 101.32c0 0-7.174 3.953-15.836 5.856-8.663 1.902-13.726 2.13-17.13 1.678-3.4-.452-4.125 9.868-4.125 9.868 0 0 9.07 1.407 19.611-3 10.537-4.407 17.475-14.401 17.475-14.401" fill="#442f26"/><path d="m82.16 111.01c-1.066 1.561-.21 4.245-.21 4.245 0 0 7.05-.014 14.559-2.47 7.514-2.456 9.611-6.484 9.611-6.484 0 0-6.111 2.292-13.402 3.225-7.291.933-9.492-.077-10.558 1.483" fill="#fff"/><path d="m109.06 116.76c0 0 .949 2.68-4.301 5.337-5.251 2.657-12.03 2.356-12.03 2.356 0 0 6.683 5.146 12.192 1.872 5.509-3.273 4.136-9.565 4.136-9.565" fill="#cea282"/><path d="m229.23 191.74l29.748-56.2 11.987-.943 58.949 46.97-8.843 14.11-51.1-38.448-19.1 78.72-24.754 20.477 3.113-64.69" fill="#a7aaaf"/><path d="m283.31 162.28l6.909 3.724 33.752 38.62-11.45 10.374-28.643-28.538-4.048 2.199-.564-4.816-23.844 34.15 9.916-44.42 17.972-11.297" fill="#838991"/><g fill="#000"><path d="m326.39 181.71l7.638-2.758 28.472-23 3.774 3.268-26.377 35.01-4.66.649.675 3.716-6.416 8.515-13.443-11.674 10.337-13.719"/><path d="m322.9 203.78l7.638-2.758 28.472-23 3.774 3.268-26.377 35.01-4.66.649.675 3.716-6.416 8.515-13.443-11.674 10.337-13.719" transform="matrix(.99255.12187-.12187.99255 27.329-39.635)"/></g><path d="m53.692 156.77c0 0 33.04 42.588 78.965 73.6 45.927 31.02 93.75 33.706 93.75 33.706l11.976-59.03-7.05-17.03 8.03-15.691-40.03-14.74-48.741-35.73 15.713 27.13-24.305-6.572-18.475-1.59c0 0-24.01 10.761-42.682 13.619-18.677 2.857-27.15 2.33-27.15 2.33" fill="#97dcff"/><path d="m122.76 140.45l17.74 2.026-17.817 5.642.077-7.668" fill="#79bff2"/><g fill="#82ccf9"><path d="m53.79 156.87c0 0 9.589.174 31.31-4.232 18.212-3.694 38.21-12.61 38.21-12.61l.19 14.515c0 0-14.941 2.285-37.06 3.683-22.12 1.398-32.651-1.356-32.651-1.356"/><path d="m147.16 118.23l11.705 3.86-4.535 6.558-7.17-10.418"/></g><g fill="#e8f3f9"><path d="m180.95 158.01c.061 1.563-1.069 2.883-2.526 2.949-1.456.065-2.686-1.149-2.747-2.712-.061-1.563 1.069-2.883 2.526-2.949 1.456-.065 2.686 1.149 2.747 2.712"/><path d="m201.86 168.97c.061 1.563-1.07 2.883-2.526 2.949-1.456.065-2.686-1.149-2.747-2.712-.061-1.563 1.07-2.883 2.526-2.949 1.456-.065 2.686 1.149 2.747 2.712"/><path d="m221.54 177.56c.061 1.563-1.07 2.883-2.526 2.949-1.456.066-2.686-1.148-2.747-2.712-.061-1.563 1.07-2.883 2.526-2.949 1.456-.066 2.686 1.149 2.747 2.712"/></g></g><g transform="translate(68)"><path d="m0 0h180.26v276.73h-180.26v-276.73" fill="#fff"/><g fill="#b6ebff"><path d="m8.754 8.776h162.73v109.81h-162.73v-109.81"/><path d="m8.754 122.32h162.73v134.6h-162.73v-134.6"/></g><g fill="#fff"><path d="m88.09 6.582h3.83v114.52h-3.83v-114.52"/><path d="m158.37 186.85c-.524-6.619-9.219-8.801-12.772-3.133-2.305-1.307-5.245.231-5.429 2.932-2.527.31-4.485 2.468-4.485 5.085 0 2.83 2.289 5.125 5.112 5.125h16.02c2.823 0 5.112-2.295 5.112-5.125 0-2.288-1.496-4.226-3.561-4.885"/><path d="m144.43 215.59c-.948-11.971-16.671-15.915-23.1-5.665-4.168-2.363-9.484.417-9.817 5.301-4.569.561-8.11 4.463-8.11 9.196 0 5.119 4.139 9.268 9.245 9.268h28.975c5.106 0 9.245-4.15 9.245-9.268 0-4.138-2.705-7.641-6.439-8.833"/></g></g></g></svg>