<svg width="997" height="555" viewBox="0 0 997 555" xmlns="http://www.w3.org/2000/svg"><g fill="none" fill-rule="evenodd" transform="translate(0 1)"><g fill="#fff"><path d="m301.3 247c0 41.605-31.398 75.33-70.13 75.33-38.73 0-70.13-33.728-70.13-75.33 0-41.605 31.398-75.33 70.13-75.33 38.731 0 70.13 33.728 70.13 75.33"/><path d="m156.39 354.17c0 46.3-34.941 83.83-78.04 83.83-43.1 0-78.04-37.533-78.04-83.83 0-46.3 34.941-83.83 78.04-83.83 43.1 0 78.04 37.534 78.04 83.83"/><path d="m192.7 280c0 27.06-20.422 49-45.615 49-25.19 0-45.615-21.938-45.615-49 0-27.06 20.422-49 45.615-49 25.19 0 45.615 21.938 45.615 49"/><path d="m149.26 467c0 38.66-29.17 70-65.16 70-35.989 0-65.16-31.34-65.16-70 0-38.66 29.17-70 65.16-70 35.989 0 65.16 31.34 65.16 70"/><path d="m637.98 299.67c0 43.998-33.2 79.67-74.16 79.67-40.959 0-74.16-35.668-74.16-79.67 0-43.999 33.2-79.67 74.16-79.67 40.958 0 74.16 35.668 74.16 79.67"/><path d="m793.13 318c0 27.06-20.422 49-45.615 49-25.19 0-45.615-21.938-45.615-49 0-27.06 20.422-49 45.615-49 25.19 0 45.615 21.938 45.615 49"/><path d="m961.01 391.83c0 39.3-29.661 71.17-66.25 71.17-36.589 0-66.25-31.862-66.25-71.17 0-39.3 29.661-71.17 66.25-71.17 36.588 0 66.25 31.862 66.25 71.17"/><path d="m855.51 357c0 21.907-16.532 39.667-36.926 39.667-20.393 0-36.925-17.76-36.925-39.667 0-21.907 16.532-39.667 36.925-39.667 20.394 0 36.926 17.76 36.926 39.667"/><path d="m81.61 537.67h829.13l.621-95.33h42.822l-204.8-112.67-373.6-90-138.4 8.666-164.46 122 8.689 167.33"/></g><path d="m365.51 57.781c0 0 6.842 8.199 9.459 15.588 2.618 7.389 1.632 17.942 1.632 17.942l-18.412-18.19 7.322-15.342" fill="#421"/><path d="m265.57 236.68l9.155-4.165 9.67-22.788 35.19 44.12-18.602.837-13.994-6.46-13.999 5.384-7.587-19.342" fill="#edc6a6"/><g fill="#97dcff"><path d="m342.4 265.5l-87.12-4.088 22.09-6.999-2.947-11.878-9.02-8.268-44.46 22.685-3.582 15.675 8.961 10.773 126.89 20.314-10.807-38.21"/><path d="m461.93 208.75l-8.226-51.675-19.349 13.548-15.635-18.647 36.915-25.02 12.609 4.771 22.419 97.08-28.733-20.06"/></g><path d="m305.77 257.98l18.661.662-9.42-10.586" fill="#79bff2"/><path d="m267.26 190.31c0 0 11.553 21.5 26.749 40.834 15.195 19.333 27.13 26.804 27.13 26.804l113.69.389 77.35.524-16.03-28.805c0 0-46.4-42.952-75.897-82.66-29.501-39.708-56.35-83.04-56.35-83.04l-71.922 31.26-24.725 94.69" fill="#f2d3b3"/><path d="m357.91 121.04c-5.107 0-13.437 2.06-22.54 7.52-12.731 7.635-20.345 16.337-20.355 19.988-.001.318.056.598.172.835 1.499 3.068 10.451 14.322 22.846 14.322 4.407 0 9.25-1.423 14.345-5.143 9.849-7.189 12.264-17.79 12.264-25.687-.001-5.229-1.06-9.273-1.722-10.351-.568-.927-2.352-1.484-5.01-1.484" fill="#f8f3ed"/><path d="m407.9 91.87c0 0-8.808-2.855-18.776 3.882-9.969 6.738-12.271 12.429-20.11 16.606-7.835 4.178-16.971.779-34.441 10.502-17.469 9.724-21.04 18.11-26.56 21.95-5.521 3.845-17.808 13.08-21.635 16.285-3.828 3.202-2.43 7.558-2.43 7.558 0 0 1.669-1.626 3.613-2.079 1.944-.453 2.628-.014 2.628-.014 0 0 22.01-11.503 24.871-9.489 2.864 2.01 16.93 20.89 39.28 6.03 22.346-14.862 11.401-40.53 19.12-44.31 3.222-1.576 6.428 2.132 10.577 5.84 4.503 4.02 10.114 8.05 18.06 5.32 16.779-5.759 6.809-29.837 6.809-29.837l1.117-3.974-2.129-4.268m-55.51 66.69c-19.429 14.182-35.16-5.02-37.19-9.179-1.448-2.963 6.344-12.524 20.18-20.823 13.84-8.3 25.89-8.743 27.55-6.04 1.661 2.707 5.831 24.09-10.542 36.04m49.754-33.619c-9.525 5.526-20-8.65-21.309-11.893-1.307-3.243-.746-5.736 7.673-11.232 8.418-5.496 13.939-3.63 15.971-.658 3.436 5.02 6.55 18.629-2.334 23.783" fill="#000"/><path d="m398.31 98.3c-.132 0-.266.002-.401.007-2.51.128-5.611 1.128-9.252 3.506-.105.069-.209.137-.313.205 4.632 6.903 9.727 14.369 15.1 22.04 7.247-5.682 4.283-18.14 1.028-22.9-1.086-1.59-3.171-2.863-6.162-2.862" fill="#fafdff"/><path d="m388.34 102.02c-8.119 5.354-8.651 7.824-7.36 11.03 1.098 2.723 8.662 13.158 16.7 13.158.113 0 .224-.002.336-.006 1.372-.074 2.755-.461 4.118-1.252.468-.272.903-.567 1.306-.883-5.373-7.675-10.468-15.14-15.1-22.04" fill="#f8f3ed"/><path d="m398.46 98.29c-.182 0-.367.004-.556.014.135-.005.269-.007.401-.007 2.991-.001 5.075 1.272 6.162 2.862 3.255 4.758 6.219 17.218-1.028 22.9-.403.316-.838.611-1.306.883-1.363.791-2.746 1.178-4.118 1.252 1.423-.052 2.86-.439 4.274-1.259 8.883-5.154 5.77-18.76 2.334-23.783-1.087-1.59-3.171-2.862-6.163-2.862" fill="#bfc2c4"/><path d="m289.35 225.35c0 0 8.447-4.384 10.926-12.502 2.478-8.119.829-18.554.829-18.554l3.964-9.853c0 0 5.1 6.724 9.754 7.234 12.944 1.419 18.702-18.19 50.21-22.61 10.504-1.474 25.721-4.78 38.14-9.389 15.524-5.76 16.604-12.258 16.604-12.258l73.63 84.26 17.774 25.724-190.52.564c0 0-9.128-7.096-17.385-15.732-8.256-8.636-13.935-16.888-13.935-16.888" fill="#e2bb98"/><g fill="#421"><path d="m268.83 194.75c0 0-25.488-10.522-35.835-34.92-1.799-4.24-3.11-8.719-3.899-13.342-.334-1.964-6.913-13.03-6.913-13.03 0 0 6.05 4.417 6.04 3.083-.128-19.35 8.866-39.799 29.19-55.38 62.875-48.2 42.57-54.906 42.57-54.906 0 0 6.206-2.172 10.332 5.819 4.182 8.099 1.528 14.334 1.528 14.334 0 0 8.353-7.36 8.436-25.626.056-12.309-13.59-21.02-13.59-21.02 0 0 45.06-4.02 61.693 32.04 7.464 16.179-2.903 38-20.491 47.964-12.737 7.214-39.774 22.921-47.933 29.18-15.659 12.01-16.261 24.22-16.261 24.22l6.803-3.943c0 0-5.099 8.169-7.768 15.863-3.35 9.659 22.344 39.36 22.344 39.36l-3.951 10.186c0 0-9.136-11.266-14.607-12.187-6.773-1.141-17.688 12.306-17.688 12.306"/><path d="m308.4 187.42l-3.185 9.684-1.682-1.651 3.474-9.09 1.393 1.06"/></g><path d="m368.96 32.19c-9.28-25.382-32.964-28.04-32.964-28.04 0 0 16.16 3.129 22.18 31.47 7.587 35.717-34.491 57.41-34.491 57.41 0 0 6.678-2.486 14.13-5.732 14.671-6.389 40.32-30 31.14-55.11" fill="#603719"/><g fill="#f2d3b3"><path d="m297.82 197.45c.355 9.105-6.228 16.795-14.704 17.18-8.476.381-15.635-6.691-15.989-15.795-.356-9.105 6.228-16.795 14.704-17.18 8.476-.381 15.635 6.69 15.989 15.795"/><path d="m383.51 133.2l15.372-4.03 3.515 10.518-2.77 9.645-12.367.378-3.75-16.513"/></g><path d="m382.16 133.76c0 0 12.821-4.983 16.283-3.129 3.461 1.854 1.024 13.597-.857 16.853-1.88 3.257-11.81 1.949-11.81 1.949 0 0 9.472 3.218 13.855-.09 4.383-3.307 5.731-18.942 1.627-21.335-4.103-2.393-19.1 5.752-19.1 5.752" fill="#c69e87"/><g fill="#421"><path d="m327.96 110.25l15.542-13.946 12.579 6.345-14.407 1.801-13.715 5.8"/><path d="m371.04 100.91l3.841-12.213 10.187 1.281-8.375 4.544-5.652 6.388"/></g><path d="m408.86 165.93c0 0-11.858 6.538-26.18 9.685-14.319 3.146-22.69 3.523-28.309 2.775-5.62-.748-6.818 16.321-6.818 16.321 0 0 14.999 2.327 32.417-4.962 17.418-7.289 28.887-23.819 28.887-23.819" fill="#442f26"/><path d="m352.8 181.96c-1.762 2.582-.347 7.02-.347 7.02 0 0 11.646-.023 24.07-4.085 12.42-4.062 15.887-10.724 15.887-10.724 0 0-10.1 3.791-22.15 5.334-12.05 1.543-15.69-.128-17.453 2.453" fill="#fff"/><path d="m397.28 191.47c0 0 1.57 4.433-7.11 8.827-8.68 4.394-19.88 3.897-19.88 3.897 0 0 11.05 8.511 20.15 3.097 9.106-5.414 6.838-15.821 6.838-15.821" fill="#cea282"/><path d="m595.91 315.48l49.17-92.96 19.815-1.559 97.44 77.69-14.618 23.344-84.47-63.59-31.571 130.2-40.918 33.869 5.146-106.99" fill="#a7aaaf"/><path d="m655.61 285.44l29.708-18.685 11.42 6.159 50.19 92.49-21.313 10.968-39.36-69.62-6.691 3.637-.932-7.965-39.41 56.49 16.391-73.47" fill="#838991"/><path d="m756.53 298.89l12.626-4.562 47.06-38.05 6.238 5.406-43.602 57.901-7.702 1.074 1.115 6.147-10.606 14.08-22.22-19.309 17.09-22.691" fill="#000"/><path d="m305.75 257.64c0 0 54.613 70.44 130.53 121.74 75.917 51.3 154.98 55.749 154.98 55.749l19.797-97.64-11.658-28.17 13.275-25.953-66.17-24.38-80.57-59.1 25.974 44.872-40.18-10.87-30.539-2.63c0 0-39.681 17.799-70.55 22.525-30.874 4.725-44.884 3.854-44.884 3.854" fill="#97dcff"/><path d="m419.92 230.65l29.325 3.351-29.451 9.332.127-12.683" fill="#79bff2"/><g fill="#82ccf9"><path d="m305.91 257.8c0 0 15.851.288 51.748-6.999 30.1-6.11 63.16-20.857 63.16-20.857l.315 24.01c0 0-24.698 3.78-61.26 6.092-36.558 2.312-53.972-2.243-53.972-2.243"/><path d="m460.26 193.89l19.349 6.385-7.497 10.847-11.852-17.232"/></g><g fill="#e8f3f9"><path d="m516.11 259.69c.101 2.585-1.768 4.769-4.175 4.877-2.406.108-4.44-1.9-4.54-4.485-.101-2.586 1.768-4.769 4.175-4.878 2.406-.108 4.44 1.9 4.54 4.486"/><path d="m550.67 277.82c.101 2.585-1.769 4.769-4.175 4.877-2.407.108-4.44-1.9-4.541-4.485-.101-2.586 1.769-4.769 4.175-4.878 2.407-.108 4.44 1.9 4.541 4.486"/><path d="m583.21 292.03c.101 2.585-1.769 4.769-4.176 4.877-2.406.109-4.44-1.899-4.54-4.485-.101-2.585 1.769-4.769 4.175-4.877 2.407-.109 4.44 1.9 4.541 4.485"/></g><g fill="#fff"><path d="m421.16 350.04c.796 20.417-13.965 37.661-32.972 38.516-19.01.855-35.06-15-35.855-35.419-.796-20.417 13.966-37.661 32.972-38.516 19.01-.856 35.06 15 35.855 35.419"/><path d="m479.05 400.98c1.302 33.384-22.836 61.58-53.914 62.979-31.08 1.398-57.33-24.531-58.63-57.915-1.301-33.384 22.837-61.58 53.915-62.979 31.08-1.398 57.33 24.531 58.63 57.915"/><path d="m769.49 394.42c.786 20.14-13.777 37.15-32.527 37.995-18.749.844-34.584-14.8-35.37-34.941-.785-20.14 13.777-37.15 32.527-37.995 18.749-.844 34.585 14.8 35.37 34.941"/><path d="m951.39 516c0 20.987-15.838 38-35.37 38-19.537 0-35.37-17.01-35.37-38 0-20.987 15.838-38 35.37-38 19.537 0 35.37 17.01 35.37 38"/><path d="m942.27 428.68c1.054 27.04-18.496 49.875-43.666 51.01-25.17 1.132-46.43-19.869-47.48-46.907-1.054-27.04 18.496-49.875 43.666-51.01 25.17-1.132 46.43 19.869 47.48 46.907"/><path d="m997 474c0 27.06-20.422 49-45.615 49-25.19 0-45.615-21.938-45.615-49 0-27.06 20.422-49 45.615-49 25.19 0 45.615 21.938 45.615 49"/></g></g></svg>