<svg width="1026" height="588" viewBox="0 0 1026 588" xmlns="http://www.w3.org/2000/svg"><g fill="none" fill-rule="evenodd"><g transform="translate(0 479)"><ellipse fill="#9b9b9b" cx="500" cy="54" rx="500" ry="54"/><g fill="#8b8b8b"><path d="m115.41 45.47c35.7-19.976 197.52-35.16 386.09-35.16 188.46 0 350.17 15.189 385.87 35.16h103.63c-37.04-25.395-240.27-45.47-489.5-45.47-247.32 0-452.23 20.08-489.5 45.47h103.41"/><path d="m887.61 63c-34.2 19.94-196.49 35.03-386.06 35.03-189.67 0-352.08-15.09-386.17-35.03h-103.39c35.543 25.34 241.09 45.45 489.56 45.45 250.25 0 454.24-20.11 489.44-45.45h-103.39"/></g></g><path d="m598.32 146.56c0 0-51.12-18.548-122.09-31.354-70.966-12.805-121.33 3.327-121.33 3.327 0 0 17.4 3.446 27.318 10.41 9.919 6.965 9.437 13.01 9.437 13.01l-25.682 5.435c0 0-19.14 12.992-12.313 36.698 6.826 23.707 20.553 26.06 20.553 26.06 0 0 10.298-7.088 20.983-11.908 10.686-4.819 16.07-5.03 16.07-5.03l10.875 23.13-31.443 7.315c0 0-7.226 6.888 6.305 31.429 13.53 24.54 48.07 15.938 48.07 15.938 0 0 16.331-8.01 28.07-7.06 11.743.956 31.709 9.507 31.709 9.507 0 0-1.912-6.083 23.543-30.02 25.454-23.939 48.714-40.531 48.714-40.531l21.21-56.35" fill="#eb3636"/><g fill="#d62929"><path d="m536.2 138.2c0 0-52.29-9.86-89.63-4.214-37.34 5.647-52.33 15.198-52.33 15.198 0 0-8.549-2.076-17.926-.805-9.377 1.27-13.987 6.395-13.987 6.395 0 0 7.203-4.128 16.896-2.959 9.692 1.168 17.791 6.412 17.791 6.412 0 0 12.69-14.654 49.853-20.867 37.16-6.212 89.34.84 89.34.84"/><path d="m411.27 193.21c0 0-.908-18.18-9.875-22.771-8.967-4.588-18.35-5.823-23.496-1.574-5.145 4.249-1.995 13.07-.565 23.528 1.429 10.461-3.448 17.574-3.448 17.574 0 0 12.626-7.768 20.583-11.511 10.21-4.803 16.802-5.246 16.802-5.246"/><path d="m507.12 187c-46.38 29.721-74.902 71.62-74.902 71.62 0 0-5.992-11.1-14.494-21.06-8.502-9.958-24.05-18.884-27.906-12.25-5.442 9.359 3.415 26.958 12.199 37.961 16.971 21.26 43.728 7.762 43.728 7.762 0 0 15.691-9.376 32.418-5.946 16.727 3.43 25.661 9.361 25.661 9.361l92.03-69.17-20.838-48.42c0 0-21.522.405-67.898 30.13"/></g><path d="m624.61 147.21l11.968 28.23c0 0 13.372-4.097 11.03-15.486-1.446-7.04-23-12.739-23-12.739" fill="#eb3636"/><g fill="#ce450f"><path d="m600.95 48.06c0 0 13.14-4.772 22.19-3.361 9.05 1.412 13.689 4.422 20.15 4.345 12.209-.145 5.523-8.406 5.523-8.406 0 0 4.195 7.999-6.605 5.713-6.622-1.401-9.47-4.371-20.08-5.993-10.615-1.623-22.638 5.121-22.638 5.121l1.471 2.581"/><path d="m597.53 43.738c0 0-15.418-1.298-26.782.806-11.365 2.104-12.835 11.12-12.835 11.12 0 0 3.92-7.915 12.699-8.73 8.779-.815 25.27-.593 25.27-.593l1.643-2.598"/></g><g fill="#f2ccaa"><path d="m568.24 88.05l-1.295 207.94 70.62-1.065 1.149-210.75-12.01-10.304-58.46 14.18"/><path d="m570.46 154.63l-91.65 58.28 69.64 37.879 4.292 12.02 4.948 3.785 9.623-9.621-.155-12.606-3.324-4.663-9.991 1.134-52.1-28.749 65.56-41.38 3.164-16.08"/><path d="m637.65 160.83l79.73 56.27-64.13 30.984-4.371 10.6-4.604 3.183-8.219-9.05.683-11.307 3.184-4.04 8.917 1.45 48-23.548-59.26-40.668.068-13.87"/><path d="m573.53 268.5c0 0-4.459 44.801-3.622 113.56.838 68.757 16.997 120.74 21.601 133.34 4.604 12.594 34.641 27.787 36.1 25.539 1.462-2.248-22.692-25.899-24.19-32.25-1.499-6.351-17.303-61.05-18.888-124.92-1.585-63.869 13.395-112.06 13.395-112.06l-24.398-3.205"/></g><path d="m590.95 514.22c0 0-2.151 7.721 4.679 13.325 6.83 5.605 29.31 15.908 32.514 15.396 3.202-.511-13-18.475-13-18.475 0-.001 2.816 2.923.466 4.814-2.569 2.068-11.323-1.626-16.692-5.671-5.368-4.04-7.965-9.389-7.965-9.389" fill="#000"/><path d="m613.63 277.26c0 0 6.112 60.58 7.555 108.91 1.443 48.33-4.121 109.1-2.673 119.75 1.449 10.643 32.468 24.17 35.678 21.984 1.94-1.318-21.02-20.546-22.15-27.448-1.129-6.903 2.18-64.874 3.038-115.47.866-51.04-.496-110.13-1.19-109.99l-20.257 2.272" fill="#f2ccaa"/><path d="m618.33 502.36c0 0-5.485 6.832 3.806 13.198 7.288 4.994 30.701 15.426 33.893 14.858 3.192-.569-13.838-16.403-13.838-16.403 0 0 1.927 2.216.363 3.103-2.87 1.626-10.652-1.562-16.09-5.509-5.441-3.948-8.132-9.247-8.132-9.247" fill="#000"/><g fill="#f2ccaa"><path d="m574.37 110.36c.259 4.993-3.577 9.25-8.568 9.509-4.99.259-9.246-3.578-9.505-8.571-.258-4.993 3.578-9.25 8.568-9.509 4.99-.259 9.246 3.578 9.505 8.571"/><path d="m646.99 102.63c.219 4.216-3.02 7.811-7.235 8.03-4.214.219-7.808-3.02-8.03-7.237-.219-4.216 3.02-7.811 7.235-8.03 4.214-.219 7.807 3.02 8.03 7.237"/></g><g fill="#ce450f"><path d="m567.32 101.39c0 0-26.609-3.184-19.97-25.282 4.973-16.549 60.987-45.733 60.987-45.733 0 0 44.24 29.333 45.497 42.555 1.332 14.03-22.1 20.282-22.1 20.282l-.021-.401c0 0-.108-4.02-1.727-8.07-1.598-3.994-4.398-6.52-4.398-6.52 0 0 1.643 2.567 3.061 7.898 1.061 3.991.473 7.098.473 7.098l-14 1.65-.916-6.34c-.01-.069.044.211.094.49.1.556.184 1.112-.288-1.084-.709-3.301-2.497-6.7-2.497-6.7 0 0 .865 3.715 1.171 7.06.308 3.342.066 6.442.066 6.442l-25.26 3.393-.988-7.401-2.749 8.575-16.431 2.088"/><path d="m641.15 17.14c2.357 12.556-11.836 25.76-31.699 29.493-19.865 3.732-37.88-3.421-40.24-15.978-2.358-12.556 11.835-25.76 31.699-29.492 19.865-3.733 37.879 3.42 40.24 15.977"/></g><g fill="#db5816"><path d="m627.81 34c0 0 7.914-6.773 7.343-14.715-.571-7.942-13.511-12.03-13.511-12.03 0 0 6.834 5.79 8.165 13.03 1.332 7.237-1.997 13.721-1.997 13.721"/><path d="m635.95 57.983c0 0 8.107 10.968 9.436 15.825 1.329 4.856-2.284 9.353-2.284 9.353 0 0 9.734-5.123 7.784-10.1-1.951-4.977-14.936-15.08-14.936-15.08"/></g><path d="m569.11 60.681c0 0-9.07 15.376-10.141 21.877-1.073 6.502 4.24 11.865 4.24 11.865 0 0-12.554-5.175-11.5-12.09 1.465-9.61 17.402-21.65 17.402-21.65" fill="#bf3910"/><path d="m611.78 109.7c0 0 1.14 1.284 3.691 1.285 2.55.002 2.383-3.212 2.383-3.212 0 0 .638 4.533-2.152 5.081-2.791.547-3.922-3.154-3.922-3.154" fill="#ba8c75"/><path d="m620.35 118.93l-6.191 7.469-8.957-6.987 9.753 2.689 5.395-3.171" fill="#bf072b"/><path d="m567.51 155.15l-.564 140.84 72.56-1.215c-.43-52.01-1.01-138.56-1.233-142.81.073-.03 1.776 53.37-31.648 54.953-25.576 1.213-39.11-51.763-39.11-51.763" fill="#fff"/><path d="m567.36 249.05l71.51-3.309c0 0 4.668 4.592 12.157 24.749 7.489 20.16-7.796 51.566-7.796 51.566l-87.66 2.536c0 0-10.356-28.871-5.01-50.1 5.343-21.22 16.803-25.446 16.803-25.446" fill="#000"/><path d="m632.99 86.3c0 0-1.936 17.02 1.647 31.74 3.582 14.72 24.595 39.41 27.374 54.17 2.779 14.762-11.602 24.774-11.602 24.774 0 0 17.359-6.944 15.175-25.764-2.184-18.821-23.709-37.846-27.416-54.976-3.708-17.13.3-33.05.3-33.05l-5.477 3.104" fill="#ce450f"/><g fill="#f7ece0"><path d="m600.89 97.11c-.648 0-1.32.023-2.01.071-6.923.479-11.671 2.552-11.612 3.915.077 1.773 2.568 10.501 11.01 10.501.672 0 1.381-.056 2.13-.174 8.561-1.353 10.623-10.02 10.435-11.328-.169-1.178-4.115-2.985-9.951-2.985"/><path d="m631.61 95.87c-.861 0-1.862.063-3 .185-4.289.456-8.978 2.449-9.02 3.889-.045 1.407 1.95 9.06 8.837 9.06.163 0 .329-.004.497-.013 1.714-.089 3.01-.728 3.992-1.673-.007-.073-.014-.147-.02-.221-.671-1.067-1.087-2.317-1.157-3.667-.07-1.34.21-2.617.759-3.743-.026-1.329-.027-2.598-.013-3.79-.272-.016-.562-.025-.87-.025"/><path d="m632.49 99.68c-.55 1.126-.829 2.403-.759 3.743.07 1.35.485 2.599 1.157 3.667-.233-2.579-.352-5.085-.398-7.41"/></g><path d="m632.48 95.89c-.015 1.191-.013 2.461.013 3.79.046 2.325.165 4.83.398 7.41.006.074.013.148.02.221 2.832-2.735 2.961-8.02 2.598-9.877-.184-.944-1.2-1.432-3.03-1.543" fill="#e9bba8"/><path d="m637.63 94.55c0 0-4.435-1.594-9.461-.98-5.03.615-9.808 3.687-13.568 3.764-3.76.078-6.734-2.828-15.187-2.506-8.452.321-11.269 2.703-14.07 3.083-2.803.381-9.157 1.476-11.192 1.934-.178.04-4.921.091-5.072.15-1.14.445-1.418 2.204-1.418 2.204 0 0 17.758.509 18.332 1.444.771 1.254 3.02 10.669 14.249 9.381 11.226-1.289 11.346-12.591 14.995-12.545 3.173.039 2.912 10.792 12.989 10.03 10.08-.759 8.394-12.792 8.394-12.792l1.112-1.234-.101-1.936m-37.38 16.472c-9.975 1.577-12.819-8.261-12.901-10.14-.058-1.338 4.603-3.374 11.401-3.844 6.798-.471 11.561 1.577 11.745 2.861.184 1.285-1.839 9.794-10.245 11.122m27.99-2.394c-7.156.372-9.21-7.465-9.166-8.879.045-1.415 4.648-3.371 8.86-3.819 4.211-.448 6.491-.092 6.775 1.357.48 2.449.085 11-6.469 11.341" fill="#000"/><path d="m573.64 96.75c0 0 11.672 20.54 11.01 41.516-.658 20.977-7.939 34.466-9.885 48.634-1.945 14.168 11.721 21.908 11.721 21.908 0 0-9.582-8.944-7.03-22.295 2.097-10.952 9.798-24.905 10.332-49.23.448-20.376-9.509-42.24-9.509-42.24l-6.648 1.7" fill="#ce450f"/><g fill="#eb3636"><path d="m565.97 147.52c0 0 4.975 3.318 7.739 9.123 2.763 5.805 2.89 14.47 2.89 14.47.068.099-1.348-5.6-6.182-9.392-4.654-3.65-11.907-.932-11.907-.932l7.461-13.27"/><path d="m823.76 280.11c0 0 45.38-18.394 48.41-.233 2.507 15.05 1.333 19.61 6.235 23.759 4.902 4.15 13.575 4.904 22.248.377 8.674-4.527 18.478-49.793 26.397-61.11 7.919-11.317 29.789-19.993 51.661-25.651 21.871-5.659 43.37-3.02 43.37-3.02 0 0-10.559 7.922-11.313 32.818-.754 24.897 13.952 34.705 15.08 51.3 1.131 16.598-33.561 38.477-36.2 49.04-2.64 10.563 19.609 27.16 18.854 39.986-.754 12.826-24.13 35.459-25.642 42.627-1.509 7.167 9.05 9.43 8.296 12.826-.755 3.395-44.12-4.15-81.83-22.257-37.709-18.11-84.85-52.812-84.85-52.812l-.722-87.65"/></g><g fill="#d62929"><path d="m824.86 357.57c0 0 67.875 16.598 104.08 13.581 36.2-3.02 60.33-22.257 60.33-22.257 0 0 .186 3.184 2.104 7.187 1.919 4 11.871 17.225 13.934 20.862 2.063 3.638 3.194 8.919 3.194 8.919 0 0-10.559 7.167-49.02 6.04-38.463-1.132-132.36-25.651-132.36-25.651l-2.262-8.676"/><path d="m824.7 315.23c0 0 38.25 15.187 63.13 14.06 24.888-1.132 42.989-5.658 42.989-5.658 0 0-17.723 10.939-44.874 12.07-27.15 1.132-61.63-6.887-61.63-6.887l.377-13.581"/><path d="m824.86 337.58c0 0 30.544 12.07 48.645 16.974 18.1 4.905 40.726 8.677 40.726 8.677 0 0-21.12-.755-41.48-4.15-20.363-3.395-50.15-13.957-50.15-13.957l2.263-7.544"/></g><path d="m765.78 297.26l.005-.029c1.01-2.27-18.244 2.517-16.834 19.318 1.256 14.96 23.472 20.346 22.66 20.534l-5.832-39.823" fill="#eb3636"/><path d="m873.94 214.8c0 0 .051-3.676-.685-11.607-.43-4.644-2.66-8.542-2.66-8.542 0 0-2.194 3.202-5.02 2.336-2.829-.866-7.163-1.38-7.146-4.151.01-1.543 2.8-2.312 5.195-.874 1.302.782.17-2.111-.398-3.487-.546-1.319-3.322-1.719-2.639-1.199 2.061 1.564 3.2 3.384-.584 3.706-3.082.263-12.962 1.727-11.83-3.348.398-1.785 5.516-13.179 7.925-15.267 2.408-2.087 17.435 3.276 19.638 5.996 1.321 1.629 3.341 9.945 4.683 18.425 1.817 11.482.852 19.812.852 19.812l-7.326-1.8" fill="#f2d3b3"/><path d="m833.02 309.61c0 0 22.566-23.893 32.05-55.02 9.486-31.12 7.785-40.665 7.785-40.665l9.808.545c0 0-.521 17.14-9.374 44.821-13.777 43.08-48.32 86.02-48.19 86.11l7.917-35.796" fill="#97dcff"/><path d="m762.55 395.74l6.247 111.79 9.131.481.961-58.15 6.637-26.17 30.06-.21 9.43 35.992-2.402 52.862h8.169l5.812-50.907-.045-65.69h-74" fill="#91959b"/><g fill="#000"><path d="m767.36 498.4l-19.222 20.835.481 4.327h25.468l5.767-14.1.481-11.06h-12.975"/><path d="m836.41 497.92l6.501 4.134 33.04 8.281.006 4.636h-40.09l-3.251-3.101-2.167 2.584h-9.753v-16.535h15.712"/></g><path d="m840.03 192.42c0 0 .917 8.81-.365 23.705-1.281 14.895-10.156 29.84-10.156 29.84l-.256-43.2 10.777-10.349" fill="#421"/><path d="m836.6 387.4h-72.48l-.377-54.796-5.293-122.97 78.15-13.207c0 0 6.326 94.04 5.937 124.87-.389 30.828-5.937 66.1-5.937 66.1" fill="#f2d3b3"/><path d="m836.6 387.4h-72.48l-.89-57.06-2.767-68.59.038.002c2 .092 2.841-1.479 2.894-3.484l-1.054-11.853 4.985-1.311c0 0 1.279 8.361 2.713 11.12 1.435 2.761 3.897 6.324 8.279 7.784 4.966 1.657 14.886-1.514 31.456-2.318 17.01-.826 30.741-.079 30.673-.076-.194.029 2.085 29.16 2.23 52.893.146 23.754-6.083 72.889-6.083 72.889" fill="#e2bb98"/><path d="m824.24 312.66l-21.68-5.246 18.781-3.162 12.629-11.01-9.73 19.422" fill="#cea282"/><path d="m760.76 303.93l2.094 81.56-1.272 22.01 41.979 4.807 6.727-5.769 5.286 6.25 21.876-4.327c-.054-.005 5.26-55.812 6.397-69.64 1.138-13.829-1.131-34.647-1.131-34.647l-31.03 25.423-50.923-25.67" fill="#97dcff"/><g fill="#e8f3f9"><path d="m816.52 336.28c0 1.46-1.183 2.643-2.643 2.643-1.459 0-2.642-1.184-2.642-2.643 0-1.46 1.183-2.644 2.642-2.644 1.46 0 2.643 1.184 2.643 2.644"/><path d="m817.37 358.91c0 1.46-1.183 2.643-2.643 2.643-1.459 0-2.642-1.184-2.642-2.643 0-1.46 1.183-2.644 2.642-2.644 1.46 0 2.643 1.184 2.643 2.644"/><path d="m813.03 383.78c0 1.46-1.183 2.643-2.642 2.643-1.46 0-2.643-1.184-2.643-2.643 0-1.46 1.183-2.644 2.643-2.644 1.459 0 2.642 1.184 2.642 2.644"/></g><path d="m761.2 310.34l-35.498 38.905 36.979 34.06 5.125-6.088-27.391-28.362 22.605-22.948-1.821-15.568" fill="#97dcff"/><g fill="#79bff2"><path d="m802.83 317.84l9.07 11.647-13.845-5.25 4.774-6.397"/><path d="m819.29 315.37l-7.111 13.842 10.603-6.788-3.491-7.05"/></g><g fill="#82ccf9"><path d="m766.8 303.12l36.03 14.727-8.775 11.759-33.27-22.981 6.02-3.505"/><path d="m819.29 315.37l23-17.553.424 7-18.416 21.959-5.01-11.405"/></g><path d="m765.3 245.4c0 1.388-4.994.536-4.994.536 0 0 2.603 6.376 1.334 7.477-1.858 1.612-4.284 2.587-6.937 2.587-5.852 0-10.596-4.745-10.596-10.599 0-5.854 4.744-10.6 10.596-10.6 5.852 0 10.596 4.746 10.596 10.6" fill="#f2d3b3"/><g fill="#421"><path d="m755.05 232.19c0 0-6.87-5.784-7.094-20.879-.223-15.09 4.242-19.18 4.242-19.18l.517 4.386c0 0 5.396-14.01 26.18-19.319 17.76-4.542 27.09-9.523 29.27-12.99 4.02-6.394-1.913-6.96-1.913-6.96 0 0 5.089-1.344 7.422 3.747 1.87 4.082.848 8.06.848 8.06 0 0 6.815-.92 8.411-7.565 2.616-10.89-12.02-11.95-12.02-11.95 0 0 32.23-6.364 35.18 27.636 1.957 22.573-23.06 31.28-35.647 33.877-12.586 2.597-34.62 1.964-34.62 1.964l2.891 5.663c0 0-6.626-4.255-9.95-1.043-4.823 4.661-1.113 28.21-1.113 28.21l-5.303 1.18c0 0-.316-4.632-2.436-8.71-2.12-4.079-4.861-6.128-4.861-6.128"/><path d="m768.07 248.18l-5.407 1.591-.234-1.523 5.362-1.408.278 1.34"/></g><path d="m792.58 229.13c-.643 0-1.303.016-1.977.049-9.592.467-16.219 3.2-16.176 5.088.057 2.478 3.319 14.843 15.288 14.843.824 0 1.69-.059 2.599-.183 11.882-1.63 14.979-13.561 14.756-15.376-.207-1.689-5.971-4.42-14.491-4.42" fill="#f8f3ed"/><path d="m838.63 228.56c.246 4.114.504 8.475.762 12.983 2.099-3.847 2.236-8.918 1.877-10.973-.179-1.021-1.062-1.674-2.639-2.01" fill="#fafdff"/><path d="m835.38 228.28c-1.066 0-2.274.06-3.623.176-5.947.51-12.49 3.134-12.594 5.125-.102 1.964 2.489 12.783 12.237 12.783.138 0 .28-.003.422-.007 3.762-.118 6.126-2.182 7.566-4.82-.258-4.508-.516-8.869-.762-12.983-.871-.185-1.954-.274-3.246-.274" fill="#f8f3ed"/><path d="m845.46 226.79c0 0-6.204-2.374-13.304-1.654-7.1.72-13.926 4.911-19.226 4.912-5.301.001-9.407-4.178-21.327-3.97-11.92.209-15.958 3.484-19.919 3.94-3.961.455-12.946 1.815-15.826 2.402-2.881.587-3.214 3.167-3.214 3.167 0 0 1.313-.373 2.482-.078 1.169.295 1.431.701 1.431.701 0 0 14.829.114 15.878 1.904 1.05 1.789 3.953 15.12 19.808 13.628 15.856-1.492 16.349-17.415 21.49-17.245 4.471.148 3.792 15.291 18.01 14.513 14.221-.779 12.196-17.783 12.196-17.783l1.603-1.707-.085-2.731m-53.14 22.13c-14.1 1.934-17.827-12.01-17.887-14.66-.043-1.887 6.584-4.621 16.176-5.088 9.592-.467 16.245 2.555 16.467 4.371.223 1.815-2.874 13.746-14.756 15.376m39.508-2.566c-10.09.318-12.762-10.784-12.659-12.776.103-1.991 6.647-4.615 12.594-5.125 5.947-.51 9.15.059 9.508 2.108.605 3.464-.198 15.502-9.443 15.793" fill="#000"/><g fill="#421"><path d="m782.76 217.37l15.486-1.108-6.565-5.132-8.921 6.24"/><path d="m825.47 209.15l-6.067 5.127 12.921-.386-6.854-4.742"/></g><path d="m815.64 246.22c0 0 7.947 2.262 9.04 4.338 1.09 2.075-3.981 6.587-5.979 7.412-1.999.825-6.449-3.293-6.449-3.293 0 0 3.596 4.83 6.841 4.868 3.245.039 9.06-6.641 7.835-9.191-1.228-2.549-11.285-4.133-11.285-4.133" fill="#c69e87"/><path d="m822.39 267.31c0 0-8.614-1.636-16.707-1.318-7.237.285-16.641 1.594-16.399 3.536.432 3.461 2.243 17.27 11.362 16.04 11.97-1.618 21.15-8.441 21.15-8.441 0 0-2.934-3.35-2.915-4.617.018-1.267-.36-1.968.128-3.727.488-1.759 3.378-1.47 3.378-1.47" fill="#442f26"/><path d="m817.59 267.48l-.534 5.075c0 0-2.185.744-9.538.51-8.906-.282-13.826-2.123-13.854-2.121 0 0 .013-2.116 6.503-3.394 6.821-1.343 17.356-.063 17.424-.071" fill="#fff"/><path d="m846.39 180.16c1.696-26.586-20.639-29.13-20.639-29.13 0-.001 17.442 5.092 13.392 28.573-5.104 29.594-49.2 33.25-49.2 33.25 0 0 9.847-.487 16.357-1.052 13.884-1.207 38.683-9.571 40.09-31.64" fill="#603719"/><path d="m778.97 308.92c0 0-11.605-9.642-20.864-5.519-11.711 5.215-6.278 15.923-6.278 15.923l9.639-8.374c0 0 2.79-3.045 8.624-3.806 5.834-.761 8.878 1.776 8.878 1.776" fill="#eb3636"/><path d="m189.03 273.07c0 0-1.789-15.233-17.847-30.769-16.06-15.537-39.24-8.919-51.617-25.691-12.377-16.772-18.778-32.561-18.778-32.561 0 0-1.376 9.597-10.691 13.997-9.316 4.4-29.31-3.395-29.31-3.395 0 0 19.674 32.09 49.37 48.04 29.697 15.942 48.08 13.648 56.874 16.12 8.798 2.472 21.995 14.263 21.995 14.263" fill="#d62929"/><g fill="#eb3636"><path d="m190.11 267.73c0 0-5.318-21.13-21.767-33.05-16.449-11.918-33.25-3.953-47.12-31.907-9.06-18.273-.648-37.713 1.528-49.897 2.309-12.928-1.454-29.655 3.611-37.25 7.372-11.05 22.2-16.807 22.2-16.807 0 0-70.31-15.265-82.67 28.743-10.676 38.02 24.286 48.815 32.44 61.41 8.154 12.597 2.166 21.638 20.342 34.25 18.18 12.612 26.58 8.558 45.08 19.18 18.503 10.619 25.03 25.04 25.03 25.04l1.318.291"/><path d="m184.13 269.86c0 0 11.752-10.234-.432-15.714-10.281-4.622-37.515-8.405-55.818-13.516-19.679-5.496-35.392-14.725-41.03-20.395-13.864-13.948-26.429-42.01-33.967-44.68-7.538-2.675-16.236-4.516-27.973 17.08-11.738 21.6 4.496 42.28 2.592 52.608-1.904 10.328-17.977 20.981-23.26 34.435-5.283 13.454 5.29 41.18 5.29 41.18l14.799-.427c0 0-6.318 27.2-2.5 45.02 3.818 17.818 11.897 25.902 23.91 26.24 12.01.342 28.755-24.321 45.9-46.46 17.15-22.14 34.895-40.499 49.18-50.22 14.283-9.72 33.557-12.48 33.557-12.48l9.753-12.675"/></g><path d="m5.243 307.16l4.29 13.701c0 0 23.699 2.675 47.894-2.65 24.2-5.325 43.07-18.691 43.07-18.691 0 0-21.266 10.515-48.689 11.831-27.424 1.315-46.564-4.191-46.564-4.191" fill="#d62929"/><path d="m205.56 379.67l6.825 81.19-7.937 60.742-9.896.438 4.363-64.09-12.258-47.944-20.19 6.809-3.959 48.975-4.219 65.11h-9.02l-.975-63.33-4.678-88.81 61.939.916" fill="#91959b"/><path d="m124.68 285.4c0 0-.855 4.341-2.908 12.693-1.188 4.838-1.422 10.6-1.422 10.6 0 0 3.478-2.338 5.972-.34 2.495 1.997 6.639 4.242 5.517 7.02-.626 1.545-3.731 1.203-5.561-1.195-.996-1.305-1.013 2.051-.991 3.658.021 1.542 2.649 3.051 2.17 2.257-1.444-2.392-1.862-4.673 2.064-3.486 3.197.967 13.696 3.439 10.536 8.08-1.111 1.632-10.79 11.02-14.04 12.158-3.249 1.133-16.189-10.244-17.316-13.853-.675-2.162 1.608-11.35 3.849-20.345 3.31-13.296 4.845-20.285 4.845-20.285l7.286 3.043" fill="#ebbd9b"/><path d="m177.75 265.43l-54.05-14.1-7.327 26.08-4.635 1.58-.681 10.876 10.204.518 5.575 2.894 6.196-9.355-3.166-2.733 3.412-10.398 43.34 13.413 1.128-18.772" fill="#fff"/><path d="m154.58 330.31l29.31-115.45 52.665-15.576 39.843 13.744-7.943 19.573c0 0 2.676 1.272 4.279 2.417 1.603 1.145-1.374 9.392-3.664 10.08-2.29.687-4.733.025-4.733.025l-22.287 72.36-87.47 12.827" fill="#efc4a0"/><path d="m283.63 200.8c1-11.01-15.02-28.09-33.471-34.17-27.06-8.913-50.28-8.3-63.42 11.05-11.5 16.929-4.218 43.593-4.218 43.593l7.785.916 6.814-5.164 10.589 6.08 20.05-19.897c0 0 .233 1.962-1.896 5.175-2.129 3.214-6.465 5.179-6.465 5.179 0 0 5.187-.869 8.86-3.96 3.673-3.091 5.04-5.702 5.04-5.702 0 0-.851 4.988-4.271 9.192-5.291 6.506-10.895 7.729-10.895 7.729 0 0 6.546-.715 12.55-4.101 7.764-4.38 11.265-7.791 11.265-7.791 0 0-1.561 3.78-4.334 6.536-3.919 3.895-9.121 6.384-9.121 6.384 0 0 6.253-.76 12.812-4.239 6.56-3.48 13.627-10.187 13.627-10.187 0 0-4.566 6.86-14.581 13.585-4.325 2.904-11.621 7.374-11.621 7.374l14.402-4.411-16.575 10.204 12.503-3.807-9.352 7.281c0 0 4.77-1.085 10.697-4.362 5.926-3.278 13.845-6.604 13.845-6.604 0 0-1.236 2.033-5.725 6.198-6.265 5.811-13 7.939-13 7.939 0 0 6.208.122 15.351-5.285 8.348-4.936 9.289-8.793 9.289-8.793 0 0-.866 3.054-5.584 8.459-4.01 4.601-8.301 7.581-8.301 7.581 0 0 4.719-2.746 13.349-8.997 6.243-4.522 19.06-17.856 21.22-22.733 2.134-4.818 2.533-7.531 2.781-10.251" fill="#82543c"/><path d="m209.13 219.1c0 5.326-4.316 9.644-9.64 9.644-5.324 0-9.641-4.318-9.641-9.644 0-5.326 4.317-9.644 9.641-9.644 5.324 0 9.64 4.317 9.64 9.644" fill="#efc4a0"/><path d="m257.93 252.12l-12.823-.611c0 0-1.245 4.871 1.832 5.344 3.97.611 4.733-2.901 4.733-2.901l6.258-1.832" fill="#442f26"/><g fill="#bf997f"><path d="m258.1 249.87l-.185-.023c-.357-.096-.569-.463-.474-.82l1-3.749c.096-.357.463-.569.82-.474.357.096.569.463.474.82l-1 3.749c-.08.295-.344.492-.635.497"/><path d="m255.99 249.49l-.139-.015c-.361-.077-.593-.432-.516-.793l.803-3.797c.076-.362.433-.594.793-.517.361.077.593.432.516.793l-.803 3.798c-.066.314-.344.531-.654.531"/><path d="m253.93 249l-.1-.007c-.366-.055-.617-.397-.561-.762l.507-3.35c.055-.365.396-.617.762-.562.365.056.616.397.561.762l-.507 3.35c-.05.332-.335.569-.661.569"/><path d="m251.72 248.72l-.087-.005c-.367-.049-.626-.385-.577-.751l.367-2.799c.048-.366.38-.623.75-.576.367.049.625.385.577.751l-.367 2.798c-.044.337-.332.583-.663.583"/><path d="m249.48 248.58l-.086-.005c-.367-.048-.626-.383-.579-.749l.301-2.341c.048-.366.375-.624.75-.578.366.048.625.383.578.749l-.301 2.341c-.044.337-.332.584-.663.584"/><path d="m245.24 249.56h-.027c-.369-.014-.658-.324-.643-.695l.067-1.759c.014-.369.324-.655.694-.643.369.014.657.324.643.695l-.067 1.759c-.014.36-.31.644-.668.644"/><path d="m243.04 250.53h-.016c-.37-.009-.662-.316-.653-.685l.032-1.276c.009-.365.308-.653.67-.653h.017c.369.009.661.316.652.685l-.032 1.276c-.009.364-.308.653-.67.653"/><path d="m247.2 249.22l-.078-.005c-.367-.043-.63-.376-.587-.743l.272-2.344c.043-.367.373-.63.742-.587.367.042.63.375.587.742l-.272 2.345c-.04.341-.329.592-.664.592"/><path d="m260.32 250.52l-.134-.024c-.346-.099-.545-.453-.445-.791l1.048-3.545c.1-.338.463-.532.807-.433.345.1.544.454.445.791l-1.049 3.546c-.087.294-.372.479-.672.456"/><path d="m262.02 251.18l-.076-.024c-.314-.123-.469-.476-.347-.789l.929-2.393c.122-.313.471-.468.788-.347.313.122.469.475.347.788l-.929 2.394c-.112.288-.419.443-.712.371"/></g><path d="m276.01 316.3c0 0 3.13-3.126 9.488-8.916 3.682-3.353 7.088-8.01 7.088-8.01 0 0-4.19.001-5.147-3.048-.958-3.049-3.147-7.225-.67-8.901 1.379-.934 3.767 1.082 3.95 4.094.1 1.638 1.984-1.137 2.861-2.484.842-1.292-.499-4.01-.543-3.083-.135 2.791-1.059 4.918-3.657 1.743-2.116-2.586-9.454-10.492-4.244-12.584 1.832-.735 15.1-3.135 18.43-2.265 3.329.871 7.732 17.533 6.657 21.16-.644 2.172-7.66 8.525-14.533 14.745-10.158 9.191-15.327 14.14-15.327 14.14l-4.353-6.59" fill="#ebbd9b"/><g fill="#fff"><path d="m218.27 307.09l42.11 37.543 18.07-17.06 4.727 1.274 6.626-8.65-8.183-6.12-3.02-5.512-10.356 4.311 1.106 4.03-8.627 6.731-31.06-31.502-11.397 14.955"/><path d="m171.3 261.59l-18.09 62.3-19.921 61.62 29.996 13.515 31.599-.687 9.617-10.461v10.69l7.327-1.603 21.753-56.58 17.17-31.15.916-22.677-13.281 6.185-10.762-7.33-26.1-6.872-30.23-16.951"/></g><path d="m238.6 292.59l-5.617-7.231-10.586 10.521 8.728-4.54 7.476 1.25" fill="#e5e5e5"/><g fill="#fff"><path d="m171.13 257.79l-3.191 2.052c0 0 15.474 14.605 28.29 21.976 14.08 8.098 26.453 13.902 26.453 13.902l10.308-10.358c0 0-19.07-5.795-32.24-11.339-13.178-5.543-29.614-16.233-29.614-16.233"/><path d="m247 288.18l3.295 14.641 7.794-7.37-4.613-9.489-6.476 2.218"/></g><path d="m238.15 292.55l8.935-4.286 2.525 12.266-4.594-6.389-6.866-1.591" fill="#e5e5e5"/><g fill="#ededed"><path d="m241.14 299.38c0 1.771-1.435 3.207-3.206 3.207-1.77 0-3.206-1.436-3.206-3.207 0-1.771 1.435-3.207 3.206-3.207 1.77 0 3.206 1.436 3.206 3.207"/><path d="m231.52 329.16c0 1.771-1.435 3.207-3.206 3.207-1.77 0-3.206-1.436-3.206-3.207 0-1.771 1.435-3.207 3.206-3.207 1.77 0 3.206 1.436 3.206 3.207"/><path d="m220.84 356.73c0 1.771-1.435 3.207-3.206 3.207-1.77 0-3.206-1.436-3.206-3.207 0-1.771 1.435-3.207 3.206-3.207 1.77 0 3.206 1.436 3.206 3.207"/><path d="m212.29 379.33c0 1.771-1.435 3.207-3.206 3.207-1.77 0-3.206-1.436-3.206-3.207 0-1.771 1.435-3.207 3.206-3.207 1.77 0 3.206 1.436 3.206 3.207"/></g><path d="m190.04 507c0 0 6.909-.384 11.633-1.853 4.724-1.469 3.268-1.829 6.54-2.565 3.272-.738 5.839 6.897 14.213 9.783 8.373 2.887 24.02 5.02 29.843 6.464 5.823 1.439 4.393 9.811 4.393 9.811l-69.47.199c0 0-2.203-7.27-1.487-10.911.717-3.64 4.334-10.928 4.334-10.928" fill="#1a53ad"/><path d="m255.95 532.29l-68.38.196c-.804.003-1.457-.647-1.459-1.451l-.01-3.274c-.002-.804.648-1.458 1.451-1.46l68.38-.197c.804-.002 1.457.648 1.459 1.451l.01 3.275c.002.804-.648 1.458-1.451 1.46" fill="#ebebeb"/><path d="m165.57 516.53c-1.36-2.757-9.02 3.112-13.816 1.815-4.797-1.296-5.811-1.458-9.08-2.273-2.772-.691-3.722 11.392-4.568 15.07-1.024 4.453 2.044 9.778 2.044 9.778l26.539-.174c0 0 2.141-6.654 1.372-9.969-.768-3.314-1.129-11.486-2.489-14.243" fill="#1a53ad"/><path d="m138.12 542.93c.007.733.672 1.323 1.485 1.318 0 0 3.756 3.034 13.605 2.663 9.849-.371 13.143-2.845 13.143-2.845.812-.005 1.465-.604 1.459-1.337l-.03-2.988c-.007-.733-.672-1.324-1.485-1.318 0 0-5.757 2.598-13.08 2.839-7.328.239-13.665-2.656-13.665-2.656-.812.005-1.465.605-1.458 1.338l.029 2.988" fill="#eaeaea"/><path d="m161.45 517.68c0 1.012-.82 1.832-1.832 1.832h-12.823c-1.012 0-1.832-.82-1.832-1.832v-6.414c0-1.012.82-1.832 1.832-1.832h12.823c1.012 0 1.832.82 1.832 1.832v6.414" fill="#1a53ad"/><g fill="#cc1414"><path d="m234.58 292.56c1.218-1.196 6.582-.53 7.1 1.305.536 1.895-3.244 8.05-4.944 7.608-1.699-.443-3.375-7.717-2.156-8.912"/><path d="m237.2 301.27c0 0-3.308 2.543-6.141 6.221-2.833 3.68-5.288 15.208-21.399 27.829-11.246 8.811-26.13 12.77-26.13 12.77l-5.46 5.174 6.652 1.4c0 0 14.296-4.204 25.08-11.744 17.305-12.1 25.22-29.709 26.317-32.08 1.103-2.376 1.084-9.567 1.084-9.567"/></g><path d="m210 277.16c0 0-14.197-19.509-32.973-25.808-7.914-2.654-35.594-.329-46.1-3.054-14.425-3.74-20.876-6.299-20.876-6.299l26.676 12.484 73.27 22.677" fill="#eb3636"/></g></svg>