<svg width="1000" height="693" viewBox="0 0 1000 693" xmlns="http://www.w3.org/2000/svg"><g fill="none" fill-rule="evenodd"><ellipse fill="#9b9b9b" cx="500" cy="639" rx="500" ry="54"/><g transform="translate(94)"><g fill="#ccc"><path d="m606.88 535.63h13.942v70.64h-13.942v-70.64"/><path d="m561.97 613.53l94.38-23.22 10.572 9.382-116.37 32.394 11.417-18.552"/><path d="m562.65 595.82l15.271-6.479 83.23 28.05 9.978 20.716-108.48-42.28"/></g><g fill="#000"><path d="m486.76 380.25l-10.171 4.94c-6.266 3.044-9.645 9.972-8.185 16.784l3.142 14.666c1.832 8.547 10.502 13.769 18.914 11.392l13.85-3.914c8.821-2.493 13.418-12.192 9.763-20.598l-6.822-15.691c-3.432-7.894-12.748-11.339-20.491-7.579"/><path d="m518.73 416.47l-20.1 10.84c-7.827 4.221-10.155 14.363-4.953 21.575l40.12 55.628c3.813 5.286 10.648 7.437 16.8 5.286l27.769-9.704c9.734-3.401 13.05-15.496 6.407-23.384l-47.79-56.764c-4.493-5.337-12.11-6.788-18.254-3.477"/><path d="m557.41 506.72l64.28-34.437c2.833-1.517 6.102-2.01 9.259-1.407l59.07 11.359c11.577 2.227 15.392 16.886 6.369 24.474l-50.47 42.44c-3.493 2.938-8.199 3.989-12.61 2.817l-72.886-19.36c-12.282-3.263-14.221-19.881-3.02-25.883"/></g><path d="m459.81 271.46c0 0 18.01 87.4 51.824 147.57 33.398 59.42 68.953 79.05 68.953 79.05l54.899-77.74c0 0-32.06-48.31-46.555-78.18-14.493-29.865-41.14-117.41-41.14-117.41 0 0-21.666-10.833-55.923 4.099-34.26 14.932-32.06 42.601-32.06 42.601" fill="#f2ccaa"/><g fill="#bf997f"><path d="m562.55 274.14l1.68 4.807c.182.521.753.796 1.274.614.522-.183.796-.753.614-1.274l-1.68-4.807c-.183-.522-.753-.797-1.274-.614-.522.182-.797.752-.614 1.274"/><path d="m560.04 275.66l2.01 4.679c.218.508.806.742 1.313.525.508-.218.742-.806.524-1.314l-2.01-4.679c-.218-.508-.806-.742-1.313-.525-.507.218-.742.806-.524 1.314"/><path d="m557.51 277.46l1.989 3.975c.247.494.848.694 1.342.447.494-.247.694-.848.447-1.342l-1.989-3.975c-.247-.494-.848-.694-1.342-.447-.494.247-.694.848-.447 1.342"/><path d="m555.2 279.54l1.722 3.279c.256.489.861.677 1.35.421.489-.257.677-.862.42-1.351l-1.722-3.278c-.256-.489-.861-.678-1.35-.421-.489.257-.677.861-.42 1.35"/><path d="m552.97 281.63l1.447 2.737c.258.489.863.675 1.351.417.489-.258.675-.863.417-1.351l-1.446-2.738c-.258-.488-.864-.675-1.352-.417-.488.259-.675.864-.417 1.352"/><path d="m549.4 286.75l1.258 1.937c.301.463.92.595 1.383.294.463-.301.595-.92.294-1.383l-1.258-1.937c-.301-.464-.92-.595-1.383-.294-.463.301-.595.92-.294 1.383"/><path d="m548.1 290.02l.931 1.393c.306.459.928.583 1.387.276.459-.307.583-.928.276-1.387l-.931-1.393c-.306-.46-.928-.583-1.387-.276-.459.306-.583.927-.276 1.387"/><path d="m550.98 284.07l1.48 2.72c.264.485.871.664 1.356.4.485-.264.665-.871.401-1.356l-1.48-2.72c-.264-.485-.872-.664-1.357-.4-.485.264-.664.871-.4 1.356"/></g><path d="m613.16 457.75l25.473-6.442 21.374 28.11 80.28 13.13 7.34 9.73 3.583 105.38-19.324 3.952-6.537-86.84-7.151.066 2.338-6.732-137.53-8.823 30.16-51.53" fill="#777c82"/><path d="m758.46 447.13c0 0 21.96 9.662 9.663 22.838-12.298 13.175-75.54 54.46-75.54 54.46l-19.324-9.662 52.703-40.41-30.744 7.03-49.19-10.541 2.635-17.567 109.8-6.149" fill="#838991"/><path d="m726.45 600.96c-.001 0 9.386 1.297 16.12.563 6.734-.734 4.872-1.599 9.461-1.731 4.59-.132 6.04 10.796 16.536 16.87 10.496 6.075 30.961 13.05 38.41 16.512 7.449 3.46 3.331 14.332 3.331 14.332l-93.41-17.954c0 0-1.054-10.345.864-15.05 1.918-4.702 8.689-13.544 8.689-13.544" fill="#1a53ad"/><path d="m810.72 650.63c-.208 1.081-1.252 1.788-2.332 1.581l-91.94-17.673c-1.08-.207-1.788-1.251-1.58-2.332l.846-4.401c.207-1.081 1.252-1.788 2.332-1.581l91.94 17.673c1.08.207 1.788 1.252 1.58 2.332l-.846 4.401" fill="#f5f5f5"/><path d="m676.08 508.27c0 0 6.523 6.873 12.242 10.502 5.719 3.63 4.804 1.792 8.472 4.554 3.668 2.761-2.02 12.203 2.387 23.501 4.409 11.298 16.04 29.523 19.702 36.876 3.659 7.353-6.345 13.277-6.345 13.277l-61.768-72.34c-.001 0 5.633-8.74 10.07-11.216 4.434-2.477 15.243-5.158 15.243-5.158" fill="#1a53ad"/><path d="m710.91 599.68c-.837.715-2.094.616-2.809-.221l-60.798-71.2c-.715-.837-.616-2.094.221-2.808l3.408-2.911c.837-.714 2.095-.615 2.809.221l60.799 71.2c.714.837.615 2.094-.222 2.809l-3.408 2.91" fill="#f5f5f5"/><path d="m727.5 454.38l14.273-7.467-10.1 15.15 12.736-7.685-3.074 6.368 10.1-.659-12.38 3.85-12.653 10.204-37.4 10.248-25.472-4.099-1.172-23.424 65.15-2.488" fill="#5e6368"/><g fill="#fff"><path d="m599.11 360.54l61.19 36.745 65.15 10.687-.585 16.1-67.49-11.273-43.33-23.863-14.933-28.4"/><path d="m477.6 346.78c0 0 13.665 46.654 35.428 90.18 29.572 59.14 71.73 98.67 71.73 98.67 0 0 16.397-21.08 24.302-31.04 7.905-9.954 29.718-24.74 29.718-24.74l-8.344-29.865 10.54 11.858 18.885-18.885c-5.677 1.411-39.25-43.34-61.925-87.4-11.624-22.589-17.568-37.19-17.568-37.19l-4.684 7.32-2.05 10.248-12.883-4.392c0 0-19.03 6.149-39.23 9.662-20.2 3.514-43.919 5.563-43.919 5.563"/></g><g fill="#ededed"><path d="m594.42 382.79c0 1.698-1.376 3.074-3.074 3.074-1.698 0-3.074-1.376-3.074-3.074 0-1.698 1.376-3.075 3.074-3.075 1.698 0 3.074 1.377 3.074 3.075"/><path d="m607.16 409.14c0 1.698-1.377 3.074-3.074 3.074-1.698 0-3.075-1.376-3.075-3.074 0-1.698 1.377-3.074 3.075-3.074 1.697 0 3.074 1.376 3.074 3.074"/><path d="m623.85 431.54c0 1.698-1.376 3.074-3.074 3.074-1.698 0-3.075-1.376-3.075-3.074 0-1.698 1.377-3.075 3.075-3.075 1.698 0 3.074 1.377 3.074 3.075"/></g><path d="m779.88 384.43l-20.249 1.464 1.756 7.03 18.493 2.296v-10.787" fill="#f2ccaa"/><path d="m663.71 482.78l-72.68-23.303c-2.65-.849-2.644-4.601.009-5.442l81.35-25.809 78.01 20.458-86.69 34.1" fill="#ccc"/><path d="m682.21 380.82l-21.477 97.53c-.667 3.141 2.341 5.813 5.383 4.781l85.63-33.948c1.382-.469 2.415-1.63 2.719-3.058l19.427-86.81c.609-2.856-1.85-5.429-4.731-4.949l-83.58 23.23c-1.679.28-3.02 1.56-3.37 3.226" fill="#bcbcbc"/><g fill="#f2ccaa"><path d="m772.98 398.9c0 2.979-2.415 5.394-5.394 5.394-2.979 0-5.393-2.415-5.393-5.394 0-2.978 2.414-5.393 5.393-5.393 2.979 0 5.394 2.415 5.394 5.393"/><path d="m768.67 408.61c0 2.979-2.415 5.393-5.394 5.393-2.978 0-5.393-2.414-5.393-5.393 0-2.979 2.415-5.394 5.393-5.394 2.979 0 5.394 2.415 5.394 5.394"/><path d="m764.32 422.78c0 2.587-2.097 4.685-4.684 4.685-2.588 0-4.685-2.098-4.685-4.685 0-2.587 2.097-4.685 4.685-4.685 2.587 0 4.684 2.098 4.684 4.685"/><path d="m785.28 389.82c0 2.979-2.415 5.393-5.393 5.393-2.979 0-5.394-2.414-5.394-5.393 0-2.979 2.415-5.394 5.394-5.394 2.978 0 5.393 2.415 5.393 5.394"/></g><g fill="#e5e5e5"><path d="m571.73 335.36l-10.98-3.806-3.989 18.519 6.149-10.87 8.82-3.843"/><path d="m572.24 336.36l3.641-11.04 8.444 7.184-5.16-.659-6.925 4.51"/></g><path d="m475.84 345.02l-1.976 4.391c0 0 26.571 4.831 45.31 3.807 20.585-1.126 37.77-3.514 37.77-3.514l3.806-18.15c0 0-24.302 7.03-42.16 10.248-17.86 3.221-42.748 3.221-42.748 3.221" fill="#fff"/><path d="m565.87 283.21l-9.117 5.734 1.16-3.293c2.027-3.602 7.957-2.441 7.957-2.441" fill="#442f26"/><path d="m551.69 256.64c0 0 8.791-4.057 10.53-4.289 2.196-.293 4.812 8.69 2.707 10.954-1.524 1.64-7.426 3.099-7.426 3.099l-5.811-9.764" fill="#f2ccaa"/><path d="m560.97 265.53l-7.54 3.807 8.418-1.172-.878-2.635" fill="#c69e87"/><path d="m557.14 254.45l-4.335 1.414 3.807-2.928.528 1.514" fill="#cea895"/><path d="m548.6 228.2c-4.245-14.713-17.933-18.885-51.897-9.223-30.21 8.594-50.43 24.741-49.848 50.51.512 22.547 23.277 38.21 23.277 38.21l26.937-45.675c0 0 1.464 1.61 1.61 5.856.147 4.245-2.488 8.783-2.488 8.783 0 0 4.099-4.099 5.416-9.223 1.318-5.123.879-8.344.879-8.344 0 0 2.427 5.02 2.049 10.98-.585 9.223-4.831 13.907-4.831 13.907 0 0 5.417-4.831 8.637-11.711 4.166-8.9 5.124-14.201 5.124-14.201 0 0 1.018 4.391.293 8.637-1.025 6-4.099 11.566-4.099 11.566 0 0 5.124-4.685 8.784-12 3.66-7.32 5.709-17.86 5.709-17.86 0 0 .293 9.08-4.392 21.52-2.02 5.373-5.709 14.05-5.709 14.05l10.1-13.175-8.344 19.763 8.783-11.419-3.733 12.517c0 0 3.587-4.03 6.808-10.76 3.22-6.734 8.198-14.786 8.198-14.786 0 0 .193 2.614-1.171 9.223-1.903 9.223-6.588 15.445-6.588 15.445 0 0 5.649-3.865 10.394-14.567 4.333-9.771 2.708-13.834 2.708-13.834 0 0 1.177 3.294.403 11.162-.659 6.698-2.599 12.12-2.599 12.12 0 0 2.478-5.485 6.222-16.616 2.709-8.05 7.1-28.328 6.259-31.512-1.484-5.614-2.445-7.785-2.892-9.333" fill="#82543c"/><path d="m461.5 261.43c0 0-3.66-21.52-1.318-28.11 2.342-6.588 20.276-18.226 41.36-21.15 21.08-2.928 31.402 2.269 31.402 2.269 0 0-7.501-1.648-24.16 1.61-13.469 2.635-36.38 12.371-38.43 18.959-2.3 7.393.879 24.741.879 24.741l-9.735 1.683" fill="#000"/><path d="m498.24 285.95c2.47 9.329-3.09 18.894-12.419 21.365l-3.753.994c-9.329 2.47-18.895-3.09-21.365-12.419l-4.721-17.83c-2.471-9.328 3.089-18.894 12.418-21.364l3.754-.994c9.328-2.47 18.894 3.09 21.364 12.418l4.722 17.83" fill="#303030"/><path d="m493.66 286.57c2.445 9.233-3.058 18.699-12.291 21.14l-3.715.984c-9.233 2.445-18.7-3.057-21.15-12.29l-4.673-17.647c-2.444-9.233 3.058-18.7 12.291-21.14l3.715-.983c9.233-2.445 18.7 3.057 21.14 12.29l4.673 17.647" fill="#000"/><path d="m485.5 280.8c2.051 8.967-2.877 17.743-11.01 19.603-8.13 1.859-16.383-3.902-18.434-12.869-2.051-8.966 2.877-17.743 11.01-19.602 8.129-1.859 16.382 3.902 18.433 12.868" fill="#424242"/><g fill="#000"><path d="m482.87 280.61c2.269 8.577-2.195 17.197-9.971 19.254-7.776 2.058-15.919-3.227-18.19-11.803-2.269-8.577 2.195-17.197 9.971-19.255 7.776-2.057 15.919 3.228 18.19 11.804"/><path d="m476.01 282.54c1.258 4.754-1.115 9.505-5.299 10.613-4.185 1.107-8.596-1.85-9.854-6.603-1.258-4.754 1.115-9.506 5.299-10.613 4.184-1.107 8.596 1.849 9.854 6.603"/></g><path d="m476.01 282.54l-.484.128c.218.821.321 1.641.321 2.438 0 1.799-.526 3.487-1.446 4.822-.921 1.336-2.229 2.32-3.818 2.741-.552.146-1.106.216-1.657.216-3.325.006-6.559-2.578-7.586-6.463-.217-.821-.32-1.641-.32-2.439 0-1.799.525-3.486 1.445-4.821.922-1.336 2.229-2.32 3.819-2.741.551-.146 1.106-.216 1.656-.216 3.326-.006 6.559 2.578 7.586 6.463l.484-.128.483-.128c-1.132-4.273-4.702-7.201-8.553-7.207-.635 0-1.276.081-1.912.249-1.836.485-3.346 1.628-4.387 3.14-1.041 1.513-1.621 3.396-1.621 5.389 0 .884.114 1.79.353 2.694 1.132 4.274 4.703 7.201 8.553 7.208.635 0 1.277-.081 1.913-.249 1.835-.485 3.345-1.628 4.386-3.141 1.041-1.513 1.622-3.395 1.622-5.389 0-.883-.115-1.789-.354-2.694l-.483.128" fill="#757575"/><path d="m465.91 290.67l.5.027.546-10.148 4.818 8.333-5.97 1.299.106.489.5.027-.5-.027.107.489 7.308-1.592-7.187-12.43-.762 14.161.641-.139-.107-.489" fill="#515151"/><path d="m575.68 325.7l11.931 11.639 4.831-13.176-12.08-5.783-4.684 7.32" fill="#fff"/><g fill="#cc1414"><path d="m567.19 336.82c.585-2.635 8.272-6.377 10.54-4.392 2.343 2.05 2.635 13.469 0 14.347-2.635.879-11.126-7.32-10.54-9.955"/><path d="m578.17 346.12c0 0-2.196 6.222-2.781 13.542-.586 7.32 6.094 24.718-4.392 55.34-7.32 21.374-23.643 39.454-23.643 39.454l-2.782 11.565 10.03-3.879c0 0 15.333-17.897 23.13-37.19 12.517-30.963 7.832-61.12 7.247-65.22-.586-4.099-6.808-13.615-6.808-13.615"/></g><g fill="#c1c1c1"><path d="m305.63 646.65l-8.257-106.52-1.994.154 8.257 106.52"/><path d="m381.25 540.13l-8.257 106.52 1.994.155 8.257-106.52"/><path d="m382.66 540h-1c-.001.016.001.049-.064.153-.114.193-.515.554-1.197.908-1.19.632-3.169 1.282-5.732 1.856-7.704 1.738-20.685 2.897-35.36 2.895-11.927 0-22.728-.762-30.499-1.983-3.882-.609-7.01-1.339-9.1-2.115-1.041-.385-1.818-.788-2.265-1.135-.225-.171-.362-.325-.426-.426-.065-.104-.063-.137-.064-.153.001-.017-.001-.05.064-.154.114-.193.515-.554 1.197-.908 1.19-.632 3.169-1.282 5.731-1.856 7.705-1.738 20.686-2.897 35.36-2.895 11.927 0 22.728.762 30.499 1.983 3.882.609 7.01 1.339 9.1 2.115 1.041.385 1.818.788 2.265 1.135.225.171.362.325.426.426.065.104.063.137.064.154h2c.001-.454-.153-.886-.384-1.24-.44-.666-1.102-1.14-1.943-1.59-1.473-.775-3.565-1.438-6.226-2.039-7.964-1.791-21.01-2.941-35.798-2.944-12.02.001-22.89.764-30.809 2.01-3.963.624-7.182 1.362-9.484 2.215-1.153.431-2.079.883-2.786 1.424-.353.272-.656.569-.888.926-.231.354-.386.786-.384 1.24-.002.453.153.885.384 1.239.44.666 1.102 1.14 1.943 1.59 1.473.775 3.566 1.438 6.226 2.039 7.964 1.791 21.01 2.942 35.798 2.944 12.01-.001 22.889-.764 30.809-2.01 3.963-.624 7.181-1.362 9.484-2.215 1.153-.431 2.079-.883 2.786-1.423.353-.272.656-.57.888-.927.231-.354.385-.786.384-1.239h-1"/><path d="m374.06 646.64h-1c-.002.502-.161 1.01-.535 1.566-.648.976-1.994 2.041-3.934 3.01-2.906 1.456-7.105 2.713-12.12 3.588-5.02.877-10.859 1.382-17.09 1.382-9.493.002-18.09-1.175-24.23-3.045-3.07-.931-5.525-2.042-7.14-3.206-.808-.58-1.402-1.17-1.775-1.726-.374-.559-.533-1.064-.534-1.566.001-.502.16-1.01.534-1.566.648-.976 1.994-2.041 3.934-3.01 2.907-1.456 7.106-2.713 12.12-3.588 5.02-.878 10.86-1.382 17.09-1.382 9.493-.002 18.09 1.175 24.23 3.045 3.07.931 5.525 2.042 7.14 3.206.808.58 1.402 1.17 1.774 1.726.374.559.533 1.064.535 1.566h1.999c.002-.954-.324-1.87-.875-2.683-.968-1.427-2.583-2.615-4.698-3.678-3.176-1.587-7.522-2.868-12.672-3.77-5.149-.9-11.1-1.412-17.435-1.412-9.661.002-18.406 1.185-24.814 3.131-3.206.977-5.83 2.137-7.725 3.496-.947.682-1.716 1.416-2.267 2.233-.55.813-.877 1.729-.875 2.683-.002.954.325 1.87.875 2.683.969 1.427 2.583 2.615 4.698 3.678 3.176 1.587 7.523 2.868 12.673 3.77 5.149.9 11.1 1.412 17.435 1.412 9.661-.002 18.405-1.185 24.814-3.131 3.206-.977 5.83-2.138 7.725-3.496.947-.682 1.715-1.416 2.266-2.233.551-.813.877-1.729.875-2.683h-.999"/></g><path d="m475.6 357.58l-45.77-3.01c-2.921-.07-5.776.871-8.08 2.665 0 0-92.44 49.04-96.6 54.36-5.393 6.891.561 25.16 1.402 28.24.842 3.084 10.471 9.535 10.471 9.535 0 0 1.682 17.762 2.243 23.371.561 5.609 6.17 8.974 6.731 0 .561-8.975.877-33.19 1.999-40.482 1.122-7.292 10.469-3.969 3.5 3-6.25 6.25-.78 15.406 5.5 8.917 5-5.167 8.25-18.917 5.333-29-1.133-3.919-3.057-8.491-3.057-8.491l70.34-37.26 50.47 4.431-4.487-16.266" fill="#f2ccaa"/><path d="m484.76 353.76l-53.4-.196c-3.933-.153-7.817.908-11.127 3.037l-34.83 17.333-6.235-2.339-10.1 10.845 10.283 9.348 3.365 7.853 14.584-4.488-.973-5.603 34.03-15.654 59.63 7.422-5.235-27.558" fill="#fff"/><g fill="#ce450f"><path d="m119.03 52.982c0 0 14.954-4.568 24.978-2.467 10.02 2.1 15.03 5.73 22.25 6.02 13.646.546 6.656-9.06 6.656-9.06 0 0 4.223 9.174-7.708 5.996-7.315-1.949-10.324-5.43-22.09-7.857-11.763-2.426-25.584 4.406-25.584 4.406l1.494 2.968"/><path d="m115.47 47.962c0 0-17.15-2.343-29.962-.652-12.816 1.69-14.98 11.666-14.98 11.666 0 0 4.837-8.609 14.69-9.01 9.854-.401 28.27.804 28.27.804l1.986-2.807"/></g><g fill="#f2ccaa"><path d="m151.2 171.22c-.001 0 20.06 54.57 20.437 127.53.382 72.962-10.419 166.33-10.419 166.33l-18.737 1.762-4.727-6 7.685-1.038 3.918-7.342.043-5.916-6.694 7.696 7.697-20.975 4.743-21.409c0 0 4.22-51.826 5.356-111.87.888-46.938-14.09-100.99-14.09-100.99l4.785-27.781"/><path d="m80.18 95.75l-13.494 232.1 78.27 2.699 13.494-235.25-12.145-11.995-66.12 12.444"/><path d="m72.81 338.97c0 0-9 54.901-10.683 131.77-1.681 76.864 16.448 135.68 21.12 149.93 4.667 14.249 37.665 32.37 39.38 29.913 1.72-2.456-24.379-29.804-25.814-36.958-1.434-7.154-19.06-68.984-18.403-140.41.659-71.43 21.551-129.72 21.551-129.72l-27.15-4.511"/><path d="m119.83 350.67c0 0 3.052 73.11 1.865 127.16-1.188 54.05-10.925 121.58-9.923 133.55 1 11.968 34.866 28.864 38.577 26.615 2.243-1.36-22.293-24.16-23.15-31.933-.861-7.773 6.194-72.31 10.08-128.76 3.924-56.944 6.092-128.11 5.309-128l-22.758 1.363"/></g><g fill="#000"><path d="m82.66 619.33c0 0-2.699 8.547 4.723 15.07 7.422 6.522 32.16 18.892 35.76 18.443 3.598-.45-13.832-21.14-13.832-21.14 0 0 3.036 3.374.337 5.398-2.951 2.213-12.594-2.249-18.442-6.972-5.847-4.723-8.546-10.796-8.546-10.796"/><path d="m111.78 607.41c0 0-6.522 7.31 3.486 14.957 7.851 5.998 33.399 19 36.997 18.554 3.599-.449-14.506-19.12-14.506-19.12 0 .001 2.024 2.587.224 3.486-3.299 1.65-11.807-2.361-17.655-7.084-5.847-4.723-8.546-10.796-8.546-10.796"/></g><g fill="#f2ccaa"><path d="m85.73 121.01c0 5.59-4.531 10.121-10.12 10.121-5.59 0-10.121-4.531-10.121-10.121 0-5.59 4.531-10.121 10.121-10.121 5.589 0 10.12 4.531 10.12 10.121"/><path d="m167.3 116.59c0 4.72-3.826 8.546-8.546 8.546-4.72 0-8.547-3.826-8.547-8.546 0-4.72 3.827-8.547 8.547-8.547 4.72 0 8.546 3.827 8.546 8.547"/></g><g fill="#ce450f"><path d="m78.38 110.59c0 0-29.537-5.097-20.841-29.387 6.513-18.19 70.771-47.53 70.771-47.53 0 0 47.719 35.32 48.35 50.15.675 15.744-25.864 21.367-25.864 21.367v-.45c0 0 .113-4.498-1.462-9.109-1.554-4.552-4.535-7.534-4.535-7.534 0 0 1.686 2.961 2.961 8.996.954 4.517.117 7.953.117 7.953l-15.734 1.031-.656-7.132c-.008-.077.037.237.077.552.079.627.141 1.255-.259-1.226-.601-3.727-2.399-7.625-2.399-7.625-.001 0 .749 4.198.899 7.946.15 3.749-.3 7.197-.3 7.197l-28.413 2.324-.675-8.321-3.567 9.415-18.474 1.38"/><path d="m165.73 20.788c1.906 14.157-14.712 28.08-37.12 31.1-22.405 3.02-42.11-6.02-44.02-20.17-1.906-14.157 14.712-28.08 37.12-31.09 22.405-3.02 42.11 6.01 44.02 20.17"/></g><g fill="#db5816"><path d="m149.85 38.844c0 0 9.233-7.104 9.06-16.01-.178-8.9-14.394-14.22-14.394-14.22 0 0 7.297 6.861 8.364 15.02 1.068 8.159-3.03 15.205-3.03 15.205"/><path d="m157.55 66.09c0 0 8.421 12.717 9.624 18.216 1.203 5.499-3.093 10.311-3.093 10.311 0 0 11.17-5.155 9.279-10.826-1.89-5.671-15.81-17.701-15.81-17.701"/></g><path d="m82.73 65.23c0 0-11.02 16.643-12.595 23.84-1.574 7.197 4.048 13.495 4.048 13.495 0 0-13.722-6.507-12.145-14.169 2.192-10.646 20.692-23.17 20.692-23.17" fill="#bf3910"/><path d="m127.56 122.43c0 0 1.199 1.5 4.048 1.65 2.849.15 2.849-3.449 2.849-3.449 0 0 .45 5.098-2.699 5.548-3.149.45-4.198-3.749-4.198-3.749" fill="#ba8c75"/><path d="m124.11 137.88l6.598-5.698 2.698 5.998-4.198-1.5-5.098 1.2" fill="#bf072b"/><path d="m75.04 169.95l-8.349 157.9 81.12 2.849 6.898-159.53c-.001 0-1.19 59.721-38.534 59.53-28.638-.15-41.13-60.737-41.13-60.737" fill="#fff"/><path d="m69.39 284.67l80.07.449c0 0 4.948 5.398 12.145 28.338 7.197 22.941-11.696 57.13-11.696 57.13l-98.06-2.25c0 0-9.896-32.836-2.699-56.23 7.197-23.39 20.241-27.438 20.241-27.438" fill="#000"/><g fill="#606060"><path d="m94.46 469.69l-87.65-27.03 17.249-239.58 89.91-4.374-19.501 270.99"/><path d="m90.26 474.19l-87.65-27.03 17.248-239.58 89.91-4.375-19.501 270.99"/></g><g fill="#ffe36e"><path d="m56.944 361.88h19.19v28.788h-19.19v-28.788"/><path d="m85.39 261.92l-18.572-4.84 6.656-25.536 18.571 4.841-6.655 25.535"/><path d="m17.05 328.16l-16.662-9.524 14.287-24.993 16.662 9.525-14.287 24.992"/></g><g fill="#b6e032"><path d="m16.909 417.38l-17.362-8.178 12.267-26.04 17.362 8.178-12.267 26.04"/><path d="m60.54 292.31h21.591v28.788h-21.591v-28.788"/><path d="m96.23 303.74l-19.538 9.189-12.251-26.05 19.538-9.189 12.251 26.05"/><path d="m44.795 418.8l-21.353-3.2 4.267-28.47 21.353 3.2-4.267 28.47"/></g><path d="m74.64 172.06c0 0-28.488 50.678-40.483 122.65-11.995 71.97-10.87 166.73-10.87 166.73l18.217 4.723 5.623-5.173-7.422-2.249-2.699-7.872.899-5.848 11.695 8.097-10.57-21.366-1.275-21.891c0 0-1.242-52.696 7.198-112.15 6.597-46.48 29.987-97.46 29.987-97.46l-.3-28.19" fill="#f2ccaa"/><g fill="#ce450f"><path d="m152.6 97.55c0 0-3.148 18.892 0 35.535 3.149 16.643 25.19 45.43 27.439 62.07 2.249 16.643-14.394 26.989-14.394 26.989 0 0 19.792-6.747 18.442-27.889-1.349-21.14-24.29-43.632-27.438-62.973-3.149-19.342 2.249-36.885 2.249-36.885l-6.298 3.149"/><path d="m87.38 104.74c0 0 4.498 33.29-6.298 51.28-10.795 17.993-26.539 25.64-31.487 39.584-4.947 13.944 8.997 22.94 8.997 22.94 0 0-10.796-11.245-3.149-24.739 7.647-13.495 17.992-13.945 30.587-35.09 12.595-21.14 8.097-54.877 8.097-54.877l-6.747.9"/></g><path d="m156.29 106.97c0 0-4.862-2.037-10.511-1.642-5.65.394-11.169 3.547-15.373 3.416-4.204-.132-7.358-3.548-16.818-3.679-9.46-.132-12.744 2.365-15.898 2.627-3.153.263-10.314 1.117-12.613 1.511-2.3.395-2.628 2.431-2.628 2.431 0 0 14.847 1.051 15.635 2.496.789 1.446 2.76 12.09 15.373 11.3 12.613-.788 13.402-13.402 17.475-13.14 3.542.229 2.627 12.219 13.927 11.957 11.299-.263 10.117-13.796 10.117-13.796l1.314-1.314v-2.168m-42.702 16.226c-11.234 1.183-13.84-9.967-13.822-12.07.012-1.498 5.336-3.5 12.957-3.632 7.621-.131 12.821 2.431 12.953 3.876.132 1.446-2.622 10.829-12.09 11.825m31.402-1.051c-8.01.001-9.854-8.869-9.722-10.445.131-1.577 5.386-3.494 10.116-3.751 4.73-.257 7.256.274 7.49 1.908.394 2.763-.543 12.288-7.884 12.288" fill="#000"/><path d="m113.39 107.51c-.189 0-.381.002-.573.005-5.725.099-10.175 1.236-12.11 2.438-.61.397-.94.8-.943 1.171-.017 1.997 2.333 12.157 12.197 12.157.521 0 1.062-.028 1.625-.088 9.466-.996 12.22-10.379 12.09-11.825-.098-1.079-3.02-2.782-7.678-3.52-1.395-.212-2.939-.338-4.604-.338" fill="#f7e9dd"/><path d="m117.99 107.85c4.653.738 7.58 2.441 7.678 3.52.132 1.446-2.622 10.829-12.09 11.825-.563.06-1.104.088-1.625.088-9.864 0-12.214-10.16-12.197-12.157.003-.371.333-.774.943-1.171-.684.424-1.055.856-1.058 1.254-.018 2.029 2.372 12.356 12.398 12.356.529 0 1.079-.029 1.651-.089 9.622-1.013 12.42-10.55 12.287-12.02-.101-1.112-3.153-2.874-7.989-3.607" fill="#959899"/><g fill="#f7e9dd"><path d="m147.5 107.91c-.647 0-1.351.021-2.11.062-3.03.165-6.271.999-8.287 1.995-1.094.558-1.793 1.164-1.839 1.726-.132 1.576 1.707 10.446 9.722 10.445 2.618 0 4.421-1.211 5.64-2.896-.273-.837-.422-1.731-.422-2.659 0-1.5.387-2.91 1.066-4.136.046-1.421.113-2.781.194-4.06-.03-.012-.061-.023-.092-.034-.915-.303-2.207-.443-3.872-.443"/><path d="m151.27 112.45c-.679 1.226-1.066 2.636-1.066 4.136 0 .928.149 1.822.422 2.659.216-.297.413-.609.592-.931-.032-2.032-.008-4 .052-5.864"/></g><path d="m151.46 108.39c-.081 1.279-.148 2.639-.194 4.06-.06 1.864-.084 3.832-.052 5.864 1.661-2.975 1.88-6.857 1.652-8.461-.095-.662-.565-1.143-1.406-1.463" fill="#e7b39f"/><path d="m151.37 108.36c.031.011.062.022.092.034.841.32 1.311.801 1.406 1.463.228 1.604.009 5.486-1.652 8.461-.179.322-.376.634-.592.931-1.219 1.685-3.02 2.896-5.64 2.896-8.01.001-9.854-8.869-9.722-10.445.046-.562.745-1.168 1.839-1.726-1.185.585-1.947 1.225-1.997 1.818-.133 1.602 1.737 10.617 9.883 10.617 7.461-.001 8.413-9.682 8.01-12.49-.103-.724-.649-1.235-1.63-1.559" fill="#959899"/><path d="m327.91 652.38l-17.362-8.178 12.267-26.04 17.362 8.178-12.267 26.04" fill="#ffe36e"/><g fill="#b6e032"><path d="m357.23 644.74l-19.538 9.189-12.251-26.05 19.538-9.189 12.251 26.05"/><path d="m365.37 614.8c0 0 1.744-7.408 2.512-14.759.767-7.351-3.069-18.18-3.069-18.18l11.129 3.509c0 0 1.557 5.514.997 14.738-.56 9.224-6.074 17.359-6.074 17.359l-5.495-2.669"/></g><path d="m333.27 590.47l-42.935-9.147 4.945-23.21 42.935 9.147-4.945 23.21" fill="#ffe36e"/><text transform="matrix(.97815.20791-.20791.97815 302.2 562.08)" font-size="18" font-family="Arial" fill="#000" font-weight="bold"><tspan x=".074" y="15.879">501</tspan></text><g fill="#fff"><path d="m337.49 604.98l20.11-1.141 9.965 6.608.908 13.337.699 12.881-13.307-5.703-5.539 7.547-17.378-13.781 4.54-19.748"/><path d="m360.93 598.4l-4.141 19.715-8.977 7.897-13.11-2.6-12.619-2.682 8.975-11.361-5.842-7.315 17.835-13.185 17.881 9.531"/></g><path d="m315.12 551.7l3.998.128-.482 15.13-3.998-.127.482-15.13" fill="#f2ccaa"/></g></g></svg>