<svg width="1230" height="590" viewBox="0 0 1230 590" xmlns="http://www.w3.org/2000/svg"><g fill="#fff" fill-rule="evenodd"><path d="m826.76 420.63c-7.598 0-13.758-6.16-13.758-13.758 0-7.598 6.16-13.758 13.758-13.758.86 0 1.701.079 2.517.23 2.102-4.906 6.976-8.343 12.651-8.343 7.077 0 12.907 5.344 13.672 12.217 1.438-.598 3.02-.929 4.671-.929 6.721 0 12.17 5.449 12.17 12.17 0 6.603-5.259 11.979-11.818 12.165v.005h-33.865" opacity=".68"/><path d="m1188.32 590c-6.803 0-12.317-5.532-12.317-12.356 0-6.824 5.515-12.356 12.317-12.356.77 0 1.523.071 2.254.206 1.882-4.407 6.245-7.494 11.327-7.494 6.336 0 11.555 4.8 12.241 10.973 1.288-.537 2.7-.834 4.182-.834 6.02 0 10.896 4.894 10.896 10.931 0 5.931-4.708 10.759-10.58 10.926v.005h-30.32" fill-opacity=".4"/><path d="m287.1 545c-13.862 0-25.1-11.237-25.1-25.1 0-13.862 11.237-25.1 25.1-25.1 1.569 0 3.104.144 4.593.419 3.836-8.951 12.726-15.221 23.08-15.221 12.912 0 23.546 9.75 24.943 22.288 2.624-1.092 5.503-1.694 8.522-1.694 12.262 0 22.2 9.941 22.2 22.2 0 12.05-9.595 21.853-21.559 22.19v.009h-61.782" fill-opacity=".7"/><path d="m60.828 21.387c-14.14-8.589-32.18 1.517-33.31 19.273-15.506 2.04-27.518 16.226-27.518 33.434 0 18.609 14.04 33.696 31.367 33.696h98.31c17.324 0 31.368-15.09 31.368-33.696 0-15.04-9.18-27.782-21.849-32.11-3.217-43.522-56.56-57.862-78.37-20.596" fill-opacity=".8"/><path d="m1051.62 173.87c-8.521-5.169-19.388.913-20.07 11.599-9.342 1.228-16.579 9.766-16.579 20.12 0 11.2 8.461 20.28 18.898 20.28h59.23c10.438 0 18.899-9.08 18.899-20.28 0-9.05-5.531-16.721-13.164-19.326-1.938-26.19-34.08-34.824-47.22-12.396" transform="matrix(-1 0 0 1 2126.97 0)"/></g></svg>