<svg xmlns="http://www.w3.org/2000/svg" xmlns:xlink="http://www.w3.org/1999/xlink" viewBox="0 0 1600 910.1" enable-background="new 0 0 1600 910.1"><defs><path id="1" opacity=".03" d="m0 0h1600v910.1h-1600z"/><clipPath id="0"><use xlink:href="#1"/></clipPath></defs><g opacity=".03"><g clip-path="url(#0)" fill="none" stroke="#000" stroke-miterlimit="10"><circle cx="800" cy="455" r="13"/><circle cx="800" cy="455" r="20.1"/><circle cx="800" cy="455" r="27.1"/><circle cx="800" cy="455" r="34.2"/><circle cx="800" cy="455" r="41.3"/><circle cx="800" cy="455" r="48.3"/><circle cx="800" cy="455" r="55.4"/><circle cx="800" cy="455" r="62.4"/><circle cx="800" cy="455" r="69.5"/><circle cx="800" cy="455" r="76.6"/><circle cx="800" cy="455" r="83.6"/><circle cx="800" cy="455" r="90.7"/><circle cx="800" cy="455" r="97.8"/><circle cx="800" cy="455" r="104.8"/><circle cx="800" cy="455" r="111.9"/><circle cx="800" cy="455" r="118.9"/><circle cx="800" cy="455" r="126"/><circle cx="800" cy="455" r="133.1"/><circle cx="800" cy="455" r="140.1"/><circle cx="800" cy="455" r="147.2"/><circle cx="800" cy="455" r="154.3"/><circle cx="800" cy="455" r="161.3"/><circle cx="800" cy="455" r="168.4"/><circle cx="800" cy="455" r="175.5"/><circle cx="800" cy="455" r="182.5"/><circle cx="800" cy="455" r="189.6"/><circle cx="800" cy="455" r="196.6"/><circle cx="800" cy="455" r="203.7"/><circle cx="800" cy="455" r="210.8"/><circle cx="800" cy="455" r="217.8"/><circle cx="800" cy="455" r="224.9"/><circle cx="800" cy="455" r="232"/><circle cx="800" cy="455" r="239"/><circle cx="800" cy="455" r="246.1"/><circle cx="800" cy="455" r="253.2"/><circle cx="800" cy="455" r="260.2"/><circle cx="800" cy="455" r="267.3"/><circle cx="800" cy="455" r="274.3"/><circle cx="800" cy="455" r="281.4"/><circle cx="800" cy="455" r="288.5"/><circle cx="800" cy="455" r="295.5"/><circle cx="800" cy="455" r="302.6"/><circle cx="800" cy="455" r="309.7"/><circle cx="800" cy="455" r="316.7"/><circle cx="800" cy="455" r="323.8"/><circle cx="800" cy="455" r="330.9"/><circle cx="800" cy="455" r="337.9"/><circle cx="800" cy="455" r="345"/><circle cx="800" cy="455" r="352"/><circle cx="800" cy="455" r="359.1"/><circle cx="800" cy="455" r="366.2"/><circle cx="800" cy="455" r="373.2"/><circle cx="800" cy="455" r="380.3"/><circle cx="800" cy="455" r="387.4"/><circle cx="800" cy="455" r="394.4"/><circle cx="800" cy="455" r="401.5"/><circle cx="800" cy="455" r="408.5"/><circle cx="800" cy="455" r="415.6"/><circle cx="800" cy="455" r="422.7"/><circle cx="800" cy="455" r="429.7"/><circle cx="800" cy="455" r="436.8"/><circle cx="800" cy="455" r="443.9"/><circle cx="800" cy="455" r="450.9"/><circle cx="800" cy="455" r="458"/><circle cx="800" cy="455" r="465.1"/><circle cx="800" cy="455" r="472.1"/><circle cx="800" cy="455" r="479.2"/><circle cx="800" cy="455" r="486.2"/><circle cx="800" cy="455" r="493.3"/><circle cx="800" cy="455" r="500.4"/><circle cx="800" cy="455" r="507.4"/><circle cx="800" cy="455" r="514.5"/><circle cx="800" cy="455" r="521.6"/><circle cx="800" cy="455" r="528.6"/><circle cx="800" cy="455" r="535.7"/><circle cx="800" cy="455" r="542.8"/><circle cx="800" cy="455" r="549.8"/><circle cx="800" cy="455" r="556.9"/><circle cx="800" cy="455" r="563.9"/><circle cx="800" cy="455" r="571"/><circle cx="800" cy="455" r="578.1"/><circle cx="800" cy="455" r="585.1"/><circle cx="800" cy="455" r="592.2"/><circle cx="800" cy="455" r="599.3"/><circle cx="800" cy="455" r="606.3"/><circle cx="800" cy="455" r="613.4"/><circle cx="800" cy="455" r="620.4"/><circle cx="800" cy="455" r="627.5"/><circle cx="800" cy="455" r="634.6"/><circle cx="800" cy="455" r="641.6"/><circle cx="800" cy="455" r="648.7"/><circle cx="800" cy="455" r="655.8"/><circle cx="800" cy="455" r="662.8"/><circle cx="800" cy="455" r="669.9"/><circle cx="800" cy="455" r="677"/><circle cx="800" cy="455" r="684"/><circle cx="800" cy="455" r="691.1"/><circle cx="800" cy="455" r="698.1"/><circle cx="800" cy="455" r="705.2"/><circle cx="800" cy="455" r="712.3"/><circle cx="800" cy="455" r="719.3"/></g></g></svg>