<svg xmlns="http://www.w3.org/2000/svg" viewBox="0 0 357.3 356.3" enable-background="new 0 0 357.3 356.3"><g fill-rule="evenodd"><path fill="#1c1c1c" d="m91.8 61.9c0-4.9 1.8-7.3 3.6-9.9 1-1.4 2-2.8 2.8-4.7v-.1c.5-1.2.7-2.1.7-3.2 0-3-2-4.4-5.6-4.4h-50.7c-1.7 0-2.9.7-2.9 2.4v50.7c0 1.9-.6 3.2-1.6 3.9-1.1.8-3 .7-5.1-.2h-.1c-1.7-.7-3.1-1.7-4.4-2.7-2.6-1.9-5.4-3.8-10.6-3.8-5.5 0-10.2 2-13.4 5.7-2.9 3.6-4.5 8.1-4.5 12.8 0 4.8 1.6 9.2 4.5 12.5 3.3 3.7 7.9 5.7 13.5 5.7 5 0 7.8-1.9 10.4-3.8 1.4-1 2.9-2 4.8-2.8 2.1-.8 3.9-.9 5-.1 1 .7 1.6 2 1.6 3.9v50.8c0 1.7 1.2 3.4 2.9 3.4h50.7c1.8 0 3.2-.6 4.2-1.5 1.6-1.4 1.8-4 .7-7v-.2c-.8-1.9-1.8-3.3-2.8-4.7-1.9-2.6-3.6-5.1-3.6-9.9 0-8.1 5.4-16.7 17.2-16.7 8.2 0 17 5.2 17 16.7 0 4.7-1.7 7.1-3.6 9.7-1 1.5-2.1 3-2.9 5-.5 1.2-.7 2.6-.7 3.6 0 3 2 4.9 5.6 4.9h50.8c1.7 0 3-1.8 3-3.4v-50.9c0-1.9.6-3.1 1.5-3.8 1.1-.8 2.9-.7 5 .1 1.9.8 3.4 1.8 4.8 2.8 2.6 1.9 5.4 3.8 10.4 3.8 5.5 0 10.2-2 13.4-5.7 2.9-3.3 4.5-7.7 4.5-12.5 0-9.1-6.2-18.3-17.9-18.3-5.2 0-8 1.9-10.6 3.8-1.3.9-2.7 1.9-4.4 2.7h-.1c-2.1.9-4 .9-5.1.2-1-.7-1.5-1.9-1.5-3.8v-50.8c0-1.7-1.3-2.4-3-2.4h-50.8c-3.6 0-5.6 1.4-5.6 4.4 0 1 .2 2 .7 3.2.8 2 1.9 3.5 2.9 5 1.8 2.6 3.6 5 3.6 9.7 0 11.5-8.8 16.7-17 16.7-11.9 0-17.3-8.7-17.3-16.8"/><path fill="#b3b3b3" d="m294.5 91.8c4.9 0 7.3 1.8 9.9 3.6 1.4 1 2.8 2 4.7 2.8h.1c1.2.5 2.1.7 3.2.7 3 0 4.4-2 4.4-5.6v-50.7c0-1.7-.7-2.9-2.4-2.9h-50.7c-1.9 0-3.2-.6-3.9-1.6-.8-1.1-.7-3 .2-5.1v-.1c.7-1.7 1.7-3.1 2.7-4.4 1.9-2.6 3.8-5.4 3.8-10.6 0-5.5-2-10.2-5.7-13.4-3.6-2.9-8.1-4.5-12.8-4.5-4.8 0-9.2 1.6-12.5 4.5-3.7 3.3-5.7 7.9-5.7 13.5 0 5 1.9 7.8 3.8 10.4 1 1.4 2 2.9 2.8 4.8.8 2.1.9 3.9.1 5-.7 1-2 1.6-3.9 1.6h-50.8c-1.7 0-3.4 1.2-3.4 2.9v50.7c0 1.8.6 3.2 1.5 4.2 1.4 1.6 4 1.8 7 .7h.2c1.9-.8 3.3-1.8 4.7-2.8 2.6-1.9 5.1-3.6 9.9-3.6 8.1 0 16.7 5.4 16.7 17.2 0 8.2-5.2 17-16.7 17-4.7 0-7.1-1.7-9.7-3.6-1.5-1-3-2.1-5-2.9-1.2-.5-2.6-.7-3.6-.7-3 0-4.9 2-4.9 5.6v50.8c0 1.7 1.8 3 3.4 3h50.9c1.9 0 3.1.6 3.8 1.5.8 1.1.7 2.9-.1 5-.8 1.9-1.8 3.4-2.8 4.8-1.9 2.6-3.8 5.4-3.8 10.4 0 5.5 2 10.2 5.7 13.4 3.3 2.9 7.7 4.5 12.5 4.5 9.1 0 18.3-6.2 18.3-17.9 0-5.2-1.9-8-3.8-10.6-.9-1.3-1.9-2.7-2.7-4.4v-.1c-.9-2.1-.9-4-.2-5.1.7-1 1.9-1.5 3.8-1.5h50.8c1.7 0 2.4-1.3 2.4-3v-50.8c0-3.6-1.4-5.6-4.4-5.6-1 0-2 .2-3.2.7-2 .8-3.5 1.9-5 2.9-2.6 1.8-5 3.6-9.7 3.6-11.5 0-16.7-8.8-16.7-17 0-11.9 8.7-17.3 16.8-17.3"/><path fill="#fc5d4b" d="m265.4 294.3c0 4.9-1.8 7.3-3.6 9.9-1 1.4-2 2.8-2.8 4.7v.1c-.5 1.2-.7 2.1-.7 3.2 0 3 2 4.4 5.6 4.4h50.7c1.7 0 2.9-.7 2.9-2.4v-50.7c0-1.9.6-3.2 1.6-3.9 1.1-.8 3-.7 5.1.2h.1c1.7.7 3.1 1.7 4.4 2.7 2.6 1.9 5.4 3.8 10.6 3.8 5.5 0 10.2-2 13.4-5.7 2.9-3.3 4.5-7.8 4.5-12.6 0-4.8-1.6-9.2-4.5-12.5-3.3-3.7-7.9-5.7-13.5-5.7-5 0-7.8 1.9-10.4 3.8-1.4 1-2.9 2-4.8 2.8-2.1.8-3.9.9-5 .1-1-.7-1.6-2-1.6-3.9v-50.8c0-1.7-1.2-3.4-2.9-3.4h-50.7c-1.8 0-3.2.6-4.2 1.5-1.6 1.4-1.8 4-.7 7v.2c.8 1.9 1.8 3.3 2.8 4.7 1.9 2.6 3.6 5.1 3.6 9.9 0 8.1-5.4 16.7-17.2 16.7-8.2 0-17-5.2-17-16.7 0-4.7 1.7-7.1 3.6-9.7 1-1.5 2.1-3 2.9-5 .5-1.2.7-2.6.7-3.6 0-3-2-4.9-5.6-4.9h-50.7c-1.7 0-3 1.8-3 3.4v50.9c0 1.9-.6 3.1-1.5 3.8-1.1.8-2.9.7-5-.1-1.9-.8-3.4-1.8-4.8-2.8-2.6-1.9-5.4-3.8-10.4-3.8-5.5 0-10.2 2-13.4 5.7-2.9 3.3-4.5 7.7-4.5 12.5 0 9.1 6.2 18.3 17.9 18.3 5.2 0 8-1.9 10.6-3.8 1.3-.9 2.7-1.9 4.4-2.7h.1c2.1-.9 4-.9 5.1-.2 1 .7 1.5 1.9 1.5 3.8v50.8c0 1.7 1.3 2.4 3 2.4h50.8c3.6 0 5.6-1.4 5.6-4.4 0-1-.2-2-.7-3.2-.8-2-1.9-3.5-2.9-5-1.8-2.6-3.6-5-3.6-9.7 0-11.5 8.8-16.7 17-16.7 11.9-.1 17.2 8.6 17.2 16.6"/><path fill="#666" d="m62.8 264.4c-4.9 0-7.3-1.8-9.9-3.6-1.4-1-2.8-2-4.7-2.8h-.1c-1.2-.5-2.1-.7-3.2-.7-3 0-4.4 2-4.4 5.6v50.7c0 1.7.7 2.9 2.4 2.9h50.7c1.9 0 3.2.6 3.9 1.6.8 1.1.7 3-.2 5.1v.1c-.7 1.7-1.7 3.1-2.7 4.4-1.9 2.6-3.8 5.4-3.8 10.6 0 5.5 2 10.2 5.7 13.4 3.3 2.9 7.8 4.5 12.6 4.5 4.8 0 9.2-1.6 12.5-4.5 3.7-3.3 5.7-7.9 5.7-13.5 0-5-1.9-7.8-3.8-10.4-1-1.4-2-2.9-2.8-4.8-.8-2.1-.9-3.9-.1-5 .7-1 2-1.6 3.9-1.6h50.8c1.7 0 3.4-1.2 3.4-2.9v-50.7c0-1.8-.6-3.2-1.5-4.2-1.4-1.6-4-1.8-7-.7h-.2c-1.9.8-3.3 1.8-4.7 2.8-2.6 1.9-5.1 3.6-9.9 3.6-8.1 0-16.7-5.4-16.7-17.2 0-8.2 5.2-17 16.7-17 4.7 0 7.1 1.7 9.7 3.6 1.5 1 3 2.1 5 2.9 1.2.5 2.6.7 3.6.7 3 0 4.9-2 4.9-5.6v-50.8c0-1.7-1.8-3-3.4-3h-50.9c-1.9 0-3.1-.6-3.8-1.5-.8-1.1-.7-2.9.1-5 .8-1.9 1.8-3.4 2.8-4.8 1.9-2.6 3.8-5.4 3.8-10.4 0-5.5-2-10.2-5.7-13.4-3.3-2.9-7.7-4.5-12.5-4.5-9.1 0-18.3 6.2-18.3 17.9 0 5.2 1.9 8 3.8 10.6.9 1.3 1.9 2.7 2.7 4.4v.1c.9 2.1.9 4 .2 5.1-.7 1-1.9 1.5-3.8 1.5h-50.7c-1.7 0-2.4 1.3-2.4 3v50.8c0 3.6 1.4 5.6 4.4 5.6 1 0 2-.2 3.2-.7 2-.8 3.5-1.9 5-2.9 2.6-1.8 5-3.6 9.7-3.6 11.5 0 16.7 8.8 16.7 17 .1 12-8.6 17.3-16.7 17.3"/></g><g fill="#fff"><path d="m78.2 115.6v-12.3h8.7v2h-6.5v2.9h5.7v2h-5.7v3.4h6.5v2h-8.7"/><path d="M96.5,115.6l-5.3-8.4v8.4H89v-12.3h2.4l5.2,8.3v-8.3h2.2v12.3H96.5z"/><path d="m109.6 114.5c-.9.9-2.2 1.4-3.5 1.4s-2.6-.4-3.5-1.4c-1.3-1.3-1.6-3-1.6-5 0-2 .2-3.7 1.6-5 .9-.9 2.2-1.4 3.5-1.4s2.6.5 3.5 1.4c1.3 1.3 1.6 3 1.6 5 0 2-.2 3.6-1.6 5m-1.6-8.5c-.5-.5-1.2-.8-1.9-.8s-1.5.3-1.9.8c-.8.9-.9 2.4-.9 3.5 0 1.1 0 2.6.9 3.5.5.5 1.2.8 1.9.8s1.5-.3 1.9-.8c.8-.9.9-2.4.9-3.5 0-1.1 0-2.6-.9-3.5"/><path d="m120.9 115.6l-5.3-8.4v8.4h-2.2v-12.3h2.4l5.2 8.3v-8.3h2.2v12.3h-2.3"/><path d="m126 115.6v-12.3h2.3v12.3h-2.3"/><path d="m138.9 114.4c-.9.9-2.2 1.5-3.5 1.5-1.3 0-2.5-.4-3.5-1.4-1.3-1.3-1.5-3-1.5-5 0-2 .2-3.7 1.5-5 .9-.9 2.2-1.4 3.5-1.4 1.3 0 2.6.5 3.5 1.4.7.7 1.1 1.7 1.2 2.7h-2.3c-.1-.5-.2-.9-.6-1.3-.4-.5-1.1-.8-1.9-.8-.7 0-1.4.3-1.9.8-.8.9-.8 2.4-.8 3.5 0 1.1 0 2.6.8 3.5.5.5 1.2.8 1.9.8.8 0 1.5-.3 1.9-.8.3-.4.5-.8.6-1.3h2.3c-.1 1.1-.5 2.1-1.2 2.8"/><path d="m235.4 247.6v4.7h-2.2v-4.7l-4.3-7.6h2.4l3 5.3 3-5.3h2.3l-4.2 7.6"/><path d="m248.4 251.2c-.9.9-2.2 1.4-3.5 1.4-1.3 0-2.6-.4-3.5-1.4-1.3-1.3-1.6-3-1.6-5 0-2 .2-3.7 1.6-5 .9-.9 2.2-1.4 3.5-1.4 1.3 0 2.6.5 3.5 1.4 1.3 1.3 1.6 3 1.6 5-.1 2-.3 3.7-1.6 5m-1.6-8.5c-.5-.5-1.2-.8-1.9-.8-.7 0-1.5.3-1.9.8-.8.9-.9 2.4-.9 3.5 0 1.1 0 2.6.9 3.5.5.5 1.2.8 1.9.8.7 0 1.5-.3 1.9-.8.8-.9.9-2.4.9-3.5 0-1.1-.1-2.6-.9-3.5"/><path d="m256.6 252.6c-3.2 0-4.8-2-4.8-4.9v-7.6h2.2v7.5c0 1.7.8 2.9 2.6 2.9 1.8 0 2.6-1.2 2.6-2.9v-7.5h2.2v7.6c0 2.9-1.7 4.9-4.8 4.9"/><path d="m266.3 248.7h-1.3l-.5-4.8v-3.8h2.3v3.8l-.5 4.8m-1.8 3.7v-2.3h2.3v2.3h-2.3"/><path d="m109.1 275.5v2.6h4.4v2.2h-12.3v-4.8c0-2.8 1.6-4.3 3.9-4.3 2.4 0 4 1.5 4 4.3m-5.9.1v2.5h4v-2.5c0-1.5-.8-2.2-2-2.2s-2 .7-2 2.2"/><path d="m113.5 263.1l-2.4.8v4.9l2.4.8v2.2l-12.3-4.3v-2.5l12.3-4.3v2.4m-9.5 3.2l5.2 1.7v-3.5l-5.2 1.8"/><path d="m113.5 252.3l-4.6 2v2.7h4.6v2.2h-12.3v-5.2c0-2.9 1.8-4.3 3.8-4.3 1.6 0 2.9.9 3.4 2.2l5-2.2v2.6zm-10.3 1.8v2.9h3.7v-3c0-1.3-.7-2-1.8-2-1 .1-1.9.9-1.9 2.1"/><path d="m103.3 243.5h10.2v2.2h-10.2v3.6h-2.1v-9.5h2.1v3.7"/><path d="m113.5 230.8l-8.4 5.3h8.4v2.2h-12.3v-2.3l8.3-5.2h-8.3v-2.2h12.3v2.2"/><path d="m113.5 225.7h-12.3v-8.7h2v6.5h2.9v-5.7h2v5.7h3.4v-6.5h2v8.7"/><path d="m113.5 207.8l-4.6 2v2.7h4.6v2.2h-12.3v-5.2c0-2.9 1.8-4.3 3.8-4.3 1.6 0 2.9.9 3.4 2.2l5-2.2v2.6zm-10.3 1.8v2.9h3.7v-3c0-1.3-.7-2-1.8-2-1 .1-1.9.9-1.9 2.1"/><path d="m242.7 68.7c-.9-.9-1.5-2.2-1.5-3.5 0-1.3.4-2.5 1.4-3.5 1.3-1.3 3-1.5 5-1.5 2 0 3.7.2 5 1.5.9.9 1.4 2.2 1.4 3.5 0 1.3-.5 2.6-1.4 3.5-.7.7-1.7 1.1-2.7 1.2v-2.3c.5-.1.9-.2 1.3-.6.5-.4.8-1.1.8-1.9 0-.7-.3-1.4-.8-1.9-.9-.8-2.4-.8-3.5-.8-1.1 0-2.6 0-3.5.8-.5.5-.8 1.2-.8 1.9 0 .8.3 1.5.8 1.9.4.3.8.5 1.3.6v2.3c-1.1-.1-2.1-.5-2.8-1.2"/><path d="m242.6 79.7c-.9-.9-1.4-2.2-1.4-3.5 0-1.3.4-2.6 1.4-3.5 1.3-1.3 3-1.6 5-1.6 2 0 3.7.2 5 1.6.9.9 1.4 2.2 1.4 3.5 0 1.3-.5 2.6-1.4 3.5-1.3 1.3-3 1.6-5 1.6-2 0-3.6-.2-5-1.6m8.5-1.6c.5-.5.8-1.2.8-1.9 0-.7-.3-1.5-.8-1.9-.9-.8-2.4-.9-3.5-.9-1.1 0-2.6 0-3.5.9-.5.5-.8 1.2-.8 1.9 0 .7.3 1.5.8 1.9.9.8 2.4.9 3.5.9 1.1 0 2.7 0 3.5-.9"/><path d="m241.5 93.6h8.8l-8.6-3.2v-1.6l8.7-3.2h-8.9v-2.2h12.3v3l-8.7 3.2 8.7 3.2v2.9h-12.3v-2.1"/><path d="m241.5 108.8h8.8l-8.6-3.2v-1.6l8.7-3.2h-8.9v-2.2h12.3v3l-8.7 3.2 8.7 3.2v2.9h-12.3v-2.1"/><path d="m241.3 118.3c0-3.2 2-4.8 4.9-4.8h7.6v2.2h-7.5c-1.7 0-2.9.8-2.9 2.6 0 1.8 1.2 2.6 2.9 2.6h7.5v2.2h-7.6c-2.9 0-4.9-1.7-4.9-4.8"/><path d="m241.5 133.1l8.4-5.3h-8.4v-2.2h12.3v2.4l-8.3 5.2h8.3v2.2h-12.3v-2.3"/><path d="m241.5 138.3h12.3v2.3h-12.3v-2.3"/><path d="m251.7 148h-10.2v-2.2h10.2v-3.6h2.1v9.5h-2.1v-3.7"/><path d="m246.2 158.2h-4.7v-2.2h4.7l7.6-4.3v2.4l-5.3 3 5.3 3v2.3l-7.6-4.2"/></g></svg>