<svg width="1925" height="1305" viewBox="0 0 1925 1305" xmlns="http://www.w3.org/2000/svg"><g fill="none" fill-rule="evenodd"><path fill="#fff" d="m0 109h1925v1196h-1925z"/><g transform="translate(0 109)" fill="#fbfbfb"><path d="m.1 28.7h1924.6v20.4h-1924.6z"/><path d="m.1.3h1924.6v9.3h-1924.6z"/><path d="m.1 80.8h1924.6v80.7h-1924.6z"/></g><g transform="translate(85 126)" fill="#f4f4f4"><path d="m.7 85.5l98.5-19 329.1 19h-427.6"/><path d="m63.7 11.5l370.9-11.4 176.2 11.4h-547.1"/><path d="m1004.7 52.5l616-29 207.5 29h-823.5"/></g><g><path d="m1922.6 71.6l-96.7-51.1-77.6 28.5-132.2 9.5-121.7-25-116.9 37.2-154.2-70.2-66.1 65-45.1-23.2-22-34.8-60.4 48-136-9-174.4 31-103.5-52-99.6-25-137 77-87.2-56-74.8 56-103.4-27-56.6 20.2-38.3-31.7-18.8 38.5.6 32h1921l.9-37.9" fill="#fff"/><g fill="#f4f4f4"><path d="m292.7 32.5l48 31-65-15.5 17-15.5"/><path d="m20.7 48.7l-11 21.8h11v-21.8"/><path d="m1089.5 16.2l13.7 23.3h-14.5l.8-23.3"/><path d="m1494.2 40.5l-50.5 16.6 95-7.5-44.5-9.1"/><path d="m1829.7 29.7l69.3 36.8-56.3-3.8-13-33"/><path d="m521.5 11.5l12.2 23-25 21h53l51.7-22-91.9-22"/></g></g></g></svg>