<svg xmlns="http://www.w3.org/2000/svg" xmlns:xlink="http://www.w3.org/1999/xlink" viewBox="0 0 896 170" enable-background="new 0 0 896 170"><defs><path id="8" d="m786.2 127.1c-9.8 0-17.7 7.8-17.7 17.5 0 9.7 8 17.5 17.7 17.5 9.8 0 17.7-7.8 17.7-17.5.1-9.7-7.9-17.5-17.7-17.5"/><path id="9" d="m729.4 127.1c-9.8 0-17.7 7.8-17.7 17.5 0 9.7 7.9 17.5 17.7 17.5 9.8 0 17.7-7.8 17.7-17.5 0-9.7-7.9-17.5-17.7-17.5"/><path id="A" d="m765 144v9.1c-4 1.1-8 1.1-12 0v-9.1h12"/><path id="B" d="m794.4 144.6c0-4.4-3.6-7.9-8.1-7.9-2.2 0-4.2 1.4-5.6 2.4h-45.6c-1.5-1-3.5-2.4-5.7-2.4-4.5 0-8.1 3.6-8.1 8 0 4.4 3.6 7.9 8.1 7.9 3.2 0 5.9-2.5 7.3-4.5h42.3c1.3 2 4.1 4.5 7.3 4.5 4.5-.1 8.1-3.6 8.1-8"/><path id="C" d="m150.1 128.2c-9.8 0-17.7 7.8-17.7 17.5 0 9.7 8 17.5 17.7 17.5 9.8 0 17.7-7.8 17.7-17.5.1-9.7-7.9-17.5-17.7-17.5"/><path id="D" d="m93.3 128.2c-9.8 0-17.7 7.8-17.7 17.5 0 9.7 7.9 17.5 17.7 17.5 9.8 0 17.7-7.8 17.7-17.5 0-9.7-7.9-17.5-17.7-17.5"/><path id="E" d="m129 145v9.2c-4 1.1-8 1.1-12 0v-9.2h12"/><path id="F" d="m158.3 145.7c0-4.4-3.6-8-8.1-8-2.2 0-4.2 1.3-5.6 2.3h-45.6c-1.5-1-3.5-2.3-5.7-2.3-4.5 0-8.1 3.6-8.1 8 0 4.4 3.6 7.9 8.1 7.9 3.2 0 5.9-2.6 7.3-4.6h42.3c1.3 2 4.1 4.5 7.3 4.5 4.4 0 8.1-3.4 8.1-7.8"/><clipPath id="6"><use xlink:href="#E"/></clipPath><clipPath id="5"><use xlink:href="#D"/></clipPath><clipPath id="7"><use xlink:href="#F"/></clipPath><clipPath id="4"><use xlink:href="#C"/></clipPath><clipPath id="3"><use xlink:href="#B"/></clipPath><clipPath id="0"><use xlink:href="#8"/></clipPath><clipPath id="2"><use xlink:href="#A"/></clipPath><clipPath id="1"><use xlink:href="#9"/></clipPath></defs><path fill="#c4c3c2" d="m877 24h20v107h-20z"/><path clip-path="url(#0)" fill="#ccc" d="m763 122h46v46h-46z"/><path clip-path="url(#1)" fill="#ccc" d="m707 122h46v46h-46z"/><path clip-path="url(#2)" fill="#808080" d="m748 139h23v20h-23z"/><path clip-path="url(#3)" fill="#808080" d="m716 131h84v27h-84z"/><path clip-path="url(#4)" fill="#ccc" d="m127 123h46v46h-46z"/><path clip-path="url(#5)" fill="#ccc" d="m71 123h46v46h-46z"/><path clip-path="url(#6)" fill="#808080" d="m112 140h23v20h-23z"/><g fill="#808080"><path clip-path="url(#7)" d="m80 132h84v27h-84z"/><path d="m184 139h515v16h-515z"/><path d="m846.4 155h-32.4v-16h64z"/><path d="m62 155h-30.6l-31.6-16h62.2z"/></g><path fill="#dddcdb" d="m0 8h878v132h-878z"/><path fill="#d1d1d1" d="m0 126h878v14h-878z"/><path fill="#e6e6e6" d="m0 8h878v83h-878z"/><path fill="#dddcdb" d="m0 8h878v9h-878z"/><g fill="#808080"><path d="m174 68c0 1.1-.9 2-2 2h-52c-1.1 0-2-.9-2-2v-29c0-1.1.9-2 2-2h52c1.1 0 2 .9 2 2v29"/><path d="m98 68c0 1.1-.9 2-2 2h-52c-1.1 0-2-.9-2-2v-29c0-1.1.9-2 2-2h52c1.1 0 2 .9 2 2v29"/><path d="m769 68c0 1.1-.9 2-2 2h-52c-1.1 0-2-.9-2-2v-29c0-1.1.9-2 2-2h52c1.1 0 2 .9 2 2v29"/><path d="m842 68c0 1.1-.9 2-2 2h-52c-1.1 0-2-.9-2-2v-29c0-1.1.9-2 2-2h52c1.1 0 2 .9 2 2v29"/></g></svg>