<svg xmlns="http://www.w3.org/2000/svg">
<defs>
<font id="ea56d866bc472a0795e58fa7a4cddf23" horiz-adv-x='1024' >
  <font-face 
    font-family="GTPressura-Light"
    font-weight="300"
    font-stretch="normal"
    units-per-em="1000"
    panose-1="2 0 5 6 3 0 0 2 0 4"
    ascent="750"
    descent="-250"
    x-height="500"
    cap-height="700"
    bbox="-141 -240 914 1065"
    underline-thickness="50"
    underline-position="-50"
    unicode-range="U+0020-FB04"
  />
<missing-glyph horiz-adv-x="550" 
d="M184 120q-14 0 -19 -9t-9.5 -19.5t-12.5 -19.5t-27 -9q-21 0 -36.5 13.5t-15.5 31.5t6.5 27t14.5 17t14.5 19t6.5 34q0 17 -8.5 27.5t-19.5 10.5q-12 0 -15.5 -3.5t-14.5 -3.5q-15 0 -22.5 16t-7.5 36q0 14 9.5 26.5t23.5 12.5q10 0 14.5 -5.5t12.5 -5.5q15 0 21 15t6 25
q0 12 -5 24.5t-5 24.5q0 20 11.5 28.5t28.5 8.5q9 0 9 8q0 5 -4 10.5t-4 13.5q0 5 5.5 9.5t10.5 4.5q8 0 13 -5.5t9 -12t8.5 -12t11.5 -5.5q12 0 15 8.5t5 19t7 19t22 8.5q16 0 23.5 -7.5t13.5 -16.5t13.5 -16.5t21.5 -7.5q21 0 28 11.5t7 36.5q0 28 15 40.5t38 12.5
q22 0 34.5 -13t12.5 -35q0 -16 -7.5 -26t-16.5 -16.5t-16.5 -12.5t-7.5 -14q0 -14 12 -22t27 -16.5t27 -21t12 -36.5q0 -14 -5 -22.5t-11 -15t-11 -14t-5 -20.5q0 -10 9.5 -18t34.5 -8q22 0 31 -13t9 -32q0 -22 -15 -37t-37 -15q-12 0 -19.5 8t-15 17t-16 17t-21.5 8
q-11 0 -18 -5.5t-7 -15.5q0 -8 3 -12.5t7 -8.5t7 -10t3 -18q0 -13 -8.5 -23t-26.5 -10q-9 0 -17.5 4.5t-18 10.5t-20.5 10.5t-24 4.5q-9 0 -17.5 -7t-8.5 -24q0 -12 -6.5 -19.5t-17.5 -7.5q-9 0 -12.5 7.5t-7.5 16.5t-11 16.5t-23 7.5zM298 340q0 -17 11.5 -28.5t28.5 -11.5
t30 11.5t13 28.5t-13 32t-30 15t-28.5 -15t-11.5 -32zM281 226q-14 0 -26 5.5t-22 14.5q-5 4 -7 1t2 -8q8 -12 20 -20.5t33 -8.5q20 0 29.5 11.5t14.5 22.5q2 5 -1 6.5t-5 -2.5q-12 -22 -38 -22zM214 335q0 9 4 15t10 6t10 -6t4 -15t-4 -15t-10 -6t-10 6t-4 15zM310 340
q0 9 4 15t10 6t10 -6t4 -15t-4 -15t-10 -6t-10 6t-4 15zM178 340q0 -21 9.5 -35.5t26.5 -14.5t28.5 14.5t11.5 35.5t-11.5 35.5t-28.5 14.5t-26.5 -14.5t-9.5 -35.5zM85 520q0 14 8.5 24t20.5 10q10 0 17 -10t7 -24t-7 -24t-17 -10q-12 0 -20.5 10t-8.5 24z" />
    <glyph glyph-name="IJ" unicode="IJ" horiz-adv-x="453" 
d="M129 20q0 -8 -6 -14t-14 -6h-24q-8 0 -14 6t-6 14v660q0 8 6 14t14 6h24q8 0 14 -6t6 -14v-660zM199 56q60 0 98 34.5t38 111.5v478q0 8 6 14t14 6h24q8 0 14 -6t6 -14v-488q0 -46 -15.5 -83t-42.5 -63t-63.5 -40t-78.5 -14q-8 0 -14 6t-6 14v24q0 8 6 14t14 6z" />
    <glyph glyph-name="ij" unicode="ij" horiz-adv-x="360" 
d="M149 638q0 -16 -16 -16h-52q-16 0 -16 16v53q0 6 4.5 11t11.5 5h52q7 0 11.5 -5t4.5 -11v-53zM138 20q0 -8 -4.5 -14t-15.5 -6h-20q-11 0 -15.5 6t-4.5 14v460q0 8 4.5 14t15.5 6h20q11 0 15.5 -6t4.5 -14v-460zM223 480q0 8 4.5 14t15.5 6h20q11 0 15.5 -6t4.5 -14v-510
q0 -38 -10.5 -70.5t-31.5 -57t-52.5 -38.5t-72.5 -14h-42q-8 0 -14 6t-6 14v19q0 8 6 14t14 6h42q19 0 38 6t34.5 20.5t25 37.5t9.5 57v510zM295 638q0 -16 -16 -16h-52q-16 0 -16 16v53q0 6 4.5 11t11.5 5h52q7 0 11.5 -5t4.5 -11v-53z" />
    <glyph glyph-name="napostrophe" unicode="&#x22;n" horiz-adv-x="486" 
d="M436 20q0 -8 -6 -14t-14 -6h-19q-8 0 -14 6t-6 14v316q0 63 -36.5 89t-90.5 26q-27 0 -50 -8.5t-40.5 -23.5t-27 -35t-9.5 -43v-321q0 -8 -6 -14t-14 -6h-19q-8 0 -14 6t-6 14v460q0 8 6 14t14 6h16q7 0 14 -7q5 -5 10 -10.5t14 -5.5q11 0 20.5 5t22 11.5t30.5 11.5t46 5
q39 0 72 -11t57 -33t37 -54.5t13 -75.5v-316zM19 505q-9 0 -14.5 7.5t-0.5 16.5l28 51q3 5 0.5 10t-8.5 5h-5q-8 0 -14 6t-6 14v65q0 8 6 14t14 6h60q8 0 14 -6t6 -14v-70q0 -21 -5 -31.5t-11 -19.5l-25 -36q-4 -5 -9.5 -11.5t-19.5 -6.5h-10z" />
    <glyph glyph-name="f_f" unicode="ff" horiz-adv-x="684" 
d="M555 651q-29 0 -49.5 -10.5t-34 -28.5t-20 -42t-6.5 -50v-15q0 -10 10 -10h114q8 0 14 -6t6 -14v-19q0 -8 -6 -14t-14 -6h-114q-10 0 -10 -10v-406q0 -8 -6 -14t-14 -6h-20q-8 0 -14 6t-6 14v406q0 10 -10 10h-183q-10 0 -10 -10v-406q0 -8 -6 -14t-14 -6h-20q-8 0 -14 6
t-6 14v406q0 10 -10 10h-87q-8 0 -14 6t-6 14v19q0 8 6 14t14 6h87q10 0 10 10v15q0 42 12.5 76.5t35 59t53.5 38t69 13.5h5q8 0 14 -6t6 -14v-16q0 -8 -6 -14t-14 -6h-5q-29 0 -49.5 -10.5t-34 -28.5t-20 -42t-6.5 -50v-15q0 -10 10 -10h183q10 0 10 10v15q0 42 12.5 76.5
t35 59t53.5 38t69 13.5h5q8 0 14 -6t6 -14v-16q0 -8 -6 -14t-14 -6h-5z" />
    <glyph glyph-name="fi" unicode="fi" horiz-adv-x="531" 
d="M396 426q0 10 -10 10h-194q-10 0 -10 -10v-406q0 -8 -6 -14t-14 -6h-20q-8 0 -14 6t-6 14v406q0 10 -10 10h-87q-8 0 -14 6t-6 14v19q0 8 6 14t14 6h87q10 0 10 10v15q0 42 12.5 76.5t35 59t53.5 38t69 13.5h154q8 0 14 -6t6 -14v-16q0 -8 -6 -14t-14 -6h-154
q-29 0 -49.5 -10.5t-34 -28.5t-20 -42t-6.5 -50v-15q0 -10 10 -10h244q8 0 14 -6t6 -14v-455q0 -8 -6 -14t-14 -6h-20q-8 0 -14 6t-6 14v406z" />
    <glyph glyph-name="fl" unicode="fl" horiz-adv-x="542" 
d="M417 426q0 10 -10 10h-215q-10 0 -10 -10v-406q0 -8 -6 -14t-14 -6h-20q-8 0 -14 6t-6 14v406q0 10 -10 10h-87q-8 0 -14 6t-6 14v19q0 8 6 14t14 6h87q10 0 10 10v15q0 42 12.5 76.5t35 59t53.5 38t69 13.5h5q8 0 14 -6t6 -14v-16q0 -8 -6 -14t-14 -6h-5
q-29 0 -49.5 -10.5t-34 -28.5t-20 -42t-6.5 -50v-15q0 -10 10 -10h215q10 0 10 10v182q0 8 6 14t14 6h20q8 0 14 -6t6 -14v-667q0 -8 -6 -14t-14 -6h-20q-8 0 -14 6t-6 14v406z" />
    <glyph glyph-name=".notdef" horiz-adv-x="550" 
d="M184 120q-14 0 -19 -9t-9.5 -19.5t-12.5 -19.5t-27 -9q-21 0 -36.5 13.5t-15.5 31.5t6.5 27t14.5 17t14.5 19t6.5 34q0 17 -8.5 27.5t-19.5 10.5q-12 0 -15.5 -3.5t-14.5 -3.5q-15 0 -22.5 16t-7.5 36q0 14 9.5 26.5t23.5 12.5q10 0 14.5 -5.5t12.5 -5.5q15 0 21 15t6 25
q0 12 -5 24.5t-5 24.5q0 20 11.5 28.5t28.5 8.5q9 0 9 8q0 5 -4 10.5t-4 13.5q0 5 5.5 9.5t10.5 4.5q8 0 13 -5.5t9 -12t8.5 -12t11.5 -5.5q12 0 15 8.5t5 19t7 19t22 8.5q16 0 23.5 -7.5t13.5 -16.5t13.5 -16.5t21.5 -7.5q21 0 28 11.5t7 36.5q0 28 15 40.5t38 12.5
q22 0 34.5 -13t12.5 -35q0 -16 -7.5 -26t-16.5 -16.5t-16.5 -12.5t-7.5 -14q0 -14 12 -22t27 -16.5t27 -21t12 -36.5q0 -14 -5 -22.5t-11 -15t-11 -14t-5 -20.5q0 -10 9.5 -18t34.5 -8q22 0 31 -13t9 -32q0 -22 -15 -37t-37 -15q-12 0 -19.5 8t-15 17t-16 17t-21.5 8
q-11 0 -18 -5.5t-7 -15.5q0 -8 3 -12.5t7 -8.5t7 -10t3 -18q0 -13 -8.5 -23t-26.5 -10q-9 0 -17.5 4.5t-18 10.5t-20.5 10.5t-24 4.5q-9 0 -17.5 -7t-8.5 -24q0 -12 -6.5 -19.5t-17.5 -7.5q-9 0 -12.5 7.5t-7.5 16.5t-11 16.5t-23 7.5zM298 340q0 -17 11.5 -28.5t28.5 -11.5
t30 11.5t13 28.5t-13 32t-30 15t-28.5 -15t-11.5 -32zM281 226q-14 0 -26 5.5t-22 14.5q-5 4 -7 1t2 -8q8 -12 20 -20.5t33 -8.5q20 0 29.5 11.5t14.5 22.5q2 5 -1 6.5t-5 -2.5q-12 -22 -38 -22zM214 335q0 9 4 15t10 6t10 -6t4 -15t-4 -15t-10 -6t-10 6t-4 15zM310 340
q0 9 4 15t10 6t10 -6t4 -15t-4 -15t-10 -6t-10 6t-4 15zM178 340q0 -21 9.5 -35.5t26.5 -14.5t28.5 14.5t11.5 35.5t-11.5 35.5t-28.5 14.5t-26.5 -14.5t-9.5 -35.5zM85 520q0 14 8.5 24t20.5 10q10 0 17 -10t7 -24t-7 -24t-17 -10q-12 0 -20.5 10t-8.5 24z" />
    <glyph glyph-name=".null" horiz-adv-x="0" 
 />
    <glyph glyph-name="nonmarkingreturn" horiz-adv-x="333" 
 />
    <glyph glyph-name="space" unicode=" " horiz-adv-x="230" 
 />
    <glyph glyph-name="exclam" unicode="!" horiz-adv-x="234" 
d="M146 210q0 -8 -6 -14t-14 -6h-20q-8 0 -14 6t-6 14v470q0 8 6 14t14 6h20q8 0 14 -6t6 -14v-470zM164 16q0 -16 -16 -16h-62q-16 0 -16 16v63q0 6 4.5 11t11.5 5h62q7 0 11.5 -5t4.5 -11v-63z" />
    <glyph glyph-name="quotedbl" unicode="&#x22;" horiz-adv-x="407" 
d="M58 480q-9 0 -14.5 7.5t-0.5 16.5l38 71q3 5 0.5 10t-8.5 5h-10q-8 0 -14 6t-6 14v70q0 8 6 14t14 6h70q8 0 14 -6t6 -14v-75q0 -21 -5 -31.5t-11 -19.5l-40 -56q-4 -5 -9.5 -11.5t-19.5 -6.5h-10zM220 480q-9 0 -14.5 7.5t-0.5 16.5l38 71q3 5 0.5 10t-8.5 5h-10
q-8 0 -14 6t-6 14v70q0 8 6 14t14 6h70q8 0 14 -6t6 -14v-75q0 -21 -5 -31.5t-11 -19.5l-40 -56q-4 -5 -9.5 -11.5t-19.5 -6.5h-10z" />
    <glyph glyph-name="numbersign" unicode="#" horiz-adv-x="577" 
d="M364 440q2 10 -8 10h-116q-10 0 -12 -10l-36 -200q-2 -10 8 -10h116q10 0 12 10zM166 440q2 10 -8 10h-50q-8 0 -13.5 6t-3.5 14l2 18q2 8 9 14t15 6h50q10 0 12 10l28 162q2 8 8.5 14t14.5 6h22q8 0 13.5 -6t3.5 -14l-28 -162q-2 -10 8 -10h116q10 0 12 10l28 162
q2 8 8.5 14t14.5 6h22q8 0 13.5 -6t3.5 -14l-28 -162q-2 -10 8 -10h50q8 0 13 -6t3 -14l-2 -18q-2 -8 -8.5 -14t-14.5 -6h-50q-10 0 -12 -10l-36 -200q-2 -10 8 -10h50q8 0 13 -6t3 -14l-3 -18q-2 -8 -8.5 -14t-14.5 -6h-50q-10 0 -12 -10l-26 -142q-2 -8 -8.5 -14t-14.5 -6
h-22q-8 0 -13.5 6t-3.5 14l26 142q2 10 -8 10h-116q-10 0 -12 -10l-26 -142q-2 -8 -8.5 -14t-14.5 -6h-22q-8 0 -13.5 6t-3.5 14l26 142q2 10 -8 10h-50q-8 0 -13.5 6t-3.5 14l3 18q2 8 9 14t15 6h50q10 0 12 10z" />
    <glyph glyph-name="dollar" unicode="$" horiz-adv-x="510" 
d="M286 704q72 -13 113 -64t41 -120v-13q0 -8 -6 -14t-14 -6h-24q-8 0 -14 6t-6 14v13q0 27 -10 49.5t-27.5 39t-41.5 26t-52 9.5q-33 0 -58 -10.5t-41 -28t-24 -40t-8 -45.5q0 -27 11.5 -47.5t30 -35t42 -23t47.5 -11.5q102 -12 158.5 -63.5t56.5 -139.5q0 -43 -14 -78
t-37.5 -61.5t-55 -43t-67.5 -22.5q-10 -1 -10 -10v-35q0 -8 -6 -14t-14 -6h-22q-8 0 -14 6t-6 14v35q0 9 -10 10q-40 7 -72 25.5t-54.5 46t-35 61.5t-12.5 72v16q0 8 6 14t14 6h25q8 0 14 -6t6 -14v-16q0 -26 9.5 -52t28.5 -46.5t47 -33t65 -12.5q69 0 109 40t41 104
q1 58 -38.5 94t-111.5 44q-43 4 -79 18t-62 37t-40.5 54.5t-14.5 72.5q0 39 12.5 70.5t33.5 54.5t49 38t60 21q10 1 10 10v36q0 8 6 14t14 6h22q8 0 14 -6t6 -14v-36q0 -9 10 -10z" />
    <glyph glyph-name="percent" unicode="%" horiz-adv-x="647" 
d="M129 15q-9 -15 -21 -15h-17q-10 0 -16.5 8.5t0.5 19.5l417 657q9 15 22 15h15q10 0 16 -9t0 -19zM177 433q23 0 38 15t18 36q4 23 4 50.5t-4 52.5q-2 16 -15.5 32.5t-40.5 16.5q-23 0 -38 -14.5t-18 -34.5q-4 -25 -4 -52.5t4 -50.5q3 -17 16 -34t40 -17zM177 690
q45 0 75.5 -28.5t36.5 -76.5q4 -30 4 -50t-4 -50q-2 -21 -10.5 -40t-23 -33.5t-34 -23t-44.5 -8.5q-45 0 -76 28t-37 77q-4 30 -4 50t4 50q3 20 11.5 39t23 33.5t34 23.5t44.5 9zM445 63q23 0 38 15t18 36q4 23 4 50.5t-4 52.5q-2 16 -15.5 32.5t-40.5 16.5q-23 0 -38 -14.5
t-18 -34.5q-4 -25 -4 -52.5t4 -50.5q3 -17 16 -34t40 -17zM445 320q45 0 75.5 -28.5t36.5 -76.5q4 -30 4 -50t-4 -50q-2 -21 -10.5 -40t-23 -33.5t-34 -23t-44.5 -8.5q-45 0 -76 28t-37 77q-4 30 -4 50t4 50q3 20 11.5 39t23 33.5t34 23.5t44.5 9z" />
    <glyph glyph-name="ampersand" unicode="&#x26;" horiz-adv-x="605" 
d="M132 369q7 6 5.5 12.5t-5.5 11.5q-20 29 -33 61.5t-13 68.5q0 39 12 71.5t35 56t57.5 36.5t78.5 13q40 0 71.5 -14t54 -38.5t34.5 -58t12 -72.5v-15q0 -8 -6 -14t-14 -6h-20q-8 0 -14 6t-6 14v15q0 25 -7.5 48.5t-22 41.5t-35.5 28.5t-48 10.5q-63 0 -92 -34.5t-29 -88.5
q0 -21 12 -47t28.5 -50.5t32.5 -44t24 -28.5l170 -191q2 -2 4.5 -2.5t4.5 3.5q3 6 5.5 14t4 23t2.5 38.5t1 61.5q0 8 6 14t14 6h15q8 0 14 -6t6 -14q0 -49 -1.5 -78t-4.5 -47t-8 -29t-11 -24q-5 -9 2 -17l63 -71q8 -10 4 -22t-21 -12h-23q-11 0 -15 3.5t-7 6.5l-37 40
q-5 6 -8.5 4t-5.5 -4q-29 -27 -69 -42.5t-86 -15.5q-47 0 -86 17t-67.5 45.5t-44 67t-15.5 81.5q0 23 6 46t17 45t26 41t33 34zM263 51q42 0 72.5 15.5t45.5 31.5q5 5 1 11l-197 219q-4 3 -7 0q-12 -9 -23.5 -20t-21 -26t-15.5 -34.5t-6 -44.5q0 -33 12 -61t32 -48.5
t47.5 -31.5t59.5 -11z" />
    <glyph glyph-name="quotesingle" unicode="'" horiz-adv-x="207" 
d="M63 590q-8 0 -14 6t-6 14v70q0 8 6 14t14 6h70q8 0 14 -6t6 -14v-75q0 -21 -5 -31.5t-11 -19.5l-40 -56q-4 -5 -9.5 -11.5t-19.5 -6.5h-10q-9 0 -14.5 7.5t-0.5 16.5l38 71q3 5 0.5 10t-8.5 5h-10z" />
    <glyph glyph-name="parenleft" unicode="(" horiz-adv-x="341" 
d="M304 -27q8 0 14 -6t6 -14v-23q0 -8 -6 -14t-14 -6h-18q-45 0 -83 14.5t-66.5 42t-46.5 66.5t-24 87q-3 20 -4.5 51.5t-2.5 68t-1 76t1 76t2.5 67.5t4.5 51q5 41 21.5 79t44 67t66 46.5t88.5 17.5h12q8 0 14 -6t6 -14v-23q0 -8 -6 -14t-14 -6h-12q-32 0 -58.5 -12.5
t-46.5 -33.5t-33 -47.5t-17 -53.5q-5 -31 -7.5 -84t-2.5 -111t2.5 -111t7.5 -84q3 -22 14 -47.5t30 -47.5t46.5 -37t64.5 -15h18z" />
    <glyph glyph-name="parenright" unicode=")" horiz-adv-x="341" 
d="M48 -27q37 0 64.5 15t46.5 37t30 47.5t14 47.5q5 31 7.5 84t2.5 111t-2.5 111t-7.5 84q-5 27 -17.5 53.5t-32.5 47.5t-46.5 33.5t-58.5 12.5h-12q-8 0 -14 6t-6 14v23q0 8 6 14t14 6h12q49 0 88 -17.5t66.5 -46.5t44 -67t21.5 -79q2 -20 4 -51t2.5 -67.5t0.5 -76
t-0.5 -76t-2.5 -68t-4 -51.5q-6 -48 -24.5 -87t-47 -66.5t-66 -42t-82.5 -14.5h-18q-8 0 -14 6t-6 14v23q0 8 6 14t14 6h18z" />
    <glyph glyph-name="asterisk" unicode="*" horiz-adv-x="362" 
d="M205 534l1 -64q0 -8 -6 -14t-14 -6h-21q-8 0 -14 6t-6 14l1 64l-55 -33q-8 -5 -15.5 -2.5t-11.5 9.5l-11 19q-4 7 -1.5 15t9.5 12l55 31l-55 31q-8 5 -10 12.5t2 14.5l11 19q4 7 12 9t15 -2l55 -33l-1 64q0 8 6 14t14 6h21q8 0 14 -6t6 -14l-1 -64l55 33q8 5 15.5 2.5
t11.5 -9.5l11 -19q4 -7 1.5 -15t-9.5 -12l-56 -31l56 -31q8 -5 10 -12.5t-2 -14.5l-11 -19q-4 -7 -12 -9t-15 2z" />
    <glyph glyph-name="plus" unicode="+" horiz-adv-x="540" 
d="M70 220q-8 0 -14 6t-6 14v21q0 8 6 14t14 6h159q10 0 10 10v159q0 8 6 14t14 6h22q8 0 14 -6t6 -14v-159q0 -10 10 -10h159q8 0 14 -6t6 -14v-21q0 -8 -6 -14t-14 -6h-159q-10 0 -10 -10v-160q0 -8 -6 -14t-14 -6h-22q-8 0 -14 6t-6 14v160q0 10 -10 10h-159z" />
    <glyph glyph-name="comma" unicode="," horiz-adv-x="284" 
d="M98 -110q-9 0 -14.5 7.5t-0.5 16.5l38 71q3 5 0.5 10t-8.5 5h-10q-8 0 -14 6t-6 14v70q0 8 6 14t14 6h70q8 0 14 -6t6 -14v-75q0 -21 -5 -31.5t-11 -19.5l-40 -56q-4 -5 -9.5 -11.5t-19.5 -6.5h-10v0z" />
    <glyph glyph-name="hyphen" unicode="-" horiz-adv-x="453" 
d="M363 304q8 0 14 -6t6 -14v-35q0 -8 -6 -14t-14 -6h-273q-8 0 -14 6t-6 14v35q0 8 6 14t14 6h273z" />
    <glyph glyph-name="period" unicode="." horiz-adv-x="283" 
d="M185 20q0 -8 -6 -14t-14 -6h-70q-8 0 -14 6t-6 14v70q0 8 6 14t14 6h70q8 0 14 -6t6 -14v-70z" />
    <glyph glyph-name="slash" unicode="/" horiz-adv-x="458" 
d="M110 3q-7 -15 -21 -15h-21q-10 0 -15.5 8.5t-0.5 19.5l286 679q5 15 19 15h21q10 0 15.5 -8.5t0.5 -19.5z" />
    <glyph glyph-name="zero" unicode="0" horiz-adv-x="520" 
d="M260 51q35 0 61 13t44 34t29 48t15 54q4 31 6.5 70t2.5 79.5t-2.5 79.5t-6.5 71q-3 22 -12 48.5t-26 48.5t-44 37t-67 15q-34 0 -60.5 -13t-45 -34t-29.5 -47.5t-14 -54.5q-4 -32 -6 -71t-2 -79.5t2 -79.5t6 -70q3 -22 12 -48t26 -48.5t44.5 -37.5t66.5 -15zM260 708
q91 0 144.5 -55.5t65.5 -152.5q4 -30 5.5 -69.5t1.5 -80.5t-2 -80.5t-5 -69.5q-5 -41 -19.5 -79t-40.5 -66.5t-63.5 -45.5t-86.5 -17q-91 0 -144.5 55.5t-65.5 152.5q-4 30 -6 69.5t-2 81t2 80.5t6 69q5 41 20 78.5t40.5 66.5t62.5 46t87 17z" />
    <glyph glyph-name="one" unicode="1" horiz-adv-x="363" 
d="M278 700q8 0 14 -6t6 -14v-660q0 -8 -6 -14t-14 -6h-20q-8 0 -14 6t-6 14v583q0 5 -3.5 5.5t-5.5 -1.5l-174 -186q-6 -7 -14 -3.5t-8 11.5v35q0 13 7.5 24t12.5 17l176 186q9 9 20 9h29v0z" />
    <glyph glyph-name="two" unicode="2" horiz-adv-x="462" 
d="M101 502q0 -8 -6 -14t-14 -6h-23q-8 0 -14 6t-6 14v15q0 40 14.5 75t40 60.5t60.5 40.5t75 15t74.5 -13.5t59.5 -38.5t39.5 -60.5t14.5 -78.5q0 -58 -22.5 -105.5t-61.5 -91.5l-219 -243q-4 -5 -2 -10.5t10 -5.5h291q8 0 14 -6t6 -14v-21q0 -8 -6 -14t-14 -6h-362
q-8 0 -14 6t-6 14v37q0 11 3 16.5t6 8.5l241 271q16 18 30 35t24 36t15.5 41.5t5.5 51.5q0 25 -7.5 49t-23.5 42.5t-39.5 29.5t-56.5 11q-29 0 -52.5 -12t-40 -30.5t-25.5 -42t-9 -47.5v-15z" />
    <glyph glyph-name="three" unicode="3" horiz-adv-x="486" 
d="M93 198q0 -29 11 -55t31 -45.5t46.5 -30.5t58.5 -11q33 0 59 11t44.5 30.5t28 45.5t9.5 55q0 27 -8 51.5t-25 43.5t-43 30.5t-63 11.5h-7q-8 0 -14 6t-6 14v22q0 8 6 14t14 6h7q29 0 52 9.5t39 26t24.5 38t8.5 46.5t-8 48t-23.5 40.5t-39.5 28t-55 10.5q-32 0 -57 -11.5
t-41.5 -29.5t-25 -40.5t-8.5 -45.5v-15q0 -8 -6 -14t-14 -6h-23q-8 0 -14 6t-6 14v15q0 40 15 75t41 60.5t62 40.5t77 15t75.5 -15t60 -40.5t40 -60.5t14.5 -75q0 -42 -15 -77t-43 -60q-14 -12 -1 -24q33 -29 53.5 -69.5t20.5 -88.5q0 -43 -15.5 -80.5t-43.5 -65.5
t-65.5 -44t-80.5 -16q-44 0 -82.5 16t-67 44t-44.5 65.5t-16 80.5v7q0 8 6 14t14 6h23q8 0 14 -6t6 -14v-7z" />
    <glyph glyph-name="four" unicode="4" horiz-adv-x="491" 
d="M298 199q10 0 10 10v390q0 5 -3 5t-5 -3l-213 -394q-5 -8 4 -8h207zM285 686q5 8 9 11t12 3h41q8 0 14 -6t6 -14v-471q0 -10 10 -10h56q8 0 14 -6t6 -14v-19q0 -8 -6 -14t-14 -6h-56q-10 0 -10 -10v-110q0 -8 -6 -14t-14 -6h-19q-8 0 -14 6t-6 14v110q0 10 -10 10h-263
q-8 0 -14 6t-6 14v13q0 16 5.5 27.5t10.5 21.5z" />
    <glyph glyph-name="five" unicode="5" horiz-adv-x="500" 
d="M50 175q0 10 6 15t14 5h21q13 0 16.5 -6t3.5 -14q0 -24 11 -46.5t29 -39.5t42 -27t51 -10q34 0 61.5 15t46.5 40t29 57.5t10 67.5q0 36 -10.5 67.5t-29.5 55t-46 37.5t-61 14q-25 0 -43 -8.5t-31 -21.5t-21.5 -29t-14.5 -31q-5 -11 -19 -11h-27q-8 0 -14 6t-6 14v355
q0 8 6 14t14 6h316q8 0 14 -6t6 -14v-20q0 -8 -6 -14t-14 -6h-268q-10 0 -10 -10v-185q0 -8 5.5 -12t16.5 4q15 12 39 20.5t57 8.5q47 0 85 -18.5t65 -50.5t41.5 -74.5t14.5 -90.5t-14 -91.5t-41 -76.5t-65 -52.5t-86 -19.5q-40 0 -75 14t-61.5 38.5t-42 58t-15.5 72.5z" />
    <glyph glyph-name="six" unicode="6" horiz-adv-x="506" 
d="M257 452q42 0 78.5 -16t63.5 -44t43.5 -65.5t19.5 -79.5q2 -24 0 -52q-2 -42 -18.5 -79t-44 -64.5t-64 -43.5t-78.5 -16q-44 0 -79.5 16t-62 44.5t-43.5 66t-22 81.5q-4 30 -5.5 69.5t-1.5 80.5t2 80.5t5 69.5q5 43 20.5 81t41 66t60.5 44.5t79 16.5q40 0 75 -15
t61 -40.5t41 -60.5t15 -75q0 -8 -6 -14t-14 -6h-22q-8 0 -14 6t-6 14q0 24 -8 47t-24.5 42t-41 30.5t-56.5 11.5q-29 0 -53 -12t-41.5 -32t-28.5 -47t-14 -57q-3 -29 -3.5 -46.5t0.5 -37.5q0 -6 5 -9t11 2q7 6 18.5 13t27.5 14t37 11.5t47 4.5zM115 194q3 -28 13.5 -53
t28.5 -44.5t43 -31t57 -11.5t57 11.5t43 31t28.5 44.5t13.5 53q3 29 0 54q-3 27 -13.5 52.5t-28.5 45.5t-43 32t-57 12q-64 0 -100 -38.5t-42 -103.5q-1 -12 -1.5 -26t1.5 -28z" />
    <glyph glyph-name="seven" unicode="7" horiz-adv-x="420" 
d="M344 630q4 10 -7 10h-307q-8 0 -14 6t-6 14v20q0 8 6 14t14 6h360q8 0 14 -6t6 -14v-37q0 -9 -5 -20l-252 -608q-7 -15 -19 -15h-23q-14 0 -17.5 8.5t-0.5 15.5z" />
    <glyph glyph-name="eight" unicode="8" horiz-adv-x="520" 
d="M250 55q66 0 106 40t40 103q0 62 -38 100.5t-108 38.5t-108 -38.5t-38 -100.5q0 -63 40 -103t106 -40zM250 394q60 0 95 34.5t35 88.5q0 25 -9 48t-26 41t-41 28.5t-54 10.5t-54 -10.5t-41 -28.5t-26 -41t-9 -48q0 -54 35 -88.5t95 -34.5zM384 356q34 -29 54 -69.5
t20 -88.5q0 -43 -14.5 -80.5t-41.5 -65.5t-65.5 -44t-86.5 -16t-86.5 16t-65.5 44t-41.5 65.5t-14.5 80.5q0 48 20 88.5t54 69.5q7 6 5.5 12.5t-6.5 11.5q-26 26 -41.5 61t-15.5 76q0 38 14.5 72.5t40 61t60.5 42t77 15.5t77 -15.5t60.5 -42t40 -61t14.5 -72.5
q0 -41 -15.5 -76t-41.5 -61q-5 -5 -6.5 -11.5t5.5 -12.5z" />
    <glyph glyph-name="nine" unicode="9" horiz-adv-x="501" 
d="M383 506q-3 23 -12.5 47.5t-26.5 45t-42.5 34t-60.5 13.5q-34 0 -59 -12t-42 -31.5t-27 -45t-14 -51.5q-2 -14 -2 -28t2 -26q4 -27 14 -52.5t27 -45.5t42 -32t59 -12q67 0 101 40t41 102q3 25 0 54zM245 52q62 0 98 41.5t47 106.5q1 9 2.5 21t2 25t0.5 24.5t-1 20.5
q-1 7 -6 9t-12 -3q-8 -6 -19.5 -14.5t-28 -16t-38.5 -13t-49 -5.5q-42 0 -78.5 16t-63.5 44t-43.5 65.5t-19.5 79.5q-2 24 0 52q2 42 18.5 79t44 64.5t64 43.5t78.5 16q43 0 79 -16t63 -44.5t44 -66.5t22 -81q4 -30 6 -68t2 -77.5t-2 -78.5t-6 -71q-14 -102 -65 -157.5
t-139 -55.5q-40 0 -77 15t-65 40.5t-44.5 60.5t-16.5 75q0 8 6 14t14 6h22q8 0 14 -6t6 -14q0 -26 11.5 -49.5t30.5 -41.5t44.5 -29t54.5 -11z" />
    <glyph glyph-name="colon" unicode=":" horiz-adv-x="283" 
d="M193 20q0 -8 -6 -14t-14 -6h-70q-8 0 -14 6t-6 14v70q0 8 6 14t14 6h70q8 0 14 -6t6 -14v-70zM193 400q0 -8 -6 -14t-14 -6h-70q-8 0 -14 6t-6 14v70q0 8 6 14t14 6h70q8 0 14 -6t6 -14v-70z" />
    <glyph glyph-name="semicolon" unicode=";" horiz-adv-x="284" 
d="M191 400q0 -8 -6 -14t-14 -6h-70q-8 0 -14 6t-6 14v70q0 8 6 14t14 6h70q8 0 14 -6t6 -14v-70zM96 -110q-9 0 -14.5 7.5t-0.5 16.5l38 71q3 5 0.5 10t-8.5 5h-10q-8 0 -14 6t-6 14v70q0 8 6 14t14 6h70q8 0 14 -6t6 -14v-75q0 -21 -5 -31.5t-11 -19.5l-40 -56
q-4 -5 -9.5 -11.5t-19.5 -6.5h-10z" />
    <glyph glyph-name="less" unicode="&#x3c;" horiz-adv-x="480" 
d="M415 68q15 -9 15 -21v-28q0 -12 -8 -18t-15 -1l-362 219q-15 8 -15 22v19q0 14 15 22l362 218q7 5 15 -1t8 -18v-28q0 -12 -15 -21l-301 -178q-8 -4 0 -8z" />
    <glyph glyph-name="equal" unicode="=" horiz-adv-x="540" 
d="M70 307q-8 0 -14 6t-6 14v25q0 8 6 14t14 6h400q8 0 14 -6t6 -14v-25q0 -8 -6 -14t-14 -6h-400zM70 129q-8 0 -14 6t-6 14v25q0 8 6 14t14 6h400q8 0 14 -6t6 -14v-25q0 -8 -6 -14t-14 -6h-400z" />
    <glyph glyph-name="greater" unicode="&#x3e;" horiz-adv-x="480" 
d="M366 246q8 4 0 8l-301 178q-15 9 -15 21v28q0 12 8 18t15 1l362 -218q15 -8 15 -22v-19q0 -14 -15 -22l-362 -219q-7 -5 -15 1t-8 18v28q0 12 15 21z" />
    <glyph glyph-name="question" unicode="?" horiz-adv-x="452" 
d="M346 537q0 51 -32.5 82t-89.5 31q-25 0 -47 -10.5t-38 -28.5t-25 -42t-9 -52v-7q0 -8 -6 -14t-14 -6h-20q-8 0 -14 6t-6 14v7q0 40 13.5 75t37.5 61.5t57 41.5t71 15q40 0 73.5 -12.5t58 -35t38 -54.5t13.5 -71q0 -27 -7.5 -48.5t-19 -39t-25.5 -32t-27 -28.5
q-7 -7 -21 -19.5t-28 -27t-24.5 -30.5t-10.5 -31v-71q0 -8 -6 -14t-14 -6h-20q-8 0 -14 6t-6 14v71q0 40 18 61q26 30 45.5 46.5t34.5 31.5q7 7 18 17.5t21.5 25t17.5 32.5t7 42zM263 16q0 -16 -16 -16h-62q-16 0 -16 16v63q0 6 4.5 11t11.5 5h62q7 0 11.5 -5t4.5 -11v-63z
" />
    <glyph glyph-name="at" unicode="@" horiz-adv-x="815" 
d="M507 339q0 43 -27 63t-64 20q-57 0 -89.5 -42t-32.5 -111q0 -67 28.5 -108t93.5 -41q37 0 64 21.5t27 67.5v130zM520 -12q10 5 17 0t7 -15v-13q0 -12 -7.5 -17.5t-16.5 -10.5q-16 -9 -46.5 -15.5t-59.5 -6.5q-80 0 -145.5 28.5t-112 77t-71.5 114t-25 140.5
q0 79 26 146.5t72.5 117t112 78t144.5 28.5q75 0 137.5 -24t107.5 -68t70 -105.5t25 -137.5q0 -56 -12 -99.5t-31.5 -73.5t-45 -46t-51.5 -16q-25 0 -38 5t-28 15q-13 8 -25.5 8.5t-31.5 -8.5q-15 -8 -35 -14t-43 -6q-50 0 -85.5 16t-57.5 43t-32 63t-10 77q0 43 13 80.5
t37 65t58 43t77 15.5q70 0 112.5 -39t42.5 -104v-155q0 -23 11 -36.5t30 -13.5q17 0 32.5 9t27 30t18.5 55.5t7 85.5q0 60 -18.5 111t-54 88t-88 58t-119.5 21q-60 0 -113 -23.5t-92.5 -65t-62 -99t-22.5 -126.5q0 -62 21 -117t59.5 -96t91.5 -65t117 -24q29 0 55.5 5
t50.5 16z" />
    <glyph glyph-name="A" unicode="A" 
d="M327 260q11 0 8 11l-91 340q-2 6 -4 6h-2q-3 0 -4 -6l-91 -340q-3 -11 8 -11h176zM361 184q-5 14 -19 14h-206q-14 0 -19 -14l-49 -169q-3 -15 -19 -15h-25q-12 0 -17 6.5t-3 13.5l191 665q3 15 19 15h50q16 0 19 -15l191 -665q2 -7 -3 -13.5t-17 -6.5h-25q-16 0 -19 15z
" />
    <glyph glyph-name="B" unicode="B" horiz-adv-x="505" 
d="M137 338q-10 0 -10 -10v-254q0 -10 10 -10h134q28 0 53 10.5t44 29.5t29.5 43.5t10.5 53.5q0 28 -10.5 53t-29.5 44t-44 29.5t-53 10.5h-134zM260 700q40 0 76 -14t62.5 -38.5t42 -59t15.5 -74.5q0 -35 -14 -72.5t-43 -62.5q-14 -12 0 -22q31 -25 51 -67.5t20 -85.5
q0 -44 -16.5 -81t-45 -64.5t-67 -43t-81.5 -15.5h-175q-8 0 -14 6t-6 14v660q0 8 6 14t14 6h175zM275 397q25 0 46.5 9.5t37.5 25.5t25 37.5t9 46.5t-9 46.5t-25 38t-37.5 26t-46.5 9.5h-138q-10 0 -10 -10v-219q0 -10 10 -10h138z" />
    <glyph glyph-name="C" unicode="C" horiz-adv-x="543" 
d="M500 200q0 -49 -18 -87.5t-48.5 -65.5t-71 -41t-85.5 -14q-91 0 -150.5 55.5t-72.5 152.5q-4 30 -6 69.5t-2 81t2 80.5t6 69q6 41 23 78.5t45 66.5t66.5 46t88.5 17q49 0 90.5 -17t70.5 -45.5t45.5 -66.5t16.5 -79v-4q0 -8 -6 -14t-14 -6h-27q-8 0 -14 6t-6 14v4
q0 28 -11 54t-31.5 46t-49 32t-64.5 12t-63 -12t-46.5 -32.5t-31 -46.5t-15.5 -53q-5 -31 -7 -70t-2 -80t2 -80t7 -70q3 -22 12.5 -47t28 -46.5t46.5 -36t69 -14.5q40 0 69.5 14t49 35.5t28.5 47t9 47.5v4q0 8 6 14t14 6h27q8 0 14 -6t6 -14v-4z" />
    <glyph glyph-name="D" unicode="D" horiz-adv-x="538" 
d="M139 636q-10 0 -10 -10v-552q0 -10 10 -10h126q40 0 68.5 13t47 33t28 44t12.5 46q4 31 6.5 70t2.5 80t-2.5 80t-6.5 70q-4 27 -15.5 52t-31 43.5t-46.5 29.5t-63 11h-126zM265 700q49 0 88 -16t67 -43t45 -63.5t23 -77.5q4 -30 6 -69t2 -80.5t-2 -81t-6 -69.5
q-13 -97 -72.5 -148.5t-150.5 -51.5h-180q-8 0 -14 6t-6 14v660q0 8 6 14t14 6h180z" />
    <glyph glyph-name="E" unicode="E" horiz-adv-x="470" 
d="M129 74q0 -10 10 -10h261q8 0 14 -6t6 -14v-24q0 -8 -6 -14t-14 -6h-315q-8 0 -14 6t-6 14v660q0 8 6 14t14 6h313q8 0 14 -6t6 -14v-24q0 -8 -6 -14t-14 -6h-259q-10 0 -10 -10v-227q0 -10 10 -10h248q8 0 14 -6t6 -14v-23q0 -8 -6 -14t-14 -6h-248q-10 0 -10 -10v-242z
" />
    <glyph glyph-name="F" unicode="F" horiz-adv-x="448" 
d="M139 326q-10 0 -10 -10v-296q0 -8 -6 -14t-14 -6h-24q-8 0 -14 6t-6 14v660q0 8 6 14t14 6h313q8 0 14 -6t6 -14v-24q0 -8 -6 -14t-14 -6h-259q-10 0 -10 -10v-226q0 -10 10 -10h248q8 0 14 -6t6 -14v-24q0 -8 -6 -14t-14 -6h-248v0z" />
    <glyph glyph-name="G" unicode="G" horiz-adv-x="546" 
d="M436 308q0 10 -10 10h-122q-8 0 -14 6t-6 14v24q0 8 6 14t14 6h176q8 0 14 -6t6 -14v-162q0 -49 -18 -87.5t-48.5 -65.5t-71 -41t-85.5 -14q-91 0 -150.5 55.5t-72.5 152.5q-4 30 -6 69.5t-2 81t2 80.5t6 69q6 41 23 78.5t45 66.5t66.5 46t88.5 17q49 0 90.5 -16.5
t70.5 -44.5t45.5 -66t16.5 -81v-4q0 -8 -6 -14t-14 -6h-27q-8 0 -14 6t-6 14v4q0 31 -11 57.5t-31.5 45.5t-49 30t-64.5 11t-63 -12t-46.5 -32.5t-31 -46.5t-15.5 -53q-5 -31 -7 -70t-2 -80t2 -80t7 -70q3 -22 12.5 -47t28 -46.5t46.5 -36t69 -14.5q40 0 70 14t50 35.5
t29.5 47t9.5 47.5v108z" />
    <glyph glyph-name="H" unicode="H" horiz-adv-x="540" 
d="M411 680q0 8 6 14t14 6h24q8 0 14 -6t6 -14v-660q0 -8 -6 -14t-14 -6h-24q-8 0 -14 6t-6 14v296q0 10 -10 10h-262q-10 0 -10 -10v-296q0 -8 -6 -14t-14 -6h-24q-8 0 -14 6t-6 14v660q0 8 6 14t14 6h24q8 0 14 -6t6 -14v-280q0 -10 10 -10h262q10 0 10 10v280v0z" />
    <glyph glyph-name="I" unicode="I" horiz-adv-x="194" 
d="M129 20q0 -8 -6 -14t-14 -6h-24q-8 0 -14 6t-6 14v660q0 8 6 14t14 6h24q8 0 14 -6t6 -14v-660z" />
    <glyph glyph-name="J" unicode="J" horiz-adv-x="459" 
d="M5 200q0 8 6 14t14 6h25q8 0 14 -6t6 -14v-8q0 -27 10 -51.5t27.5 -43.5t42.5 -30t55 -11q60 0 98 34.5t38 111.5v478q0 8 6 14t14 6h24q8 0 14 -6t6 -14v-488q0 -46 -15.5 -83t-42.5 -63t-63.5 -40t-78.5 -14q-41 0 -77.5 16t-63.5 43t-43 63.5t-16 77.5v8z" />
    <glyph glyph-name="K" unicode="K" horiz-adv-x="474" 
d="M137 299q-2 2 -5 2t-3 -4v-277q0 -8 -6 -14t-14 -6h-24q-8 0 -14 6t-6 14v660q0 8 6 14t14 6h24q8 0 14 -6t6 -14v-264q0 -4 3 -4t5 2l230 275q2 3 8.5 7t17.5 4h16q18 0 22 -12.5t-5 -23.5l-247 -291q-5 -6 -6 -11.5t5 -12.5l264 -312q8 -10 5 -23.5t-23 -13.5h-22
q-11 0 -17 5t-9 8z" />
    <glyph glyph-name="L" unicode="L" horiz-adv-x="424" 
d="M129 74q0 -10 10 -10h245q8 0 14 -6t6 -14v-24q0 -8 -6 -14t-14 -6h-299q-8 0 -14 6t-6 14v660q0 8 6 14t14 6h24q8 0 14 -6t6 -14v-606z" />
    <glyph glyph-name="M" unicode="M" horiz-adv-x="682" 
d="M336 110q2 -5 5 -5t5 5l161 573q4 17 21 17h69q8 0 14 -6t6 -14v-660q0 -8 -6 -14t-14 -6h-22q-8 0 -14 6t-6 14v576q0 5 -3.5 5t-4.5 -3l-169 -581q-6 -17 -21 -17h-32q-15 0 -21 17l-169 581q-1 3 -4.5 3t-3.5 -5v-576q0 -8 -6 -14t-14 -6h-22q-8 0 -14 6t-6 14v660
q0 8 6 14t14 6h69q17 0 21 -17z" />
    <glyph glyph-name="N" unicode="N" horiz-adv-x="530" 
d="M393 0q-8 0 -12 3t-9 14l-239 574q-2 3 -5 2.5t-3 -4.5v-569q0 -8 -6 -14t-14 -6h-20q-8 0 -14 6t-6 14v660q0 8 6 14t14 6h52q8 0 12 -3t9 -14l239 -569q2 -3 5 -2.5t3 4.5v564q0 8 6 14t14 6h20q8 0 14 -6t6 -14v-660q0 -8 -6 -14t-14 -6h-52z" />
    <glyph glyph-name="O" unicode="O" horiz-adv-x="556" 
d="M277 56q40 0 68.5 14.5t47 36t28 46.5t12.5 47q4 31 6.5 70t2.5 80t-2.5 80t-6.5 70q-4 27 -15.5 53t-31 46.5t-46.5 32.5t-63 12t-63 -12t-46.5 -32.5t-31 -46.5t-15.5 -53q-5 -31 -7 -70t-2 -80t2 -80t7 -70q3 -22 12.5 -47t28 -46.5t46.5 -36t69 -14.5zM277 708
q49 0 88 -17t67 -46t45 -66.5t23 -78.5q4 -30 6 -69t2 -80.5t-2 -81t-6 -69.5q-13 -97 -72.5 -152.5t-150.5 -55.5t-150.5 55.5t-72.5 152.5q-4 30 -6 69.5t-2 81t2 80.5t6 69q6 41 23 78.5t45 66.5t66.5 46t88.5 17z" />
    <glyph glyph-name="P" unicode="P" horiz-adv-x="485" 
d="M255 700q43 0 81.5 -16.5t67 -45t45 -67t16.5 -81.5q0 -44 -16.5 -82t-45 -66.5t-67 -45t-81.5 -16.5h-116q-10 0 -10 -10v-250q0 -8 -6 -14t-14 -6h-24q-8 0 -14 6t-6 14v660q0 8 6 14t14 6h170zM139 636q-10 0 -10 -10v-272q0 -10 10 -10h116q30 0 56.5 11.5t46.5 31.5
t31.5 46.5t11.5 56.5t-11.5 56.5t-31.5 46.5t-46.5 31.5t-56.5 11.5h-116z" />
    <glyph glyph-name="Q" unicode="Q" horiz-adv-x="556" 
d="M277 56q40 0 68.5 14.5t47 36t28 46.5t12.5 47q4 31 6.5 70t2.5 80t-2.5 80t-6.5 70q-4 27 -15.5 53t-31 46.5t-46.5 32.5t-63 12t-63 -12t-46.5 -32.5t-31 -46.5t-15.5 -53q-5 -31 -7 -70t-2 -80t2 -80t7 -70q3 -22 12.5 -47t28 -46.5t46.5 -36t69 -14.5zM427 48
q-3 -3 -4 -6t1 -8l51 -96q5 -11 -0.5 -19.5t-15.5 -8.5h-28q-12 0 -20 15l-42 75q-4 6 -11.5 5t-12.5 -3q-31 -10 -68 -10q-91 0 -150.5 55.5t-72.5 152.5q-4 30 -6 69.5t-2 81t2 80.5t6 69q6 41 23 78.5t45 66.5t66.5 46t88.5 17q49 0 88 -17t67 -46t45 -66.5t23 -78.5
q4 -30 6 -69t2 -80.5t-2 -81t-6 -69.5q-6 -48 -25 -86.5t-48 -65.5z" />
    <glyph glyph-name="R" unicode="R" horiz-adv-x="509" 
d="M139 280q-10 0 -10 -10v-250q0 -8 -6 -14t-14 -6h-24q-8 0 -14 6t-6 14v660q0 8 6 14t14 6h170q43 0 81.5 -16.5t67 -45t45 -67t16.5 -81.5q0 -68 -32.5 -112t-86.5 -78q-18 -12 -7 -32l126 -238q6 -11 1 -20.5t-20 -9.5h-22q-12 0 -18 5.5t-11 14.5l-128 248
q-2 5 -6.5 8.5t-12.5 3.5h-109zM139 636q-10 0 -10 -10v-272q0 -10 10 -10h116q30 0 56.5 11.5t46.5 31.5t31.5 46.5t11.5 56.5t-11.5 56.5t-31.5 46.5t-46.5 31.5t-56.5 11.5h-116z" />
    <glyph glyph-name="S" unicode="S" horiz-adv-x="500" 
d="M400 200q0 34 -12 57.5t-34.5 40.5t-55.5 28.5t-76 21.5q-27 6 -57 17.5t-54.5 31t-40.5 49.5t-16 74q0 45 16 80t43 59t62.5 36.5t74.5 12.5q44 0 80 -15t61.5 -40.5t39.5 -59.5t14 -73v-13q0 -8 -6 -14t-14 -6h-24q-8 0 -14 6t-6 14v13q0 27 -10 49.5t-27.5 39
t-41.5 26t-52 9.5q-33 0 -58 -10.5t-41 -28t-24 -40t-8 -45.5q0 -34 16 -54t40 -32t52.5 -19t54.5 -15q40 -12 74 -27.5t58 -38.5t37.5 -55.5t13.5 -78.5q0 -49 -17.5 -87.5t-47.5 -65.5t-69 -41t-81 -14q-48 0 -88 16.5t-68 45t-43.5 66t-15.5 80.5v16q0 8 6 14t14 6h25
q8 0 14 -6t6 -14v-16q0 -26 9.5 -52t28.5 -46.5t47 -33t65 -12.5q69 0 109.5 40t40.5 104z" />
    <glyph glyph-name="T" unicode="T" horiz-adv-x="424" 
d="M255 636q-10 0 -10 -10v-606q0 -8 -6 -14t-14 -6h-25q-8 0 -14 6t-6 14v606q0 10 -10 10h-148q-8 0 -14 6t-6 14v24q0 8 6 14t14 6h380q8 0 14 -6t6 -14v-24q0 -8 -6 -14t-14 -6h-147v0z" />
    <glyph glyph-name="U" unicode="U" horiz-adv-x="538" 
d="M484 207q0 -45 -17 -84t-46 -68t-68 -46t-84 -17t-84 17t-68 46t-46 68t-17 84v473q0 8 6 14t14 6h24q8 0 14 -6t6 -14v-473q0 -30 11.5 -57.5t32 -48t48 -33t59.5 -12.5t59.5 12.5t48 33t32 48t11.5 57.5v473q0 8 6 14t14 6h24q8 0 14 -6t6 -14v-473z" />
    <glyph glyph-name="V" unicode="V" horiz-adv-x="491" 
d="M294 15q-5 -15 -19 -15h-60q-15 0 -19 15l-190 661q-2 8 2.5 16t16.5 8h29q15 0 19 -15l165 -590q1 -6 6 -6h2q4 0 6 6l166 590q4 15 19 15h29q12 0 16.5 -7.5t2.5 -15.5z" />
    <glyph glyph-name="W" unicode="W" horiz-adv-x="693" 
d="M236 15q-3 -15 -19 -15h-56q-16 0 -19 15l-136 665q-2 8 3 14t17 6h24q16 0 19 -15l113 -572q1 -6 6 -6h2q4 0 6 6l106 572q3 15 19 15h34q16 0 19 -15l114 -572q1 -6 6 -6h2q4 0 6 6l122 572q3 15 19 15h24q12 0 17 -6t3 -14l-145 -665q-3 -15 -19 -15h-56q-16 0 -19 15
l-105 534q-1 4 -4 4t-4 -4l-99 -534v0z" />
    <glyph glyph-name="X" unicode="X" horiz-adv-x="499" 
d="M88 15q-7 -15 -21 -15h-33q-10 0 -15.5 8.5t-0.5 19.5l174 328q5 8 1 14l-160 302q-5 11 0.5 19.5t15.5 8.5h31q12 0 19 -15l130 -250q4 -10 8 0l130 250q7 15 19 15h31q10 0 15.5 -8.5t0.5 -19.5l-160 -302q-4 -6 1 -14l175 -328q5 -11 -0.5 -19.5t-15.5 -8.5h-35
q-13 0 -20 15l-141 274q-4 10 -8 0z" />
    <glyph glyph-name="Y" unicode="Y" horiz-adv-x="442" 
d="M218 328q4 -10 8 0l137 357q5 15 19 15h32q10 0 15.5 -8.5t0.5 -19.5l-175 -431v-221q0 -8 -6 -14t-14 -6h-26q-8 0 -14 6t-6 14v220l-177 432q-5 11 0.5 19.5t15.5 8.5h32q14 0 19 -15z" />
    <glyph glyph-name="Z" unicode="Z" horiz-adv-x="480" 
d="M110 75q-2 -4 -0.5 -7t6.5 -3h310q8 0 14 -6t6 -14v-25q0 -8 -6 -14t-14 -6h-372q-8 0 -14 6t-6 14v47q0 8 5 16l325 543q2 4 0.5 7t-6.5 3h-294q-8 0 -14 6t-6 14v24q0 8 6 14t14 6h352q8 0 14 -6t6 -14v-44q0 -8 -5 -16z" />
    <glyph glyph-name="bracketleft" unicode="[" horiz-adv-x="292" 
d="M126 -24q0 -10 10 -10h126q8 0 14 -6t6 -14v-16q0 -8 -6 -14t-14 -6h-172q-8 0 -14 6t-6 14v770q0 8 6 14t14 6h170q8 0 14 -6t6 -14v-16q0 -8 -6 -14t-14 -6h-124q-10 0 -10 -10v-678z" />
    <glyph glyph-name="backslash" unicode="\" horiz-adv-x="458" 
d="M53 682q-5 11 0.5 19.5t15.5 8.5h21q14 0 19 -15l286 -679q5 -11 -0.5 -19.5t-15.5 -8.5h-21q-14 0 -21 15z" />
    <glyph glyph-name="bracketright" unicode="]" horiz-adv-x="292" 
d="M156 -34q10 0 10 10v678q0 10 -10 10h-124q-8 0 -14 6t-6 14v16q0 8 6 14t14 6h170q8 0 14 -6t6 -14v-770q0 -8 -6 -14t-14 -6h-172q-8 0 -14 6t-6 14v16q0 8 6 14t14 6h126z" />
    <glyph glyph-name="asciicircum" unicode="^" horiz-adv-x="508" 
d="M182 601q-5 -5 -12.5 -10.5t-18.5 -5.5h-43q-10 0 -13 8t2 13l118 112q5 5 10.5 8.5t19.5 3.5h22q13 0 18.5 -3.5t10.5 -8.5l118 -112q5 -5 2 -13t-13 -8h-43q-11 0 -18.5 5.5t-12.5 10.5l-67 65q-7 7 -14 0z" />
    <glyph glyph-name="underscore" unicode="_" horiz-adv-x="610" 
d="M570 0q8 0 14 -6t6 -14v-19q0 -8 -6 -14t-14 -6h-530q-8 0 -14 6t-6 14v19q0 8 6 14t14 6h530z" />
    <glyph glyph-name="grave" unicode="`" horiz-adv-x="297" 
d="M122 730q11 0 16.5 -5.5t9.5 -10.5l76 -109q4 -5 0 -12.5t-14 -7.5h-19q-14 0 -19.5 3.5t-10.5 8.5l-108 112q-5 5 -2 13t13 8h58z" />
    <glyph glyph-name="a" unicode="a" horiz-adv-x="487" 
d="M208 241q-42 0 -74 -23t-32 -67q0 -27 9.5 -46.5t26 -32.5t37.5 -19.5t45 -6.5q69 0 106.5 32t37.5 93v60q0 10 -10 10h-146zM240 455q-23 0 -44 -6.5t-37 -18t-26 -27.5t-10 -36q0 -13 -8 -15t-15 -2h-14q-20 0 -20 20q0 35 15 61t40 43.5t56 26.5t63 9q37 0 69.5 -10
t57 -30.5t39 -51.5t14.5 -74v-324q0 -8 -6 -14t-14 -6h-9q-10 0 -14 7q-4 6 -7 13.5t-13 7.5q-7 0 -18 -6t-27 -13t-37.5 -13t-49.5 -6q-46 0 -80.5 13t-57 35t-33.5 51t-11 61q0 31 11 58t32 46.5t52 30.5t70 11h143q10 0 10 10v39q0 49 -34 79.5t-87 30.5z" />
    <glyph glyph-name="b" unicode="b" horiz-adv-x="505" 
d="M126 320q-3 -31 -3 -70t3 -70q2 -20 9 -43t21 -42.5t37 -32.5t56 -13q37 0 61.5 13t40 32.5t23 42.5t9.5 43q4 31 4 70t-4 70q-2 20 -9.5 43t-23 42.5t-40.5 32.5t-61 13q-33 0 -56 -13t-37 -32.5t-21 -42.5t-9 -43zM254 -10q-28 0 -45 5t-29 11.5t-20.5 11.5t-19.5 5
q-8 0 -14 -5.5t-11 -10.5q-7 -7 -14 -7h-16q-8 0 -14 6t-6 14v667q0 8 6 14t14 6h19q8 0 14 -6t6 -14v-177q0 -14 7 -19.5t18 -5.5q7 0 15.5 4t20.5 8.5t28.5 8.5t40.5 4q39 0 72.5 -15t58.5 -40.5t40.5 -60.5t18.5 -74q2 -30 2 -70t-2 -70q-3 -39 -18.5 -74t-40.5 -60.5
t-58.5 -40.5t-72.5 -15z" />
    <glyph glyph-name="c" unicode="c" 
d="M375 163q0 10 6 13.5t13 3.5h21q8 0 14 -6t6 -14q0 -34 -13.5 -64.5t-38.5 -54t-59.5 -37.5t-76.5 -14q-45 0 -81 15t-62 40.5t-41 60.5t-18 74q-2 30 -2 70t2 70q3 39 18 74t41 60.5t62 40.5t81 15q42 0 76.5 -14t59.5 -37.5t38.5 -54t13.5 -64.5q0 -8 -4.5 -14
t-12.5 -6h-23q-7 0 -13 4t-6 12q0 22 -8.5 43t-25 37t-40.5 25.5t-55 9.5q-38 0 -64 -13t-42.5 -32.5t-24.5 -42.5t-10 -43q-3 -31 -3 -70t3 -70q2 -20 10 -43t24.5 -42.5t42.5 -32.5t64 -13q33 0 57 10.5t40 27t23.5 36.5t7.5 40z" />
    <glyph glyph-name="d" unicode="d" horiz-adv-x="489" 
d="M106 320q-4 -31 -4 -70t4 -70q2 -20 9.5 -43t23 -42.5t40 -32.5t61.5 -13q33 0 56 13t37 32.5t21 42.5t9 43q3 31 3 70t-3 70q-2 20 -9 43t-21 42.5t-37 32.5t-56 13q-36 0 -61 -13t-40.5 -32.5t-23 -42.5t-9.5 -43zM235 -10q-39 0 -72.5 15t-58.5 40.5t-40.5 60.5
t-18.5 74q-2 30 -2 70t2 70q3 39 18.5 74t40.5 60.5t58.5 40.5t72.5 15q24 0 40.5 -4t28.5 -8.5t20 -8.5t16 -4q11 0 18 5.5t7 19.5v177q0 8 6 14t14 6h19q8 0 14 -6t6 -14v-667q0 -8 -6 -14t-14 -6h-16q-7 0 -14 7q-5 5 -11 10.5t-14 5.5q-11 0 -19.5 -5t-20.5 -11.5
t-29 -11.5t-45 -5z" />
    <glyph glyph-name="e" unicode="e" horiz-adv-x="492" 
d="M251 451q-67 0 -106.5 -41t-39.5 -118q0 -10 10 -10h270q10 0 10 10q0 38 -11 67.5t-30.5 50t-45.5 31t-57 10.5zM113 226q-10 0 -10 -10q0 -36 8.5 -66.5t26.5 -53t45.5 -35t66.5 -12.5q29 0 51.5 8t39 21.5t27 30t16.5 34.5q3 10 9.5 13.5t13.5 3.5h20q8 0 13.5 -4.5
t3.5 -15.5q-5 -33 -21 -60.5t-41.5 -47.5t-59 -31t-72.5 -11q-45 0 -81.5 15t-63 40.5t-42 60.5t-18.5 74q-2 30 -2 70t2 70q3 39 18.5 74t42 60.5t63 40.5t81.5 15q42 0 78.5 -16t63.5 -43t42.5 -63.5t15.5 -77.5v-64q0 -8 -6 -14t-14 -6h-317z" />
    <glyph glyph-name="f" unicode="f" horiz-adv-x="342" 
d="M292 651q-29 0 -49.5 -10.5t-34 -28.5t-20 -42t-6.5 -50v-15q0 -10 10 -10h114q8 0 14 -6t6 -14v-19q0 -8 -6 -14t-14 -6h-114q-10 0 -10 -10v-406q0 -8 -6 -14t-14 -6h-20q-8 0 -14 6t-6 14v406q0 10 -10 10h-87q-8 0 -14 6t-6 14v19q0 8 6 14t14 6h87q10 0 10 10v15
q0 42 12.5 76.5t35 59t53.5 38t69 13.5h5q8 0 14 -6t6 -14v-16q0 -8 -6 -14t-14 -6h-5z" />
    <glyph glyph-name="g" unicode="g" horiz-adv-x="484" 
d="M363 180q3 31 3 70t-3 70q-2 20 -9 43t-21 42.5t-37 32.5t-56 13q-37 0 -61.5 -13t-40 -32.5t-23 -42.5t-9.5 -43q-4 -31 -4 -70t4 -70q2 -20 9.5 -43t23 -42.5t40.5 -32.5t61 -13q33 0 56 13t37 32.5t21 42.5t9 43zM235 510q28 0 45 -5t29 -11.5t20.5 -11.5t19.5 -5
q8 0 14 5.5t11 10.5q7 7 14 7h16q8 0 14 -6t6 -14v-510q0 -36 -13 -69t-36.5 -57.5t-56 -39t-72.5 -14.5q-30 0 -58.5 8.5t-52.5 26t-41.5 43t-24.5 59.5q-5 23 18 23h16q13 0 18 -6t8 -14q5 -14 14 -28.5t23 -26t34 -19t46 -7.5q28 0 50 10.5t37.5 27.5t23.5 38.5t8 44.5
v20q0 25 -22 25q-8 0 -19 -4t-25 -8.5t-30.5 -8.5t-33.5 -4q-39 0 -72.5 15t-58.5 40.5t-40.5 60.5t-18.5 74q-2 30 -2 70t2 70q3 39 18.5 74t40.5 60.5t58.5 40.5t72.5 15z" />
    <glyph glyph-name="h" unicode="h" horiz-adv-x="477" 
d="M368 336q0 51 -34 83t-88 32q-27 0 -49.5 -8.5t-38.5 -23.5t-25 -35t-9 -43v-321q0 -8 -6 -14t-14 -6h-19q-8 0 -14 6t-6 14v667q0 8 6 14t14 6h19q8 0 14 -6t6 -14v-181q0 -7 5.5 -14t16.5 -7q7 0 16.5 4t22.5 8.5t29.5 8.5t38.5 4q39 0 71.5 -14t55 -38t35 -55.5
t12.5 -66.5v-316q0 -8 -6 -14t-14 -6h-19q-8 0 -14 6t-6 14v316z" />
    <glyph glyph-name="i" unicode="i" horiz-adv-x="214" 
d="M149 638q0 -16 -16 -16h-52q-16 0 -16 16v53q0 6 4.5 11t11.5 5h52q7 0 11.5 -5t4.5 -11v-53zM138 20q0 -8 -4.5 -14t-15.5 -6h-20q-11 0 -15.5 6t-4.5 14v460q0 8 4.5 14t15.5 6h20q11 0 15.5 -6t4.5 -14v-460z" />
    <glyph glyph-name="j" unicode="j" horiz-adv-x="231" 
d="M94 480q0 8 4.5 14t15.5 6h20q11 0 15.5 -6t4.5 -14v-510q0 -38 -10.5 -70.5t-31.5 -57t-52.5 -38.5t-72.5 -14h-42q-8 0 -14 6t-6 14v19q0 8 6 14t14 6h42q19 0 38 6t34.5 20.5t25 37.5t9.5 57v510zM166 638q0 -16 -16 -16h-52q-16 0 -16 16v53q0 6 4.5 11t11.5 5h52
q7 0 11.5 -5t4.5 -11v-53z" />
    <glyph glyph-name="k" unicode="k" horiz-adv-x="439" 
d="M174 272q-13 -13 0 -24l214 -213q11 -10 6.5 -22.5t-20.5 -12.5h-20q-11 0 -18.5 5.5t-11.5 9.5l-192 194q-2 2 -5 2t-3 -4v-187q0 -8 -6 -14t-14 -6h-19q-8 0 -14 6t-6 14v667q0 8 6 14t14 6h19q8 0 14 -6t6 -14v-375q0 -4 3 -4.5t5 2.5l181 177q4 4 10.5 8.5t17.5 4.5
h18q17 0 19.5 -12.5t-5.5 -20.5z" />
    <glyph glyph-name="l" unicode="l" horiz-adv-x="190" 
d="M125 20q0 -8 -6 -14t-14 -6h-20q-8 0 -14 6t-6 14v667q0 8 6 14t14 6h20q8 0 14 -6t6 -14v-667z" />
    <glyph glyph-name="m" unicode="m" horiz-adv-x="738" 
d="M629 336q0 56 -30 85.5t-80 29.5q-23 0 -44 -9t-37 -24.5t-25.5 -36.5t-9.5 -45v-316q0 -8 -6 -14t-14 -6h-18q-8 0 -14 6t-6 14v316q0 19 -8 39.5t-23 37.5t-36.5 27.5t-48.5 10.5q-23 0 -43 -10t-35 -26t-23.5 -35.5t-8.5 -38.5v-321q0 -8 -6 -14t-14 -6h-19
q-8 0 -14 6t-6 14v460q0 8 6 14t14 6h16q7 0 14 -7l10.5 -10.5t14.5 -5.5q12 0 22.5 5t23 11.5t28 11.5t38.5 5q22 0 39 -5t30 -12.5t23.5 -15.5t18.5 -15q11 -9 19.5 -9t19.5 9q8 7 19.5 15t27.5 15.5t37 12.5t48 5q39 0 69 -13t50 -36.5t30 -55.5t10 -69v-316q0 -8 -6 -14
t-14 -6h-19q-8 0 -14 6t-6 14v316z" />
    <glyph glyph-name="n" unicode="n" horiz-adv-x="482" 
d="M432 20q0 -8 -6 -14t-14 -6h-19q-8 0 -14 6t-6 14v316q0 63 -36.5 89t-90.5 26q-27 0 -50 -8.5t-40.5 -23.5t-27 -35t-9.5 -43v-321q0 -8 -6 -14t-14 -6h-19q-8 0 -14 6t-6 14v460q0 8 6 14t14 6h16q7 0 14 -7q5 -5 10 -10.5t14 -5.5q11 0 20.5 5t22 11.5t30.5 11.5t46 5
q39 0 72 -11t57 -33t37 -54.5t13 -75.5v-316z" />
    <glyph glyph-name="o" unicode="o" horiz-adv-x="500" 
d="M106 320q-3 -31 -3 -70t3 -70q2 -20 10 -43t24.5 -42.5t42.5 -32.5t64 -13q37 0 63.5 13t43 32.5t24.5 42.5t10 43q3 31 3 70t-3 70q-2 20 -10 43t-24.5 42.5t-43 32.5t-63.5 13q-38 0 -64 -13t-42.5 -32.5t-24.5 -42.5t-10 -43zM45 180q-2 30 -2 70t2 70q3 39 18 74
t41 60.5t62 40.5t81 15t81 -15t62 -40.5t41 -60.5t18 -74q2 -30 2 -70t-2 -70q-3 -39 -18 -74t-41 -60.5t-62 -40.5t-81 -15t-81 15t-62 40.5t-41 60.5t-18 74z" />
    <glyph glyph-name="p" unicode="p" horiz-adv-x="489" 
d="M380 180q4 31 4 70t-4 70q-2 20 -9.5 43t-23 42.5t-40 32.5t-61.5 13q-33 0 -56 -13t-37 -32.5t-21 -42.5t-9 -43q-3 -31 -3 -70t3 -70q2 -20 9 -43t21 -42.5t37 -32.5t56 -13q36 0 61 13t40.5 32.5t23 42.5t9.5 43zM251 510q39 0 72.5 -15t58.5 -40.5t40.5 -60.5
t18.5 -74q2 -30 2 -70t-2 -70q-3 -39 -18.5 -74t-40.5 -60.5t-58.5 -40.5t-72.5 -15q-24 0 -41 4t-29 8.5t-21 8.5t-16 4q-10 0 -16.5 -5.5t-6.5 -19.5v-170q0 -8 -6 -14t-14 -6h-19q-8 0 -14 6t-6 14v660q0 8 6 14t14 6h16q7 0 14 -7q5 -5 11 -10.5t14 -5.5q11 0 19.5 5
t20.5 11.5t29 11.5t45 5z" />
    <glyph glyph-name="q" unicode="q" horiz-adv-x="484" 
d="M363 180q3 31 3 70t-3 70q-2 20 -9 43t-21 42.5t-37 32.5t-56 13q-37 0 -61.5 -13t-40 -32.5t-23 -42.5t-9.5 -43q-4 -31 -4 -70t4 -70q2 -20 9.5 -43t23 -42.5t40.5 -32.5t61 -13q33 0 56 13t37 32.5t21 42.5t9 43zM235 510q28 0 45 -5t29 -11.5t20.5 -11.5t19.5 -5
q8 0 14 5.5t11 10.5q7 7 14 7h16q8 0 14 -6t6 -14v-660q0 -8 -6 -14t-14 -6h-19q-8 0 -14 6t-6 14v170q0 14 -7 19.5t-16 5.5q-8 0 -16.5 -4t-20.5 -8.5t-29 -8.5t-41 -4q-39 0 -72.5 15t-58.5 40.5t-40.5 60.5t-18.5 74q-2 30 -2 70t2 70q3 39 18.5 74t40.5 60.5t58.5 40.5
t72.5 15z" />
    <glyph glyph-name="r" unicode="r" horiz-adv-x="328" 
d="M275 442q-28 0 -55.5 -8t-50 -27.5t-36.5 -52.5t-14 -84v-250q0 -8 -6 -14t-14 -6h-19q-8 0 -14 6t-6 14v460q0 8 6 14t14 6h13q16 0 20 -20l4.5 -22.5t13.5 -12.5q10 0 18 8.5t22.5 19t38.5 19t66 8.5h2q8 0 14 -6t6 -14v-18q0 -8 -6 -14t-14 -6h-3z" />
    <glyph glyph-name="s" unicode="s" horiz-adv-x="449" 
d="M398 361q0 -11 -6 -16t-14 -5h-19q-8 0 -14 5t-6 16q0 37 -30.5 65t-83.5 28t-84.5 -25t-31.5 -57q0 -21 10.5 -34t26.5 -21t36 -12.5t38 -7.5q31 -6 66 -15t64 -25.5t48 -43.5t19 -68q0 -32 -13.5 -60t-39 -49t-61 -33.5t-78.5 -12.5q-38 0 -72.5 11t-61.5 31.5t-43 50
t-16 67.5v13q0 8 6 14t14 6h19q8 0 14 -6t6 -14v-13q0 -23 10.5 -41.5t28.5 -32t42.5 -21t52.5 -7.5q62 0 97.5 28t35.5 69q0 24 -13 40t-33 26.5t-44.5 16.5t-47.5 9q-33 5 -64 13.5t-54.5 24t-38 39t-14.5 58.5q0 29 14.5 54.5t39 44t56.5 29t66 10.5t65 -10t55 -29.5
t38.5 -47t14.5 -62.5z" />
    <glyph glyph-name="t" unicode="t" horiz-adv-x="360" 
d="M312 495q8 0 14 -6t6 -14v-19q0 -8 -6 -14t-14 -6h-126q-10 0 -10 -10v-266q0 -53 20.5 -78.5t74.5 -25.5h51q8 0 14 -6t6 -14v-16q0 -8 -6 -14t-14 -6h-51q-78 0 -116.5 36.5t-38.5 123.5v266q0 10 -10 10h-81q-8 0 -14 6t-6 14v19q0 8 6 14t14 6h81q10 0 10 10v155
q0 8 6 14t14 6h20q8 0 14 -6t6 -14v-155q0 -10 10 -10h126z" />
    <glyph glyph-name="u" unicode="u" horiz-adv-x="477" 
d="M55 480q0 8 6 14t14 6h19q8 0 14 -6t6 -14v-316q0 -63 36.5 -89t90.5 -26q27 0 50 8.5t40.5 23.5t27 35t9.5 43v321q0 8 6 14t14 6h19q8 0 14 -6t6 -14v-460q0 -8 -6 -14t-14 -6h-16q-7 0 -14 7q-5 5 -10 10.5t-14 5.5q-11 0 -20.5 -5t-22 -11.5t-30.5 -11.5t-46 -5
q-39 0 -72 11t-57 33t-37 54.5t-13 75.5v316z" />
    <glyph glyph-name="v" unicode="v" horiz-adv-x="470" 
d="M391 485q5 15 19 15h26q12 0 17 -7.5t2 -15.5l-177 -462q-6 -15 -19 -15h-51q-13 0 -19 15l-177 462q-3 8 2 15.5t17 7.5h26q14 0 19 -15l150 -405q2 -6 7.5 -6t7.5 6z" />
    <glyph glyph-name="w" unicode="w" horiz-adv-x="636" 
d="M174 126q2 -6 6.5 -6t6.5 6l96 359q4 15 19 15h32q15 0 19 -15l96 -359q2 -6 6.5 -6t6.5 6l100 359q4 15 19 15h20q12 0 16.5 -7.5t2.5 -15.5l-136 -462q-5 -15 -19 -15h-23q-15 0 -19 15l-101 381q-1 3 -4 3t-4 -3l-101 -381q-5 -15 -19 -15h-23q-15 0 -19 15l-136 462
q-2 8 2.5 15.5t16.5 7.5h20q15 0 19 -15z" />
    <glyph glyph-name="x" unicode="x" horiz-adv-x="436" 
d="M222 200q-4 8 -8 0l-121 -190q-2 -4 -6.5 -7t-15.5 -3h-24q-14 0 -19 10.5t3 22.5l149 227q4 7 1 13l-133 194q-8 12 -3 22.5t19 10.5h22q11 0 15.5 -3t6.5 -7l106 -165q4 -8 8 0l106 165q2 4 6.5 7t15.5 3h22q14 0 19 -10.5t-3 -22.5l-133 -194q-3 -6 1 -13l149 -227
q8 -12 3 -22.5t-19 -10.5h-24q-11 0 -15.5 3t-6.5 7z" />
    <glyph glyph-name="y" unicode="y" horiz-adv-x="442" 
d="M227 117q4 -10 8 0l134 368q5 15 19 15h28q12 0 17 -7.5t2 -15.5l-254 -662q-5 -15 -19 -15h-22q-12 0 -17 7.5t-2 15.5l74 201q3 8 1 13l-189 440q-3 8 2 15.5t17 7.5h28q14 0 19 -15z" />
    <glyph glyph-name="z" unicode="z" horiz-adv-x="470" 
d="M345 432q3 4 1.5 7t-6.5 3h-270q-8 0 -14 6t-6 14v18q0 8 6 14t14 6h330q8 0 14 -6t6 -14v-29q0 -14 -6.5 -23.5t-13.5 -17.5l-284 -342q-3 -4 -1.5 -7t6.5 -3h289q8 0 14 -6t6 -14v-18q0 -8 -6 -14t-14 -6h-350q-8 0 -14 6t-6 14v31q0 10 2 15t11 16z" />
    <glyph glyph-name="braceleft" unicode="{" horiz-adv-x="346" 
d="M316 -33q8 0 14 -6t6 -14v-17q0 -8 -6 -14t-14 -6h-22q-50 0 -88 17.5t-64 46.5t-39.5 67t-13.5 79v140q0 8 -5.5 12.5t-12.5 7.5l-11 5q-8 3 -14 7.5t-6 12.5v30q0 8 6 12.5t14 7.5l11 5q7 3 12.5 7.5t5.5 12.5v130q0 41 13.5 79t39.5 67t64 46.5t88 17.5h12q8 0 14 -6
t6 -14v-17q0 -8 -6 -14t-14 -6h-12q-35 0 -62.5 -12t-46 -33t-28 -49t-9.5 -59v-125q0 -13 -4.5 -23.5t-11 -19t-13.5 -14t-12 -8.5q5 -3 12 -9t13.5 -14t11 -18.5t4.5 -23.5v-135q0 -32 9.5 -59.5t28 -48.5t46 -33t62.5 -12h22z" />
    <glyph glyph-name="bar" unicode="|" horiz-adv-x="225" 
d="M125 -50q0 -8 -6 -14t-14 -6h-15q-8 0 -14 6t-6 14v750q0 8 6 14t14 6h15q8 0 14 -6t6 -14v-750z" />
    <glyph glyph-name="braceright" unicode="}" horiz-adv-x="346" 
d="M52 -33q35 0 62.5 12t46 33t28 48.5t9.5 59.5v135q0 13 4.5 23.5t11 18.5t13.5 14t12 9q-5 3 -12 8.5t-13.5 14t-11 19t-4.5 23.5v125q0 31 -9.5 59t-28 49t-46 33t-62.5 12h-12q-8 0 -14 6t-6 14v17q0 8 6 14t14 6h12q49 0 87.5 -17.5t64.5 -46.5t39.5 -67t13.5 -79
v-130q0 -8 5.5 -12.5t12.5 -7.5l11 -5q8 -3 14 -7.5t6 -12.5v-30q0 -8 -6 -12.5t-14 -7.5l-11 -5q-7 -3 -12.5 -7.5t-5.5 -12.5v-140q0 -41 -13.5 -79t-39.5 -67t-64.5 -46.5t-87.5 -17.5h-22q-8 0 -14 6t-6 14v17q0 8 6 14t14 6h22z" />
    <glyph glyph-name="asciitilde" unicode="~" horiz-adv-x="548" 
d="M161 248q-17 0 -35.5 -7.5t-26.5 -18.5q-8 -10 -18.5 -8t-10.5 17v24q0 27 26.5 44t64.5 17q39 0 64.5 -7t48 -15.5t48.5 -15.5t67 -7q17 0 35.5 7.5t26.5 18.5q8 10 18.5 8t10.5 -17v-24q0 -27 -26.5 -44t-64.5 -17q-39 0 -64.5 7t-48 15.5t-49 15.5t-66.5 7z" />
    <glyph glyph-name="exclamdown" unicode="&#xa1;" horiz-adv-x="234" 
d="M106 -190q-8 0 -14 6t-6 14v470q0 8 6 14t14 6h20q8 0 14 -6t6 -14v-470q0 -8 -6 -14t-14 -6h-20zM70 494q0 16 16 16h62q16 0 16 -16v-63q0 -6 -4.5 -11t-11.5 -5h-62q-7 0 -11.5 5t-4.5 11v63z" />
    <glyph glyph-name="cent" unicode="&#xa2;" 
d="M288 507q67 -12 107 -57.5t40 -109.5q0 -8 -4.5 -14t-12.5 -6h-29q-7 0 -13 4t-6 12q0 19 -7.5 38.5t-23 35.5t-38.5 25.5t-54 9.5q-35 0 -60 -12t-41 -30.5t-24.5 -40.5t-9.5 -42q-2 -31 -2 -70t2 -70q1 -20 9.5 -42t24.5 -40.5t41 -30.5t60 -12q30 0 53 9.5t38.5 25
t23 34.5t7.5 39q0 10 6 13.5t13 3.5h27q8 0 14 -6t6 -14q0 -32 -10.5 -60t-29.5 -50t-46.5 -37t-60.5 -20q-10 -1 -10 -10v-33q0 -8 -6 -14t-14 -6h-22q-8 0 -14 6t-6 14v33q0 9 -10 10q-36 6 -64.5 23t-49 42t-32.5 56t-15 66q-2 30 -2 70t2 70q3 34 15 65.5t32.5 56t49 42
t64.5 23.5q10 1 10 10v33q0 8 6 14t14 6h22q8 0 14 -6t6 -14v-33q0 -9 10 -10z" />
    <glyph glyph-name="sterling" unicode="&#xa3;" horiz-adv-x="525" 
d="M455 530q0 -8 -6 -14t-14 -6h-23q-8 0 -14 6t-6 14v10q0 16 -4.5 34.5t-16 34.5t-30 26.5t-46.5 10.5t-46 -10.5t-28 -26.5t-14 -34.5t-4 -34.5v-142q0 -10 10 -10h154q8 0 14 -6t6 -14v-20q0 -8 -6 -14t-14 -6h-154q-5 0 -7.5 -3.5t-2.5 -8.5v-106q0 -45 -10.5 -83.5
t-24.5 -54.5q-3 -3 -2 -5.5t6 -2.5h283q8 0 14 -6t6 -14v-24q0 -8 -6 -14t-14 -6h-394q-9 0 -15 6t-6 14v27q0 8 6 14t14 6h5q15 0 28.5 11t23.5 30.5t16 45.5t6 56v106q0 5 -2.5 8.5t-7.5 3.5h-60q-8 0 -14 6t-6 14v20q0 8 6 14t14 6h60q10 0 10 10v142q0 35 11 66t31.5 54
t49.5 36.5t64 13.5t64.5 -13.5t50.5 -36.5t33 -54t12 -66v-10z" />
    <glyph glyph-name="currency" unicode="&#xa4;" horiz-adv-x="664" 
d="M448 134q-27 -20 -59.5 -31t-68.5 -11q-37 0 -69.5 11.5t-59.5 31.5l-73 -72q-6 -6 -14 -6t-14 6l-14 14q-6 6 -6 14t6 14l72 73q-21 27 -32.5 60t-11.5 70q0 36 11 68.5t31 59.5l-70 71q-6 6 -6 14t6 14l14 14q14 14 28 0l70 -71q28 21 61 33.5t71 12.5q37 0 70 -12
t60 -32l70 69q14 14 28 0l14 -14q14 -14 0 -28l-70 -70q20 -27 32 -60t12 -69q0 -38 -12 -71t-33 -61l71 -71q14 -14 0 -28l-14 -14q-6 -6 -14 -6t-14 6zM319 151q33 0 61.5 12.5t49.5 33.5t33.5 49.5t12.5 61.5t-12.5 61.5t-33.5 49.5t-49.5 33.5t-61.5 12.5t-61.5 -12.5
t-49.5 -33.5t-33.5 -49.5t-12.5 -61.5t12.5 -61.5t33.5 -49.5t49.5 -33.5t61.5 -12.5z" />
    <glyph glyph-name="yen" unicode="&#xa5;" horiz-adv-x="458" 
d="M304 345q-7 0 -9 -5l-12 -30q-2 -5 0 -8.5t7 -3.5h96q8 0 14 -6t6 -14v-16q0 -8 -6 -14t-14 -6h-121q-10 0 -10 -10v-212q0 -8 -6 -14t-14 -6h-26q-8 0 -14 6t-6 14v212q0 10 -10 10h-123q-8 0 -14 6t-6 14v16q0 8 6 14t14 6h97q5 0 7 3.5t0 8.5l-12 30q-2 5 -9 5h-83
q-8 0 -14 6t-6 14v16q0 8 6 14t14 6h55q5 0 7 3.5t0 8.5l-106 259q-5 11 0.5 19.5t15.5 8.5h32q14 0 19 -15l139 -357q4 -10 8 0q21 56 39 103t34.5 89t31.5 82t32 83q5 15 19 15h32q10 0 15.5 -8.5t0.5 -19.5l-105 -259q-2 -5 0 -8.5t7 -3.5h54q8 0 14 -6t6 -14v-16
q0 -8 -6 -14t-14 -6h-82z" />
    <glyph glyph-name="brokenbar" unicode="&#xa6;" horiz-adv-x="216" 
d="M127 20q0 -8 -6 -14t-14 -6h-22q-8 0 -14 6t-6 14v267q0 8 6 14t14 6h22q8 0 14 -6t6 -14v-267zM127 420q0 -8 -6 -14t-14 -6h-22q-8 0 -14 6t-6 14v267q0 8 6 14t14 6h22q8 0 14 -6t6 -14v-267z" />
    <glyph glyph-name="section" unicode="&#xa7;" horiz-adv-x="530" 
d="M317 79q7 -6 17 -6t18 6q20 17 33.5 45.5t13.5 52.5q0 16 -9.5 39t-32.5 45l-151 136q-8 8 -18 7.5t-18 -7.5q-19 -17 -37.5 -42t-18.5 -51q0 -17 9 -38t29 -39zM397 310q30 -27 47 -60.5t17 -71.5t-20 -75t-49 -59q-9 -7 -10 -17t7 -21q14 -18 19.5 -37t5.5 -39
q0 -37 -13.5 -65.5t-36.5 -48t-53 -29.5t-63 -10q-36 0 -66 10t-52 30t-34.5 50.5t-12.5 71.5v41q0 8 6 14t14 6h21q8 0 14 -6t6 -14v-41q0 -46 27.5 -75t76.5 -29q20 0 38 5t31.5 16t21 29.5t7.5 44.5q0 25 -14.5 44.5t-34.5 36.5q-26 22 -47 40t-42 36.5t-44 39.5t-52 48
q-32 29 -45.5 58.5t-13.5 73.5q0 36 19.5 68.5t51.5 55.5q23 17 4 39q-17 20 -23 41.5t-6 45.5q0 38 13.5 67t36.5 48.5t53 29.5t63 10q36 0 65.5 -11.5t50.5 -32.5t33 -51t12 -67v-30q0 -8 -6 -14t-14 -6h-21q-8 0 -14 6t-6 14v30q0 19 -6 37.5t-18.5 33t-31.5 23.5t-44 9
q-27 0 -46 -7.5t-30.5 -20.5t-17 -30t-5.5 -36q0 -25 12.5 -45t31.5 -37q27 -24 50.5 -45.5t46 -41t44.5 -39.5t46 -41z" />
    <glyph glyph-name="dieresis" unicode="&#xa8;" horiz-adv-x="398" 
d="M148 638q0 -16 -16 -16h-52q-16 0 -16 16v53q0 6 4.5 11t11.5 5h52q7 0 11.5 -5t4.5 -11v-53zM319 638q0 -16 -16 -16h-52q-16 0 -16 16v53q0 6 4.5 11t11.5 5h52q7 0 11.5 -5t4.5 -11v-53z" />
    <glyph glyph-name="copyright" unicode="&#xa9;" horiz-adv-x="780" 
d="M40 350q0 72 27.5 136t75 111.5t111.5 75t136 27.5t136 -27.5t111.5 -75t75 -111.5t27.5 -136t-27.5 -136t-75 -111.5t-111.5 -75t-136 -27.5t-136 27.5t-111.5 75t-75 111.5t-27.5 136zM390 643q-60 0 -113.5 -23t-93.5 -63t-63.5 -93.5t-23.5 -113.5t23.5 -113.5
t63.5 -93.5t93.5 -63.5t113.5 -23.5t113.5 23.5t93.5 63.5t63 93.5t23 113.5t-23 113.5t-63 93.5t-93.5 63t-113.5 23zM541 274q0 -29 -11.5 -54.5t-31.5 -44t-48 -29t-62 -10.5q-37 0 -65.5 12t-49 33t-32.5 49t-15 60q-2 25 -2 57t2 57q3 31 15 59t32.5 49t49 33.5
t65.5 12.5q34 0 62 -10.5t48 -29t31.5 -44t11.5 -54.5q0 -16 -13 -16h-25q-6 0 -11 2.5t-5 9.5q0 16 -7 32t-20 28.5t-31.5 20t-40.5 7.5q-25 0 -44 -9.5t-32.5 -24.5t-21 -32.5t-8.5 -33.5q-2 -26 -2 -57t2 -57q1 -16 8.5 -33t21 -30.5t32.5 -22t44 -8.5q45 0 71.5 24
t26.5 57q0 8 5 10.5t11 2.5h23q16 0 16 -16z" />
    <glyph glyph-name="ordfeminine" unicode="&#xaa;" horiz-adv-x="313" 
d="M133 565q-19 0 -28.5 -10.5t-9.5 -26.5q0 -37 44 -37q39 0 53 15.5t14 41.5v12q0 5 -5 5h-68zM154 665q-20 0 -34.5 -7.5t-14.5 -21.5q0 -6 -4 -7t-7 -1h-22q-10 0 -10 10q0 17 8.5 30t21.5 22t29.5 13.5t32.5 4.5q37 0 66 -23.5t29 -66.5v-155q0 -10 -10 -10h-15
q-4 0 -7 3q-2 3 -4 7t-6 4q-7 0 -22.5 -9.5t-43.5 -9.5q-46 0 -68.5 24t-22.5 56q0 31 21.5 55.5t61.5 24.5h66q5 0 5 5v12q0 16 -13 28t-37 12z" />
    <glyph glyph-name="guillemotleft" unicode="&#xab;" horiz-adv-x="492" 
d="M152 435q2 4 8 9.5t17 5.5h19q14 0 20 -9t-4 -24l-85 -145q-8 -11 0 -24l85 -145q10 -15 4 -24t-20 -9h-19q-11 0 -17 5.5t-8 9.5l-96 161q-5 8 -5 14t5 14zM314 435q2 4 8 9.5t17 5.5h19q14 0 20 -9t-4 -24l-85 -145q-8 -11 0 -24l85 -145q10 -15 4 -24t-20 -9h-19
q-11 0 -17 5.5t-8 9.5l-96 161q-5 8 -5 14t5 14z" />
    <glyph glyph-name="logicalnot" unicode="&#xac;" horiz-adv-x="530" 
d="M420 230q0 10 -10 10h-340q-8 0 -14 6t-6 14v20q0 8 6 14t14 6h390q8 0 14 -6t6 -14v-170q0 -8 -6 -14t-14 -6h-20q-8 0 -14 6t-6 14v120z" />
    <glyph glyph-name="registered" unicode="&#xae;" horiz-adv-x="780" 
d="M40 350q0 72 27.5 136t75 111.5t111.5 75t136 27.5t136 -27.5t111.5 -75t75 -111.5t27.5 -136t-27.5 -136t-75 -111.5t-111.5 -75t-136 -27.5t-136 27.5t-111.5 75t-75 111.5t-27.5 136zM390 643q-60 0 -113.5 -23t-93.5 -63t-63.5 -93.5t-23.5 -113.5t23.5 -113.5
t63.5 -93.5t93.5 -63.5t113.5 -23.5t113.5 23.5t93.5 63.5t63 93.5t23 113.5t-23 113.5t-63 93.5t-93.5 63t-113.5 23zM415 344q31 0 54.5 20t23.5 58t-23.5 58t-54.5 20h-87q-8 0 -8 -8v-140q0 -8 8 -8h87zM483 310l-16.5 -10.5t1.5 -14.5l67 -115q5 -9 1 -16.5t-16 -7.5
h-22q-10 0 -14 4t-9 12l-68 117q-4 10 -15 10h-64q-8 0 -8 -8v-119q0 -16 -16 -16h-23q-6 0 -11 4.5t-5 11.5v377q0 7 5 11.5t11 4.5h134q27 0 51 -10.5t42 -28.5t28.5 -42t10.5 -51q0 -36 -17.5 -66t-46.5 -47z" />
    <glyph glyph-name="macron" unicode="&#xaf;" horiz-adv-x="402" 
d="M322 694q8 0 14 -6t6 -14v-20q0 -8 -6 -14t-14 -6h-242q-8 0 -14 6t-6 14v20q0 8 6 14t14 6h242z" />
    <glyph glyph-name="degree" unicode="&#xb0;" horiz-adv-x="370" 
d="M36 585q0 31 11.5 58t32 47t47.5 31.5t58 11.5t58 -11.5t47 -31.5t31.5 -47t11.5 -58t-11.5 -58t-31.5 -47.5t-47 -32t-58 -11.5t-58 11.5t-47.5 32t-32 47.5t-11.5 58zM92 585q0 -18 7.5 -35t20.5 -30t30 -20.5t35 -7.5t35 7.5t30 20.5t20.5 30t7.5 35t-7.5 35t-20.5 30
t-30 20.5t-35 7.5t-35 -7.5t-30 -20.5t-20.5 -30t-7.5 -35z" />
    <glyph glyph-name="plusminus" unicode="&#xb1;" horiz-adv-x="540" 
d="M70 388q-8 0 -14 6t-6 14v21q0 8 6 14t14 6h159q10 0 10 10v159q0 8 6 14t14 6h22q8 0 14 -6t6 -14v-159q0 -10 10 -10h159q8 0 14 -6t6 -14v-21q0 -8 -6 -14t-14 -6h-159q-10 0 -10 -10v-160q0 -8 -6 -14t-14 -6h-22q-8 0 -14 6t-6 14v160q0 10 -10 10h-159zM467 70
q8 0 14 -6t6 -14v-30q0 -8 -6 -14t-14 -6h-394q-8 0 -14 6t-6 14v30q0 8 6 14t14 6h394z" />
    <glyph glyph-name="twosuperior" unicode="&#xb2;" horiz-adv-x="231" 
d="M150 605q0 17 -10 26t-26 9q-17 0 -26 -9.5t-9 -25.5v-8q0 -10 -10 -10h-40q-10 0 -10 10v8q0 40 27.5 67.5t67.5 27.5q22 0 39.5 -8t29.5 -21t18.5 -30.5t6.5 -35.5q0 -58 -39 -105l-74 -88q-2 -2 -1 -5t5 -3h107q4 0 7 -1.5t3 -8.5v-38q0 -10 -10 -10h-181
q-10 0 -10 10v46q0 6 1 8.5t3 4.5l99 115q16 18 24 36t8 39z" />
    <glyph glyph-name="threesuperior" unicode="&#xb3;" horiz-adv-x="243" 
d="M167 450q0 16 -9.5 32t-34.5 16h-8q-10 0 -10 10v41q0 10 10 10h8q22 0 29 13.5t7 27.5q0 21 -12 29.5t-25 8.5t-24.5 -9t-11.5 -24v-8q0 -10 -10 -10h-42q-10 0 -10 10v8q0 40 28 67.5t70 27.5q20 0 38.5 -7.5t32 -20t21.5 -30t8 -37.5q0 -21 -7.5 -39t-21.5 -30
q-7 -7 -1 -12q17 -14 27 -34.5t10 -44.5q0 -43 -28.5 -73t-78.5 -30q-22 0 -41.5 8t-33.5 22t-22.5 33t-8.5 40v4q0 10 10 10h43q10 0 10 -10v-4q0 -16 11.5 -28t31.5 -12q25 0 35 14.5t10 30.5z" />
    <glyph glyph-name="acute" unicode="&#xb4;" horiz-adv-x="297" 
d="M212 730q10 0 13 -8t-2 -13l-108 -112q-5 -5 -10.5 -8.5t-19.5 -3.5h-19q-10 0 -14 7.5t0 12.5l76 109q4 5 9.5 10.5t16.5 5.5h58z" />
    <glyph glyph-name="uni00B5" unicode="&#xb5;" horiz-adv-x="833" 
d="M62 480q0 8 6 14t14 6h19q8 0 14 -6t6 -14v-316q0 -63 36.5 -89t90.5 -26q27 0 50 8.5t40.5 23.5t27 35t9.5 43v321q0 8 6 14t14 6h19q8 0 14 -6t6 -14v-460q0 -8 -6 -14t-14 -6h-16q-7 0 -14 7q-5 5 -10 10.5t-14 5.5q-11 0 -20.5 -5t-22 -11.5t-30.5 -11.5t-46 -5
q-17 0 -32 4t-27 8.5t-22 8.5t-17 4q-11 0 -16.5 -7t-5.5 -14v-174q0 -8 -6 -14t-14 -6h-19q-8 0 -14 6t-6 14v660z" />
    <glyph glyph-name="paragraph" unicode="&#xb6;" horiz-adv-x="550" 
d="M220 350q0 10 -10 10q-33 0 -62 14t-51 37t-34.5 54t-12.5 65q0 35 13.5 66t36.5 54t54 36.5t66 13.5h198q8 0 14 -6t6 -14v-760q0 -8 -6 -14t-14 -6h-14q-8 0 -14 6t-6 14v721q0 10 -10 10h-90q-10 0 -10 -10v-721q0 -8 -6 -14t-14 -6h-14q-8 0 -14 6t-6 14v430v0z" />
    <glyph glyph-name="periodcentered" unicode="&#xb7;" horiz-adv-x="435" 
d="M260 215q0 -8 -6 -14t-14 -6h-100q-8 0 -14 6t-6 14v100q0 8 6 14t14 6h100q8 0 14 -6t6 -14v-100z" />
    <glyph glyph-name="cedilla" unicode="&#xb8;" horiz-adv-x="500" 
d="M270 -45q10 0 14 -5.5t2 -12.5l-28 -121q-4 -16 -19 -16h-37q-10 0 -14 5.5t-2 12.5l38 121q4 16 19 16h27z" />
    <glyph glyph-name="onesuperior" unicode="&#xb9;" horiz-adv-x="182" 
d="M139 700q10 0 10 -10v-330q0 -10 -10 -10h-41q-10 0 -10 10v262q0 2 -1.5 3t-2.5 0l-57 -40q-4 -2 -7.5 -1.5t-3.5 5.5v45q0 5 0.5 9t4.5 7l58 46q6 4 10 4h50z" />
    <glyph glyph-name="ordmasculine" unicode="&#xba;" horiz-adv-x="330" 
d="M52 540q-4 18 -4 39t5 41q5 23 16 39.5t26 27.5t32.5 16t35.5 5t35.5 -5t32.5 -16t26 -27.5t16 -39.5q5 -20 5 -41t-4 -39q-10 -46 -42.5 -69t-68.5 -23t-68.5 23t-42.5 69zM163 494q25 0 41.5 13t20.5 33q5 22 4.5 41t-6.5 39q-5 18 -19.5 29.5t-40.5 11.5t-40.5 -11.5
t-19.5 -29.5q-6 -20 -6.5 -39t4.5 -41q4 -20 20.5 -33t41.5 -13z" />
    <glyph glyph-name="guillemotright" unicode="&#xbb;" horiz-adv-x="492" 
d="M394 274q5 -8 5 -14t-5 -14l-96 -161q-2 -4 -8 -9.5t-17 -5.5h-19q-14 0 -19.5 8.5t3.5 24.5l85 145q8 13 0 24l-85 145q-9 16 -3.5 24.5t19.5 8.5h19q11 0 17 -5.5t8 -9.5zM232 274q5 -8 5 -14t-5 -14l-96 -161q-2 -4 -8 -9.5t-17 -5.5h-19q-14 0 -19.5 8.5t3.5 24.5
l85 145q8 13 0 24l-85 145q-9 16 -3.5 24.5t19.5 8.5h19q11 0 17 -5.5t8 -9.5z" />
    <glyph glyph-name="onequarter" unicode="&#xbc;" horiz-adv-x="639" 
d="M202 360q0 -10 -10 -10h-37q-10 0 -10 10v262q0 2 -1.5 3t-2.5 -1l-85 -71q-3 -3 -7 -1.5t-4 5.5v38q0 7 3.5 13t6.5 8l86 79q2 2 4.5 3.5t5.5 1.5h41q10 0 10 -10v-330zM146 15q-9 -15 -21 -15h-15q-10 0 -16 8.5t0 19.5l387 657q9 15 22 15h13q10 0 16 -9t0 -19z
M390 121q-4 -4 2 -4h87q5 0 5 5v147q0 2 -1.5 2.5t-2.5 -1.5zM476 343q4 7 11 7h37q10 0 10 -10v-218q0 -5 5 -5h24q10 0 10 -10v-32q0 -10 -10 -10h-24q-5 0 -5 -5v-50q0 -10 -10 -10h-30q-10 0 -10 10v50q0 5 -5 5h-143q-10 0 -10 10v32q0 5 2.5 9.5t5.5 9.5z" />
    <glyph glyph-name="onehalf" unicode="&#xbd;" horiz-adv-x="660" 
d="M141 695q2 2 4.5 3.5t5.5 1.5h41q10 0 10 -10v-330q0 -10 -10 -10h-37q-10 0 -10 10v262q0 2 -1.5 3t-2.5 -1l-85 -71q-3 -3 -7 -1.5t-4 5.5v38q0 7 3.5 13t6.5 8zM544 255q0 20 -12 35t-39 15q-20 0 -34.5 -14t-14.5 -34v-12q0 -10 -10 -10h-36q-10 0 -10 10v17
q0 20 9 37.5t23.5 30.5t33.5 20.5t39 7.5t39 -7.5t34 -20.5t24 -30.5t9 -37.5q0 -35 -12.5 -58.5t-35.5 -49.5l-87 -92q-2 -2 -1 -5t5 -3h127q10 0 10 -10v-34q0 -10 -10 -10h-206q-10 0 -10 10v34q0 6 1.5 8.5t3.5 4.5l128 132q17 17 24.5 31.5t7.5 34.5zM146 15
q-9 -15 -21 -15h-15q-10 0 -16 8.5t0 19.5l387 657q9 15 22 15h13q10 0 16 -9t0 -19z" />
    <glyph glyph-name="threequarters" unicode="&#xbe;" horiz-adv-x="649" 
d="M146 15q-9 -15 -21 -15h-15q-10 0 -16 8.5t0 19.5l387 657q9 15 22 15h13q10 0 16 -9t0 -19zM390 121q-4 -4 2 -4h87q5 0 5 5v147q0 2 -1.5 2.5t-2.5 -1.5zM476 343q4 7 11 7h37q10 0 10 -10v-218q0 -5 5 -5h24q10 0 10 -10v-32q0 -10 -10 -10h-24q-5 0 -5 -5v-50
q0 -10 -10 -10h-30q-10 0 -10 10v50q0 5 -5 5h-143q-10 0 -10 10v32q0 5 2.5 9.5t5.5 9.5zM78 448q0 -21 17 -35t41 -14q23 0 41 13.5t18 41.5q0 22 -16.5 38t-41.5 16h-6q-10 0 -10 10v32q0 10 10 10h6q21 0 36 14t15 38q0 17 -13 32t-39 15q-23 0 -37 -15.5t-14 -31.5v-7
q0 -10 -10 -10h-37q-10 0 -10 10v7q0 20 9 37.5t24 30.5t34.5 20.5t40.5 7.5q22 0 41.5 -7.5t34 -20.5t23 -30.5t8.5 -37.5t-6.5 -39t-25.5 -33q-6 -5 0 -9q17 -12 28.5 -33t11.5 -44q0 -22 -8 -41.5t-23 -34.5t-36.5 -24t-47.5 -9q-22 0 -43 8t-37 22t-26 32.5t-10 40.5v3
q0 10 10 10h38q10 0 10 -10v-3z" />
    <glyph glyph-name="questiondown" unicode="&#xbf;" horiz-adv-x="452" 
d="M106 -27q0 -51 32.5 -82t89.5 -31q25 0 47 10.5t38 28.5t25 42t9 52v7q0 8 6 14t14 6h20q8 0 14 -6t6 -14v-7q0 -40 -13.5 -75t-37.5 -61.5t-57 -41.5t-71 -15q-40 0 -73.5 12.5t-58 35t-38 54.5t-13.5 71q0 27 7.5 48.5t19 39t25.5 32t27 28.5q7 7 21 19.5t28 27
t24.5 30.5t10.5 31v71q0 8 6 14t14 6h20q8 0 14 -6t6 -14v-71q0 -40 -18 -61q-26 -30 -45.5 -46.5t-34.5 -31.5q-8 -8 -18.5 -18t-21 -24.5t-17.5 -32.5t-7 -42zM189 494q0 16 16 16h62q16 0 16 -16v-63q0 -6 -4.5 -11t-11.5 -5h-62q-7 0 -11.5 5t-4.5 11v63z" />
    <glyph glyph-name="Agrave" unicode="&#xc0;" 
d="M327 260q11 0 8 11l-91 340q-2 6 -4 6h-2q-3 0 -4 -6l-91 -340q-3 -11 8 -11h176zM361 184q-5 14 -19 14h-206q-14 0 -19 -14l-49 -169q-3 -15 -19 -15h-25q-12 0 -17 6.5t-3 13.5l191 665q3 15 19 15h50q16 0 19 -15l191 -665q2 -7 -3 -13.5t-17 -6.5h-25q-16 0 -19 15z
M172 895q11 0 16.5 -5.5t9.5 -10.5l76 -109q4 -5 0 -12.5t-14 -7.5h-19q-14 0 -19.5 3.5t-10.5 8.5l-108 112q-5 5 -2 13t13 8h58z" />
    <glyph glyph-name="Aacute" unicode="&#xc1;" 
d="M327 260q11 0 8 11l-91 340q-2 6 -4 6h-2q-3 0 -4 -6l-91 -340q-3 -11 8 -11h176zM361 184q-5 14 -19 14h-206q-14 0 -19 -14l-49 -169q-3 -15 -19 -15h-25q-12 0 -17 6.5t-3 13.5l191 665q3 15 19 15h50q16 0 19 -15l191 -665q2 -7 -3 -13.5t-17 -6.5h-25q-16 0 -19 15z
M359 895q10 0 13 -8t-2 -13l-108 -112q-5 -5 -10.5 -8.5t-19.5 -3.5h-19q-10 0 -14 7.5t0 12.5l76 109q4 5 9.5 10.5t16.5 5.5h58z" />
    <glyph glyph-name="Acircumflex" unicode="&#xc2;" 
d="M327 260q11 0 8 11l-91 340q-2 6 -4 6h-2q-3 0 -4 -6l-91 -340q-3 -11 8 -11h176zM361 184q-5 14 -19 14h-206q-14 0 -19 -14l-49 -169q-3 -15 -19 -15h-25q-12 0 -17 6.5t-3 13.5l191 665q3 15 19 15h50q16 0 19 -15l191 -665q2 -7 -3 -13.5t-17 -6.5h-25q-16 0 -19 15z
M167 767q-5 -5 -12.5 -10.5t-18.5 -5.5h-43q-10 0 -13 8t2 13l118 112q5 5 10.5 8.5t19.5 3.5h22q13 0 18.5 -3.5t10.5 -8.5l118 -112q5 -5 2 -13t-13 -8h-43q-11 0 -18.5 5.5t-12.5 10.5l-67 65q-7 7 -14 0z" />
    <glyph glyph-name="Atilde" unicode="&#xc3;" 
d="M327 260q11 0 8 11l-91 340q-2 6 -4 6h-2q-3 0 -4 -6l-91 -340q-3 -11 8 -11h176zM361 184q-5 14 -19 14h-206q-14 0 -19 -14l-49 -169q-3 -15 -19 -15h-25q-12 0 -17 6.5t-3 13.5l191 665q3 15 19 15h50q16 0 19 -15l191 -665q2 -7 -3 -13.5t-17 -6.5h-25q-16 0 -19 15z
M314 832q19 0 29.5 6.5t16.5 14.5t15.5 4t9.5 -18v-24q0 -20 -20.5 -35.5t-50.5 -15.5q-24 0 -39.5 4t-29 8.5t-30 8.5t-41.5 4q-17 0 -27.5 -5.5t-18.5 -15.5q-6 -7 -15.5 -3.5t-9.5 17.5v24q0 20 20.5 35.5t50.5 15.5q24 0 39.5 -4t29 -8.5t29.5 -8.5t42 -4z" />
    <glyph glyph-name="Adieresis" unicode="&#xc4;" 
d="M327 260q11 0 8 11l-91 340q-2 6 -4 6h-2q-3 0 -4 -6l-91 -340q-3 -11 8 -11h176zM361 184q-5 14 -19 14h-206q-14 0 -19 -14l-49 -169q-3 -15 -19 -15h-25q-12 0 -17 6.5t-3 13.5l191 665q3 15 19 15h50q16 0 19 -15l191 -665q2 -7 -3 -13.5t-17 -6.5h-25q-16 0 -19 15z
M192 778q0 -16 -16 -16h-52q-16 0 -16 16v53q0 6 4.5 11t11.5 5h52q7 0 11.5 -5t4.5 -11v-53zM363 778q0 -16 -16 -16h-52q-16 0 -16 16v53q0 6 4.5 11t11.5 5h52q7 0 11.5 -5t4.5 -11v-53z" />
    <glyph glyph-name="Aring" unicode="&#xc5;" 
d="M327 260q11 0 8 11l-91 340q-2 6 -4 6h-2q-3 0 -4 -6l-91 -340q-3 -11 8 -11h176zM361 184q-5 14 -19 14h-206q-14 0 -19 -14l-49 -169q-3 -15 -19 -15h-25q-12 0 -17 6.5t-3 13.5l191 665q3 15 19 15h50q16 0 19 -15l191 -665q2 -7 -3 -13.5t-17 -6.5h-25q-16 0 -19 15z
M134 840q0 23 8.5 43t23.5 35t35 23.5t43 8.5t43 -8.5t35 -23.5t23.5 -35t8.5 -43t-8.5 -43t-23.5 -35t-35 -23.5t-43 -8.5t-43 8.5t-35 23.5t-23.5 35t-8.5 43zM188 840q0 -23 16.5 -39.5t39.5 -16.5q24 0 39.5 16.5t15.5 39.5q0 24 -15.5 39.5t-39.5 15.5
q-23 0 -39.5 -15.5t-16.5 -39.5z" />
    <glyph glyph-name="AE" unicode="&#xc6;" horiz-adv-x="723" 
d="M320 626q0 10 -10 10h-65q-5 0 -6 -6l-96 -359q-3 -11 8 -11h159q10 0 10 10v356zM653 700q8 0 14 -6t6 -14v-24q0 -8 -6 -14t-14 -6h-259q-10 0 -10 -10v-227q0 -10 10 -10h248q8 0 14 -6t6 -14v-23q0 -8 -6 -14t-14 -6h-248q-10 0 -10 -10v-242q0 -10 10 -10h261
q8 0 14 -6t6 -14v-24q0 -8 -6 -14t-14 -6h-315q-8 0 -14 6t-6 14v168q0 10 -10 10h-174q-14 0 -19 -14l-49 -169q-3 -15 -19 -15h-25q-12 0 -17 6.5t-3 13.5l191 665q3 15 19 15h439z" />
    <glyph glyph-name="Ccedilla" unicode="&#xc7;" horiz-adv-x="543" 
d="M500 200q0 -49 -18 -87.5t-48.5 -65.5t-71 -41t-85.5 -14q-91 0 -150.5 55.5t-72.5 152.5q-4 30 -6 69.5t-2 81t2 80.5t6 69q6 41 23 78.5t45 66.5t66.5 46t88.5 17q49 0 90.5 -17t70.5 -45.5t45.5 -66.5t16.5 -79v-4q0 -8 -6 -14t-14 -6h-27q-8 0 -14 6t-6 14v4
q0 28 -11 54t-31.5 46t-49 32t-64.5 12t-63 -12t-46.5 -32.5t-31 -46.5t-15.5 -53q-5 -31 -7 -70t-2 -80t2 -80t7 -70q3 -22 12.5 -47t28 -46.5t46.5 -36t69 -14.5q40 0 69.5 14t49 35.5t28.5 47t9 47.5v4q0 8 6 14t14 6h27q8 0 14 -6t6 -14v-4zM300 -45q10 0 14 -5.5
t2 -12.5l-28 -121q-4 -16 -19 -16h-37q-10 0 -14 5.5t-2 12.5l38 121q4 16 19 16h27z" />
    <glyph glyph-name="Egrave" unicode="&#xc8;" horiz-adv-x="470" 
d="M129 74q0 -10 10 -10h261q8 0 14 -6t6 -14v-24q0 -8 -6 -14t-14 -6h-315q-8 0 -14 6t-6 14v660q0 8 6 14t14 6h313q8 0 14 -6t6 -14v-24q0 -8 -6 -14t-14 -6h-259q-10 0 -10 -10v-227q0 -10 10 -10h248q8 0 14 -6t6 -14v-23q0 -8 -6 -14t-14 -6h-248q-10 0 -10 -10v-242z
M182 895q11 0 16.5 -5.5t9.5 -10.5l76 -109q4 -5 0 -12.5t-14 -7.5h-19q-14 0 -19.5 3.5t-10.5 8.5l-108 112q-5 5 -2 13t13 8h58z" />
    <glyph glyph-name="Eacute" unicode="&#xc9;" horiz-adv-x="470" 
d="M129 74q0 -10 10 -10h261q8 0 14 -6t6 -14v-24q0 -8 -6 -14t-14 -6h-315q-8 0 -14 6t-6 14v660q0 8 6 14t14 6h313q8 0 14 -6t6 -14v-24q0 -8 -6 -14t-14 -6h-259q-10 0 -10 -10v-227q0 -10 10 -10h248q8 0 14 -6t6 -14v-23q0 -8 -6 -14t-14 -6h-248q-10 0 -10 -10v-242z
M349 895q10 0 13 -8t-2 -13l-108 -112q-5 -5 -10.5 -8.5t-19.5 -3.5h-19q-10 0 -14 7.5t0 12.5l76 109q4 5 9.5 10.5t16.5 5.5h58z" />
    <glyph glyph-name="Ecircumflex" unicode="&#xca;" horiz-adv-x="470" 
d="M129 74q0 -10 10 -10h261q8 0 14 -6t6 -14v-24q0 -8 -6 -14t-14 -6h-315q-8 0 -14 6t-6 14v660q0 8 6 14t14 6h313q8 0 14 -6t6 -14v-24q0 -8 -6 -14t-14 -6h-259q-10 0 -10 -10v-227q0 -10 10 -10h248q8 0 14 -6t6 -14v-23q0 -8 -6 -14t-14 -6h-248q-10 0 -10 -10v-242z
M176 767q-5 -5 -12.5 -10.5t-18.5 -5.5h-43q-10 0 -13 8t2 13l118 112q5 5 10.5 8.5t19.5 3.5h22q13 0 18.5 -3.5t10.5 -8.5l118 -112q5 -5 2 -13t-13 -8h-43q-11 0 -18.5 5.5t-12.5 10.5l-67 65q-7 7 -14 0z" />
    <glyph glyph-name="Edieresis" unicode="&#xcb;" horiz-adv-x="470" 
d="M129 74q0 -10 10 -10h261q8 0 14 -6t6 -14v-24q0 -8 -6 -14t-14 -6h-315q-8 0 -14 6t-6 14v660q0 8 6 14t14 6h313q8 0 14 -6t6 -14v-24q0 -8 -6 -14t-14 -6h-259q-10 0 -10 -10v-227q0 -10 10 -10h248q8 0 14 -6t6 -14v-23q0 -8 -6 -14t-14 -6h-248q-10 0 -10 -10v-242z
M203 778q0 -16 -16 -16h-52q-16 0 -16 16v53q0 6 4.5 11t11.5 5h52q7 0 11.5 -5t4.5 -11v-53zM374 778q0 -16 -16 -16h-52q-16 0 -16 16v53q0 6 4.5 11t11.5 5h52q7 0 11.5 -5t4.5 -11v-53z" />
    <glyph glyph-name="Igrave" unicode="&#xcc;" horiz-adv-x="194" 
d="M129 20q0 -8 -6 -14t-14 -6h-24q-8 0 -14 6t-6 14v660q0 8 6 14t14 6h24q8 0 14 -6t6 -14v-660zM52 895q11 0 16.5 -5.5t9.5 -10.5l76 -109q4 -5 0 -12.5t-14 -7.5h-19q-14 0 -19.5 3.5t-10.5 8.5l-108 112q-5 5 -2 13t13 8h58z" />
    <glyph glyph-name="Iacute" unicode="&#xcd;" horiz-adv-x="194" 
d="M129 20q0 -8 -6 -14t-14 -6h-24q-8 0 -14 6t-6 14v660q0 8 6 14t14 6h24q8 0 14 -6t6 -14v-660zM229 895q10 0 13 -8t-2 -13l-108 -112q-5 -5 -10.5 -8.5t-19.5 -3.5h-19q-10 0 -14 7.5t0 12.5l76 109q4 5 9.5 10.5t16.5 5.5h58z" />
    <glyph glyph-name="Icircumflex" unicode="&#xce;" horiz-adv-x="194" 
d="M129 20q0 -8 -6 -14t-14 -6h-24q-8 0 -14 6t-6 14v660q0 8 6 14t14 6h24q8 0 14 -6t6 -14v-660zM23 767q-5 -5 -12.5 -10.5t-18.5 -5.5h-43q-10 0 -13 8t2 13l118 112q5 5 10.5 8.5t19.5 3.5h22q13 0 18.5 -3.5t10.5 -8.5l118 -112q5 -5 2 -13t-13 -8h-43
q-11 0 -18.5 5.5t-12.5 10.5l-67 65q-7 7 -14 0z" />
    <glyph glyph-name="Idieresis" unicode="&#xcf;" horiz-adv-x="194" 
d="M129 20q0 -8 -6 -14t-14 -6h-24q-8 0 -14 6t-6 14v660q0 8 6 14t14 6h24q8 0 14 -6t6 -14v-660zM56 778q0 -16 -16 -16h-52q-16 0 -16 16v53q0 6 4.5 11t11.5 5h52q7 0 11.5 -5t4.5 -11v-53zM227 778q0 -16 -16 -16h-52q-16 0 -16 16v53q0 6 4.5 11t11.5 5h52
q7 0 11.5 -5t4.5 -11v-53z" />
    <glyph glyph-name="Eth" unicode="&#xd0;" horiz-adv-x="538" 
d="M129 74q0 -10 10 -10h126q40 0 68.5 13t47 33t28 44t12.5 46q4 31 6.5 70t2.5 80t-2.5 80t-6.5 70q-4 27 -15.5 52t-31 43.5t-46.5 29.5t-63 11h-126q-10 0 -10 -10v-227q0 -10 10 -10h100q8 0 14 -6t6 -14v-23q0 -8 -6 -14t-14 -6h-100q-10 0 -10 -10v-242zM265 700
q49 0 88 -16t67 -43t45 -63.5t23 -77.5q4 -30 6 -69t2 -80.5t-2 -81t-6 -69.5q-13 -97 -72.5 -148.5t-150.5 -51.5h-180q-8 0 -14 6t-6 14v296q0 10 -10 10h-32q-8 0 -14 6t-6 14v23q0 8 6 14t14 6h32q10 0 10 10v281q0 8 6 14t14 6h180z" />
    <glyph glyph-name="Ntilde" unicode="&#xd1;" horiz-adv-x="530" 
d="M393 0q-8 0 -12 3t-9 14l-239 574q-2 3 -5 2.5t-3 -4.5v-569q0 -8 -6 -14t-14 -6h-20q-8 0 -14 6t-6 14v660q0 8 6 14t14 6h52q8 0 12 -3t9 -14l239 -569q2 -3 5 -2.5t3 4.5v564q0 8 6 14t14 6h20q8 0 14 -6t6 -14v-660q0 -8 -6 -14t-14 -6h-52zM345 832q19 0 29.5 6.5
t16.5 14.5t15.5 4t9.5 -18v-24q0 -20 -20.5 -35.5t-50.5 -15.5q-24 0 -39.5 4t-29 8.5t-30 8.5t-41.5 4q-17 0 -27.5 -5.5t-18.5 -15.5q-6 -7 -15.5 -3.5t-9.5 17.5v24q0 20 20.5 35.5t50.5 15.5q24 0 39.5 -4t29 -8.5t29.5 -8.5t42 -4z" />
    <glyph glyph-name="Ograve" unicode="&#xd2;" horiz-adv-x="556" 
d="M277 56q40 0 68.5 14.5t47 36t28 46.5t12.5 47q4 31 6.5 70t2.5 80t-2.5 80t-6.5 70q-4 27 -15.5 53t-31 46.5t-46.5 32.5t-63 12t-63 -12t-46.5 -32.5t-31 -46.5t-15.5 -53q-5 -31 -7 -70t-2 -80t2 -80t7 -70q3 -22 12.5 -47t28 -46.5t46.5 -36t69 -14.5zM277 708
q49 0 88 -17t67 -46t45 -66.5t23 -78.5q4 -30 6 -69t2 -80.5t-2 -81t-6 -69.5q-13 -97 -72.5 -152.5t-150.5 -55.5t-150.5 55.5t-72.5 152.5q-4 30 -6 69.5t-2 81t2 80.5t6 69q6 41 23 78.5t45 66.5t66.5 46t88.5 17zM202 895q11 0 16.5 -5.5t9.5 -10.5l76 -109
q4 -5 0 -12.5t-14 -7.5h-19q-14 0 -19.5 3.5t-10.5 8.5l-108 112q-5 5 -2 13t13 8h58z" />
    <glyph glyph-name="Oacute" unicode="&#xd3;" horiz-adv-x="556" 
d="M277 56q40 0 68.5 14.5t47 36t28 46.5t12.5 47q4 31 6.5 70t2.5 80t-2.5 80t-6.5 70q-4 27 -15.5 53t-31 46.5t-46.5 32.5t-63 12t-63 -12t-46.5 -32.5t-31 -46.5t-15.5 -53q-5 -31 -7 -70t-2 -80t2 -80t7 -70q3 -22 12.5 -47t28 -46.5t46.5 -36t69 -14.5zM277 708
q49 0 88 -17t67 -46t45 -66.5t23 -78.5q4 -30 6 -69t2 -80.5t-2 -81t-6 -69.5q-13 -97 -72.5 -152.5t-150.5 -55.5t-150.5 55.5t-72.5 152.5q-4 30 -6 69.5t-2 81t2 80.5t6 69q6 41 23 78.5t45 66.5t66.5 46t88.5 17zM389 895q10 0 13 -8t-2 -13l-108 -112q-5 -5 -10.5 -8.5
t-19.5 -3.5h-19q-10 0 -14 7.5t0 12.5l76 109q4 5 9.5 10.5t16.5 5.5h58z" />
    <glyph glyph-name="Ocircumflex" unicode="&#xd4;" horiz-adv-x="556" 
d="M277 56q40 0 68.5 14.5t47 36t28 46.5t12.5 47q4 31 6.5 70t2.5 80t-2.5 80t-6.5 70q-4 27 -15.5 53t-31 46.5t-46.5 32.5t-63 12t-63 -12t-46.5 -32.5t-31 -46.5t-15.5 -53q-5 -31 -7 -70t-2 -80t2 -80t7 -70q3 -22 12.5 -47t28 -46.5t46.5 -36t69 -14.5zM277 708
q49 0 88 -17t67 -46t45 -66.5t23 -78.5q4 -30 6 -69t2 -80.5t-2 -81t-6 -69.5q-13 -97 -72.5 -152.5t-150.5 -55.5t-150.5 55.5t-72.5 152.5q-4 30 -6 69.5t-2 81t2 80.5t6 69q6 41 23 78.5t45 66.5t66.5 46t88.5 17zM206 767q-5 -5 -12.5 -10.5t-18.5 -5.5h-43q-10 0 -13 8
t2 13l118 112q5 5 10.5 8.5t19.5 3.5h22q13 0 18.5 -3.5t10.5 -8.5l118 -112q5 -5 2 -13t-13 -8h-43q-11 0 -18.5 5.5t-12.5 10.5l-67 65q-7 7 -14 0z" />
    <glyph glyph-name="Otilde" unicode="&#xd5;" horiz-adv-x="556" 
d="M277 56q40 0 68.5 14.5t47 36t28 46.5t12.5 47q4 31 6.5 70t2.5 80t-2.5 80t-6.5 70q-4 27 -15.5 53t-31 46.5t-46.5 32.5t-63 12t-63 -12t-46.5 -32.5t-31 -46.5t-15.5 -53q-5 -31 -7 -70t-2 -80t2 -80t7 -70q3 -22 12.5 -47t28 -46.5t46.5 -36t69 -14.5zM277 708
q49 0 88 -17t67 -46t45 -66.5t23 -78.5q4 -30 6 -69t2 -80.5t-2 -81t-6 -69.5q-13 -97 -72.5 -152.5t-150.5 -55.5t-150.5 55.5t-72.5 152.5q-4 30 -6 69.5t-2 81t2 80.5t6 69q6 41 23 78.5t45 66.5t66.5 46t88.5 17zM350 832q19 0 29.5 6.5t16.5 14.5t15.5 4t9.5 -18v-24
q0 -20 -20.5 -35.5t-50.5 -15.5q-24 0 -39.5 4t-29 8.5t-30 8.5t-41.5 4q-17 0 -27.5 -5.5t-18.5 -15.5q-6 -7 -15.5 -3.5t-9.5 17.5v24q0 20 20.5 35.5t50.5 15.5q24 0 39.5 -4t29 -8.5t29.5 -8.5t42 -4z" />
    <glyph glyph-name="Odieresis" unicode="&#xd6;" horiz-adv-x="556" 
d="M277 56q40 0 68.5 14.5t47 36t28 46.5t12.5 47q4 31 6.5 70t2.5 80t-2.5 80t-6.5 70q-4 27 -15.5 53t-31 46.5t-46.5 32.5t-63 12t-63 -12t-46.5 -32.5t-31 -46.5t-15.5 -53q-5 -31 -7 -70t-2 -80t2 -80t7 -70q3 -22 12.5 -47t28 -46.5t46.5 -36t69 -14.5zM277 708
q49 0 88 -17t67 -46t45 -66.5t23 -78.5q4 -30 6 -69t2 -80.5t-2 -81t-6 -69.5q-13 -97 -72.5 -152.5t-150.5 -55.5t-150.5 55.5t-72.5 152.5q-4 30 -6 69.5t-2 81t2 80.5t6 69q6 41 23 78.5t45 66.5t66.5 46t88.5 17zM230 778q0 -16 -16 -16h-52q-16 0 -16 16v53q0 6 4.5 11
t11.5 5h52q7 0 11.5 -5t4.5 -11v-53zM401 778q0 -16 -16 -16h-52q-16 0 -16 16v53q0 6 4.5 11t11.5 5h52q7 0 11.5 -5t4.5 -11v-53z" />
    <glyph glyph-name="multiply" unicode="&#xd7;" horiz-adv-x="458" 
d="M56 92q-6 6 -5.5 14t5.5 14l122 123q7 7 0 14l-122 123q-6 5 -6 13.5t6 14.5l15 15q6 6 14.5 6t13.5 -6l123 -122q7 -7 14 0l123 122q5 6 13.5 6t14.5 -6l15 -15q5 -5 5 -13.5t-5 -14.5l-123 -122q-7 -7 0 -14l123 -124q6 -5 6 -13.5t-6 -14.5l-15 -15q-6 -6 -14.5 -6
t-13.5 6l-124 123q-7 7 -14 0l-122 -123q-6 -5 -14.5 -5t-13.5 5z" />
    <glyph glyph-name="Oslash" unicode="&#xd8;" horiz-adv-x="524" 
d="M116 15q-9 -15 -21 -15h-29q-10 0 -14.5 6.5t0.5 17.5l28 52q2 5 1 7l-2 4q-31 45 -40 113q-4 30 -6 69.5t-2 81t2 80.5t6 69q6 41 23 78.5t45 66.5t66.5 46t88.5 17q40 0 72.5 -11t58.5 -31q2 -1 4.5 -2t5.5 4l9 17q7 15 19 15h30q10 0 14.5 -6.5t-0.5 -15.5l-31 -57
q-3 -5 -2 -7l2 -4q32 -50 41 -110q4 -30 6 -69t2 -80.5t-2 -81t-6 -69.5q-13 -97 -72.5 -152.5t-150.5 -55.5q-77 0 -131 40q-1 1 -3 1.5t-4 -4.5zM262 644q-36 0 -63 -12t-46.5 -32.5t-31 -46.5t-15.5 -53q-5 -31 -7 -70t-2 -80t2 -80t7 -70q2 -10 4 -20.5t6 -21.5
q1 -2 3.5 -3.5t5.5 3.5l239 439q2 4 0.5 6.5t-3.5 4.5q-19 17 -43 26.5t-56 9.5zM262 56q40 0 68.5 14.5t47 36t28 46.5t12.5 47q4 31 6.5 70t2.5 80t-2.5 80t-6.5 70q-2 15 -4.5 22.5t-6.5 18.5q-1 2 -2.5 3t-4.5 -4l-239 -442q-2 -4 -1 -6t3 -3q18 -15 42.5 -24t56.5 -9z
" />
    <glyph glyph-name="Ugrave" unicode="&#xd9;" horiz-adv-x="538" 
d="M484 207q0 -45 -17 -84t-46 -68t-68 -46t-84 -17t-84 17t-68 46t-46 68t-17 84v473q0 8 6 14t14 6h24q8 0 14 -6t6 -14v-473q0 -30 11.5 -57.5t32 -48t48 -33t59.5 -12.5t59.5 12.5t48 33t32 48t11.5 57.5v473q0 8 6 14t14 6h24q8 0 14 -6t6 -14v-473zM202 895
q11 0 16.5 -5.5t9.5 -10.5l76 -109q4 -5 0 -12.5t-14 -7.5h-19q-14 0 -19.5 3.5t-10.5 8.5l-108 112q-5 5 -2 13t13 8h58z" />
    <glyph glyph-name="Uacute" unicode="&#xda;" horiz-adv-x="538" 
d="M484 207q0 -45 -17 -84t-46 -68t-68 -46t-84 -17t-84 17t-68 46t-46 68t-17 84v473q0 8 6 14t14 6h24q8 0 14 -6t6 -14v-473q0 -30 11.5 -57.5t32 -48t48 -33t59.5 -12.5t59.5 12.5t48 33t32 48t11.5 57.5v473q0 8 6 14t14 6h24q8 0 14 -6t6 -14v-473zM389 895
q10 0 13 -8t-2 -13l-108 -112q-5 -5 -10.5 -8.5t-19.5 -3.5h-19q-10 0 -14 7.5t0 12.5l76 109q4 5 9.5 10.5t16.5 5.5h58z" />
    <glyph glyph-name="Ucircumflex" unicode="&#xdb;" horiz-adv-x="538" 
d="M484 207q0 -45 -17 -84t-46 -68t-68 -46t-84 -17t-84 17t-68 46t-46 68t-17 84v473q0 8 6 14t14 6h24q8 0 14 -6t6 -14v-473q0 -30 11.5 -57.5t32 -48t48 -33t59.5 -12.5t59.5 12.5t48 33t32 48t11.5 57.5v473q0 8 6 14t14 6h24q8 0 14 -6t6 -14v-473zM196 767
q-5 -5 -12.5 -10.5t-18.5 -5.5h-43q-10 0 -13 8t2 13l118 112q5 5 10.5 8.5t19.5 3.5h22q13 0 18.5 -3.5t10.5 -8.5l118 -112q5 -5 2 -13t-13 -8h-43q-11 0 -18.5 5.5t-12.5 10.5l-67 65q-7 7 -14 0z" />
    <glyph glyph-name="Udieresis" unicode="&#xdc;" horiz-adv-x="538" 
d="M484 207q0 -45 -17 -84t-46 -68t-68 -46t-84 -17t-84 17t-68 46t-46 68t-17 84v473q0 8 6 14t14 6h24q8 0 14 -6t6 -14v-473q0 -30 11.5 -57.5t32 -48t48 -33t59.5 -12.5t59.5 12.5t48 33t32 48t11.5 57.5v473q0 8 6 14t14 6h24q8 0 14 -6t6 -14v-473zM227 778
q0 -16 -16 -16h-52q-16 0 -16 16v53q0 6 4.5 11t11.5 5h52q7 0 11.5 -5t4.5 -11v-53zM398 778q0 -16 -16 -16h-52q-16 0 -16 16v53q0 6 4.5 11t11.5 5h52q7 0 11.5 -5t4.5 -11v-53z" />
    <glyph glyph-name="Yacute" unicode="&#xdd;" horiz-adv-x="442" 
d="M218 328q4 -10 8 0l137 357q5 15 19 15h32q10 0 15.5 -8.5t0.5 -19.5l-175 -431v-221q0 -8 -6 -14t-14 -6h-26q-8 0 -14 6t-6 14v220l-177 432q-5 11 0.5 19.5t15.5 8.5h32q14 0 19 -15zM339 895q10 0 13 -8t-2 -13l-108 -112q-5 -5 -10.5 -8.5t-19.5 -3.5h-19
q-10 0 -14 7.5t0 12.5l76 109q4 5 9.5 10.5t16.5 5.5h58z" />
    <glyph glyph-name="Thorn" unicode="&#xde;" horiz-adv-x="510" 
d="M465 330q0 -44 -16.5 -82t-45 -66.5t-67 -45t-81.5 -16.5h-116q-10 0 -10 -10v-90q0 -8 -6 -14t-14 -6h-24q-8 0 -14 6t-6 14v660q0 8 6 14t14 6h24q8 0 14 -6t6 -14v-80q0 -10 10 -10h116q43 0 81.5 -16.5t67 -45t45 -67t16.5 -81.5v-50zM401 380q0 30 -11.5 56.5
t-31.5 46.5t-46.5 31.5t-56.5 11.5h-116q-10 0 -10 -10v-322q0 -10 10 -10h116q30 0 56.5 11.5t46.5 31.5t31.5 46.5t11.5 56.5v50z" />
    <glyph glyph-name="germandbls" unicode="&#xdf;" horiz-adv-x="499" 
d="M229 0q-8 0 -14 6t-6 14v19q0 8 6 14t14 6h20q29 0 55 11t45 30t30 44t11 54q0 27 -9.5 52t-27 44t-43.5 30.5t-59 11.5h-7q-8 0 -14 6t-6 14v20q0 8 6 14t14 6h7q26 0 48.5 9t39.5 25t26.5 38t9.5 49q0 63 -35 98.5t-91 35.5q-28 0 -51 -10.5t-39 -29t-24.5 -43
t-8.5 -51.5v-497q0 -8 -6 -14t-14 -6h-21q-8 0 -14 6t-6 14v497q0 42 13.5 77.5t37.5 61t58 40t75 14.5t75 -15t58.5 -41.5t38 -61.5t13.5 -75q0 -42 -16 -76.5t-42 -60.5q-5 -5 -6.5 -11.5t5.5 -12.5q33 -29 53.5 -66.5t20.5 -91.5q0 -43 -15 -79.5t-41.5 -62.5t-63.5 -41
t-80 -15h-20z" />
    <glyph glyph-name="agrave" unicode="&#xe0;" horiz-adv-x="487" 
d="M208 241q-42 0 -74 -23t-32 -67q0 -27 9.5 -46.5t26 -32.5t37.5 -19.5t45 -6.5q69 0 106.5 32t37.5 93v60q0 10 -10 10h-146zM240 455q-23 0 -44 -6.5t-37 -18t-26 -27.5t-10 -36q0 -13 -8 -15t-15 -2h-14q-20 0 -20 20q0 35 15 61t40 43.5t56 26.5t63 9q37 0 69.5 -10
t57 -30.5t39 -51.5t14.5 -74v-324q0 -8 -6 -14t-14 -6h-9q-10 0 -14 7q-4 6 -7 13.5t-13 7.5q-7 0 -18 -6t-27 -13t-37.5 -13t-49.5 -6q-46 0 -80.5 13t-57 35t-33.5 51t-11 61q0 31 11 58t32 46.5t52 30.5t70 11h143q10 0 10 10v39q0 49 -34 79.5t-87 30.5zM169 730
q11 0 16.5 -5.5t9.5 -10.5l76 -109q4 -5 0 -12.5t-14 -7.5h-19q-14 0 -19.5 3.5t-10.5 8.5l-108 112q-5 5 -2 13t13 8h58z" />
    <glyph glyph-name="aacute" unicode="&#xe1;" horiz-adv-x="487" 
d="M208 241q-42 0 -74 -23t-32 -67q0 -27 9.5 -46.5t26 -32.5t37.5 -19.5t45 -6.5q69 0 106.5 32t37.5 93v60q0 10 -10 10h-146zM240 455q-23 0 -44 -6.5t-37 -18t-26 -27.5t-10 -36q0 -13 -8 -15t-15 -2h-14q-20 0 -20 20q0 35 15 61t40 43.5t56 26.5t63 9q37 0 69.5 -10
t57 -30.5t39 -51.5t14.5 -74v-324q0 -8 -6 -14t-14 -6h-9q-10 0 -14 7q-4 6 -7 13.5t-13 7.5q-7 0 -18 -6t-27 -13t-37.5 -13t-49.5 -6q-46 0 -80.5 13t-57 35t-33.5 51t-11 61q0 31 11 58t32 46.5t52 30.5t70 11h143q10 0 10 10v39q0 49 -34 79.5t-87 30.5zM359 730
q10 0 13 -8t-2 -13l-108 -112q-5 -5 -10.5 -8.5t-19.5 -3.5h-19q-10 0 -14 7.5t0 12.5l76 109q4 5 9.5 10.5t16.5 5.5h58z" />
    <glyph glyph-name="acircumflex" unicode="&#xe2;" horiz-adv-x="487" 
d="M208 241q-42 0 -74 -23t-32 -67q0 -27 9.5 -46.5t26 -32.5t37.5 -19.5t45 -6.5q69 0 106.5 32t37.5 93v60q0 10 -10 10h-146zM240 455q-23 0 -44 -6.5t-37 -18t-26 -27.5t-10 -36q0 -13 -8 -15t-15 -2h-14q-20 0 -20 20q0 35 15 61t40 43.5t56 26.5t63 9q37 0 69.5 -10
t57 -30.5t39 -51.5t14.5 -74v-324q0 -8 -6 -14t-14 -6h-9q-10 0 -14 7q-4 6 -7 13.5t-13 7.5q-7 0 -18 -6t-27 -13t-37.5 -13t-49.5 -6q-46 0 -80.5 13t-57 35t-33.5 51t-11 61q0 31 11 58t32 46.5t52 30.5t70 11h143q10 0 10 10v39q0 49 -34 79.5t-87 30.5zM170 601
q-5 -5 -12.5 -10.5t-18.5 -5.5h-43q-10 0 -13 8t2 13l118 112q5 5 10.5 8.5t19.5 3.5h22q13 0 18.5 -3.5t10.5 -8.5l118 -112q5 -5 2 -13t-13 -8h-43q-11 0 -18.5 5.5t-12.5 10.5l-67 65q-7 7 -14 0z" />
    <glyph glyph-name="atilde" unicode="&#xe3;" horiz-adv-x="487" 
d="M208 241q-42 0 -74 -23t-32 -67q0 -27 9.5 -46.5t26 -32.5t37.5 -19.5t45 -6.5q69 0 106.5 32t37.5 93v60q0 10 -10 10h-146zM240 455q-23 0 -44 -6.5t-37 -18t-26 -27.5t-10 -36q0 -13 -8 -15t-15 -2h-14q-20 0 -20 20q0 35 15 61t40 43.5t56 26.5t63 9q37 0 69.5 -10
t57 -30.5t39 -51.5t14.5 -74v-324q0 -8 -6 -14t-14 -6h-9q-10 0 -14 7q-4 6 -7 13.5t-13 7.5q-7 0 -18 -6t-27 -13t-37.5 -13t-49.5 -6q-46 0 -80.5 13t-57 35t-33.5 51t-11 61q0 31 11 58t32 46.5t52 30.5t70 11h143q10 0 10 10v39q0 49 -34 79.5t-87 30.5zM314 676
q19 0 29.5 6.5t16.5 14.5t15.5 4t9.5 -18v-24q0 -20 -20.5 -35.5t-50.5 -15.5q-24 0 -39.5 4t-29 8.5t-30 8.5t-41.5 4q-17 0 -27.5 -5.5t-18.5 -15.5q-6 -7 -15.5 -3.5t-9.5 17.5v24q0 20 20.5 35.5t50.5 15.5q24 0 39.5 -4t29 -8.5t29.5 -8.5t42 -4z" />
    <glyph glyph-name="adieresis" unicode="&#xe4;" horiz-adv-x="487" 
d="M208 241q-42 0 -74 -23t-32 -67q0 -27 9.5 -46.5t26 -32.5t37.5 -19.5t45 -6.5q69 0 106.5 32t37.5 93v60q0 10 -10 10h-146zM240 455q-23 0 -44 -6.5t-37 -18t-26 -27.5t-10 -36q0 -13 -8 -15t-15 -2h-14q-20 0 -20 20q0 35 15 61t40 43.5t56 26.5t63 9q37 0 69.5 -10
t57 -30.5t39 -51.5t14.5 -74v-324q0 -8 -6 -14t-14 -6h-9q-10 0 -14 7q-4 6 -7 13.5t-13 7.5q-7 0 -18 -6t-27 -13t-37.5 -13t-49.5 -6q-46 0 -80.5 13t-57 35t-33.5 51t-11 61q0 31 11 58t32 46.5t52 30.5t70 11h143q10 0 10 10v39q0 49 -34 79.5t-87 30.5zM192 638
q0 -16 -16 -16h-52q-16 0 -16 16v53q0 6 4.5 11t11.5 5h52q7 0 11.5 -5t4.5 -11v-53zM363 638q0 -16 -16 -16h-52q-16 0 -16 16v53q0 6 4.5 11t11.5 5h52q7 0 11.5 -5t4.5 -11v-53z" />
    <glyph glyph-name="aring" unicode="&#xe5;" horiz-adv-x="487" 
d="M208 241q-42 0 -74 -23t-32 -67q0 -27 9.5 -46.5t26 -32.5t37.5 -19.5t45 -6.5q69 0 106.5 32t37.5 93v60q0 10 -10 10h-146zM240 455q-23 0 -44 -6.5t-37 -18t-26 -27.5t-10 -36q0 -13 -8 -15t-15 -2h-14q-20 0 -20 20q0 35 15 61t40 43.5t56 26.5t63 9q37 0 69.5 -10
t57 -30.5t39 -51.5t14.5 -74v-324q0 -8 -6 -14t-14 -6h-9q-10 0 -14 7q-4 6 -7 13.5t-13 7.5q-7 0 -18 -6t-27 -13t-37.5 -13t-49.5 -6q-46 0 -80.5 13t-57 35t-33.5 51t-11 61q0 31 11 58t32 46.5t52 30.5t70 11h143q10 0 10 10v39q0 49 -34 79.5t-87 30.5zM134 670
q0 23 8.5 43t23.5 35t35 23.5t43 8.5t43 -8.5t35 -23.5t23.5 -35t8.5 -43t-8.5 -43t-23.5 -35t-35 -23.5t-43 -8.5t-43 8.5t-35 23.5t-23.5 35t-8.5 43zM188 670q0 -23 16.5 -39.5t39.5 -16.5q24 0 39.5 16.5t15.5 39.5q0 24 -15.5 39.5t-39.5 15.5q-23 0 -39.5 -15.5
t-16.5 -39.5z" />
    <glyph glyph-name="ae" unicode="&#xe6;" horiz-adv-x="813" 
d="M364 220q0 10 -10 10h-146q-42 0 -74 -22.5t-32 -66.5q0 -27 9.5 -45t26 -29t37.5 -16t45 -5q69 0 106.5 32t37.5 93v49zM414 442q27 31 66 49.5t90 18.5q42 0 78.5 -16t63.5 -43t42.5 -63.5t15.5 -77.5v-60q0 -8 -6 -14t-14 -6h-317q-10 0 -10 -10q0 -36 8.5 -67
t26.5 -54.5t45.5 -36.5t66.5 -13q29 0 51.5 8t39 21.5t27 30t16.5 34.5q3 10 9.5 13.5t13.5 3.5h20q8 0 13.5 -4.5t3.5 -15.5q-5 -33 -21 -60.5t-41.5 -47.5t-59 -31t-72.5 -11q-48 0 -85.5 16.5t-65.5 44.5q-8 8 -19 8.5t-20 -8.5q-35 -35 -77.5 -48t-77.5 -13
q-46 0 -80.5 11.5t-57 31.5t-33.5 47.5t-11 59.5q0 31 11 58t32 46.5t52 30.5t70 11h143q10 0 10 10v49q0 49 -34 79.5t-87 30.5q-23 0 -44 -6.5t-37 -18t-26 -27.5t-10 -36q0 -13 -8 -15t-15 -2h-14q-20 0 -20 20q0 35 15 61t40 43.5t56 26.5t63 9q41 0 78.5 -17t65.5 -51
q5 -7 14.5 -7t15.5 7zM571 451q-67 0 -106.5 -39t-39.5 -116q0 -10 10 -10h270q10 0 10 10q0 38 -11 67t-30.5 48.5t-45.5 29.5t-57 10z" />
    <glyph glyph-name="ccedilla" unicode="&#xe7;" 
d="M375 163q0 10 6 13.5t13 3.5h21q8 0 14 -6t6 -14q0 -34 -13.5 -64.5t-38.5 -54t-59.5 -37.5t-76.5 -14q-45 0 -81 15t-62 40.5t-41 60.5t-18 74q-2 30 -2 70t2 70q3 39 18 74t41 60.5t62 40.5t81 15q42 0 76.5 -14t59.5 -37.5t38.5 -54t13.5 -64.5q0 -8 -4.5 -14
t-12.5 -6h-23q-7 0 -13 4t-6 12q0 22 -8.5 43t-25 37t-40.5 25.5t-55 9.5q-38 0 -64 -13t-42.5 -32.5t-24.5 -42.5t-10 -43q-3 -31 -3 -70t3 -70q2 -20 10 -43t24.5 -42.5t42.5 -32.5t64 -13q33 0 57 10.5t40 27t23.5 36.5t7.5 40zM272 -45q10 0 14 -5.5t2 -12.5l-28 -121
q-4 -16 -19 -16h-37q-10 0 -14 5.5t-2 12.5l38 121q4 16 19 16h27z" />
    <glyph glyph-name="egrave" unicode="&#xe8;" horiz-adv-x="492" 
d="M251 451q-67 0 -106.5 -41t-39.5 -118q0 -10 10 -10h270q10 0 10 10q0 38 -11 67.5t-30.5 50t-45.5 31t-57 10.5zM113 226q-10 0 -10 -10q0 -36 8.5 -66.5t26.5 -53t45.5 -35t66.5 -12.5q29 0 51.5 8t39 21.5t27 30t16.5 34.5q3 10 9.5 13.5t13.5 3.5h20q8 0 13.5 -4.5
t3.5 -15.5q-5 -33 -21 -60.5t-41.5 -47.5t-59 -31t-72.5 -11q-45 0 -81.5 15t-63 40.5t-42 60.5t-18.5 74q-2 30 -2 70t2 70q3 39 18.5 74t42 60.5t63 40.5t81.5 15q42 0 78.5 -16t63.5 -43t42.5 -63.5t15.5 -77.5v-64q0 -8 -6 -14t-14 -6h-317zM174 730q11 0 16.5 -5.5
t9.5 -10.5l76 -109q4 -5 0 -12.5t-14 -7.5h-19q-14 0 -19.5 3.5t-10.5 8.5l-108 112q-5 5 -2 13t13 8h58z" />
    <glyph glyph-name="eacute" unicode="&#xe9;" horiz-adv-x="492" 
d="M251 451q-67 0 -106.5 -41t-39.5 -118q0 -10 10 -10h270q10 0 10 10q0 38 -11 67.5t-30.5 50t-45.5 31t-57 10.5zM113 226q-10 0 -10 -10q0 -36 8.5 -66.5t26.5 -53t45.5 -35t66.5 -12.5q29 0 51.5 8t39 21.5t27 30t16.5 34.5q3 10 9.5 13.5t13.5 3.5h20q8 0 13.5 -4.5
t3.5 -15.5q-5 -33 -21 -60.5t-41.5 -47.5t-59 -31t-72.5 -11q-45 0 -81.5 15t-63 40.5t-42 60.5t-18.5 74q-2 30 -2 70t2 70q3 39 18.5 74t42 60.5t63 40.5t81.5 15q42 0 78.5 -16t63.5 -43t42.5 -63.5t15.5 -77.5v-64q0 -8 -6 -14t-14 -6h-317zM364 730q10 0 13 -8t-2 -13
l-108 -112q-5 -5 -10.5 -8.5t-19.5 -3.5h-19q-10 0 -14 7.5t0 12.5l76 109q4 5 9.5 10.5t16.5 5.5h58z" />
    <glyph glyph-name="ecircumflex" unicode="&#xea;" horiz-adv-x="492" 
d="M251 451q-67 0 -106.5 -41t-39.5 -118q0 -10 10 -10h270q10 0 10 10q0 38 -11 67.5t-30.5 50t-45.5 31t-57 10.5zM113 226q-10 0 -10 -10q0 -36 8.5 -66.5t26.5 -53t45.5 -35t66.5 -12.5q29 0 51.5 8t39 21.5t27 30t16.5 34.5q3 10 9.5 13.5t13.5 3.5h20q8 0 13.5 -4.5
t3.5 -15.5q-5 -33 -21 -60.5t-41.5 -47.5t-59 -31t-72.5 -11q-45 0 -81.5 15t-63 40.5t-42 60.5t-18.5 74q-2 30 -2 70t2 70q3 39 18.5 74t42 60.5t63 40.5t81.5 15q42 0 78.5 -16t63.5 -43t42.5 -63.5t15.5 -77.5v-64q0 -8 -6 -14t-14 -6h-317zM175 601q-5 -5 -12.5 -10.5
t-18.5 -5.5h-43q-10 0 -13 8t2 13l118 112q5 5 10.5 8.5t19.5 3.5h22q13 0 18.5 -3.5t10.5 -8.5l118 -112q5 -5 2 -13t-13 -8h-43q-11 0 -18.5 5.5t-12.5 10.5l-67 65q-7 7 -14 0z" />
    <glyph glyph-name="edieresis" unicode="&#xeb;" horiz-adv-x="492" 
d="M251 451q-67 0 -106.5 -41t-39.5 -118q0 -10 10 -10h270q10 0 10 10q0 38 -11 67.5t-30.5 50t-45.5 31t-57 10.5zM113 226q-10 0 -10 -10q0 -36 8.5 -66.5t26.5 -53t45.5 -35t66.5 -12.5q29 0 51.5 8t39 21.5t27 30t16.5 34.5q3 10 9.5 13.5t13.5 3.5h20q8 0 13.5 -4.5
t3.5 -15.5q-5 -33 -21 -60.5t-41.5 -47.5t-59 -31t-72.5 -11q-45 0 -81.5 15t-63 40.5t-42 60.5t-18.5 74q-2 30 -2 70t2 70q3 39 18.5 74t42 60.5t63 40.5t81.5 15q42 0 78.5 -16t63.5 -43t42.5 -63.5t15.5 -77.5v-64q0 -8 -6 -14t-14 -6h-317zM197 638q0 -16 -16 -16h-52
q-16 0 -16 16v53q0 6 4.5 11t11.5 5h52q7 0 11.5 -5t4.5 -11v-53zM368 638q0 -16 -16 -16h-52q-16 0 -16 16v53q0 6 4.5 11t11.5 5h52q7 0 11.5 -5t4.5 -11v-53z" />
    <glyph glyph-name="igrave" unicode="&#xec;" horiz-adv-x="214" 
d="M51 730q11 0 16.5 -5.5t9.5 -10.5l76 -109q4 -5 0 -12.5t-14 -7.5h-19q-14 0 -19.5 3.5t-10.5 8.5l-108 112q-5 5 -2 13t13 8h58zM141 20q0 -8 -6 -14t-14 -6h-28q-8 0 -14 6t-6 14v460q0 8 6 14t14 6h28q8 0 14 -6t6 -14v-460z" />
    <glyph glyph-name="iacute" unicode="&#xed;" horiz-adv-x="214" 
d="M221 730q10 0 13 -8t-2 -13l-108 -112q-5 -5 -10.5 -8.5t-19.5 -3.5h-19q-10 0 -14 7.5t0 12.5l76 109q4 5 9.5 10.5t16.5 5.5h58zM141 20q0 -8 -6 -14t-14 -6h-28q-8 0 -14 6t-6 14v460q0 8 6 14t14 6h28q8 0 14 -6t6 -14v-460z" />
    <glyph glyph-name="icircumflex" unicode="&#xee;" horiz-adv-x="214" 
d="M141 20q0 -8 -6 -14t-14 -6h-28q-8 0 -14 6t-6 14v460q0 8 6 14t14 6h28q8 0 14 -6t6 -14v-460zM34 601q-5 -5 -12.5 -10.5t-18.5 -5.5h-43q-10 0 -13 8t2 13l118 112q5 5 10.5 8.5t19.5 3.5h22q13 0 18.5 -3.5t10.5 -8.5l118 -112q5 -5 2 -13t-13 -8h-43
q-11 0 -18.5 5.5t-12.5 10.5l-67 65q-7 7 -14 0z" />
    <glyph glyph-name="idieresis" unicode="&#xef;" horiz-adv-x="214" 
d="M64 638q0 -16 -16 -16h-52q-16 0 -16 16v53q0 6 4.5 11t11.5 5h52q7 0 11.5 -5t4.5 -11v-53zM235 638q0 -16 -16 -16h-52q-16 0 -16 16v53q0 6 4.5 11t11.5 5h52q7 0 11.5 -5t4.5 -11v-53zM141 20q0 -8 -6 -14t-14 -6h-28q-8 0 -14 6t-6 14v460q0 8 6 14t14 6h28
q8 0 14 -6t6 -14v-460z" />
    <glyph glyph-name="eth" unicode="&#xf0;" horiz-adv-x="493" 
d="M243 49q37 0 63.5 13t43.5 32.5t25.5 42.5t10.5 43q1 15 1.5 25.5t0.5 19.5t-0.5 19.5t-1.5 25.5q-2 20 -10.5 43t-25.5 42.5t-43.5 32.5t-63.5 13q-38 0 -64.5 -13t-43.5 -32.5t-25.5 -42.5t-9.5 -43q-1 -15 -1.5 -25.5t-0.5 -19.5t0.5 -19.5t1.5 -25.5q1 -20 9.5 -43
t25.5 -42.5t43.5 -32.5t64.5 -13zM166 641q-8 0 -14 6t-6 14v19q0 8 6 14t14 6h36q35 0 65.5 -11t56.5 -29q5 -3 9 0l73 45q8 5 16.5 0.5t8.5 -14.5v-17q0 -10 -2.5 -14.5t-10.5 -9.5l-42 -27q-7 -5 -4 -10q27 -37 44 -86.5t24 -106.5q7 -60 8.5 -118.5t-5.5 -121.5
q-4 -39 -19 -74t-40 -60.5t-60.5 -40.5t-80.5 -15t-81.5 15t-63 40.5t-42 60.5t-18.5 74q-1 15 -1.5 25.5t-0.5 19.5t0.5 19.5t1.5 25.5q3 39 18.5 74t42 60.5t63 40.5t81.5 15q26 0 46 -5.5t35 -13t25.5 -16t16.5 -14.5q4 -5 7.5 -3t3.5 7q-2 48 -14.5 89.5t-32.5 73.5
q-5 9 -10 4l-86 -50q-8 -5 -18 -1t-10 15v11q0 8 2 14.5t13 13.5l49 28q7 4 4 9.5t-9 7.5q-28 11 -63 11h-36z" />
    <glyph glyph-name="ntilde" unicode="&#xf1;" horiz-adv-x="482" 
d="M432 20q0 -8 -6 -14t-14 -6h-19q-8 0 -14 6t-6 14v316q0 63 -36.5 89t-90.5 26q-27 0 -50 -8.5t-40.5 -23.5t-27 -35t-9.5 -43v-321q0 -8 -6 -14t-14 -6h-19q-8 0 -14 6t-6 14v460q0 8 6 14t14 6h16q7 0 14 -7q5 -5 10 -10.5t14 -5.5q11 0 20.5 5t22 11.5t30.5 11.5t46 5
q39 0 72 -11t57 -33t37 -54.5t13 -75.5v-316zM324 676q19 0 29.5 6.5t16.5 14.5t15.5 4t9.5 -18v-24q0 -20 -20.5 -35.5t-50.5 -15.5q-24 0 -39.5 4t-29 8.5t-30 8.5t-41.5 4q-17 0 -27.5 -5.5t-18.5 -15.5q-6 -7 -15.5 -3.5t-9.5 17.5v24q0 20 20.5 35.5t50.5 15.5
q24 0 39.5 -4t29 -8.5t29.5 -8.5t42 -4z" />
    <glyph glyph-name="ograve" unicode="&#xf2;" horiz-adv-x="500" 
d="M106 320q-3 -31 -3 -70t3 -70q2 -20 10 -43t24.5 -42.5t42.5 -32.5t64 -13q37 0 63.5 13t43 32.5t24.5 42.5t10 43q3 31 3 70t-3 70q-2 20 -10 43t-24.5 42.5t-43 32.5t-63.5 13q-38 0 -64 -13t-42.5 -32.5t-24.5 -42.5t-10 -43zM45 180q-2 30 -2 70t2 70q3 39 18 74
t41 60.5t62 40.5t81 15t81 -15t62 -40.5t41 -60.5t18 -74q2 -30 2 -70t-2 -70q-3 -39 -18 -74t-41 -60.5t-62 -40.5t-81 -15t-81 15t-62 40.5t-41 60.5t-18 74zM175 730q11 0 16.5 -5.5t9.5 -10.5l76 -109q4 -5 0 -12.5t-14 -7.5h-19q-14 0 -19.5 3.5t-10.5 8.5l-108 112
q-5 5 -2 13t13 8h58z" />
    <glyph glyph-name="oacute" unicode="&#xf3;" horiz-adv-x="500" 
d="M106 320q-3 -31 -3 -70t3 -70q2 -20 10 -43t24.5 -42.5t42.5 -32.5t64 -13q37 0 63.5 13t43 32.5t24.5 42.5t10 43q3 31 3 70t-3 70q-2 20 -10 43t-24.5 42.5t-43 32.5t-63.5 13q-38 0 -64 -13t-42.5 -32.5t-24.5 -42.5t-10 -43zM45 180q-2 30 -2 70t2 70q3 39 18 74
t41 60.5t62 40.5t81 15t81 -15t62 -40.5t41 -60.5t18 -74q2 -30 2 -70t-2 -70q-3 -39 -18 -74t-41 -60.5t-62 -40.5t-81 -15t-81 15t-62 40.5t-41 60.5t-18 74zM365 730q10 0 13 -8t-2 -13l-108 -112q-5 -5 -10.5 -8.5t-19.5 -3.5h-19q-10 0 -14 7.5t0 12.5l76 109
q4 5 9.5 10.5t16.5 5.5h58z" />
    <glyph glyph-name="ocircumflex" unicode="&#xf4;" horiz-adv-x="500" 
d="M106 320q-3 -31 -3 -70t3 -70q2 -20 10 -43t24.5 -42.5t42.5 -32.5t64 -13q37 0 63.5 13t43 32.5t24.5 42.5t10 43q3 31 3 70t-3 70q-2 20 -10 43t-24.5 42.5t-43 32.5t-63.5 13q-38 0 -64 -13t-42.5 -32.5t-24.5 -42.5t-10 -43zM45 180q-2 30 -2 70t2 70q3 39 18 74
t41 60.5t62 40.5t81 15t81 -15t62 -40.5t41 -60.5t18 -74q2 -30 2 -70t-2 -70q-3 -39 -18 -74t-41 -60.5t-62 -40.5t-81 -15t-81 15t-62 40.5t-41 60.5t-18 74zM176 601q-5 -5 -12.5 -10.5t-18.5 -5.5h-43q-10 0 -13 8t2 13l118 112q5 5 10.5 8.5t19.5 3.5h22
q13 0 18.5 -3.5t10.5 -8.5l118 -112q5 -5 2 -13t-13 -8h-43q-11 0 -18.5 5.5t-12.5 10.5l-67 65q-7 7 -14 0z" />
    <glyph glyph-name="otilde" unicode="&#xf5;" horiz-adv-x="500" 
d="M106 320q-3 -31 -3 -70t3 -70q2 -20 10 -43t24.5 -42.5t42.5 -32.5t64 -13q37 0 63.5 13t43 32.5t24.5 42.5t10 43q3 31 3 70t-3 70q-2 20 -10 43t-24.5 42.5t-43 32.5t-63.5 13q-38 0 -64 -13t-42.5 -32.5t-24.5 -42.5t-10 -43zM45 180q-2 30 -2 70t2 70q3 39 18 74
t41 60.5t62 40.5t81 15t81 -15t62 -40.5t41 -60.5t18 -74q2 -30 2 -70t-2 -70q-3 -39 -18 -74t-41 -60.5t-62 -40.5t-81 -15t-81 15t-62 40.5t-41 60.5t-18 74zM320 676q19 0 29.5 6.5t16.5 14.5t15.5 4t9.5 -18v-24q0 -20 -20.5 -35.5t-50.5 -15.5q-24 0 -39.5 4t-29 8.5
t-30 8.5t-41.5 4q-17 0 -27.5 -5.5t-18.5 -15.5q-6 -7 -15.5 -3.5t-9.5 17.5v24q0 20 20.5 35.5t50.5 15.5q24 0 39.5 -4t29 -8.5t29.5 -8.5t42 -4z" />
    <glyph glyph-name="odieresis" unicode="&#xf6;" horiz-adv-x="500" 
d="M106 320q-3 -31 -3 -70t3 -70q2 -20 10 -43t24.5 -42.5t42.5 -32.5t64 -13q37 0 63.5 13t43 32.5t24.5 42.5t10 43q3 31 3 70t-3 70q-2 20 -10 43t-24.5 42.5t-43 32.5t-63.5 13q-38 0 -64 -13t-42.5 -32.5t-24.5 -42.5t-10 -43zM45 180q-2 30 -2 70t2 70q3 39 18 74
t41 60.5t62 40.5t81 15t81 -15t62 -40.5t41 -60.5t18 -74q2 -30 2 -70t-2 -70q-3 -39 -18 -74t-41 -60.5t-62 -40.5t-81 -15t-81 15t-62 40.5t-41 60.5t-18 74zM198 638q0 -16 -16 -16h-52q-16 0 -16 16v53q0 6 4.5 11t11.5 5h52q7 0 11.5 -5t4.5 -11v-53zM369 638
q0 -16 -16 -16h-52q-16 0 -16 16v53q0 6 4.5 11t11.5 5h52q7 0 11.5 -5t4.5 -11v-53z" />
    <glyph glyph-name="divide" unicode="&#xf7;" horiz-adv-x="520" 
d="M450 286q8 0 14 -6t6 -14v-30q0 -8 -6 -14t-14 -6h-380q-8 0 -14 6t-6 14v30q0 8 6 14t14 6h380zM315 20q0 -8 -6 -14t-14 -6h-70q-8 0 -14 6t-6 14v70q0 8 6 14t14 6h70q8 0 14 -6t6 -14v-70zM315 400q0 -8 -6 -14t-14 -6h-70q-8 0 -14 6t-6 14v70q0 8 6 14t14 6h70
q8 0 14 -6t6 -14v-70z" />
    <glyph glyph-name="oslash" unicode="&#xf8;" horiz-adv-x="495" 
d="M97 15q-12 -15 -23 -15h-29q-10 0 -13.5 7.5t4.5 17.5l38 48q4 5 3 6.5t-2 3.5q-25 42 -30 97q-2 30 -2 70t2 70q3 39 18 74t41 60.5t62 40.5t81 15q41 0 73 -12t58 -34q1 -1 3 -1.5t4 2.5l16 20q6 8 10.5 11.5t11.5 3.5h26q10 0 14.5 -8t-3.5 -17l-40 -51q-4 -5 -1 -8
q25 -42 30 -96q2 -30 2 -70t-2 -70q-3 -39 -18 -74t-41 -60.5t-62 -40.5t-81 -15q-40 0 -72.5 11.5t-57.5 31.5q-1 1 -2.5 2t-4.5 -3zM247 451q-38 0 -64 -13t-42.5 -32.5t-24.5 -42.5t-10 -43q-3 -31 -3 -70t3 -70q2 -22 10 -43q1 -2 2.5 -4t4.5 2l219 275q3 4 0 7
q-17 14 -40 24t-55 10zM247 49q37 0 63.5 13t43 32.5t24.5 42.5t10 43q3 31 3 70t-3 70q-2 11 -4 21.5t-7 21.5q-1 2 -2 3t-4 -3l-216 -275q-3 -4 -2 -6t2 -3q17 -14 39.5 -22t52.5 -8z" />
    <glyph glyph-name="ugrave" unicode="&#xf9;" horiz-adv-x="477" 
d="M55 480q0 8 6 14t14 6h19q8 0 14 -6t6 -14v-316q0 -63 36.5 -89t90.5 -26q27 0 50 8.5t40.5 23.5t27 35t9.5 43v321q0 8 6 14t14 6h19q8 0 14 -6t6 -14v-460q0 -8 -6 -14t-14 -6h-16q-7 0 -14 7q-5 5 -10 10.5t-14 5.5q-11 0 -20.5 -5t-22 -11.5t-30.5 -11.5t-46 -5
q-39 0 -72 11t-57 33t-37 54.5t-13 75.5v316zM183 730q11 0 16.5 -5.5t9.5 -10.5l76 -109q4 -5 0 -12.5t-14 -7.5h-19q-14 0 -19.5 3.5t-10.5 8.5l-108 112q-5 5 -2 13t13 8h58z" />
    <glyph glyph-name="uacute" unicode="&#xfa;" horiz-adv-x="477" 
d="M55 480q0 8 6 14t14 6h19q8 0 14 -6t6 -14v-316q0 -63 36.5 -89t90.5 -26q27 0 50 8.5t40.5 23.5t27 35t9.5 43v321q0 8 6 14t14 6h19q8 0 14 -6t6 -14v-460q0 -8 -6 -14t-14 -6h-16q-7 0 -14 7q-5 5 -10 10.5t-14 5.5q-11 0 -20.5 -5t-22 -11.5t-30.5 -11.5t-46 -5
q-39 0 -72 11t-57 33t-37 54.5t-13 75.5v316zM373 730q10 0 13 -8t-2 -13l-108 -112q-5 -5 -10.5 -8.5t-19.5 -3.5h-19q-10 0 -14 7.5t0 12.5l76 109q4 5 9.5 10.5t16.5 5.5h58z" />
    <glyph glyph-name="ucircumflex" unicode="&#xfb;" horiz-adv-x="477" 
d="M55 480q0 8 6 14t14 6h19q8 0 14 -6t6 -14v-316q0 -63 36.5 -89t90.5 -26q27 0 50 8.5t40.5 23.5t27 35t9.5 43v321q0 8 6 14t14 6h19q8 0 14 -6t6 -14v-460q0 -8 -6 -14t-14 -6h-16q-7 0 -14 7q-5 5 -10 10.5t-14 5.5q-11 0 -20.5 -5t-22 -11.5t-30.5 -11.5t-46 -5
q-39 0 -72 11t-57 33t-37 54.5t-13 75.5v316zM164 601q-5 -5 -12.5 -10.5t-18.5 -5.5h-43q-10 0 -13 8t2 13l118 112q5 5 10.5 8.5t19.5 3.5h22q13 0 18.5 -3.5t10.5 -8.5l118 -112q5 -5 2 -13t-13 -8h-43q-11 0 -18.5 5.5t-12.5 10.5l-67 65q-7 7 -14 0z" />
    <glyph glyph-name="udieresis" unicode="&#xfc;" horiz-adv-x="477" 
d="M55 480q0 8 6 14t14 6h19q8 0 14 -6t6 -14v-316q0 -63 36.5 -89t90.5 -26q27 0 50 8.5t40.5 23.5t27 35t9.5 43v321q0 8 6 14t14 6h19q8 0 14 -6t6 -14v-460q0 -8 -6 -14t-14 -6h-16q-7 0 -14 7q-5 5 -10 10.5t-14 5.5q-11 0 -20.5 -5t-22 -11.5t-30.5 -11.5t-46 -5
q-39 0 -72 11t-57 33t-37 54.5t-13 75.5v316zM196 638q0 -16 -16 -16h-52q-16 0 -16 16v53q0 6 4.5 11t11.5 5h52q7 0 11.5 -5t4.5 -11v-53zM367 638q0 -16 -16 -16h-52q-16 0 -16 16v53q0 6 4.5 11t11.5 5h52q7 0 11.5 -5t4.5 -11v-53z" />
    <glyph glyph-name="yacute" unicode="&#xfd;" horiz-adv-x="462" 
d="M227 117q4 -10 8 0l134 368q5 15 19 15h28q12 0 17 -7.5t2 -15.5l-254 -662q-5 -15 -19 -15h-22q-12 0 -17 7.5t-2 15.5l74 201q3 8 1 13l-189 440q-3 8 2 15.5t17 7.5h28q14 0 19 -15zM346 730q10 0 13 -8t-2 -13l-108 -112q-5 -5 -10.5 -8.5t-19.5 -3.5h-19
q-10 0 -14 7.5t0 12.5l76 109q4 5 9.5 10.5t16.5 5.5h58z" />
    <glyph glyph-name="thorn" unicode="&#xfe;" horiz-adv-x="496" 
d="M124 506q0 -7 5.5 -14t16.5 -7q7 0 18.5 4t25.5 8.5t30.5 8.5t33.5 4q39 0 72.5 -15t58.5 -40.5t40.5 -60.5t18.5 -74q2 -30 2 -70t-2 -70q-3 -39 -18.5 -74t-40.5 -60.5t-58.5 -40.5t-72.5 -15q-17 0 -33.5 4t-30.5 8.5t-25.5 8.5t-18.5 4q-11 0 -16.5 -7t-5.5 -14v-174
q0 -8 -6 -14t-14 -6h-19q-8 0 -14 6t-6 14v867q0 8 6 14t14 6h19q8 0 14 -6t6 -14v-181zM383 180q4 31 4 70t-4 70q-2 20 -9.5 43t-23 42.5t-40 32.5t-61.5 13q-33 0 -56 -13t-37 -32.5t-21 -42.5t-9 -43q-3 -31 -3 -70t3 -70q2 -20 9 -43t21 -42.5t37 -32.5t56 -13
q36 0 61 13t40.5 32.5t23 42.5t9.5 43z" />
    <glyph glyph-name="ydieresis" unicode="&#xff;" horiz-adv-x="462" 
d="M227 117q4 -10 8 0l134 368q5 15 19 15h28q12 0 17 -7.5t2 -15.5l-254 -662q-5 -15 -19 -15h-22q-12 0 -17 7.5t-2 15.5l74 201q3 8 1 13l-189 440q-3 8 2 15.5t17 7.5h28q14 0 19 -15zM187 638q0 -16 -16 -16h-52q-16 0 -16 16v53q0 6 4.5 11t11.5 5h52q7 0 11.5 -5
t4.5 -11v-53zM358 638q0 -16 -16 -16h-52q-16 0 -16 16v53q0 6 4.5 11t11.5 5h52q7 0 11.5 -5t4.5 -11v-53z" />
    <glyph glyph-name="Amacron" unicode="&#x100;" 
d="M327 260q11 0 8 11l-91 340q-2 6 -4 6h-2q-3 0 -4 -6l-91 -340q-3 -11 8 -11h176zM361 184q-5 14 -19 14h-206q-14 0 -19 -14l-49 -169q-3 -15 -19 -15h-25q-12 0 -17 6.5t-3 13.5l191 665q3 15 19 15h50q16 0 19 -15l191 -665q2 -7 -3 -13.5t-17 -6.5h-25q-16 0 -19 15z
M365 825q8 0 14 -6t6 -14v-20q0 -8 -6 -14t-14 -6h-242q-8 0 -14 6t-6 14v20q0 8 6 14t14 6h242z" />
    <glyph glyph-name="amacron" unicode="&#x101;" horiz-adv-x="487" 
d="M208 241q-42 0 -74 -23t-32 -67q0 -27 9.5 -46.5t26 -32.5t37.5 -19.5t45 -6.5q69 0 106.5 32t37.5 93v60q0 10 -10 10h-146zM240 455q-23 0 -44 -6.5t-37 -18t-26 -27.5t-10 -36q0 -13 -8 -15t-15 -2h-14q-20 0 -20 20q0 35 15 61t40 43.5t56 26.5t63 9q37 0 69.5 -10
t57 -30.5t39 -51.5t14.5 -74v-324q0 -8 -6 -14t-14 -6h-9q-10 0 -14 7q-4 6 -7 13.5t-13 7.5q-7 0 -18 -6t-27 -13t-37.5 -13t-49.5 -6q-46 0 -80.5 13t-57 35t-33.5 51t-11 61q0 31 11 58t32 46.5t52 30.5t70 11h143q10 0 10 10v39q0 49 -34 79.5t-87 30.5zM369 694
q8 0 14 -6t6 -14v-20q0 -8 -6 -14t-14 -6h-242q-8 0 -14 6t-6 14v20q0 8 6 14t14 6h242z" />
    <glyph glyph-name="Abreve" unicode="&#x102;" 
d="M327 260q11 0 8 11l-91 340q-2 6 -4 6h-2q-3 0 -4 -6l-91 -340q-3 -11 8 -11h176zM361 184q-5 14 -19 14h-206q-14 0 -19 -14l-49 -169q-3 -15 -19 -15h-25q-12 0 -17 6.5t-3 13.5l191 665q3 15 19 15h50q16 0 19 -15l191 -665q2 -7 -3 -13.5t-17 -6.5h-25q-16 0 -19 15z
M324 878q0 7 4.5 12t12.5 5h23q7 0 12 -5t5 -12q0 -27 -10 -50t-28.5 -40.5t-43.5 -27.5t-55 -10t-55.5 10t-44 27.5t-28.5 40.5t-10 50q0 7 5 12t12 5h23q8 0 12.5 -5t4.5 -12q0 -35 23 -55.5t58 -20.5t57.5 20.5t22.5 55.5z" />
    <glyph glyph-name="abreve" unicode="&#x103;" horiz-adv-x="487" 
d="M208 241q-42 0 -74 -23t-32 -67q0 -27 9.5 -46.5t26 -32.5t37.5 -19.5t45 -6.5q69 0 106.5 32t37.5 93v60q0 10 -10 10h-146zM240 455q-23 0 -44 -6.5t-37 -18t-26 -27.5t-10 -36q0 -13 -8 -15t-15 -2h-14q-20 0 -20 20q0 35 15 61t40 43.5t56 26.5t63 9q37 0 69.5 -10
t57 -30.5t39 -51.5t14.5 -74v-324q0 -8 -6 -14t-14 -6h-9q-10 0 -14 7q-4 6 -7 13.5t-13 7.5q-7 0 -18 -6t-27 -13t-37.5 -13t-49.5 -6q-46 0 -80.5 13t-57 35t-33.5 51t-11 61q0 31 11 58t32 46.5t52 30.5t70 11h143q10 0 10 10v39q0 49 -34 79.5t-87 30.5zM324 713
q0 7 4.5 12t12.5 5h23q7 0 12 -5t5 -12q0 -27 -10 -50t-28.5 -40.5t-43.5 -27.5t-55 -10t-55.5 10t-44 27.5t-28.5 40.5t-10 50q0 7 5 12t12 5h23q8 0 12.5 -5t4.5 -12q0 -35 23 -55.5t58 -20.5t57.5 20.5t22.5 55.5z" />
    <glyph glyph-name="Aogonek" unicode="&#x104;" 
d="M68 15q-3 -15 -19 -15h-25q-12 0 -17 6.5t-3 13.5l191 665q3 15 19 15h50q16 0 19 -15l191 -665q2 -7 -3 -13.5t-17 -6.5h-9q-40 0 -67.5 -18.5t-27.5 -57.5q0 -40 28 -57t76 -17q8 0 14 -6t6 -14v-20q0 -8 -6 -14t-14 -6q-36 0 -66 7.5t-52 23t-34 40t-12 58.5
q0 27 9 49t24 38.5t35 28t41 17.5l-38 132q-5 14 -19 14h-206q-14 0 -19 -14zM143 271q-3 -11 8 -11h176q11 0 8 11l-91 340q-2 6 -4 6h-2q-3 0 -4 -6z" />
    <glyph glyph-name="aogonek" unicode="&#x105;" horiz-adv-x="487" 
d="M240 455q-23 0 -44 -6.5t-37 -18t-26 -27.5t-10 -36q0 -13 -8 -15t-15 -2h-14q-20 0 -20 20q0 35 15 61t40 43.5t56 26.5t63 9q37 0 69.5 -10t57 -30.5t39 -51.5t14.5 -74v-324q0 -8 -6 -14t-14 -6h-13q-40 0 -68 -18.5t-28 -57.5q0 -40 28 -57t76 -17q8 0 14 -6t6 -14
v-20q0 -8 -6 -14t-14 -6q-36 0 -66 7.5t-52 23t-34 40t-12 58.5q0 24 8 42t22 32q-17 -3 -36 -3q-46 0 -80.5 13t-57 35t-33.5 51t-11 61q0 31 11 58t32 46.5t52 30.5t70 11h143q10 0 10 10v39q0 49 -34 79.5t-87 30.5zM208 241q-42 0 -74 -23t-32 -67q0 -27 9.5 -46.5
t26 -32.5t37.5 -19.5t45 -6.5q69 0 106.5 32t37.5 93v60q0 10 -10 10h-146z" />
    <glyph glyph-name="Cacute" unicode="&#x106;" horiz-adv-x="543" 
d="M500 200q0 -49 -18 -87.5t-48.5 -65.5t-71 -41t-85.5 -14q-91 0 -150.5 55.5t-72.5 152.5q-4 30 -6 69.5t-2 81t2 80.5t6 69q6 41 23 78.5t45 66.5t66.5 46t88.5 17q49 0 90.5 -17t70.5 -45.5t45.5 -66.5t16.5 -79v-4q0 -8 -6 -14t-14 -6h-27q-8 0 -14 6t-6 14v4
q0 28 -11 54t-31.5 46t-49 32t-64.5 12t-63 -12t-46.5 -32.5t-31 -46.5t-15.5 -53q-5 -31 -7 -70t-2 -80t2 -80t7 -70q3 -22 12.5 -47t28 -46.5t46.5 -36t69 -14.5q40 0 69.5 14t49 35.5t28.5 47t9 47.5v4q0 8 6 14t14 6h27q8 0 14 -6t6 -14v-4zM409 895q10 0 13 -8t-2 -13
l-108 -112q-5 -5 -10.5 -8.5t-19.5 -3.5h-19q-10 0 -14 7.5t0 12.5l76 109q4 5 9.5 10.5t16.5 5.5h58z" />
    <glyph glyph-name="cacute" unicode="&#x107;" 
d="M375 163q0 10 6 13.5t13 3.5h21q8 0 14 -6t6 -14q0 -34 -13.5 -64.5t-38.5 -54t-59.5 -37.5t-76.5 -14q-45 0 -81 15t-62 40.5t-41 60.5t-18 74q-2 30 -2 70t2 70q3 39 18 74t41 60.5t62 40.5t81 15q42 0 76.5 -14t59.5 -37.5t38.5 -54t13.5 -64.5q0 -8 -4.5 -14
t-12.5 -6h-23q-7 0 -13 4t-6 12q0 22 -8.5 43t-25 37t-40.5 25.5t-55 9.5q-38 0 -64 -13t-42.5 -32.5t-24.5 -42.5t-10 -43q-3 -31 -3 -70t3 -70q2 -20 10 -43t24.5 -42.5t42.5 -32.5t64 -13q33 0 57 10.5t40 27t23.5 36.5t7.5 40zM354 730q10 0 13 -8t-2 -13l-108 -112
q-5 -5 -10.5 -8.5t-19.5 -3.5h-19q-10 0 -14 7.5t0 12.5l76 109q4 5 9.5 10.5t16.5 5.5h58z" />
    <glyph glyph-name="Ccircumflex" unicode="&#x108;" horiz-adv-x="543" 
d="M500 200q0 -49 -18 -87.5t-48.5 -65.5t-71 -41t-85.5 -14q-91 0 -150.5 55.5t-72.5 152.5q-4 30 -6 69.5t-2 81t2 80.5t6 69q6 41 23 78.5t45 66.5t66.5 46t88.5 17q49 0 90.5 -17t70.5 -45.5t45.5 -66.5t16.5 -79v-4q0 -8 -6 -14t-14 -6h-27q-8 0 -14 6t-6 14v4
q0 28 -11 54t-31.5 46t-49 32t-64.5 12t-63 -12t-46.5 -32.5t-31 -46.5t-15.5 -53q-5 -31 -7 -70t-2 -80t2 -80t7 -70q3 -22 12.5 -47t28 -46.5t46.5 -36t69 -14.5q40 0 69.5 14t49 35.5t28.5 47t9 47.5v4q0 8 6 14t14 6h27q8 0 14 -6t6 -14v-4zM210 767q-5 -5 -12.5 -10.5
t-18.5 -5.5h-43q-10 0 -13 8t2 13l118 112q5 5 10.5 8.5t19.5 3.5h22q13 0 18.5 -3.5t10.5 -8.5l118 -112q5 -5 2 -13t-13 -8h-43q-11 0 -18.5 5.5t-12.5 10.5l-67 65q-7 7 -14 0z" />
    <glyph glyph-name="ccircumflex" unicode="&#x109;" 
d="M375 163q0 10 6 13.5t13 3.5h21q8 0 14 -6t6 -14q0 -34 -13.5 -64.5t-38.5 -54t-59.5 -37.5t-76.5 -14q-45 0 -81 15t-62 40.5t-41 60.5t-18 74q-2 30 -2 70t2 70q3 39 18 74t41 60.5t62 40.5t81 15q42 0 76.5 -14t59.5 -37.5t38.5 -54t13.5 -64.5q0 -8 -4.5 -14
t-12.5 -6h-23q-7 0 -13 4t-6 12q0 22 -8.5 43t-25 37t-40.5 25.5t-55 9.5q-38 0 -64 -13t-42.5 -32.5t-24.5 -42.5t-10 -43q-3 -31 -3 -70t3 -70q2 -20 10 -43t24.5 -42.5t42.5 -32.5t64 -13q33 0 57 10.5t40 27t23.5 36.5t7.5 40zM173 601q-5 -5 -12.5 -10.5t-18.5 -5.5
h-43q-10 0 -13 8t2 13l118 112q5 5 10.5 8.5t19.5 3.5h22q13 0 18.5 -3.5t10.5 -8.5l118 -112q5 -5 2 -13t-13 -8h-43q-11 0 -18.5 5.5t-12.5 10.5l-67 65q-7 7 -14 0z" />
    <glyph glyph-name="Cdotaccent" unicode="&#x10a;" horiz-adv-x="543" 
d="M500 200q0 -49 -18 -87.5t-48.5 -65.5t-71 -41t-85.5 -14q-91 0 -150.5 55.5t-72.5 152.5q-4 30 -6 69.5t-2 81t2 80.5t6 69q6 41 23 78.5t45 66.5t66.5 46t88.5 17q49 0 90.5 -17t70.5 -45.5t45.5 -66.5t16.5 -79v-4q0 -8 -6 -14t-14 -6h-27q-8 0 -14 6t-6 14v4
q0 28 -11 54t-31.5 46t-49 32t-64.5 12t-63 -12t-46.5 -32.5t-31 -46.5t-15.5 -53q-5 -31 -7 -70t-2 -80t2 -80t7 -70q3 -22 12.5 -47t28 -46.5t46.5 -36t69 -14.5q40 0 69.5 14t49 35.5t28.5 47t9 47.5v4q0 8 6 14t14 6h27q8 0 14 -6t6 -14v-4zM316 770q0 -16 -16 -16h-58
q-16 0 -16 16v59q0 6 4.5 11t11.5 5h58q7 0 11.5 -5t4.5 -11v-59z" />
    <glyph glyph-name="cdotaccent" unicode="&#x10b;" 
d="M375 163q0 10 6 13.5t13 3.5h21q8 0 14 -6t6 -14q0 -34 -13.5 -64.5t-38.5 -54t-59.5 -37.5t-76.5 -14q-45 0 -81 15t-62 40.5t-41 60.5t-18 74q-2 30 -2 70t2 70q3 39 18 74t41 60.5t62 40.5t81 15q42 0 76.5 -14t59.5 -37.5t38.5 -54t13.5 -64.5q0 -8 -4.5 -14
t-12.5 -6h-23q-7 0 -13 4t-6 12q0 22 -8.5 43t-25 37t-40.5 25.5t-55 9.5q-38 0 -64 -13t-42.5 -32.5t-24.5 -42.5t-10 -43q-3 -31 -3 -70t3 -70q2 -20 10 -43t24.5 -42.5t42.5 -32.5t64 -13q33 0 57 10.5t40 27t23.5 36.5t7.5 40zM291 632q0 -16 -16 -16h-58q-16 0 -16 16
v59q0 6 4.5 11t11.5 5h58q7 0 11.5 -5t4.5 -11v-59z" />
    <glyph glyph-name="Ccaron" unicode="&#x10c;" horiz-adv-x="543" 
d="M500 200q0 -49 -18 -87.5t-48.5 -65.5t-71 -41t-85.5 -14q-91 0 -150.5 55.5t-72.5 152.5q-4 30 -6 69.5t-2 81t2 80.5t6 69q6 41 23 78.5t45 66.5t66.5 46t88.5 17q49 0 90.5 -17t70.5 -45.5t45.5 -66.5t16.5 -79v-4q0 -8 -6 -14t-14 -6h-27q-8 0 -14 6t-6 14v4
q0 28 -11 54t-31.5 46t-49 32t-64.5 12t-63 -12t-46.5 -32.5t-31 -46.5t-15.5 -53q-5 -31 -7 -70t-2 -80t2 -80t7 -70q3 -22 12.5 -47t28 -46.5t46.5 -36t69 -14.5q40 0 69.5 14t49 35.5t28.5 47t9 47.5v4q0 8 6 14t14 6h27q8 0 14 -6t6 -14v-4zM264 815q7 -7 14 0l68 65
q5 5 12.5 10.5t18.5 5.5h42q10 0 13 -8t-2 -13l-118 -112q-5 -5 -10.5 -8.5t-18.5 -3.5h-22q-14 0 -19.5 3.5t-10.5 8.5l-118 112q-5 5 -2 13t13 8h43q11 0 18.5 -5.5t12.5 -10.5z" />
    <glyph glyph-name="ccaron" unicode="&#x10d;" 
d="M375 163q0 10 6 13.5t13 3.5h21q8 0 14 -6t6 -14q0 -34 -13.5 -64.5t-38.5 -54t-59.5 -37.5t-76.5 -14q-45 0 -81 15t-62 40.5t-41 60.5t-18 74q-2 30 -2 70t2 70q3 39 18 74t41 60.5t62 40.5t81 15q42 0 76.5 -14t59.5 -37.5t38.5 -54t13.5 -64.5q0 -8 -4.5 -14
t-12.5 -6h-23q-7 0 -13 4t-6 12q0 22 -8.5 43t-25 37t-40.5 25.5t-55 9.5q-38 0 -64 -13t-42.5 -32.5t-24.5 -42.5t-10 -43q-3 -31 -3 -70t3 -70q2 -20 10 -43t24.5 -42.5t42.5 -32.5t64 -13q33 0 57 10.5t40 27t23.5 36.5t7.5 40zM239 649q7 -7 14 0l68 65q5 5 12.5 10.5
t18.5 5.5h42q10 0 13 -8t-2 -13l-118 -112q-5 -5 -10.5 -8.5t-18.5 -3.5h-22q-14 0 -19.5 3.5t-10.5 8.5l-118 112q-5 5 -2 13t13 8h43q11 0 18.5 -5.5t12.5 -10.5z" />
    <glyph glyph-name="Dcaron" unicode="&#x10e;" horiz-adv-x="538" 
d="M139 636q-10 0 -10 -10v-552q0 -10 10 -10h126q40 0 68.5 13t47 33t28 44t12.5 46q4 31 6.5 70t2.5 80t-2.5 80t-6.5 70q-4 27 -15.5 52t-31 43.5t-46.5 29.5t-63 11h-126zM265 700q49 0 88 -16t67 -43t45 -63.5t23 -77.5q4 -30 6 -69t2 -80.5t-2 -81t-6 -69.5
q-13 -97 -72.5 -148.5t-150.5 -51.5h-180q-8 0 -14 6t-6 14v660q0 8 6 14t14 6h180zM254 815q7 -7 14 0l68 65q5 5 12.5 10.5t18.5 5.5h42q10 0 13 -8t-2 -13l-118 -112q-5 -5 -10.5 -8.5t-18.5 -3.5h-22q-14 0 -19.5 3.5t-10.5 8.5l-118 112q-5 5 -2 13t13 8h43
q11 0 18.5 -5.5t12.5 -10.5z" />
    <glyph glyph-name="dcaron" unicode="&#x10f;" horiz-adv-x="625" 
d="M106 320q-4 -31 -4 -70t4 -70q2 -20 9.5 -43t23 -42.5t40 -32.5t61.5 -13q33 0 56 13t37 32.5t21 42.5t9 43q3 31 3 70t-3 70q-2 20 -9 43t-21 42.5t-37 32.5t-56 13q-36 0 -61 -13t-40.5 -32.5t-23 -42.5t-9.5 -43zM235 -10q-39 0 -72.5 15t-58.5 40.5t-40.5 60.5
t-18.5 74q-2 30 -2 70t2 70q3 39 18.5 74t40.5 60.5t58.5 40.5t72.5 15q24 0 40.5 -4t28.5 -8.5t20 -8.5t16 -4q11 0 18 5.5t7 19.5v177q0 8 6 14t14 6h19q8 0 14 -6t6 -14v-667q0 -8 -6 -14t-14 -6h-16q-7 0 -14 7q-5 5 -11 10.5t-14 5.5q-11 0 -19.5 -5t-20.5 -11.5
t-29 -11.5t-45 -5zM489 505q-9 0 -14.5 7.5t-0.5 16.5l28 51q3 5 0.5 10t-8.5 5h-5q-8 0 -14 6t-6 14v65q0 8 6 14t14 6h60q8 0 14 -6t6 -14v-70q0 -21 -5 -31.5t-11 -19.5l-25 -36q-4 -5 -9.5 -11.5t-19.5 -6.5h-10z" />
    <glyph glyph-name="Dcroat" unicode="&#x110;" horiz-adv-x="538" 
d="M129 74q0 -10 10 -10h126q40 0 68.5 13t47 33t28 44t12.5 46q4 31 6.5 70t2.5 80t-2.5 80t-6.5 70q-4 27 -15.5 52t-31 43.5t-46.5 29.5t-63 11h-126q-10 0 -10 -10v-227q0 -10 10 -10h100q8 0 14 -6t6 -14v-23q0 -8 -6 -14t-14 -6h-100q-10 0 -10 -10v-242zM265 700
q49 0 88 -16t67 -43t45 -63.5t23 -77.5q4 -30 6 -69t2 -80.5t-2 -81t-6 -69.5q-13 -97 -72.5 -148.5t-150.5 -51.5h-180q-8 0 -14 6t-6 14v296q0 10 -10 10h-32q-8 0 -14 6t-6 14v23q0 8 6 14t14 6h32q10 0 10 10v281q0 8 6 14t14 6h180z" />
    <glyph glyph-name="dcroat" unicode="&#x111;" horiz-adv-x="505" 
d="M106 320q-4 -31 -4 -70t4 -70q2 -20 9.5 -43t23 -42.5t40 -32.5t61.5 -13q33 0 56 13t37 32.5t21 42.5t9 43q3 31 3 70t-3 70q-2 20 -9 43t-21 42.5t-37 32.5t-56 13q-36 0 -61 -13t-40.5 -32.5t-23 -42.5t-9.5 -43zM424 637q0 -10 10 -10h35q8 0 14 -6t6 -14v-10
q0 -8 -6 -14t-14 -6h-35q-10 0 -10 -10v-547q0 -8 -6 -14t-14 -6h-16q-7 0 -14 7q-5 5 -11 10.5t-14 5.5q-11 0 -19.5 -5t-20.5 -11.5t-29 -11.5t-45 -5q-39 0 -72.5 15t-58.5 40.5t-40.5 60.5t-18.5 74q-2 30 -2 70t2 70q3 39 18.5 74t40.5 60.5t58.5 40.5t72.5 15
q24 0 40.5 -4t28.5 -8.5t20 -8.5t16 -4q11 0 18 5.5t7 19.5v57q0 10 -10 10h-70q-8 0 -14 6t-6 14v10q0 8 6 14t14 6h70q10 0 10 10v50q0 8 6 14t14 6h19q8 0 14 -6t6 -14v-50z" />
    <glyph glyph-name="Emacron" unicode="&#x112;" horiz-adv-x="470" 
d="M129 74q0 -10 10 -10h261q8 0 14 -6t6 -14v-24q0 -8 -6 -14t-14 -6h-315q-8 0 -14 6t-6 14v660q0 8 6 14t14 6h313q8 0 14 -6t6 -14v-24q0 -8 -6 -14t-14 -6h-259q-10 0 -10 -10v-227q0 -10 10 -10h248q8 0 14 -6t6 -14v-23q0 -8 -6 -14t-14 -6h-248q-10 0 -10 -10v-242z
M365 825q8 0 14 -6t6 -14v-20q0 -8 -6 -14t-14 -6h-242q-8 0 -14 6t-6 14v20q0 8 6 14t14 6h242z" />
    <glyph glyph-name="emacron" unicode="&#x113;" horiz-adv-x="492" 
d="M251 451q-67 0 -106.5 -41t-39.5 -118q0 -10 10 -10h270q10 0 10 10q0 38 -11 67.5t-30.5 50t-45.5 31t-57 10.5zM113 226q-10 0 -10 -10q0 -36 8.5 -66.5t26.5 -53t45.5 -35t66.5 -12.5q29 0 51.5 8t39 21.5t27 30t16.5 34.5q3 10 9.5 13.5t13.5 3.5h20q8 0 13.5 -4.5
t3.5 -15.5q-5 -33 -21 -60.5t-41.5 -47.5t-59 -31t-72.5 -11q-45 0 -81.5 15t-63 40.5t-42 60.5t-18.5 74q-2 30 -2 70t2 70q3 39 18.5 74t42 60.5t63 40.5t81.5 15q42 0 78.5 -16t63.5 -43t42.5 -63.5t15.5 -77.5v-64q0 -8 -6 -14t-14 -6h-317zM375 694q8 0 14 -6t6 -14
v-20q0 -8 -6 -14t-14 -6h-242q-8 0 -14 6t-6 14v20q0 8 6 14t14 6h242z" />
    <glyph glyph-name="Ebreve" unicode="&#x114;" horiz-adv-x="470" 
d="M129 74q0 -10 10 -10h261q8 0 14 -6t6 -14v-24q0 -8 -6 -14t-14 -6h-315q-8 0 -14 6t-6 14v660q0 8 6 14t14 6h313q8 0 14 -6t6 -14v-24q0 -8 -6 -14t-14 -6h-259q-10 0 -10 -10v-227q0 -10 10 -10h248q8 0 14 -6t6 -14v-23q0 -8 -6 -14t-14 -6h-248q-10 0 -10 -10v-242z
M334 878q0 7 4.5 12t12.5 5h23q7 0 12 -5t5 -12q0 -27 -10 -50t-28.5 -40.5t-43.5 -27.5t-55 -10t-55.5 10t-44 27.5t-28.5 40.5t-10 50q0 7 5 12t12 5h23q8 0 12.5 -5t4.5 -12q0 -35 23 -55.5t58 -20.5t57.5 20.5t22.5 55.5z" />
    <glyph glyph-name="ebreve" unicode="&#x115;" horiz-adv-x="492" 
d="M251 451q-67 0 -106.5 -41t-39.5 -118q0 -10 10 -10h270q10 0 10 10q0 38 -11 67.5t-30.5 50t-45.5 31t-57 10.5zM113 226q-10 0 -10 -10q0 -36 8.5 -66.5t26.5 -53t45.5 -35t66.5 -12.5q29 0 51.5 8t39 21.5t27 30t16.5 34.5q3 10 9.5 13.5t13.5 3.5h20q8 0 13.5 -4.5
t3.5 -15.5q-5 -33 -21 -60.5t-41.5 -47.5t-59 -31t-72.5 -11q-45 0 -81.5 15t-63 40.5t-42 60.5t-18.5 74q-2 30 -2 70t2 70q3 39 18.5 74t42 60.5t63 40.5t81.5 15q42 0 78.5 -16t63.5 -43t42.5 -63.5t15.5 -77.5v-64q0 -8 -6 -14t-14 -6h-317zM334 713q0 7 4.5 12t12.5 5
h23q7 0 12 -5t5 -12q0 -27 -10 -50t-28.5 -40.5t-43.5 -27.5t-55 -10t-55.5 10t-44 27.5t-28.5 40.5t-10 50q0 7 5 12t12 5h23q8 0 12.5 -5t4.5 -12q0 -35 23 -55.5t58 -20.5t57.5 20.5t22.5 55.5z" />
    <glyph glyph-name="Edotaccent" unicode="&#x116;" horiz-adv-x="470" 
d="M129 74q0 -10 10 -10h261q8 0 14 -6t6 -14v-24q0 -8 -6 -14t-14 -6h-315q-8 0 -14 6t-6 14v660q0 8 6 14t14 6h313q8 0 14 -6t6 -14v-24q0 -8 -6 -14t-14 -6h-259q-10 0 -10 -10v-227q0 -10 10 -10h248q8 0 14 -6t6 -14v-23q0 -8 -6 -14t-14 -6h-248q-10 0 -10 -10v-242z
M301 770q0 -16 -16 -16h-58q-16 0 -16 16v59q0 6 4.5 11t11.5 5h58q7 0 11.5 -5t4.5 -11v-59z" />
    <glyph glyph-name="edotaccent" unicode="&#x117;" horiz-adv-x="492" 
d="M251 451q-67 0 -106.5 -41t-39.5 -118q0 -10 10 -10h270q10 0 10 10q0 38 -11 67.5t-30.5 50t-45.5 31t-57 10.5zM113 226q-10 0 -10 -10q0 -36 8.5 -66.5t26.5 -53t45.5 -35t66.5 -12.5q29 0 51.5 8t39 21.5t27 30t16.5 34.5q3 10 9.5 13.5t13.5 3.5h20q8 0 13.5 -4.5
t3.5 -15.5q-5 -33 -21 -60.5t-41.5 -47.5t-59 -31t-72.5 -11q-45 0 -81.5 15t-63 40.5t-42 60.5t-18.5 74q-2 30 -2 70t2 70q3 39 18.5 74t42 60.5t63 40.5t81.5 15q42 0 78.5 -16t63.5 -43t42.5 -63.5t15.5 -77.5v-64q0 -8 -6 -14t-14 -6h-317zM299 632q0 -16 -16 -16h-58
q-16 0 -16 16v59q0 6 4.5 11t11.5 5h58q7 0 11.5 -5t4.5 -11v-59z" />
    <glyph glyph-name="Eogonek" unicode="&#x118;" horiz-adv-x="470" 
d="M129 399q0 -10 10 -10h248q8 0 14 -6t6 -14v-23q0 -8 -6 -14t-14 -6h-248q-10 0 -10 -10v-242q0 -10 10 -10h261q8 0 14 -6t6 -14v-24q0 -8 -5 -13.5t-13 -6.5h-11q-40 0 -67.5 -18.5t-27.5 -57.5q0 -40 28 -57t76 -17q8 0 14 -6t6 -14v-20q0 -8 -6 -14t-14 -6
q-36 0 -66 7.5t-52 23t-34 40t-12 58.5q0 26 8 46t22 35h-181q-8 0 -14 6t-6 14v660q0 8 6 14t14 6h313q8 0 14 -6t6 -14v-24q0 -8 -6 -14t-14 -6h-259q-10 0 -10 -10v-227z" />
    <glyph glyph-name="eogonek" unicode="&#x119;" horiz-adv-x="492" 
d="M391 40q-10 -10 -23 -21.5t-24.5 -25.5t-19.5 -31t-8 -38q0 -40 28 -57t76 -17q8 0 14 -6t6 -14v-20q0 -8 -6 -14t-14 -6q-36 0 -66 7.5t-52 23t-34 40t-12 58.5q0 41 21 73q-7 -1 -13.5 -1.5t-13.5 -0.5q-45 0 -81.5 15t-63 40.5t-42 60.5t-18.5 74q-2 30 -2 70t2 70
q3 39 18.5 74t42 60.5t63 40.5t81.5 15q42 0 78.5 -16t63.5 -43t42.5 -63.5t15.5 -77.5v-64q0 -8 -6 -14t-14 -6h-317q-10 0 -10 -10q0 -36 8.5 -66.5t26.5 -53t45.5 -35t66.5 -12.5q29 0 51.5 8t39 21.5t27 30t16.5 34.5q3 10 9.5 13.5t13.5 3.5h20q8 0 13.5 -4.5
t3.5 -15.5q-5 -32 -18.5 -55.5t-34.5 -44.5zM105 292q0 -10 10 -10h270q10 0 10 10q0 38 -11 67.5t-30.5 50t-45.5 31t-57 10.5q-67 0 -106.5 -41t-39.5 -118z" />
    <glyph glyph-name="Ecaron" unicode="&#x11a;" horiz-adv-x="470" 
d="M129 74q0 -10 10 -10h261q8 0 14 -6t6 -14v-24q0 -8 -6 -14t-14 -6h-315q-8 0 -14 6t-6 14v660q0 8 6 14t14 6h313q8 0 14 -6t6 -14v-24q0 -8 -6 -14t-14 -6h-259q-10 0 -10 -10v-227q0 -10 10 -10h248q8 0 14 -6t6 -14v-23q0 -8 -6 -14t-14 -6h-248q-10 0 -10 -10v-242z
M244 815q7 -7 14 0l68 65q5 5 12.5 10.5t18.5 5.5h42q10 0 13 -8t-2 -13l-118 -112q-5 -5 -10.5 -8.5t-18.5 -3.5h-22q-14 0 -19.5 3.5t-10.5 8.5l-118 112q-5 5 -2 13t13 8h43q11 0 18.5 -5.5t12.5 -10.5z" />
    <glyph glyph-name="ecaron" unicode="&#x11b;" horiz-adv-x="492" 
d="M251 451q-67 0 -106.5 -41t-39.5 -118q0 -10 10 -10h270q10 0 10 10q0 38 -11 67.5t-30.5 50t-45.5 31t-57 10.5zM113 226q-10 0 -10 -10q0 -36 8.5 -66.5t26.5 -53t45.5 -35t66.5 -12.5q29 0 51.5 8t39 21.5t27 30t16.5 34.5q3 10 9.5 13.5t13.5 3.5h20q8 0 13.5 -4.5
t3.5 -15.5q-5 -33 -21 -60.5t-41.5 -47.5t-59 -31t-72.5 -11q-45 0 -81.5 15t-63 40.5t-42 60.5t-18.5 74q-2 30 -2 70t2 70q3 39 18.5 74t42 60.5t63 40.5t81.5 15q42 0 78.5 -16t63.5 -43t42.5 -63.5t15.5 -77.5v-64q0 -8 -6 -14t-14 -6h-317zM246 649q7 -7 14 0l68 65
q5 5 12.5 10.5t18.5 5.5h42q10 0 13 -8t-2 -13l-118 -112q-5 -5 -10.5 -8.5t-18.5 -3.5h-22q-14 0 -19.5 3.5t-10.5 8.5l-118 112q-5 5 -2 13t13 8h43q11 0 18.5 -5.5t12.5 -10.5z" />
    <glyph glyph-name="Gcircumflex" unicode="&#x11c;" horiz-adv-x="546" 
d="M436 308q0 10 -10 10h-122q-8 0 -14 6t-6 14v24q0 8 6 14t14 6h176q8 0 14 -6t6 -14v-162q0 -49 -18 -87.5t-48.5 -65.5t-71 -41t-85.5 -14q-91 0 -150.5 55.5t-72.5 152.5q-4 30 -6 69.5t-2 81t2 80.5t6 69q6 41 23 78.5t45 66.5t66.5 46t88.5 17q49 0 90.5 -16.5
t70.5 -44.5t45.5 -66t16.5 -81v-4q0 -8 -6 -14t-14 -6h-27q-8 0 -14 6t-6 14v4q0 31 -11 57.5t-31.5 45.5t-49 30t-64.5 11t-63 -12t-46.5 -32.5t-31 -46.5t-15.5 -53q-5 -31 -7 -70t-2 -80t2 -80t7 -70q3 -22 12.5 -47t28 -46.5t46.5 -36t69 -14.5q40 0 70 14t50 35.5
t29.5 47t9.5 47.5v108zM212 771q-5 -5 -12.5 -10.5t-18.5 -5.5h-43q-10 0 -13 8t2 13l118 112q5 5 10.5 8.5t19.5 3.5h22q13 0 18.5 -3.5t10.5 -8.5l118 -112q5 -5 2 -13t-13 -8h-43q-11 0 -18.5 5.5t-12.5 10.5l-67 65q-7 7 -14 0z" />
    <glyph glyph-name="gcircumflex" unicode="&#x11d;" horiz-adv-x="484" 
d="M363 180q3 31 3 70t-3 70q-2 20 -9 43t-21 42.5t-37 32.5t-56 13q-37 0 -61.5 -13t-40 -32.5t-23 -42.5t-9.5 -43q-4 -31 -4 -70t4 -70q2 -20 9.5 -43t23 -42.5t40.5 -32.5t61 -13q33 0 56 13t37 32.5t21 42.5t9 43zM235 510q28 0 45 -5t29 -11.5t20.5 -11.5t19.5 -5
q8 0 14 5.5t11 10.5q7 7 14 7h16q8 0 14 -6t6 -14v-510q0 -36 -13 -69t-36.5 -57.5t-56 -39t-72.5 -14.5q-30 0 -58.5 8.5t-52.5 26t-41.5 43t-24.5 59.5q-5 23 18 23h16q13 0 18 -6t8 -14q5 -14 14 -28.5t23 -26t34 -19t46 -7.5q28 0 50 10.5t37.5 27.5t23.5 38.5t8 44.5
v20q0 25 -22 25q-8 0 -19 -4t-25 -8.5t-30.5 -8.5t-33.5 -4q-39 0 -72.5 15t-58.5 40.5t-40.5 60.5t-18.5 74q-2 30 -2 70t2 70q3 39 18.5 74t40.5 60.5t58.5 40.5t72.5 15zM173 601q-5 -5 -12.5 -10.5t-18.5 -5.5h-43q-10 0 -13 8t2 13l118 112q5 5 10.5 8.5t19.5 3.5h22
q13 0 18.5 -3.5t10.5 -8.5l118 -112q5 -5 2 -13t-13 -8h-43q-11 0 -18.5 5.5t-12.5 10.5l-67 65q-7 7 -14 0z" />
    <glyph glyph-name="Gbreve" unicode="&#x11e;" horiz-adv-x="546" 
d="M436 308q0 10 -10 10h-122q-8 0 -14 6t-6 14v24q0 8 6 14t14 6h176q8 0 14 -6t6 -14v-162q0 -49 -18 -87.5t-48.5 -65.5t-71 -41t-85.5 -14q-91 0 -150.5 55.5t-72.5 152.5q-4 30 -6 69.5t-2 81t2 80.5t6 69q6 41 23 78.5t45 66.5t66.5 46t88.5 17q49 0 90.5 -16.5
t70.5 -44.5t45.5 -66t16.5 -81v-4q0 -8 -6 -14t-14 -6h-27q-8 0 -14 6t-6 14v4q0 31 -11 57.5t-31.5 45.5t-49 30t-64.5 11t-63 -12t-46.5 -32.5t-31 -46.5t-15.5 -53q-5 -31 -7 -70t-2 -80t2 -80t7 -70q3 -22 12.5 -47t28 -46.5t46.5 -36t69 -14.5q40 0 70 14t50 35.5
t29.5 47t9.5 47.5v108zM364 878q0 7 4.5 12t12.5 5h23q7 0 12 -5t5 -12q0 -27 -10 -50t-28.5 -40.5t-43.5 -27.5t-55 -10t-55.5 10t-44 27.5t-28.5 40.5t-10 50q0 7 5 12t12 5h23q8 0 12.5 -5t4.5 -12q0 -35 23 -55.5t58 -20.5t57.5 20.5t22.5 55.5z" />
    <glyph glyph-name="gbreve" unicode="&#x11f;" horiz-adv-x="484" 
d="M363 180q3 31 3 70t-3 70q-2 20 -9 43t-21 42.5t-37 32.5t-56 13q-37 0 -61.5 -13t-40 -32.5t-23 -42.5t-9.5 -43q-4 -31 -4 -70t4 -70q2 -20 9.5 -43t23 -42.5t40.5 -32.5t61 -13q33 0 56 13t37 32.5t21 42.5t9 43zM235 510q28 0 45 -5t29 -11.5t20.5 -11.5t19.5 -5
q8 0 14 5.5t11 10.5q7 7 14 7h16q8 0 14 -6t6 -14v-510q0 -36 -13 -69t-36.5 -57.5t-56 -39t-72.5 -14.5q-30 0 -58.5 8.5t-52.5 26t-41.5 43t-24.5 59.5q-5 23 18 23h16q13 0 18 -6t8 -14q5 -14 14 -28.5t23 -26t34 -19t46 -7.5q28 0 50 10.5t37.5 27.5t23.5 38.5t8 44.5
v20q0 25 -22 25q-8 0 -19 -4t-25 -8.5t-30.5 -8.5t-33.5 -4q-39 0 -72.5 15t-58.5 40.5t-40.5 60.5t-18.5 74q-2 30 -2 70t2 70q3 39 18.5 74t40.5 60.5t58.5 40.5t72.5 15zM327 713q0 7 4.5 12t12.5 5h23q7 0 12 -5t5 -12q0 -27 -10 -50t-28.5 -40.5t-43.5 -27.5t-55 -10
t-55.5 10t-44 27.5t-28.5 40.5t-10 50q0 7 5 12t12 5h23q8 0 12.5 -5t4.5 -12q0 -35 23 -55.5t58 -20.5t57.5 20.5t22.5 55.5z" />
    <glyph glyph-name="Gdotaccent" unicode="&#x120;" horiz-adv-x="546" 
d="M436 308q0 10 -10 10h-122q-8 0 -14 6t-6 14v24q0 8 6 14t14 6h176q8 0 14 -6t6 -14v-162q0 -49 -18 -87.5t-48.5 -65.5t-71 -41t-85.5 -14q-91 0 -150.5 55.5t-72.5 152.5q-4 30 -6 69.5t-2 81t2 80.5t6 69q6 41 23 78.5t45 66.5t66.5 46t88.5 17q49 0 90.5 -16.5
t70.5 -44.5t45.5 -66t16.5 -81v-4q0 -8 -6 -14t-14 -6h-27q-8 0 -14 6t-6 14v4q0 31 -11 57.5t-31.5 45.5t-49 30t-64.5 11t-63 -12t-46.5 -32.5t-31 -46.5t-15.5 -53q-5 -31 -7 -70t-2 -80t2 -80t7 -70q3 -22 12.5 -47t28 -46.5t46.5 -36t69 -14.5q40 0 70 14t50 35.5
t29.5 47t9.5 47.5v108zM326 770q0 -16 -16 -16h-58q-16 0 -16 16v59q0 6 4.5 11t11.5 5h58q7 0 11.5 -5t4.5 -11v-59z" />
    <glyph glyph-name="gdotaccent" unicode="&#x121;" horiz-adv-x="484" 
d="M363 180q3 31 3 70t-3 70q-2 20 -9 43t-21 42.5t-37 32.5t-56 13q-37 0 -61.5 -13t-40 -32.5t-23 -42.5t-9.5 -43q-4 -31 -4 -70t4 -70q2 -20 9.5 -43t23 -42.5t40.5 -32.5t61 -13q33 0 56 13t37 32.5t21 42.5t9 43zM235 510q28 0 45 -5t29 -11.5t20.5 -11.5t19.5 -5
q8 0 14 5.5t11 10.5q7 7 14 7h16q8 0 14 -6t6 -14v-510q0 -36 -13 -69t-36.5 -57.5t-56 -39t-72.5 -14.5q-30 0 -58.5 8.5t-52.5 26t-41.5 43t-24.5 59.5q-5 23 18 23h16q13 0 18 -6t8 -14q5 -14 14 -28.5t23 -26t34 -19t46 -7.5q28 0 50 10.5t37.5 27.5t23.5 38.5t8 44.5
v20q0 25 -22 25q-8 0 -19 -4t-25 -8.5t-30.5 -8.5t-33.5 -4q-39 0 -72.5 15t-58.5 40.5t-40.5 60.5t-18.5 74q-2 30 -2 70t2 70q3 39 18.5 74t40.5 60.5t58.5 40.5t72.5 15zM292 632q0 -16 -16 -16h-58q-16 0 -16 16v59q0 6 4.5 11t11.5 5h58q7 0 11.5 -5t4.5 -11v-59z" />
    <glyph glyph-name="Gcommaaccent" unicode="&#x122;" horiz-adv-x="546" 
d="M436 308q0 10 -10 10h-122q-8 0 -14 6t-6 14v24q0 8 6 14t14 6h176q8 0 14 -6t6 -14v-162q0 -49 -18 -87.5t-48.5 -65.5t-71 -41t-85.5 -14q-91 0 -150.5 55.5t-72.5 152.5q-4 30 -6 69.5t-2 81t2 80.5t6 69q6 41 23 78.5t45 66.5t66.5 46t88.5 17q49 0 90.5 -16.5
t70.5 -44.5t45.5 -66t16.5 -81v-4q0 -8 -6 -14t-14 -6h-27q-8 0 -14 6t-6 14v4q0 31 -11 57.5t-31.5 45.5t-49 30t-64.5 11t-63 -12t-46.5 -32.5t-31 -46.5t-15.5 -53q-5 -31 -7 -70t-2 -80t2 -80t7 -70q3 -22 12.5 -47t28 -46.5t46.5 -36t69 -14.5q40 0 70 14t50 35.5
t29.5 47t9.5 47.5v108zM233 -240q-9 0 -14.5 7.5t-0.5 16.5l28 51q3 5 0.5 10t-8.5 5h-5q-8 0 -14 6t-6 14v65q0 8 6 14t14 6h60q8 0 14 -6t6 -14v-70q0 -21 -5 -31.5t-11 -19.5l-25 -36q-4 -5 -9.5 -11.5t-19.5 -6.5h-10z" />
    <glyph glyph-name="gcommaaccent" unicode="&#x123;" horiz-adv-x="484" 
d="M363 180q3 31 3 70t-3 70q-2 20 -9 43t-21 42.5t-37 32.5t-56 13q-37 0 -61.5 -13t-40 -32.5t-23 -42.5t-9.5 -43q-4 -31 -4 -70t4 -70q2 -20 9.5 -43t23 -42.5t40.5 -32.5t61 -13q33 0 56 13t37 32.5t21 42.5t9 43zM235 510q28 0 45 -5t29 -11.5t20.5 -11.5t19.5 -5
q8 0 14 5.5t11 10.5q7 7 14 7h16q8 0 14 -6t6 -14v-510q0 -36 -13 -69t-36.5 -57.5t-56 -39t-72.5 -14.5q-30 0 -58.5 8.5t-52.5 26t-41.5 43t-24.5 59.5q-5 23 18 23h16q13 0 18 -6t8 -14q5 -14 14 -28.5t23 -26t34 -19t46 -7.5q28 0 50 10.5t37.5 27.5t23.5 38.5t8 44.5
v20q0 25 -22 25q-8 0 -19 -4t-25 -8.5t-30.5 -8.5t-33.5 -4q-39 0 -72.5 15t-58.5 40.5t-40.5 60.5t-18.5 74q-2 30 -2 70t2 70q3 39 18.5 74t40.5 60.5t58.5 40.5t72.5 15zM287 780q9 0 14.5 -7.5t0.5 -16.5l-28 -51q-3 -5 -0.5 -10t8.5 -5h5q8 0 14 -6t6 -14v-65
q0 -8 -6 -14t-14 -6h-60q-8 0 -14 6t-6 14v70q0 21 5 31.5t11 19.5l25 36q4 5 9.5 11.5t19.5 6.5h10z" />
    <glyph glyph-name="Hcircumflex" unicode="&#x124;" horiz-adv-x="540" 
d="M411 680q0 8 6 14t14 6h24q8 0 14 -6t6 -14v-660q0 -8 -6 -14t-14 -6h-24q-8 0 -14 6t-6 14v296q0 10 -10 10h-262q-10 0 -10 -10v-296q0 -8 -6 -14t-14 -6h-24q-8 0 -14 6t-6 14v660q0 8 6 14t14 6h24q8 0 14 -6t6 -14v-280q0 -10 10 -10h262q10 0 10 10v280zM197 771
q-5 -5 -12.5 -10.5t-18.5 -5.5h-43q-10 0 -13 8t2 13l118 112q5 5 10.5 8.5t19.5 3.5h22q13 0 18.5 -3.5t10.5 -8.5l118 -112q5 -5 2 -13t-13 -8h-43q-11 0 -18.5 5.5t-12.5 10.5l-67 65q-7 7 -14 0z" />
    <glyph glyph-name="hcircumflex" unicode="&#x125;" horiz-adv-x="477" 
d="M368 336q0 51 -34 83t-88 32q-27 0 -49.5 -8.5t-38.5 -23.5t-25 -35t-9 -43v-321q0 -8 -6 -14t-14 -6h-19q-8 0 -14 6t-6 14v667q0 8 6 14t14 6h19q8 0 14 -6t6 -14v-181q0 -7 5.5 -14t16.5 -7q7 0 16.5 4t22.5 8.5t29.5 8.5t38.5 4q39 0 71.5 -14t55 -38t35 -55.5
t12.5 -66.5v-316q0 -8 -6 -14t-14 -6h-19q-8 0 -14 6t-6 14v316zM177 771q-5 -5 -12.5 -10.5t-18.5 -5.5h-43q-10 0 -13 8t2 13l118 112q5 5 10.5 8.5t19.5 3.5h22q13 0 18.5 -3.5t10.5 -8.5l118 -112q5 -5 2 -13t-13 -8h-43q-11 0 -18.5 5.5t-12.5 10.5l-67 65q-7 7 -14 0z
" />
    <glyph glyph-name="Hbar" unicode="&#x126;" horiz-adv-x="540" 
d="M411 680q0 8 6 14t14 6h24q8 0 14 -6t6 -14v-660q0 -8 -6 -14t-14 -6h-24q-8 0 -14 6t-6 14v296q0 10 -10 10h-262q-10 0 -10 -10v-296q0 -8 -6 -14t-14 -6h-24q-8 0 -14 6t-6 14v660q0 8 6 14t14 6h24q8 0 14 -6t6 -14v-95q0 -10 10 -10h262q10 0 10 10v95zM139 511
q-10 0 -10 -10v-101q0 -10 10 -10h262q10 0 10 10v101q0 10 -10 10h-262z" />
    <glyph glyph-name="hbar" unicode="&#x127;" horiz-adv-x="477" 
d="M134 577q-10 0 -10 -10v-61q0 -7 5.5 -14t16.5 -7q7 0 16.5 4t22.5 8.5t29.5 8.5t38.5 4q39 0 71.5 -14t55 -38t35 -55.5t12.5 -66.5v-316q0 -8 -6 -14t-14 -6h-19q-8 0 -14 6t-6 14v316q0 51 -34 83t-88 32q-27 0 -49.5 -8.5t-38.5 -23.5t-25 -35t-9 -43v-321
q0 -8 -6 -14t-14 -6h-19q-8 0 -14 6t-6 14v547q0 10 -10 10h-35q-8 0 -14 6t-6 14v10q0 8 6 14t14 6h35q10 0 10 10v50q0 8 6 14t14 6h19q8 0 14 -6t6 -14v-50q0 -10 10 -10h70q8 0 14 -6t6 -14v-10q0 -8 -6 -14t-14 -6h-70v0z" />
    <glyph glyph-name="Itilde" unicode="&#x128;" horiz-adv-x="194" 
d="M129 20q0 -8 -6 -14t-14 -6h-24q-8 0 -14 6t-6 14v660q0 8 6 14t14 6h24q8 0 14 -6t6 -14v-660zM179 832q19 0 29.5 6.5t16.5 14.5t15.5 4t9.5 -18v-24q0 -20 -20.5 -35.5t-50.5 -15.5q-24 0 -39.5 4t-29 8.5t-30 8.5t-41.5 4q-17 0 -27.5 -5.5t-18.5 -15.5
q-6 -7 -15.5 -3.5t-9.5 17.5v24q0 20 20.5 35.5t50.5 15.5q24 0 39.5 -4t29 -8.5t29.5 -8.5t42 -4z" />
    <glyph glyph-name="itilde" unicode="&#x129;" horiz-adv-x="214" 
d="M177 676q19 0 29.5 6.5t16.5 14.5t15.5 4t9.5 -18v-24q0 -20 -20.5 -35.5t-50.5 -15.5q-24 0 -39.5 4t-29 8.5t-30 8.5t-41.5 4q-17 0 -27.5 -5.5t-18.5 -15.5q-6 -7 -15.5 -3.5t-9.5 17.5v24q0 20 20.5 35.5t50.5 15.5q24 0 39.5 -4t29 -8.5t29.5 -8.5t42 -4zM141 20
q0 -8 -6 -14t-14 -6h-28q-8 0 -14 6t-6 14v460q0 8 6 14t14 6h28q8 0 14 -6t6 -14v-460z" />
    <glyph glyph-name="Imacron" unicode="&#x12a;" horiz-adv-x="194" 
d="M129 20q0 -8 -6 -14t-14 -6h-24q-8 0 -14 6t-6 14v660q0 8 6 14t14 6h24q8 0 14 -6t6 -14v-660zM219 825q8 0 14 -6t6 -14v-20q0 -8 -6 -14t-14 -6h-242q-8 0 -14 6t-6 14v20q0 8 6 14t14 6h242z" />
    <glyph glyph-name="imacron" unicode="&#x12b;" horiz-adv-x="214" 
d="M228 694q8 0 14 -6t6 -14v-20q0 -8 -6 -14t-14 -6h-242q-8 0 -14 6t-6 14v20q0 8 6 14t14 6h242zM141 20q0 -8 -6 -14t-14 -6h-28q-8 0 -14 6t-6 14v460q0 8 6 14t14 6h28q8 0 14 -6t6 -14v-460z" />
    <glyph glyph-name="Ibreve" unicode="&#x12c;" horiz-adv-x="194" 
d="M128 20q0 -8 -6 -14t-14 -6h-24q-8 0 -14 6t-6 14v660q0 8 6 14t14 6h24q8 0 14 -6t6 -14v-660zM177 878q0 7 4.5 12t12.5 5h23q7 0 12 -5t5 -12q0 -27 -10 -50t-28.5 -40.5t-43.5 -27.5t-55 -10t-55.5 10t-44 27.5t-28.5 40.5t-10 50q0 7 5 12t12 5h23q8 0 12.5 -5
t4.5 -12q0 -35 23 -55.5t58 -20.5t57.5 20.5t22.5 55.5z" />
    <glyph glyph-name="ibreve" unicode="&#x12d;" horiz-adv-x="214" 
d="M188 713q0 7 4.5 12t12.5 5h23q7 0 12 -5t5 -12q0 -27 -10 -50t-28.5 -40.5t-43.5 -27.5t-55 -10t-55.5 10t-44 27.5t-28.5 40.5t-10 50q0 7 5 12t12 5h23q8 0 12.5 -5t4.5 -12q0 -35 23 -55.5t58 -20.5t57.5 20.5t22.5 55.5zM141 20q0 -8 -6 -14t-14 -6h-28q-8 0 -14 6
t-6 14v460q0 8 6 14t14 6h28q8 0 14 -6t6 -14v-460z" />
    <glyph glyph-name="Iogonek" unicode="&#x12e;" horiz-adv-x="194" 
d="M129 20q0 -8 -6 -14t-14 -6h-9q-40 0 -67.5 -18.5t-27.5 -57.5q0 -40 28 -57t76 -17q8 0 14 -6t6 -14v-20q0 -8 -6 -14t-14 -6q-36 0 -66 7.5t-52 23t-34 40t-12 58.5q0 29 10 51.5t27 39.5t38.5 28t44.5 17v625q0 8 6 14t14 6h24q8 0 14 -6t6 -14v-660z" />
    <glyph glyph-name="iogonek" unicode="&#x12f;" horiz-adv-x="214" 
d="M149 638q0 -16 -16 -16h-52q-16 0 -16 16v53q0 6 4.5 11t11.5 5h52q7 0 11.5 -5t4.5 -11v-53zM109 0q-40 0 -67.5 -18.5t-27.5 -57.5q0 -40 28 -57t76 -17q8 0 14 -6t6 -14v-20q0 -8 -6 -14t-14 -6q-36 0 -66 7.5t-52 23t-34 40t-12 58.5q0 30 10.5 53t28 40t39.5 28
t46 16v424q0 8 4.5 14t15.5 6h20q11 0 15.5 -6t4.5 -14v-460q0 -8 -4.5 -14t-15.5 -6h-9z" />
    <glyph glyph-name="Idotaccent" unicode="&#x130;" horiz-adv-x="194" 
d="M129 20q0 -8 -6 -14t-14 -6h-24q-8 0 -14 6t-6 14v660q0 8 6 14t14 6h24q8 0 14 -6t6 -14v-660zM143 770q0 -16 -16 -16h-58q-16 0 -16 16v59q0 6 4.5 11t11.5 5h58q7 0 11.5 -5t4.5 -11v-59z" />
    <glyph glyph-name="dotlessi" unicode="&#x131;" horiz-adv-x="214" 
d="M141 20q0 -8 -6 -14t-14 -6h-28q-8 0 -14 6t-6 14v460q0 8 6 14t14 6h28q8 0 14 -6t6 -14v-460z" />
    <glyph glyph-name="Jcircumflex" unicode="&#x134;" horiz-adv-x="459" 
d="M5 200q0 8 6 14t14 6h25q8 0 14 -6t6 -14v-8q0 -27 10 -51.5t27.5 -43.5t42.5 -30t55 -11q60 0 98 34.5t38 111.5v478q0 8 6 14t14 6h24q8 0 14 -6t6 -14v-488q0 -46 -15.5 -83t-42.5 -63t-63.5 -40t-78.5 -14q-41 0 -77.5 16t-63.5 43t-43 63.5t-16 77.5v8zM293 771
q-5 -5 -12.5 -10.5t-18.5 -5.5h-43q-10 0 -13 8t2 13l118 112q5 5 10.5 8.5t19.5 3.5h22q13 0 18.5 -3.5t10.5 -8.5l118 -112q5 -5 2 -13t-13 -8h-43q-11 0 -18.5 5.5t-12.5 10.5l-67 65q-7 7 -14 0z" />
    <glyph glyph-name="jcircumflex" unicode="&#x135;" horiz-adv-x="264" 
d="M109 480q0 8 4.5 14t15.5 6h20q11 0 15.5 -6t4.5 -14v-510q0 -38 -10.5 -70.5t-31.5 -57t-52.5 -38.5t-72.5 -14h-42q-8 0 -14 6t-6 14v19q0 8 6 14t14 6h42q19 0 38 6t34.5 20.5t25 37.5t9.5 57v510zM66 601q-5 -5 -12.5 -10.5t-18.5 -5.5h-43q-10 0 -13 8t2 13l118 112
q5 5 10.5 8.5t19.5 3.5h22q13 0 18.5 -3.5t10.5 -8.5l118 -112q5 -5 2 -13t-13 -8h-43q-11 0 -18.5 5.5t-12.5 10.5l-67 65q-7 7 -14 0z" />
    <glyph glyph-name="Kcommaaccent" unicode="&#x136;" horiz-adv-x="474" 
d="M137 299q-2 2 -5 2t-3 -4v-277q0 -8 -6 -14t-14 -6h-24q-8 0 -14 6t-6 14v660q0 8 6 14t14 6h24q8 0 14 -6t6 -14v-264q0 -4 3 -4t5 2l230 275q2 3 8.5 7t17.5 4h16q18 0 22 -12.5t-5 -23.5l-247 -291q-5 -6 -6 -11.5t5 -12.5l264 -312q8 -10 5 -23.5t-23 -13.5h-22
q-11 0 -17 5t-9 8zM203 -240q-9 0 -14.5 7.5t-0.5 16.5l28 51q3 5 0.5 10t-8.5 5h-5q-8 0 -14 6t-6 14v65q0 8 6 14t14 6h60q8 0 14 -6t6 -14v-70q0 -21 -5 -31.5t-11 -19.5l-25 -36q-4 -5 -9.5 -11.5t-19.5 -6.5h-10z" />
    <glyph glyph-name="kcommaaccent" unicode="&#x137;" horiz-adv-x="439" 
d="M174 272q-13 -13 0 -24l214 -213q11 -10 6.5 -22.5t-20.5 -12.5h-20q-11 0 -18.5 5.5t-11.5 9.5l-192 194q-2 2 -5 2t-3 -4v-187q0 -8 -6 -14t-14 -6h-19q-8 0 -14 6t-6 14v667q0 8 6 14t14 6h19q8 0 14 -6t6 -14v-375q0 -4 3 -4.5t5 2.5l181 177q4 4 10.5 8.5t17.5 4.5
h18q17 0 19.5 -12.5t-5.5 -20.5zM176 -240q-9 0 -14.5 7.5t-0.5 16.5l28 51q3 5 0.5 10t-8.5 5h-5q-8 0 -14 6t-6 14v65q0 8 6 14t14 6h60q8 0 14 -6t6 -14v-70q0 -21 -5 -31.5t-11 -19.5l-25 -36q-4 -5 -9.5 -11.5t-19.5 -6.5h-10z" />
    <glyph glyph-name="kgreenlandic" unicode="&#x138;" horiz-adv-x="439" 
d="M174 272q-13 -13 0 -24l214 -213q11 -10 6.5 -22.5t-20.5 -12.5h-25q-11 0 -18.5 5.5t-11.5 9.5l-187 194q-2 2 -5 2t-3 -4v-187q0 -8 -6 -14t-14 -6h-19q-8 0 -14 6t-6 14v460q0 8 6 14t14 6h19q8 0 14 -6t6 -14v-173q0 -4 2.5 -4.5t5.5 2.5l181 182q4 4 10.5 8.5
t17.5 4.5h18q17 0 19.5 -12.5t-5.5 -20.5z" />
    <glyph glyph-name="Lacute" unicode="&#x139;" horiz-adv-x="424" 
d="M129 74q0 -10 10 -10h245q8 0 14 -6t6 -14v-24q0 -8 -6 -14t-14 -6h-299q-8 0 -14 6t-6 14v660q0 8 6 14t14 6h24q8 0 14 -6t6 -14v-606zM249 895q10 0 13 -8t-2 -13l-108 -112q-5 -5 -10.5 -8.5t-19.5 -3.5h-19q-10 0 -14 7.5t0 12.5l76 109q4 5 9.5 10.5t16.5 5.5h58z
" />
    <glyph glyph-name="lacute" unicode="&#x13a;" horiz-adv-x="187" 
d="M120 20q0 -8 -6 -14t-14 -6h-20q-8 0 -14 6t-6 14v667q0 8 6 14t14 6h20q8 0 14 -6t6 -14v-667zM214 895q10 0 13 -8t-2 -13l-108 -112q-5 -5 -10.5 -8.5t-19.5 -3.5h-19q-10 0 -14 7.5t0 12.5l76 109q4 5 9.5 10.5t16.5 5.5h58z" />
    <glyph glyph-name="Lcommaaccent" unicode="&#x13b;" horiz-adv-x="424" 
d="M129 74q0 -10 10 -10h245q8 0 14 -6t6 -14v-24q0 -8 -6 -14t-14 -6h-299q-8 0 -14 6t-6 14v660q0 8 6 14t14 6h24q8 0 14 -6t6 -14v-606zM191 -240q-9 0 -14.5 7.5t-0.5 16.5l28 51q3 5 0.5 10t-8.5 5h-5q-8 0 -14 6t-6 14v65q0 8 6 14t14 6h60q8 0 14 -6t6 -14v-70
q0 -21 -5 -31.5t-11 -19.5l-25 -36q-4 -5 -9.5 -11.5t-19.5 -6.5h-10z" />
    <glyph glyph-name="lcommaaccent" unicode="&#x13c;" horiz-adv-x="211" 
d="M154 -135q0 -21 -5 -31.5t-11 -19.5l-25 -36q-4 -5 -9.5 -11.5t-19.5 -6.5h-10q-9 0 -14.5 7.5t-0.5 16.5l28 51q3 5 0.5 10t-8.5 5h-5q-8 0 -14 6t-6 14v65q0 8 6 14t14 6h60q8 0 14 -6t6 -14v-70zM134 20q0 -8 -6 -14t-14 -6h-20q-8 0 -14 6t-6 14v667q0 8 6 14t14 6
h20q8 0 14 -6t6 -14v-667z" />
    <glyph glyph-name="Lcaron" unicode="&#x13d;" horiz-adv-x="424" 
d="M129 74q0 -10 10 -10h245q8 0 14 -6t6 -14v-24q0 -8 -6 -14t-14 -6h-299q-8 0 -14 6t-6 14v660q0 8 6 14t14 6h24q8 0 14 -6t6 -14v-606zM224 505q-9 0 -14.5 7.5t-0.5 16.5l28 51q3 5 0.5 10t-8.5 5h-5q-8 0 -14 6t-6 14v65q0 8 6 14t14 6h60q8 0 14 -6t6 -14v-70
q0 -21 -5 -31.5t-11 -19.5l-25 -36q-4 -5 -9.5 -11.5t-19.5 -6.5h-10z" />
    <glyph glyph-name="lcaron" unicode="&#x13e;" horiz-adv-x="244" 
d="M125 20q0 -8 -6 -14t-14 -6h-20q-8 0 -14 6t-6 14v667q0 8 6 14t14 6h20q8 0 14 -6t6 -14v-667zM205 505q-9 0 -14.5 7.5t-0.5 16.5l28 51q3 5 0.5 10t-8.5 5h-5q-8 0 -14 6t-6 14v65q0 8 6 14t14 6h60q8 0 14 -6t6 -14v-70q0 -21 -5 -31.5t-11 -19.5l-25 -36
q-4 -5 -9.5 -11.5t-19.5 -6.5h-10z" />
    <glyph glyph-name="Ldot" unicode="&#x13f;" horiz-adv-x="424" 
d="M129 74q0 -10 10 -10h245q8 0 14 -6t6 -14v-24q0 -8 -6 -14t-14 -6h-299q-8 0 -14 6t-6 14v660q0 8 6 14t14 6h24q8 0 14 -6t6 -14v-606zM310 275q0 -16 -16 -16h-58q-16 0 -16 16v59q0 6 4.5 11t11.5 5h58q7 0 11.5 -5t4.5 -11v-59z" />
    <glyph glyph-name="ldot" unicode="&#x140;" horiz-adv-x="304" 
d="M125 20q0 -8 -6 -14t-14 -6h-20q-8 0 -14 6t-6 14v667q0 8 6 14t14 6h20q8 0 14 -6t6 -14v-667zM290 275q0 -16 -16 -16h-58q-16 0 -16 16v59q0 6 4.5 11t11.5 5h58q7 0 11.5 -5t4.5 -11v-59z" />
    <glyph glyph-name="Lslash" unicode="&#x141;" horiz-adv-x="424" 
d="M275 478q7 5 16 0.5t9 -14.5v-21q0 -10 -6.5 -17.5t-13.5 -12.5l-145 -103q-6 -5 -6 -10v-226q0 -10 10 -10h245q8 0 14 -6t6 -14v-24q0 -8 -6 -14t-14 -6h-299q-8 0 -14 6t-6 14v223q0 5 -3.5 6t-5.5 -1l-33 -23q-8 -5 -18 -1t-10 15v17q0 8 2 14t13 14l47 33q8 6 8 14
v349q0 8 6 14t14 6h24q8 0 14 -6t6 -14v-295q0 -3 3 -4.5t6 0.5z" />
    <glyph glyph-name="lslash" unicode="&#x142;" horiz-adv-x="220" 
d="M128 383q0 -3 3 -4.5t6 0.5l54 36q7 5 16 0.5t9 -14.5v-21q0 -10 -6.5 -17.5t-13.5 -12.5l-62 -42q-6 -5 -6 -10v-278q0 -8 -6 -14t-14 -6h-20q-8 0 -14 6t-6 14v231q0 5 -3.5 6t-5.5 -1l-36 -23q-8 -5 -18 -1t-10 15v17q0 8 2 14t13 14l50 33q8 6 8 14v348q0 8 6 14
t14 6h20q8 0 14 -6t6 -14v-304z" />
    <glyph glyph-name="Nacute" unicode="&#x143;" horiz-adv-x="530" 
d="M393 0q-8 0 -12 3t-9 14l-239 574q-2 3 -5 2.5t-3 -4.5v-569q0 -8 -6 -14t-14 -6h-20q-8 0 -14 6t-6 14v660q0 8 6 14t14 6h52q8 0 12 -3t9 -14l239 -569q2 -3 5 -2.5t3 4.5v564q0 8 6 14t14 6h20q8 0 14 -6t6 -14v-660q0 -8 -6 -14t-14 -6h-52zM379 895q10 0 13 -8
t-2 -13l-108 -112q-5 -5 -10.5 -8.5t-19.5 -3.5h-19q-10 0 -14 7.5t0 12.5l76 109q4 5 9.5 10.5t16.5 5.5h58z" />
    <glyph glyph-name="nacute" unicode="&#x144;" horiz-adv-x="482" 
d="M432 20q0 -8 -6 -14t-14 -6h-19q-8 0 -14 6t-6 14v316q0 63 -36.5 89t-90.5 26q-27 0 -50 -8.5t-40.5 -23.5t-27 -35t-9.5 -43v-321q0 -8 -6 -14t-14 -6h-19q-8 0 -14 6t-6 14v460q0 8 6 14t14 6h16q7 0 14 -7q5 -5 10 -10.5t14 -5.5q11 0 20.5 5t22 11.5t30.5 11.5t46 5
q39 0 72 -11t57 -33t37 -54.5t13 -75.5v-316zM361 730q10 0 13 -8t-2 -13l-108 -112q-5 -5 -10.5 -8.5t-19.5 -3.5h-19q-10 0 -14 7.5t0 12.5l76 109q4 5 9.5 10.5t16.5 5.5h58z" />
    <glyph glyph-name="Ncommaaccent" unicode="&#x145;" horiz-adv-x="530" 
d="M393 0q-8 0 -12 3t-9 14l-239 574q-2 3 -5 2.5t-3 -4.5v-569q0 -8 -6 -14t-14 -6h-20q-8 0 -14 6t-6 14v660q0 8 6 14t14 6h52q8 0 12 -3t9 -14l239 -569q2 -3 5 -2.5t3 4.5v564q0 8 6 14t14 6h20q8 0 14 -6t6 -14v-660q0 -8 -6 -14t-14 -6h-52zM234 -240q-9 0 -14.5 7.5
t-0.5 16.5l28 51q3 5 0.5 10t-8.5 5h-5q-8 0 -14 6t-6 14v65q0 8 6 14t14 6h60q8 0 14 -6t6 -14v-70q0 -21 -5 -31.5t-11 -19.5l-25 -36q-4 -5 -9.5 -11.5t-19.5 -6.5h-10z" />
    <glyph glyph-name="ncommaaccent" unicode="&#x146;" horiz-adv-x="482" 
d="M432 20q0 -8 -6 -14t-14 -6h-19q-8 0 -14 6t-6 14v316q0 63 -36.5 89t-90.5 26q-27 0 -50 -8.5t-40.5 -23.5t-27 -35t-9.5 -43v-321q0 -8 -6 -14t-14 -6h-19q-8 0 -14 6t-6 14v460q0 8 6 14t14 6h16q7 0 14 -7q5 -5 10 -10.5t14 -5.5q11 0 20.5 5t22 11.5t30.5 11.5t46 5
q39 0 72 -11t57 -33t37 -54.5t13 -75.5v-316zM217 -240q-9 0 -14.5 7.5t-0.5 16.5l28 51q3 5 0.5 10t-8.5 5h-5q-8 0 -14 6t-6 14v65q0 8 6 14t14 6h60q8 0 14 -6t6 -14v-70q0 -21 -5 -31.5t-11 -19.5l-25 -36q-4 -5 -9.5 -11.5t-19.5 -6.5h-10z" />
    <glyph glyph-name="Ncaron" unicode="&#x147;" horiz-adv-x="530" 
d="M393 0q-8 0 -12 3t-9 14l-239 574q-2 3 -5 2.5t-3 -4.5v-569q0 -8 -6 -14t-14 -6h-20q-8 0 -14 6t-6 14v660q0 8 6 14t14 6h52q8 0 12 -3t9 -14l239 -569q2 -3 5 -2.5t3 4.5v564q0 8 6 14t14 6h20q8 0 14 -6t6 -14v-660q0 -8 -6 -14t-14 -6h-52zM274 815q7 -7 14 0l68 65
q5 5 12.5 10.5t18.5 5.5h42q10 0 13 -8t-2 -13l-118 -112q-5 -5 -10.5 -8.5t-18.5 -3.5h-22q-14 0 -19.5 3.5t-10.5 8.5l-118 112q-5 5 -2 13t13 8h43q11 0 18.5 -5.5t12.5 -10.5z" />
    <glyph glyph-name="ncaron" unicode="&#x148;" horiz-adv-x="482" 
d="M432 20q0 -8 -6 -14t-14 -6h-19q-8 0 -14 6t-6 14v316q0 63 -36.5 89t-90.5 26q-27 0 -50 -8.5t-40.5 -23.5t-27 -35t-9.5 -43v-321q0 -8 -6 -14t-14 -6h-19q-8 0 -14 6t-6 14v460q0 8 6 14t14 6h16q7 0 14 -7q5 -5 10 -10.5t14 -5.5q11 0 20.5 5t22 11.5t30.5 11.5t46 5
q39 0 72 -11t57 -33t37 -54.5t13 -75.5v-316zM250 649q7 -7 14 0l68 65q5 5 12.5 10.5t18.5 5.5h42q10 0 13 -8t-2 -13l-118 -112q-5 -5 -10.5 -8.5t-18.5 -3.5h-22q-14 0 -19.5 3.5t-10.5 8.5l-118 112q-5 5 -2 13t13 8h43q11 0 18.5 -5.5t12.5 -10.5z" />
    <glyph glyph-name="Eng" unicode="&#x14a;" horiz-adv-x="530" 
d="M133 591q-2 3 -5 2.5t-3 -4.5v-569q0 -8 -6 -14t-14 -6h-20q-8 0 -14 6t-6 14v660q0 8 6 14t14 6h52q8 0 12 -3t9 -14l239 -523q2 -3 5 -2.5t3 4.5v518q0 8 6 14t14 6h20q8 0 14 -6t6 -14v-705q0 -93 -45 -139t-125 -46q-8 0 -14 6t-6 14v24q0 8 6 14t14 6q55 0 80.5 28
t25.5 91v27z" />
    <glyph glyph-name="eng" unicode="&#x14b;" horiz-adv-x="482" 
d="M432 -25q0 -93 -42.5 -139t-122.5 -46q-8 0 -14 6t-6 14v16q0 8 6 14t14 6q55 0 80.5 32t25.5 95v363q0 63 -36.5 89t-90.5 26q-27 0 -50 -8.5t-40.5 -23.5t-27 -35t-9.5 -43v-321q0 -8 -6 -14t-14 -6h-19q-8 0 -14 6t-6 14v460q0 8 6 14t14 6h16q7 0 14 -7
q5 -5 10 -10.5t14 -5.5q11 0 20.5 5t22 11.5t30.5 11.5t46 5q39 0 72 -11t57 -33t37 -54.5t13 -75.5v-361z" />
    <glyph glyph-name="Omacron" unicode="&#x14c;" horiz-adv-x="556" 
d="M277 56q40 0 68.5 14.5t47 36t28 46.5t12.5 47q4 31 6.5 70t2.5 80t-2.5 80t-6.5 70q-4 27 -15.5 53t-31 46.5t-46.5 32.5t-63 12t-63 -12t-46.5 -32.5t-31 -46.5t-15.5 -53q-5 -31 -7 -70t-2 -80t2 -80t7 -70q3 -22 12.5 -47t28 -46.5t46.5 -36t69 -14.5zM277 708
q49 0 88 -17t67 -46t45 -66.5t23 -78.5q4 -30 6 -69t2 -80.5t-2 -81t-6 -69.5q-13 -97 -72.5 -152.5t-150.5 -55.5t-150.5 55.5t-72.5 152.5q-4 30 -6 69.5t-2 81t2 80.5t6 69q6 41 23 78.5t45 66.5t66.5 46t88.5 17zM403 825q8 0 14 -6t6 -14v-20q0 -8 -6 -14t-14 -6h-242
q-8 0 -14 6t-6 14v20q0 8 6 14t14 6h242z" />
    <glyph glyph-name="omacron" unicode="&#x14d;" horiz-adv-x="500" 
d="M106 320q-3 -31 -3 -70t3 -70q2 -20 10 -43t24.5 -42.5t42.5 -32.5t64 -13q37 0 63.5 13t43 32.5t24.5 42.5t10 43q3 31 3 70t-3 70q-2 20 -10 43t-24.5 42.5t-43 32.5t-63.5 13q-38 0 -64 -13t-42.5 -32.5t-24.5 -42.5t-10 -43zM45 180q-2 30 -2 70t2 70q3 39 18 74
t41 60.5t62 40.5t81 15t81 -15t62 -40.5t41 -60.5t18 -74q2 -30 2 -70t-2 -70q-3 -39 -18 -74t-41 -60.5t-62 -40.5t-81 -15t-81 15t-62 40.5t-41 60.5t-18 74zM371 694q8 0 14 -6t6 -14v-20q0 -8 -6 -14t-14 -6h-242q-8 0 -14 6t-6 14v20q0 8 6 14t14 6h242z" />
    <glyph glyph-name="Obreve" unicode="&#x14e;" horiz-adv-x="556" 
d="M277 56q40 0 68.5 14.5t47 36t28 46.5t12.5 47q4 31 6.5 70t2.5 80t-2.5 80t-6.5 70q-4 27 -15.5 53t-31 46.5t-46.5 32.5t-63 12t-63 -12t-46.5 -32.5t-31 -46.5t-15.5 -53q-5 -31 -7 -70t-2 -80t2 -80t7 -70q3 -22 12.5 -47t28 -46.5t46.5 -36t69 -14.5zM277 708
q49 0 88 -17t67 -46t45 -66.5t23 -78.5q4 -30 6 -69t2 -80.5t-2 -81t-6 -69.5q-13 -97 -72.5 -152.5t-150.5 -55.5t-150.5 55.5t-72.5 152.5q-4 30 -6 69.5t-2 81t2 80.5t6 69q6 41 23 78.5t45 66.5t66.5 46t88.5 17zM361 878q0 7 4.5 12t12.5 5h23q7 0 12 -5t5 -12
q0 -27 -10 -50t-28.5 -40.5t-43.5 -27.5t-55 -10t-55.5 10t-44 27.5t-28.5 40.5t-10 50q0 7 5 12t12 5h23q8 0 12.5 -5t4.5 -12q0 -35 23 -55.5t58 -20.5t57.5 20.5t22.5 55.5z" />
    <glyph glyph-name="obreve" unicode="&#x14f;" horiz-adv-x="500" 
d="M106 320q-3 -31 -3 -70t3 -70q2 -20 10 -43t24.5 -42.5t42.5 -32.5t64 -13q37 0 63.5 13t43 32.5t24.5 42.5t10 43q3 31 3 70t-3 70q-2 20 -10 43t-24.5 42.5t-43 32.5t-63.5 13q-38 0 -64 -13t-42.5 -32.5t-24.5 -42.5t-10 -43zM45 180q-2 30 -2 70t2 70q3 39 18 74
t41 60.5t62 40.5t81 15t81 -15t62 -40.5t41 -60.5t18 -74q2 -30 2 -70t-2 -70q-3 -39 -18 -74t-41 -60.5t-62 -40.5t-81 -15t-81 15t-62 40.5t-41 60.5t-18 74zM330 713q0 7 4.5 12t12.5 5h23q7 0 12 -5t5 -12q0 -27 -10 -50t-28.5 -40.5t-43.5 -27.5t-55 -10t-55.5 10
t-44 27.5t-28.5 40.5t-10 50q0 7 5 12t12 5h23q8 0 12.5 -5t4.5 -12q0 -35 23 -55.5t58 -20.5t57.5 20.5t22.5 55.5z" />
    <glyph glyph-name="Ohungarumlaut" unicode="&#x150;" horiz-adv-x="556" 
d="M277 56q40 0 68.5 14.5t47 36t28 46.5t12.5 47q4 31 6.5 70t2.5 80t-2.5 80t-6.5 70q-4 27 -15.5 53t-31 46.5t-46.5 32.5t-63 12t-63 -12t-46.5 -32.5t-31 -46.5t-15.5 -53q-5 -31 -7 -70t-2 -80t2 -80t7 -70q3 -22 12.5 -47t28 -46.5t46.5 -36t69 -14.5zM277 708
q49 0 88 -17t67 -46t45 -66.5t23 -78.5q4 -30 6 -69t2 -80.5t-2 -81t-6 -69.5q-13 -97 -72.5 -152.5t-150.5 -55.5t-150.5 55.5t-72.5 152.5q-4 30 -6 69.5t-2 81t2 80.5t6 69q6 41 23 78.5t45 66.5t66.5 46t88.5 17zM317 895q10 0 13 -8t-2 -13l-108 -112q-5 -5 -10.5 -8.5
t-19.5 -3.5h-19q-10 0 -14 7.5t0 12.5l76 109q4 5 9.5 10.5t16.5 5.5h58zM474 895q10 0 13 -8t-2 -13l-108 -112q-5 -5 -10.5 -8.5t-19.5 -3.5h-19q-10 0 -14 7.5t0 12.5l76 109q4 5 9.5 10.5t16.5 5.5h58z" />
    <glyph glyph-name="ohungarumlaut" unicode="&#x151;" horiz-adv-x="500" 
d="M106 320q-3 -31 -3 -70t3 -70q2 -20 10 -43t24.5 -42.5t42.5 -32.5t64 -13q37 0 63.5 13t43 32.5t24.5 42.5t10 43q3 31 3 70t-3 70q-2 20 -10 43t-24.5 42.5t-43 32.5t-63.5 13q-38 0 -64 -13t-42.5 -32.5t-24.5 -42.5t-10 -43zM45 180q-2 30 -2 70t2 70q3 39 18 74
t41 60.5t62 40.5t81 15t81 -15t62 -40.5t41 -60.5t18 -74q2 -30 2 -70t-2 -70q-3 -39 -18 -74t-41 -60.5t-62 -40.5t-81 -15t-81 15t-62 40.5t-41 60.5t-18 74zM283 730q10 0 13 -8t-2 -13l-108 -112q-5 -5 -10.5 -8.5t-19.5 -3.5h-19q-10 0 -14 7.5t0 12.5l76 109
q4 5 9.5 10.5t16.5 5.5h58zM440 730q10 0 13 -8t-2 -13l-108 -112q-5 -5 -10.5 -8.5t-19.5 -3.5h-19q-10 0 -14 7.5t0 12.5l76 109q4 5 9.5 10.5t16.5 5.5h58z" />
    <glyph glyph-name="OE" unicode="&#x152;" horiz-adv-x="849" 
d="M444 36q0 13 -6.5 14t-11.5 -4q-29 -27 -66.5 -40.5t-82.5 -13.5q-91 0 -150.5 55.5t-72.5 152.5q-4 30 -6 69.5t-2 81t2 80.5t6 69q6 41 23 78.5t45 66.5t66.5 46t88.5 17q47 0 84 -16t65 -42q5 -5 11.5 -4t6.5 14v20q0 8 6 14t14 6h313q8 0 14 -6t6 -14v-24
q0 -8 -6 -14t-14 -6h-259q-10 0 -10 -10v-227q0 -10 10 -10h248q8 0 14 -6t6 -14v-23q0 -8 -6 -14t-14 -6h-248q-10 0 -10 -8v-244q0 -10 10 -10h261q8 0 14 -6t6 -14v-24q0 -8 -6 -14t-14 -6h-315q-8 0 -14 6t-6 14v16zM277 644q-36 0 -63 -12t-46.5 -32.5t-31 -46.5
t-15.5 -53q-5 -31 -7 -70t-2 -80t2 -80t7 -70q3 -22 12.5 -47t28 -46.5t46.5 -36t69 -14.5q40 0 68.5 14.5t47 36t28 46.5t12.5 47q4 31 6.5 70t2.5 80t-2.5 80t-6.5 70q-4 27 -15.5 53t-31 46.5t-46.5 32.5t-63 12z" />
    <glyph glyph-name="oe" unicode="&#x153;" horiz-adv-x="841" 
d="M106 320q-3 -31 -3 -70t3 -70q2 -20 10 -43t24.5 -42.5t42.5 -32.5t64 -13q37 0 63.5 13t43 32.5t24.5 42.5t10 43q3 31 3 70t-3 70q-2 20 -10 43t-24.5 42.5t-43 32.5t-63.5 13q-38 0 -64 -13t-42.5 -32.5t-24.5 -42.5t-10 -43zM600 451q-67 0 -106.5 -41t-39.5 -118
q0 -10 10 -10h270q10 0 10 10q0 38 -11 67.5t-30.5 50t-45.5 31t-57 10.5zM441 59q-7 9 -19 9t-19 -9q-26 -32 -65.5 -50.5t-90.5 -18.5q-45 0 -81 15t-62 40.5t-41 60.5t-18 74q-2 30 -2 70t2 70q3 39 18 74t41 60.5t62 40.5t81 15q51 0 90.5 -18.5t65.5 -51.5
q7 -9 19 -8.5t19 8.5q26 32 66.5 51t91.5 19q42 0 78.5 -16t63.5 -43t42.5 -63.5t15.5 -77.5v-64q0 -8 -6 -14t-14 -6h-317q-10 0 -10 -10q0 -36 8.5 -66.5t26.5 -53t45.5 -35t66.5 -12.5q29 0 51.5 8t39 21.5t27 30t16.5 34.5q3 10 9.5 13.5t13.5 3.5h20q8 0 13.5 -4.5
t3.5 -15.5q-5 -33 -21 -60.5t-41.5 -47.5t-59 -31t-72.5 -11q-51 0 -91.5 18.5t-66.5 50.5z" />
    <glyph glyph-name="Racute" unicode="&#x154;" horiz-adv-x="509" 
d="M139 280q-10 0 -10 -10v-250q0 -8 -6 -14t-14 -6h-24q-8 0 -14 6t-6 14v660q0 8 6 14t14 6h170q43 0 81.5 -16.5t67 -45t45 -67t16.5 -81.5q0 -68 -32.5 -112t-86.5 -78q-18 -12 -7 -32l126 -238q6 -11 1 -20.5t-20 -9.5h-22q-12 0 -18 5.5t-11 14.5l-128 248
q-2 5 -6.5 8.5t-12.5 3.5h-109zM139 636q-10 0 -10 -10v-272q0 -10 10 -10h116q30 0 56.5 11.5t46.5 31.5t31.5 46.5t11.5 56.5t-11.5 56.5t-31.5 46.5t-46.5 31.5t-56.5 11.5h-116zM349 895q10 0 13 -8t-2 -13l-108 -112q-5 -5 -10.5 -8.5t-19.5 -3.5h-19q-10 0 -14 7.5
t0 12.5l76 109q4 5 9.5 10.5t16.5 5.5h58z" />
    <glyph glyph-name="racute" unicode="&#x155;" horiz-adv-x="328" 
d="M275 442q-28 0 -55.5 -8t-50 -27.5t-36.5 -52.5t-14 -84v-250q0 -8 -6 -14t-14 -6h-19q-8 0 -14 6t-6 14v460q0 8 6 14t14 6h13q16 0 20 -20l4.5 -22.5t13.5 -12.5q10 0 18 8.5t22.5 19t38.5 19t66 8.5h2q8 0 14 -6t6 -14v-18q0 -8 -6 -14t-14 -6h-3zM281 730q10 0 13 -8
t-2 -13l-108 -112q-5 -5 -10.5 -8.5t-19.5 -3.5h-19q-10 0 -14 7.5t0 12.5l76 109q4 5 9.5 10.5t16.5 5.5h58z" />
    <glyph glyph-name="Rcommaaccent" unicode="&#x156;" horiz-adv-x="509" 
d="M139 280q-10 0 -10 -10v-250q0 -8 -6 -14t-14 -6h-24q-8 0 -14 6t-6 14v660q0 8 6 14t14 6h170q43 0 81.5 -16.5t67 -45t45 -67t16.5 -81.5q0 -68 -32.5 -112t-86.5 -78q-18 -12 -7 -32l126 -238q6 -11 1 -20.5t-20 -9.5h-22q-12 0 -18 5.5t-11 14.5l-128 248
q-2 5 -6.5 8.5t-12.5 3.5h-109zM139 636q-10 0 -10 -10v-272q0 -10 10 -10h116q30 0 56.5 11.5t46.5 31.5t31.5 46.5t11.5 56.5t-11.5 56.5t-31.5 46.5t-46.5 31.5t-56.5 11.5h-116zM217 -240q-9 0 -14.5 7.5t-0.5 16.5l28 51q3 5 0.5 10t-8.5 5h-5q-8 0 -14 6t-6 14v65
q0 8 6 14t14 6h60q8 0 14 -6t6 -14v-70q0 -21 -5 -31.5t-11 -19.5l-25 -36q-4 -5 -9.5 -11.5t-19.5 -6.5h-10z" />
    <glyph glyph-name="rcommaaccent" unicode="&#x157;" horiz-adv-x="328" 
d="M275 442q-28 0 -55.5 -8t-50 -27.5t-36.5 -52.5t-14 -84v-250q0 -8 -6 -14t-14 -6h-19q-8 0 -14 6t-6 14v460q0 8 6 14t14 6h13q16 0 20 -20l4.5 -22.5t13.5 -12.5q10 0 18 8.5t22.5 19t38.5 19t66 8.5h2q8 0 14 -6t6 -14v-18q0 -8 -6 -14t-14 -6h-3zM64 -240
q-9 0 -14.5 7.5t-0.5 16.5l28 51q3 5 0.5 10t-8.5 5h-5q-8 0 -14 6t-6 14v65q0 8 6 14t14 6h60q8 0 14 -6t6 -14v-70q0 -21 -5 -31.5t-11 -19.5l-25 -36q-4 -5 -9.5 -11.5t-19.5 -6.5h-10z" />
    <glyph glyph-name="Rcaron" unicode="&#x158;" horiz-adv-x="509" 
d="M139 280q-10 0 -10 -10v-250q0 -8 -6 -14t-14 -6h-24q-8 0 -14 6t-6 14v660q0 8 6 14t14 6h170q43 0 81.5 -16.5t67 -45t45 -67t16.5 -81.5q0 -68 -32.5 -112t-86.5 -78q-18 -12 -7 -32l126 -238q6 -11 1 -20.5t-20 -9.5h-22q-12 0 -18 5.5t-11 14.5l-128 248
q-2 5 -6.5 8.5t-12.5 3.5h-109zM139 636q-10 0 -10 -10v-272q0 -10 10 -10h116q30 0 56.5 11.5t46.5 31.5t31.5 46.5t11.5 56.5t-11.5 56.5t-31.5 46.5t-46.5 31.5t-56.5 11.5h-116zM244 815q7 -7 14 0l68 65q5 5 12.5 10.5t18.5 5.5h42q10 0 13 -8t-2 -13l-118 -112
q-5 -5 -10.5 -8.5t-18.5 -3.5h-22q-14 0 -19.5 3.5t-10.5 8.5l-118 112q-5 5 -2 13t13 8h43q11 0 18.5 -5.5t12.5 -10.5z" />
    <glyph glyph-name="rcaron" unicode="&#x159;" horiz-adv-x="328" 
d="M275 442q-28 0 -55.5 -8t-50 -27.5t-36.5 -52.5t-14 -84v-250q0 -8 -6 -14t-14 -6h-19q-8 0 -14 6t-6 14v460q0 8 6 14t14 6h13q16 0 20 -20l4.5 -22.5t13.5 -12.5q10 0 18 8.5t22.5 19t38.5 19t66 8.5h2q8 0 14 -6t6 -14v-18q0 -8 -6 -14t-14 -6h-3zM181 649q7 -7 14 0
l68 65q5 5 12.5 10.5t18.5 5.5h42q10 0 13 -8t-2 -13l-118 -112q-5 -5 -10.5 -8.5t-18.5 -3.5h-22q-14 0 -19.5 3.5t-10.5 8.5l-118 112q-5 5 -2 13t13 8h43q11 0 18.5 -5.5t12.5 -10.5z" />
    <glyph glyph-name="Sacute" unicode="&#x15a;" horiz-adv-x="500" 
d="M400 200q0 34 -12 57.5t-34.5 40.5t-55.5 28.5t-76 21.5q-27 6 -57 17.5t-54.5 31t-40.5 49.5t-16 74q0 45 16 80t43 59t62.5 36.5t74.5 12.5q44 0 80 -15t61.5 -40.5t39.5 -59.5t14 -73v-13q0 -8 -6 -14t-14 -6h-24q-8 0 -14 6t-6 14v13q0 27 -10 49.5t-27.5 39
t-41.5 26t-52 9.5q-33 0 -58 -10.5t-41 -28t-24 -40t-8 -45.5q0 -34 16 -54t40 -32t52.5 -19t54.5 -15q40 -12 74 -27.5t58 -38.5t37.5 -55.5t13.5 -78.5q0 -49 -17.5 -87.5t-47.5 -65.5t-69 -41t-81 -14q-48 0 -88 16.5t-68 45t-43.5 66t-15.5 80.5v16q0 8 6 14t14 6h25
q8 0 14 -6t6 -14v-16q0 -26 9.5 -52t28.5 -46.5t47 -33t65 -12.5q69 0 109.5 40t40.5 104zM374 895q10 0 13 -8t-2 -13l-108 -112q-5 -5 -10.5 -8.5t-19.5 -3.5h-19q-10 0 -14 7.5t0 12.5l76 109q4 5 9.5 10.5t16.5 5.5h58z" />
    <glyph glyph-name="sacute" unicode="&#x15b;" horiz-adv-x="449" 
d="M398 361q0 -11 -6 -16t-14 -5h-19q-8 0 -14 5t-6 16q0 37 -30.5 65t-83.5 28t-84.5 -25t-31.5 -57q0 -21 10.5 -34t26.5 -21t36 -12.5t38 -7.5q31 -6 66 -15t64 -25.5t48 -43.5t19 -68q0 -32 -13.5 -60t-39 -49t-61 -33.5t-78.5 -12.5q-38 0 -72.5 11t-61.5 31.5t-43 50
t-16 67.5v13q0 8 6 14t14 6h19q8 0 14 -6t6 -14v-13q0 -23 10.5 -41.5t28.5 -32t42.5 -21t52.5 -7.5q62 0 97.5 28t35.5 69q0 24 -13 40t-33 26.5t-44.5 16.5t-47.5 9q-33 5 -64 13.5t-54.5 24t-38 39t-14.5 58.5q0 29 14.5 54.5t39 44t56.5 29t66 10.5t65 -10t55 -29.5
t38.5 -47t14.5 -62.5zM342 730q10 0 13 -8t-2 -13l-108 -112q-5 -5 -10.5 -8.5t-19.5 -3.5h-19q-10 0 -14 7.5t0 12.5l76 109q4 5 9.5 10.5t16.5 5.5h58z" />
    <glyph glyph-name="Scircumflex" unicode="&#x15c;" horiz-adv-x="500" 
d="M400 200q0 34 -12 57.5t-34.5 40.5t-55.5 28.5t-76 21.5q-27 6 -57 17.5t-54.5 31t-40.5 49.5t-16 74q0 45 16 80t43 59t62.5 36.5t74.5 12.5q44 0 80 -15t61.5 -40.5t39.5 -59.5t14 -73v-13q0 -8 -6 -14t-14 -6h-24q-8 0 -14 6t-6 14v13q0 27 -10 49.5t-27.5 39
t-41.5 26t-52 9.5q-33 0 -58 -10.5t-41 -28t-24 -40t-8 -45.5q0 -34 16 -54t40 -32t52.5 -19t54.5 -15q40 -12 74 -27.5t58 -38.5t37.5 -55.5t13.5 -78.5q0 -49 -17.5 -87.5t-47.5 -65.5t-69 -41t-81 -14q-48 0 -88 16.5t-68 45t-43.5 66t-15.5 80.5v16q0 8 6 14t14 6h25
q8 0 14 -6t6 -14v-16q0 -26 9.5 -52t28.5 -46.5t47 -33t65 -12.5q69 0 109.5 40t40.5 104zM181 767q-5 -5 -12.5 -10.5t-18.5 -5.5h-43q-10 0 -13 8t2 13l118 112q5 5 10.5 8.5t19.5 3.5h22q13 0 18.5 -3.5t10.5 -8.5l118 -112q5 -5 2 -13t-13 -8h-43q-11 0 -18.5 5.5
t-12.5 10.5l-67 65q-7 7 -14 0z" />
    <glyph glyph-name="scircumflex" unicode="&#x15d;" horiz-adv-x="449" 
d="M398 361q0 -11 -6 -16t-14 -5h-19q-8 0 -14 5t-6 16q0 37 -30.5 65t-83.5 28t-84.5 -25t-31.5 -57q0 -21 10.5 -34t26.5 -21t36 -12.5t38 -7.5q31 -6 66 -15t64 -25.5t48 -43.5t19 -68q0 -32 -13.5 -60t-39 -49t-61 -33.5t-78.5 -12.5q-38 0 -72.5 11t-61.5 31.5t-43 50
t-16 67.5v13q0 8 6 14t14 6h19q8 0 14 -6t6 -14v-13q0 -23 10.5 -41.5t28.5 -32t42.5 -21t52.5 -7.5q62 0 97.5 28t35.5 69q0 24 -13 40t-33 26.5t-44.5 16.5t-47.5 9q-33 5 -64 13.5t-54.5 24t-38 39t-14.5 58.5q0 29 14.5 54.5t39 44t56.5 29t66 10.5t65 -10t55 -29.5
t38.5 -47t14.5 -62.5zM156 601q-5 -5 -12.5 -10.5t-18.5 -5.5h-43q-10 0 -13 8t2 13l118 112q5 5 10.5 8.5t19.5 3.5h22q13 0 18.5 -3.5t10.5 -8.5l118 -112q5 -5 2 -13t-13 -8h-43q-11 0 -18.5 5.5t-12.5 10.5l-67 65q-7 7 -14 0z" />
    <glyph glyph-name="Scedilla" unicode="&#x15e;" horiz-adv-x="500" 
d="M400 200q0 34 -12 57.5t-34.5 40.5t-55.5 28.5t-76 21.5q-27 6 -57 17.5t-54.5 31t-40.5 49.5t-16 74q0 45 16 80t43 59t62.5 36.5t74.5 12.5q44 0 80 -15t61.5 -40.5t39.5 -59.5t14 -73v-13q0 -8 -6 -14t-14 -6h-24q-8 0 -14 6t-6 14v13q0 27 -10 49.5t-27.5 39
t-41.5 26t-52 9.5q-33 0 -58 -10.5t-41 -28t-24 -40t-8 -45.5q0 -34 16 -54t40 -32t52.5 -19t54.5 -15q40 -12 74 -27.5t58 -38.5t37.5 -55.5t13.5 -78.5q0 -49 -17.5 -87.5t-47.5 -65.5t-69 -41t-81 -14q-48 0 -88 16.5t-68 45t-43.5 66t-15.5 80.5v16q0 8 6 14t14 6h25
q8 0 14 -6t6 -14v-16q0 -26 9.5 -52t28.5 -46.5t47 -33t65 -12.5q69 0 109.5 40t40.5 104zM288 -45q10 0 14 -5.5t2 -12.5l-28 -121q-4 -16 -19 -16h-37q-10 0 -14 5.5t-2 12.5l38 121q4 16 19 16h27z" />
    <glyph glyph-name="scedilla" unicode="&#x15f;" horiz-adv-x="449" 
d="M398 361q0 -11 -6 -16t-14 -5h-19q-8 0 -14 5t-6 16q0 37 -30.5 65t-83.5 28t-84.5 -25t-31.5 -57q0 -21 10.5 -34t26.5 -21t36 -12.5t38 -7.5q31 -6 66 -15t64 -25.5t48 -43.5t19 -68q0 -32 -13.5 -60t-39 -49t-61 -33.5t-78.5 -12.5q-38 0 -72.5 11t-61.5 31.5t-43 50
t-16 67.5v13q0 8 6 14t14 6h19q8 0 14 -6t6 -14v-13q0 -23 10.5 -41.5t28.5 -32t42.5 -21t52.5 -7.5q62 0 97.5 28t35.5 69q0 24 -13 40t-33 26.5t-44.5 16.5t-47.5 9q-33 5 -64 13.5t-54.5 24t-38 39t-14.5 58.5q0 29 14.5 54.5t39 44t56.5 29t66 10.5t65 -10t55 -29.5
t38.5 -47t14.5 -62.5zM258 -45q10 0 14 -5.5t2 -12.5l-28 -121q-4 -16 -19 -16h-37q-10 0 -14 5.5t-2 12.5l38 121q4 16 19 16h27z" />
    <glyph glyph-name="Scaron" unicode="&#x160;" horiz-adv-x="500" 
d="M400 200q0 34 -12 57.5t-34.5 40.5t-55.5 28.5t-76 21.5q-27 6 -57 17.5t-54.5 31t-40.5 49.5t-16 74q0 45 16 80t43 59t62.5 36.5t74.5 12.5q44 0 80 -15t61.5 -40.5t39.5 -59.5t14 -73v-13q0 -8 -6 -14t-14 -6h-24q-8 0 -14 6t-6 14v13q0 27 -10 49.5t-27.5 39
t-41.5 26t-52 9.5q-33 0 -58 -10.5t-41 -28t-24 -40t-8 -45.5q0 -34 16 -54t40 -32t52.5 -19t54.5 -15q40 -12 74 -27.5t58 -38.5t37.5 -55.5t13.5 -78.5q0 -49 -17.5 -87.5t-47.5 -65.5t-69 -41t-81 -14q-48 0 -88 16.5t-68 45t-43.5 66t-15.5 80.5v16q0 8 6 14t14 6h25
q8 0 14 -6t6 -14v-16q0 -26 9.5 -52t28.5 -46.5t47 -33t65 -12.5q69 0 109.5 40t40.5 104zM259 815q7 -7 14 0l68 65q5 5 12.5 10.5t18.5 5.5h42q10 0 13 -8t-2 -13l-118 -112q-5 -5 -10.5 -8.5t-18.5 -3.5h-22q-14 0 -19.5 3.5t-10.5 8.5l-118 112q-5 5 -2 13t13 8h43
q11 0 18.5 -5.5t12.5 -10.5z" />
    <glyph glyph-name="scaron" unicode="&#x161;" horiz-adv-x="449" 
d="M398 361q0 -11 -6 -16t-14 -5h-19q-8 0 -14 5t-6 16q0 37 -30.5 65t-83.5 28t-84.5 -25t-31.5 -57q0 -21 10.5 -34t26.5 -21t36 -12.5t38 -7.5q31 -6 66 -15t64 -25.5t48 -43.5t19 -68q0 -32 -13.5 -60t-39 -49t-61 -33.5t-78.5 -12.5q-38 0 -72.5 11t-61.5 31.5t-43 50
t-16 67.5v13q0 8 6 14t14 6h19q8 0 14 -6t6 -14v-13q0 -23 10.5 -41.5t28.5 -32t42.5 -21t52.5 -7.5q62 0 97.5 28t35.5 69q0 24 -13 40t-33 26.5t-44.5 16.5t-47.5 9q-33 5 -64 13.5t-54.5 24t-38 39t-14.5 58.5q0 29 14.5 54.5t39 44t56.5 29t66 10.5t65 -10t55 -29.5
t38.5 -47t14.5 -62.5zM222 649q7 -7 14 0l68 65q5 5 12.5 10.5t18.5 5.5h42q10 0 13 -8t-2 -13l-118 -112q-5 -5 -10.5 -8.5t-18.5 -3.5h-22q-14 0 -19.5 3.5t-10.5 8.5l-118 112q-5 5 -2 13t13 8h43q11 0 18.5 -5.5t12.5 -10.5z" />
    <glyph glyph-name="Tcommaaccent" unicode="&#x162;" horiz-adv-x="424" 
d="M255 636q-10 0 -10 -10v-606q0 -8 -6 -14t-14 -6h-25q-8 0 -14 6t-6 14v606q0 10 -10 10h-148q-8 0 -14 6t-6 14v24q0 8 6 14t14 6h380q8 0 14 -6t6 -14v-24q0 -8 -6 -14t-14 -6h-147zM171 -240q-9 0 -14.5 7.5t-0.5 16.5l28 51q3 5 0.5 10t-8.5 5h-5q-8 0 -14 6t-6 14
v65q0 8 6 14t14 6h60q8 0 14 -6t6 -14v-70q0 -21 -5 -31.5t-11 -19.5l-25 -36q-4 -5 -9.5 -11.5t-19.5 -6.5h-10z" />
    <glyph glyph-name="tcommaaccent" unicode="&#x163;" horiz-adv-x="360" 
d="M312 495q8 0 14 -6t6 -14v-19q0 -8 -6 -14t-14 -6h-126q-10 0 -10 -10v-266q0 -53 20.5 -78.5t74.5 -25.5h51q8 0 14 -6t6 -14v-16q0 -8 -6 -14t-14 -6h-51q-78 0 -116.5 36.5t-38.5 123.5v266q0 10 -10 10h-81q-8 0 -14 6t-6 14v19q0 8 6 14t14 6h81q10 0 10 10v155
q0 8 6 14t14 6h20q8 0 14 -6t6 -14v-155q0 -10 10 -10h126zM157 -240q-9 0 -14.5 7.5t-0.5 16.5l28 51q3 5 0.5 10t-8.5 5h-5q-8 0 -14 6t-6 14v65q0 8 6 14t14 6h60q8 0 14 -6t6 -14v-70q0 -21 -5 -31.5t-11 -19.5l-25 -36q-4 -5 -9.5 -11.5t-19.5 -6.5h-10z" />
    <glyph glyph-name="Tcaron" unicode="&#x164;" horiz-adv-x="424" 
d="M255 636q-10 0 -10 -10v-606q0 -8 -6 -14t-14 -6h-25q-8 0 -14 6t-6 14v606q0 10 -10 10h-148q-8 0 -14 6t-6 14v24q0 8 6 14t14 6h380q8 0 14 -6t6 -14v-24q0 -8 -6 -14t-14 -6h-147zM206 815q7 -7 14 0l68 65q5 5 12.5 10.5t18.5 5.5h42q10 0 13 -8t-2 -13l-118 -112
q-5 -5 -10.5 -8.5t-18.5 -3.5h-22q-14 0 -19.5 3.5t-10.5 8.5l-118 112q-5 5 -2 13t13 8h43q11 0 18.5 -5.5t12.5 -10.5z" />
    <glyph glyph-name="tcaron" unicode="&#x165;" horiz-adv-x="458" 
d="M312 495q8 0 14 -6t6 -14v-19q0 -8 -6 -14t-14 -6h-126q-10 0 -10 -10v-266q0 -53 20.5 -78.5t74.5 -25.5h51q8 0 14 -6t6 -14v-16q0 -8 -6 -14t-14 -6h-51q-78 0 -116.5 36.5t-38.5 123.5v266q0 10 -10 10h-81q-8 0 -14 6t-6 14v19q0 8 6 14t14 6h81q10 0 10 10v155
q0 8 6 14t14 6h20q8 0 14 -6t6 -14v-155q0 -10 10 -10h126zM345 505q-9 0 -14.5 7.5t-0.5 16.5l28 51q3 5 0.5 10t-8.5 5h-5q-8 0 -14 6t-6 14v65q0 8 6 14t14 6h60q8 0 14 -6t6 -14v-70q0 -21 -5 -31.5t-11 -19.5l-25 -36q-4 -5 -9.5 -11.5t-19.5 -6.5h-10z" />
    <glyph glyph-name="Tbar" unicode="&#x166;" horiz-adv-x="424" 
d="M180 430q0 10 -10 10h-128q-8 0 -14 6t-6 14v20q0 8 6 14t14 6h128q10 0 10 10v116q0 10 -10 10h-148q-8 0 -14 6t-6 14v24q0 8 6 14t14 6h380q8 0 14 -6t6 -14v-24q0 -8 -6 -14t-14 -6h-147q-10 0 -10 -10v-116q0 -10 10 -10h127q8 0 14 -6t6 -14v-20q0 -8 -6 -14
t-14 -6h-127q-10 0 -10 -10v-410q0 -8 -6 -14t-14 -6h-25q-8 0 -14 6t-6 14v410z" />
    <glyph glyph-name="tbar" unicode="&#x167;" horiz-adv-x="370" 
d="M121 243q0 8 -10 8h-75q-8 0 -14 6t-6 14v20q0 8 6 14t14 6h75q10 0 10 10v105q0 10 -10 10h-81q-8 0 -14 6t-6 14v19q0 8 6 14t14 6h81q10 0 10 10v155q0 8 6 14t14 6h20q8 0 14 -6t6 -14v-155q0 -10 10 -10h126q8 0 14 -6t6 -14v-19q0 -8 -6 -14t-14 -6h-126
q-10 0 -10 -10v-105q0 -10 10 -10h120q8 0 14 -6t6 -14v-20q0 -8 -6 -14t-14 -6h-120q-10 0 -10 -10v-81q0 -53 20.5 -78.5t74.5 -25.5h51q8 0 14 -6t6 -14v-16q0 -8 -6 -14t-14 -6h-51q-78 0 -116.5 36.5t-38.5 123.5v83z" />
    <glyph glyph-name="Utilde" unicode="&#x168;" horiz-adv-x="538" 
d="M484 207q0 -45 -17 -84t-46 -68t-68 -46t-84 -17t-84 17t-68 46t-46 68t-17 84v473q0 8 6 14t14 6h24q8 0 14 -6t6 -14v-473q0 -30 11.5 -57.5t32 -48t48 -33t59.5 -12.5t59.5 12.5t48 33t32 48t11.5 57.5v473q0 8 6 14t14 6h24q8 0 14 -6t6 -14v-473zM345 832
q19 0 29.5 6.5t16.5 14.5t15.5 4t9.5 -18v-24q0 -20 -20.5 -35.5t-50.5 -15.5q-24 0 -39.5 4t-29 8.5t-30 8.5t-41.5 4q-17 0 -27.5 -5.5t-18.5 -15.5q-6 -7 -15.5 -3.5t-9.5 17.5v24q0 20 20.5 35.5t50.5 15.5q24 0 39.5 -4t29 -8.5t29.5 -8.5t42 -4z" />
    <glyph glyph-name="utilde" unicode="&#x169;" horiz-adv-x="477" 
d="M55 480q0 8 6 14t14 6h19q8 0 14 -6t6 -14v-316q0 -63 36.5 -89t90.5 -26q27 0 50 8.5t40.5 23.5t27 35t9.5 43v321q0 8 6 14t14 6h19q8 0 14 -6t6 -14v-460q0 -8 -6 -14t-14 -6h-16q-7 0 -14 7q-5 5 -10 10.5t-14 5.5q-11 0 -20.5 -5t-22 -11.5t-30.5 -11.5t-46 -5
q-39 0 -72 11t-57 33t-37 54.5t-13 75.5v316zM327 676q19 0 29.5 6.5t16.5 14.5t15.5 4t9.5 -18v-24q0 -20 -20.5 -35.5t-50.5 -15.5q-24 0 -39.5 4t-29 8.5t-30 8.5t-41.5 4q-17 0 -27.5 -5.5t-18.5 -15.5q-6 -7 -15.5 -3.5t-9.5 17.5v24q0 20 20.5 35.5t50.5 15.5
q24 0 39.5 -4t29 -8.5t29.5 -8.5t42 -4z" />
    <glyph glyph-name="Umacron" unicode="&#x16a;" horiz-adv-x="538" 
d="M484 207q0 -45 -17 -84t-46 -68t-68 -46t-84 -17t-84 17t-68 46t-46 68t-17 84v473q0 8 6 14t14 6h24q8 0 14 -6t6 -14v-473q0 -30 11.5 -57.5t32 -48t48 -33t59.5 -12.5t59.5 12.5t48 33t32 48t11.5 57.5v473q0 8 6 14t14 6h24q8 0 14 -6t6 -14v-473zM394 825q8 0 14 -6
t6 -14v-20q0 -8 -6 -14t-14 -6h-242q-8 0 -14 6t-6 14v20q0 8 6 14t14 6h242z" />
    <glyph glyph-name="umacron" unicode="&#x16b;" horiz-adv-x="477" 
d="M55 480q0 8 6 14t14 6h19q8 0 14 -6t6 -14v-316q0 -63 36.5 -89t90.5 -26q27 0 50 8.5t40.5 23.5t27 35t9.5 43v321q0 8 6 14t14 6h19q8 0 14 -6t6 -14v-460q0 -8 -6 -14t-14 -6h-16q-7 0 -14 7q-5 5 -10 10.5t-14 5.5q-11 0 -20.5 -5t-22 -11.5t-30.5 -11.5t-46 -5
q-39 0 -72 11t-57 33t-37 54.5t-13 75.5v316zM368 694q8 0 14 -6t6 -14v-20q0 -8 -6 -14t-14 -6h-242q-8 0 -14 6t-6 14v20q0 8 6 14t14 6h242z" />
    <glyph glyph-name="Ubreve" unicode="&#x16c;" horiz-adv-x="538" 
d="M484 207q0 -45 -17 -84t-46 -68t-68 -46t-84 -17t-84 17t-68 46t-46 68t-17 84v473q0 8 6 14t14 6h24q8 0 14 -6t6 -14v-473q0 -30 11.5 -57.5t32 -48t48 -33t59.5 -12.5t59.5 12.5t48 33t32 48t11.5 57.5v473q0 8 6 14t14 6h24q8 0 14 -6t6 -14v-473zM358 878
q0 7 4.5 12t12.5 5h23q7 0 12 -5t5 -12q0 -27 -10 -50t-28.5 -40.5t-43.5 -27.5t-55 -10t-55.5 10t-44 27.5t-28.5 40.5t-10 50q0 7 5 12t12 5h23q8 0 12.5 -5t4.5 -12q0 -35 23 -55.5t58 -20.5t57.5 20.5t22.5 55.5z" />
    <glyph glyph-name="ubreve" unicode="&#x16d;" horiz-adv-x="477" 
d="M55 480q0 8 6 14t14 6h19q8 0 14 -6t6 -14v-316q0 -63 36.5 -89t90.5 -26q27 0 50 8.5t40.5 23.5t27 35t9.5 43v321q0 8 6 14t14 6h19q8 0 14 -6t6 -14v-460q0 -8 -6 -14t-14 -6h-16q-7 0 -14 7q-5 5 -10 10.5t-14 5.5q-11 0 -20.5 -5t-22 -11.5t-30.5 -11.5t-46 -5
q-39 0 -72 11t-57 33t-37 54.5t-13 75.5v316zM338 713q0 7 4.5 12t12.5 5h23q7 0 12 -5t5 -12q0 -27 -10 -50t-28.5 -40.5t-43.5 -27.5t-55 -10t-55.5 10t-44 27.5t-28.5 40.5t-10 50q0 7 5 12t12 5h23q8 0 12.5 -5t4.5 -12q0 -35 23 -55.5t58 -20.5t57.5 20.5t22.5 55.5z
" />
    <glyph glyph-name="Uring" unicode="&#x16e;" horiz-adv-x="538" 
d="M484 207q0 -45 -17 -84t-46 -68t-68 -46t-84 -17t-84 17t-68 46t-46 68t-17 84v473q0 8 6 14t14 6h24q8 0 14 -6t6 -14v-473q0 -30 11.5 -57.5t32 -48t48 -33t59.5 -12.5t59.5 12.5t48 33t32 48t11.5 57.5v473q0 8 6 14t14 6h24q8 0 14 -6t6 -14v-473zM159 840
q0 23 8.5 43t23.5 35t35 23.5t43 8.5t43 -8.5t35 -23.5t23.5 -35t8.5 -43t-8.5 -43t-23.5 -35t-35 -23.5t-43 -8.5t-43 8.5t-35 23.5t-23.5 35t-8.5 43zM213 840q0 -23 16.5 -39.5t39.5 -16.5q24 0 39.5 16.5t15.5 39.5q0 24 -15.5 39.5t-39.5 15.5q-23 0 -39.5 -15.5
t-16.5 -39.5z" />
    <glyph glyph-name="uring" unicode="&#x16f;" horiz-adv-x="477" 
d="M55 480q0 8 6 14t14 6h19q8 0 14 -6t6 -14v-316q0 -63 36.5 -89t90.5 -26q27 0 50 8.5t40.5 23.5t27 35t9.5 43v321q0 8 6 14t14 6h19q8 0 14 -6t6 -14v-460q0 -8 -6 -14t-14 -6h-16q-7 0 -14 7q-5 5 -10 10.5t-14 5.5q-11 0 -20.5 -5t-22 -11.5t-30.5 -11.5t-46 -5
q-39 0 -72 11t-57 33t-37 54.5t-13 75.5v316zM127 670q0 23 8.5 43t23.5 35t35 23.5t43 8.5t43 -8.5t35 -23.5t23.5 -35t8.5 -43t-8.5 -43t-23.5 -35t-35 -23.5t-43 -8.5t-43 8.5t-35 23.5t-23.5 35t-8.5 43zM181 670q0 -23 16.5 -39.5t39.5 -16.5q24 0 39.5 16.5t15.5 39.5
q0 24 -15.5 39.5t-39.5 15.5q-23 0 -39.5 -15.5t-16.5 -39.5z" />
    <glyph glyph-name="Uhungarumlaut" unicode="&#x170;" horiz-adv-x="538" 
d="M484 207q0 -45 -17 -84t-46 -68t-68 -46t-84 -17t-84 17t-68 46t-46 68t-17 84v473q0 8 6 14t14 6h24q8 0 14 -6t6 -14v-473q0 -30 11.5 -57.5t32 -48t48 -33t59.5 -12.5t59.5 12.5t48 33t32 48t11.5 57.5v473q0 8 6 14t14 6h24q8 0 14 -6t6 -14v-473zM297 895
q10 0 13 -8t-2 -13l-108 -112q-5 -5 -10.5 -8.5t-19.5 -3.5h-19q-10 0 -14 7.5t0 12.5l76 109q4 5 9.5 10.5t16.5 5.5h58zM454 895q10 0 13 -8t-2 -13l-108 -112q-5 -5 -10.5 -8.5t-19.5 -3.5h-19q-10 0 -14 7.5t0 12.5l76 109q4 5 9.5 10.5t16.5 5.5h58z" />
    <glyph glyph-name="uhungarumlaut" unicode="&#x171;" horiz-adv-x="477" 
d="M55 480q0 8 6 14t14 6h19q8 0 14 -6t6 -14v-316q0 -63 36.5 -89t90.5 -26q27 0 50 8.5t40.5 23.5t27 35t9.5 43v321q0 8 6 14t14 6h19q8 0 14 -6t6 -14v-460q0 -8 -6 -14t-14 -6h-16q-7 0 -14 7q-5 5 -10 10.5t-14 5.5q-11 0 -20.5 -5t-22 -11.5t-30.5 -11.5t-46 -5
q-39 0 -72 11t-57 33t-37 54.5t-13 75.5v316zM272 730q10 0 13 -8t-2 -13l-108 -112q-5 -5 -10.5 -8.5t-19.5 -3.5h-19q-10 0 -14 7.5t0 12.5l76 109q4 5 9.5 10.5t16.5 5.5h58zM429 730q10 0 13 -8t-2 -13l-108 -112q-5 -5 -10.5 -8.5t-19.5 -3.5h-19q-10 0 -14 7.5t0 12.5
l76 109q4 5 9.5 10.5t16.5 5.5h58z" />
    <glyph glyph-name="Uogonek" unicode="&#x172;" horiz-adv-x="538" 
d="M118 207q0 -30 11.5 -57.5t32 -48t48 -33t59.5 -12.5t59.5 12.5t48 33t32 48t11.5 57.5v473q0 8 6 14t14 6h24q8 0 14 -6t6 -14v-473q0 -41 -14.5 -76t-37.5 -64q-12 -14 -27.5 -29.5t-30 -33.5t-24.5 -38t-10 -42q0 -40 28 -57t76 -17q8 0 14 -6t6 -14v-20q0 -8 -6 -14
t-14 -6q-36 0 -66 7.5t-52 23t-34 40t-12 58.5q0 44 24 76q-17 -3 -35 -3q-45 0 -84 17t-68 46t-46 68t-17 84v473q0 8 6 14t14 6h24q8 0 14 -6t6 -14v-473z" />
    <glyph glyph-name="uogonek" unicode="&#x173;" horiz-adv-x="477" 
d="M407 0q-51 0 -80 -18.5t-29 -57.5q0 -40 28 -57t76 -17q8 0 14 -6t6 -14v-20q0 -8 -6 -14t-14 -6q-36 0 -66 7.5t-52 23t-34 40t-12 58.5q0 23 7.5 41.5t20.5 32.5q-15 -3 -32 -3q-39 0 -72 11t-57 33t-37 54.5t-13 75.5v316q0 8 6 14t14 6h19q8 0 14 -6t6 -14v-316
q0 -63 36.5 -89t90.5 -26q27 0 50 8.5t40.5 23.5t27 35t9.5 43v321q0 8 6 14t14 6h19q8 0 14 -6t6 -14v-460q0 -8 -6 -14t-14 -6z" />
    <glyph glyph-name="Wcircumflex" unicode="&#x174;" horiz-adv-x="693" 
d="M236 15q-3 -15 -19 -15h-56q-16 0 -19 15l-136 665q-2 8 3 14t17 6h24q16 0 19 -15l113 -572q1 -6 6 -6h2q4 0 6 6l106 572q3 15 19 15h34q16 0 19 -15l114 -572q1 -6 6 -6h2q4 0 6 6l122 572q3 15 19 15h24q12 0 17 -6t3 -14l-145 -665q-3 -15 -19 -15h-56q-16 0 -19 15
l-105 534q-1 4 -4 4t-4 -4zM266 767q-5 -5 -12.5 -10.5t-18.5 -5.5h-43q-10 0 -13 8t2 13l118 112q5 5 10.5 8.5t19.5 3.5h22q13 0 18.5 -3.5t10.5 -8.5l118 -112q5 -5 2 -13t-13 -8h-43q-11 0 -18.5 5.5t-12.5 10.5l-67 65q-7 7 -14 0z" />
    <glyph glyph-name="wcircumflex" unicode="&#x175;" horiz-adv-x="636" 
d="M174 126q2 -6 6.5 -6t6.5 6l96 359q4 15 19 15h32q15 0 19 -15l96 -359q2 -6 6.5 -6t6.5 6l100 359q4 15 19 15h20q12 0 16.5 -7.5t2.5 -15.5l-136 -462q-5 -15 -19 -15h-23q-15 0 -19 15l-101 381q-1 3 -4 3t-4 -3l-101 -381q-5 -15 -19 -15h-23q-15 0 -19 15l-136 462
q-2 8 2.5 15.5t16.5 7.5h20q15 0 19 -15zM244 601q-5 -5 -12.5 -10.5t-18.5 -5.5h-43q-10 0 -13 8t2 13l118 112q5 5 10.5 8.5t19.5 3.5h22q13 0 18.5 -3.5t10.5 -8.5l118 -112q5 -5 2 -13t-13 -8h-43q-11 0 -18.5 5.5t-12.5 10.5l-67 65q-7 7 -14 0z" />
    <glyph glyph-name="Ycircumflex" unicode="&#x176;" horiz-adv-x="442" 
d="M218 328q4 -10 8 0l137 357q5 15 19 15h32q10 0 15.5 -8.5t0.5 -19.5l-175 -431v-221q0 -8 -6 -14t-14 -6h-26q-8 0 -14 6t-6 14v220l-177 432q-5 11 0.5 19.5t15.5 8.5h32q14 0 19 -15zM151 767q-5 -5 -12.5 -10.5t-18.5 -5.5h-43q-10 0 -13 8t2 13l118 112
q5 5 10.5 8.5t19.5 3.5h22q13 0 18.5 -3.5t10.5 -8.5l118 -112q5 -5 2 -13t-13 -8h-43q-11 0 -18.5 5.5t-12.5 10.5l-67 65q-7 7 -14 0z" />
    <glyph glyph-name="ycircumflex" unicode="&#x177;" horiz-adv-x="462" 
d="M227 117q4 -10 8 0l134 368q5 15 19 15h28q12 0 17 -7.5t2 -15.5l-254 -662q-5 -15 -19 -15h-22q-12 0 -17 7.5t-2 15.5l74 201q3 8 1 13l-189 440q-3 8 2 15.5t17 7.5h28q14 0 19 -15zM157 601q-5 -5 -12.5 -10.5t-18.5 -5.5h-43q-10 0 -13 8t2 13l118 112q5 5 10.5 8.5
t19.5 3.5h22q13 0 18.5 -3.5t10.5 -8.5l118 -112q5 -5 2 -13t-13 -8h-43q-11 0 -18.5 5.5t-12.5 10.5l-67 65q-7 7 -14 0z" />
    <glyph glyph-name="Ydieresis" unicode="&#x178;" horiz-adv-x="442" 
d="M218 328q4 -10 8 0l137 357q5 15 19 15h32q10 0 15.5 -8.5t0.5 -19.5l-175 -431v-221q0 -8 -6 -14t-14 -6h-26q-8 0 -14 6t-6 14v220l-177 432q-5 11 0.5 19.5t15.5 8.5h32q14 0 19 -15zM174 778q0 -16 -16 -16h-52q-16 0 -16 16v53q0 6 4.5 11t11.5 5h52q7 0 11.5 -5
t4.5 -11v-53zM345 778q0 -16 -16 -16h-52q-16 0 -16 16v53q0 6 4.5 11t11.5 5h52q7 0 11.5 -5t4.5 -11v-53z" />
    <glyph glyph-name="Zacute" unicode="&#x179;" horiz-adv-x="480" 
d="M110 75q-2 -4 -0.5 -7t6.5 -3h310q8 0 14 -6t6 -14v-25q0 -8 -6 -14t-14 -6h-372q-8 0 -14 6t-6 14v47q0 8 5 16l325 543q2 4 0.5 7t-6.5 3h-294q-8 0 -14 6t-6 14v24q0 8 6 14t14 6h352q8 0 14 -6t6 -14v-44q0 -8 -5 -16zM359 895q10 0 13 -8t-2 -13l-108 -112
q-5 -5 -10.5 -8.5t-19.5 -3.5h-19q-10 0 -14 7.5t0 12.5l76 109q4 5 9.5 10.5t16.5 5.5h58z" />
    <glyph glyph-name="zacute" unicode="&#x17a;" horiz-adv-x="470" 
d="M345 432q3 4 1.5 7t-6.5 3h-270q-8 0 -14 6t-6 14v18q0 8 6 14t14 6h330q8 0 14 -6t6 -14v-29q0 -14 -6.5 -23.5t-13.5 -17.5l-284 -342q-3 -4 -1.5 -7t6.5 -3h289q8 0 14 -6t6 -14v-18q0 -8 -6 -14t-14 -6h-350q-8 0 -14 6t-6 14v31q0 10 2 15t11 16zM343 730
q10 0 13 -8t-2 -13l-108 -112q-5 -5 -10.5 -8.5t-19.5 -3.5h-19q-10 0 -14 7.5t0 12.5l76 109q4 5 9.5 10.5t16.5 5.5h58z" />
    <glyph glyph-name="Zdotaccent" unicode="&#x17b;" horiz-adv-x="480" 
d="M110 75q-2 -4 -0.5 -7t6.5 -3h310q8 0 14 -6t6 -14v-25q0 -8 -6 -14t-14 -6h-372q-8 0 -14 6t-6 14v47q0 8 5 16l325 543q2 4 0.5 7t-6.5 3h-294q-8 0 -14 6t-6 14v24q0 8 6 14t14 6h352q8 0 14 -6t6 -14v-44q0 -8 -5 -16zM286 770q0 -16 -16 -16h-58q-16 0 -16 16v59
q0 6 4.5 11t11.5 5h58q7 0 11.5 -5t4.5 -11v-59z" />
    <glyph glyph-name="zdotaccent" unicode="&#x17c;" horiz-adv-x="470" 
d="M345 432q3 4 1.5 7t-6.5 3h-270q-8 0 -14 6t-6 14v18q0 8 6 14t14 6h330q8 0 14 -6t6 -14v-29q0 -14 -6.5 -23.5t-13.5 -17.5l-284 -342q-3 -4 -1.5 -7t6.5 -3h289q8 0 14 -6t6 -14v-18q0 -8 -6 -14t-14 -6h-350q-8 0 -14 6t-6 14v31q0 10 2 15t11 16zM285 632
q0 -16 -16 -16h-58q-16 0 -16 16v59q0 6 4.5 11t11.5 5h58q7 0 11.5 -5t4.5 -11v-59z" />
    <glyph glyph-name="Zcaron" unicode="&#x17d;" horiz-adv-x="480" 
d="M110 75q-2 -4 -0.5 -7t6.5 -3h310q8 0 14 -6t6 -14v-25q0 -8 -6 -14t-14 -6h-372q-8 0 -14 6t-6 14v47q0 8 5 16l325 543q2 4 0.5 7t-6.5 3h-294q-8 0 -14 6t-6 14v24q0 8 6 14t14 6h352q8 0 14 -6t6 -14v-44q0 -8 -5 -16zM234 815q7 -7 14 0l68 65q5 5 12.5 10.5
t18.5 5.5h42q10 0 13 -8t-2 -13l-118 -112q-5 -5 -10.5 -8.5t-18.5 -3.5h-22q-14 0 -19.5 3.5t-10.5 8.5l-118 112q-5 5 -2 13t13 8h43q11 0 18.5 -5.5t12.5 -10.5z" />
    <glyph glyph-name="zcaron" unicode="&#x17e;" horiz-adv-x="470" 
d="M345 432q3 4 1.5 7t-6.5 3h-270q-8 0 -14 6t-6 14v18q0 8 6 14t14 6h330q8 0 14 -6t6 -14v-29q0 -14 -6.5 -23.5t-13.5 -17.5l-284 -342q-3 -4 -1.5 -7t6.5 -3h289q8 0 14 -6t6 -14v-18q0 -8 -6 -14t-14 -6h-350q-8 0 -14 6t-6 14v31q0 10 2 15t11 16zM232 649q7 -7 14 0
l68 65q5 5 12.5 10.5t18.5 5.5h42q10 0 13 -8t-2 -13l-118 -112q-5 -5 -10.5 -8.5t-18.5 -3.5h-22q-14 0 -19.5 3.5t-10.5 8.5l-118 112q-5 5 -2 13t13 8h43q11 0 18.5 -5.5t12.5 -10.5z" />
    <glyph glyph-name="longs" unicode="&#x17f;" horiz-adv-x="322" 
d="M122 426q0 10 -10 10h-87q-8 0 -14 6t-6 14v19q0 8 6 14t14 6h87q10 0 10 10v15q0 42 12.5 76.5t35 59t53.5 38t69 13.5h5q8 0 14 -6t6 -14v-16q0 -8 -6 -14t-14 -6h-5q-29 0 -49.5 -10.5t-34 -28.5t-20 -42t-6.5 -50v-500q0 -8 -6 -14t-14 -6h-20q-8 0 -14 6t-6 14v406z
" />
    <glyph glyph-name="florin" unicode="&#x192;" horiz-adv-x="342" 
d="M132 426q0 10 -10 10h-87q-8 0 -14 6t-6 14v19q0 8 6 14t14 6h87q10 0 10 10v15q0 42 12.5 76.5t35 59t53.5 38t69 13.5h5q8 0 14 -6t6 -14v-16q0 -8 -6 -14t-14 -6h-5q-29 0 -49.5 -10.5t-34 -28.5t-20 -42t-6.5 -50v-15q0 -10 10 -10h94q8 0 14 -6t6 -14v-19
q0 -8 -6 -14t-14 -6h-94q-10 0 -10 -10v-456q0 -41 -6 -73t-22.5 -53.5t-44.5 -32.5t-71 -11h-11q-8 0 -14 6t-6 14v20q0 8 5.5 14t13.5 6h14q24 0 39.5 5.5t25 18.5t13.5 34t4 52v456z" />
    <glyph glyph-name="Aringacute" unicode="&#x1fa;" 
d="M386 1065q10 0 13 -8t-2 -13l-103 -106q27 -14 43.5 -40t16.5 -58q0 -23 -8.5 -43t-23.5 -35t-35 -23.5t-43 -8.5t-43 8.5t-35 23.5t-23.5 35t-8.5 43q0 43 28.5 73.5t69.5 35.5l70 100q4 5 9.5 10.5t16.5 5.5h58zM188 840q0 -23 16.5 -39.5t39.5 -16.5q24 0 39.5 16.5
t15.5 39.5q0 24 -15.5 39.5t-39.5 15.5q-23 0 -39.5 -15.5t-16.5 -39.5zM327 260q11 0 8 11l-91 340q-2 6 -4 6h-2q-3 0 -4 -6l-91 -340q-3 -11 8 -11h176zM361 184q-5 14 -19 14h-206q-14 0 -19 -14l-49 -169q-3 -15 -19 -15h-25q-12 0 -17 6.5t-3 13.5l191 665q3 15 19 15
h50q16 0 19 -15l191 -665q2 -7 -3 -13.5t-17 -6.5h-25q-16 0 -19 15z" />
    <glyph glyph-name="aringacute" unicode="&#x1fb;" horiz-adv-x="487" 
d="M386 895q10 0 13 -8t-2 -13l-103 -106q27 -14 43.5 -40t16.5 -58q0 -23 -8.5 -43t-23.5 -35t-35 -23.5t-43 -8.5t-43 8.5t-35 23.5t-23.5 35t-8.5 43q0 43 28.5 73.5t69.5 35.5l70 100q4 5 9.5 10.5t16.5 5.5h58zM188 670q0 -23 16.5 -39.5t39.5 -16.5q24 0 39.5 16.5
t15.5 39.5q0 24 -15.5 39.5t-39.5 15.5q-23 0 -39.5 -15.5t-16.5 -39.5zM208 241q-42 0 -74 -23t-32 -67q0 -27 9.5 -46.5t26 -32.5t37.5 -19.5t45 -6.5q69 0 106.5 32t37.5 93v60q0 10 -10 10h-146zM240 455q-23 0 -44 -6.5t-37 -18t-26 -27.5t-10 -36q0 -13 -8 -15t-15 -2
h-14q-20 0 -20 20q0 35 15 61t40 43.5t56 26.5t63 9q37 0 69.5 -10t57 -30.5t39 -51.5t14.5 -74v-324q0 -8 -6 -14t-14 -6h-9q-10 0 -14 7q-4 6 -7 13.5t-13 7.5q-7 0 -18 -6t-27 -13t-37.5 -13t-49.5 -6q-46 0 -80.5 13t-57 35t-33.5 51t-11 61q0 31 11 58t32 46.5t52 30.5
t70 11h143q10 0 10 10v39q0 49 -34 79.5t-87 30.5z" />
    <glyph glyph-name="AEacute" unicode="&#x1fc;" horiz-adv-x="723" 
d="M320 626q0 10 -10 10h-65q-5 0 -6 -6l-96 -359q-3 -11 8 -11h159q10 0 10 10v356zM653 700q8 0 14 -6t6 -14v-24q0 -8 -6 -14t-14 -6h-259q-10 0 -10 -10v-227q0 -10 10 -10h248q8 0 14 -6t6 -14v-23q0 -8 -6 -14t-14 -6h-248q-10 0 -10 -10v-242q0 -10 10 -10h261
q8 0 14 -6t6 -14v-24q0 -8 -6 -14t-14 -6h-315q-8 0 -14 6t-6 14v168q0 10 -10 10h-174q-14 0 -19 -14l-49 -169q-3 -15 -19 -15h-25q-12 0 -17 6.5t-3 13.5l191 665q3 15 19 15h439zM499 895q10 0 13 -8t-2 -13l-108 -112q-5 -5 -10.5 -8.5t-19.5 -3.5h-19q-10 0 -14 7.5
t0 12.5l76 109q4 5 9.5 10.5t16.5 5.5h58z" />
    <glyph glyph-name="aeacute" unicode="&#x1fd;" horiz-adv-x="813" 
d="M364 220q0 10 -10 10h-146q-42 0 -74 -22.5t-32 -66.5q0 -27 9.5 -45t26 -29t37.5 -16t45 -5q69 0 106.5 32t37.5 93v49zM414 442q27 31 66 49.5t90 18.5q42 0 78.5 -16t63.5 -43t42.5 -63.5t15.5 -77.5v-60q0 -8 -6 -14t-14 -6h-317q-10 0 -10 -10q0 -36 8.5 -67
t26.5 -54.5t45.5 -36.5t66.5 -13q29 0 51.5 8t39 21.5t27 30t16.5 34.5q3 10 9.5 13.5t13.5 3.5h20q8 0 13.5 -4.5t3.5 -15.5q-5 -33 -21 -60.5t-41.5 -47.5t-59 -31t-72.5 -11q-48 0 -85.5 16.5t-65.5 44.5q-8 8 -19 8.5t-20 -8.5q-35 -35 -77.5 -48t-77.5 -13
q-46 0 -80.5 11.5t-57 31.5t-33.5 47.5t-11 59.5q0 31 11 58t32 46.5t52 30.5t70 11h143q10 0 10 10v49q0 49 -34 79.5t-87 30.5q-23 0 -44 -6.5t-37 -18t-26 -27.5t-10 -36q0 -13 -8 -15t-15 -2h-14q-20 0 -20 20q0 35 15 61t40 43.5t56 26.5t63 9q44 0 80 -18.5t64 -49.5
q6 -7 15 -7t15 7zM571 451q-67 0 -106.5 -39t-39.5 -116q0 -10 10 -10h270q10 0 10 10q0 38 -11 67t-30.5 48.5t-45.5 29.5t-57 10zM500 730q10 0 13 -8t-2 -13l-108 -112q-5 -5 -10.5 -8.5t-19.5 -3.5h-19q-10 0 -14 7.5t0 12.5l76 109q4 5 9.5 10.5t16.5 5.5h58z" />
    <glyph glyph-name="Oslashacute" unicode="&#x1fe;" horiz-adv-x="524" 
d="M116 15q-9 -15 -21 -15h-29q-10 0 -14.5 6.5t0.5 17.5l28 52q2 5 1 7l-2 4q-31 45 -40 113q-4 30 -6 69.5t-2 81t2 80.5t6 69q6 41 23 78.5t45 66.5t66.5 46t88.5 17q40 0 72.5 -11t58.5 -31q2 -1 4.5 -2t5.5 4l9 17q7 15 19 15h30q10 0 14.5 -6.5t-0.5 -15.5l-31 -57
q-3 -5 -2 -7l2 -4q32 -50 41 -110q4 -30 6 -69t2 -80.5t-2 -81t-6 -69.5q-13 -97 -72.5 -152.5t-150.5 -55.5q-77 0 -131 40q-1 1 -3 1.5t-4 -4.5zM262 644q-36 0 -63 -12t-46.5 -32.5t-31 -46.5t-15.5 -53q-5 -31 -7 -70t-2 -80t2 -80t7 -70q2 -10 4 -20.5t6 -21.5
q1 -2 3.5 -3.5t5.5 3.5l239 439q2 4 0.5 6.5t-3.5 4.5q-19 17 -43 26.5t-56 9.5zM262 56q40 0 68.5 14.5t47 36t28 46.5t12.5 47q4 31 6.5 70t2.5 80t-2.5 80t-6.5 70q-2 15 -4.5 22.5t-6.5 18.5q-1 2 -2.5 3t-4.5 -4l-239 -442q-2 -4 -1 -6t3 -3q18 -15 42.5 -24t56.5 -9z
M393 895q10 0 13 -8t-2 -13l-108 -112q-5 -5 -10.5 -8.5t-19.5 -3.5h-19q-10 0 -14 7.5t0 12.5l76 109q4 5 9.5 10.5t16.5 5.5h58z" />
    <glyph glyph-name="oslashacute" unicode="&#x1ff;" horiz-adv-x="495" 
d="M97 15q-12 -15 -23 -15h-29q-10 0 -13.5 7.5t4.5 17.5l38 48q4 5 3 6.5t-2 3.5q-25 42 -30 97q-2 30 -2 70t2 70q3 39 18 74t41 60.5t62 40.5t81 15q41 0 73 -12t58 -34q1 -1 3 -1.5t4 2.5l16 20q6 8 10.5 11.5t11.5 3.5h26q10 0 14.5 -8t-3.5 -17l-40 -51q-4 -5 -1 -8
q25 -42 30 -96q2 -30 2 -70t-2 -70q-3 -39 -18 -74t-41 -60.5t-62 -40.5t-81 -15q-40 0 -72.5 11.5t-57.5 31.5q-1 1 -2.5 2t-4.5 -3zM247 451q-38 0 -64 -13t-42.5 -32.5t-24.5 -42.5t-10 -43q-3 -31 -3 -70t3 -70q2 -22 10 -43q1 -2 2.5 -4t4.5 2l219 275q3 4 0 7
q-17 14 -40 24t-55 10zM247 49q37 0 63.5 13t43 32.5t24.5 42.5t10 43q3 31 3 70t-3 70q-2 11 -4 21.5t-7 21.5q-1 2 -2 3t-4 -3l-216 -275q-3 -4 -2 -6t2 -3q17 -14 39.5 -22t52.5 -8zM362 730q10 0 13 -8t-2 -13l-108 -112q-5 -5 -10.5 -8.5t-19.5 -3.5h-19q-10 0 -14 7.5
t0 12.5l76 109q4 5 9.5 10.5t16.5 5.5h58z" />
    <glyph glyph-name="Scommaaccent" unicode="&#x218;" horiz-adv-x="500" 
d="M400 200q0 34 -12 57.5t-34.5 40.5t-55.5 28.5t-76 21.5q-27 6 -57 17.5t-54.5 31t-40.5 49.5t-16 74q0 45 16 80t43 59t62.5 36.5t74.5 12.5q44 0 80 -15t61.5 -40.5t39.5 -59.5t14 -73v-13q0 -8 -6 -14t-14 -6h-24q-8 0 -14 6t-6 14v13q0 27 -10 49.5t-27.5 39
t-41.5 26t-52 9.5q-33 0 -58 -10.5t-41 -28t-24 -40t-8 -45.5q0 -34 16 -54t40 -32t52.5 -19t54.5 -15q40 -12 74 -27.5t58 -38.5t37.5 -55.5t13.5 -78.5q0 -49 -17.5 -87.5t-47.5 -65.5t-69 -41t-81 -14q-48 0 -88 16.5t-68 45t-43.5 66t-15.5 80.5v16q0 8 6 14t14 6h25
q8 0 14 -6t6 -14v-16q0 -26 9.5 -52t28.5 -46.5t47 -33t65 -12.5q69 0 109.5 40t40.5 104zM219 -240q-9 0 -14.5 7.5t-0.5 16.5l28 51q3 5 0.5 10t-8.5 5h-5q-8 0 -14 6t-6 14v65q0 8 6 14t14 6h60q8 0 14 -6t6 -14v-70q0 -21 -5 -31.5t-11 -19.5l-25 -36q-4 -5 -9.5 -11.5
t-19.5 -6.5h-10z" />
    <glyph glyph-name="scommaaccent" unicode="&#x219;" horiz-adv-x="449" 
d="M398 361q0 -11 -6 -16t-14 -5h-19q-8 0 -14 5t-6 16q0 37 -30.5 65t-83.5 28t-84.5 -25t-31.5 -57q0 -21 10.5 -34t26.5 -21t36 -12.5t38 -7.5q31 -6 66 -15t64 -25.5t48 -43.5t19 -68q0 -32 -13.5 -60t-39 -49t-61 -33.5t-78.5 -12.5q-38 0 -72.5 11t-61.5 31.5t-43 50
t-16 67.5v13q0 8 6 14t14 6h19q8 0 14 -6t6 -14v-13q0 -23 10.5 -41.5t28.5 -32t42.5 -21t52.5 -7.5q62 0 97.5 28t35.5 69q0 24 -13 40t-33 26.5t-44.5 16.5t-47.5 9q-33 5 -64 13.5t-54.5 24t-38 39t-14.5 58.5q0 29 14.5 54.5t39 44t56.5 29t66 10.5t65 -10t55 -29.5
t38.5 -47t14.5 -62.5zM189 -240q-9 0 -14.5 7.5t-0.5 16.5l28 51q3 5 0.5 10t-8.5 5h-5q-8 0 -14 6t-6 14v65q0 8 6 14t14 6h60q8 0 14 -6t6 -14v-70q0 -21 -5 -31.5t-11 -19.5l-25 -36q-4 -5 -9.5 -11.5t-19.5 -6.5h-10z" />
    <glyph glyph-name="uni021A" unicode="&#x21a;" horiz-adv-x="424" 
d="M255 636q-10 0 -10 -10v-606q0 -8 -6 -14t-14 -6h-25q-8 0 -14 6t-6 14v606q0 10 -10 10h-148q-8 0 -14 6t-6 14v24q0 8 6 14t14 6h380q8 0 14 -6t6 -14v-24q0 -8 -6 -14t-14 -6h-147zM171 -240q-9 0 -14.5 7.5t-0.5 16.5l28 51q3 5 0.5 10t-8.5 5h-5q-8 0 -14 6t-6 14
v65q0 8 6 14t14 6h60q8 0 14 -6t6 -14v-70q0 -21 -5 -31.5t-11 -19.5l-25 -36q-4 -5 -9.5 -11.5t-19.5 -6.5h-10z" />
    <glyph glyph-name="uni021B" unicode="&#x21b;" horiz-adv-x="360" 
d="M312 495q8 0 14 -6t6 -14v-19q0 -8 -6 -14t-14 -6h-126q-10 0 -10 -10v-266q0 -53 20.5 -78.5t74.5 -25.5h51q8 0 14 -6t6 -14v-16q0 -8 -6 -14t-14 -6h-51q-78 0 -116.5 36.5t-38.5 123.5v266q0 10 -10 10h-81q-8 0 -14 6t-6 14v19q0 8 6 14t14 6h81q10 0 10 10v155
q0 8 6 14t14 6h20q8 0 14 -6t6 -14v-155q0 -10 10 -10h126zM157 -240q-9 0 -14.5 7.5t-0.5 16.5l28 51q3 5 0.5 10t-8.5 5h-5q-8 0 -14 6t-6 14v65q0 8 6 14t14 6h60q8 0 14 -6t6 -14v-70q0 -21 -5 -31.5t-11 -19.5l-25 -36q-4 -5 -9.5 -11.5t-19.5 -6.5h-10z" />
    <glyph glyph-name="apostrophemod" unicode="&#x2bc;" horiz-adv-x="207" 
d="M58 480q-9 0 -14.5 7.5t-0.5 16.5l38 71q3 5 0.5 10t-8.5 5h-10q-8 0 -14 6t-6 14v70q0 8 6 14t14 6h70q8 0 14 -6t6 -14v-75q0 -21 -5 -31.5t-11 -19.5l-40 -56q-4 -5 -9.5 -11.5t-19.5 -6.5h-10z" />
    <glyph glyph-name="circumflex" unicode="&#x2c6;" horiz-adv-x="510" 
d="M182 601q-5 -5 -12.5 -10.5t-18.5 -5.5h-43q-10 0 -13 8t2 13l118 112q5 5 10.5 8.5t19.5 3.5h22q13 0 18.5 -3.5t10.5 -8.5l118 -112q5 -5 2 -13t-13 -8h-43q-11 0 -18.5 5.5t-12.5 10.5l-67 65q-7 7 -14 0z" />
    <glyph glyph-name="caron" unicode="&#x2c7;" horiz-adv-x="450" 
d="M218 649q7 -7 14 0l68 65q5 5 12.5 10.5t18.5 5.5h42q10 0 13 -8t-2 -13l-118 -112q-5 -5 -10.5 -8.5t-18.5 -3.5h-22q-14 0 -19.5 3.5t-10.5 8.5l-118 112q-5 5 -2 13t13 8h43q11 0 18.5 -5.5t12.5 -10.5z" />
    <glyph glyph-name="breve" unicode="&#x2d8;" horiz-adv-x="476" 
d="M314 713q0 7 4.5 12t12.5 5h23q7 0 12 -5t5 -12q0 -27 -10 -50t-28.5 -40.5t-43.5 -27.5t-55 -10t-55.5 10t-44 27.5t-28.5 40.5t-10 50q0 7 5 12t12 5h23q8 0 12.5 -5t4.5 -12q0 -35 23 -55.5t58 -20.5t57.5 20.5t22.5 55.5z" />
    <glyph glyph-name="dotaccent" unicode="&#x2d9;" horiz-adv-x="233" 
d="M155 632q0 -16 -16 -16h-58q-16 0 -16 16v59q0 6 4.5 11t11.5 5h58q7 0 11.5 -5t4.5 -11v-59z" />
    <glyph glyph-name="ring" unicode="&#x2da;" horiz-adv-x="518" 
d="M142 670q0 23 8.5 43t23.5 35t35 23.5t43 8.5t43 -8.5t35 -23.5t23.5 -35t8.5 -43t-8.5 -43t-23.5 -35t-35 -23.5t-43 -8.5t-43 8.5t-35 23.5t-23.5 35t-8.5 43zM196 670q0 -23 16.5 -39.5t39.5 -16.5q24 0 39.5 16.5t15.5 39.5q0 24 -15.5 39.5t-39.5 15.5
q-23 0 -39.5 -15.5t-16.5 -39.5z" />
    <glyph glyph-name="ogonek" unicode="&#x2db;" horiz-adv-x="318" 
d="M244 20q0 -8 -6 -14t-14 -6q-43 0 -73.5 -17.5t-30.5 -58.5q0 -40 28 -57t76 -17q8 0 14 -6t6 -14v-20q0 -8 -6 -14t-14 -6q-36 0 -66 7.5t-52 23t-34 40t-12 58.5q0 36 15.5 62.5t39.5 44t53 26t56 8.5q8 0 14 -6t6 -14v-20z" />
    <glyph glyph-name="tilde" unicode="&#x2dc;" horiz-adv-x="504" 
d="M322 676q19 0 29.5 6.5t16.5 14.5t15.5 4t9.5 -18v-24q0 -20 -20.5 -35.5t-50.5 -15.5q-24 0 -39.5 4t-29 8.5t-30 8.5t-41.5 4q-17 0 -27.5 -5.5t-18.5 -15.5q-6 -7 -15.5 -3.5t-9.5 17.5v24q0 20 20.5 35.5t50.5 15.5q24 0 39.5 -4t29 -8.5t29.5 -8.5t42 -4z" />
    <glyph glyph-name="hungarumlaut" unicode="&#x2dd;" horiz-adv-x="467" 
d="M212 730q10 0 13 -8t-2 -13l-108 -112q-5 -5 -10.5 -8.5t-19.5 -3.5h-19q-10 0 -14 7.5t0 12.5l76 109q4 5 9.5 10.5t16.5 5.5h58zM369 730q10 0 13 -8t-2 -13l-108 -112q-5 -5 -10.5 -8.5t-19.5 -3.5h-19q-10 0 -14 7.5t0 12.5l76 109q4 5 9.5 10.5t16.5 5.5h58z" />
    <glyph glyph-name="Delta" unicode="&#x394;" horiz-adv-x="676" 
d="M70 0q-8 0 -14 6t-6 14v31q0 8 2.5 16.5t4.5 12.5l240 545q6 15 19 15h44q13 0 19 -15l240 -545q2 -4 4.5 -12.5t2.5 -16.5v-31q0 -8 -6 -14t-14 -6h-536zM548 57q6 0 7 4t-1 8l-209 493q-3 6 -6 6h-2q-3 0 -6 -6l-209 -493q-2 -4 -1 -8t7 -4h420z" />
    <glyph glyph-name="Omega" unicode="&#x3a9;" horiz-adv-x="683" 
d="M478 72q-8 -5 -6 -13.5t13 -8.5h107q8 0 14 -6t6 -14v-10q0 -8 -6 -14t-14 -6h-176q-8 0 -14 6t-6 14v29q0 7 3.5 20.5t21.5 25.5q17 11 43 34t50.5 58.5t42 84t17.5 109.5q0 55 -16.5 104t-47 86t-73.5 58.5t-96 21.5q-54 0 -97 -22.5t-73 -60t-46 -86t-16 -101.5
q0 -60 17.5 -108t42 -84t50.5 -59.5t43 -34.5q18 -12 21.5 -25.5t3.5 -20.5v-29q0 -8 -6 -14t-14 -6h-176q-8 0 -14 6t-6 14v10q0 8 6 14t14 6h107q11 0 13.5 8t-5.5 13q-29 20 -57 52.5t-50 74t-35.5 88.5t-13.5 96q0 64 21.5 122.5t59.5 102.5t91.5 70t118.5 26
q64 0 118 -26t92.5 -70t60 -102.5t21.5 -122.5q0 -49 -13.5 -96t-35 -87.5t-49.5 -73.5t-57 -53z" />
    <glyph glyph-name="mu" unicode="&#x3bc;" horiz-adv-x="522" 
d="M62 480q0 8 6 14t14 6h19q8 0 14 -6t6 -14v-316q0 -63 36.5 -89t90.5 -26q27 0 50 8.5t40.5 23.5t27 35t9.5 43v321q0 8 6 14t14 6h19q8 0 14 -6t6 -14v-460q0 -8 -6 -14t-14 -6h-16q-7 0 -14 7q-5 5 -10 10.5t-14 5.5q-11 0 -20.5 -5t-22 -11.5t-30.5 -11.5t-46 -5
q-17 0 -32 4t-27 8.5t-22 8.5t-17 4q-11 0 -16.5 -7t-5.5 -14v-174q0 -8 -6 -14t-14 -6h-19q-8 0 -14 6t-6 14v660z" />
    <glyph glyph-name="pi" unicode="&#x3c0;" horiz-adv-x="539" 
d="M410 440q-10 0 -10 -10v-260q0 -31 5 -52t16.5 -34t30.5 -18.5t48 -5.5q8 0 14 -6t6 -14v-20q0 -8 -6 -14t-14 -6q-46 0 -77 11t-49.5 32.5t-26 53t-7.5 73.5v260q0 8 -8 10h-157q-10 0 -10 -10v-410q0 -8 -6 -14t-14 -6h-20q-8 0 -14 6t-6 14v410q0 10 -10 10h-60
q-8 0 -14 6t-6 14v20q0 8 6 14t14 6h460q8 0 14 -6t6 -14v-20q0 -8 -6 -14t-14 -6h-85z" />
    <glyph glyph-name="Wgrave" unicode="&#x1e80;" horiz-adv-x="693" 
d="M236 15q-3 -15 -19 -15h-56q-16 0 -19 15l-136 665q-2 8 3 14t17 6h24q16 0 19 -15l113 -572q1 -6 6 -6h2q4 0 6 6l106 572q3 15 19 15h34q16 0 19 -15l114 -572q1 -6 6 -6h2q4 0 6 6l122 572q3 15 19 15h24q12 0 17 -6t3 -14l-145 -665q-3 -15 -19 -15h-56q-16 0 -19 15
l-105 534q-1 4 -4 4t-4 -4zM282 895q11 0 16.5 -5.5t9.5 -10.5l76 -109q4 -5 0 -12.5t-14 -7.5h-19q-14 0 -19.5 3.5t-10.5 8.5l-108 112q-5 5 -2 13t13 8h58z" />
    <glyph glyph-name="wgrave" unicode="&#x1e81;" horiz-adv-x="636" 
d="M174 126q2 -6 6.5 -6t6.5 6l96 359q4 15 19 15h32q15 0 19 -15l96 -359q2 -6 6.5 -6t6.5 6l100 359q4 15 19 15h20q12 0 16.5 -7.5t2.5 -15.5l-136 -462q-5 -15 -19 -15h-23q-15 0 -19 15l-101 381q-1 3 -4 3t-4 -3l-101 -381q-5 -15 -19 -15h-23q-15 0 -19 15l-136 462
q-2 8 2.5 15.5t16.5 7.5h20q15 0 19 -15zM262 730q11 0 16.5 -5.5t9.5 -10.5l76 -109q4 -5 0 -12.5t-14 -7.5h-19q-14 0 -19.5 3.5t-10.5 8.5l-108 112q-5 5 -2 13t13 8h58z" />
    <glyph glyph-name="Wacute" unicode="&#x1e82;" horiz-adv-x="693" 
d="M236 15q-3 -15 -19 -15h-56q-16 0 -19 15l-136 665q-2 8 3 14t17 6h24q16 0 19 -15l113 -572q1 -6 6 -6h2q4 0 6 6l106 572q3 15 19 15h34q16 0 19 -15l114 -572q1 -6 6 -6h2q4 0 6 6l122 572q3 15 19 15h24q12 0 17 -6t3 -14l-145 -665q-3 -15 -19 -15h-56q-16 0 -19 15
l-105 534q-1 4 -4 4t-4 -4zM459 895q10 0 13 -8t-2 -13l-108 -112q-5 -5 -10.5 -8.5t-19.5 -3.5h-19q-10 0 -14 7.5t0 12.5l76 109q4 5 9.5 10.5t16.5 5.5h58z" />
    <glyph glyph-name="wacute" unicode="&#x1e83;" horiz-adv-x="636" 
d="M174 126q2 -6 6.5 -6t6.5 6l96 359q4 15 19 15h32q15 0 19 -15l96 -359q2 -6 6.5 -6t6.5 6l100 359q4 15 19 15h20q12 0 16.5 -7.5t2.5 -15.5l-136 -462q-5 -15 -19 -15h-23q-15 0 -19 15l-101 381q-1 3 -4 3t-4 -3l-101 -381q-5 -15 -19 -15h-23q-15 0 -19 15l-136 462
q-2 8 2.5 15.5t16.5 7.5h20q15 0 19 -15zM437 730q10 0 13 -8t-2 -13l-108 -112q-5 -5 -10.5 -8.5t-19.5 -3.5h-19q-10 0 -14 7.5t0 12.5l76 109q4 5 9.5 10.5t16.5 5.5h58z" />
    <glyph glyph-name="Wdieresis" unicode="&#x1e84;" horiz-adv-x="693" 
d="M236 15q-3 -15 -19 -15h-56q-16 0 -19 15l-136 665q-2 8 3 14t17 6h24q16 0 19 -15l113 -572q1 -6 6 -6h2q4 0 6 6l106 572q3 15 19 15h34q16 0 19 -15l114 -572q1 -6 6 -6h2q4 0 6 6l122 572q3 15 19 15h24q12 0 17 -6t3 -14l-145 -665q-3 -15 -19 -15h-56q-16 0 -19 15
l-105 534q-1 4 -4 4t-4 -4zM295 778q0 -16 -16 -16h-52q-16 0 -16 16v53q0 6 4.5 11t11.5 5h52q7 0 11.5 -5t4.5 -11v-53zM466 778q0 -16 -16 -16h-52q-16 0 -16 16v53q0 6 4.5 11t11.5 5h52q7 0 11.5 -5t4.5 -11v-53z" />
    <glyph glyph-name="wdieresis" unicode="&#x1e85;" horiz-adv-x="636" 
d="M174 126q2 -6 6.5 -6t6.5 6l96 359q4 15 19 15h32q15 0 19 -15l96 -359q2 -6 6.5 -6t6.5 6l100 359q4 15 19 15h20q12 0 16.5 -7.5t2.5 -15.5l-136 -462q-5 -15 -19 -15h-23q-15 0 -19 15l-101 381q-1 3 -4 3t-4 -3l-101 -381q-5 -15 -19 -15h-23q-15 0 -19 15l-136 462
q-2 8 2.5 15.5t16.5 7.5h20q15 0 19 -15zM275 638q0 -16 -16 -16h-52q-16 0 -16 16v53q0 6 4.5 11t11.5 5h52q7 0 11.5 -5t4.5 -11v-53zM446 638q0 -16 -16 -16h-52q-16 0 -16 16v53q0 6 4.5 11t11.5 5h52q7 0 11.5 -5t4.5 -11v-53z" />
    <glyph glyph-name="Ygrave" unicode="&#x1ef2;" horiz-adv-x="442" 
d="M218 328q4 -10 8 0l137 357q5 15 19 15h32q10 0 15.5 -8.5t0.5 -19.5l-175 -431v-221q0 -8 -6 -14t-14 -6h-26q-8 0 -14 6t-6 14v220l-177 432q-5 11 0.5 19.5t15.5 8.5h32q14 0 19 -15zM162 895q11 0 16.5 -5.5t9.5 -10.5l76 -109q4 -5 0 -12.5t-14 -7.5h-19
q-14 0 -19.5 3.5t-10.5 8.5l-108 112q-5 5 -2 13t13 8h58z" />
    <glyph glyph-name="ygrave" unicode="&#x1ef3;" horiz-adv-x="462" 
d="M227 117q4 -10 8 0l134 368q5 15 19 15h28q12 0 17 -7.5t2 -15.5l-254 -662q-5 -15 -19 -15h-22q-12 0 -17 7.5t-2 15.5l74 201q3 8 1 13l-189 440q-3 8 2 15.5t17 7.5h28q14 0 19 -15zM169 730q11 0 16.5 -5.5t9.5 -10.5l76 -109q4 -5 0 -12.5t-14 -7.5h-19
q-14 0 -19.5 3.5t-10.5 8.5l-108 112q-5 5 -2 13t13 8h58z" />
    <glyph glyph-name="endash" unicode="&#x2013;" horiz-adv-x="560" 
d="M470 296q8 0 14 -6t6 -14v-30q0 -8 -6 -14t-14 -6h-380q-8 0 -14 6t-6 14v30q0 8 6 14t14 6h380z" />
    <glyph glyph-name="emdash" unicode="&#x2014;" horiz-adv-x="710" 
d="M620 296q8 0 14 -6t6 -14v-30q0 -8 -6 -14t-14 -6h-530q-8 0 -14 6t-6 14v30q0 8 6 14t14 6h530z" />
    <glyph glyph-name="quoteleft" unicode="&#x2018;" horiz-adv-x="207" 
d="M137 700q9 0 14.5 -7.5t0.5 -16.5l-38 -71q-3 -5 -0.5 -10t8.5 -5h10q8 0 14 -6t6 -14v-70q0 -8 -6 -14t-14 -6h-70q-8 0 -14 6t-6 14v75q0 21 5 31.5t11 19.5l40 56q4 5 9.5 11.5t19.5 6.5h10v0z" />
    <glyph glyph-name="quoteright" unicode="&#x2019;" horiz-adv-x="207" 
d="M58 480q-9 0 -14.5 7.5t-0.5 16.5l38 71q3 5 0.5 10t-8.5 5h-10q-8 0 -14 6t-6 14v70q0 8 6 14t14 6h70q8 0 14 -6t6 -14v-75q0 -21 -5 -31.5t-11 -19.5l-40 -56q-4 -5 -9.5 -11.5t-19.5 -6.5h-10z" />
    <glyph glyph-name="quotesinglbase" unicode="&#x201a;" horiz-adv-x="269" 
d="M88 -110q-9 0 -14.5 7.5t-0.5 16.5l38 71q3 5 0.5 10t-8.5 5h-10q-8 0 -14 6t-6 14v70q0 8 6 14t14 6h70q8 0 14 -6t6 -14v-75q0 -21 -5 -31.5t-11 -19.5l-40 -56q-4 -5 -9.5 -11.5t-19.5 -6.5h-10z" />
    <glyph glyph-name="quotedblleft" unicode="&#x201c;" horiz-adv-x="407" 
d="M137 700q9 0 14.5 -7.5t0.5 -16.5l-38 -71q-3 -5 -0.5 -10t8.5 -5h10q8 0 14 -6t6 -14v-70q0 -8 -6 -14t-14 -6h-70q-8 0 -14 6t-6 14v75q0 21 5 31.5t11 19.5l40 56q4 5 9.5 11.5t19.5 6.5h10zM299 700q9 0 14.5 -7.5t0.5 -16.5l-38 -71q-3 -5 -0.5 -10t8.5 -5h10
q8 0 14 -6t6 -14v-70q0 -8 -6 -14t-14 -6h-70q-8 0 -14 6t-6 14v75q0 21 5 31.5t11 19.5l40 56q4 5 9.5 11.5t19.5 6.5h10z" />
    <glyph glyph-name="quotedblright" unicode="&#x201d;" horiz-adv-x="407" 
d="M220 480q-9 0 -14.5 7.5t-0.5 16.5l38 71q3 5 0.5 10t-8.5 5h-10q-8 0 -14 6t-6 14v70q0 8 6 14t14 6h70q8 0 14 -6t6 -14v-75q0 -21 -5 -31.5t-11 -19.5l-40 -56q-4 -5 -9.5 -11.5t-19.5 -6.5h-10zM58 480q-9 0 -14.5 7.5t-0.5 16.5l38 71q3 5 0.5 10t-8.5 5h-10
q-8 0 -14 6t-6 14v70q0 8 6 14t14 6h70q8 0 14 -6t6 -14v-75q0 -21 -5 -31.5t-11 -19.5l-40 -56q-4 -5 -9.5 -11.5t-19.5 -6.5h-10z" />
    <glyph glyph-name="quotedblbase" unicode="&#x201e;" horiz-adv-x="457" 
d="M78 -110q-9 0 -14.5 7.5t-0.5 16.5l38 71q3 5 0.5 10t-8.5 5h-10q-8 0 -14 6t-6 14v70q0 8 6 14t14 6h70q8 0 14 -6t6 -14v-75q0 -21 -5 -31.5t-11 -19.5l-40 -56q-4 -5 -9.5 -11.5t-19.5 -6.5h-10zM240 -110q-9 0 -14.5 7.5t-0.5 16.5l38 71q3 5 0.5 10t-8.5 5h-10
q-8 0 -14 6t-6 14v70q0 8 6 14t14 6h70q8 0 14 -6t6 -14v-75q0 -21 -5 -31.5t-11 -19.5l-40 -56q-4 -5 -9.5 -11.5t-19.5 -6.5h-10z" />
    <glyph glyph-name="dagger" unicode="&#x2020;" horiz-adv-x="450" 
d="M192 418q0 10 -10 10h-142q-8 0 -14 6t-6 14v19q0 8 6 14t14 6h142q10 0 10 10v183q0 8 6 14t14 6h20q8 0 14 -6t6 -14v-183q0 -10 10 -10h142q8 0 14 -6t6 -14v-19q0 -8 -6 -14t-14 -6h-142q-10 0 -10 -10v-518q0 -8 -6 -14t-14 -6h-20q-8 0 -14 6t-6 14v518z" />
    <glyph glyph-name="daggerdbl" unicode="&#x2021;" horiz-adv-x="468" 
d="M193 521q10 0 10 10v149q0 8 6 14t14 6h22q8 0 14 -6t6 -14v-149q0 -10 10 -10h149q8 0 14 -6t6 -14v-21q0 -8 -6 -14t-14 -6h-149q-10 0 -10 -10v-200q0 -10 10 -10h149q8 0 14 -6t6 -14v-21q0 -8 -6 -14t-14 -6h-149q-10 0 -10 -10v-149q0 -8 -6 -14t-14 -6h-22
q-8 0 -14 6t-6 14v149q0 10 -10 10h-149q-8 0 -14 6t-6 14v21q0 8 6 14t14 6h149q10 0 10 10v200q0 10 -10 10h-149q-8 0 -14 6t-6 14v21q0 8 6 14t14 6h149z" />
    <glyph glyph-name="bullet" unicode="&#x2022;" horiz-adv-x="377" 
d="M278 218q0 -8 -6 -14t-14 -6h-154q-8 0 -14 6t-6 14v154q0 8 6 14t14 6h154q8 0 14 -6t6 -14v-154z" />
    <glyph glyph-name="ellipsis" unicode="&#x2026;" horiz-adv-x="689" 
d="M169 20q0 -8 -6 -14t-14 -6h-76q-8 0 -14 6t-6 14v76q0 8 6 14t14 6h76q8 0 14 -6t6 -14v-76zM389 20q0 -8 -6 -14t-14 -6h-76q-8 0 -14 6t-6 14v76q0 8 6 14t14 6h76q8 0 14 -6t6 -14v-76zM609 20q0 -8 -6 -14t-14 -6h-76q-8 0 -14 6t-6 14v76q0 8 6 14t14 6h76
q8 0 14 -6t6 -14v-76z" />
    <glyph glyph-name="perthousand" unicode="&#x2030;" horiz-adv-x="906" 
d="M129 15q-9 -15 -21 -15h-17q-10 0 -16.5 8.5t0.5 19.5l417 657q9 15 22 15h15q10 0 16 -9t0 -19zM177 433q23 0 38 15t18 36q4 23 4 50.5t-4 52.5q-2 16 -15.5 32.5t-40.5 16.5q-23 0 -38 -14.5t-18 -34.5q-4 -25 -4 -52.5t4 -50.5q3 -17 16 -34t40 -17zM177 690
q45 0 75.5 -28.5t36.5 -76.5q4 -30 4 -50t-4 -50q-2 -21 -10.5 -40t-23 -33.5t-34 -23t-44.5 -8.5q-45 0 -76 28t-37 77q-4 30 -4 50t4 50q3 20 11.5 39t23 33.5t34 23.5t44.5 9zM445 63q23 0 38 15t18 36q4 23 4 50.5t-4 52.5q-2 16 -15.5 32.5t-40.5 16.5q-23 0 -38 -14.5
t-18 -34.5q-4 -25 -4 -52.5t4 -50.5q3 -17 16 -34t40 -17zM445 320q45 0 75.5 -28.5t36.5 -76.5q4 -30 4 -50t-4 -50q-2 -21 -10.5 -40t-23 -33.5t-34 -23t-44.5 -8.5q-45 0 -76 28t-37 77q-4 30 -4 50t4 50q3 20 11.5 39t23 33.5t34 23.5t44.5 9zM716 63q23 0 38 15t18 36
q4 23 4 50.5t-4 52.5q-2 16 -15.5 32.5t-40.5 16.5q-23 0 -38 -14.5t-18 -34.5q-4 -25 -4 -52.5t4 -50.5q3 -17 16 -34t40 -17zM716 320q45 0 75.5 -28.5t36.5 -76.5q4 -30 4 -50t-4 -50q-2 -21 -10.5 -40t-23 -33.5t-34 -23t-44.5 -8.5q-45 0 -76 28t-37 77q-4 30 -4 50
t4 50q3 20 11.5 39t23 33.5t34 23.5t44.5 9z" />
    <glyph glyph-name="guilsinglleft" unicode="&#x2039;" horiz-adv-x="314" 
d="M152 435q2 4 8 9.5t17 5.5h19q14 0 19.5 -8.5t-3.5 -24.5l-85 -145q-8 -11 0 -24l85 -145q9 -16 3.5 -24.5t-19.5 -8.5h-19q-11 0 -17 5.5t-8 9.5l-96 161q-5 8 -5 14t5 14z" />
    <glyph glyph-name="guilsinglright" unicode="&#x203a;" horiz-adv-x="314" 
d="M232 274q5 -8 5 -14t-5 -14l-96 -161q-2 -4 -8 -9.5t-17 -5.5h-19q-14 0 -19.5 8.5t3.5 24.5l85 145q8 13 0 24l-85 145q-9 16 -3.5 24.5t19.5 8.5h19q11 0 17 -5.5t8 -9.5z" />
    <glyph glyph-name="fraction" unicode="&#x2044;" horiz-adv-x="161" 
d="M-86 15q-9 -15 -21 -15h-15q-10 0 -16 8.5t0 19.5l387 657q9 15 22 15h13q10 0 16 -9t0 -19z" />
    <glyph glyph-name="Euro" unicode="&#x20ac;" horiz-adv-x="572" 
d="M489 204q0 8 6 14t14 6h27q8 0 14 -6t6 -14v-4q0 -49 -18 -87.5t-48.5 -65.5t-71 -41t-85.5 -14q-44 0 -85.5 16t-73 47.5t-50.5 78.5t-19 109q0 2 -0.5 4.5t-5.5 2.5h-57q-8 0 -14 6t-6 14v25q0 8 6 14t14 6h53q8 0 8 7v73q0 2 -0.5 4t-4.5 2h-56q-8 0 -14 6t-6 14v25
q0 8 6 14t14 6h58q7 0 7 6q0 44 16.5 86.5t46.5 75.5t71.5 53.5t91.5 20.5q49 0 90.5 -17t70.5 -45.5t45.5 -66.5t16.5 -79v-4q0 -8 -6 -14t-14 -6h-27q-8 0 -14 6t-6 14v4q0 28 -11 54t-31.5 46t-49 32t-64.5 12t-65 -14t-50 -37.5t-32.5 -54.5t-11.5 -65q0 -7 5 -7h183
q8 0 14 -6t6 -14v-25q0 -8 -6 -14t-14 -6h-188q-5 0 -5.5 -2.5t-0.5 -4.5v-72q0 -7 6 -7h188q8 0 14 -6t6 -14v-25q0 -8 -6 -14t-14 -6h-184q-5 0 -5.5 -2.5t-0.5 -4.5q0 -37 9 -70.5t28.5 -59.5t50 -41.5t73.5 -15.5q40 0 69.5 14t49 35.5t28.5 47t9 47.5v4z" />
    <glyph glyph-name="afii61289" unicode="&#x2113;" horiz-adv-x="493" 
d="M50 282q-8 0 -14 6t-6 14v20q0 8 6 14t14 6h48v168q0 40 14 74.5t39 60t59 40.5t73 15t72 -15t57 -40.5t37.5 -60.5t13.5 -74q0 -55 -23.5 -97t-64 -71t-95 -44t-117.5 -15v-73q0 -51 11 -82t33.5 -48.5t58 -23.5t83.5 -6h36q8 0 14 -6t6 -14v-20q0 -8 -6 -14t-14 -6h-36
q-68 0 -115.5 12.5t-77.5 39t-44 67.5t-14 99v74h-48zM163 342q111 0 173 44t62 124q0 30 -9 54t-25 41t-36.5 26t-44.5 9q-27 0 -49.5 -10.5t-38 -28.5t-24 -41.5t-8.5 -49.5v-168z" />
    <glyph glyph-name="afii61352" unicode="&#x2116;" horiz-adv-x="983" 
d="M393 0q-8 0 -12 3t-9 14l-239 574q-2 3 -5 2.5t-3 -4.5v-569q0 -8 -6 -14t-14 -6h-20q-8 0 -14 6t-6 14v660q0 8 6 14t14 6h52q8 0 12 -3t9 -14l239 -569q2 -3 5 -2.5t3 4.5v564q0 8 6 14t14 6h20q8 0 14 -6t6 -14v-660q0 -8 -6 -14t-14 -6h-52zM589 406q-1 -8 -1.5 -20
t-0.5 -25t0.5 -25t1.5 -20q3 -20 11 -41.5t23 -39t38.5 -29t58.5 -11.5q34 0 58 11.5t39 29t23 39t11 41.5q1 8 1.5 20t0.5 25t-0.5 25t-1.5 20q-3 20 -11 41.5t-23 39t-39 29t-58 11.5q-35 0 -58.5 -11.5t-38.5 -29t-23 -39t-11 -41.5zM528 316q-1 8 -1.5 20t-0.5 25
t0.5 25t1.5 20q6 39 20.5 72t38.5 57t57 37.5t76 13.5t76 -13.5t57 -37.5t38.5 -57t20.5 -72q1 -8 1.5 -20t0.5 -25t-0.5 -25t-1.5 -20q-6 -39 -20.5 -72t-38.5 -57t-57 -37.5t-76 -13.5t-76 13.5t-57 37.5t-38.5 57t-20.5 72zM569 0q-8 0 -14 6t-6 14v13q0 8 6 14t14 6h304
q8 0 14 -6t6 -14v-13q0 -8 -6 -14t-14 -6h-304z" />
    <glyph glyph-name="trademark" unicode="&#x2122;" horiz-adv-x="732" 
d="M202 360q0 -10 -10 -10h-32q-10 0 -10 10v283q0 5 -5 5h-84q-10 0 -10 10v32q0 10 10 10h230q10 0 10 -10v-32q0 -10 -10 -10h-84q-5 0 -5 -5v-283zM490 454q1 -2 2.5 -2t2.5 2l65 237q3 9 10 9h57q10 0 10 -10v-330q0 -10 -10 -10h-28q-10 0 -10 10v249q0 2 -2 2.5
t-2 -1.5l-72 -252q-3 -8 -10 -8h-21q-8 0 -11 8l-71 252q-1 2 -2.5 1.5t-1.5 -2.5v-249q0 -10 -10 -10h-29q-10 0 -10 10v330q0 10 10 10h57q8 0 11 -9z" />
    <glyph glyph-name="uni2126" unicode="&#x2126;" horiz-adv-x="833" 
d="M478 72q-8 -5 -6 -13.5t13 -8.5h107q8 0 14 -6t6 -14v-10q0 -8 -6 -14t-14 -6h-176q-8 0 -14 6t-6 14v29q0 7 3.5 20.5t21.5 25.5q17 11 43 34t50.5 58.5t42 84t17.5 109.5q0 55 -16.5 104t-47 86t-73.5 58.5t-96 21.5q-54 0 -97 -22.5t-73 -60t-46 -86t-16 -101.5
q0 -60 17.5 -108t42 -84t50.5 -59.5t43 -34.5q18 -12 21.5 -25.5t3.5 -20.5v-29q0 -8 -6 -14t-14 -6h-176q-8 0 -14 6t-6 14v10q0 8 6 14t14 6h107q11 0 13.5 8t-5.5 13q-29 20 -57 52.5t-50 74t-35.5 88.5t-13.5 96q0 64 21.5 122.5t59.5 102.5t91.5 70t118.5 26
q64 0 118 -26t92.5 -70t60 -102.5t21.5 -122.5q0 -49 -13.5 -96t-35 -87.5t-49.5 -73.5t-57 -53z" />
    <glyph glyph-name="estimated" unicode="&#x212e;" horiz-adv-x="594" 
d="M306 50q69 0 113 25.5t60 67.5q7 17 23 17h16q8 0 13 -4.5t4 -15.5q-3 -33 -22 -60.5t-49 -47.5t-70.5 -31t-87.5 -11q-95 0 -161.5 47.5t-86.5 148.5q-4 19 -6 43.5t-2 50t2 50t6 43.5q23 107 88 157t160 50q47 0 90 -13.5t76 -41.5t52.5 -72t19.5 -104v-63q0 -8 -6 -14
t-14 -6h-399q-10 0 -10 -10q3 -46 17.5 -84t39 -65t58.5 -42t76 -15zM116 331q0 -10 10 -10h348q10 0 10 10q0 51 -14 87.5t-38.5 60.5t-57.5 35t-70 11q-33 0 -65.5 -11t-58.5 -34t-43.5 -60t-20.5 -89z" />
    <glyph glyph-name="arrowleft" unicode="&#x2190;" horiz-adv-x="653" 
d="M583 283q8 0 14 -6t6 -14v-17q0 -8 -6 -14t-14 -6h-440l147 -139l10.5 -10.5t4.5 -12.5v-27q0 -12 -11 -17.5t-20 3.5l-217 217q-13 15 -1 27l225 225q8 8 16 3.5t8 -13.5v-30q0 -14 -12 -25l-150 -144h440z" />
    <glyph glyph-name="arrowup" unicode="&#x2191;" horiz-adv-x="580" 
d="M259 460l-139 -147l-10.5 -10.5t-12.5 -4.5h-27q-12 0 -17.5 11t3.5 20l217 217q15 13 27 1l225 -225q8 -8 3.5 -16t-13.5 -8h-30q-14 0 -25 12l-144 150v-440q0 -8 -6 -14t-14 -6h-17q-8 0 -14 6t-6 14v440z" />
    <glyph glyph-name="arrowright" unicode="&#x2192;" horiz-adv-x="653" 
d="M510 283l-150 144q-12 11 -12 25v30q0 9 8 13.5t16 -3.5l225 -225q12 -12 -1 -27l-217 -217q-9 -9 -20 -3.5t-11 17.5v27q0 8 4.5 12.5l10.5 10.5l147 139h-440q-8 0 -14 6t-6 14v17q0 8 6 14t14 6h440z" />
    <glyph glyph-name="arrowdown" unicode="&#x2193;" horiz-adv-x="580" 
d="M259 510q0 8 6 14t14 6h17q8 0 14 -6t6 -14v-440l144 150q11 12 25 12h30q9 0 13.5 -8t-3.5 -16l-225 -225q-12 -12 -27 1l-217 217q-9 9 -3.5 20t17.5 11h27q8 0 12.5 -4.5l10.5 -10.5l139 -147v440z" />
    <glyph glyph-name="uni2196" unicode="&#x2196;" horiz-adv-x="518" 
d="M100 365l4 -208q0 -17 -9 -26l-21 -21q-7 -7 -15.5 -4.5t-8.5 13.5v319q0 18 19 18h307q13 0 17 -11.5t-5 -20.5l-19 -19q-5 -5 -11.5 -5.5t-15.5 -0.5l-202 6l311 -311q5 -5 5 -14t-5 -14l-12 -12q-5 -5 -14 -5t-14 5z" />
    <glyph glyph-name="uni2197" unicode="&#x2197;" horiz-adv-x="518" 
d="M96 54q-5 -5 -14 -5t-14 5l-12 12q-5 5 -5 14t5 14l311 311l-202 -6q-9 0 -15.5 0.5t-11.5 5.5l-19 19q-9 9 -5 20.5t17 11.5h307q19 0 19 -18v-319q0 -11 -8.5 -13.5t-15.5 4.5l-21 21q-9 9 -9 26l4 208z" />
    <glyph glyph-name="uni2198" unicode="&#x2198;" horiz-adv-x="518" 
d="M68 449q5 5 14 5t14 -5l311 -311l-4 208q0 17 9 26l21 21q7 7 15.5 4.5t8.5 -13.5v-319q0 -18 -19 -18h-307q-13 0 -17 11.5t5 20.5l19 19q5 5 11.5 5.5t15.5 0.5l202 -6l-311 311q-5 5 -5 14t5 14z" />
    <glyph glyph-name="uni2199" unicode="&#x2199;" horiz-adv-x="833" 
d="M411 449q5 5 14 5t14 -5l12 -12q5 -5 5 -14t-5 -14l-311 -311l202 6q9 0 15.5 -0.5t11.5 -5.5l19 -19q9 -9 5 -20.5t-17 -11.5h-307q-19 0 -19 18v319q0 11 8.5 13.5t15.5 -4.5l21 -21q9 -9 9 -26l-4 -208z" />
    <glyph glyph-name="partialdiff" unicode="&#x2202;" horiz-adv-x="508" 
d="M251 49q37 0 63.5 13t43.5 32.5t25.5 42.5t10.5 43q1 15 1.5 25.5t0.5 19.5t-0.5 19.5t-1.5 25.5q-2 20 -10.5 43t-25.5 42.5t-43.5 32.5t-63.5 13q-38 0 -64.5 -13t-43.5 -32.5t-25.5 -42.5t-9.5 -43q-1 -15 -1.5 -25.5t-0.5 -19.5t0.5 -19.5t1.5 -25.5q1 -20 9.5 -43
t25.5 -42.5t43.5 -32.5t64.5 -13zM174 641q-8 0 -14 6t-6 14v19q0 8 6 14t14 6h36q52 0 93.5 -21.5t71.5 -59t48 -88.5t25 -111t8.5 -118.5t-5.5 -121.5q-4 -39 -19 -74t-40 -60.5t-60.5 -40.5t-80.5 -15t-81.5 15t-63 40.5t-42 60.5t-18.5 74q-1 15 -1.5 25.5t-0.5 19.5
t0.5 19.5t1.5 25.5q3 39 18.5 74t42 60.5t63 40.5t81.5 15q26 0 46 -5.5t35 -13t25.5 -16t16.5 -14.5q4 -5 7.5 -3t3.5 7q-2 46 -12.5 87.5t-31.5 72t-53.5 48.5t-77.5 18h-36z" />
    <glyph glyph-name="uni2206" unicode="&#x2206;" horiz-adv-x="833" 
d="M70 0q-8 0 -14 6t-6 14v31q0 8 2.5 16.5t4.5 12.5l240 545q6 15 19 15h44q13 0 19 -15l240 -545q2 -4 4.5 -12.5t2.5 -16.5v-31q0 -8 -6 -14t-14 -6h-536zM548 57q6 0 7 4t-1 8l-209 493q-3 6 -6 6h-2q-3 0 -6 -6l-209 -493q-2 -4 -1 -8t7 -4h420z" />
    <glyph glyph-name="product" unicode="&#x220f;" horiz-adv-x="569" 
d="M443 628q0 10 -10 10h-296q-10 0 -10 -10v-808q0 -8 -6 -14t-14 -6h-22q-8 0 -14 6t-6 14v860q0 8 6 14t14 6h400q8 0 14 -6t6 -14v-860q0 -8 -6 -14t-14 -6h-22q-8 0 -14 6t-6 14v808z" />
    <glyph glyph-name="summation" unicode="&#x2211;" horiz-adv-x="493" 
d="M74 620q-2 4 -5.5 11.5t-3.5 18.5v30q0 8 6 14t14 6h373q8 0 14 -6t6 -14v-21q0 -8 -6 -14t-14 -6h-305q-7 0 -9 -4t0 -8l172 -347q5 -9 5.5 -18.5t-5.5 -21.5l-182 -367q-2 -4 0 -8t7 -4h319q8 0 14 -6t6 -14v-21q0 -8 -6 -14t-14 -6h-385q-8 0 -14 6t-6 14v30
q0 11 3.5 18.5t5.5 11.5l185 369q3 5 2.5 11t-2.5 10z" />
    <glyph glyph-name="minus" unicode="&#x2212;" horiz-adv-x="520" 
d="M450 293q8 0 14 -6t6 -14v-24q0 -8 -6 -14t-14 -6h-380q-8 0 -14 6t-6 14v24q0 8 6 14t14 6h380z" />
    <glyph glyph-name="radical" unicode="&#x221a;" horiz-adv-x="505" 
d="M561 860q8 0 14 -6t6 -14v-15q0 -8 -6 -14t-14 -6h-110l-237 -790q-5 -15 -19 -15h-56q-15 0 -19 15l-118 371q-2 8 2.5 16t16.5 8h20q15 0 19 -15l100 -323q1 -6 6 -6h2q4 0 6 6l230 773q4 15 19 15h138z" />
    <glyph glyph-name="infinity" unicode="&#x221e;" horiz-adv-x="771" 
d="M740 259q0 -75 -42.5 -122.5t-118.5 -47.5q-25 0 -50.5 10t-49.5 25.5t-45.5 35.5t-39.5 40q-3 4 -9 4.5t-11 -4.5q-17 -18 -38 -37.5t-44.5 -36t-49 -27t-52.5 -10.5q-38 0 -67.5 12.5t-50.5 35t-32 53.5t-11 69q0 75 43 122t118 47q25 0 50 -9.5t49 -25t45.5 -34.5
t39.5 -38q3 -3 8 -4t10 4q18 18 40 37t46 34.5t49.5 25.5t51.5 10q76 0 118.5 -47t42.5 -122zM679 259q0 25 -8.5 44t-22.5 32.5t-32 20.5t-37 7q-24 0 -46.5 -10t-43 -25.5t-39 -34l-34.5 -34.5l34.5 -34.5t39 -34t43 -25.5t46.5 -10q19 0 37 6.5t32 20t22.5 32.5t8.5 45z
M346 259q-17 18 -34.5 36.5t-36.5 33.5t-40 24.5t-45 9.5q-19 0 -36.5 -7t-31.5 -20.5t-22.5 -32.5t-8.5 -44q0 -26 8.5 -45t22.5 -32.5t31.5 -20t36.5 -6.5q24 0 45 9.5t40 24.5t36.5 33.5t34.5 36.5z" />
    <glyph glyph-name="integral" unicode="&#x222b;" horiz-adv-x="371" 
d="M149 520q0 42 12.5 76.5t35 59t53.5 38t69 13.5h5q8 0 14 -6t6 -14v-16q0 -8 -6 -14t-14 -6h-5q-29 0 -49.5 -10.5t-34 -28.5t-20 -42t-6.5 -50v-540q0 -41 -8 -74.5t-26 -57t-47.5 -36t-72.5 -12.5h-21q-8 0 -14 6t-6 14v20q0 8 5.5 14t13.5 6h24q48 0 70 29t22 91v540z
" />
    <glyph glyph-name="approxequal" unicode="&#x2248;" horiz-adv-x="510" 
d="M141 328q-17 0 -35.5 -7.5t-26.5 -18.5q-8 -10 -18.5 -8t-10.5 17v24q0 27 26.5 44t64.5 17q39 0 64.5 -7t48 -15.5t48.5 -15.5t67 -7q17 0 35.5 7.5t26.5 18.5q8 10 18.5 8t10.5 -17v-24q0 -27 -26.5 -44t-64.5 -17q-39 0 -64.5 7t-48 15.5t-49 15.5t-66.5 7zM141 148
q-17 0 -35.5 -7.5t-26.5 -18.5q-8 -10 -18.5 -8t-10.5 17v24q0 27 26.5 44t64.5 17q39 0 64.5 -7t48 -15.5t48.5 -15.5t67 -7q17 0 35.5 7.5t26.5 18.5q8 10 18.5 8t10.5 -17v-24q0 -27 -26.5 -44t-64.5 -17q-39 0 -64.5 7t-48 15.5t-49 15.5t-66.5 7z" />
    <glyph glyph-name="notequal" unicode="&#x2260;" horiz-adv-x="540" 
d="M70 129q-8 0 -14 6t-6 14v25q0 8 6 14t14 6h117q6 0 9 2t5 5l63 99q2 2 1 4.5t-6 2.5h-189q-8 0 -14 6t-6 14v25q0 8 6 14t14 6h237q6 0 9 2t5 5l59 84q5 8 8.5 11.5t10.5 3.5h23q10 0 16.5 -9t-0.5 -19l-50 -71q-2 -2 -1 -4.5t6 -2.5h77q8 0 14 -6t6 -14v-25
q0 -8 -6 -14t-14 -6h-124q-6 0 -9 -2t-5 -5l-62 -99q-2 -2 -1 -4.5t6 -2.5h195q8 0 14 -6t6 -14v-25q0 -8 -6 -14t-14 -6h-238q-6 0 -9 -2t-5 -5l-53 -79q-5 -8 -9.5 -11.5t-11.5 -3.5h-23q-10 0 -16.5 9t0.5 19l46 66q2 2 1 4.5t-6 2.5h-76z" />
    <glyph glyph-name="lessequal" unicode="&#x2264;" horiz-adv-x="534" 
d="M437 238q15 -9 15 -21v-28q0 -12 -8 -18t-15 -1l-362 219q-15 8 -15 22v19q0 14 15 22l362 218q7 5 15 -1t8 -18v-28q0 -12 -15 -21l-301 -178q-8 -4 0 -8zM464 64q8 0 14 -6t6 -14v-24q0 -8 -6 -14t-14 -6h-394q-8 0 -14 6t-6 14v24q0 8 6 14t14 6h394z" />
    <glyph glyph-name="greaterequal" unicode="&#x2265;" horiz-adv-x="534" 
d="M398 416q8 4 0 8l-301 178q-15 9 -15 21v28q0 12 8 18t15 1l362 -218q15 -8 15 -22v-19q0 -14 -15 -22l-362 -219q-7 -5 -15 1t-8 18v28q0 12 15 21zM464 64q8 0 14 -6t6 -14v-24q0 -8 -6 -14t-14 -6h-394q-8 0 -14 6t-6 14v24q0 8 6 14t14 6h394z" />
    <glyph glyph-name="lozenge" unicode="&#x25ca;" horiz-adv-x="604" 
d="M54 344q-6 10 0 18l217 330q10 15 22 15h19q12 0 22 -15l217 -329q2 -4 2.5 -9t-2.5 -10l-217 -329q-10 -15 -22 -15h-19q-12 0 -22 15zM307 623q-4 8 -8 0l-177 -270l177 -269q4 -8 8 0l177 269z" />
    <glyph glyph-name="commaaccent" unicode="&#xf6c3;" horiz-adv-x="230" 
d="M79 -240q-9 0 -14.5 7.5t-0.5 16.5l28 51q3 5 0.5 10t-8.5 5h-5q-8 0 -14 6t-6 14v65q0 8 6 14t14 6h60q8 0 14 -6t6 -14v-70q0 -21 -5 -31.5t-11 -19.5l-25 -36q-4 -5 -9.5 -11.5t-19.5 -6.5h-10v0z" />
    <glyph glyph-name="apple" unicode="&#xf8ff;" horiz-adv-x="550" 
d="M184 120q-14 0 -19 -9t-9.5 -19.5t-12.5 -19.5t-27 -9q-21 0 -36.5 13.5t-15.5 31.5t6.5 27t14.5 17t14.5 19t6.5 34q0 17 -8.5 27.5t-19.5 10.5q-12 0 -15.5 -3.5t-14.5 -3.5q-15 0 -22.5 16t-7.5 36q0 14 9.5 26.5t23.5 12.5q10 0 14.5 -5.5t12.5 -5.5q15 0 21 15t6 25
q0 12 -5 24.5t-5 24.5q0 20 11.5 28.5t28.5 8.5q9 0 9 8q0 5 -4 10.5t-4 13.5q0 5 5.5 9.5t10.5 4.5q8 0 13 -5.5t9 -12t8.5 -12t11.5 -5.5q12 0 15 8.5t5 19t7 19t22 8.5q16 0 23.5 -7.5t13.5 -16.5t13.5 -16.5t21.5 -7.5q21 0 28 11.5t7 36.5q0 28 15 40.5t38 12.5
q22 0 34.5 -13t12.5 -35q0 -16 -7.5 -26t-16.5 -16.5t-16.5 -12.5t-7.5 -14q0 -14 12 -22t27 -16.5t27 -21t12 -36.5q0 -14 -5 -22.5t-11 -15t-11 -14t-5 -20.5q0 -10 9.5 -18t34.5 -8q22 0 31 -13t9 -32q0 -22 -15 -37t-37 -15q-12 0 -19.5 8t-15 17t-16 17t-21.5 8
q-11 0 -18 -5.5t-7 -15.5q0 -8 3 -12.5t7 -8.5t7 -10t3 -18q0 -13 -8.5 -23t-26.5 -10q-9 0 -17.5 4.5t-18 10.5t-20.5 10.5t-24 4.5q-9 0 -17.5 -7t-8.5 -24q0 -12 -6.5 -19.5t-17.5 -7.5q-9 0 -12.5 7.5t-7.5 16.5t-11 16.5t-23 7.5zM298 340q0 -17 11.5 -28.5t28.5 -11.5
t30 11.5t13 28.5t-13 32t-30 15t-28.5 -15t-11.5 -32zM281 226q-14 0 -26 5.5t-22 14.5q-5 4 -7 1t2 -8q8 -12 20 -20.5t33 -8.5q20 0 29.5 11.5t14.5 22.5q2 5 -1 6.5t-5 -2.5q-12 -22 -38 -22zM214 335q0 9 4 15t10 6t10 -6t4 -15t-4 -15t-10 -6t-10 6t-4 15zM310 340
q0 9 4 15t10 6t10 -6t4 -15t-4 -15t-10 -6t-10 6t-4 15zM178 340q0 -21 9.5 -35.5t26.5 -14.5t28.5 14.5t11.5 35.5t-11.5 35.5t-28.5 14.5t-26.5 -14.5t-9.5 -35.5zM85 520q0 14 8.5 24t20.5 10q10 0 17 -10t7 -24t-7 -24t-17 -10q-12 0 -20.5 10t-8.5 24z" />
    <glyph glyph-name="ffi" unicode="&#xfb03;" horiz-adv-x="794" 
d="M555 651q-29 0 -49.5 -10.5t-34 -28.5t-20 -42t-6.5 -50v-15q0 -10 10 -10h244q8 0 14 -6t6 -14v-455q0 -8 -6 -14t-14 -6h-20q-8 0 -14 6t-6 14v406q0 10 -10 10h-194q-10 0 -10 -10v-406q0 -8 -6 -14t-14 -6h-20q-8 0 -14 6t-6 14v406q0 10 -10 10h-183q-10 0 -10 -10
v-406q0 -8 -6 -14t-14 -6h-20q-8 0 -14 6t-6 14v406q0 10 -10 10h-87q-8 0 -14 6t-6 14v19q0 8 6 14t14 6h87q10 0 10 10v15q0 42 12.5 76.5t35 59t53.5 38t69 13.5h5q8 0 14 -6t6 -14v-16q0 -8 -6 -14t-14 -6h-5q-29 0 -49.5 -10.5t-34 -28.5t-20 -42t-6.5 -50v-15
q0 -10 10 -10h183q10 0 10 10v15q0 42 12.5 76.5t35 59t53.5 38t69 13.5h154q8 0 14 -6t6 -14v-16q0 -8 -6 -14t-14 -6h-154z" />
    <glyph glyph-name="ffl" unicode="&#xfb04;" horiz-adv-x="805" 
d="M680 687q0 8 6 14t14 6h20q8 0 14 -6t6 -14v-667q0 -8 -6 -14t-14 -6h-20q-8 0 -14 6t-6 14v406q0 10 -10 10h-215q-10 0 -10 -10v-406q0 -8 -6 -14t-14 -6h-20q-8 0 -14 6t-6 14v406q0 10 -10 10h-183q-10 0 -10 -10v-406q0 -8 -6 -14t-14 -6h-20q-8 0 -14 6t-6 14v406
q0 10 -10 10h-87q-8 0 -14 6t-6 14v19q0 8 6 14t14 6h87q10 0 10 10v15q0 42 12.5 76.5t35 59t53.5 38t69 13.5h5q8 0 14 -6t6 -14v-16q0 -8 -6 -14t-14 -6h-5q-29 0 -49.5 -10.5t-34 -28.5t-20 -42t-6.5 -50v-15q0 -10 10 -10h183q10 0 10 10v15q0 42 12.5 76.5t35 59
t53.5 38t69 13.5h5q8 0 14 -6t6 -14v-16q0 -8 -6 -14t-14 -6h-5q-29 0 -49.5 -10.5t-34 -28.5t-20 -42t-6.5 -50v-15q0 -10 10 -10h215q10 0 10 10v182z" />
    <glyph glyph-name="commaturn" horiz-adv-x="272" 
d="M160 771q9 0 14.5 -7.5t0.5 -16.5l-28 -51q-3 -5 -0.5 -10t8.5 -5h5q8 0 14 -6t6 -14v-65q0 -8 -6 -14t-14 -6h-60q-8 0 -14 6t-6 14v70q0 21 5 31.5t11 19.5l25 36q4 5 9.5 11.5t19.5 6.5h10v0z" />
    </font>
</defs>
</svg>
