<svg xmlns="http://www.w3.org/2000/svg">
<defs>
<font id="3a862cdb74e094004fdde8eaf00f9d40" horiz-adv-x='1024' >
  <font-face 
    font-family="GTPressura-Bold"
    font-weight="700"
    font-stretch="normal"
    units-per-em="1000"
    panose-1="2 0 5 6 2 0 0 2 0 4"
    ascent="750"
    descent="-250"
    x-height="500"
    cap-height="700"
    bbox="-168.63 -305 987 1080"
    underline-thickness="50"
    underline-position="-50"
    unicode-range="U+0020-FB04"
  />
<missing-glyph horiz-adv-x="550" 
d="M184 120q-14 0 -19 -9t-9.5 -19.5t-12.5 -19.5t-27 -9q-21 0 -36.5 13.5t-15.5 31.5t6.5 27t14.5 17t14.5 19t6.5 34q0 17 -8.5 27.5t-19.5 10.5q-12 0 -15.5 -3.5t-14.5 -3.5q-15 0 -22.5 16t-7.5 36q0 14 9.5 26.5t23.5 12.5q10 0 14.5 -5.5t12.5 -5.5q15 0 21 15t6 25
q0 12 -5 24.5t-5 24.5q0 20 11.5 28.5t28.5 8.5q9 0 9 8q0 5 -4 10.5t-4 13.5q0 5 5.5 9.5t10.5 4.5q8 0 13 -5.5t9 -12t8.5 -12t11.5 -5.5q12 0 15 8.5t5 19t7 19t22 8.5q16 0 23.5 -7.5t13.5 -16.5t13.5 -16.5t21.5 -7.5q21 0 28 11.5t7 36.5q0 28 15 40.5t38 12.5
q22 0 34.5 -13t12.5 -35q0 -16 -7.5 -26t-16.5 -16.5t-16.5 -12.5t-7.5 -14q0 -14 12 -22t27 -16.5t27 -21t12 -36.5q0 -14 -5 -22.5t-11 -15t-11 -14t-5 -20.5q0 -10 9.5 -18t34.5 -8q22 0 31 -13t9 -32q0 -22 -15 -37t-37 -15q-12 0 -19.5 8t-15 17t-16 17t-21.5 8
q-11 0 -18 -5.5t-7 -15.5q0 -8 3 -12.5t7 -8.5t7 -10t3 -18q0 -13 -8.5 -23t-26.5 -10q-9 0 -17.5 4.5t-18 10.5t-20.5 10.5t-24 4.5q-9 0 -17.5 -7t-8.5 -24q0 -12 -6.5 -19.5t-17.5 -7.5q-9 0 -12.5 7.5t-7.5 16.5t-11 16.5t-23 7.5zM298 340q0 -17 11.5 -28.5t28.5 -11.5
t30 11.5t13 28.5t-13 32t-30 15t-28.5 -15t-11.5 -32zM281 226q-14 0 -26 5.5t-22 14.5q-5 4 -7 1t2 -8q8 -12 20 -20.5t33 -8.5q20 0 29.5 11.5t14.5 22.5q2 5 -1 6.5t-5 -2.5q-12 -22 -38 -22zM214 335q0 9 4 15t10 6t10 -6t4 -15t-4 -15t-10 -6t-10 6t-4 15zM310 340
q0 9 4 15t10 6t10 -6t4 -15t-4 -15t-10 -6t-10 6t-4 15zM178 340q0 -21 9.5 -35.5t26.5 -14.5t28.5 14.5t11.5 35.5t-11.5 35.5t-28.5 14.5t-26.5 -14.5t-9.5 -35.5zM85 520q0 14 8.5 24t20.5 10q10 0 17 -10t7 -24t-7 -24t-17 -10q-12 0 -20.5 10t-8.5 24z" />
    <glyph glyph-name="IJ" unicode="IJ" horiz-adv-x="570" 
d="M210 20q0 -8 -6 -14t-14 -6h-100q-8 0 -14 6t-6 14v660q0 8 6 14t14 6h100q8 0 14 -6t6 -14v-660zM279 130q41 0 65.5 24.5t24.5 66.5v459q0 8 6 14t14 6h101q8 0 14 -6t6 -14v-469q0 -46 -16.5 -86t-46.5 -70t-73 -47.5t-95 -17.5q-8 0 -14 6t-6 14v100q0 8 6 14t14 6z
" />
    <glyph glyph-name="ij" unicode="ij" horiz-adv-x="520" 
d="M205 586q0 -16 -16 -16h-108q-16 0 -16 16v108q0 6 4.5 11t11.5 5h108q7 0 11.5 -5t4.5 -11v-108zM200 16q0 -6 -4.5 -11t-11.5 -5h-98q-7 0 -11.5 5t-4.5 11v468q0 6 4.5 11t11.5 5h98q7 0 11.5 -5t4.5 -11v-468zM280 480q0 8 6 14t14 6h90q8 0 14 -6t6 -14v-510
q0 -38 -15 -71.5t-41 -59t-62.5 -40t-78.5 -14.5h-48q-8 0 -14 6t-6 14v79q0 8 6 14t14 6h42q28 0 50.5 16.5t22.5 49.5v510zM415 586q0 -16 -16 -16h-108q-16 0 -16 16v108q0 6 4.5 11t11.5 5h108q7 0 11.5 -5t4.5 -11v-108z" />
    <glyph glyph-name="napostrophe" unicode="&#x22;n" horiz-adv-x="525" 
d="M470 20q0 -8 -6 -14t-14 -6h-90q-8 0 -14 6t-6 14v306q0 25 -19.5 42t-55.5 17q-35 0 -55 -16t-20 -39v-310q0 -8 -6 -14t-14 -6h-90q-8 0 -14 6t-6 14v460q0 8 6 14t14 6h50q11 0 18 -7q6 -5 11 -11t16 -6t21 5.5t22.5 12t28 12t38.5 5.5q39 0 73 -14.5t59 -39.5t39 -59
t14 -73v-305zM-13 440q-15 0 -21.5 12t0.5 26l34 69q3 5 -0.5 9t-8.5 4h-24q-8 0 -14 6t-6 14v100q0 8 6 14t14 6h100q8 0 14 -6t6 -14v-97q0 -20 -6.5 -37.5t-15.5 -31.5l-34 -54q-5 -7 -12 -13.5t-22 -6.5h-10z" />
    <glyph glyph-name="f_f" unicode="ff" horiz-adv-x="717" 
d="M617 580q-25 0 -42.5 -15t-17.5 -40v-18q0 -10 10 -10h120q8 0 14 -6t6 -14v-80q0 -8 -6 -14t-14 -6h-120q-10 0 -10 -10v-347q0 -8 -6 -14t-14 -6h-90q-8 0 -14 6t-6 14v347q0 10 -10 10h-162q-10 0 -10 -10v-347q0 -8 -6 -14t-14 -6h-90q-8 0 -14 6t-6 14v347
q0 10 -10 10h-80q-8 0 -14 6t-6 14v80q0 8 6 14t14 6h80q10 0 10 10v20q0 39 15 72.5t41 58t60.5 38.5t73.5 14h60q8 0 14 -6t6 -14v-90q0 -8 -6 -14t-14 -6h-60q-25 0 -42.5 -15t-17.5 -40v-18q0 -10 10 -10h162q10 0 10 10v20q0 39 15 72.5t41 58t60.5 38.5t73.5 14h60
q8 0 14 -6t6 -14v-90q0 -8 -6 -14t-14 -6h-60z" />
    <glyph glyph-name="fi" unicode="fi" horiz-adv-x="630" 
d="M430 367q0 10 -10 10h-165q-10 0 -10 -10v-347q0 -8 -6 -14t-14 -6h-90q-8 0 -14 6t-6 14v347q0 10 -10 10h-80q-8 0 -14 6t-6 14v80q0 8 6 14t14 6h80q10 0 10 10v20q0 39 15 72.5t41 58t60.5 38.5t73.5 14h235q8 0 14 -6t6 -14v-90q0 -8 -6 -14t-14 -6h-235
q-25 0 -42.5 -15t-17.5 -40v-18q0 -10 10 -10h289q7 0 11.5 -5t4.5 -11v-465q0 -6 -4.5 -11t-11.5 -5h-98q-7 0 -11.5 5t-4.5 11v351z" />
    <glyph glyph-name="fl" unicode="fl" horiz-adv-x="640" 
d="M445 367q0 10 -10 10h-180q-10 0 -10 -10v-347q0 -8 -6 -14t-14 -6h-90q-8 0 -14 6t-6 14v347q0 10 -10 10h-80q-8 0 -14 6t-6 14v80q0 8 6 14t14 6h80q10 0 10 10v20q0 39 15 72.5t41 58t60.5 38.5t73.5 14h50q8 0 14 -6t6 -14v-90q0 -8 -6 -14t-14 -6h-50
q-25 0 -42.5 -15t-17.5 -40v-18q0 -10 10 -10h180q10 0 10 10v183q0 8 6 14t14 6h90q8 0 14 -6t6 -14v-670q0 -8 -6 -14t-14 -6h-90q-8 0 -14 6t-6 14v347z" />
    <glyph glyph-name=".notdef" horiz-adv-x="550" 
d="M184 120q-14 0 -19 -9t-9.5 -19.5t-12.5 -19.5t-27 -9q-21 0 -36.5 13.5t-15.5 31.5t6.5 27t14.5 17t14.5 19t6.5 34q0 17 -8.5 27.5t-19.5 10.5q-12 0 -15.5 -3.5t-14.5 -3.5q-15 0 -22.5 16t-7.5 36q0 14 9.5 26.5t23.5 12.5q10 0 14.5 -5.5t12.5 -5.5q15 0 21 15t6 25
q0 12 -5 24.5t-5 24.5q0 20 11.5 28.5t28.5 8.5q9 0 9 8q0 5 -4 10.5t-4 13.5q0 5 5.5 9.5t10.5 4.5q8 0 13 -5.5t9 -12t8.5 -12t11.5 -5.5q12 0 15 8.5t5 19t7 19t22 8.5q16 0 23.5 -7.5t13.5 -16.5t13.5 -16.5t21.5 -7.5q21 0 28 11.5t7 36.5q0 28 15 40.5t38 12.5
q22 0 34.5 -13t12.5 -35q0 -16 -7.5 -26t-16.5 -16.5t-16.5 -12.5t-7.5 -14q0 -14 12 -22t27 -16.5t27 -21t12 -36.5q0 -14 -5 -22.5t-11 -15t-11 -14t-5 -20.5q0 -10 9.5 -18t34.5 -8q22 0 31 -13t9 -32q0 -22 -15 -37t-37 -15q-12 0 -19.5 8t-15 17t-16 17t-21.5 8
q-11 0 -18 -5.5t-7 -15.5q0 -8 3 -12.5t7 -8.5t7 -10t3 -18q0 -13 -8.5 -23t-26.5 -10q-9 0 -17.5 4.5t-18 10.5t-20.5 10.5t-24 4.5q-9 0 -17.5 -7t-8.5 -24q0 -12 -6.5 -19.5t-17.5 -7.5q-9 0 -12.5 7.5t-7.5 16.5t-11 16.5t-23 7.5zM298 340q0 -17 11.5 -28.5t28.5 -11.5
t30 11.5t13 28.5t-13 32t-30 15t-28.5 -15t-11.5 -32zM281 226q-14 0 -26 5.5t-22 14.5q-5 4 -7 1t2 -8q8 -12 20 -20.5t33 -8.5q20 0 29.5 11.5t14.5 22.5q2 5 -1 6.5t-5 -2.5q-12 -22 -38 -22zM214 335q0 9 4 15t10 6t10 -6t4 -15t-4 -15t-10 -6t-10 6t-4 15zM310 340
q0 9 4 15t10 6t10 -6t4 -15t-4 -15t-10 -6t-10 6t-4 15zM178 340q0 -21 9.5 -35.5t26.5 -14.5t28.5 14.5t11.5 35.5t-11.5 35.5t-28.5 14.5t-26.5 -14.5t-9.5 -35.5zM85 520q0 14 8.5 24t20.5 10q10 0 17 -10t7 -24t-7 -24t-17 -10q-12 0 -20.5 10t-8.5 24z" />
    <glyph glyph-name=".null" horiz-adv-x="0" 
 />
    <glyph glyph-name="nonmarkingreturn" horiz-adv-x="333" 
 />
    <glyph glyph-name="space" unicode=" " horiz-adv-x="230" 
 />
    <glyph glyph-name="exclam" unicode="!" horiz-adv-x="263" 
d="M202 233q0 -6 -4.5 -11t-11.5 -5h-108q-7 0 -11.5 5t-4.5 11v451q0 6 4.5 11t11.5 5h108q7 0 11.5 -5t4.5 -11v-451zM211 20q0 -8 -6 -14t-14 -6h-120q-8 0 -14 6t-6 14v120q0 8 6 14t14 6h120q8 0 14 -6t6 -14v-120z" />
    <glyph glyph-name="quotedbl" unicode="&#x22;" horiz-adv-x="477" 
d="M70 390q-15 0 -22 12t1 26l54 99q3 5 -0.5 9t-8.5 4h-24q-8 0 -14 6t-6 14v120q0 8 6 14t14 6h120q8 0 14 -6t6 -14v-117q0 -20 -6 -38t-16 -31l-64 -84q-5 -7 -12 -13.5t-22 -6.5h-20zM290 390q-15 0 -22 12t1 26l54 99q3 5 -0.5 9t-8.5 4h-24q-8 0 -14 6t-6 14v120
q0 8 6 14t14 6h120q8 0 14 -6t6 -14v-117q0 -20 -6 -38t-16 -31l-64 -84q-5 -7 -12 -13.5t-22 -6.5h-20z" />
    <glyph glyph-name="numbersign" unicode="#" horiz-adv-x="602" 
d="M368 420q2 10 -8 10h-86q-10 0 -12 -10l-27 -153q-2 -10 8 -10h86q10 0 12 10zM155 420q2 10 -8 10h-50q-8 0 -13.5 6t-3.5 14l11 66q2 8 9 14t15 6h50q10 0 12 10l24 134q2 8 8.5 14t14.5 6h67q8 0 13.5 -6t3.5 -14l-24 -134q-2 -10 8 -10h86q10 0 12 10l24 134
q2 8 8.5 14t14.5 6h67q8 0 13.5 -6t3.5 -14l-24 -134q-2 -10 8 -10h50q8 0 13 -6t3 -14l-11 -66q-2 -8 -8.5 -14t-14.5 -6h-50q-10 0 -12 -10l-27 -153q-2 -10 8 -10h50q8 0 13 -6t3 -14l-11 -69q-2 -8 -8.5 -14t-14.5 -6h-50q-10 0 -12 -10l-22 -118q-2 -8 -8.5 -14
t-14.5 -6h-67q-8 0 -13.5 6t-3.5 14l22 118q2 10 -8 10h-86q-10 0 -12 -10l-22 -118q-2 -8 -8.5 -14t-14.5 -6h-67q-8 0 -13.5 6t-3.5 14l22 118q2 10 -8 10h-50q-8 0 -13.5 6t-3.5 14l11 69q2 8 9 14t15 6h50q10 0 12 10z" />
    <glyph glyph-name="dollar" unicode="$" horiz-adv-x="562" 
d="M356 700q34 -11 62 -30t48 -45.5t31 -58t11 -66.5v-15q0 -8 -6 -14t-14 -6h-101q-8 0 -14 6t-6 14v15q0 30 -23 52.5t-66 22.5q-42 0 -64.5 -22.5t-22.5 -52.5q0 -29 25 -44t64 -23q52 -11 96.5 -27.5t76.5 -43t50.5 -64.5t18.5 -90q0 -81 -46 -135t-120 -74
q-8 -2 -11.5 -5t-3.5 -10v-34q0 -8 -6 -14t-14 -6h-85q-8 0 -14 6t-6 14v35q0 7 -4.5 10t-11.5 5q-36 11 -65.5 31t-50.5 47t-32.5 60t-11.5 70v30q0 8 6 14t14 6h101q8 0 14 -6t6 -14v-30q0 -35 25 -58.5t72 -23.5q48 0 73.5 23.5t25.5 58.5q0 32 -23.5 49.5t-80.5 30.5
q-47 10 -88 26.5t-71 41.5t-47.5 60.5t-17.5 83.5q0 35 11 66.5t30.5 57.5t47.5 45t62 30q7 2 11.5 5t4.5 10v36q0 8 6 14t14 6h85q8 0 14 -6t6 -14v-34q0 -11 15 -16z" />
    <glyph glyph-name="percent" unicode="%" horiz-adv-x="680" 
d="M202 15q-9 -15 -21 -15h-52q-10 0 -16 8.5t0 19.5l366 657q9 15 22 15h49q10 0 16 -8.5t0 -19.5zM173 418q14 0 21.5 7.5t8.5 18.5q1 10 1.5 28t0.5 38t-0.5 38t-1.5 28q-1 11 -8.5 18.5t-21.5 7.5q-15 0 -22.5 -7.5t-8.5 -18.5q-2 -10 -2.5 -28t-0.5 -38t0.5 -38
t2.5 -28q1 -11 8.5 -18.5t22.5 -7.5zM173 692q52 0 83 -32.5t36 -77.5q4 -32 4 -72t-4 -72q-3 -23 -12 -43t-24 -35t-36 -24t-47 -9t-47 9t-36 24t-24 35t-12 43q-4 32 -4 72t4 72q5 45 36 77.5t83 32.5zM507 98q14 0 21.5 7.5t8.5 18.5q1 10 1 28v38v38t-1 28
q-1 11 -8.5 18.5t-21.5 7.5q-15 0 -22.5 -7.5t-8.5 -18.5q-2 -10 -2.5 -28t-0.5 -38t0.5 -38t2.5 -28q1 -11 8.5 -18.5t22.5 -7.5zM507 372q52 0 83 -32.5t36 -77.5q4 -32 4 -72t-4 -72q-3 -23 -12 -43t-24 -35t-36 -24t-47 -9t-47 9t-36 24t-24 35t-12 43q-4 32 -4 72t4 72
q5 45 36 77.5t83 32.5z" />
    <glyph glyph-name="ampersand" unicode="&#x26;" horiz-adv-x="585" 
d="M270 109q13 0 23.5 3.5t21.5 11.5q1 1 2 2.5t-1 3.5l-118 140q-3 3 -6 0q-27 -25 -27 -64q0 -19 9.5 -36.5t24.5 -31t33.5 -21.5t37.5 -8zM394 237q6 10 6 83q0 8 6 14t14 6h68q8 0 14 -6t6 -14q0 -45 -2.5 -76.5t-6.5 -52.5t-8.5 -33t-8.5 -18t1 -12l77 -91
q8 -10 3.5 -23.5t-21.5 -13.5h-79q-11 0 -15 3.5t-7 6.5l-22 23q-7 7 -11.5 4.5t-7.5 -4.5q-29 -23 -65.5 -33.5t-76.5 -10.5q-46 0 -87.5 16.5t-73 46t-50.5 69t-19 85.5q0 42 21 83t55 67q11 8 1 22q-20 25 -33 60.5t-13 68.5q0 42 16 77t44 61t65 40.5t79 14.5
q38 0 72 -14t60 -39t41.5 -58.5t15.5 -72.5q0 -20 -8.5 -25t-21.5 -5h-74q-28 0 -31 29q-2 23 -17 38.5t-41 15.5q-32 0 -49.5 -16.5t-17.5 -45.5q0 -14 5 -28.5t12.5 -27.5t14.5 -23.5t12 -15.5l149 -177q5 -5 9 2z" />
    <glyph glyph-name="quotesingle" unicode="'" horiz-adv-x="257" 
d="M70 540q-8 0 -14 6t-6 14v120q0 8 6 14t14 6h120q8 0 14 -6t6 -14v-117q0 -20 -6 -38t-16 -31l-64 -84q-5 -7 -12 -13.5t-22 -6.5h-20q-15 0 -22 12t1 26l54 99q3 5 -0.5 9t-8.5 4h-24z" />
    <glyph glyph-name="parenleft" unicode="(" horiz-adv-x="361" 
d="M325 38q8 0 14 -6t6 -14v-88q0 -8 -6 -14t-14 -6h-42q-45 0 -83.5 14.5t-68 42t-48.5 66.5t-25 87q-2 20 -4 51.5t-2.5 68t-1 76t0.5 76t2.5 67.5t4.5 51q5 41 22 79t45.5 67t68 46.5t89.5 17.5h42q8 0 14 -6t6 -14v-88q0 -8 -6 -14t-14 -6h-42q-34 0 -60 -17.5
t-35 -64.5q-6 -31 -9 -84t-3 -111t3 -111t9 -84q7 -36 29 -59t66 -23h42z" />
    <glyph glyph-name="parenright" unicode=")" horiz-adv-x="365" 
d="M82 38q44 0 66 23t29 59q6 31 9 84t3 111t-3 111t-9 84q-9 47 -35 64.5t-60 17.5h-42q-8 0 -14 6t-6 14v88q0 8 6 14t14 6h42q49 0 89 -17.5t68.5 -46.5t45.5 -67t22 -79q2 -20 4 -51t2.5 -67.5t0.5 -76t-0.5 -76t-2.5 -68t-4 -51.5q-6 -48 -25 -87t-48.5 -66.5t-68 -42
t-83.5 -14.5h-42q-8 0 -14 6t-6 14v88q0 8 6 14t14 6h42z" />
    <glyph glyph-name="asterisk" unicode="*" horiz-adv-x="393" 
d="M248 490l3 -30q2 -13 -7.5 -21.5t-22.5 -8.5h-49q-13 0 -22 8.5t-8 21.5l2 30l-25 -17q-10 -7 -22 -3.5t-19 14.5l-23 42q-7 11 -4 23t15 18l27 13l-28 13q-11 5 -14 17.5t3 23.5l25 42q6 11 18 15t23 -4l24 -17l-2 30q-1 13 8 21.5t22 8.5h49q13 0 22.5 -8.5t7.5 -21.5
l-3 -30l26 17q10 7 22 3.5t19 -14.5l23 -42q7 -11 4 -23t-15 -18l-27 -13l28 -13q11 -5 14 -17.5t-3 -23.5l-25 -42q-6 -11 -18 -15t-23 4z" />
    <glyph glyph-name="plus" unicode="+" horiz-adv-x="540" 
d="M70 186q-8 0 -14 6t-6 14v89q0 8 6 14t14 6h125q10 0 10 10v125q0 8 6 14t14 6h89q8 0 14 -6t6 -14v-125q0 -10 10 -10h126q8 0 14 -6t6 -14v-89q0 -8 -6 -14t-14 -6h-126q-10 0 -10 -10v-126q0 -8 -6 -14t-14 -6h-89q-8 0 -14 6t-6 14v126q0 10 -10 10h-125z" />
    <glyph glyph-name="comma" unicode="," horiz-adv-x="264" 
d="M73 -150q-15 0 -22 12t1 26l54 99q3 5 -0.5 9t-8.5 4h-24q-8 0 -14 6t-6 14v120q0 8 6 14t14 6h120q8 0 14 -6t6 -14v-117q0 -20 -6.5 -37.5t-15.5 -31.5l-64 -84q-5 -7 -12 -13.5t-22 -6.5h-20v0z" />
    <glyph glyph-name="hyphen" unicode="-" horiz-adv-x="413" 
d="M343 337q8 0 14 -6t6 -14v-99q0 -8 -6 -14t-14 -6h-273q-8 0 -14 6t-6 14v99q0 8 6 14t14 6h273z" />
    <glyph glyph-name="period" unicode="." horiz-adv-x="263" 
d="M212 20q0 -8 -6 -14t-14 -6h-120q-8 0 -14 6t-6 14v120q0 8 6 14t14 6h120q8 0 14 -6t6 -14v-120z" />
    <glyph glyph-name="slash" unicode="/" horiz-adv-x="478" 
d="M171 3q-5 -15 -21 -15h-92q-10 0 -15.5 8.5t-0.5 19.5l266 679q5 15 19 15h92q10 0 15.5 -8.5t0.5 -19.5z" />
    <glyph glyph-name="zero" unicode="0" horiz-adv-x="552" 
d="M276 125q35 0 57.5 23.5t26.5 57.5q8 66 8 144t-8 144q-4 34 -26.5 57.5t-57.5 23.5t-57.5 -23.5t-26.5 -57.5q-8 -66 -8 -144t8 -144q4 -34 26.5 -57.5t57.5 -23.5zM276 711q46 0 84.5 -17.5t67.5 -48t47.5 -70.5t23.5 -85q4 -32 5.5 -67.5t1.5 -72.5t-1.5 -73t-5.5 -67
q-5 -45 -23.5 -85t-47.5 -70.5t-67.5 -48t-84.5 -17.5t-84.5 17.5t-67.5 48t-47.5 70.5t-23.5 85q-4 31 -6 67t-2 73t2 72.5t6 67.5q5 45 23.5 85t47.5 70.5t67.5 48t84.5 17.5z" />
    <glyph glyph-name="one" unicode="1" horiz-adv-x="432" 
d="M342 700q8 0 14 -6t6 -14v-660q0 -8 -6 -14t-14 -6h-99q-8 0 -14 6t-6 14v480q0 10 -7 11.5t-12 -3.5l-155 -154q-9 -9 -21.5 -4t-12.5 20v100q0 12 2.5 22.5t13.5 21.5l150 162q7 8 19 16t31 8h111v0z" />
    <glyph glyph-name="two" unicode="2" horiz-adv-x="522" 
d="M187 486q0 -8 -6 -14t-14 -6h-95q-8 0 -14 6t-6 14v16q0 44 17 82t46 66.5t67.5 44.5t82.5 16t82.5 -16t67 -44.5t45 -66.5t16.5 -82q0 -42 -17 -80t-45 -68l-188 -199q-5 -5 -4 -12.5t14 -7.5h221q8 0 14 -6t6 -14v-95q0 -8 -6 -14t-14 -6h-392q-8 0 -14 6t-6 14v118
q0 11 3 16.5t6 8.5l259 275q8 9 18 29t10 36q0 30 -19 51.5t-53 21.5q-38 0 -60 -20t-22 -53v-17z" />
    <glyph glyph-name="three" unicode="3" horiz-adv-x="531" 
d="M176 208q0 -39 23.5 -61t63.5 -22q39 0 63 22t24 61t-24 61t-63 22h-12q-8 0 -14 6t-6 14v94q0 8 6 14t14 6h12q35 0 56.5 20.5t21.5 55.5q0 34 -21.5 54t-56.5 20q-34 0 -56 -20t-22 -54v-15q0 -8 -6 -14t-14 -6h-96q-8 0 -14 6t-6 14v15q0 44 17 82t46 66.5t68 45
t83 16.5t83 -16.5t68 -45t45.5 -66.5t16.5 -82q0 -38 -15 -72t-38 -59q-10 -10 0 -18q29 -24 46 -63t17 -81q0 -46 -17.5 -86t-48 -69.5t-71 -46.5t-86.5 -17t-86.5 17t-71 46.5t-48 69.5t-17.5 86v10q0 8 6 14t14 6h96q8 0 14 -6t6 -14v-10z" />
    <glyph glyph-name="four" unicode="4" horiz-adv-x="517" 
d="M280 251q10 0 10 10v212q0 5 -4.5 6t-6.5 -3l-115 -213q-7 -12 6 -12h110zM272 686q5 8 9 11t12 3h107q8 0 14 -6t6 -14v-419q0 -10 10 -10h37q8 0 14 -6t6 -14v-86q0 -8 -6 -14t-14 -6h-37q-10 0 -10 -10v-95q0 -8 -6 -14t-14 -6h-90q-8 0 -14 6t-6 14v95q0 10 -10 10
h-235q-8 0 -14 6t-6 14v104q0 11 5 19.5t11 18.5z" />
    <glyph glyph-name="five" unicode="5" horiz-adv-x="554" 
d="M65 188q0 10 6 15t14 5h94q8 0 14 -6t6 -14q0 -17 7.5 -29t20 -19.5t28 -11t31.5 -3.5q45 0 66.5 29.5t21.5 74.5q0 19 -4.5 39.5t-15 37t-27.5 27t-41 10.5q-23 0 -39.5 -9t-26.5 -23q-8 -11 -24 -11h-97q-8 0 -14 6t-6 14v360q0 8 6 14t14 6h361q8 0 14 -6t6 -14v-96
q0 -8 -6 -14t-14 -6h-238q-10 0 -10 -10v-93q0 -10 6 -12t13 3q10 7 27.5 12t40.5 5q45 0 83.5 -17.5t66.5 -49.5t44 -76t16 -97q0 -45 -15 -88.5t-43.5 -77t-70 -54t-94.5 -20.5q-44 0 -84 12t-70.5 37t-48.5 62t-18 88z" />
    <glyph glyph-name="six" unicode="6" horiz-adv-x="544" 
d="M276 466q46 0 86.5 -17.5t71 -48t48 -71t17.5 -86.5v-35q0 -46 -17.5 -86t-48 -69.5t-71 -46.5t-86.5 -17t-84.5 17t-67.5 46.5t-47.5 69t-23.5 84.5q-4 31 -6 68.5t-2 75.5t2 75t6 69q5 45 23 84.5t46.5 69t66.5 46.5t82 17q41 0 80 -14t69.5 -39.5t49 -61.5t18.5 -80
q0 -8 -6 -14t-14 -6h-85q-23 0 -28 20q-6 25 -26 44.5t-58 19.5q-28 0 -46.5 -12t-29.5 -33q-15 -29 -15 -72q0 -11 7.5 -14.5t15.5 1.5q10 5 30 10.5t43 5.5zM187 206q3 -39 26.5 -62.5t62.5 -23.5t62.5 23.5t26.5 62.5q1 19 0 39q-3 39 -26.5 64.5t-62.5 25.5t-62.5 -25.5
t-26.5 -64.5q-1 -20 0 -39z" />
    <glyph glyph-name="seven" unicode="7" horiz-adv-x="469" 
d="M307 555q4 10 -7 10h-255q-8 0 -14 6t-6 14v95q0 8 6 14t14 6h384q8 0 14 -6t6 -14v-120q0 -9 -5 -20l-228 -525q-7 -15 -19 -15h-107q-14 0 -17.5 8.5t-0.5 15.5z" />
    <glyph glyph-name="eight" unicode="8" horiz-adv-x="550" 
d="M276 122q44 0 70 24t26 62t-26 64t-70 26t-70 -26t-26 -64t26 -62t70 -24zM276 420q38 0 62 23.5t24 57.5q0 33 -24 55t-62 22q-37 0 -61.5 -22t-24.5 -55q0 -34 24.5 -57.5t61.5 -23.5zM450 350q27 -27 40.5 -63.5t13.5 -78.5q0 -46 -17.5 -86t-48.5 -69.5t-72.5 -46.5
t-89.5 -17t-89.5 17t-72.5 46.5t-48.5 69.5t-17.5 86q0 42 14 77.5t39 64.5q9 10 -1 22q-43 55 -43 129q0 44 17 82t46.5 66.5t69.5 45t86 16.5t86 -16.5t69 -45t46 -66.5t17 -82q0 -76 -44 -129q-5 -6 -5.5 -11t5.5 -11z" />
    <glyph glyph-name="nine" unicode="9" horiz-adv-x="543" 
d="M349 504q-3 35 -25 57t-57 22t-57 -22t-25 -57q-2 -17 -2 -28t2 -27q4 -35 25.5 -59t56.5 -24t56.5 24t25.5 59q2 16 2 27t-2 28zM262 120q35 0 60.5 14.5t36.5 49.5q8 24 8 56q0 11 -8 13.5t-16 -0.5q-11 -4 -35 -9.5t-47 -5.5q-44 0 -81.5 16.5t-66 45.5t-45.5 68
t-20 84q-1 14 -1 23.5t1 25.5q2 44 19 82t45.5 66.5t67 45t82.5 16.5q47 0 86.5 -17t68.5 -46.5t47.5 -69t23.5 -84.5q4 -32 5.5 -69t1.5 -75t-1.5 -75.5t-5.5 -68.5q-5 -45 -23.5 -84.5t-47.5 -69t-67.5 -46.5t-84.5 -17q-47 0 -87 15t-69.5 41.5t-46.5 62.5t-17 78
q0 8 6 14t14 6h81q23 0 28 -20q6 -26 26.5 -46t61.5 -20z" />
    <glyph glyph-name="colon" unicode=":" horiz-adv-x="303" 
d="M232 20q0 -8 -6 -14t-14 -6h-120q-8 0 -14 6t-6 14v120q0 8 6 14t14 6h120q8 0 14 -6t6 -14v-120zM232 360q0 -8 -6 -14t-14 -6h-120q-8 0 -14 6t-6 14v120q0 8 6 14t14 6h120q8 0 14 -6t6 -14v-120z" />
    <glyph glyph-name="semicolon" unicode=";" horiz-adv-x="304" 
d="M232 360q0 -8 -6 -14t-14 -6h-120q-8 0 -14 6t-6 14v120q0 8 6 14t14 6h120q8 0 14 -6t6 -14v-120zM92 -150q-15 0 -22 12t1 26l54 99q3 5 -0.5 9t-8.5 4h-24q-8 0 -14 6t-6 14v120q0 8 6 14t14 6h120q8 0 14 -6t6 -14v-117q0 -20 -6 -38t-16 -31l-64 -84
q-5 -7 -12 -13.5t-22 -6.5h-20z" />
    <glyph glyph-name="less" unicode="&#x3c;" horiz-adv-x="480" 
d="M415 145q15 -8 15 -21v-105q0 -12 -8 -17.5t-15 -1.5l-362 204q-7 4 -11 11t-4 21v29q0 14 4 21t11 11l362 203q7 4 15 -1.5t8 -17.5v-105q0 -12 -15 -21l-202 -101q-8 -4 0 -8z" />
    <glyph glyph-name="equal" unicode="=" horiz-adv-x="540" 
d="M70 286q-8 0 -14 6t-6 14v87q0 8 6 14t14 6h400q8 0 14 -6t6 -14v-87q0 -8 -6 -14t-14 -6h-400zM70 87q-8 0 -14 6t-6 14v87q0 8 6 14t14 6h400q8 0 14 -6t6 -14v-87q0 -8 -6 -14t-14 -6h-400z" />
    <glyph glyph-name="greater" unicode="&#x3e;" horiz-adv-x="480" 
d="M267 246q8 4 0 8l-202 101q-15 7 -15 21v105q0 12 8 17.5t15 1.5l362 -203q7 -4 11 -11t4 -21v-29q0 -14 -4 -21t-11 -11l-362 -204q-7 -4 -15 1.5t-8 17.5v105q0 13 15 21z" />
    <glyph glyph-name="question" unicode="?" horiz-adv-x="483" 
d="M313 506q0 32 -20.5 51t-50.5 19q-34 0 -53 -22t-19 -51v-17q0 -8 -6 -14t-14 -6h-100q-8 0 -14 6t-6 14v15q0 44 17 83t45.5 68t67 46t82.5 17t82.5 -15t67 -42t45 -64t16.5 -81q0 -31 -9 -57.5t-23 -48.5t-31.5 -39t-33.5 -29q-14 -11 -23 -20t-14 -19t-7 -22.5
t-2 -30.5v-10q0 -8 -6 -14t-14 -6h-100q-8 0 -14 6t-6 14v10q0 12 -0.5 26.5t2 31t8.5 33.5t18 33q17 21 39 35.5t38 29.5t27 34t11 36zM320 20q0 -8 -6 -14t-14 -6h-120q-8 0 -14 6t-6 14v120q0 8 6 14t14 6h120q8 0 14 -6t6 -14v-120z" />
    <glyph glyph-name="at" unicode="@" horiz-adv-x="835" 
d="M492 310q0 41 -20.5 56.5t-47.5 15.5q-33 0 -55.5 -31t-22.5 -82q0 -46 18.5 -77.5t59.5 -31.5q26 0 47 14.5t21 42.5v93zM530 23q10 5 17 0t7 -15v-48q0 -12 -7.5 -17.5t-16.5 -10.5q-16 -9 -46.5 -15.5t-59.5 -6.5q-89 0 -156.5 28.5t-114 77t-70 114t-23.5 140.5
q0 79 27.5 146.5t76 117t115.5 78t146 28.5q82 0 147 -26t110 -71.5t69 -107.5t24 -135q0 -51 -10 -93.5t-29 -72.5t-45.5 -47t-60.5 -17q-25 0 -40.5 5t-30.5 15q-13 8 -28 8.5t-29 -8.5q-16 -9 -35.5 -14.5t-42.5 -5.5q-50 0 -85.5 16t-57.5 43t-32 63t-10 77
q0 43 13 80.5t37 65t58 43t77 15.5q35 0 65 -10.5t52.5 -29t35 -45t12.5 -58.5v-120q0 -23 12.5 -31.5t23.5 -8.5q12 0 21 6.5t15.5 21.5t10 40t3.5 62q0 58 -18 104t-51 78t-79 49t-102 17q-53 0 -100 -19.5t-82.5 -55.5t-56.5 -87.5t-21 -116.5q0 -59 19 -108t53.5 -84
t82 -55t104.5 -20q29 0 55.5 5t50.5 16z" />
    <glyph glyph-name="A" unicode="A" horiz-adv-x="537" 
d="M314 273q11 0 8 11l-48 240q-1 4 -5 4h-2q-4 0 -5 -4l-48 -240q-3 -11 8 -11h92zM358 118q-2 6 -5 10.5t-10 4.5h-152q-12 0 -15 -15l-28 -103q-3 -15 -19 -15h-105q-12 0 -17 6.5t-3 13.5l179 665q3 15 19 15h134q16 0 19 -15l178 -665q2 -7 -3 -13.5t-17 -6.5h-105
q-14 0 -19 15z" />
    <glyph glyph-name="B" unicode="B" horiz-adv-x="551" 
d="M212 291q-10 0 -10 -10v-131q0 -10 10 -10h104q32 0 51 23t19 53q0 29 -19 52t-51 23h-104zM321 700q42 0 78 -16t62.5 -43.5t41.5 -65t15 -79.5q0 -33 -14.5 -68.5t-36.5 -57.5q-10 -10 0 -18q12 -11 23 -26t19 -33t12.5 -38t4.5 -39q0 -49 -14.5 -89t-41.5 -68
t-65 -43.5t-84 -15.5h-236q-8 0 -14 6t-6 14v660q0 8 6 14t14 6h236zM316 431q26 0 46 19.5t20 45.5t-20 45t-46 19h-104q-10 0 -10 -10v-109q0 -10 10 -10h104z" />
    <glyph glyph-name="C" unicode="C" horiz-adv-x="569" 
d="M529 217q0 -50 -18 -92t-49.5 -72t-75 -47t-95.5 -17t-93.5 17.5t-72 48t-49 70.5t-23.5 85q-4 31 -6 67t-2 73t2 72.5t6 67.5q5 45 23.5 85t49 70.5t72 48t93.5 17.5t95.5 -17t75 -47t49.5 -72t18 -92v-1q0 -8 -6 -14t-14 -6h-100q-8 0 -14 6t-6 14v1q0 15 -6.5 30.5
t-19 28t-30.5 20.5t-42 8q-46 0 -69.5 -23.5t-27.5 -56.5q-4 -32 -6 -67.5t-2 -72.5t2 -73t6 -67q4 -33 27.5 -56.5t69.5 -23.5q22 0 40 7.5t31 19.5t20 27.5t7 31.5v1q0 8 6 14.5t14 6.5h100q8 0 14 -6t6 -14v-1z" />
    <glyph glyph-name="D" unicode="D" horiz-adv-x="571" 
d="M215 560q-10 0 -10 -10v-400q0 -10 10 -10h80q35 0 56.5 24t25.5 57q8 63 8 129t-8 129q-4 33 -25.5 57t-56.5 24h-80zM295 700q46 0 84.5 -17.5t67.5 -48t47.5 -70.5t23.5 -85q8 -63 8 -129t-8 -129q-5 -45 -23.5 -85t-47.5 -70.5t-67.5 -48t-84.5 -17.5h-210
q-8 0 -14 6t-6 14v660q0 8 6 14t14 6h210z" />
    <glyph glyph-name="E" unicode="E" horiz-adv-x="512" 
d="M205 150q0 -10 10 -10h237q8 0 14 -6t6 -14v-100q0 -8 -6 -14t-14 -6h-367q-8 0 -14 6t-6 14v660q0 8 6 14t14 6h363q8 0 14 -6t6 -14v-100q0 -8 -6 -14t-14 -6h-233q-10 0 -10 -10v-120q0 -10 10 -10h225q8 0 14 -6t6 -14v-100q0 -8 -6 -14t-14 -6h-225q-10 0 -10 -10
v-120z" />
    <glyph glyph-name="F" unicode="F" horiz-adv-x="475" 
d="M215 280q-10 0 -10 -10v-250q0 -8 -6 -14t-14 -6h-100q-8 0 -14 6t-6 14v660q0 8 6 14t14 6h350q8 0 14 -6t6 -14v-100q0 -8 -6 -14t-14 -6h-220q-10 0 -10 -10v-120q0 -10 10 -10h210q8 0 14 -6t6 -14v-100q0 -8 -6 -14t-14 -6h-210v0z" />
    <glyph glyph-name="G" unicode="G" horiz-adv-x="572" 
d="M392 251q0 10 -10 10h-68q-8 0 -14 6t-6 14v95q0 8 6 14t14 6h195q8 0 14 -6t6 -14v-168q0 -45 -18 -85t-49.5 -69.5t-75.5 -47t-95 -17.5q-52 0 -93.5 17.5t-72 48t-49 70.5t-23.5 85q-4 31 -6 67t-2 73t2 72.5t6 67.5q5 45 23.5 85t49 70.5t72 48t93.5 17.5t95.5 -17
t75 -47t49.5 -72t18 -92v-1q0 -8 -6 -14t-14 -6h-100q-8 0 -14 6t-6 14v1q0 15 -6.5 30.5t-19 28t-30.5 20.5t-42 8q-46 0 -69.5 -23.5t-27.5 -56.5q-4 -32 -6 -67.5t-2 -72.5t2 -73t6 -67q4 -33 27.5 -56.5t69.5 -23.5q45 0 73 22t28 56v43z" />
    <glyph glyph-name="H" unicode="H" horiz-adv-x="582" 
d="M377 680q0 8 6 14t14 6h100q8 0 14 -6t6 -14v-660q0 -8 -6 -14t-14 -6h-100q-8 0 -14 6t-6 14v250q0 10 -10 10h-152q-10 0 -10 -10v-250q0 -8 -8.5 -14t-16.5 -6h-95q-8 0 -14 6t-6 14v660q0 8 6 14t14 6h100q8 0 14 -6t6 -14v-250q0 -10 10 -10h152q10 0 10 10v250v0z
" />
    <glyph glyph-name="I" unicode="I" 
d="M205 20q0 -8 -6 -14t-14 -6h-100q-8 0 -14 6t-6 14v660q0 8 6 14t14 6h100q8 0 14 -6t6 -14v-660z" />
    <glyph glyph-name="J" unicode="J" horiz-adv-x="522" 
d="M5 239q0 8 6 14t14 6h101q8 0 14 -6t6 -14v-28q0 -34 24.5 -57.5t66.5 -23.5q41 0 65.5 24.5t24.5 66.5v459q0 8 6 14t14 6h101q8 0 14 -6t6 -14v-469q0 -46 -16.5 -86.5t-46.5 -70.5t-73 -47.5t-95 -17.5q-50 0 -92 17.5t-73.5 47.5t-49 70.5t-17.5 86.5v28z" />
    <glyph glyph-name="K" unicode="K" horiz-adv-x="551" 
d="M214 285q-2 3 -6 2.5t-4 -5.5v-262q0 -8 -6 -14t-14 -6h-99q-8 0 -14 6t-6 14v660q0 8 6 14t14 6h99q8 0 14 -6t6 -14v-230q0 -5 4 -5.5t6 2.5l165 243q2 3 6.5 6.5t15.5 3.5h101q14 0 19.5 -12.5t-2.5 -23.5l-187 -276q-7 -10 -6.5 -17t6.5 -16l205 -317
q7 -11 1.5 -24.5t-22.5 -13.5h-108q-11 0 -16 4t-7 8z" />
    <glyph glyph-name="L" unicode="L" horiz-adv-x="455" 
d="M205 150q0 -10 10 -10h210q8 0 14 -6t6 -14v-100q0 -8 -6 -14t-14 -6h-340q-8 0 -14 6t-6 14v660q0 8 6 14t14 6h100q8 0 14 -6t6 -14v-530z" />
    <glyph glyph-name="M" unicode="M" horiz-adv-x="727" 
d="M356 245q2 -5 6 -5t6 5l106 438q4 17 21 17h147q8 0 14 -6t6 -14v-660q0 -8 -6 -14t-14 -6h-88q-8 0 -14 6t-6 14v377q0 5 -3.5 6t-5.5 -4l-102 -382q-4 -17 -21 -17h-79q-17 0 -21 17l-100 382q-2 5 -5.5 4t-3.5 -6v-377q0 -8 -6 -14t-14 -6h-88q-8 0 -14 6t-6 14v660
q0 8 6 14t14 6h148q17 0 21 -17z" />
    <glyph glyph-name="N" unicode="N" horiz-adv-x="580" 
d="M377 0q-13 0 -19 5.5t-8 11.5l-136 351q-2 5 -5.5 4t-3.5 -6v-346q0 -8 -6 -14t-14 -6h-100q-8 0 -14 6t-6 14v660q0 8 6 14t14 6h119q11 0 17 -5.5t8 -12.5l137 -380q2 -5 5.5 -4t3.5 6v376q0 8 6 14t14 6h100q8 0 14 -6t6 -14v-660q0 -8 -6 -14t-14 -6h-118z" />
    <glyph glyph-name="O" unicode="O" horiz-adv-x="582" 
d="M291 130q46 0 69.5 23.5t27.5 56.5q4 31 5.5 67t1.5 73t-1.5 72.5t-5.5 67.5q-4 33 -27.5 56.5t-69.5 23.5t-69.5 -23.5t-27.5 -56.5q-4 -32 -6 -67.5t-2 -72.5t2 -73t6 -67q4 -33 27.5 -56.5t69.5 -23.5zM291 711q52 0 93.5 -17.5t72 -48t49 -70.5t23.5 -85
q4 -32 5.5 -67.5t1.5 -72.5t-1.5 -73t-5.5 -67q-5 -45 -23.5 -85t-49 -70.5t-72 -48t-93.5 -17.5t-93.5 17.5t-72 48t-49 70.5t-23.5 85q-4 31 -6 67t-2 73t2 72.5t6 67.5q5 45 23.5 85t49 70.5t72 48t93.5 17.5z" />
    <glyph glyph-name="P" unicode="P" horiz-adv-x="525" 
d="M305 700q43 0 81.5 -16.5t67 -45t45 -67t16.5 -81.5q0 -44 -16.5 -82t-45 -66.5t-67 -45t-81.5 -16.5h-90q-10 0 -10 -10v-250q0 -8 -6 -14t-14 -6h-100q-8 0 -14 6t-6 14v660q0 8 6 14t14 6h220zM215 560q-10 0 -10 -10v-120q0 -10 10 -10h90q29 0 49.5 20.5t20.5 49.5
t-20.5 49.5t-49.5 20.5h-90z" />
    <glyph glyph-name="Q" unicode="Q" horiz-adv-x="582" 
d="M291 130q46 0 69.5 23.5t27.5 56.5q4 31 5.5 67t1.5 73t-1.5 72.5t-5.5 67.5q-4 33 -27.5 56.5t-69.5 23.5t-69.5 -23.5t-27.5 -56.5q-4 -32 -6 -67.5t-2 -72.5t2 -73t6 -67q4 -33 27.5 -56.5t69.5 -23.5zM461 57q-5 -5 -6.5 -9.5t2.5 -12.5l45 -89q5 -11 1.5 -23.5
t-25.5 -12.5h-92q-13 0 -18.5 6.5t-11.5 17.5l-23 45q-3 5 -6.5 7.5t-11.5 2.5h-24q-52 0 -93.5 17.5t-72 48t-49 70.5t-23.5 85q-4 31 -6 67t-2 73t2 72.5t6 67.5q5 45 23.5 85t49 70.5t72 48t93.5 17.5t93.5 -17.5t72 -48t49 -70.5t23.5 -85q4 -32 5.5 -67.5t1.5 -72.5
t-1.5 -73t-5.5 -67q-5 -44 -23.5 -85.5t-44.5 -67.5z" />
    <glyph glyph-name="R" unicode="R" horiz-adv-x="560" 
d="M215 280q-10 0 -10 -10v-250q0 -8 -6 -14t-14 -6h-100q-8 0 -14 6t-6 14v660q0 8 6 14t14 6h220q43 0 81.5 -16.5t67 -45t45 -67t16.5 -81.5q0 -58 -25 -99.5t-79 -77.5q-11 -8 -11 -15t5 -18l107 -250q5 -11 0.5 -20.5t-19.5 -9.5h-103q-12 0 -18.5 5.5t-10.5 14.5
l-102 247q-2 4 -6 8.5t-12 4.5h-26zM215 560q-10 0 -10 -10v-120q0 -10 10 -10h90q29 0 49.5 20.5t20.5 49.5t-20.5 49.5t-49.5 20.5h-90z" />
    <glyph glyph-name="S" unicode="S" horiz-adv-x="542" 
d="M367 208q0 32 -23.5 49.5t-80.5 30.5q-47 10 -88 26.5t-71 41.5t-47.5 60.5t-17.5 83.5q0 44 17 82.5t48 67t72.5 45t91.5 16.5t92.5 -16.5t73 -45t47.5 -67t17 -82.5v-15q0 -8 -6 -14t-14 -6h-101q-8 0 -14 6t-6 14v15q0 30 -23 52.5t-66 22.5q-42 0 -64.5 -20
t-22.5 -50q0 -29 25 -46.5t64 -25.5q52 -11 96.5 -27.5t76.5 -43t50.5 -64.5t18.5 -90q0 -49 -18 -89t-50.5 -69t-77.5 -45t-98 -16q-52 0 -95.5 17t-75 46.5t-49.5 69.5t-18 86v30q0 8 6 14t14 6h101q8 0 14 -6t6 -14v-30q0 -35 25 -58.5t72 -23.5q45 0 72 23.5t27 58.5z
" />
    <glyph glyph-name="T" unicode="T" horiz-adv-x="454" 
d="M307 560q-10 0 -10 -10v-530q0 -8 -6 -14t-14 -6h-100q-8 0 -14 6t-6 14v530q0 10 -10 10h-125q-8 0 -14 6t-6 14v100q0 8 6 14t14 6h410q8 0 14 -6t6 -14v-100q0 -8 -6 -14t-14 -6h-125v0z" />
    <glyph glyph-name="U" unicode="U" horiz-adv-x="582" 
d="M528 210q0 -45 -18 -85.5t-49.5 -70.5t-75 -47.5t-95.5 -17.5q-51 0 -94.5 17.5t-75 47.5t-49 70.5t-17.5 85.5v470q0 8 6 14t14 6h101q8 0 14 -6t6 -14v-470q0 -33 25 -56.5t70 -23.5q46 0 71.5 23.5t25.5 56.5v470q0 8 6 14t14 6h101q8 0 14 -6t6 -14v-470z" />
    <glyph glyph-name="V" unicode="V" horiz-adv-x="547" 
d="M368 15q-5 -15 -19 -15h-151q-15 0 -19 15l-173 661q-2 8 2.5 16t16.5 8h110q16 0 19 -15l110 -469q2 -7 7 -7h6q5 0 7 7l109 469q3 15 19 15h110q12 0 16.5 -8t2.5 -16z" />
    <glyph glyph-name="W" unicode="W" horiz-adv-x="757" 
d="M317 15q-3 -15 -19 -15h-139q-16 0 -19 15l-134 665q-2 8 3 14t17 6h100q16 0 19 -15l82 -441q1 -7 7 -7h6q6 0 7 7l67 441q3 15 19 15h90q16 0 19 -15l68 -441q1 -7 7 -7h6q6 0 7 7l82 441q3 15 19 15h100q12 0 17 -6t3 -14l-135 -665q-3 -15 -19 -15h-139q-16 0 -19 15
l-55 325q-1 6 -6 6t-6 -6l-55 -325v0z" />
    <glyph glyph-name="X" unicode="X" horiz-adv-x="542" 
d="M172 15q-5 -15 -21 -15h-118q-10 0 -15.5 8.5t-0.5 19.5l147 333q3 7 3 10.5t-3 11.5l-130 289q-5 11 0.5 19.5t15.5 8.5h113q12 0 19 -15l83 -207q2 -5 6 -5t6 5l83 207q7 15 19 15h113q10 0 15.5 -8.5t0.5 -19.5l-130 -290q-3 -8 -3 -11.5t3 -10.5l147 -332
q5 -11 -0.5 -19.5t-15.5 -8.5h-118q-16 0 -21 15l-93 237q-2 5 -6 5t-6 -5z" />
    <glyph glyph-name="Y" unicode="Y" horiz-adv-x="518" 
d="M253 408q2 -5 6 -5t6 5l96 277q5 15 19 15h110q10 0 15.5 -8.5t0.5 -19.5l-177 -446v-206q0 -8 -6 -14t-14 -6h-100q-8 0 -14 6t-6 14v206l-177 446q-5 11 0.5 19.5t15.5 8.5h110q14 0 19 -15z" />
    <glyph glyph-name="Z" unicode="Z" horiz-adv-x="522" 
d="M198 147q-2 -4 -0.5 -7t6.5 -3h264q8 0 14 -6t6 -14v-97q0 -8 -6 -14t-14 -6h-414q-8 0 -14 6t-6 14v119q0 8 5 16l276 398q2 4 0.5 7t-6.5 3h-240q-8 0 -14 6t-6 14v97q0 8 6 14t14 6h389q8 0 14 -6t6 -14v-116q0 -8 -5 -16z" />
    <glyph glyph-name="bracketleft" unicode="[" horiz-adv-x="332" 
d="M192 42q0 -10 10 -10h90q8 0 14 -6t6 -14v-82q0 -8 -6 -14t-14 -6h-202q-8 0 -14 6t-6 14v770q0 8 6 14t14 6h202q8 0 14 -6t6 -14v-82q0 -8 -6 -14t-14 -6h-90q-10 0 -10 -10v-546z" />
    <glyph glyph-name="backslash" unicode="\" horiz-adv-x="476" 
d="M49 682q-5 11 0.5 19.5t15.5 8.5h92q14 0 19 -15l266 -679q5 -11 -0.5 -19.5t-15.5 -8.5h-92q-16 0 -21 15z" />
    <glyph glyph-name="bracketright" unicode="]" horiz-adv-x="332" 
d="M130 32q10 0 10 10v546q0 10 -10 10h-90q-8 0 -14 6t-6 14v82q0 8 6 14t14 6h202q8 0 14 -6t6 -14v-770q0 -8 -6 -14t-14 -6h-202q-8 0 -14 6t-6 14v82q0 8 6 14t14 6h90z" />
    <glyph glyph-name="asciicircum" unicode="^" horiz-adv-x="513" 
d="M221 586q-4 -5 -12 -10.5t-19 -5.5h-95q-13 0 -14.5 10t3.5 15l119 123q5 5 10.5 8.5t19.5 3.5h62q13 0 18.5 -3.5t10.5 -8.5l119 -123q5 -5 3 -15t-16 -10h-94q-11 0 -19 5.5t-12 10.5l-35 44q-7 10 -14 0z" />
    <glyph glyph-name="underscore" unicode="_" horiz-adv-x="637" 
d="M597 0q8 0 14 -6t6 -14v-59q0 -8 -6 -14t-14 -6h-557q-8 0 -14 6t-6 14v59q0 8 6 14t14 6h557z" />
    <glyph glyph-name="grave" unicode="`" horiz-adv-x="361" 
d="M175 730q11 0 16.5 -5.5t9.5 -10.5l82 -114q9 -12 3 -21t-16 -9h-69q-14 0 -19.5 3.5t-10.5 8.5l-115 121q-8 9 -5 18t17 9h107z" />
    <glyph glyph-name="a" unicode="a" horiz-adv-x="512" 
d="M216 204q-16 0 -26 -5.5t-15.5 -13.5t-7.5 -16.5t-2 -14.5q0 -28 19.5 -40.5t46.5 -12.5q43 0 72 15t29 54v24q0 10 -10 10h-106zM250 397q-8 0 -18.5 -1.5t-21 -5.5t-18.5 -11.5t-11 -19.5q-3 -13 -8 -16t-19 -3h-72q-8 0 -14 6t-6 14q0 30 13.5 57t38 48t60.5 33.5
t81 12.5q91 0 145.5 -46.5t54.5 -134.5v-310q0 -8 -6 -14t-14 -6h-50q-8 0 -14 7q-5 6 -7.5 13t-12.5 7q-7 0 -16 -6t-23 -13t-33.5 -13t-47.5 -6q-88 0 -138 43t-50 122q0 26 10.5 53.5t32 50.5t54 37.5t75.5 14.5h102q10 0 10 10v16q0 31 -22 46t-55 15z" />
    <glyph glyph-name="b" unicode="b" horiz-adv-x="520" 
d="M194 325q-1 -15 -1.5 -34.5t-0.5 -40.5t0.5 -40.5t1.5 -34.5q2 -26 20.5 -43t55.5 -17q36 0 54.5 17.5t20.5 42.5q1 15 1.5 34.5t0.5 40.5t-0.5 40.5t-1.5 34.5q-2 25 -20.5 42.5t-54.5 17.5q-37 0 -55.5 -15.5t-20.5 -44.5zM285 -11q-28 0 -44.5 5.5t-28 11.5
t-19.5 11.5t-19 5.5q-8 0 -14 -5.5t-11 -10.5q-7 -7 -14 -7h-50q-8 0 -14 6t-6 14v670q0 8 6 14t14 6h90q8 0 14 -6t6 -14v-170q0 -17 9.5 -21.5t20.5 0.5t24 8.5t36 3.5q39 0 72.5 -14.5t58.5 -39.5t40.5 -59t18.5 -73q1 -15 1.5 -34.5t0.5 -40.5t-0.5 -40.5t-1.5 -34.5
q-3 -39 -18.5 -73t-40.5 -59t-58.5 -39.5t-72.5 -14.5z" />
    <glyph glyph-name="c" unicode="c" horiz-adv-x="498" 
d="M333 189q3 16 19 16h89q8 0 12.5 -6t4.5 -14q0 -46 -16.5 -82t-44.5 -61.5t-65 -39t-78 -13.5q-46 0 -82.5 14.5t-63 39.5t-42 59t-20.5 73q-2 15 -3 34.5t-1 40.5t1 40.5t3 34.5q5 39 20.5 73t42 59t63 39.5t82.5 14.5q41 0 78 -13t65 -38.5t44.5 -62t16.5 -82.5
q0 -8 -4.5 -14t-12.5 -6h-89q-7 0 -12.5 4t-6.5 12q-2 37 -23.5 53.5t-56.5 16.5q-38 0 -55.5 -13.5t-21.5 -42.5q-2 -15 -3 -34.5t-1 -40.5t1 -40.5t3 -34.5q3 -26 21.5 -41t56.5 -15q33 0 53 14.5t26 55.5z" />
    <glyph glyph-name="d" unicode="d" horiz-adv-x="520" 
d="M175 325q-1 -15 -1.5 -34.5t-0.5 -40.5t0.5 -40.5t1.5 -34.5q2 -25 20.5 -42.5t54.5 -17.5q37 0 55.5 17t20.5 43q1 15 1.5 34.5t0.5 40.5t-0.5 40.5t-1.5 34.5q-2 29 -20.5 44.5t-55.5 15.5q-36 0 -54.5 -17.5t-20.5 -42.5zM235 -11q-39 0 -72.5 14.5t-58.5 39.5
t-40.5 59t-18.5 73q-1 15 -1.5 34.5t-0.5 40.5t0.5 40.5t1.5 34.5q3 39 18.5 73t40.5 59t58.5 39.5t72.5 14.5q23 0 36 -3.5t24 -8.5t20.5 -0.5t9.5 21.5v170q0 8 6 14t14 6h90q8 0 14 -6t6 -14v-670q0 -8 -6 -14t-14 -6h-50q-7 0 -14 7q-5 5 -11 10.5t-14 5.5
q-11 0 -19 -5.5t-19.5 -11.5t-28 -11.5t-44.5 -5.5z" />
    <glyph glyph-name="e" unicode="e" horiz-adv-x="499" 
d="M253 393q-43 0 -65 -17t-22 -46q0 -9 10 -9h152q10 0 10 9q0 16 -7 28t-19 19.5t-27.5 11.5t-31.5 4zM180 210q-15 0 -15 -15q0 -42 26 -63.5t62 -21.5q29 0 49 9t30 33q7 17 23 17h83q8 0 14 -5t3 -17q-17 -70 -67.5 -114t-134.5 -44q-46 0 -82 14.5t-62.5 39.5t-42 59
t-20.5 73q-2 15 -3 34.5t-1 40.5t1 40.5t3 34.5q5 39 20.5 73t42 59t62.5 39.5t82 14.5q45 0 82.5 -13t64.5 -38.5t42 -62t15 -84.5v-83q0 -8 -6 -14t-14 -6h-257z" />
    <glyph glyph-name="f" unicode="f" horiz-adv-x="405" 
d="M305 580q-25 0 -42.5 -15t-17.5 -40v-18q0 -10 10 -10h120q8 0 14 -6t6 -14v-80q0 -8 -6 -14t-14 -6h-120q-10 0 -10 -10v-347q0 -8 -6 -14t-14 -6h-90q-8 0 -14 6t-6 14v347q0 10 -10 10h-80q-8 0 -14 6t-6 14v80q0 8 6 14t14 6h80q10 0 10 10v20q0 39 15 72.5t41 58
t60.5 38.5t73.5 14h60q8 0 14 -6t6 -14v-90q0 -8 -6 -14t-14 -6h-60z" />
    <glyph glyph-name="g" unicode="g" horiz-adv-x="517" 
d="M326 175q1 15 1.5 34.5t0.5 40.5t-0.5 40.5t-1.5 34.5q-2 29 -20.5 44.5t-55.5 15.5q-36 0 -54.5 -17.5t-20.5 -42.5q-1 -15 -1.5 -34.5t-0.5 -40.5t0.5 -40.5t1.5 -34.5q2 -25 20.5 -42.5t54.5 -17.5q37 0 55.5 17t20.5 43zM235 511q28 0 44.5 -5.5t28 -11.5t19.5 -11.5
t19 -5.5q8 0 14 5.5t11 10.5q7 7 14 7h50q8 0 14 -6t6 -14v-510q0 -38 -15 -71.5t-41 -59t-62.5 -40t-78.5 -14.5q-40 0 -75.5 12t-62.5 34t-43 52.5t-16 66.5q0 8 6 14t14 6h75q18 0 21 -6t5 -17q4 -18 22 -30.5t48 -12.5q28 0 50.5 16.5t22.5 49.5v10q0 32 -30 21
q-11 -4 -24 -8t-36 -4q-39 0 -72.5 14.5t-58.5 39.5t-40.5 59t-18.5 73q-1 15 -1.5 34.5t-0.5 40.5t0.5 40.5t1.5 34.5q3 39 18.5 73t40.5 59t58.5 39.5t72.5 14.5z" />
    <glyph glyph-name="h" unicode="h" horiz-adv-x="530" 
d="M345 325q0 25 -19.5 42.5t-55.5 17.5t-55.5 -17.5t-19.5 -42.5v-305q0 -8 -6 -14t-14 -6h-90q-8 0 -14 6t-6 14v670q0 8 6 14t14 6h90q8 0 14 -6t6 -14v-170q0 -13 8 -19.5t22 -1.5q11 4 24 8t36 4q39 0 74 -14.5t60.5 -39.5t40.5 -59t15 -73v-305q0 -8 -6 -14t-14 -6
h-90q-8 0 -14 6t-6 14v305z" />
    <glyph glyph-name="i" unicode="i" horiz-adv-x="260" 
d="M200 586q0 -16 -16 -16h-108q-16 0 -16 16v108q0 6 4.5 11t11.5 5h108q7 0 11.5 -5t4.5 -11v-108zM195 16q0 -6 -4.5 -11t-11.5 -5h-98q-7 0 -11.5 5t-4.5 11v468q0 6 4.5 11t11.5 5h98q7 0 11.5 -5t4.5 -11v-468z" />
    <glyph glyph-name="j" unicode="j" horiz-adv-x="260" 
d="M60 480q0 8 6 14t14 6h90q8 0 14 -6t6 -14v-510q0 -38 -15 -71.5t-41 -59t-62.5 -40t-78.5 -14.5h-48q-8 0 -14 6t-6 14v79q0 8 6 14t14 6h42q28 0 50.5 16.5t22.5 49.5v510zM195 586q0 -16 -16 -16h-108q-16 0 -16 16v108q0 6 4.5 11t11.5 5h108q7 0 11.5 -5t4.5 -11
v-108z" />
    <glyph glyph-name="k" unicode="k" horiz-adv-x="491" 
d="M312 282q-7 -8 -7 -14t8 -16l163 -219q8 -11 3 -22t-19 -11h-104q-11 0 -17 5t-9 10l-125 173q-2 3 -6 2.5t-4 -5.5v-165q0 -8 -6 -14t-14 -6h-90q-8 0 -14 6t-6 14v670q0 8 6 14t14 6h90q8 0 14 -6t6 -14v-349q0 -5 4 -5.5t6 2.5l116 149q3 5 8.5 9t16.5 4h99
q16 0 19.5 -12.5t-3.5 -20.5z" />
    <glyph glyph-name="l" unicode="l" horiz-adv-x="260" 
d="M195 20q0 -8 -6 -14t-14 -6h-90q-8 0 -14 6t-6 14v670q0 8 6 14t14 6h90q8 0 14 -6t6 -14v-670z" />
    <glyph glyph-name="m" unicode="m" horiz-adv-x="770" 
d="M590 326q0 25 -16.5 42t-48.5 17t-51 -17.5t-19 -42.5v-305q0 -8 -6 -14t-14 -6h-90q-8 0 -14 6t-6 14v306q0 25 -16.5 42t-48.5 17t-51 -16t-19 -39v-310q0 -8 -6 -14t-14 -6h-90q-8 0 -14 6t-6 14v460q0 8 6 14t14 6h50q11 0 18 -7q6 -6 11 -12.5t16 -6.5t21 6t22 12.5
t27 12.5t37 6q35 0 58 -11t43 -26q21 -16 45 0q20 14 46 25.5t61 11.5q39 0 73 -14.5t59 -39.5t39 -59t14 -73v-305q0 -8 -6 -14t-14 -6h-90q-8 0 -14 6t-6 14v306z" />
    <glyph glyph-name="n" unicode="n" horiz-adv-x="525" 
d="M470 20q0 -8 -6 -14t-14 -6h-90q-8 0 -14 6t-6 14v306q0 25 -19.5 42t-55.5 17q-35 0 -55 -16t-20 -39v-310q0 -8 -6 -14t-14 -6h-90q-8 0 -14 6t-6 14v460q0 8 6 14t14 6h50q11 0 18 -7q6 -5 11 -11t16 -6t21 5.5t22.5 12t28 12t38.5 5.5q39 0 73 -14.5t59 -39.5t39 -59
t14 -73v-305z" />
    <glyph glyph-name="o" unicode="o" horiz-adv-x="507" 
d="M176 325q-2 -15 -3.5 -34.5t-1.5 -40.5t1.5 -40.5t3.5 -34.5q4 -26 21.5 -41t55.5 -15t56 15.5t22 40.5q2 15 3 34.5t1 40.5t-1 40.5t-3 34.5q-4 25 -22 40.5t-56 15.5t-55 -13.5t-22 -42.5zM46 175q-2 15 -3 34.5t-1 40.5t1 40.5t3 34.5q5 39 20.5 73t42 59t62.5 39.5
t82 14.5t82.5 -14.5t62.5 -39.5t42 -59t21 -73q2 -15 3 -34.5t1 -40.5t-1 -40.5t-3 -34.5q-5 -39 -20.5 -73t-42 -59t-62.5 -39.5t-82 -14.5t-82.5 14.5t-63 39.5t-42 59t-20.5 73z" />
    <glyph glyph-name="p" unicode="p" horiz-adv-x="515" 
d="M340 175q1 15 1.5 34.5t0.5 40.5t-0.5 40.5t-1.5 34.5q-2 25 -20.5 42.5t-54.5 17.5q-37 0 -55.5 -17t-20.5 -43q-1 -15 -1.5 -34.5t-0.5 -40.5t0.5 -40.5t1.5 -34.5q2 -29 20.5 -44.5t55.5 -15.5q36 0 54.5 17.5t20.5 42.5zM280 511q39 0 72.5 -14.5t58.5 -39.5
t40.5 -59t18.5 -73q1 -15 1.5 -34.5t0.5 -40.5t-0.5 -40.5t-1.5 -34.5q-3 -39 -18.5 -73t-40.5 -59t-58.5 -39.5t-72.5 -14.5q-23 0 -36 3.5t-24 8.5t-20.5 0.5t-9.5 -21.5v-160q0 -8 -6 -14t-14 -6h-90q-8 0 -14 6t-6 14v660q0 8 6 14t14 6h50q7 0 14 -7q5 -5 11 -10.5
t14 -5.5q11 0 19 5.5t19.5 11.5t28 11.5t44.5 5.5z" />
    <glyph glyph-name="q" unicode="q" horiz-adv-x="523" 
d="M334 175q1 15 1.5 34.5t0.5 40.5t-0.5 40.5t-1.5 34.5q-2 26 -20.5 43t-55.5 17q-36 0 -54.5 -17.5t-20.5 -42.5q-1 -15 -1.5 -34.5t-0.5 -40.5t0.5 -40.5t1.5 -34.5q2 -25 20.5 -42.5t54.5 -17.5q37 0 55.5 15.5t20.5 44.5zM243 511q28 0 44.5 -5.5t28 -11.5t19.5 -11.5
t19 -5.5q8 0 14 5.5t11 10.5q7 7 14 7h50q8 0 14 -6t6 -14v-660q0 -8 -6 -14t-14 -6h-90q-8 0 -14 6t-6 14v160q0 17 -9.5 21.5t-20.5 -0.5t-24 -8.5t-36 -3.5q-39 0 -72.5 14.5t-58.5 39.5t-40.5 59t-18.5 73q-1 15 -1.5 34.5t-0.5 40.5t0.5 40.5t1.5 34.5q3 39 18.5 73
t40.5 59t58.5 39.5t72.5 14.5z" />
    <glyph glyph-name="r" unicode="r" horiz-adv-x="380" 
d="M320 380q-57 0 -93.5 -30t-36.5 -91v-239q0 -8 -6 -14t-14 -6h-90q-8 0 -14 6t-6 14v460q0 8 6 14t14 6h50q6 0 12.5 -3.5t8.5 -9.5q5 -13 9.5 -27.5t17.5 -14.5q12 0 21.5 8.5t24.5 19t37.5 19t59.5 8.5h34q8 0 14 -6t6 -14v-80q0 -8 -6 -14t-14 -6h-35z" />
    <glyph glyph-name="s" unicode="s" horiz-adv-x="490" 
d="M444 350q0 -8 -6 -14t-14 -6h-75q-8 0 -14.5 4.5t-8.5 20.5q-4 25 -28 35.5t-52 10.5q-34 0 -57 -10t-23 -31q0 -11 6.5 -18t18 -11t26 -6.5t29.5 -5.5q33 -6 70 -14t68.5 -24.5t52.5 -47t21 -81.5q0 -37 -17 -67t-46 -51.5t-67.5 -33t-81.5 -11.5q-41 0 -79.5 9.5
t-68.5 30.5t-48 54.5t-18 80.5q0 8 6 14t14 6h76q18 0 23 -6t7 -19q3 -29 28 -40.5t60 -11.5q41 0 66.5 12t25.5 35q0 13 -8 21t-21 12.5t-29.5 7.5t-33.5 5q-31 4 -66 13t-65 27t-50 47t-20 73q0 33 18 61t46.5 48t64.5 31t72 11q34 0 69 -9t63.5 -28t47 -50t18.5 -74z" />
    <glyph glyph-name="t" unicode="t" horiz-adv-x="403" 
d="M363 497q8 0 14 -6t6 -14v-80q0 -8 -6 -14t-14 -6h-110q-10 0 -10 -10v-182q0 -25 16.5 -42.5t43.5 -17.5h70q8 0 14 -6t6 -14v-85q0 -8 -6 -14t-14 -6h-70q-86 0 -138 48.5t-52 134.5v184q0 10 -10 10h-78q-8 0 -14 6t-6 14v80q0 8 6 14t14 6h78q10 0 10 10v153
q0 8 6 14t14 6h90q8 0 14 -6t6 -14v-153q0 -10 10 -10h110z" />
    <glyph glyph-name="u" unicode="u" horiz-adv-x="525" 
d="M55 480q0 8 6 14t14 6h90q8 0 14 -6t6 -14v-306q0 -25 19.5 -42t55.5 -17q35 0 55 16t20 39v310q0 8 6 14t14 6h90q8 0 14 -6t6 -14v-460q0 -8 -6 -14t-14 -6h-50q-9 0 -14 3t-9 7q-5 4 -9.5 7t-12.5 3q-11 0 -20.5 -5t-20.5 -10.5t-26.5 -10.5t-37.5 -5q-39 0 -74 14.5
t-60.5 39.5t-40.5 59t-15 73v305z" />
    <glyph glyph-name="v" unicode="v" horiz-adv-x="520" 
d="M365 485q5 15 19 15h100q12 0 17 -7.5t2 -15.5l-170 -462q-6 -15 -19 -15h-106q-13 0 -19 15l-172 462q-3 8 2 15.5t17 7.5h100q14 0 19 -15l98 -285q2 -5 6 -5t6 5z" />
    <glyph glyph-name="w" unicode="w" horiz-adv-x="715" 
d="M219 191q1 -5 5.5 -5t5.5 5l57 294q3 15 19 15h98q16 0 19 -15l62 -294q1 -5 5 -5t6 5l74 294q4 15 19 15h91q12 0 16.5 -7.5t2.5 -15.5l-137 -462q-5 -15 -19 -15h-108q-16 0 -19 15l-55 232q-1 3 -5.5 3t-5.5 -3l-49 -232q-3 -15 -19 -15h-108q-15 0 -19 15l-139 462
q-2 8 2.5 15.5t16.5 7.5h91q15 0 19 -15z" />
    <glyph glyph-name="x" unicode="x" horiz-adv-x="503" 
d="M259 152q-6 12 -12 0l-78 -142q-2 -4 -6.5 -7t-15.5 -3h-101q-14 0 -19 10t3 23l133 216q4 6 4.5 10.5t-4.5 11.5l-116 196q-8 13 -3 23t19 10h93q11 0 15.5 -3t6.5 -7l69 -125q6 -12 12 0l69 125q2 4 6.5 7t15.5 3h93q14 0 19 -10t-3 -23l-118 -196q-5 -7 -4.5 -11.5
t4.5 -10.5l132 -216q8 -13 3 -23t-19 -10h-101q-11 0 -15.5 3t-6.5 7z" />
    <glyph glyph-name="y" unicode="y" horiz-adv-x="480" 
d="M236 201q2 -6 6 -6t6 6l81 284q4 15 19 15h101q12 0 17 -7.5t2 -15.5l-235 -662q-5 -15 -19 -15h-92q-12 0 -17 7.5t-2 15.5l70 187q2 7 2.5 10.5t-2.5 11.5l-166 445q-3 8 2 15.5t17 7.5h103q14 0 19 -15z" />
    <glyph glyph-name="z" unicode="z" horiz-adv-x="468" 
d="M270 370q3 4 1.5 7t-6.5 3h-205q-8 0 -14 6t-6 14v80q0 8 6 14t14 6h348q8 0 14 -6t6 -14v-87q0 -14 -6 -23.5t-14 -17.5l-214 -222q-3 -4 -1.5 -7t6.5 -3h219q8 0 14 -6t6 -14v-80q0 -8 -6 -14t-14 -6h-368q-8 0 -14 6t-6 14v90q0 10 1.5 15.5t11.5 15.5z" />
    <glyph glyph-name="braceleft" unicode="{" horiz-adv-x="416" 
d="M356 38q8 0 14 -6t6 -14v-88q0 -8 -6 -14t-14 -6h-42q-45 0 -86 14.5t-71.5 41.5t-49 66t-18.5 88v135q0 8 -5.5 12.5t-12.5 7.5l-11 5q-8 3 -14 7.5t-6 12.5v40q0 8 6 12.5t14 7.5l11 5q7 3 12.5 7.5t5.5 12.5v125q0 41 16.5 79t46.5 67t71 46.5t91 17.5h42q8 0 14 -6
t6 -14v-88q0 -8 -6 -14t-14 -6h-42q-17 0 -33.5 -4t-30 -13t-22 -25t-8.5 -40l-1 -125q0 -13 -4.5 -23.5t-11 -19t-13.5 -14t-12 -8.5q5 -3 12 -9t13.5 -14t11 -18.5t4.5 -23.5v-135q0 -37 25.5 -59.5t69.5 -22.5h42z" />
    <glyph glyph-name="bar" unicode="|" horiz-adv-x="265" 
d="M195 -50q0 -8 -6 -14t-14 -6h-85q-8 0 -14 6t-6 14v750q0 8 6 14t14 6h85q8 0 14 -6t6 -14v-750z" />
    <glyph glyph-name="braceright" unicode="}" horiz-adv-x="416" 
d="M102 38q44 0 69.5 22.5t25.5 59.5v135q0 13 4.5 23.5t11 18.5t13.5 14t12 9q-5 3 -12 8.5t-13.5 14t-11 19t-4.5 23.5l-1 125q0 24 -8.5 40t-22 25t-30 13t-33.5 4h-42q-8 0 -14 6t-6 14v88q0 8 6 14t14 6h42q49 0 90.5 -17.5t71.5 -46.5t46.5 -67t16.5 -79v-125
q0 -8 5.5 -12.5t12.5 -7.5l11 -5q8 -3 14 -7.5t6 -12.5v-40q0 -8 -6 -12.5t-14 -7.5l-11 -5q-7 -3 -12.5 -7.5t-5.5 -12.5v-135q0 -49 -18.5 -88t-49 -66t-71.5 -41.5t-86 -14.5h-42q-8 0 -14 6t-6 14v88q0 8 6 14t14 6h42z" />
    <glyph glyph-name="asciitilde" unicode="~" horiz-adv-x="590" 
d="M181 220q-8 0 -20.5 -2t-24.5 -5.5t-22.5 -8.5t-14.5 -10q-8 -10 -18.5 -8t-10.5 17v80q0 13 10.5 24.5t26.5 19.5t35.5 12.5t38.5 4.5q39 0 64.5 -7t48 -15.5t48.5 -15.5t67 -7q8 0 20.5 2t24.5 5.5t22.5 8.5t14.5 10q8 10 18.5 8t10.5 -17v-80q0 -14 -10.5 -25
t-26.5 -19t-35.5 -12.5t-38.5 -4.5q-39 0 -64.5 7t-48 15.5t-49 15.5t-66.5 7z" />
    <glyph glyph-name="exclamdown" unicode="&#xa1;" horiz-adv-x="263" 
d="M76 -200q-7 0 -11.5 5t-4.5 11v451q0 6 4.5 11t11.5 5h108q7 0 11.5 -5t4.5 -11v-451q0 -6 -4.5 -11t-11.5 -5h-108zM50 480q0 8 6 14t14 6h120q8 0 14 -6t6 -14v-120q0 -8 -6 -14t-14 -6h-120q-8 0 -14 6t-6 14v120z" />
    <glyph glyph-name="cent" unicode="&#xa2;" horiz-adv-x="513" 
d="M336 500q55 -20 91 -67.5t36 -117.5q0 -8 -4.5 -14t-12.5 -6h-89q-7 0 -12.5 4t-6.5 12q-2 37 -24 55.5t-57 18.5q-38 0 -55.5 -15.5t-21.5 -44.5q-2 -15 -3 -34.5t-1 -40.5t1 -40.5t3 -34.5q3 -26 21.5 -43t56.5 -17q33 0 53.5 16.5t26.5 57.5q3 16 19 16h89
q8 0 12.5 -6t4.5 -14q0 -69 -35.5 -116.5t-90.5 -69.5q-15 -6 -15 -17v-32q0 -8 -6 -14t-14 -6h-85q-8 0 -14 6t-6 14v33q0 7 -4.5 10t-11.5 5q-57 20 -90 68t-41 109q-2 15 -3 34.5t-1 40.5t1 40.5t3 34.5q8 61 40.5 109t90.5 68q7 2 11.5 5t4.5 10v33q0 8 6 14t14 6h85
q8 0 14 -6t6 -14v-33q0 -12 14 -17z" />
    <glyph glyph-name="sterling" unicode="&#xa3;" horiz-adv-x="549" 
d="M342 530q0 20 -13.5 35.5t-40.5 15.5t-40 -15.5t-13 -35.5v-106q0 -10 10 -10h120q8 0 14 -6t6 -14v-75q0 -8 -6 -14t-14 -6h-119q-5 0 -7.5 -3.5t-2.5 -8.5v-43q0 -43 -5 -66t-12 -35q-7 -11 7 -11h237q8 0 14 -6t6 -14v-92q0 -8 -6 -14t-14 -6h-429q-9 0 -15 6t-6 14
v92q0 8 6 14t14 6q23 0 36.5 7t21 19t10 27t2.5 32v70q0 5 -2.5 8.5t-7.5 3.5h-41q-8 0 -14 6t-6 14v75q0 8 6 14t14 6h41q10 0 10 10v106q0 38 14.5 71.5t39.5 58t59 39t72 14.5t72 -14.5t59 -39t39.5 -58t14.5 -71.5v-20q0 -8 -6 -14t-14 -6h-91q-8 0 -14 6t-6 14v20z" />
    <glyph glyph-name="currency" unicode="&#xa4;" horiz-adv-x="672" 
d="M433 115q-23 -11 -47.5 -17.5t-51.5 -6.5q-53 0 -97 23l-77 -77q-6 -6 -14 -5.5t-14 5.5l-65 65q-5 6 -5.5 14t5.5 14l76 76q-25 47 -25 101t24 98l-76 78q-6 6 -5.5 14t6.5 13l65 65q5 6 13 6.5t14 -5.5l76 -77q22 11 47 17.5t52 6.5q54 0 101 -25l77 77q6 6 14 5.5
t14 -5.5l65 -65q5 -6 5.5 -14t-5.5 -14l-78 -79q11 -22 17 -46t6 -50q0 -27 -6.5 -51.5t-17.5 -46.5l80 -80q6 -6 5.5 -14t-6.5 -13l-65 -65q-5 -6 -13 -6.5t-14 5.5zM334 206q21 0 39.5 8t32.5 22t22 32t8 39t-8 39.5t-22 32.5t-32.5 22t-39.5 8t-39 -8t-32 -22t-22 -32.5
t-8 -39.5t8 -39t22 -32t32 -22t39 -8z" />
    <glyph glyph-name="yen" unicode="&#xa5;" horiz-adv-x="514" 
d="M55 214q-8 0 -14 6t-6 14v67q0 8 6 14t14 6h96l-17 42h-79q-8 0 -14 6t-6 14v67q0 8 6 14t14 6h36l-81 202q-5 11 0.5 19.5t15.5 8.5h107q14 0 19 -15l99 -277q1 -4 5 -4h2q4 0 5 4l99 277q5 15 19 15h107q10 0 15.5 -8.5t0.5 -19.5l-82 -202h36q8 0 14 -6t6 -14v-67
q0 -8 -6 -14t-14 -6h-79l-17 -42h96q8 0 14 -6t6 -14v-67q0 -8 -6 -14t-14 -6h-134v-194q0 -8 -6 -14t-14 -6h-94q-8 0 -14 6t-6 14v194h-135z" />
    <glyph glyph-name="brokenbar" unicode="&#xa6;" horiz-adv-x="245" 
d="M181 20q0 -8 -6 -14t-14 -6h-76q-8 0 -14 6t-6 14v267q0 8 6 14t14 6h76q8 0 14 -6t6 -14v-267zM181 420q0 -8 -6 -14t-14 -6h-76q-8 0 -14 6t-6 14v267q0 8 6 14t14 6h76q8 0 14 -6t6 -14v-267z" />
    <glyph glyph-name="section" unicode="&#xa7;" horiz-adv-x="537" 
d="M313 147q8 -7 12.5 -4.5t6.5 4.5q20 20 20 38q0 9 -4.5 21t-17.5 23l-127 111q-8 7 -12.5 4.5t-6.5 -4.5q-8 -10 -13.5 -20.5t-5.5 -21.5q0 -10 4.5 -20.5t17.5 -21.5zM67 -11q0 9 6 15t14 6h84q8 0 14 -6t6 -15v-24q0 -26 16.5 -39t43.5 -13q23 0 38 10.5t15 34.5
q0 14 -8 25.5t-19 21.5q-41 35 -90 77t-89 79q-33 31 -47.5 63t-14.5 79q0 39 22.5 71t54.5 57q-32 45 -32 98q0 42 16 74.5t42 54t59 33t67 11.5q37 0 70 -12.5t57.5 -35.5t38.5 -56t14 -73v-14q0 -9 -6 -15t-14 -6h-84q-8 0 -14 6t-6 15v14q0 22 -15 37t-41 15
q-23 0 -38.5 -11.5t-15.5 -32.5q0 -34 24 -53l179 -155q65 -57 65 -141q0 -41 -21.5 -75.5t-50.5 -58.5q28 -37 28 -92q0 -41 -16 -72.5t-42 -53t-59 -32.5t-67 -11q-37 0 -70.5 11t-58.5 32.5t-40 54.5t-15 78v24z" />
    <glyph glyph-name="dieresis" unicode="&#xa8;" horiz-adv-x="522" 
d="M228 600q0 -8 -6 -14t-14 -6h-90q-8 0 -14 6t-6 14v90q0 8 6 14t14 6h90q8 0 14 -6t6 -14v-90zM428 600q0 -8 -6 -14t-14 -6h-90q-8 0 -14 6t-6 14v90q0 8 6 14t14 6h90q8 0 14 -6t6 -14v-90z" />
    <glyph glyph-name="copyright" unicode="&#xa9;" horiz-adv-x="800" 
d="M50 350q0 72 27.5 136t75 111.5t111.5 75t136 27.5t136 -27.5t111.5 -75t75 -111.5t27.5 -136t-27.5 -136t-75 -111.5t-111.5 -75t-136 -27.5t-136 27.5t-111.5 75t-75 111.5t-27.5 136zM400 606q-53 0 -100 -20t-82 -54.5t-55 -81.5t-20 -100t20 -100t55 -82t82 -55
t100 -20t100 20t81.5 55t54.5 82t20 100t-20 100t-54.5 81.5t-81.5 54.5t-100 20zM558 298q0 -36 -13 -65t-34.5 -49.5t-50.5 -31.5t-61 -11q-36 0 -64.5 11.5t-49 32t-33 47.5t-16.5 58q-3 23 -3 58t3 58q4 31 16.5 58t33 47.5t49 32t64.5 11.5q32 0 61 -11t50.5 -31
t34.5 -49.5t13 -65.5q0 -5 -3.5 -9.5t-10.5 -4.5h-68q-6 0 -10.5 3t-5.5 9q-2 29 -18 43t-44 14q-31 0 -44.5 -12t-16.5 -35q-2 -23 -2 -58t2 -58q2 -22 16 -35t46 -13q26 0 41 13t20 45q2 12 16 12h68q7 0 10.5 -4.5t3.5 -9.5z" />
    <glyph glyph-name="ordfeminine" unicode="&#xaa;" horiz-adv-x="336" 
d="M138 550q-13 0 -17.5 -8t-4.5 -12q0 -11 8 -16.5t22 -5.5q17 0 33.5 6t16.5 22v10q0 4 -4 4h-54zM158 648q-8 0 -20.5 -3t-17.5 -13q-3 -6 -5 -7.5t-9 -1.5h-43q-10 0 -10 10q0 34 31 54.5t76 20.5q21 0 40 -5t34 -16t24 -28t9 -41v-155q0 -10 -10 -10h-32q-4 0 -7 3
q-2 3 -3.5 6.5t-6.5 3.5q-7 0 -24.5 -9.5t-45.5 -9.5q-44 0 -69 21.5t-25 61.5q0 13 5.5 26.5t16 25t26.5 19t38 7.5h61q5 0 5 5v8q0 15 -10.5 21t-27.5 6z" />
    <glyph glyph-name="guillemotleft" unicode="&#xab;" horiz-adv-x="527" 
d="M152 435q2 4 8 9.5t17 5.5h80q14 0 20 -9t-4 -24l-85 -145q-8 -11 0 -24l85 -145q9 -16 3.5 -24.5t-19.5 -8.5h-80q-11 0 -17 5.5t-8 9.5l-96 161q-5 8 -5 14t5 14zM350 435q2 4 8 9.5t17 5.5h80q14 0 19.5 -8.5t-3.5 -24.5l-85 -145q-8 -11 0 -24l85 -145
q9 -16 3.5 -24.5t-19.5 -8.5h-80q-11 0 -17 5.5t-8 9.5l-96 161q-5 8 -5 14t5 14z" />
    <glyph glyph-name="logicalnot" unicode="&#xac;" horiz-adv-x="530" 
d="M350 160q0 10 -10 10h-270q-8 0 -14 6t-6 14v90q0 8 6 14t14 6h390q8 0 14 -6t6 -14v-190q0 -8 -6 -14t-14 -6h-90q-8 0 -14 6t-6 14v70z" />
    <glyph glyph-name="registered" unicode="&#xae;" horiz-adv-x="800" 
d="M50 350q0 72 27.5 136t75 111.5t111.5 75t136 27.5t136 -27.5t111.5 -75t75 -111.5t27.5 -136t-27.5 -136t-75 -111.5t-111.5 -75t-136 -27.5t-136 27.5t-111.5 75t-75 111.5t-27.5 136zM400 606q-53 0 -100 -20t-82 -54.5t-55 -81.5t-20 -100t20 -100t55 -82t82 -55
t100 -20t100 20t81.5 55t54.5 82t20 100t-20 100t-54.5 81.5t-81.5 54.5t-100 20zM418 377q17 0 29.5 12t12.5 30q0 17 -12.5 29.5t-29.5 12.5h-56q-6 0 -6 -6v-72q0 -6 6 -6h56zM487 312q-7 -5 -6.5 -9t2.5 -10l65 -120q4 -7 0.5 -12.5t-12.5 -5.5h-66q-13 0 -18 12
l-56 118q-2 2 -4 5t-7 3h-23q-6 0 -6 -6v-120q0 -12 -12 -12h-68q-5 0 -8.5 3.5t-3.5 8.5v366q0 5 3.5 8.5t8.5 3.5h147q26 0 49 -10t40 -27.5t27 -40.5t10 -48q0 -35 -15 -60t-47 -47z" />
    <glyph glyph-name="macron" unicode="&#xaf;" horiz-adv-x="526" 
d="M394 694q8 0 14 -6t6 -14v-58q0 -8 -6 -14t-14 -6h-262q-8 0 -14 6t-6 14v58q0 8 6 14t14 6h262z" />
    <glyph glyph-name="degree" unicode="&#xb0;" horiz-adv-x="378" 
d="M36 585q0 31 11.5 58t32 47t47.5 31.5t58 11.5t58 -11.5t47 -31.5t31.5 -47t11.5 -58t-11.5 -58t-31.5 -47.5t-47 -32t-58 -11.5t-58 11.5t-47.5 32t-32 47.5t-11.5 58zM135 585q0 -20 15 -35t35 -15t34.5 15t14.5 35t-14.5 34.5t-34.5 14.5t-35 -14.5t-15 -34.5z" />
    <glyph glyph-name="plusminus" unicode="&#xb1;" horiz-adv-x="540" 
d="M70 354q-8 0 -14 6t-6 14v89q0 8 6 14t14 6h125q10 0 10 10v125q0 8 6 14t14 6h89q8 0 14 -6t6 -14v-125q0 -10 10 -10h126q8 0 14 -6t6 -14v-89q0 -8 -6 -14t-14 -6h-126q-10 0 -10 -10v-126q0 -8 -6 -14t-14 -6h-89q-8 0 -14 6t-6 14v126q0 10 -10 10h-125zM467 129
q8 0 14 -6t6 -14v-89q0 -8 -6 -14t-14 -6h-394q-8 0 -14 6t-6 14v89q0 8 6 14t14 6h394z" />
    <glyph glyph-name="acute" unicode="&#xb4;" horiz-adv-x="514" 
d="M374 730q14 0 17 -9t-5 -18l-115 -121q-5 -5 -10.5 -8.5t-19.5 -3.5h-69q-10 0 -16 9t3 21l82 114q4 5 9.5 10.5t16.5 5.5h107z" />
    <glyph glyph-name="uni00B5" unicode="&#xb5;" horiz-adv-x="520" 
d="M252 -10q-14 0 -24 3.5t-18 7.5q-11 5 -20.5 0.5t-9.5 -21.5v-160q0 -8 -6 -14t-14 -6h-90q-8 0 -14 6t-6 14l1 660q0 8 5.5 14t13.5 6h90q8 0 14 -6t6 -14v-306q0 -25 19.5 -42t55.5 -17q35 0 55 16t20 39v310q0 8 6 14t14 6h90q8 0 14 -6t6 -14v-460q0 -8 -6 -14
t-14 -6h-50q-9 0 -14 3t-9 7t-9 7t-13 3q-10 0 -17.5 -4.5l-17.5 -10.5t-23.5 -10.5t-34.5 -4.5z" />
    <glyph glyph-name="paragraph" unicode="&#xb6;" horiz-adv-x="627" 
d="M220 350q0 10 -10 10q-33 0 -62 14t-51 37t-34.5 54t-12.5 65q0 35 13.5 66t36.5 54t54 36.5t66 13.5h260q8 0 14 -6t6 -14v-760q0 -8 -6 -14t-14 -6h-60q-8 0 -14 6t-6 14v675q0 10 -10 10h-60q-10 0 -10 -10v-675q0 -8 -6 -14t-14 -6h-60q-8 0 -14 6t-6 14v430v0z" />
    <glyph glyph-name="periodcentered" unicode="&#xb7;" horiz-adv-x="435" 
d="M302 183q0 -8 -6 -14t-14 -6h-143q-8 0 -14 6t-6 14v143q0 8 6 14t14 6h143q8 0 14 -6t6 -14v-143z" />
    <glyph glyph-name="cedilla" unicode="&#xb8;" horiz-adv-x="431" 
d="M262 -45q24 0 28.5 -13.5t1.5 -25.5l-21 -92q-6 -24 -32 -24h-62q-24 0 -29 14t-1 25l29 92q7 24 32 24h54z" />
    <glyph glyph-name="ordmasculine" unicode="&#xba;" horiz-adv-x="523" 
d="M50 552q-2 14 -2 25t2 26q3 27 14.5 47.5t27.5 34t35 20t38 6.5t38 -6.5t35 -20t27.5 -34t14.5 -47.5q2 -15 2 -26t-2 -25q-3 -26 -14 -46t-27 -33.5t-35.5 -20.5t-38.5 -7t-38.5 7t-35.5 20.5t-27 33.5t-14 46zM165 522q17 0 29 9.5t15 24.5q3 20 0 41q-6 37 -44 37
t-44 -37q-3 -21 0 -41q3 -15 15 -24.5t29 -9.5z" />
    <glyph glyph-name="guillemotright" unicode="&#xbb;" horiz-adv-x="527" 
d="M471 274q5 -8 5 -14t-5 -14l-96 -161q-2 -4 -8 -9.5t-17 -5.5h-80q-14 0 -19.5 8.5t3.5 24.5l85 145q8 13 0 24l-85 145q-9 16 -3.5 24.5t19.5 8.5h80q11 0 17 -5.5t8 -9.5zM273 274q5 -8 5 -14t-5 -14l-96 -161q-2 -4 -8 -9.5t-17 -5.5h-80q-14 0 -19.5 8.5t3.5 24.5
l85 145q8 13 0 24l-85 145q-9 16 -3.5 24.5t19.5 8.5h80q11 0 17 -5.5t8 -9.5z" />
    <glyph glyph-name="onequarter" unicode="&#xbc;" horiz-adv-x="690" 
d="M210 360q0 -10 -10 -10h-72q-10 0 -10 10v214q0 5 -3.5 5.5t-5.5 -1.5l-68 -57q-5 -5 -11 -2.5t-6 10.5v66q0 6 1 11.5t7 10.5l75 71q4 4 10 8t15 4h68q10 0 10 -10v-330zM165 15q-9 -15 -21 -15h-67q-10 0 -16.5 8.5t0.5 19.5l427 657q9 15 22 15h65q10 0 16.5 -9
t-0.5 -19zM462 141q-4 -6 3 -6h45q5 0 5 5v75q0 3 -2 3.5t-4 -1.5zM506 343q4 7 10 7h69q10 0 10 -10v-200q0 -5 5 -5h22q10 0 10 -10v-60q0 -10 -10 -10h-22q-5 0 -5 -5v-40q0 -10 -10 -10h-60q-10 0 -10 10v40q0 5 -5 5h-128q-10 0 -10 10v69q0 5 2.5 9.5t5.5 9.5z" />
    <glyph glyph-name="onehalf" unicode="&#xbd;" horiz-adv-x="710" 
d="M165 15q-9 -15 -21 -15h-67q-10 0 -16.5 8.5t0.5 19.5l427 657q9 15 22 15h65q10 0 16.5 -9t-0.5 -19zM200 700q10 0 10 -10v-330q0 -10 -10 -10h-72q-10 0 -10 10v214q0 5 -3.5 5.5t-5.5 -1.5l-68 -57q-5 -5 -11 -2.5t-6 10.5v66q0 6 1 11.5t7 10.5l75 71q4 4 10 8t15 4
h68zM409 251q0 24 10.5 43.5t28 33t39 20.5t43.5 7t43.5 -6.5t38.5 -19.5t27.5 -32.5t10.5 -45.5q0 -15 -5 -30t-17 -33t-33 -40.5t-53 -52.5q-2 -2 -2 -6t7 -4h94q10 0 10 -10v-65q0 -10 -10 -10h-216q-10 0 -10 10v64q0 5 1.5 7.5t3.5 4.5q46 49 74 78.5t42.5 46.5
t19 25.5t4.5 14.5q0 14 -9 20.5t-19 6.5q-11 0 -21.5 -6t-10.5 -21v-18q0 -10 -10 -10h-71q-10 0 -10 10v18z" />
    <glyph glyph-name="threequarters" unicode="&#xbe;" horiz-adv-x="700" 
d="M165 15q-9 -15 -21 -15h-67q-10 0 -16.5 8.5t0.5 19.5l427 657q9 15 22 15h65q10 0 16.5 -9t-0.5 -19zM462 141q-4 -6 3 -6h45q5 0 5 5v75q0 3 -2 3.5t-4 -1.5zM506 343q4 7 10 7h69q10 0 10 -10v-200q0 -5 5 -5h22q10 0 10 -10v-60q0 -10 -10 -10h-22q-5 0 -5 -5v-40
q0 -10 -10 -10h-60q-10 0 -10 10v40q0 5 -5 5h-128q-10 0 -10 10v69q0 5 2.5 9.5t5.5 9.5zM88 454q0 -14 11 -23.5t28 -9.5q14 0 25.5 9t11.5 24q0 16 -8.5 27t-28.5 11h-6q-10 0 -10 10v54q0 10 10 10h6q17 0 25 9.5t8 24.5t-9.5 22.5t-23.5 7.5q-13 0 -23 -8.5t-10 -21.5
v-7q0 -10 -10 -10h-64q-10 0 -10 10v7q0 45 30 75t87 30q22 0 43 -6.5t37 -19.5t26 -33t10 -46q0 -22 -11 -39.5t-25 -25.5q-3 -2 -2.5 -4.5t2.5 -4.5q16 -9 28.5 -26.5t12.5 -45.5q0 -27 -10 -47.5t-27 -34.5t-39 -21t-45 -7q-62 0 -92 31.5t-30 78.5v5q0 10 10 10h63
q10 0 10 -10v-5z" />
    <glyph glyph-name="questiondown" unicode="&#xbf;" horiz-adv-x="483" 
d="M170 -6q0 -32 20.5 -51t50.5 -19q34 0 53 22t19 51v17q0 8 6 14t14 6h100q8 0 14 -6t6 -14v-15q0 -44 -17 -83t-45.5 -68t-67.5 -46t-82 -17q-44 0 -82.5 15t-67 42t-45 64t-16.5 81q0 31 9 57.5t23 48.5t31 39t34 29q28 21 37 39t9 53v10q0 8 6 14t14 6h100q8 0 14 -6
t6 -14v-10q0 -12 0.5 -26.5t-2 -31t-8.5 -33.5t-18 -33q-17 -21 -39 -35.5t-38 -29.5t-27 -34t-11 -36zM163 480q0 8 6 14t14 6h120q8 0 14 -6t6 -14v-120q0 -8 -6 -14t-14 -6h-120q-8 0 -14 6t-6 14v120z" />
    <glyph glyph-name="Agrave" unicode="&#xc0;" horiz-adv-x="537" 
d="M314 273q11 0 8 11l-48 240q-1 4 -5 4h-2q-4 0 -5 -4l-48 -240q-3 -11 8 -11h92zM358 118q-2 6 -5 10.5t-10 4.5h-152q-12 0 -15 -15l-28 -103q-3 -15 -19 -15h-105q-12 0 -17 6.5t-3 13.5l179 665q3 15 19 15h134q16 0 19 -15l178 -665q2 -7 -3 -13.5t-17 -6.5h-105
q-14 0 -19 15zM232 910q11 0 16.5 -5.5t9.5 -10.5l82 -114q9 -12 3 -21t-16 -9h-69q-14 0 -19.5 3.5t-10.5 8.5l-115 121q-8 9 -5 18t17 9h107z" />
    <glyph glyph-name="Aacute" unicode="&#xc1;" horiz-adv-x="537" 
d="M314 273q11 0 8 11l-48 240q-1 4 -5 4h-2q-4 0 -5 -4l-48 -240q-3 -11 8 -11h92zM358 118q-2 6 -5 10.5t-10 4.5h-152q-12 0 -15 -15l-28 -103q-3 -15 -19 -15h-105q-12 0 -17 6.5t-3 13.5l179 665q3 15 19 15h134q16 0 19 -15l178 -665q2 -7 -3 -13.5t-17 -6.5h-105
q-14 0 -19 15zM429 910q14 0 17 -9t-5 -18l-115 -121q-5 -5 -10.5 -8.5t-19.5 -3.5h-69q-10 0 -16 9t3 21l82 114q4 5 9.5 10.5t16.5 5.5h107z" />
    <glyph glyph-name="Acircumflex" unicode="&#xc2;" horiz-adv-x="537" 
d="M314 273q11 0 8 11l-48 240q-1 4 -5 4h-2q-4 0 -5 -4l-48 -240q-3 -11 8 -11h92zM358 118q-2 6 -5 10.5t-10 4.5h-152q-12 0 -15 -15l-28 -103q-3 -15 -19 -15h-105q-12 0 -17 6.5t-3 13.5l179 665q3 15 19 15h134q16 0 19 -15l178 -665q2 -7 -3 -13.5t-17 -6.5h-105
q-14 0 -19 15zM235 766q-4 -5 -12 -10.5t-19 -5.5h-95q-13 0 -14.5 10t3.5 15l119 123q5 5 10.5 8.5t19.5 3.5h62q13 0 18.5 -3.5t10.5 -8.5l119 -123q5 -5 3 -15t-16 -10h-94q-11 0 -19 5.5t-12 10.5l-35 44q-7 10 -14 0z" />
    <glyph glyph-name="Atilde" unicode="&#xc3;" horiz-adv-x="537" 
d="M314 273q11 0 8 11l-48 240q-1 4 -5 4h-2q-4 0 -5 -4l-48 -240q-3 -11 8 -11h92zM358 118q-2 6 -5 10.5t-10 4.5h-152q-12 0 -15 -15l-28 -103q-3 -15 -19 -15h-105q-12 0 -17 6.5t-3 13.5l179 665q3 15 19 15h134q16 0 19 -15l178 -665q2 -7 -3 -13.5t-17 -6.5h-105
q-14 0 -19 15zM367 864q19 0 29.5 6.5t16.5 14.5t15.5 4t9.5 -18v-60q0 -20 -20.5 -35.5t-50.5 -15.5q-24 0 -45.5 4t-43 8.5t-44 8.5t-47.5 4q-17 0 -27.5 -5.5t-18.5 -15.5q-6 -7 -15.5 -3.5t-9.5 17.5v60q0 20 20.5 35.5t50.5 15.5q24 0 45.5 -4t43 -8.5t43.5 -8.5t48 -4
z" />
    <glyph glyph-name="Adieresis" unicode="&#xc4;" horiz-adv-x="537" 
d="M314 273q11 0 8 11l-48 240q-1 4 -5 4h-2q-4 0 -5 -4l-48 -240q-3 -11 8 -11h92zM358 118q-2 6 -5 10.5t-10 4.5h-152q-12 0 -15 -15l-28 -103q-3 -15 -19 -15h-105q-12 0 -17 6.5t-3 13.5l179 665q3 15 19 15h134q16 0 19 -15l178 -665q2 -7 -3 -13.5t-17 -6.5h-105
q-14 0 -19 15zM242 780q0 -8 -6 -14t-14 -6h-90q-8 0 -14 6t-6 14v90q0 8 6 14t14 6h90q8 0 14 -6t6 -14v-90zM442 780q0 -8 -6 -14t-14 -6h-90q-8 0 -14 6t-6 14v90q0 8 6 14t14 6h90q8 0 14 -6t6 -14v-90z" />
    <glyph glyph-name="Aring" unicode="&#xc5;" horiz-adv-x="537" 
d="M314 273q11 0 8 11l-48 240q-1 4 -5 4h-2q-4 0 -5 -4l-48 -240q-3 -11 8 -11h92zM358 118q-2 6 -5 10.5t-10 4.5h-152q-12 0 -15 -15l-28 -103q-3 -15 -19 -15h-105q-12 0 -17 6.5t-3 13.5l179 665q3 15 19 15h134q16 0 19 -15l178 -665q2 -7 -3 -13.5t-17 -6.5h-105
q-14 0 -19 15zM162 850q0 24 9 45t25 36.5t37 24.5t45 9t45 -9t36.5 -24.5t24.5 -36.5t9 -45t-9 -45t-24.5 -37t-36.5 -25t-45 -9t-45 9t-37 25t-25 37t-9 45zM246 850q0 -14 9 -23t23 -9t23 9t9 23t-9 23t-23 9t-23 -9t-9 -23z" />
    <glyph glyph-name="AE" unicode="&#xc6;" horiz-adv-x="775" 
d="M711 700q8 0 14 -6t6 -14v-100q0 -8 -6 -14t-14 -6h-233q-10 0 -10 -10v-120q0 -10 10 -10h225q8 0 14 -6t6 -14v-100q0 -8 -6 -14t-14 -6h-225q-10 0 -10 -10v-120q0 -10 10 -10h237q8 0 14 -6t6 -14v-100q0 -8 -6 -14t-14 -6h-367q-8 0 -14 6t-6 14v98q0 6 -4 10.5
t-11 4.5h-122q-12 0 -15 -15l-28 -103q-3 -15 -19 -15h-105q-12 0 -17 6.5t-3 13.5l176 654q2 7 10 16.5t24 9.5h497zM328 550q0 10 -10 10h-37q-7 0 -9.5 -3.5t-3.5 -6.5l-54 -266q-3 -11 8 -11h96q10 0 10 11v266z" />
    <glyph glyph-name="Ccedilla" unicode="&#xc7;" horiz-adv-x="569" 
d="M529 217q0 -50 -18 -92t-49.5 -72t-75 -47t-95.5 -17t-93.5 17.5t-72 48t-49 70.5t-23.5 85q-4 31 -6 67t-2 73t2 72.5t6 67.5q5 45 23.5 85t49 70.5t72 48t93.5 17.5t95.5 -17t75 -47t49.5 -72t18 -92v-1q0 -8 -6 -14t-14 -6h-100q-8 0 -14 6t-6 14v1q0 15 -6.5 30.5
t-19 28t-30.5 20.5t-42 8q-46 0 -69.5 -23.5t-27.5 -56.5q-4 -32 -6 -67.5t-2 -72.5t2 -73t6 -67q4 -33 27.5 -56.5t69.5 -23.5q22 0 40 7.5t31 19.5t20 27.5t7 31.5v1q0 8 6 14.5t14 6.5h100q8 0 14 -6t6 -14v-1zM330 -45q24 0 28.5 -13.5t1.5 -25.5l-21 -92
q-6 -24 -32 -24h-62q-24 0 -29 14t-1 25l29 92q7 24 32 24h54z" />
    <glyph glyph-name="Egrave" unicode="&#xc8;" horiz-adv-x="512" 
d="M205 150q0 -10 10 -10h237q8 0 14 -6t6 -14v-100q0 -8 -6 -14t-14 -6h-367q-8 0 -14 6t-6 14v660q0 8 6 14t14 6h363q8 0 14 -6t6 -14v-100q0 -8 -6 -14t-14 -6h-233q-10 0 -10 -10v-120q0 -10 10 -10h225q8 0 14 -6t6 -14v-100q0 -8 -6 -14t-14 -6h-225q-10 0 -10 -10
v-120zM213 910q11 0 16.5 -5.5t9.5 -10.5l82 -114q9 -12 3 -21t-16 -9h-69q-14 0 -19.5 3.5t-10.5 8.5l-115 121q-8 9 -5 18t17 9h107z" />
    <glyph glyph-name="Eacute" unicode="&#xc9;" horiz-adv-x="512" 
d="M205 150q0 -10 10 -10h237q8 0 14 -6t6 -14v-100q0 -8 -6 -14t-14 -6h-367q-8 0 -14 6t-6 14v660q0 8 6 14t14 6h363q8 0 14 -6t6 -14v-100q0 -8 -6 -14t-14 -6h-233q-10 0 -10 -10v-120q0 -10 10 -10h225q8 0 14 -6t6 -14v-100q0 -8 -6 -14t-14 -6h-225q-10 0 -10 -10
v-120zM421 910q14 0 17 -9t-5 -18l-115 -121q-5 -5 -10.5 -8.5t-19.5 -3.5h-69q-10 0 -16 9t3 21l82 114q4 5 9.5 10.5t16.5 5.5h107z" />
    <glyph glyph-name="Ecircumflex" unicode="&#xca;" horiz-adv-x="512" 
d="M205 150q0 -10 10 -10h237q8 0 14 -6t6 -14v-100q0 -8 -6 -14t-14 -6h-367q-8 0 -14 6t-6 14v660q0 8 6 14t14 6h363q8 0 14 -6t6 -14v-100q0 -8 -6 -14t-14 -6h-233q-10 0 -10 -10v-120q0 -10 10 -10h225q8 0 14 -6t6 -14v-100q0 -8 -6 -14t-14 -6h-225q-10 0 -10 -10
v-120zM216 766q-4 -5 -12 -10.5t-19 -5.5h-95q-13 0 -14.5 10t3.5 15l119 123q5 5 10.5 8.5t19.5 3.5h62q13 0 18.5 -3.5t10.5 -8.5l119 -123q5 -5 3 -15t-16 -10h-94q-11 0 -19 5.5t-12 10.5l-35 44q-7 10 -14 0z" />
    <glyph glyph-name="Edieresis" unicode="&#xcb;" horiz-adv-x="512" 
d="M205 150q0 -10 10 -10h237q8 0 14 -6t6 -14v-100q0 -8 -6 -14t-14 -6h-367q-8 0 -14 6t-6 14v660q0 8 6 14t14 6h363q8 0 14 -6t6 -14v-100q0 -8 -6 -14t-14 -6h-233q-10 0 -10 -10v-120q0 -10 10 -10h225q8 0 14 -6t6 -14v-100q0 -8 -6 -14t-14 -6h-225q-10 0 -10 -10
v-120zM239 780q0 -8 -6 -14t-14 -6h-90q-8 0 -14 6t-6 14v90q0 8 6 14t14 6h90q8 0 14 -6t6 -14v-90zM439 780q0 -8 -6 -14t-14 -6h-90q-8 0 -14 6t-6 14v90q0 8 6 14t14 6h90q8 0 14 -6t6 -14v-90z" />
    <glyph glyph-name="Igrave" unicode="&#xcc;" 
d="M205 20q0 -8 -6 -14t-14 -6h-100q-8 0 -14 6t-6 14v660q0 8 6 14t14 6h100q8 0 14 -6t6 -14v-660zM95 910q11 0 16.5 -5.5t9.5 -10.5l82 -114q9 -12 3 -21t-16 -9h-69q-14 0 -19.5 3.5t-10.5 8.5l-115 121q-8 9 -5 18t17 9h107z" />
    <glyph glyph-name="Iacute" unicode="&#xcd;" 
d="M205 20q0 -8 -6 -14t-14 -6h-100q-8 0 -14 6t-6 14v660q0 8 6 14t14 6h100q8 0 14 -6t6 -14v-660zM292 910q14 0 17 -9t-5 -18l-115 -121q-5 -5 -10.5 -8.5t-19.5 -3.5h-69q-10 0 -16 9t3 21l82 114q4 5 9.5 10.5t16.5 5.5h107z" />
    <glyph glyph-name="Icircumflex" unicode="&#xce;" 
d="M205 20q0 -8 -6 -14t-14 -6h-100q-8 0 -14 6t-6 14v660q0 8 6 14t14 6h100q8 0 14 -6t6 -14v-660zM93 766q-4 -5 -12 -10.5t-19 -5.5h-95q-13 0 -14.5 10t3.5 15l119 123q5 5 10.5 8.5t19.5 3.5h62q13 0 18.5 -3.5t10.5 -8.5l119 -123q5 -5 3 -15t-16 -10h-94
q-11 0 -19 5.5t-12 10.5l-35 44q-7 10 -14 0z" />
    <glyph glyph-name="Idieresis" unicode="&#xcf;" 
d="M205 20q0 -8 -6 -14t-14 -6h-100q-8 0 -14 6t-6 14v660q0 8 6 14t14 6h100q8 0 14 -6t6 -14v-660zM105 780q0 -8 -6 -14t-14 -6h-90q-8 0 -14 6t-6 14v90q0 8 6 14t14 6h90q8 0 14 -6t6 -14v-90zM305 780q0 -8 -6 -14t-14 -6h-90q-8 0 -14 6t-6 14v90q0 8 6 14t14 6h90
q8 0 14 -6t6 -14v-90z" />
    <glyph glyph-name="Eth" unicode="&#xd0;" horiz-adv-x="571" 
d="M205 150q0 -10 10 -10h80q35 0 56.5 24t25.5 57q8 63 8 129t-8 129q-4 33 -25.5 57t-56.5 24h-80q-10 0 -10 -10v-120q0 -10 10 -10h80q8 0 14 -6t6 -14v-100q0 -8 -6 -14t-14 -6h-80q-10 0 -10 -10v-120zM295 700q46 0 84.5 -17.5t67.5 -48t47.5 -70.5t23.5 -85
q8 -63 8 -129t-8 -129q-5 -45 -23.5 -85t-47.5 -70.5t-67.5 -48t-84.5 -17.5h-210q-8 0 -14 6t-6 14v250q0 10 -10 10h-37q-8 0 -14 6t-6 14v100q0 8 6 14t14 6h37q10 0 10 10v250q0 8 6 14t14 6h210z" />
    <glyph glyph-name="Ntilde" unicode="&#xd1;" horiz-adv-x="580" 
d="M377 0q-13 0 -19 5.5t-8 11.5l-136 351q-2 5 -5.5 4t-3.5 -6v-346q0 -8 -6 -14t-14 -6h-100q-8 0 -14 6t-6 14v660q0 8 6 14t14 6h119q11 0 17 -5.5t8 -12.5l137 -380q2 -5 5.5 -4t3.5 6v376q0 8 6 14t14 6h100q8 0 14 -6t6 -14v-660q0 -8 -6 -14t-14 -6h-118zM395 864
q19 0 29.5 6.5t16.5 14.5t15.5 4t9.5 -18v-60q0 -20 -20.5 -35.5t-50.5 -15.5q-24 0 -45.5 4t-43 8.5t-44 8.5t-47.5 4q-17 0 -27.5 -5.5t-18.5 -15.5q-6 -7 -15.5 -3.5t-9.5 17.5v60q0 20 20.5 35.5t50.5 15.5q24 0 45.5 -4t43 -8.5t43.5 -8.5t48 -4z" />
    <glyph glyph-name="Ograve" unicode="&#xd2;" horiz-adv-x="582" 
d="M291 130q46 0 69.5 23.5t27.5 56.5q4 31 5.5 67t1.5 73t-1.5 72.5t-5.5 67.5q-4 33 -27.5 56.5t-69.5 23.5t-69.5 -23.5t-27.5 -56.5q-4 -32 -6 -67.5t-2 -72.5t2 -73t6 -67q4 -33 27.5 -56.5t69.5 -23.5zM291 711q52 0 93.5 -17.5t72 -48t49 -70.5t23.5 -85
q4 -32 5.5 -67.5t1.5 -72.5t-1.5 -73t-5.5 -67q-5 -45 -23.5 -85t-49 -70.5t-72 -48t-93.5 -17.5t-93.5 17.5t-72 48t-49 70.5t-23.5 85q-4 31 -6 67t-2 73t2 72.5t6 67.5q5 45 23.5 85t49 70.5t72 48t93.5 17.5zM251 910q11 0 16.5 -5.5t9.5 -10.5l82 -114q9 -12 3 -21
t-16 -9h-69q-14 0 -19.5 3.5t-10.5 8.5l-115 121q-8 9 -5 18t17 9h107z" />
    <glyph glyph-name="Oacute" unicode="&#xd3;" horiz-adv-x="582" 
d="M291 130q46 0 69.5 23.5t27.5 56.5q4 31 5.5 67t1.5 73t-1.5 72.5t-5.5 67.5q-4 33 -27.5 56.5t-69.5 23.5t-69.5 -23.5t-27.5 -56.5q-4 -32 -6 -67.5t-2 -72.5t2 -73t6 -67q4 -33 27.5 -56.5t69.5 -23.5zM291 711q52 0 93.5 -17.5t72 -48t49 -70.5t23.5 -85
q4 -32 5.5 -67.5t1.5 -72.5t-1.5 -73t-5.5 -67q-5 -45 -23.5 -85t-49 -70.5t-72 -48t-93.5 -17.5t-93.5 17.5t-72 48t-49 70.5t-23.5 85q-4 31 -6 67t-2 73t2 72.5t6 67.5q5 45 23.5 85t49 70.5t72 48t93.5 17.5zM448 910q14 0 17 -9t-5 -18l-115 -121q-5 -5 -10.5 -8.5
t-19.5 -3.5h-69q-10 0 -16 9t3 21l82 114q4 5 9.5 10.5t16.5 5.5h107z" />
    <glyph glyph-name="Ocircumflex" unicode="&#xd4;" horiz-adv-x="582" 
d="M291 130q46 0 69.5 23.5t27.5 56.5q4 31 5.5 67t1.5 73t-1.5 72.5t-5.5 67.5q-4 33 -27.5 56.5t-69.5 23.5t-69.5 -23.5t-27.5 -56.5q-4 -32 -6 -67.5t-2 -72.5t2 -73t6 -67q4 -33 27.5 -56.5t69.5 -23.5zM291 711q52 0 93.5 -17.5t72 -48t49 -70.5t23.5 -85
q4 -32 5.5 -67.5t1.5 -72.5t-1.5 -73t-5.5 -67q-5 -45 -23.5 -85t-49 -70.5t-72 -48t-93.5 -17.5t-93.5 17.5t-72 48t-49 70.5t-23.5 85q-4 31 -6 67t-2 73t2 72.5t6 67.5q5 45 23.5 85t49 70.5t72 48t93.5 17.5zM253 766q-4 -5 -12 -10.5t-19 -5.5h-95q-13 0 -14.5 10
t3.5 15l119 123q5 5 10.5 8.5t19.5 3.5h62q13 0 18.5 -3.5t10.5 -8.5l119 -123q5 -5 3 -15t-16 -10h-94q-11 0 -19 5.5t-12 10.5l-35 44q-7 10 -14 0z" />
    <glyph glyph-name="Otilde" unicode="&#xd5;" horiz-adv-x="582" 
d="M291 130q46 0 69.5 23.5t27.5 56.5q4 31 5.5 67t1.5 73t-1.5 72.5t-5.5 67.5q-4 33 -27.5 56.5t-69.5 23.5t-69.5 -23.5t-27.5 -56.5q-4 -32 -6 -67.5t-2 -72.5t2 -73t6 -67q4 -33 27.5 -56.5t69.5 -23.5zM291 711q52 0 93.5 -17.5t72 -48t49 -70.5t23.5 -85
q4 -32 5.5 -67.5t1.5 -72.5t-1.5 -73t-5.5 -67q-5 -45 -23.5 -85t-49 -70.5t-72 -48t-93.5 -17.5t-93.5 17.5t-72 48t-49 70.5t-23.5 85q-4 31 -6 67t-2 73t2 72.5t6 67.5q5 45 23.5 85t49 70.5t72 48t93.5 17.5zM386 864q19 0 29.5 6.5t16.5 14.5t15.5 4t9.5 -18v-60
q0 -20 -20.5 -35.5t-50.5 -15.5q-24 0 -45.5 4t-43 8.5t-44 8.5t-47.5 4q-17 0 -27.5 -5.5t-18.5 -15.5q-6 -7 -15.5 -3.5t-9.5 17.5v60q0 20 20.5 35.5t50.5 15.5q24 0 45.5 -4t43 -8.5t43.5 -8.5t48 -4z" />
    <glyph glyph-name="Odieresis" unicode="&#xd6;" horiz-adv-x="582" 
d="M291 130q46 0 69.5 23.5t27.5 56.5q4 31 5.5 67t1.5 73t-1.5 72.5t-5.5 67.5q-4 33 -27.5 56.5t-69.5 23.5t-69.5 -23.5t-27.5 -56.5q-4 -32 -6 -67.5t-2 -72.5t2 -73t6 -67q4 -33 27.5 -56.5t69.5 -23.5zM291 711q52 0 93.5 -17.5t72 -48t49 -70.5t23.5 -85
q4 -32 5.5 -67.5t1.5 -72.5t-1.5 -73t-5.5 -67q-5 -45 -23.5 -85t-49 -70.5t-72 -48t-93.5 -17.5t-93.5 17.5t-72 48t-49 70.5t-23.5 85q-4 31 -6 67t-2 73t2 72.5t6 67.5q5 45 23.5 85t49 70.5t72 48t93.5 17.5zM261 780q0 -8 -6 -14t-14 -6h-90q-8 0 -14 6t-6 14v90
q0 8 6 14t14 6h90q8 0 14 -6t6 -14v-90zM461 780q0 -8 -6 -14t-14 -6h-90q-8 0 -14 6t-6 14v90q0 8 6 14t14 6h90q8 0 14 -6t6 -14v-90z" />
    <glyph glyph-name="multiply" unicode="&#xd7;" horiz-adv-x="506" 
d="M56 116q-6 6 -6 14.5t6 14.5l98 98q7 7 0 14l-98 98q-6 6 -6 14.5t6 14.5l63 63q5 5 14 5.5t14 -5.5l98 -99q7 -7 14 0l99 99q6 6 14.5 6t14.5 -6l63 -63q5 -5 5 -13.5t-5 -14.5l-99 -99q-9 -7 0 -14l99 -99q5 -6 5 -14.5t-5 -13.5l-63 -63q-6 -6 -14.5 -6t-14.5 6
l-99 99q-7 7 -14 0l-98 -99q-5 -6 -14 -5.5t-14 5.5z" />
    <glyph glyph-name="Oslash" unicode="&#xd8;" horiz-adv-x="592" 
d="M148 15q-9 -15 -21 -15h-64q-10 0 -16 8.5t0 19.5l41 68q5 7 3.5 10l-2.5 5q-25 44 -31 99q-4 31 -6 67t-2 73t2 72.5t6 67.5q5 45 23.5 85t49 70.5t72 48t93.5 17.5q37 0 69 -9t58 -26q3 -2 6.5 -3.5t8.5 5.5l5 7q5 8 8.5 11.5t10.5 3.5h64q10 0 16 -9t0 -19l-40 -66
q-5 -8 -3 -11t3 -5q13 -23 20.5 -48t11.5 -52q4 -32 5.5 -67.5t1.5 -72.5t-1.5 -73t-5.5 -67q-5 -45 -23.5 -85t-49 -70.5t-72 -48t-93.5 -17.5q-78 0 -133 37q-2 1 -4.5 2t-5.5 -4zM296 130q46 0 69.5 23.5t27.5 56.5q5 47 6.5 101.5t-0.5 106.5q0 4 -2 6t-5 -3l-160 -265
q-2 -4 -1 -6t3 -3q25 -17 62 -17zM296 570q-46 0 -69.5 -23.5t-27.5 -56.5q-6 -47 -7.5 -101.5t0.5 -106.5q0 -3 2 -4.5t5 3.5l157 260q4 7 2.5 9.5t-3.5 3.5q-24 16 -59 16z" />
    <glyph glyph-name="Ugrave" unicode="&#xd9;" horiz-adv-x="582" 
d="M528 210q0 -45 -18 -85.5t-49.5 -70.5t-75 -47.5t-95.5 -17.5q-51 0 -94.5 17.5t-75 47.5t-49 70.5t-17.5 85.5v470q0 8 6 14t14 6h101q8 0 14 -6t6 -14v-470q0 -33 25 -56.5t70 -23.5q46 0 71.5 23.5t25.5 56.5v470q0 8 6 14t14 6h101q8 0 14 -6t6 -14v-470zM252 910
q11 0 16.5 -5.5t9.5 -10.5l82 -114q9 -12 3 -21t-16 -9h-69q-14 0 -19.5 3.5t-10.5 8.5l-115 121q-8 9 -5 18t17 9h107z" />
    <glyph glyph-name="Uacute" unicode="&#xda;" horiz-adv-x="582" 
d="M528 210q0 -45 -18 -85.5t-49.5 -70.5t-75 -47.5t-95.5 -17.5q-51 0 -94.5 17.5t-75 47.5t-49 70.5t-17.5 85.5v470q0 8 6 14t14 6h101q8 0 14 -6t6 -14v-470q0 -33 25 -56.5t70 -23.5q46 0 71.5 23.5t25.5 56.5v470q0 8 6 14t14 6h101q8 0 14 -6t6 -14v-470zM449 910
q14 0 17 -9t-5 -18l-115 -121q-5 -5 -10.5 -8.5t-19.5 -3.5h-69q-10 0 -16 9t3 21l82 114q4 5 9.5 10.5t16.5 5.5h107z" />
    <glyph glyph-name="Ucircumflex" unicode="&#xdb;" horiz-adv-x="582" 
d="M528 210q0 -45 -18 -85.5t-49.5 -70.5t-75 -47.5t-95.5 -17.5q-51 0 -94.5 17.5t-75 47.5t-49 70.5t-17.5 85.5v470q0 8 6 14t14 6h101q8 0 14 -6t6 -14v-470q0 -33 25 -56.5t70 -23.5q46 0 71.5 23.5t25.5 56.5v470q0 8 6 14t14 6h101q8 0 14 -6t6 -14v-470zM254 766
q-4 -5 -12 -10.5t-19 -5.5h-95q-13 0 -14.5 10t3.5 15l119 123q5 5 10.5 8.5t19.5 3.5h62q13 0 18.5 -3.5t10.5 -8.5l119 -123q5 -5 3 -15t-16 -10h-94q-11 0 -19 5.5t-12 10.5l-35 44q-7 10 -14 0z" />
    <glyph glyph-name="Udieresis" unicode="&#xdc;" horiz-adv-x="582" 
d="M528 210q0 -45 -18 -85.5t-49.5 -70.5t-75 -47.5t-95.5 -17.5q-51 0 -94.5 17.5t-75 47.5t-49 70.5t-17.5 85.5v470q0 8 6 14t14 6h101q8 0 14 -6t6 -14v-470q0 -33 25 -56.5t70 -23.5q46 0 71.5 23.5t25.5 56.5v470q0 8 6 14t14 6h101q8 0 14 -6t6 -14v-470zM262 780
q0 -8 -6 -14t-14 -6h-90q-8 0 -14 6t-6 14v90q0 8 6 14t14 6h90q8 0 14 -6t6 -14v-90zM462 780q0 -8 -6 -14t-14 -6h-90q-8 0 -14 6t-6 14v90q0 8 6 14t14 6h90q8 0 14 -6t6 -14v-90z" />
    <glyph glyph-name="Yacute" unicode="&#xdd;" horiz-adv-x="518" 
d="M253 408q2 -5 6 -5t6 5l96 277q5 15 19 15h110q10 0 15.5 -8.5t0.5 -19.5l-177 -446v-206q0 -8 -6 -14t-14 -6h-100q-8 0 -14 6t-6 14v206l-177 446q-5 11 0.5 19.5t15.5 8.5h110q14 0 19 -15zM409 910q14 0 17 -9t-5 -18l-115 -121q-5 -5 -10.5 -8.5t-19.5 -3.5h-69
q-10 0 -16 9t3 21l82 114q4 5 9.5 10.5t16.5 5.5h107z" />
    <glyph glyph-name="Thorn" unicode="&#xde;" horiz-adv-x="540" 
d="M495 330q0 -44 -16.5 -82t-45 -66.5t-67 -45t-81.5 -16.5h-70q-10 0 -10 -10v-90q0 -8 -6 -14t-14 -6h-100q-8 0 -14 6t-6 14v660q0 8 6 14t14 6h100q8 0 14 -6t6 -14v-80q0 -10 10 -10h70q43 0 81.5 -16.5t67 -45t45 -67t16.5 -81.5v-50zM355 380q0 29 -20.5 49.5
t-49.5 20.5h-70q-10 0 -10 -10v-170q0 -10 10 -10h70q29 0 49.5 20.5t20.5 49.5v50z" />
    <glyph glyph-name="germandbls" unicode="&#xdf;" horiz-adv-x="537" 
d="M263 0q-8 0 -14 6t-6 14v91q0 8 6 14t14 6h16q39 0 65.5 19t26.5 58q0 43 -26.5 64t-65.5 21h-12q-8 0 -14 6t-6 14v89q0 8 6 14t14 6h12q35 0 59 22t24 57q0 34 -22.5 55.5t-60.5 21.5t-60.5 -20.5t-22.5 -56.5v-481q0 -8 -6 -14t-14 -6h-91q-8 0 -14 6t-6 14v481
q0 44 17 82t46 66t68 44t83 16t83 -16t68 -44t45.5 -66t16.5 -82q0 -38 -15 -70t-36 -58q-5 -6 -5 -11t6 -11q26 -27 43 -62.5t17 -80.5q0 -48 -17.5 -86.5t-48 -65.5t-71 -41.5t-86.5 -14.5h-16z" />
    <glyph glyph-name="agrave" unicode="&#xe0;" horiz-adv-x="512" 
d="M216 204q-16 0 -26 -5.5t-15.5 -13.5t-7.5 -16.5t-2 -14.5q0 -28 19.5 -40.5t46.5 -12.5q43 0 72 15t29 54v24q0 10 -10 10h-106zM250 397q-8 0 -18.5 -1.5t-21 -5.5t-18.5 -11.5t-11 -19.5q-3 -13 -8 -16t-19 -3h-72q-8 0 -14 6t-6 14q0 30 13.5 57t38 48t60.5 33.5
t81 12.5q91 0 145.5 -46.5t54.5 -134.5v-310q0 -8 -6 -14t-14 -6h-50q-8 0 -14 7q-5 6 -7.5 13t-12.5 7q-7 0 -16 -6t-23 -13t-33.5 -13t-47.5 -6q-88 0 -138 43t-50 122q0 26 10.5 53.5t32 50.5t54 37.5t75.5 14.5h102q10 0 10 10v16q0 31 -22 46t-55 15zM222 730
q11 0 16.5 -5.5t9.5 -10.5l82 -114q9 -12 3 -21t-16 -9h-69q-14 0 -19.5 3.5t-10.5 8.5l-115 121q-8 9 -5 18t17 9h107z" />
    <glyph glyph-name="aacute" unicode="&#xe1;" horiz-adv-x="512" 
d="M216 204q-16 0 -26 -5.5t-15.5 -13.5t-7.5 -16.5t-2 -14.5q0 -28 19.5 -40.5t46.5 -12.5q43 0 72 15t29 54v24q0 10 -10 10h-106zM250 397q-8 0 -18.5 -1.5t-21 -5.5t-18.5 -11.5t-11 -19.5q-3 -13 -8 -16t-19 -3h-72q-8 0 -14 6t-6 14q0 30 13.5 57t38 48t60.5 33.5
t81 12.5q91 0 145.5 -46.5t54.5 -134.5v-310q0 -8 -6 -14t-14 -6h-50q-8 0 -14 7q-5 6 -7.5 13t-12.5 7q-7 0 -16 -6t-23 -13t-33.5 -13t-47.5 -6q-88 0 -138 43t-50 122q0 26 10.5 53.5t32 50.5t54 37.5t75.5 14.5h102q10 0 10 10v16q0 31 -22 46t-55 15zM410 730
q14 0 17 -9t-5 -18l-115 -121q-5 -5 -10.5 -8.5t-19.5 -3.5h-69q-10 0 -16 9t3 21l82 114q4 5 9.5 10.5t16.5 5.5h107z" />
    <glyph glyph-name="acircumflex" unicode="&#xe2;" horiz-adv-x="512" 
d="M216 204q-16 0 -26 -5.5t-15.5 -13.5t-7.5 -16.5t-2 -14.5q0 -28 19.5 -40.5t46.5 -12.5q43 0 72 15t29 54v24q0 10 -10 10h-106zM250 397q-8 0 -18.5 -1.5t-21 -5.5t-18.5 -11.5t-11 -19.5q-3 -13 -8 -16t-19 -3h-72q-8 0 -14 6t-6 14q0 30 13.5 57t38 48t60.5 33.5
t81 12.5q91 0 145.5 -46.5t54.5 -134.5v-310q0 -8 -6 -14t-14 -6h-50q-8 0 -14 7q-5 6 -7.5 13t-12.5 7q-7 0 -16 -6t-23 -13t-33.5 -13t-47.5 -6q-88 0 -138 43t-50 122q0 26 10.5 53.5t32 50.5t54 37.5t75.5 14.5h102q10 0 10 10v16q0 31 -22 46t-55 15zM215 586
q-4 -5 -12 -10.5t-19 -5.5h-95q-13 0 -14.5 10t3.5 15l119 123q5 5 10.5 8.5t19.5 3.5h62q13 0 18.5 -3.5t10.5 -8.5l119 -123q5 -5 3 -15t-16 -10h-94q-11 0 -19 5.5t-12 10.5l-35 44q-7 10 -14 0z" />
    <glyph glyph-name="atilde" unicode="&#xe3;" horiz-adv-x="512" 
d="M216 204q-16 0 -26 -5.5t-15.5 -13.5t-7.5 -16.5t-2 -14.5q0 -28 19.5 -40.5t46.5 -12.5q43 0 72 15t29 54v24q0 10 -10 10h-106zM250 397q-8 0 -18.5 -1.5t-21 -5.5t-18.5 -11.5t-11 -19.5q-3 -13 -8 -16t-19 -3h-72q-8 0 -14 6t-6 14q0 30 13.5 57t38 48t60.5 33.5
t81 12.5q91 0 145.5 -46.5t54.5 -134.5v-310q0 -8 -6 -14t-14 -6h-50q-8 0 -14 7q-5 6 -7.5 13t-12.5 7q-7 0 -16 -6t-23 -13t-33.5 -13t-47.5 -6q-88 0 -138 43t-50 122q0 26 10.5 53.5t32 50.5t54 37.5t75.5 14.5h102q10 0 10 10v16q0 31 -22 46t-55 15zM348 684
q19 0 29.5 6.5t16.5 14.5t15.5 4t9.5 -18v-60q0 -20 -20.5 -35.5t-50.5 -15.5q-24 0 -45.5 4t-43 8.5t-44 8.5t-47.5 4q-17 0 -27.5 -5.5t-18.5 -15.5q-6 -7 -15.5 -3.5t-9.5 17.5v60q0 20 20.5 35.5t50.5 15.5q24 0 45.5 -4t43 -8.5t43.5 -8.5t48 -4z" />
    <glyph glyph-name="adieresis" unicode="&#xe4;" horiz-adv-x="512" 
d="M216 204q-16 0 -26 -5.5t-15.5 -13.5t-7.5 -16.5t-2 -14.5q0 -28 19.5 -40.5t46.5 -12.5q43 0 72 15t29 54v24q0 10 -10 10h-106zM250 397q-8 0 -18.5 -1.5t-21 -5.5t-18.5 -11.5t-11 -19.5q-3 -13 -8 -16t-19 -3h-72q-8 0 -14 6t-6 14q0 30 13.5 57t38 48t60.5 33.5
t81 12.5q91 0 145.5 -46.5t54.5 -134.5v-310q0 -8 -6 -14t-14 -6h-50q-8 0 -14 7q-5 6 -7.5 13t-12.5 7q-7 0 -16 -6t-23 -13t-33.5 -13t-47.5 -6q-88 0 -138 43t-50 122q0 26 10.5 53.5t32 50.5t54 37.5t75.5 14.5h102q10 0 10 10v16q0 31 -22 46t-55 15zM223 600
q0 -8 -6 -14t-14 -6h-90q-8 0 -14 6t-6 14v90q0 8 6 14t14 6h90q8 0 14 -6t6 -14v-90zM423 600q0 -8 -6 -14t-14 -6h-90q-8 0 -14 6t-6 14v90q0 8 6 14t14 6h90q8 0 14 -6t6 -14v-90z" />
    <glyph glyph-name="aring" unicode="&#xe5;" horiz-adv-x="512" 
d="M216 204q-16 0 -26 -5.5t-15.5 -13.5t-7.5 -16.5t-2 -14.5q0 -28 19.5 -40.5t46.5 -12.5q43 0 72 15t29 54v24q0 10 -10 10h-106zM250 397q-8 0 -18.5 -1.5t-21 -5.5t-18.5 -11.5t-11 -19.5q-3 -13 -8 -16t-19 -3h-72q-8 0 -14 6t-6 14q0 30 13.5 57t38 48t60.5 33.5
t81 12.5q91 0 145.5 -46.5t54.5 -134.5v-310q0 -8 -6 -14t-14 -6h-50q-8 0 -14 7q-5 6 -7.5 13t-12.5 7q-7 0 -16 -6t-23 -13t-33.5 -13t-47.5 -6q-88 0 -138 43t-50 122q0 26 10.5 53.5t32 50.5t54 37.5t75.5 14.5h102q10 0 10 10v16q0 31 -22 46t-55 15zM146 670
q0 24 9 45t25 36.5t37 24.5t45 9t45 -9t36.5 -24.5t24.5 -36.5t9 -45t-9 -45t-24.5 -37t-36.5 -25t-45 -9t-45 9t-37 25t-25 37t-9 45zM230 670q0 -14 9 -23t23 -9t23 9t9 23t-9 23t-23 9t-23 -9t-9 -23z" />
    <glyph glyph-name="ae" unicode="&#xe6;" horiz-adv-x="814" 
d="M336 194q0 10 -10 10h-106q-16 0 -26 -5.5t-15.5 -13.5t-7.5 -16.5t-2 -14.5q0 -28 19.5 -40.5t46.5 -12.5q43 0 72 15t29 54v24zM424 463q26 23 60 35.5t76 12.5q45 0 82.5 -13t64.5 -38.5t42 -62t15 -84.5v-83q0 -8 -6 -14t-14 -6h-257q-15 0 -15 -15q0 -42 26 -65.5
t62 -23.5q60 0 79 46q7 17 23 17h83q8 0 13.5 -4.5t3.5 -15.5q-14 -71 -66 -115.5t-136 -44.5q-42 0 -74.5 12t-58.5 33q-10 8 -19.5 7t-18.5 -7q-29 -20 -66 -32.5t-88 -12.5q-88 0 -138 43t-50 122q0 26 10.5 53.5t32 50.5t54 37.5t75.5 14.5h102q10 0 10 10v16
q0 31 -22 46t-55 15q-8 0 -18.5 -1.5t-21 -5.5t-18.5 -11.5t-11 -19.5q-3 -13 -8 -16t-19 -3h-72q-8 0 -14 6t-6 14q0 30 13.5 57t38 48t60.5 33.5t81 12.5q36 0 71.5 -12.5t63.5 -35.5q6 -5 14 -6t16 6zM560 393q-43 0 -65 -22.5t-22 -51.5q0 -9 10 -9h152q10 0 10 9
q0 19 -7 33t-19 23t-27.5 13.5t-31.5 4.5z" />
    <glyph glyph-name="ccedilla" unicode="&#xe7;" horiz-adv-x="498" 
d="M333 189q3 16 19 16h89q8 0 12.5 -6t4.5 -14q0 -46 -16.5 -82t-44.5 -61.5t-65 -39t-78 -13.5q-46 0 -82.5 14.5t-63 39.5t-42 59t-20.5 73q-2 15 -3 34.5t-1 40.5t1 40.5t3 34.5q5 39 20.5 73t42 59t63 39.5t82.5 14.5q41 0 78 -13t65 -38.5t44.5 -62t16.5 -82.5
q0 -8 -4.5 -14t-12.5 -6h-89q-7 0 -12.5 4t-6.5 12q-2 37 -23.5 53.5t-56.5 16.5q-38 0 -55.5 -13.5t-21.5 -42.5q-2 -15 -3 -34.5t-1 -40.5t1 -40.5t3 -34.5q3 -26 21.5 -41t56.5 -15q33 0 53 14.5t26 55.5zM283 -45q24 0 28.5 -13.5t1.5 -25.5l-21 -92q-6 -24 -32 -24h-62
q-24 0 -29 14t-1 25l29 92q7 24 32 24h54z" />
    <glyph glyph-name="egrave" unicode="&#xe8;" horiz-adv-x="499" 
d="M253 393q-43 0 -65 -17t-22 -46q0 -9 10 -9h152q10 0 10 9q0 16 -7 28t-19 19.5t-27.5 11.5t-31.5 4zM180 210q-15 0 -15 -15q0 -42 26 -63.5t62 -21.5q29 0 49 9t30 33q7 17 23 17h83q8 0 14 -5t3 -17q-17 -70 -67.5 -114t-134.5 -44q-46 0 -82 14.5t-62.5 39.5t-42 59
t-20.5 73q-2 15 -3 34.5t-1 40.5t1 40.5t3 34.5q5 39 20.5 73t42 59t62.5 39.5t82 14.5q45 0 82.5 -13t64.5 -38.5t42 -62t15 -84.5v-83q0 -8 -6 -14t-14 -6h-257zM224 730q11 0 16.5 -5.5t9.5 -10.5l82 -114q9 -12 3 -21t-16 -9h-69q-14 0 -19.5 3.5t-10.5 8.5l-115 121
q-8 9 -5 18t17 9h107z" />
    <glyph glyph-name="eacute" unicode="&#xe9;" horiz-adv-x="499" 
d="M253 393q-43 0 -65 -17t-22 -46q0 -9 10 -9h152q10 0 10 9q0 16 -7 28t-19 19.5t-27.5 11.5t-31.5 4zM180 210q-15 0 -15 -15q0 -42 26 -63.5t62 -21.5q29 0 49 9t30 33q7 17 23 17h83q8 0 14 -5t3 -17q-17 -70 -67.5 -114t-134.5 -44q-46 0 -82 14.5t-62.5 39.5t-42 59
t-20.5 73q-2 15 -3 34.5t-1 40.5t1 40.5t3 34.5q5 39 20.5 73t42 59t62.5 39.5t82 14.5q45 0 82.5 -13t64.5 -38.5t42 -62t15 -84.5v-83q0 -8 -6 -14t-14 -6h-257zM412 730q14 0 17 -9t-5 -18l-115 -121q-5 -5 -10.5 -8.5t-19.5 -3.5h-69q-10 0 -16 9t3 21l82 114
q4 5 9.5 10.5t16.5 5.5h107z" />
    <glyph glyph-name="ecircumflex" unicode="&#xea;" horiz-adv-x="499" 
d="M253 393q-43 0 -65 -17t-22 -46q0 -9 10 -9h152q10 0 10 9q0 16 -7 28t-19 19.5t-27.5 11.5t-31.5 4zM180 210q-15 0 -15 -15q0 -42 26 -63.5t62 -21.5q29 0 49 9t30 33q7 17 23 17h83q8 0 14 -5t3 -17q-17 -70 -67.5 -114t-134.5 -44q-46 0 -82 14.5t-62.5 39.5t-42 59
t-20.5 73q-2 15 -3 34.5t-1 40.5t1 40.5t3 34.5q5 39 20.5 73t42 59t62.5 39.5t82 14.5q45 0 82.5 -13t64.5 -38.5t42 -62t15 -84.5v-83q0 -8 -6 -14t-14 -6h-257zM217 586q-4 -5 -12 -10.5t-19 -5.5h-95q-13 0 -14.5 10t3.5 15l119 123q5 5 10.5 8.5t19.5 3.5h62
q13 0 18.5 -3.5t10.5 -8.5l119 -123q5 -5 3 -15t-16 -10h-94q-11 0 -19 5.5t-12 10.5l-35 44q-7 10 -14 0z" />
    <glyph glyph-name="edieresis" unicode="&#xeb;" horiz-adv-x="499" 
d="M253 393q-43 0 -65 -17t-22 -46q0 -9 10 -9h152q10 0 10 9q0 16 -7 28t-19 19.5t-27.5 11.5t-31.5 4zM180 210q-15 0 -15 -15q0 -42 26 -63.5t62 -21.5q29 0 49 9t30 33q7 17 23 17h83q8 0 14 -5t3 -17q-17 -70 -67.5 -114t-134.5 -44q-46 0 -82 14.5t-62.5 39.5t-42 59
t-20.5 73q-2 15 -3 34.5t-1 40.5t1 40.5t3 34.5q5 39 20.5 73t42 59t62.5 39.5t82 14.5q45 0 82.5 -13t64.5 -38.5t42 -62t15 -84.5v-83q0 -8 -6 -14t-14 -6h-257zM231 600q0 -8 -6 -14t-14 -6h-90q-8 0 -14 6t-6 14v90q0 8 6 14t14 6h90q8 0 14 -6t6 -14v-90zM431 600
q0 -8 -6 -14t-14 -6h-90q-8 0 -14 6t-6 14v90q0 8 6 14t14 6h90q8 0 14 -6t6 -14v-90z" />
    <glyph glyph-name="igrave" unicode="&#xec;" 
d="M90 730q11 0 16.5 -5.5t9.5 -10.5l82 -114q9 -12 3 -21t-16 -9h-69q-14 0 -19.5 3.5t-10.5 8.5l-115 121q-8 9 -5 18t17 9h107zM200 16q0 -6 -4.5 -11t-11.5 -5h-98q-7 0 -11.5 5t-4.5 11v468q0 6 4.5 11t11.5 5h98q7 0 11.5 -5t4.5 -11v-468z" />
    <glyph glyph-name="iacute" unicode="&#xed;" 
d="M277 730q14 0 17 -9t-5 -18l-115 -121q-5 -5 -10.5 -8.5t-19.5 -3.5h-69q-10 0 -16 9t3 21l82 114q4 5 9.5 10.5t16.5 5.5h107zM200 16q0 -6 -4.5 -11t-11.5 -5h-98q-7 0 -11.5 5t-4.5 11v468q0 6 4.5 11t11.5 5h98q7 0 11.5 -5t4.5 -11v-468z" />
    <glyph glyph-name="icircumflex" unicode="&#xee;" 
d="M200 16q0 -6 -4.5 -11t-11.5 -5h-98q-7 0 -11.5 5t-4.5 11v468q0 6 4.5 11t11.5 5h98q7 0 11.5 -5t4.5 -11v-468zM93 586q-4 -5 -12 -10.5t-19 -5.5h-95q-13 0 -14.5 10t3.5 15l119 123q5 5 10.5 8.5t19.5 3.5h62q13 0 18.5 -3.5t10.5 -8.5l119 -123q5 -5 3 -15t-16 -10
h-94q-11 0 -19 5.5t-12 10.5l-35 44q-7 10 -14 0z" />
    <glyph glyph-name="idieresis" unicode="&#xef;" 
d="M100 600q0 -8 -6 -14t-14 -6h-90q-8 0 -14 6t-6 14v90q0 8 6 14t14 6h90q8 0 14 -6t6 -14v-90zM300 600q0 -8 -6 -14t-14 -6h-90q-8 0 -14 6t-6 14v90q0 8 6 14t14 6h90q8 0 14 -6t6 -14v-90zM200 16q0 -6 -4.5 -11t-11.5 -5h-98q-7 0 -11.5 5t-4.5 11v468q0 6 4.5 11
t11.5 5h98q7 0 11.5 -5t4.5 -11v-468z" />
    <glyph glyph-name="eth" unicode="&#xf0;" horiz-adv-x="550" 
d="M250 335q-39 0 -62.5 -25.5t-26.5 -64.5q-1 -20 0 -39q3 -39 26.5 -62.5t62.5 -23.5t62.5 23.5t26.5 62.5q1 19 0 39q-3 39 -26.5 64.5t-62.5 25.5zM339 663q5 -2 9 1l72 41q7 5 16 0.5t9 -14.5v-61q0 -10 -3 -14.5t-10 -9.5l-15 -10q-8 -6 -5 -10q13 -20 22.5 -48.5
t17.5 -57.5q7 -26 12 -60.5t7 -71.5t1.5 -74t-4.5 -68q-5 -45 -20 -84.5t-41 -69t-65 -46.5t-92 -17t-94 17t-70 46.5t-44 69.5t-15 86v35q0 46 17.5 85.5t48 69t71 46t86.5 16.5q9 0 22.5 -2.5t23.5 -7.5q8 -5 15.5 -1.5t7.5 14.5q0 17 -4.5 31t-11.5 26q-4 8 -10 4
l-67 -46q-8 -5 -18 -1t-10 15v40q0 8 2 14t13 14q7 5 4.5 7.5t-6.5 2.5h-63q-8 0 -14 6t-6 14v90q0 8 6 14t14 6h66q73 0 125 -37z" />
    <glyph glyph-name="ntilde" unicode="&#xf1;" horiz-adv-x="525" 
d="M470 20q0 -8 -6 -14t-14 -6h-90q-8 0 -14 6t-6 14v306q0 25 -19.5 42t-55.5 17q-35 0 -55 -16t-20 -39v-310q0 -8 -6 -14t-14 -6h-90q-8 0 -14 6t-6 14v460q0 8 6 14t14 6h50q11 0 18 -7q6 -5 11 -11t16 -6t21 5.5t22.5 12t28 12t38.5 5.5q39 0 73 -14.5t59 -39.5t39 -59
t14 -73v-305zM352 684q19 0 29.5 6.5t16.5 14.5t15.5 4t9.5 -18v-60q0 -20 -20.5 -35.5t-50.5 -15.5q-24 0 -45.5 4t-43 8.5t-44 8.5t-47.5 4q-17 0 -27.5 -5.5t-18.5 -15.5q-6 -7 -15.5 -3.5t-9.5 17.5v60q0 20 20.5 35.5t50.5 15.5q24 0 45.5 -4t43 -8.5t43.5 -8.5t48 -4z
" />
    <glyph glyph-name="ograve" unicode="&#xf2;" horiz-adv-x="507" 
d="M176 325q-2 -15 -3.5 -34.5t-1.5 -40.5t1.5 -40.5t3.5 -34.5q4 -26 21.5 -41t55.5 -15t56 15.5t22 40.5q2 15 3 34.5t1 40.5t-1 40.5t-3 34.5q-4 25 -22 40.5t-56 15.5t-55 -13.5t-22 -42.5zM46 175q-2 15 -3 34.5t-1 40.5t1 40.5t3 34.5q5 39 20.5 73t42 59t62.5 39.5
t82 14.5t82.5 -14.5t62.5 -39.5t42 -59t21 -73q2 -15 3 -34.5t1 -40.5t-1 -40.5t-3 -34.5q-5 -39 -20.5 -73t-42 -59t-62.5 -39.5t-82 -14.5t-82.5 14.5t-63 39.5t-42 59t-20.5 73zM216 730q11 0 16.5 -5.5t9.5 -10.5l82 -114q9 -12 3 -21t-16 -9h-69q-14 0 -19.5 3.5
t-10.5 8.5l-115 121q-8 9 -5 18t17 9h107z" />
    <glyph glyph-name="oacute" unicode="&#xf3;" horiz-adv-x="507" 
d="M176 325q-2 -15 -3.5 -34.5t-1.5 -40.5t1.5 -40.5t3.5 -34.5q4 -26 21.5 -41t55.5 -15t56 15.5t22 40.5q2 15 3 34.5t1 40.5t-1 40.5t-3 34.5q-4 25 -22 40.5t-56 15.5t-55 -13.5t-22 -42.5zM46 175q-2 15 -3 34.5t-1 40.5t1 40.5t3 34.5q5 39 20.5 73t42 59t62.5 39.5
t82 14.5t82.5 -14.5t62.5 -39.5t42 -59t21 -73q2 -15 3 -34.5t1 -40.5t-1 -40.5t-3 -34.5q-5 -39 -20.5 -73t-42 -59t-62.5 -39.5t-82 -14.5t-82.5 14.5t-63 39.5t-42 59t-20.5 73zM414 730q14 0 17 -9t-5 -18l-115 -121q-5 -5 -10.5 -8.5t-19.5 -3.5h-69q-10 0 -16 9t3 21
l82 114q4 5 9.5 10.5t16.5 5.5h107z" />
    <glyph glyph-name="ocircumflex" unicode="&#xf4;" horiz-adv-x="507" 
d="M176 325q-2 -15 -3.5 -34.5t-1.5 -40.5t1.5 -40.5t3.5 -34.5q4 -26 21.5 -41t55.5 -15t56 15.5t22 40.5q2 15 3 34.5t1 40.5t-1 40.5t-3 34.5q-4 25 -22 40.5t-56 15.5t-55 -13.5t-22 -42.5zM46 175q-2 15 -3 34.5t-1 40.5t1 40.5t3 34.5q5 39 20.5 73t42 59t62.5 39.5
t82 14.5t82.5 -14.5t62.5 -39.5t42 -59t21 -73q2 -15 3 -34.5t1 -40.5t-1 -40.5t-3 -34.5q-5 -39 -20.5 -73t-42 -59t-62.5 -39.5t-82 -14.5t-82.5 14.5t-63 39.5t-42 59t-20.5 73zM219 586q-4 -5 -12 -10.5t-19 -5.5h-95q-13 0 -14.5 10t3.5 15l119 123q5 5 10.5 8.5
t19.5 3.5h62q13 0 18.5 -3.5t10.5 -8.5l119 -123q5 -5 3 -15t-16 -10h-94q-11 0 -19 5.5t-12 10.5l-35 44q-7 10 -14 0z" />
    <glyph glyph-name="otilde" unicode="&#xf5;" horiz-adv-x="507" 
d="M176 325q-2 -15 -3.5 -34.5t-1.5 -40.5t1.5 -40.5t3.5 -34.5q4 -26 21.5 -41t55.5 -15t56 15.5t22 40.5q2 15 3 34.5t1 40.5t-1 40.5t-3 34.5q-4 25 -22 40.5t-56 15.5t-55 -13.5t-22 -42.5zM46 175q-2 15 -3 34.5t-1 40.5t1 40.5t3 34.5q5 39 20.5 73t42 59t62.5 39.5
t82 14.5t82.5 -14.5t62.5 -39.5t42 -59t21 -73q2 -15 3 -34.5t1 -40.5t-1 -40.5t-3 -34.5q-5 -39 -20.5 -73t-42 -59t-62.5 -39.5t-82 -14.5t-82.5 14.5t-63 39.5t-42 59t-20.5 73zM351 684q19 0 29.5 6.5t16.5 14.5t15.5 4t9.5 -18v-60q0 -20 -20.5 -35.5t-50.5 -15.5
q-24 0 -45.5 4t-43 8.5t-44 8.5t-47.5 4q-17 0 -27.5 -5.5t-18.5 -15.5q-6 -7 -15.5 -3.5t-9.5 17.5v60q0 20 20.5 35.5t50.5 15.5q24 0 45.5 -4t43 -8.5t43.5 -8.5t48 -4z" />
    <glyph glyph-name="odieresis" unicode="&#xf6;" horiz-adv-x="507" 
d="M176 325q-2 -15 -3.5 -34.5t-1.5 -40.5t1.5 -40.5t3.5 -34.5q4 -26 21.5 -41t55.5 -15t56 15.5t22 40.5q2 15 3 34.5t1 40.5t-1 40.5t-3 34.5q-4 25 -22 40.5t-56 15.5t-55 -13.5t-22 -42.5zM46 175q-2 15 -3 34.5t-1 40.5t1 40.5t3 34.5q5 39 20.5 73t42 59t62.5 39.5
t82 14.5t82.5 -14.5t62.5 -39.5t42 -59t21 -73q2 -15 3 -34.5t1 -40.5t-1 -40.5t-3 -34.5q-5 -39 -20.5 -73t-42 -59t-62.5 -39.5t-82 -14.5t-82.5 14.5t-63 39.5t-42 59t-20.5 73zM227 600q0 -8 -6 -14t-14 -6h-90q-8 0 -14 6t-6 14v90q0 8 6 14t14 6h90q8 0 14 -6t6 -14
v-90zM427 600q0 -8 -6 -14t-14 -6h-90q-8 0 -14 6t-6 14v90q0 8 6 14t14 6h90q8 0 14 -6t6 -14v-90z" />
    <glyph glyph-name="divide" unicode="&#xf7;" horiz-adv-x="550" 
d="M326 143q8 0 14 -6t6 -14v-103q0 -8 -6 -14t-14 -6h-103q-8 0 -14 6t-6 14v103q0 8 6 14t14 6h103zM346 377q0 -8 -6 -14t-14 -6h-103q-8 0 -14 6t-6 14v103q0 8 6 14t14 6h103q8 0 14 -6t6 -14v-103zM500 212q0 -8 -6 -14t-14 -6h-410q-8 0 -14 6t-6 14v79q0 8 6 14
t14 6h410q8 0 14 -6t6 -14v-79z" />
    <glyph glyph-name="oslash" unicode="&#xf8;" horiz-adv-x="523" 
d="M446 413q-3 -4 -2.5 -5.5t1.5 -3.5q18 -36 24 -79q2 -15 3 -34.5t1 -40.5t-1 -40.5t-3 -34.5q-5 -39 -20.5 -73t-42 -59t-62.5 -39.5t-82 -14.5q-36 0 -65 8t-53 24q-2 2 -5 3t-7 -4l-6 -7q-10 -13 -24 -13h-66q-10 0 -14.5 9.5t3.5 18.5l48 59q5 6 4 9t-2 5
q-8 17 -13.5 35.5t-7.5 38.5q-2 15 -3 34.5t-1 40.5t1 40.5t3 34.5q5 39 20.5 73t42 59t62.5 39.5t82 14.5q35 0 64 -8.5t52 -22.5l4 -2t6 3l4 4q13 15 24 15h64q10 0 15.5 -9.5t-2.5 -18.5zM339 175q3 19 4 45.5t0 52.5q0 3 -1.5 5t-5.5 -3l-113 -140q-5 -5 -2.5 -7.5
t4.5 -3.5q17 -5 36 -5q38 0 56 15.5t22 40.5zM184 325q-3 -18 -4.5 -42.5t-0.5 -49.5q0 -3 2 -5.5t7 3.5l109 137q4 5 1.5 6.5t-4.5 2.5q-7 2 -15.5 3t-17.5 1q-38 0 -55 -13.5t-22 -42.5z" />
    <glyph glyph-name="ugrave" unicode="&#xf9;" horiz-adv-x="525" 
d="M55 480q0 8 6 14t14 6h90q8 0 14 -6t6 -14v-306q0 -25 19.5 -42t55.5 -17q35 0 55 16t20 39v310q0 8 6 14t14 6h90q8 0 14 -6t6 -14v-460q0 -8 -6 -14t-14 -6h-50q-9 0 -14 3t-9 7q-5 4 -9.5 7t-12.5 3q-11 0 -20.5 -5t-20.5 -10.5t-26.5 -10.5t-37.5 -5q-39 0 -74 14.5
t-60.5 39.5t-40.5 59t-15 73v305zM215 730q11 0 16.5 -5.5t9.5 -10.5l82 -114q9 -12 3 -21t-16 -9h-69q-14 0 -19.5 3.5t-10.5 8.5l-115 121q-8 9 -5 18t17 9h107z" />
    <glyph glyph-name="uacute" unicode="&#xfa;" horiz-adv-x="525" 
d="M55 480q0 8 6 14t14 6h90q8 0 14 -6t6 -14v-306q0 -25 19.5 -42t55.5 -17q35 0 55 16t20 39v310q0 8 6 14t14 6h90q8 0 14 -6t6 -14v-460q0 -8 -6 -14t-14 -6h-50q-9 0 -14 3t-9 7q-5 4 -9.5 7t-12.5 3q-11 0 -20.5 -5t-20.5 -10.5t-26.5 -10.5t-37.5 -5q-39 0 -74 14.5
t-60.5 39.5t-40.5 59t-15 73v305zM412 730q14 0 17 -9t-5 -18l-115 -121q-5 -5 -10.5 -8.5t-19.5 -3.5h-69q-10 0 -16 9t3 21l82 114q4 5 9.5 10.5t16.5 5.5h107z" />
    <glyph glyph-name="ucircumflex" unicode="&#xfb;" horiz-adv-x="525" 
d="M55 480q0 8 6 14t14 6h90q8 0 14 -6t6 -14v-306q0 -25 19.5 -42t55.5 -17q35 0 55 16t20 39v310q0 8 6 14t14 6h90q8 0 14 -6t6 -14v-460q0 -8 -6 -14t-14 -6h-50q-9 0 -14 3t-9 7q-5 4 -9.5 7t-12.5 3q-11 0 -20.5 -5t-20.5 -10.5t-26.5 -10.5t-37.5 -5q-39 0 -74 14.5
t-60.5 39.5t-40.5 59t-15 73v305zM217 586q-4 -5 -12 -10.5t-19 -5.5h-95q-13 0 -14.5 10t3.5 15l119 123q5 5 10.5 8.5t19.5 3.5h62q13 0 18.5 -3.5t10.5 -8.5l119 -123q5 -5 3 -15t-16 -10h-94q-11 0 -19 5.5t-12 10.5l-35 44q-7 10 -14 0z" />
    <glyph glyph-name="udieresis" unicode="&#xfc;" horiz-adv-x="525" 
d="M55 480q0 8 6 14t14 6h90q8 0 14 -6t6 -14v-306q0 -25 19.5 -42t55.5 -17q35 0 55 16t20 39v310q0 8 6 14t14 6h90q8 0 14 -6t6 -14v-460q0 -8 -6 -14t-14 -6h-50q-9 0 -14 3t-9 7q-5 4 -9.5 7t-12.5 3q-11 0 -20.5 -5t-20.5 -10.5t-26.5 -10.5t-37.5 -5q-39 0 -74 14.5
t-60.5 39.5t-40.5 59t-15 73v305zM225 600q0 -8 -6 -14t-14 -6h-90q-8 0 -14 6t-6 14v90q0 8 6 14t14 6h90q8 0 14 -6t6 -14v-90zM425 600q0 -8 -6 -14t-14 -6h-90q-8 0 -14 6t-6 14v90q0 8 6 14t14 6h90q8 0 14 -6t6 -14v-90z" />
    <glyph glyph-name="yacute" unicode="&#xfd;" horiz-adv-x="485" 
d="M236 201q2 -6 6 -6t6 6l81 284q4 15 19 15h101q12 0 17 -7.5t2 -15.5l-235 -662q-5 -15 -19 -15h-92q-12 0 -17 7.5t-2 15.5l70 187q2 7 2.5 10.5t-2.5 11.5l-166 445q-3 8 2 15.5t17 7.5h103q14 0 19 -15zM410 730q14 0 17 -9t-5 -18l-115 -121q-5 -5 -10.5 -8.5
t-19.5 -3.5h-69q-10 0 -16 9t3 21l82 114q4 5 9.5 10.5t16.5 5.5h107z" />
    <glyph glyph-name="thorn" unicode="&#xfe;" horiz-adv-x="502" 
d="M184 524q0 -17 9.5 -21.5t20.5 0.5t24 8.5t36 3.5q39 0 72.5 -15t58.5 -40.5t40.5 -60.5t18.5 -74q1 -15 1.5 -34.5t0.5 -40.5t-0.5 -40.5t-1.5 -34.5q-3 -39 -18.5 -74t-40.5 -60.5t-58.5 -40.5t-72.5 -15q-23 0 -36 3.5t-24 8.5t-20.5 0.5t-9.5 -21.5v-156q0 -8 -6 -14
t-14 -6h-90q-8 0 -14 6t-6 14v870q0 8 6 14t14 6h90q8 0 14 -6t6 -14v-166zM334 175q1 15 1.5 34.5t0.5 40.5t-0.5 40.5t-1.5 34.5q-2 25 -20.5 42.5t-54.5 17.5q-37 0 -55.5 -17t-20.5 -43q-1 -15 -1.5 -34.5t-0.5 -40.5t0.5 -40.5t1.5 -34.5q2 -29 20.5 -44.5t55.5 -15.5
q36 0 54.5 17.5t20.5 42.5z" />
    <glyph glyph-name="ydieresis" unicode="&#xff;" horiz-adv-x="485" 
d="M236 201q2 -6 6 -6t6 6l81 284q4 15 19 15h101q12 0 17 -7.5t2 -15.5l-235 -662q-5 -15 -19 -15h-92q-12 0 -17 7.5t-2 15.5l70 187q2 7 2.5 10.5t-2.5 11.5l-166 445q-3 8 2 15.5t17 7.5h103q14 0 19 -15zM212 600q0 -8 -6 -14t-14 -6h-90q-8 0 -14 6t-6 14v90q0 8 6 14
t14 6h90q8 0 14 -6t6 -14v-90zM412 600q0 -8 -6 -14t-14 -6h-90q-8 0 -14 6t-6 14v90q0 8 6 14t14 6h90q8 0 14 -6t6 -14v-90z" />
    <glyph glyph-name="Amacron" unicode="&#x100;" horiz-adv-x="537" 
d="M314 273q11 0 8 11l-48 240q-1 4 -5 4h-2q-4 0 -5 -4l-48 -240q-3 -11 8 -11h92zM358 118q-2 6 -5 10.5t-10 4.5h-152q-12 0 -15 -15l-28 -103q-3 -15 -19 -15h-105q-12 0 -17 6.5t-3 13.5l179 665q3 15 19 15h134q16 0 19 -15l178 -665q2 -7 -3 -13.5t-17 -6.5h-105
q-14 0 -19 15zM398 858q8 0 14 -6t6 -14v-58q0 -8 -6 -14t-14 -6h-262q-8 0 -14 6t-6 14v58q0 8 6 14t14 6h262z" />
    <glyph glyph-name="amacron" unicode="&#x101;" horiz-adv-x="512" 
d="M216 204q-16 0 -26 -5.5t-15.5 -13.5t-7.5 -16.5t-2 -14.5q0 -28 19.5 -40.5t46.5 -12.5q43 0 72 15t29 54v24q0 10 -10 10h-106zM250 397q-8 0 -18.5 -1.5t-21 -5.5t-18.5 -11.5t-11 -19.5q-3 -13 -8 -16t-19 -3h-72q-8 0 -14 6t-6 14q0 30 13.5 57t38 48t60.5 33.5
t81 12.5q91 0 145.5 -46.5t54.5 -134.5v-310q0 -8 -6 -14t-14 -6h-50q-8 0 -14 7q-5 6 -7.5 13t-12.5 7q-7 0 -16 -6t-23 -13t-33.5 -13t-47.5 -6q-88 0 -138 43t-50 122q0 26 10.5 53.5t32 50.5t54 37.5t75.5 14.5h102q10 0 10 10v16q0 31 -22 46t-55 15zM399 694
q8 0 14 -6t6 -14v-58q0 -8 -6 -14t-14 -6h-262q-8 0 -14 6t-6 14v58q0 8 6 14t14 6h262z" />
    <glyph glyph-name="Abreve" unicode="&#x102;" horiz-adv-x="537" 
d="M314 273q11 0 8 11l-48 240q-1 4 -5 4h-2q-4 0 -5 -4l-48 -240q-3 -11 8 -11h92zM358 118q-2 6 -5 10.5t-10 4.5h-152q-12 0 -15 -15l-28 -103q-3 -15 -19 -15h-105q-12 0 -17 6.5t-3 13.5l179 665q3 15 19 15h134q16 0 19 -15l178 -665q2 -7 -3 -13.5t-17 -6.5h-105
q-14 0 -19 15zM328 886q0 7 4.5 12t12.5 5h63q7 0 12 -5t5 -12q0 -29 -11 -55.5t-31.5 -46.5t-49.5 -32t-65 -12t-65 12t-50 32t-32 46.5t-11 55.5q0 7 5 12t12 5h63q8 0 12.5 -5t4.5 -12q0 -23 19 -39.5t42 -16.5t41.5 16.5t18.5 39.5z" />
    <glyph glyph-name="abreve" unicode="&#x103;" horiz-adv-x="512" 
d="M216 204q-16 0 -26 -5.5t-15.5 -13.5t-7.5 -16.5t-2 -14.5q0 -28 19.5 -40.5t46.5 -12.5q43 0 72 15t29 54v24q0 10 -10 10h-106zM250 397q-8 0 -18.5 -1.5t-21 -5.5t-18.5 -11.5t-11 -19.5q-3 -13 -8 -16t-19 -3h-72q-8 0 -14 6t-6 14q0 30 13.5 57t38 48t60.5 33.5
t81 12.5q91 0 145.5 -46.5t54.5 -134.5v-310q0 -8 -6 -14t-14 -6h-50q-8 0 -14 7q-5 6 -7.5 13t-12.5 7q-7 0 -16 -6t-23 -13t-33.5 -13t-47.5 -6q-88 0 -138 43t-50 122q0 26 10.5 53.5t32 50.5t54 37.5t75.5 14.5h102q10 0 10 10v16q0 31 -22 46t-55 15zM328 713
q0 7 4.5 12t12.5 5h63q7 0 12 -5t5 -12q0 -29 -11 -55.5t-31.5 -46.5t-49.5 -32t-65 -12t-65 12t-50 32t-32 46.5t-11 55.5q0 7 5 12t12 5h63q8 0 12.5 -5t4.5 -12q0 -23 19 -39.5t42 -16.5t41.5 16.5t18.5 39.5z" />
    <glyph glyph-name="Aogonek" unicode="&#x104;" horiz-adv-x="538" 
d="M533 20q2 -7 -3 -13.5t-17 -6.5q-26 0 -42.5 -19t-16.5 -42q0 -26 16 -42.5t45 -16.5q8 0 14 -6t6 -14v-60q0 -8 -6 -14t-14 -6q-91 0 -135 43t-44 112q0 28 13.5 53t33.5 45l-25 85q-2 6 -5 10.5t-10 4.5h-152q-12 0 -15 -15l-28 -103q-3 -15 -19 -15h-105
q-12 0 -17 6.5t-3 13.5l179 665q3 15 19 15h134q16 0 19 -15zM274 524q-1 4 -5 4h-2q-4 0 -5 -4l-48 -240q-3 -11 8 -11h92q11 0 8 11z" />
    <glyph glyph-name="aogonek" unicode="&#x105;" horiz-adv-x="512" 
d="M424 0q-23 0 -36 -18t-13 -42q0 -25 15 -42.5t35 -17.5q8 0 14 -6t6 -14v-60q0 -8 -6 -14t-14 -6q-35 0 -65 9.5t-52 28.5t-34.5 47t-12.5 65q0 18 6 35.5t14 28.5q-22 -5 -50 -5q-88 0 -138 43t-50 122q0 26 10.5 53.5t32 50.5t54 37.5t75.5 14.5h102q10 0 10 10v16
q0 31 -22 46t-55 15q-8 0 -18.5 -1.5t-21 -5.5t-18.5 -11.5t-11 -19.5q-3 -13 -8 -16t-19 -3h-72q-8 0 -14 6t-6 14q0 30 13.5 57t38 48t60.5 33.5t81 12.5q91 0 145.5 -46.5t54.5 -134.5v-310q0 -8 -6 -14t-14 -6h-11zM216 204q-16 0 -26 -5.5t-15.5 -13.5t-7.5 -16.5
t-2 -14.5q0 -28 19.5 -40.5t46.5 -12.5q43 0 72 15t29 54v24q0 10 -10 10h-106z" />
    <glyph glyph-name="Cacute" unicode="&#x106;" horiz-adv-x="569" 
d="M529 217q0 -50 -18 -92t-49.5 -72t-75 -47t-95.5 -17t-93.5 17.5t-72 48t-49 70.5t-23.5 85q-4 31 -6 67t-2 73t2 72.5t6 67.5q5 45 23.5 85t49 70.5t72 48t93.5 17.5t95.5 -17t75 -47t49.5 -72t18 -92v-1q0 -8 -6 -14t-14 -6h-100q-8 0 -14 6t-6 14v1q0 15 -6.5 30.5
t-19 28t-30.5 20.5t-42 8q-46 0 -69.5 -23.5t-27.5 -56.5q-4 -32 -6 -67.5t-2 -72.5t2 -73t6 -67q4 -33 27.5 -56.5t69.5 -23.5q22 0 40 7.5t31 19.5t20 27.5t7 31.5v1q0 8 6 14.5t14 6.5h100q8 0 14 -6t6 -14v-1zM449 910q14 0 17 -9t-5 -18l-115 -121q-5 -5 -10.5 -8.5
t-19.5 -3.5h-69q-10 0 -16 9t3 21l82 114q4 5 9.5 10.5t16.5 5.5h107z" />
    <glyph glyph-name="cacute" unicode="&#x107;" horiz-adv-x="498" 
d="M409 730q14 0 17 -9t-5 -18l-115 -121q-5 -5 -10.5 -8.5t-19.5 -3.5h-69q-10 0 -16 9t3 21l82 114q4 5 9.5 10.5t16.5 5.5h107zM333 189q3 16 19 16h89q8 0 12.5 -6t4.5 -14q0 -46 -16.5 -82t-44.5 -61.5t-65 -39t-78 -13.5q-46 0 -82.5 14.5t-63 39.5t-42 59t-20.5 73
q-2 15 -3 34.5t-1 40.5t1 40.5t3 34.5q5 39 20.5 73t42 59t63 39.5t82.5 14.5q41 0 78 -13t65 -38.5t44.5 -62t16.5 -82.5q0 -8 -4.5 -14t-12.5 -6h-89q-7 0 -12.5 4t-6.5 12q-2 37 -23.5 53.5t-56.5 16.5q-38 0 -55.5 -13.5t-21.5 -42.5q-2 -15 -3 -34.5t-1 -40.5t1 -40.5
t3 -34.5q3 -26 21.5 -41t56.5 -15q33 0 53 14.5t26 55.5z" />
    <glyph glyph-name="Ccircumflex" unicode="&#x108;" horiz-adv-x="569" 
d="M529 217q0 -50 -18 -92t-49.5 -72t-75 -47t-95.5 -17t-93.5 17.5t-72 48t-49 70.5t-23.5 85q-4 31 -6 67t-2 73t2 72.5t6 67.5q5 45 23.5 85t49 70.5t72 48t93.5 17.5t95.5 -17t75 -47t49.5 -72t18 -92v-1q0 -8 -6 -14t-14 -6h-100q-8 0 -14 6t-6 14v1q0 15 -6.5 30.5
t-19 28t-30.5 20.5t-42 8q-46 0 -69.5 -23.5t-27.5 -56.5q-4 -32 -6 -67.5t-2 -72.5t2 -73t6 -67q4 -33 27.5 -56.5t69.5 -23.5q22 0 40 7.5t31 19.5t20 27.5t7 31.5v1q0 8 6 14.5t14 6.5h100q8 0 14 -6t6 -14v-1zM255 766q-4 -5 -12 -10.5t-19 -5.5h-95q-13 0 -14.5 10
t3.5 15l119 123q5 5 10.5 8.5t19.5 3.5h62q13 0 18.5 -3.5t10.5 -8.5l119 -123q5 -5 3 -15t-16 -10h-94q-11 0 -19 5.5t-12 10.5l-35 44q-7 10 -14 0z" />
    <glyph glyph-name="ccircumflex" unicode="&#x109;" horiz-adv-x="498" 
d="M333 189q3 16 19 16h89q8 0 12.5 -6t4.5 -14q0 -46 -16.5 -82t-44.5 -61.5t-65 -39t-78 -13.5q-46 0 -82.5 14.5t-63 39.5t-42 59t-20.5 73q-2 15 -3 34.5t-1 40.5t1 40.5t3 34.5q5 39 20.5 73t42 59t63 39.5t82.5 14.5q41 0 78 -13t65 -38.5t44.5 -62t16.5 -82.5
q0 -8 -4.5 -14t-12.5 -6h-89q-7 0 -12.5 4t-6.5 12q-2 37 -23.5 53.5t-56.5 16.5q-38 0 -55.5 -13.5t-21.5 -42.5q-2 -15 -3 -34.5t-1 -40.5t1 -40.5t3 -34.5q3 -26 21.5 -41t56.5 -15q33 0 53 14.5t26 55.5zM216 586q-4 -5 -12 -10.5t-19 -5.5h-95q-13 0 -14.5 10t3.5 15
l119 123q5 5 10.5 8.5t19.5 3.5h62q13 0 18.5 -3.5t10.5 -8.5l119 -123q5 -5 3 -15t-16 -10h-94q-11 0 -19 5.5t-12 10.5l-35 44q-7 10 -14 0z" />
    <glyph glyph-name="Cdotaccent" unicode="&#x10a;" horiz-adv-x="569" 
d="M529 217q0 -50 -18 -92t-49.5 -72t-75 -47t-95.5 -17t-93.5 17.5t-72 48t-49 70.5t-23.5 85q-4 31 -6 67t-2 73t2 72.5t6 67.5q5 45 23.5 85t49 70.5t72 48t93.5 17.5t95.5 -17t75 -47t49.5 -72t18 -92v-1q0 -8 -6 -14t-14 -6h-100q-8 0 -14 6t-6 14v1q0 15 -6.5 30.5
t-19 28t-30.5 20.5t-42 8q-46 0 -69.5 -23.5t-27.5 -56.5q-4 -32 -6 -67.5t-2 -72.5t2 -73t6 -67q4 -33 27.5 -56.5t69.5 -23.5q22 0 40 7.5t31 19.5t20 27.5t7 31.5v1q0 8 6 14.5t14 6.5h100q8 0 14 -6t6 -14v-1zM367 766q0 -16 -16 -16h-108q-16 0 -16 16v108q0 6 4.5 11
t11.5 5h108q7 0 11.5 -5t4.5 -11v-108z" />
    <glyph glyph-name="cdotaccent" unicode="&#x10b;" horiz-adv-x="498" 
d="M333 189q3 16 19 16h89q8 0 12.5 -6t4.5 -14q0 -46 -16.5 -82t-44.5 -61.5t-65 -39t-78 -13.5q-46 0 -82.5 14.5t-63 39.5t-42 59t-20.5 73q-2 15 -3 34.5t-1 40.5t1 40.5t3 34.5q5 39 20.5 73t42 59t63 39.5t82.5 14.5q41 0 78 -13t65 -38.5t44.5 -62t16.5 -82.5
q0 -8 -4.5 -14t-12.5 -6h-89q-7 0 -12.5 4t-6.5 12q-2 37 -23.5 53.5t-56.5 16.5q-38 0 -55.5 -13.5t-21.5 -42.5q-2 -15 -3 -34.5t-1 -40.5t1 -40.5t3 -34.5q3 -26 21.5 -41t56.5 -15q33 0 53 14.5t26 55.5zM328 586q0 -16 -16 -16h-108q-16 0 -16 16v108q0 6 4.5 11
t11.5 5h108q7 0 11.5 -5t4.5 -11v-108z" />
    <glyph glyph-name="Ccaron" unicode="&#x10c;" horiz-adv-x="569" 
d="M529 217q0 -50 -18 -92t-49.5 -72t-75 -47t-95.5 -17t-93.5 17.5t-72 48t-49 70.5t-23.5 85q-4 31 -6 67t-2 73t2 72.5t6 67.5q5 45 23.5 85t49 70.5t72 48t93.5 17.5t95.5 -17t75 -47t49.5 -72t18 -92v-1q0 -8 -6 -14t-14 -6h-100q-8 0 -14 6t-6 14v1q0 15 -6.5 30.5
t-19 28t-30.5 20.5t-42 8q-46 0 -69.5 -23.5t-27.5 -56.5q-4 -32 -6 -67.5t-2 -72.5t2 -73t6 -67q4 -33 27.5 -56.5t69.5 -23.5q22 0 40 7.5t31 19.5t20 27.5t7 31.5v1q0 8 6 14.5t14 6.5h100q8 0 14 -6t6 -14v-1zM286 850q7 -11 14 0l35 44q4 5 12 10.5t19 5.5h94
q14 0 16 -10t-3 -15l-119 -123q-5 -5 -10.5 -8.5t-18.5 -3.5h-62q-14 0 -19.5 3.5t-10.5 8.5l-119 123q-5 5 -3.5 15t14.5 10h95q11 0 19 -5.5t12 -10.5z" />
    <glyph glyph-name="ccaron" unicode="&#x10d;" horiz-adv-x="498" 
d="M333 189q3 16 19 16h89q8 0 12.5 -6t4.5 -14q0 -46 -16.5 -82t-44.5 -61.5t-65 -39t-78 -13.5q-46 0 -82.5 14.5t-63 39.5t-42 59t-20.5 73q-2 15 -3 34.5t-1 40.5t1 40.5t3 34.5q5 39 20.5 73t42 59t63 39.5t82.5 14.5q41 0 78 -13t65 -38.5t44.5 -62t16.5 -82.5
q0 -8 -4.5 -14t-12.5 -6h-89q-7 0 -12.5 4t-6.5 12q-2 37 -23.5 53.5t-56.5 16.5q-38 0 -55.5 -13.5t-21.5 -42.5q-2 -15 -3 -34.5t-1 -40.5t1 -40.5t3 -34.5q3 -26 21.5 -41t56.5 -15q33 0 53 14.5t26 55.5zM253 670q7 -11 14 0l35 44q4 5 12 10.5t19 5.5h94q14 0 16 -10
t-3 -15l-119 -123q-5 -5 -10.5 -8.5t-18.5 -3.5h-62q-14 0 -19.5 3.5t-10.5 8.5l-119 123q-5 5 -3.5 15t14.5 10h95q11 0 19 -5.5t12 -10.5z" />
    <glyph glyph-name="Dcaron" unicode="&#x10e;" horiz-adv-x="571" 
d="M215 560q-10 0 -10 -10v-400q0 -10 10 -10h80q35 0 56.5 24t25.5 57q8 63 8 129t-8 129q-4 33 -25.5 57t-56.5 24h-80zM295 700q46 0 84.5 -17.5t67.5 -48t47.5 -70.5t23.5 -85q8 -63 8 -129t-8 -129q-5 -45 -23.5 -85t-47.5 -70.5t-67.5 -48t-84.5 -17.5h-210
q-8 0 -14 6t-6 14v660q0 8 6 14t14 6h210zM266 850q7 -11 14 0l35 44q4 5 12 10.5t19 5.5h94q14 0 16 -10t-3 -15l-119 -123q-5 -5 -10.5 -8.5t-18.5 -3.5h-62q-14 0 -19.5 3.5t-10.5 8.5l-119 123q-5 5 -3.5 15t14.5 10h95q11 0 19 -5.5t12 -10.5z" />
    <glyph glyph-name="dcaron" unicode="&#x10f;" horiz-adv-x="594" 
d="M175 325q-1 -15 -1.5 -34.5t-0.5 -40.5t0.5 -40.5t1.5 -34.5q2 -25 20.5 -42.5t54.5 -17.5q37 0 55.5 17t20.5 43q1 15 1.5 34.5t0.5 40.5t-0.5 40.5t-1.5 34.5q-2 29 -20.5 44.5t-55.5 15.5q-36 0 -54.5 -17.5t-20.5 -42.5zM235 -11q-39 0 -72.5 14.5t-58.5 39.5
t-40.5 59t-18.5 73q-1 15 -1.5 34.5t-0.5 40.5t0.5 40.5t1.5 34.5q3 39 18.5 73t40.5 59t58.5 39.5t72.5 14.5q23 0 36 -3.5t24 -8.5t20.5 -0.5t9.5 21.5v170q0 8 6 14t14 6h90q8 0 14 -6t6 -14v-670q0 -8 -6 -14t-14 -6h-50q-7 0 -14 7q-5 5 -11 10.5t-14 5.5
q-11 0 -19 -5.5t-19.5 -11.5t-28 -11.5t-44.5 -5.5zM566 440q-15 0 -21.5 12t0.5 26l34 69q3 5 -0.5 9t-8.5 4h-24q-8 0 -14 6t-6 14v100q0 8 6 14t14 6h100q8 0 14 -6t6 -14v-97q0 -20 -6.5 -37.5t-15.5 -31.5l-34 -54q-5 -7 -12 -13.5t-22 -6.5h-10z" />
    <glyph glyph-name="Dcroat" unicode="&#x110;" horiz-adv-x="571" 
d="M205 150q0 -10 10 -10h80q35 0 56.5 24t25.5 57q8 63 8 129t-8 129q-4 33 -25.5 57t-56.5 24h-80q-10 0 -10 -10v-120q0 -10 10 -10h80q8 0 14 -6t6 -14v-100q0 -8 -6 -14t-14 -6h-80q-10 0 -10 -10v-120zM295 700q46 0 84.5 -17.5t67.5 -48t47.5 -70.5t23.5 -85
q8 -63 8 -129t-8 -129q-5 -45 -23.5 -85t-47.5 -70.5t-67.5 -48t-84.5 -17.5h-210q-8 0 -14 6t-6 14v250q0 10 -10 10h-37q-8 0 -14 6t-6 14v100q0 8 6 14t14 6h37q10 0 10 10v250q0 8 6 14t14 6h210z" />
    <glyph glyph-name="dcroat" unicode="&#x111;" horiz-adv-x="533" 
d="M183 325q-1 -15 -1.5 -34.5t-0.5 -40.5t0.5 -40.5t1.5 -34.5q2 -25 20.5 -42.5t54.5 -17.5q37 0 55.5 17t20.5 43q1 15 1.5 34.5t0.5 40.5t-0.5 40.5t-1.5 34.5q-2 29 -20.5 44.5t-55.5 15.5q-36 0 -54.5 -17.5t-20.5 -42.5zM463 657q0 -10 10 -10h15q8 0 14 -6t6 -14
v-50q0 -8 -6 -14t-14 -6h-15q-10 0 -10 -10v-527q0 -8 -6 -14t-14 -6h-50q-7 0 -14 7q-5 5 -11 10.5t-14 5.5q-11 0 -19 -5.5t-19.5 -11.5t-28 -11.5t-44.5 -5.5q-39 0 -72.5 14.5t-58.5 39.5t-40.5 59t-18.5 73q-1 15 -1.5 34.5t-0.5 40.5t0.5 40.5t1.5 34.5q3 39 18.5 73
t40.5 59t58.5 39.5t72.5 14.5q23 0 36 -3.5t24 -8.5t20.5 -0.5t9.5 21.5v27q0 10 -10 10h-60q-8 0 -14 6t-6 14v50q0 8 6 14t14 6h60q10 0 10 10v33q0 8 6 14t14 6h90q8 0 14 -6t6 -14v-33z" />
    <glyph glyph-name="Emacron" unicode="&#x112;" horiz-adv-x="512" 
d="M205 150q0 -10 10 -10h237q8 0 14 -6t6 -14v-100q0 -8 -6 -14t-14 -6h-367q-8 0 -14 6t-6 14v660q0 8 6 14t14 6h363q8 0 14 -6t6 -14v-100q0 -8 -6 -14t-14 -6h-233q-10 0 -10 -10v-120q0 -10 10 -10h225q8 0 14 -6t6 -14v-100q0 -8 -6 -14t-14 -6h-225q-10 0 -10 -10
v-120zM400 858q8 0 14 -6t6 -14v-58q0 -8 -6 -14t-14 -6h-262q-8 0 -14 6t-6 14v58q0 8 6 14t14 6h262z" />
    <glyph glyph-name="emacron" unicode="&#x113;" horiz-adv-x="499" 
d="M253 393q-43 0 -65 -17t-22 -46q0 -9 10 -9h152q10 0 10 9q0 16 -7 28t-19 19.5t-27.5 11.5t-31.5 4zM180 210q-15 0 -15 -15q0 -42 26 -63.5t62 -21.5q29 0 49 9t30 33q7 17 23 17h83q8 0 14 -5t3 -17q-17 -70 -67.5 -114t-134.5 -44q-46 0 -82 14.5t-62.5 39.5t-42 59
t-20.5 73q-2 15 -3 34.5t-1 40.5t1 40.5t3 34.5q5 39 20.5 73t42 59t62.5 39.5t82 14.5q45 0 82.5 -13t64.5 -38.5t42 -62t15 -84.5v-83q0 -8 -6 -14t-14 -6h-257zM394 694q8 0 14 -6t6 -14v-58q0 -8 -6 -14t-14 -6h-262q-8 0 -14 6t-6 14v58q0 8 6 14t14 6h262z" />
    <glyph glyph-name="Ebreve" unicode="&#x114;" horiz-adv-x="512" 
d="M205 150q0 -10 10 -10h237q8 0 14 -6t6 -14v-100q0 -8 -6 -14t-14 -6h-367q-8 0 -14 6t-6 14v660q0 8 6 14t14 6h363q8 0 14 -6t6 -14v-100q0 -8 -6 -14t-14 -6h-233q-10 0 -10 -10v-120q0 -10 10 -10h225q8 0 14 -6t6 -14v-100q0 -8 -6 -14t-14 -6h-225q-10 0 -10 -10
v-120zM328 886q0 7 4.5 12t12.5 5h63q7 0 12 -5t5 -12q0 -29 -11 -55.5t-31.5 -46.5t-49.5 -32t-65 -12t-65 12t-50 32t-32 46.5t-11 55.5q0 7 5 12t12 5h63q8 0 12.5 -5t4.5 -12q0 -23 19 -39.5t42 -16.5t41.5 16.5t18.5 39.5z" />
    <glyph glyph-name="ebreve" unicode="&#x115;" horiz-adv-x="499" 
d="M253 393q-43 0 -65 -17t-22 -46q0 -9 10 -9h152q10 0 10 9q0 16 -7 28t-19 19.5t-27.5 11.5t-31.5 4zM180 210q-15 0 -15 -15q0 -42 26 -63.5t62 -21.5q29 0 49 9t30 33q7 17 23 17h83q8 0 14 -5t3 -17q-17 -70 -67.5 -114t-134.5 -44q-46 0 -82 14.5t-62.5 39.5t-42 59
t-20.5 73q-2 15 -3 34.5t-1 40.5t1 40.5t3 34.5q5 39 20.5 73t42 59t62.5 39.5t82 14.5q45 0 82.5 -13t64.5 -38.5t42 -62t15 -84.5v-83q0 -8 -6 -14t-14 -6h-257zM323 713q0 7 4.5 12t12.5 5h63q7 0 12 -5t5 -12q0 -29 -11 -55.5t-31.5 -46.5t-49.5 -32t-65 -12t-65 12
t-50 32t-32 46.5t-11 55.5q0 7 5 12t12 5h63q8 0 12.5 -5t4.5 -12q0 -23 19 -39.5t42 -16.5t41.5 16.5t18.5 39.5z" />
    <glyph glyph-name="Edotaccent" unicode="&#x116;" horiz-adv-x="512" 
d="M205 150q0 -10 10 -10h237q8 0 14 -6t6 -14v-100q0 -8 -6 -14t-14 -6h-367q-8 0 -14 6t-6 14v660q0 8 6 14t14 6h363q8 0 14 -6t6 -14v-100q0 -8 -6 -14t-14 -6h-233q-10 0 -10 -10v-120q0 -10 10 -10h225q8 0 14 -6t6 -14v-100q0 -8 -6 -14t-14 -6h-225q-10 0 -10 -10
v-120zM342 766q0 -16 -16 -16h-108q-16 0 -16 16v108q0 6 4.5 11t11.5 5h108q7 0 11.5 -5t4.5 -11v-108z" />
    <glyph glyph-name="edotaccent" unicode="&#x117;" horiz-adv-x="499" 
d="M253 393q-43 0 -65 -17t-22 -46q0 -9 10 -9h152q10 0 10 9q0 16 -7 28t-19 19.5t-27.5 11.5t-31.5 4zM180 210q-15 0 -15 -15q0 -42 26 -63.5t62 -21.5q29 0 49 9t30 33q7 17 23 17h83q8 0 14 -5t3 -17q-17 -70 -67.5 -114t-134.5 -44q-46 0 -82 14.5t-62.5 39.5t-42 59
t-20.5 73q-2 15 -3 34.5t-1 40.5t1 40.5t3 34.5q5 39 20.5 73t42 59t62.5 39.5t82 14.5q45 0 82.5 -13t64.5 -38.5t42 -62t15 -84.5v-83q0 -8 -6 -14t-14 -6h-257zM327 586q0 -16 -16 -16h-108q-16 0 -16 16v108q0 6 4.5 11t11.5 5h108q7 0 11.5 -5t4.5 -11v-108z" />
    <glyph glyph-name="Eogonek" unicode="&#x118;" horiz-adv-x="512" 
d="M205 430q0 -10 10 -10h225q8 0 14 -6t6 -14v-100q0 -8 -6 -14t-14 -6h-225q-10 0 -10 -10v-120q0 -10 10 -10h237q8 0 14 -6t6 -14v-100q0 -8 -6 -14t-14 -6h-5q-25 0 -42.5 -17.5t-17.5 -42.5t17.5 -42.5t42.5 -17.5q8 0 14 -6t6 -14v-60q0 -8 -6 -14t-14 -6
q-38 0 -69.5 9.5t-55 29t-36.5 50t-13 71.5q0 18 4.5 33.5t12.5 26.5h-205q-8 0 -14 6t-6 14v660q0 8 6 14t14 6h363q8 0 14 -6t6 -14v-100q0 -8 -6 -14t-14 -6h-233q-10 0 -10 -10v-120z" />
    <glyph glyph-name="eogonek" unicode="&#x119;" horiz-adv-x="499" 
d="M422 72q-10 -14 -21 -27.5t-20.5 -29.5t-15.5 -34.5t-6 -40.5q0 -25 17.5 -42.5t42.5 -17.5q8 0 14 -6t6 -14v-60q0 -8 -6 -14t-14 -6q-38 0 -69.5 10t-55 29.5t-36.5 48.5t-13 67q0 13 3.5 28t9.5 26h-5q-46 0 -82 14.5t-62.5 39.5t-42 59t-20.5 73q-2 15 -3 34.5
t-1 40.5t1 40.5t3 34.5q5 39 20.5 73t42 59t62.5 39.5t82 14.5q45 0 82.5 -13t64.5 -38.5t42 -62t15 -84.5v-83q0 -8 -6 -14t-14 -6h-257q-15 0 -15 -15q0 -42 26 -63.5t62 -21.5q29 0 49 9t30 33q7 17 23 17h83q8 0 14 -5t3 -17q-5 -21 -11.5 -37.5t-21.5 -37.5zM166 330
q0 -9 10 -9h152q10 0 10 9q0 16 -7 28t-19 19.5t-27.5 11.5t-31.5 4q-43 0 -65 -17t-22 -46z" />
    <glyph glyph-name="Ecaron" unicode="&#x11a;" horiz-adv-x="512" 
d="M205 150q0 -10 10 -10h237q8 0 14 -6t6 -14v-100q0 -8 -6 -14t-14 -6h-367q-8 0 -14 6t-6 14v660q0 8 6 14t14 6h363q8 0 14 -6t6 -14v-100q0 -8 -6 -14t-14 -6h-233q-10 0 -10 -10v-120q0 -10 10 -10h225q8 0 14 -6t6 -14v-100q0 -8 -6 -14t-14 -6h-225q-10 0 -10 -10
v-120zM261 850q7 -11 14 0l35 44q4 5 12 10.5t19 5.5h94q14 0 16 -10t-3 -15l-119 -123q-5 -5 -10.5 -8.5t-18.5 -3.5h-62q-14 0 -19.5 3.5t-10.5 8.5l-119 123q-5 5 -3.5 15t14.5 10h95q11 0 19 -5.5t12 -10.5z" />
    <glyph glyph-name="ecaron" unicode="&#x11b;" horiz-adv-x="499" 
d="M253 393q-43 0 -65 -17t-22 -46q0 -9 10 -9h152q10 0 10 9q0 16 -7 28t-19 19.5t-27.5 11.5t-31.5 4zM180 210q-15 0 -15 -15q0 -42 26 -63.5t62 -21.5q29 0 49 9t30 33q7 17 23 17h83q8 0 14 -5t3 -17q-17 -70 -67.5 -114t-134.5 -44q-46 0 -82 14.5t-62.5 39.5t-42 59
t-20.5 73q-2 15 -3 34.5t-1 40.5t1 40.5t3 34.5q5 39 20.5 73t42 59t62.5 39.5t82 14.5q45 0 82.5 -13t64.5 -38.5t42 -62t15 -84.5v-83q0 -8 -6 -14t-14 -6h-257zM252 670q7 -11 14 0l35 44q4 5 12 10.5t19 5.5h94q14 0 16 -10t-3 -15l-119 -123q-5 -5 -10.5 -8.5
t-18.5 -3.5h-62q-14 0 -19.5 3.5t-10.5 8.5l-119 123q-5 5 -3.5 15t14.5 10h95q11 0 19 -5.5t12 -10.5z" />
    <glyph glyph-name="Gcircumflex" unicode="&#x11c;" horiz-adv-x="572" 
d="M392 251q0 10 -10 10h-68q-8 0 -14 6t-6 14v95q0 8 6 14t14 6h195q8 0 14 -6t6 -14v-168q0 -45 -18 -85t-49.5 -69.5t-75.5 -47t-95 -17.5q-52 0 -93.5 17.5t-72 48t-49 70.5t-23.5 85q-4 31 -6 67t-2 73t2 72.5t6 67.5q5 45 23.5 85t49 70.5t72 48t93.5 17.5t95.5 -17
t75 -47t49.5 -72t18 -92v-1q0 -8 -6 -14t-14 -6h-100q-8 0 -14 6t-6 14v1q0 15 -6.5 30.5t-19 28t-30.5 20.5t-42 8q-46 0 -69.5 -23.5t-27.5 -56.5q-4 -32 -6 -67.5t-2 -72.5t2 -73t6 -67q4 -33 27.5 -56.5t69.5 -23.5q45 0 73 22t28 56v43zM256 766q-4 -5 -12 -10.5
t-19 -5.5h-95q-13 0 -14.5 10t3.5 15l119 123q5 5 10.5 8.5t19.5 3.5h62q13 0 18.5 -3.5t10.5 -8.5l119 -123q5 -5 3 -15t-16 -10h-94q-11 0 -19 5.5t-12 10.5l-35 44q-7 10 -14 0z" />
    <glyph glyph-name="gcircumflex" unicode="&#x11d;" horiz-adv-x="517" 
d="M326 175q1 15 1.5 34.5t0.5 40.5t-0.5 40.5t-1.5 34.5q-2 29 -20.5 44.5t-55.5 15.5q-36 0 -54.5 -17.5t-20.5 -42.5q-1 -15 -1.5 -34.5t-0.5 -40.5t0.5 -40.5t1.5 -34.5q2 -25 20.5 -42.5t54.5 -17.5q37 0 55.5 17t20.5 43zM235 511q28 0 44.5 -5.5t28 -11.5t19.5 -11.5
t19 -5.5q8 0 14 5.5t11 10.5q7 7 14 7h50q8 0 14 -6t6 -14v-510q0 -38 -15 -71.5t-41 -59t-62.5 -40t-78.5 -14.5q-40 0 -75.5 12t-62.5 34t-43 52.5t-16 66.5q0 8 6 14t14 6h75q18 0 21 -6t5 -17q4 -18 22 -30.5t48 -12.5q28 0 50.5 16.5t22.5 49.5v10q0 32 -30 21
q-11 -4 -24 -8t-36 -4q-39 0 -72.5 14.5t-58.5 39.5t-40.5 59t-18.5 73q-1 15 -1.5 34.5t-0.5 40.5t0.5 40.5t1.5 34.5q3 39 18.5 73t40.5 59t58.5 39.5t72.5 14.5zM229 586q-4 -5 -12 -10.5t-19 -5.5h-95q-13 0 -14.5 10t3.5 15l119 123q5 5 10.5 8.5t19.5 3.5h62
q13 0 18.5 -3.5t10.5 -8.5l119 -123q5 -5 3 -15t-16 -10h-94q-11 0 -19 5.5t-12 10.5l-35 44q-7 10 -14 0z" />
    <glyph glyph-name="Gbreve" unicode="&#x11e;" horiz-adv-x="572" 
d="M392 251q0 10 -10 10h-68q-8 0 -14 6t-6 14v95q0 8 6 14t14 6h195q8 0 14 -6t6 -14v-168q0 -45 -18 -85t-49.5 -69.5t-75.5 -47t-95 -17.5q-52 0 -93.5 17.5t-72 48t-49 70.5t-23.5 85q-4 31 -6 67t-2 73t2 72.5t6 67.5q5 45 23.5 85t49 70.5t72 48t93.5 17.5t95.5 -17
t75 -47t49.5 -72t18 -92v-1q0 -8 -6 -14t-14 -6h-100q-8 0 -14 6t-6 14v1q0 15 -6.5 30.5t-19 28t-30.5 20.5t-42 8q-46 0 -69.5 -23.5t-27.5 -56.5q-4 -32 -6 -67.5t-2 -72.5t2 -73t6 -67q4 -33 27.5 -56.5t69.5 -23.5q45 0 73 22t28 56v43zM358 886q0 7 4.5 12t12.5 5h63
q7 0 12 -5t5 -12q0 -29 -11 -55.5t-31.5 -46.5t-49.5 -32t-65 -12t-65 12t-50 32t-32 46.5t-11 55.5q0 7 5 12t12 5h63q8 0 12.5 -5t4.5 -12q0 -23 19 -39.5t42 -16.5t41.5 16.5t18.5 39.5z" />
    <glyph glyph-name="gbreve" unicode="&#x11f;" horiz-adv-x="517" 
d="M326 175q1 15 1.5 34.5t0.5 40.5t-0.5 40.5t-1.5 34.5q-2 29 -20.5 44.5t-55.5 15.5q-36 0 -54.5 -17.5t-20.5 -42.5q-1 -15 -1.5 -34.5t-0.5 -40.5t0.5 -40.5t1.5 -34.5q2 -25 20.5 -42.5t54.5 -17.5q37 0 55.5 17t20.5 43zM235 511q28 0 44.5 -5.5t28 -11.5t19.5 -11.5
t19 -5.5q8 0 14 5.5t11 10.5q7 7 14 7h50q8 0 14 -6t6 -14v-510q0 -38 -15 -71.5t-41 -59t-62.5 -40t-78.5 -14.5q-40 0 -75.5 12t-62.5 34t-43 52.5t-16 66.5q0 8 6 14t14 6h75q18 0 21 -6t5 -17q4 -18 22 -30.5t48 -12.5q28 0 50.5 16.5t22.5 49.5v10q0 32 -30 21
q-11 -4 -24 -8t-36 -4q-39 0 -72.5 14.5t-58.5 39.5t-40.5 59t-18.5 73q-1 15 -1.5 34.5t-0.5 40.5t0.5 40.5t1.5 34.5q3 39 18.5 73t40.5 59t58.5 39.5t72.5 14.5zM332 713q0 7 4.5 12t12.5 5h63q7 0 12 -5t5 -12q0 -29 -11 -55.5t-31.5 -46.5t-49.5 -32t-65 -12t-65 12
t-50 32t-32 46.5t-11 55.5q0 7 5 12t12 5h63q8 0 12.5 -5t4.5 -12q0 -23 19 -39.5t42 -16.5t41.5 16.5t18.5 39.5z" />
    <glyph glyph-name="Gdotaccent" unicode="&#x120;" horiz-adv-x="572" 
d="M392 251q0 10 -10 10h-68q-8 0 -14 6t-6 14v95q0 8 6 14t14 6h195q8 0 14 -6t6 -14v-168q0 -45 -18 -85t-49.5 -69.5t-75.5 -47t-95 -17.5q-52 0 -93.5 17.5t-72 48t-49 70.5t-23.5 85q-4 31 -6 67t-2 73t2 72.5t6 67.5q5 45 23.5 85t49 70.5t72 48t93.5 17.5t95.5 -17
t75 -47t49.5 -72t18 -92v-1q0 -8 -6 -14t-14 -6h-100q-8 0 -14 6t-6 14v1q0 15 -6.5 30.5t-19 28t-30.5 20.5t-42 8q-46 0 -69.5 -23.5t-27.5 -56.5q-4 -32 -6 -67.5t-2 -72.5t2 -73t6 -67q4 -33 27.5 -56.5t69.5 -23.5q45 0 73 22t28 56v43zM367 766q0 -16 -16 -16h-108
q-16 0 -16 16v108q0 6 4.5 11t11.5 5h108q7 0 11.5 -5t4.5 -11v-108z" />
    <glyph glyph-name="gdotaccent" unicode="&#x121;" horiz-adv-x="517" 
d="M326 175q1 15 1.5 34.5t0.5 40.5t-0.5 40.5t-1.5 34.5q-2 29 -20.5 44.5t-55.5 15.5q-36 0 -54.5 -17.5t-20.5 -42.5q-1 -15 -1.5 -34.5t-0.5 -40.5t0.5 -40.5t1.5 -34.5q2 -25 20.5 -42.5t54.5 -17.5q37 0 55.5 17t20.5 43zM235 511q28 0 44.5 -5.5t28 -11.5t19.5 -11.5
t19 -5.5q8 0 14 5.5t11 10.5q7 7 14 7h50q8 0 14 -6t6 -14v-510q0 -38 -15 -71.5t-41 -59t-62.5 -40t-78.5 -14.5q-40 0 -75.5 12t-62.5 34t-43 52.5t-16 66.5q0 8 6 14t14 6h75q18 0 21 -6t5 -17q4 -18 22 -30.5t48 -12.5q28 0 50.5 16.5t22.5 49.5v10q0 32 -30 21
q-11 -4 -24 -8t-36 -4q-39 0 -72.5 14.5t-58.5 39.5t-40.5 59t-18.5 73q-1 15 -1.5 34.5t-0.5 40.5t0.5 40.5t1.5 34.5q3 39 18.5 73t40.5 59t58.5 39.5t72.5 14.5zM341 586q0 -16 -16 -16h-108q-16 0 -16 16v108q0 6 4.5 11t11.5 5h108q7 0 11.5 -5t4.5 -11v-108z" />
    <glyph glyph-name="Gcommaaccent" unicode="&#x122;" horiz-adv-x="572" 
d="M392 251q0 10 -10 10h-68q-8 0 -14 6t-6 14v95q0 8 6 14t14 6h195q8 0 14 -6t6 -14v-168q0 -45 -18 -85t-49.5 -69.5t-75.5 -47t-95 -17.5q-52 0 -93.5 17.5t-72 48t-49 70.5t-23.5 85q-4 31 -6 67t-2 73t2 72.5t6 67.5q5 45 23.5 85t49 70.5t72 48t93.5 17.5t95.5 -17
t75 -47t49.5 -72t18 -92v-1q0 -8 -6 -14t-14 -6h-100q-8 0 -14 6t-6 14v1q0 15 -6.5 30.5t-19 28t-30.5 20.5t-42 8q-46 0 -69.5 -23.5t-27.5 -56.5q-4 -32 -6 -67.5t-2 -72.5t2 -73t6 -67q4 -33 27.5 -56.5t69.5 -23.5q45 0 73 22t28 56v43zM267 -305q-15 0 -21.5 12
t0.5 26l34 69q3 5 -0.5 9t-8.5 4h-24q-8 0 -14 6t-6 14v100q0 8 6 14t14 6h100q8 0 14 -6t6 -14v-97q0 -20 -6.5 -37.5t-15.5 -31.5l-34 -54q-5 -7 -12 -13.5t-22 -6.5h-10z" />
    <glyph glyph-name="gcommaaccent" unicode="&#x123;" horiz-adv-x="517" 
d="M326 175q1 15 1.5 34.5t0.5 40.5t-0.5 40.5t-1.5 34.5q-2 29 -20.5 44.5t-55.5 15.5q-36 0 -54.5 -17.5t-20.5 -42.5q-1 -15 -1.5 -34.5t-0.5 -40.5t0.5 -40.5t1.5 -34.5q2 -25 20.5 -42.5t54.5 -17.5q37 0 55.5 17t20.5 43zM235 511q28 0 44.5 -5.5t28 -11.5t19.5 -11.5
t19 -5.5q8 0 14 5.5t11 10.5q7 7 14 7h50q8 0 14 -6t6 -14v-510q0 -38 -15 -71.5t-41 -59t-62.5 -40t-78.5 -14.5q-40 0 -75.5 12t-62.5 34t-43 52.5t-16 66.5q0 8 6 14t14 6h75q18 0 21 -6t5 -17q4 -18 22 -30.5t48 -12.5q28 0 50.5 16.5t22.5 49.5v10q0 32 -30 21
q-11 -4 -24 -8t-36 -4q-39 0 -72.5 14.5t-58.5 39.5t-40.5 59t-18.5 73q-1 15 -1.5 34.5t-0.5 40.5t0.5 40.5t1.5 34.5q3 39 18.5 73t40.5 59t58.5 39.5t72.5 14.5zM298 836q15 0 21.5 -12t-0.5 -26l-34 -69q-3 -5 0.5 -9t8.5 -4h24q8 0 14 -6t6 -14v-100q0 -8 -6 -14
t-14 -6h-100q-8 0 -14 6t-6 14v97q0 20 6.5 37.5t15.5 31.5l34 54q5 7 12 13.5t22 6.5h10z" />
    <glyph glyph-name="Hcircumflex" unicode="&#x124;" horiz-adv-x="582" 
d="M377 680q0 8 6 14t14 6h100q8 0 14 -6t6 -14v-660q0 -8 -6 -14t-14 -6h-100q-8 0 -14 6t-6 14v250q0 10 -10 10h-152q-10 0 -10 -10v-250q0 -8 -8.5 -14t-16.5 -6h-95q-8 0 -14 6t-6 14v660q0 8 6 14t14 6h100q8 0 14 -6t6 -14v-250q0 -10 10 -10h152q10 0 10 10v250z
M253 766q-4 -5 -12 -10.5t-19 -5.5h-95q-13 0 -14.5 10t3.5 15l119 123q5 5 10.5 8.5t19.5 3.5h62q13 0 18.5 -3.5t10.5 -8.5l119 -123q5 -5 3 -15t-16 -10h-94q-11 0 -19 5.5t-12 10.5l-35 44q-7 10 -14 0z" />
    <glyph glyph-name="hcircumflex" unicode="&#x125;" horiz-adv-x="530" 
d="M345 325q0 25 -19.5 42.5t-55.5 17.5t-55.5 -17.5t-19.5 -42.5v-305q0 -8 -6 -14t-14 -6h-90q-8 0 -14 6t-6 14v670q0 8 6 14t14 6h90q8 0 14 -6t6 -14v-170q0 -13 8 -19.5t22 -1.5q11 4 24 8t36 4q39 0 74 -14.5t60.5 -39.5t40.5 -59t15 -73v-305q0 -8 -6 -14t-14 -6
h-90q-8 0 -14 6t-6 14v305zM220 766q-4 -5 -12 -10.5t-19 -5.5h-95q-13 0 -14.5 10t3.5 15l119 123q5 5 10.5 8.5t19.5 3.5h62q13 0 18.5 -3.5t10.5 -8.5l119 -123q5 -5 3 -15t-16 -10h-94q-11 0 -19 5.5t-12 10.5l-35 44q-7 10 -14 0z" />
    <glyph glyph-name="Hbar" unicode="&#x126;" horiz-adv-x="582" 
d="M377 680q0 8 6 14t14 6h100q8 0 14 -6t6 -14v-660q0 -8 -6 -14t-14 -6h-100q-8 0 -14 6t-6 14v250q0 10 -10 10h-152q-10 0 -10 -10v-250q0 -8 -8.5 -14t-16.5 -6h-95q-8 0 -14 6t-6 14v660q0 8 6 14t14 6h100q8 0 14 -6t6 -14v-60q0 -10 10 -10h152q10 0 10 10v60z
M215 500q-10 0 -10 -10v-70q0 -10 10 -10h152q10 0 10 10v70q0 10 -10 10h-152z" />
    <glyph glyph-name="hbar" unicode="&#x127;" horiz-adv-x="535" 
d="M210 557q-10 0 -10 -10v-27q0 -13 8 -19.5t22 -1.5q11 4 24 8t36 4q39 0 74 -14.5t60.5 -39.5t40.5 -59t15 -73v-305q0 -8 -6 -14t-14 -6h-90q-8 0 -14 6t-6 14v305q0 25 -19.5 42.5t-55.5 17.5t-55.5 -17.5t-19.5 -42.5v-305q0 -8 -6 -14t-14 -6h-90q-8 0 -14 6t-6 14
v527q0 10 -10 10h-15q-8 0 -14 6t-6 14v50q0 8 6 14t14 6h15q10 0 10 10v33q0 8 6 14t14 6h90q8 0 14 -6t6 -14v-33q0 -10 10 -10h60q8 0 14 -6t6 -14v-50q0 -8 -6 -14t-14 -6h-60v0z" />
    <glyph glyph-name="Itilde" unicode="&#x128;" 
d="M205 20q0 -8 -6 -14t-14 -6h-100q-8 0 -14 6t-6 14v660q0 8 6 14t14 6h100q8 0 14 -6t6 -14v-660zM233 864q19 0 29.5 6.5t16.5 14.5t15.5 4t9.5 -18v-60q0 -20 -20.5 -35.5t-50.5 -15.5q-24 0 -45.5 4t-43 8.5t-44 8.5t-47.5 4q-17 0 -27.5 -5.5t-18.5 -15.5
q-6 -7 -15.5 -3.5t-9.5 17.5v60q0 20 20.5 35.5t50.5 15.5q24 0 45.5 -4t43 -8.5t43.5 -8.5t48 -4z" />
    <glyph glyph-name="itilde" unicode="&#x129;" 
d="M225 684q19 0 29.5 6.5t16.5 14.5t15.5 4t9.5 -18v-60q0 -20 -20.5 -35.5t-50.5 -15.5q-24 0 -45.5 4t-43 8.5t-44 8.5t-47.5 4q-17 0 -27.5 -5.5t-18.5 -15.5q-6 -7 -15.5 -3.5t-9.5 17.5v60q0 20 20.5 35.5t50.5 15.5q24 0 45.5 -4t43 -8.5t43.5 -8.5t48 -4zM200 16
q0 -6 -4.5 -11t-11.5 -5h-98q-7 0 -11.5 5t-4.5 11v468q0 6 4.5 11t11.5 5h98q7 0 11.5 -5t4.5 -11v-468z" />
    <glyph glyph-name="Imacron" unicode="&#x12a;" 
d="M205 20q0 -8 -6 -14t-14 -6h-100q-8 0 -14 6t-6 14v660q0 8 6 14t14 6h100q8 0 14 -6t6 -14v-660zM271 858q8 0 14 -6t6 -14v-58q0 -8 -6 -14t-14 -6h-262q-8 0 -14 6t-6 14v58q0 8 6 14t14 6h262z" />
    <glyph glyph-name="imacron" unicode="&#x12b;" 
d="M266 694q8 0 14 -6t6 -14v-58q0 -8 -6 -14t-14 -6h-262q-8 0 -14 6t-6 14v58q0 8 6 14t14 6h262zM200 16q0 -6 -4.5 -11t-11.5 -5h-98q-7 0 -11.5 5t-4.5 11v468q0 6 4.5 11t11.5 5h98q7 0 11.5 -5t4.5 -11v-468z" />
    <glyph glyph-name="Ibreve" unicode="&#x12c;" 
d="M205 20q0 -8 -6 -14t-14 -6h-100q-8 0 -14 6t-6 14v660q0 8 6 14t14 6h100q8 0 14 -6t6 -14v-660zM202 886q0 7 4.5 12t12.5 5h63q7 0 12 -5t5 -12q0 -29 -11 -55.5t-31.5 -46.5t-49.5 -32t-65 -12t-65 12t-50 32t-32 46.5t-11 55.5q0 7 5 12t12 5h63q8 0 12.5 -5
t4.5 -12q0 -23 19 -39.5t42 -16.5t41.5 16.5t18.5 39.5z" />
    <glyph glyph-name="ibreve" unicode="&#x12d;" 
d="M196 713q0 7 4.5 12t12.5 5h63q7 0 12 -5t5 -12q0 -29 -11 -55.5t-31.5 -46.5t-49.5 -32t-65 -12t-65 12t-50 32t-32 46.5t-11 55.5q0 7 5 12t12 5h63q8 0 12.5 -5t4.5 -12q0 -23 19 -39.5t42 -16.5t41.5 16.5t18.5 39.5zM200 16q0 -6 -4.5 -11t-11.5 -5h-98
q-7 0 -11.5 5t-4.5 11v468q0 6 4.5 11t11.5 5h98q7 0 11.5 -5t4.5 -11v-468z" />
    <glyph glyph-name="Iogonek" unicode="&#x12e;" 
d="M205 20q0 -8 -5 -13.5t-13 -6.5h-2q-25 0 -42.5 -17.5t-17.5 -42.5t17.5 -42.5t42.5 -17.5q8 0 14 -6t6 -14v-60q0 -8 -6 -14t-14 -6q-38 0 -69.5 9.5t-55 29t-36.5 50t-13 71.5q0 38 14.5 67.5t39.5 50.5v622q0 8 6 14t14 6h100q8 0 14 -6t6 -14v-660z" />
    <glyph glyph-name="iogonek" unicode="&#x12f;" 
d="M205 586q0 -16 -16 -16h-108q-16 0 -16 16v108q0 6 4.5 11t11.5 5h108q7 0 11.5 -5t4.5 -11v-108zM180 0q-25 0 -42.5 -17.5t-17.5 -42.5t17.5 -42.5t42.5 -17.5q8 0 14 -6t6 -14v-60q0 -8 -6 -14t-14 -6q-38 0 -69.5 9.5t-55 29t-36.5 50t-13 71.5q0 42 17.5 73.5
t46.5 52.5v418q0 6 4.5 11t11.5 5h98q7 0 11.5 -5t4.5 -11v-468q0 -6 -4.5 -11t-11.5 -5h-4z" />
    <glyph glyph-name="Idotaccent" unicode="&#x130;" 
d="M205 20q0 -8 -6 -14t-14 -6h-100q-8 0 -14 6t-6 14v660q0 8 6 14t14 6h100q8 0 14 -6t6 -14v-660zM210 766q0 -16 -16 -16h-108q-16 0 -16 16v108q0 6 4.5 11t11.5 5h108q7 0 11.5 -5t4.5 -11v-108z" />
    <glyph glyph-name="dotlessi" unicode="&#x131;" horiz-adv-x="260" 
d="M195 16q0 -6 -4.5 -11t-11.5 -5h-98q-7 0 -11.5 5t-4.5 11v468q0 6 4.5 11t11.5 5h98q7 0 11.5 -5t4.5 -11v-468z" />
    <glyph glyph-name="Jcircumflex" unicode="&#x134;" horiz-adv-x="522" 
d="M5 239q0 8 6 14t14 6h101q8 0 14 -6t6 -14v-28q0 -34 24.5 -57.5t66.5 -23.5q41 0 65.5 24.5t24.5 66.5v459q0 8 6 14t14 6h101q8 0 14 -6t6 -14v-469q0 -46 -16.5 -86.5t-46.5 -70.5t-73 -47.5t-95 -17.5q-50 0 -92 17.5t-73.5 47.5t-49 70.5t-17.5 86.5v28zM353 766
q-4 -5 -12 -10.5t-19 -5.5h-95q-13 0 -14.5 10t3.5 15l119 123q5 5 10.5 8.5t19.5 3.5h62q13 0 18.5 -3.5t10.5 -8.5l119 -123q5 -5 3 -15t-16 -10h-94q-11 0 -19 5.5t-12 10.5l-35 44q-7 10 -14 0z" />
    <glyph glyph-name="jcircumflex" unicode="&#x135;" horiz-adv-x="310" 
d="M115 480q0 8 6 14t14 6h90q8 0 14 -6t6 -14v-510q0 -38 -15 -71.5t-41 -59t-62.5 -40t-78.5 -14.5h-48q-8 0 -14 6t-6 14v79q0 8 6 14t14 6h42q28 0 50.5 16.5t22.5 49.5v510zM137 586q-4 -5 -12 -10.5t-19 -5.5h-95q-13 0 -14.5 10t3.5 15l119 123q5 5 10.5 8.5
t19.5 3.5h62q13 0 18.5 -3.5t10.5 -8.5l119 -123q5 -5 3 -15t-16 -10h-94q-11 0 -19 5.5t-12 10.5l-35 44q-7 10 -14 0z" />
    <glyph glyph-name="Kcommaaccent" unicode="&#x136;" horiz-adv-x="564" 
d="M214 285q-2 3 -6 2.5t-4 -5.5v-262q0 -8 -6 -14t-14 -6h-99q-8 0 -14 6t-6 14v660q0 8 6 14t14 6h99q8 0 14 -6t6 -14v-230q0 -5 4 -5.5t6 2.5l165 243q2 3 6.5 6.5t15.5 3.5h101q14 0 19.5 -12.5t-2.5 -23.5l-187 -276q-7 -10 -6.5 -17t6.5 -16l205 -317
q7 -11 1.5 -24.5t-22.5 -13.5h-108q-11 0 -16 4t-7 8zM242 -305q-15 0 -21.5 12t0.5 26l34 69q3 5 -0.5 9t-8.5 4h-24q-8 0 -14 6t-6 14v100q0 8 6 14t14 6h100q8 0 14 -6t6 -14v-97q0 -20 -6.5 -37.5t-15.5 -31.5l-34 -54q-5 -7 -12 -13.5t-22 -6.5h-10z" />
    <glyph glyph-name="kcommaaccent" unicode="&#x137;" horiz-adv-x="491" 
d="M312 282q-7 -8 -7 -14t8 -16l163 -219q8 -11 3 -22t-19 -11h-104q-11 0 -17 5t-9 10l-125 173q-2 3 -6 2.5t-4 -5.5v-165q0 -8 -6 -14t-14 -6h-90q-8 0 -14 6t-6 14v670q0 8 6 14t14 6h90q8 0 14 -6t6 -14v-349q0 -5 4 -5.5t6 2.5l116 149q3 5 8.5 9t16.5 4h99
q16 0 19.5 -12.5t-3.5 -20.5zM222 -305q-15 0 -21.5 12t0.5 26l34 69q3 5 -0.5 9t-8.5 4h-24q-8 0 -14 6t-6 14v100q0 8 6 14t14 6h100q8 0 14 -6t6 -14v-97q0 -20 -6.5 -37.5t-15.5 -31.5l-34 -54q-5 -7 -12 -13.5t-22 -6.5h-10z" />
    <glyph glyph-name="kgreenlandic" unicode="&#x138;" horiz-adv-x="491" 
d="M312 282q-7 -8 -7 -14t8 -16l163 -219q8 -11 3 -22t-19 -11h-104q-11 0 -17 5t-9 10l-125 173q-2 3 -6 2.5t-4 -5.5v-165q0 -8 -6 -14t-14 -6h-90q-8 0 -14 6t-6 14v460q0 8 6 14t14 6h90q8 0 14 -6t6 -14v-149q0 -5 4 -5.5t6 2.5l116 159q3 5 8.5 9t16.5 4h99
q16 0 19.5 -12.5t-3.5 -20.5z" />
    <glyph glyph-name="Lacute" unicode="&#x139;" horiz-adv-x="455" 
d="M205 150q0 -10 10 -10h210q8 0 14 -6t6 -14v-100q0 -8 -6 -14t-14 -6h-340q-8 0 -14 6t-6 14v660q0 8 6 14t14 6h100q8 0 14 -6t6 -14v-530zM307 910q14 0 17 -9t-5 -18l-115 -121q-5 -5 -10.5 -8.5t-19.5 -3.5h-69q-10 0 -16 9t3 21l82 114q4 5 9.5 10.5t16.5 5.5h107z
" />
    <glyph glyph-name="lacute" unicode="&#x13a;" 
d="M195 20q0 -8 -6 -14t-14 -6h-90q-8 0 -14 6t-6 14v670q0 8 6 14t14 6h90q8 0 14 -6t6 -14v-670zM289 910q14 0 17 -9t-5 -18l-115 -121q-5 -5 -10.5 -8.5t-19.5 -3.5h-69q-10 0 -16 9t3 21l82 114q4 5 9.5 10.5t16.5 5.5h107z" />
    <glyph glyph-name="Lcommaaccent" unicode="&#x13b;" horiz-adv-x="455" 
d="M205 150q0 -10 10 -10h210q8 0 14 -6t6 -14v-100q0 -8 -6 -14t-14 -6h-340q-8 0 -14 6t-6 14v660q0 8 6 14t14 6h100q8 0 14 -6t6 -14v-530zM220 -305q-15 0 -21.5 12t0.5 26l34 69q3 5 -0.5 9t-8.5 4h-24q-8 0 -14 6t-6 14v100q0 8 6 14t14 6h100q8 0 14 -6t6 -14v-97
q0 -20 -6.5 -37.5t-15.5 -31.5l-34 -54q-5 -7 -12 -13.5t-22 -6.5h-10z" />
    <glyph glyph-name="lcommaaccent" unicode="&#x13c;" 
d="M205 -162q0 -20 -6.5 -37.5t-15.5 -31.5l-34 -54q-5 -7 -12 -13.5t-22 -6.5h-10q-15 0 -21.5 12t0.5 26l34 69q3 5 -0.5 9t-8.5 4h-24q-8 0 -14 6t-6 14v100q0 8 6 14t14 6h100q8 0 14 -6t6 -14v-97zM195 20q0 -8 -6 -14t-14 -6h-90q-8 0 -14 6t-6 14v670q0 8 6 14t14 6
h90q8 0 14 -6t6 -14v-670z" />
    <glyph glyph-name="Lcaron" unicode="&#x13d;" horiz-adv-x="455" 
d="M205 150q0 -10 10 -10h210q8 0 14 -6t6 -14v-100q0 -8 -6 -14t-14 -6h-340q-8 0 -14 6t-6 14v660q0 8 6 14t14 6h100q8 0 14 -6t6 -14v-530zM320 440q-15 0 -21.5 12t0.5 26l34 69q3 5 -0.5 9t-8.5 4h-24q-8 0 -14 6t-6 14v100q0 8 6 14t14 6h100q8 0 14 -6t6 -14v-97
q0 -20 -6.5 -37.5t-15.5 -31.5l-34 -54q-5 -7 -12 -13.5t-22 -6.5h-10z" />
    <glyph glyph-name="lcaron" unicode="&#x13e;" horiz-adv-x="386" 
d="M195 20q0 -8 -6 -14t-14 -6h-90q-8 0 -14 6t-6 14v670q0 8 6 14t14 6h90q8 0 14 -6t6 -14v-670zM309 440q-15 0 -21.5 12t0.5 26l34 69q3 5 -0.5 9t-8.5 4h-24q-8 0 -14 6t-6 14v100q0 8 6 14t14 6h100q8 0 14 -6t6 -14v-97q0 -20 -6.5 -37.5t-15.5 -31.5l-34 -54
q-5 -7 -12 -13.5t-22 -6.5h-10z" />
    <glyph glyph-name="Ldot" unicode="&#x13f;" horiz-adv-x="455" 
d="M205 150q0 -10 10 -10h210q8 0 14 -6t6 -14v-100q0 -8 -6 -14t-14 -6h-340q-8 0 -14 6t-6 14v660q0 8 6 14t14 6h100q8 0 14 -6t6 -14v-530zM420 256q0 -16 -16 -16h-108q-16 0 -16 16v108q0 6 4.5 11t11.5 5h108q7 0 11.5 -5t4.5 -11v-108z" />
    <glyph glyph-name="ldot" unicode="&#x140;" horiz-adv-x="417" 
d="M195 20q0 -8 -6 -14t-14 -6h-90q-8 0 -14 6t-6 14v670q0 8 6 14t14 6h90q8 0 14 -6t6 -14v-670zM400 256q0 -16 -16 -16h-108q-16 0 -16 16v108q0 6 4.5 11t11.5 5h108q7 0 11.5 -5t4.5 -11v-108z" />
    <glyph glyph-name="Lslash" unicode="&#x141;" horiz-adv-x="455" 
d="M312 472q11 7 20.5 4t9.5 -16v-79q0 -13 -5 -19.5t-16 -13.5l-109 -63q-7 -4 -7 -10v-120q0 -15 15 -15h205q8 0 14 -6t6 -14v-100q0 -8 -6 -14t-14 -6h-340q-8 0 -14 6t-6 14v172q0 4 -2.5 5t-4.5 -1l-29 -16q-10 -5 -19 -2.5t-9 17.5v79q0 10 4 15.5t15 12.5l39 23
q6 4 6 10v345q0 8 6 14t14 6h100q8 0 14 -6t6 -14v-261q0 -2 2.5 -4.5t7.5 0.5z" />
    <glyph glyph-name="lslash" unicode="&#x142;" horiz-adv-x="306" 
d="M200 419q0 -2 2.5 -4.5t7.5 0.5l51 34q11 7 20.5 1.5t9.5 -18.5v-74q0 -13 -5 -19.5t-16 -13.5l-63 -40q-7 -4 -7 -12v-253q0 -8 -6 -14t-14 -6h-90q-8 0 -14 6t-6 14v172q0 4 -2.5 5t-4.5 -1l-23 -13q-10 -6 -22 -0.5t-12 20.5v68q0 13 7.5 20.5t18.5 14.5l32 19
q6 2 6 10v355q0 8 6 14t14 6h90q8 0 14 -6t6 -14v-271z" />
    <glyph glyph-name="Nacute" unicode="&#x143;" horiz-adv-x="580" 
d="M377 0q-13 0 -19 5.5t-8 11.5l-136 351q-2 5 -5.5 4t-3.5 -6v-346q0 -8 -6 -14t-14 -6h-100q-8 0 -14 6t-6 14v660q0 8 6 14t14 6h119q11 0 17 -5.5t8 -12.5l137 -380q2 -5 5.5 -4t3.5 6v376q0 8 6 14t14 6h100q8 0 14 -6t6 -14v-660q0 -8 -6 -14t-14 -6h-118zM445 910
q14 0 17 -9t-5 -18l-115 -121q-5 -5 -10.5 -8.5t-19.5 -3.5h-69q-10 0 -16 9t3 21l82 114q4 5 9.5 10.5t16.5 5.5h107z" />
    <glyph glyph-name="nacute" unicode="&#x144;" horiz-adv-x="525" 
d="M470 20q0 -8 -6 -14t-14 -6h-90q-8 0 -14 6t-6 14v306q0 25 -19.5 42t-55.5 17q-35 0 -55 -16t-20 -39v-310q0 -8 -6 -14t-14 -6h-90q-8 0 -14 6t-6 14v460q0 8 6 14t14 6h50q11 0 18 -7q6 -5 11 -11t16 -6t21 5.5t22.5 12t28 12t38.5 5.5q39 0 73 -14.5t59 -39.5t39 -59
t14 -73v-305zM415 730q14 0 17 -9t-5 -18l-115 -121q-5 -5 -10.5 -8.5t-19.5 -3.5h-69q-10 0 -16 9t3 21l82 114q4 5 9.5 10.5t16.5 5.5h107z" />
    <glyph glyph-name="Ncommaaccent" unicode="&#x145;" horiz-adv-x="580" 
d="M377 0q-13 0 -19 5.5t-8 11.5l-136 351q-2 5 -5.5 4t-3.5 -6v-346q0 -8 -6 -14t-14 -6h-100q-8 0 -14 6t-6 14v660q0 8 6 14t14 6h119q11 0 17 -5.5t8 -12.5l137 -380q2 -5 5.5 -4t3.5 6v376q0 8 6 14t14 6h100q8 0 14 -6t6 -14v-660q0 -8 -6 -14t-14 -6h-118zM265 -305
q-15 0 -21.5 12t0.5 26l34 69q3 5 -0.5 9t-8.5 4h-24q-8 0 -14 6t-6 14v100q0 8 6 14t14 6h100q8 0 14 -6t6 -14v-97q0 -20 -6.5 -37.5t-15.5 -31.5l-34 -54q-5 -7 -12 -13.5t-22 -6.5h-10z" />
    <glyph glyph-name="ncommaaccent" unicode="&#x146;" horiz-adv-x="525" 
d="M470 20q0 -8 -6 -14t-14 -6h-90q-8 0 -14 6t-6 14v306q0 25 -19.5 42t-55.5 17q-35 0 -55 -16t-20 -39v-310q0 -8 -6 -14t-14 -6h-90q-8 0 -14 6t-6 14v460q0 8 6 14t14 6h50q11 0 18 -7q6 -5 11 -11t16 -6t21 5.5t22.5 12t28 12t38.5 5.5q39 0 73 -14.5t59 -39.5t39 -59
t14 -73v-305zM232 -305q-15 0 -21.5 12t0.5 26l34 69q3 5 -0.5 9t-8.5 4h-24q-8 0 -14 6t-6 14v100q0 8 6 14t14 6h100q8 0 14 -6t6 -14v-97q0 -20 -6.5 -37.5t-15.5 -31.5l-34 -54q-5 -7 -12 -13.5t-22 -6.5h-10z" />
    <glyph glyph-name="Ncaron" unicode="&#x147;" horiz-adv-x="580" 
d="M377 0q-13 0 -19 5.5t-8 11.5l-136 351q-2 5 -5.5 4t-3.5 -6v-346q0 -8 -6 -14t-14 -6h-100q-8 0 -14 6t-6 14v660q0 8 6 14t14 6h119q11 0 17 -5.5t8 -12.5l137 -380q2 -5 5.5 -4t3.5 6v376q0 8 6 14t14 6h100q8 0 14 -6t6 -14v-660q0 -8 -6 -14t-14 -6h-118zM291 850
q7 -11 14 0l35 44q4 5 12 10.5t19 5.5h94q14 0 16 -10t-3 -15l-119 -123q-5 -5 -10.5 -8.5t-18.5 -3.5h-62q-14 0 -19.5 3.5t-10.5 8.5l-119 123q-5 5 -3.5 15t14.5 10h95q11 0 19 -5.5t12 -10.5z" />
    <glyph glyph-name="ncaron" unicode="&#x148;" horiz-adv-x="525" 
d="M470 20q0 -8 -6 -14t-14 -6h-90q-8 0 -14 6t-6 14v306q0 25 -19.5 42t-55.5 17q-35 0 -55 -16t-20 -39v-310q0 -8 -6 -14t-14 -6h-90q-8 0 -14 6t-6 14v460q0 8 6 14t14 6h50q11 0 18 -7q6 -5 11 -11t16 -6t21 5.5t22.5 12t28 12t38.5 5.5q39 0 73 -14.5t59 -39.5t39 -59
t14 -73v-305zM255 670q7 -11 14 0l35 44q4 5 12 10.5t19 5.5h94q14 0 16 -10t-3 -15l-119 -123q-5 -5 -10.5 -8.5t-18.5 -3.5h-62q-14 0 -19.5 3.5t-10.5 8.5l-119 123q-5 5 -3.5 15t14.5 10h95q11 0 19 -5.5t12 -10.5z" />
    <glyph glyph-name="Eng" unicode="&#x14a;" horiz-adv-x="580" 
d="M214 378q-2 5 -5.5 4t-3.5 -6v-356q0 -8 -6 -14t-14 -6h-100q-8 0 -14 6t-6 14v660q0 8 6 14t14 6h119q11 0 17 -5.5t8 -12.5l137 -340q2 -5 5.5 -4t3.5 6v336q0 8 6 14t14 6h100q8 0 14 -6t6 -14v-669q0 -46 -16.5 -86t-46.5 -70t-73 -47.5t-95 -17.5q-8 0 -14 6t-6 14
v100q0 8 6 14t14 6q35 0 61.5 18.5t26.5 51.5v30z" />
    <glyph glyph-name="eng" unicode="&#x14b;" horiz-adv-x="525" 
d="M273 -96q28 0 47.5 16.5t19.5 49.5v356q0 25 -19.5 42t-55.5 17q-35 0 -55 -16t-20 -39v-310q0 -8 -6 -14t-14 -6h-90q-8 0 -14 6t-6 14v460q0 8 6 14t14 6h50q9 0 14 -4t9 -8.5t9 -8t13 -3.5q11 0 21 5.5t22.5 12t28 12t38.5 5.5q39 0 73 -14.5t59 -39.5t39 -59t14 -73
v-355q0 -38 -15 -71.5t-41 -59t-62.5 -40t-78.5 -14.5q-8 0 -14 6t-6 14v79q0 8 6 14t14 6z" />
    <glyph glyph-name="Omacron" unicode="&#x14c;" horiz-adv-x="582" 
d="M291 130q46 0 69.5 23.5t27.5 56.5q4 31 5.5 67t1.5 73t-1.5 72.5t-5.5 67.5q-4 33 -27.5 56.5t-69.5 23.5t-69.5 -23.5t-27.5 -56.5q-4 -32 -6 -67.5t-2 -72.5t2 -73t6 -67q4 -33 27.5 -56.5t69.5 -23.5zM291 711q52 0 93.5 -17.5t72 -48t49 -70.5t23.5 -85
q4 -32 5.5 -67.5t1.5 -72.5t-1.5 -73t-5.5 -67q-5 -45 -23.5 -85t-49 -70.5t-72 -48t-93.5 -17.5t-93.5 17.5t-72 48t-49 70.5t-23.5 85q-4 31 -6 67t-2 73t2 72.5t6 67.5q5 45 23.5 85t49 70.5t72 48t93.5 17.5zM428 858q8 0 14 -6t6 -14v-58q0 -8 -6 -14t-14 -6h-262
q-8 0 -14 6t-6 14v58q0 8 6 14t14 6h262z" />
    <glyph glyph-name="omacron" unicode="&#x14d;" horiz-adv-x="507" 
d="M176 325q-2 -15 -3.5 -34.5t-1.5 -40.5t1.5 -40.5t3.5 -34.5q4 -26 21.5 -41t55.5 -15t56 15.5t22 40.5q2 15 3 34.5t1 40.5t-1 40.5t-3 34.5q-4 25 -22 40.5t-56 15.5t-55 -13.5t-22 -42.5zM46 175q-2 15 -3 34.5t-1 40.5t1 40.5t3 34.5q5 39 20.5 73t42 59t62.5 39.5
t82 14.5t82.5 -14.5t62.5 -39.5t42 -59t21 -73q2 -15 3 -34.5t1 -40.5t-1 -40.5t-3 -34.5q-5 -39 -20.5 -73t-42 -59t-62.5 -39.5t-82 -14.5t-82.5 14.5t-63 39.5t-42 59t-20.5 73zM393 694q8 0 14 -6t6 -14v-58q0 -8 -6 -14t-14 -6h-262q-8 0 -14 6t-6 14v58q0 8 6 14t14 6
h262z" />
    <glyph glyph-name="Obreve" unicode="&#x14e;" horiz-adv-x="582" 
d="M291 130q46 0 69.5 23.5t27.5 56.5q4 31 5.5 67t1.5 73t-1.5 72.5t-5.5 67.5q-4 33 -27.5 56.5t-69.5 23.5t-69.5 -23.5t-27.5 -56.5q-4 -32 -6 -67.5t-2 -72.5t2 -73t6 -67q4 -33 27.5 -56.5t69.5 -23.5zM291 711q52 0 93.5 -17.5t72 -48t49 -70.5t23.5 -85
q4 -32 5.5 -67.5t1.5 -72.5t-1.5 -73t-5.5 -67q-5 -45 -23.5 -85t-49 -70.5t-72 -48t-93.5 -17.5t-93.5 17.5t-72 48t-49 70.5t-23.5 85q-4 31 -6 67t-2 73t2 72.5t6 67.5q5 45 23.5 85t49 70.5t72 48t93.5 17.5zM355 886q0 7 4.5 12t12.5 5h63q7 0 12 -5t5 -12
q0 -29 -11 -55.5t-31.5 -46.5t-49.5 -32t-65 -12t-65 12t-50 32t-32 46.5t-11 55.5q0 7 5 12t12 5h63q8 0 12.5 -5t4.5 -12q0 -23 19 -39.5t42 -16.5t41.5 16.5t18.5 39.5z" />
    <glyph glyph-name="obreve" unicode="&#x14f;" horiz-adv-x="507" 
d="M176 325q-2 -15 -3.5 -34.5t-1.5 -40.5t1.5 -40.5t3.5 -34.5q4 -26 21.5 -41t55.5 -15t56 15.5t22 40.5q2 15 3 34.5t1 40.5t-1 40.5t-3 34.5q-4 25 -22 40.5t-56 15.5t-55 -13.5t-22 -42.5zM46 175q-2 15 -3 34.5t-1 40.5t1 40.5t3 34.5q5 39 20.5 73t42 59t62.5 39.5
t82 14.5t82.5 -14.5t62.5 -39.5t42 -59t21 -73q2 -15 3 -34.5t1 -40.5t-1 -40.5t-3 -34.5q-5 -39 -20.5 -73t-42 -59t-62.5 -39.5t-82 -14.5t-82.5 14.5t-63 39.5t-42 59t-20.5 73zM322 713q0 7 4.5 12t12.5 5h63q7 0 12 -5t5 -12q0 -29 -11 -55.5t-31.5 -46.5t-49.5 -32
t-65 -12t-65 12t-50 32t-32 46.5t-11 55.5q0 7 5 12t12 5h63q8 0 12.5 -5t4.5 -12q0 -23 19 -39.5t42 -16.5t41.5 16.5t18.5 39.5z" />
    <glyph glyph-name="Ohungarumlaut" unicode="&#x150;" horiz-adv-x="582" 
d="M291 130q46 0 69.5 23.5t27.5 56.5q4 31 5.5 67t1.5 73t-1.5 72.5t-5.5 67.5q-4 33 -27.5 56.5t-69.5 23.5t-69.5 -23.5t-27.5 -56.5q-4 -32 -6 -67.5t-2 -72.5t2 -73t6 -67q4 -33 27.5 -56.5t69.5 -23.5zM291 711q52 0 93.5 -17.5t72 -48t49 -70.5t23.5 -85
q4 -32 5.5 -67.5t1.5 -72.5t-1.5 -73t-5.5 -67q-5 -45 -23.5 -85t-49 -70.5t-72 -48t-93.5 -17.5t-93.5 17.5t-72 48t-49 70.5t-23.5 85q-4 31 -6 67t-2 73t2 72.5t6 67.5q5 45 23.5 85t49 70.5t72 48t93.5 17.5zM354 910q14 0 17 -9t-5 -18l-115 -121q-5 -5 -10.5 -8.5
t-19.5 -3.5h-69q-10 0 -16 9t3 21l82 114q4 5 9.5 10.5t16.5 5.5h107zM561 910q14 0 17 -9t-5 -18l-115 -121q-5 -5 -10.5 -8.5t-19.5 -3.5h-69q-10 0 -16 9t3 21l82 114q4 5 9.5 10.5t16.5 5.5h107z" />
    <glyph glyph-name="ohungarumlaut" unicode="&#x151;" horiz-adv-x="508" 
d="M176 325q-2 -15 -3.5 -34.5t-1.5 -40.5t1.5 -40.5t3.5 -34.5q4 -26 21.5 -41t55.5 -15t56 15.5t22 40.5q2 15 3 34.5t1 40.5t-1 40.5t-3 34.5q-4 25 -22 40.5t-56 15.5t-55 -13.5t-22 -42.5zM46 175q-2 15 -3 34.5t-1 40.5t1 40.5t3 34.5q5 39 20.5 73t42 59t62.5 39.5
t82 14.5t82.5 -14.5t62.5 -39.5t42 -59t21 -73q2 -15 3 -34.5t1 -40.5t-1 -40.5t-3 -34.5q-5 -39 -20.5 -73t-42 -59t-62.5 -39.5t-82 -14.5t-82.5 14.5t-63 39.5t-42 59t-20.5 73zM320 730q14 0 17 -9t-5 -18l-115 -121q-5 -5 -10.5 -8.5t-19.5 -3.5h-69q-10 0 -16 9t3 21
l82 114q4 5 9.5 10.5t16.5 5.5h107zM527 730q14 0 17 -9t-5 -18l-115 -121q-5 -5 -10.5 -8.5t-19.5 -3.5h-69q-10 0 -16 9t3 21l82 114q4 5 9.5 10.5t16.5 5.5h107z" />
    <glyph glyph-name="OE" unicode="&#x152;" horiz-adv-x="840" 
d="M533 150q0 -10 10 -10h237q8 0 14 -6t6 -14v-100q0 -8 -6 -14t-14 -6h-334q-8 0 -14 6t-6 14q0 3 -2.5 3t-4.5 -2q-51 -32 -123 -32q-52 0 -93.5 17.5t-72 48t-49 70.5t-23.5 85q-4 31 -6 67t-2 73t2 72.5t6 67.5q5 45 23.5 85t49 70.5t72 48t93.5 17.5q35 0 66 -9
t57 -24q2 -1 4.5 -1.5t2.5 3.5q0 8 6 14t14 6h330q8 0 14 -6t6 -14v-100q0 -8 -6 -14t-14 -6h-233q-10 0 -10 -10v-120q0 -10 10 -10h225q8 0 14 -6t6 -14v-100q0 -8 -6 -14t-14 -6h-225q-10 0 -10 -10v-120zM296 130q46 0 69.5 23.5t27.5 56.5q4 31 5.5 67t1.5 73
t-1.5 72.5t-5.5 67.5q-4 33 -27.5 56.5t-69.5 23.5t-69.5 -23.5t-27.5 -56.5q-4 -32 -6 -67.5t-2 -72.5t2 -73t6 -67q4 -33 27.5 -56.5t69.5 -23.5z" />
    <glyph glyph-name="oe" unicode="&#x153;" horiz-adv-x="807" 
d="M176 325q-2 -15 -3 -34.5t-1 -40.5t1 -40.5t3 -34.5q3 -26 21 -43t56 -17t56.5 17.5t21.5 42.5q2 15 3 34.5t1 40.5t-1 40.5t-3 34.5q-3 25 -21.5 40.5t-56.5 15.5t-55.5 -13.5t-21.5 -42.5zM561 393q-43 0 -65 -17t-22 -46q0 -9 10 -9h152q10 0 10 9q0 16 -7 28
t-19 19.5t-27.5 11.5t-31.5 4zM423 38q-11 9 -19.5 6.5t-13.5 -7.5q-26 -23 -60 -35.5t-76 -12.5q-46 0 -82.5 14.5t-63 39.5t-42 59t-20.5 73q-2 15 -3 34.5t-1 40.5t1 40.5t3 34.5q5 39 20.5 73t42 59t62.5 39.5t82 14.5q43 0 77 -13t60 -36q5 -5 13.5 -7.5t19.5 6.5
q26 23 60 36.5t78 13.5q45 0 82.5 -13t64.5 -38.5t42 -62t15 -84.5v-83q0 -8 -6 -14t-14 -6h-257q-15 0 -15 -15q0 -42 26 -65.5t62 -23.5q60 0 79 46q7 17 23 17h83q8 0 13.5 -4.5t3.5 -15.5q-14 -71 -66 -115.5t-136 -44.5q-44 0 -78 13t-60 36z" />
    <glyph glyph-name="Racute" unicode="&#x154;" horiz-adv-x="560" 
d="M215 280q-10 0 -10 -10v-250q0 -8 -6 -14t-14 -6h-100q-8 0 -14 6t-6 14v660q0 8 6 14t14 6h220q43 0 81.5 -16.5t67 -45t45 -67t16.5 -81.5q0 -58 -25 -99.5t-79 -77.5q-11 -8 -11 -15t5 -18l107 -250q5 -11 0.5 -20.5t-19.5 -9.5h-103q-12 0 -18.5 5.5t-10.5 14.5
l-102 247q-2 4 -6 8.5t-12 4.5h-26zM215 560q-10 0 -10 -10v-120q0 -10 10 -10h90q29 0 49.5 20.5t20.5 49.5t-20.5 49.5t-49.5 20.5h-90zM428 910q14 0 17 -9t-5 -18l-115 -121q-5 -5 -10.5 -8.5t-19.5 -3.5h-69q-10 0 -16 9t3 21l82 114q4 5 9.5 10.5t16.5 5.5h107z" />
    <glyph glyph-name="racute" unicode="&#x155;" horiz-adv-x="380" 
d="M320 380q-57 0 -93.5 -30t-36.5 -91v-239q0 -8 -6 -14t-14 -6h-90q-8 0 -14 6t-6 14v460q0 8 6 14t14 6h50q6 0 12.5 -3.5t8.5 -9.5q5 -13 9.5 -27.5t17.5 -14.5q12 0 21.5 8.5t24.5 19t37.5 19t59.5 8.5h34q8 0 14 -6t6 -14v-80q0 -8 -6 -14t-14 -6h-35zM345 730
q14 0 17 -9t-5 -18l-115 -121q-5 -5 -10.5 -8.5t-19.5 -3.5h-69q-10 0 -16 9t3 21l82 114q4 5 9.5 10.5t16.5 5.5h107z" />
    <glyph glyph-name="Rcommaaccent" unicode="&#x156;" horiz-adv-x="560" 
d="M215 280q-10 0 -10 -10v-250q0 -8 -6 -14t-14 -6h-100q-8 0 -14 6t-6 14v660q0 8 6 14t14 6h220q43 0 81.5 -16.5t67 -45t45 -67t16.5 -81.5q0 -58 -25 -99.5t-79 -77.5q-11 -8 -11 -15t5 -18l107 -250q5 -11 0.5 -20.5t-19.5 -9.5h-103q-12 0 -18.5 5.5t-10.5 14.5
l-102 247q-2 4 -6 8.5t-12 4.5h-26zM215 560q-10 0 -10 -10v-120q0 -10 10 -10h90q29 0 49.5 20.5t20.5 49.5t-20.5 49.5t-49.5 20.5h-90zM255 -305q-15 0 -21.5 12t0.5 26l34 69q3 5 -0.5 9t-8.5 4h-24q-8 0 -14 6t-6 14v100q0 8 6 14t14 6h100q8 0 14 -6t6 -14v-97
q0 -20 -6.5 -37.5t-15.5 -31.5l-34 -54q-5 -7 -12 -13.5t-22 -6.5h-10z" />
    <glyph glyph-name="rcommaaccent" unicode="&#x157;" horiz-adv-x="384" 
d="M324 380q-57 0 -93.5 -30t-36.5 -91v-239q0 -8 -6 -14t-14 -6h-90q-8 0 -14 6t-6 14v460q0 8 6 14t14 6h50q6 0 12.5 -3.5t8.5 -9.5q5 -13 9.5 -27.5t17.5 -14.5q12 0 21.5 8.5t24.5 19t37.5 19t59.5 8.5h34q8 0 14 -6t6 -14v-80q0 -8 -6 -14t-14 -6h-35zM100 -305
q-15 0 -21.5 12t0.5 26l34 69q3 5 -0.5 9t-8.5 4h-24q-8 0 -14 6t-6 14v100q0 8 6 14t14 6h100q8 0 14 -6t6 -14v-97q0 -20 -6.5 -37.5t-15.5 -31.5l-34 -54q-5 -7 -12 -13.5t-22 -6.5h-10z" />
    <glyph glyph-name="Rcaron" unicode="&#x158;" horiz-adv-x="560" 
d="M215 280q-10 0 -10 -10v-250q0 -8 -6 -14t-14 -6h-100q-8 0 -14 6t-6 14v660q0 8 6 14t14 6h220q43 0 81.5 -16.5t67 -45t45 -67t16.5 -81.5q0 -58 -25 -99.5t-79 -77.5q-11 -8 -11 -15t5 -18l107 -250q5 -11 0.5 -20.5t-19.5 -9.5h-103q-12 0 -18.5 5.5t-10.5 14.5
l-102 247q-2 4 -6 8.5t-12 4.5h-26zM215 560q-10 0 -10 -10v-120q0 -10 10 -10h90q29 0 49.5 20.5t20.5 49.5t-20.5 49.5t-49.5 20.5h-90zM261 850q7 -11 14 0l35 44q4 5 12 10.5t19 5.5h94q14 0 16 -10t-3 -15l-119 -123q-5 -5 -10.5 -8.5t-18.5 -3.5h-62q-14 0 -19.5 3.5
t-10.5 8.5l-119 123q-5 5 -3.5 15t14.5 10h95q11 0 19 -5.5t12 -10.5z" />
    <glyph glyph-name="rcaron" unicode="&#x159;" horiz-adv-x="432" 
d="M363 380q-57 0 -93.5 -30t-36.5 -91v-239q0 -8 -6 -14t-14 -6h-90q-8 0 -14 6t-6 14v460q0 8 6 14t14 6h50q6 0 12.5 -3.5t8.5 -9.5q5 -13 9.5 -27.5t17.5 -14.5q12 0 21.5 8.5t24.5 19t37.5 19t59.5 8.5h34q8 0 14 -6t6 -14v-80q0 -8 -6 -14t-14 -6h-35zM236 670
q7 -11 14 0l35 44q4 5 12 10.5t19 5.5h94q14 0 16 -10t-3 -15l-119 -123q-5 -5 -10.5 -8.5t-18.5 -3.5h-62q-14 0 -19.5 3.5t-10.5 8.5l-119 123q-5 5 -3.5 15t14.5 10h95q11 0 19 -5.5t12 -10.5z" />
    <glyph glyph-name="Sacute" unicode="&#x15a;" horiz-adv-x="542" 
d="M367 208q0 32 -23.5 49.5t-80.5 30.5q-47 10 -88 26.5t-71 41.5t-47.5 60.5t-17.5 83.5q0 44 17 82.5t48 67t72.5 45t91.5 16.5t92.5 -16.5t73 -45t47.5 -67t17 -82.5v-15q0 -8 -6 -14t-14 -6h-101q-8 0 -14 6t-6 14v15q0 30 -23 52.5t-66 22.5q-42 0 -64.5 -20
t-22.5 -50q0 -29 25 -46.5t64 -25.5q52 -11 96.5 -27.5t76.5 -43t50.5 -64.5t18.5 -90q0 -49 -18 -89t-50.5 -69t-77.5 -45t-98 -16q-52 0 -95.5 17t-75 46.5t-49.5 69.5t-18 86v30q0 8 6 14t14 6h101q8 0 14 -6t6 -14v-30q0 -35 25 -58.5t72 -23.5q45 0 72 23.5t27 58.5z
M433 930q14 0 17 -9t-5 -18l-115 -121q-5 -5 -10.5 -8.5t-19.5 -3.5h-69q-10 0 -16 9t3 21l82 114q4 5 9.5 10.5t16.5 5.5h107z" />
    <glyph glyph-name="sacute" unicode="&#x15b;" horiz-adv-x="490" 
d="M385 730q14 0 17 -9t-5 -18l-115 -121q-5 -5 -10.5 -8.5t-19.5 -3.5h-69q-10 0 -16 9t3 21l82 114q4 5 9.5 10.5t16.5 5.5h107zM444 350q0 -8 -6 -14t-14 -6h-75q-8 0 -14.5 4.5t-8.5 20.5q-4 25 -28 35.5t-52 10.5q-34 0 -57 -10t-23 -31q0 -11 6.5 -18t18 -11t26 -6.5
t29.5 -5.5q33 -6 70 -14t68.5 -24.5t52.5 -47t21 -81.5q0 -37 -17 -67t-46 -51.5t-67.5 -33t-81.5 -11.5q-41 0 -79.5 9.5t-68.5 30.5t-48 54.5t-18 80.5q0 8 6 14t14 6h76q18 0 23 -6t7 -19q3 -29 28 -40.5t60 -11.5q41 0 66.5 12t25.5 35q0 13 -8 21t-21 12.5t-29.5 7.5
t-33.5 5q-31 4 -66 13t-65 27t-50 47t-20 73q0 33 18 61t46.5 48t64.5 31t72 11q34 0 69 -9t63.5 -28t47 -50t18.5 -74z" />
    <glyph glyph-name="Scircumflex" unicode="&#x15c;" horiz-adv-x="542" 
d="M367 208q0 32 -23.5 49.5t-80.5 30.5q-47 10 -88 26.5t-71 41.5t-47.5 60.5t-17.5 83.5q0 44 17 82.5t48 67t72.5 45t91.5 16.5t92.5 -16.5t73 -45t47.5 -67t17 -82.5v-15q0 -8 -6 -14t-14 -6h-101q-8 0 -14 6t-6 14v15q0 30 -23 52.5t-66 22.5q-42 0 -64.5 -20
t-22.5 -50q0 -29 25 -46.5t64 -25.5q52 -11 96.5 -27.5t76.5 -43t50.5 -64.5t18.5 -90q0 -49 -18 -89t-50.5 -69t-77.5 -45t-98 -16q-52 0 -95.5 17t-75 46.5t-49.5 69.5t-18 86v30q0 8 6 14t14 6h101q8 0 14 -6t6 -14v-30q0 -35 25 -58.5t72 -23.5q45 0 72 23.5t27 58.5z
M238 766q-4 -5 -12 -10.5t-19 -5.5h-95q-13 0 -14.5 10t3.5 15l119 123q5 5 10.5 8.5t19.5 3.5h62q13 0 18.5 -3.5t10.5 -8.5l119 -123q5 -5 3 -15t-16 -10h-94q-11 0 -19 5.5t-12 10.5l-35 44q-7 10 -14 0z" />
    <glyph glyph-name="scircumflex" unicode="&#x15d;" horiz-adv-x="490" 
d="M444 350q0 -8 -6 -14t-14 -6h-75q-8 0 -14.5 4.5t-8.5 20.5q-4 25 -28 35.5t-52 10.5q-34 0 -57 -10t-23 -31q0 -11 6.5 -18t18 -11t26 -6.5t29.5 -5.5q33 -6 70 -14t68.5 -24.5t52.5 -47t21 -81.5q0 -37 -17 -67t-46 -51.5t-67.5 -33t-81.5 -11.5q-41 0 -79.5 9.5
t-68.5 30.5t-48 54.5t-18 80.5q0 8 6 14t14 6h76q18 0 23 -6t7 -19q3 -29 28 -40.5t60 -11.5q41 0 66.5 12t25.5 35q0 13 -8 21t-21 12.5t-29.5 7.5t-33.5 5q-31 4 -66 13t-65 27t-50 47t-20 73q0 33 18 61t46.5 48t64.5 31t72 11q34 0 69 -9t63.5 -28t47 -50t18.5 -74z
M200 586q-4 -5 -12 -10.5t-19 -5.5h-95q-13 0 -14.5 10t3.5 15l119 123q5 5 10.5 8.5t19.5 3.5h62q13 0 18.5 -3.5t10.5 -8.5l119 -123q5 -5 3 -15t-16 -10h-94q-11 0 -19 5.5t-12 10.5l-35 44q-7 10 -14 0z" />
    <glyph glyph-name="Scedilla" unicode="&#x15e;" horiz-adv-x="542" 
d="M367 208q0 32 -23.5 49.5t-80.5 30.5q-47 10 -88 26.5t-71 41.5t-47.5 60.5t-17.5 83.5q0 44 17 82.5t48 67t72.5 45t91.5 16.5t92.5 -16.5t73 -45t47.5 -67t17 -82.5v-15q0 -8 -6 -14t-14 -6h-101q-8 0 -14 6t-6 14v15q0 30 -23 52.5t-66 22.5q-42 0 -64.5 -20
t-22.5 -50q0 -29 25 -46.5t64 -25.5q52 -11 96.5 -27.5t76.5 -43t50.5 -64.5t18.5 -90q0 -49 -18 -89t-50.5 -69t-77.5 -45t-98 -16q-52 0 -95.5 17t-75 46.5t-49.5 69.5t-18 86v30q0 8 6 14t14 6h101q8 0 14 -6t6 -14v-30q0 -35 25 -58.5t72 -23.5q45 0 72 23.5t27 58.5z
M314 -45q24 0 28.5 -13.5t1.5 -25.5l-21 -92q-6 -24 -32 -24h-62q-24 0 -29 14t-1 25l29 92q7 24 32 24h54z" />
    <glyph glyph-name="scedilla" unicode="&#x15f;" horiz-adv-x="490" 
d="M444 350q0 -8 -6 -14t-14 -6h-75q-8 0 -14.5 4.5t-8.5 20.5q-4 25 -28 35.5t-52 10.5q-34 0 -57 -10t-23 -31q0 -11 6.5 -18t18 -11t26 -6.5t29.5 -5.5q33 -6 70 -14t68.5 -24.5t52.5 -47t21 -81.5q0 -37 -17 -67t-46 -51.5t-67.5 -33t-81.5 -11.5q-41 0 -79.5 9.5
t-68.5 30.5t-48 54.5t-18 80.5q0 8 6 14t14 6h76q18 0 23 -6t7 -19q3 -29 28 -40.5t60 -11.5q41 0 66.5 12t25.5 35q0 13 -8 21t-21 12.5t-29.5 7.5t-33.5 5q-31 4 -66 13t-65 27t-50 47t-20 73q0 33 18 61t46.5 48t64.5 31t72 11q34 0 69 -9t63.5 -28t47 -50t18.5 -74z
M275 -45q24 0 28.5 -13.5t1.5 -25.5l-21 -92q-6 -24 -32 -24h-62q-24 0 -29 14t-1 25l29 92q7 24 32 24h54z" />
    <glyph glyph-name="Scaron" unicode="&#x160;" horiz-adv-x="542" 
d="M367 208q0 32 -23.5 49.5t-80.5 30.5q-47 10 -88 26.5t-71 41.5t-47.5 60.5t-17.5 83.5q0 44 17 82.5t48 67t72.5 45t91.5 16.5t92.5 -16.5t73 -45t47.5 -67t17 -82.5v-15q0 -8 -6 -14t-14 -6h-101q-8 0 -14 6t-6 14v15q0 30 -23 52.5t-66 22.5q-42 0 -64.5 -20
t-22.5 -50q0 -29 25 -46.5t64 -25.5q52 -11 96.5 -27.5t76.5 -43t50.5 -64.5t18.5 -90q0 -49 -18 -89t-50.5 -69t-77.5 -45t-98 -16q-52 0 -95.5 17t-75 46.5t-49.5 69.5t-18 86v30q0 8 6 14t14 6h101q8 0 14 -6t6 -14v-30q0 -35 25 -58.5t72 -23.5q45 0 72 23.5t27 58.5z
M273 870q7 -11 14 0l35 44q4 5 12 10.5t19 5.5h94q14 0 16 -10t-3 -15l-119 -123q-5 -5 -10.5 -8.5t-18.5 -3.5h-62q-14 0 -19.5 3.5t-10.5 8.5l-119 123q-5 5 -3.5 15t14.5 10h95q11 0 19 -5.5t12 -10.5z" />
    <glyph glyph-name="scaron" unicode="&#x161;" horiz-adv-x="490" 
d="M444 350q0 -8 -6 -14t-14 -6h-75q-8 0 -14.5 4.5t-8.5 20.5q-4 25 -28 35.5t-52 10.5q-34 0 -57 -10t-23 -31q0 -11 6.5 -18t18 -11t26 -6.5t29.5 -5.5q33 -6 70 -14t68.5 -24.5t52.5 -47t21 -81.5q0 -37 -17 -67t-46 -51.5t-67.5 -33t-81.5 -11.5q-41 0 -79.5 9.5
t-68.5 30.5t-48 54.5t-18 80.5q0 8 6 14t14 6h76q18 0 23 -6t7 -19q3 -29 28 -40.5t60 -11.5q41 0 66.5 12t25.5 35q0 13 -8 21t-21 12.5t-29.5 7.5t-33.5 5q-31 4 -66 13t-65 27t-50 47t-20 73q0 33 18 61t46.5 48t64.5 31t72 11q34 0 69 -9t63.5 -28t47 -50t18.5 -74z
M235 670q7 -11 14 0l35 44q4 5 12 10.5t19 5.5h94q14 0 16 -10t-3 -15l-119 -123q-5 -5 -10.5 -8.5t-18.5 -3.5h-62q-14 0 -19.5 3.5t-10.5 8.5l-119 123q-5 5 -3.5 15t14.5 10h95q11 0 19 -5.5t12 -10.5z" />
    <glyph glyph-name="Tcommaaccent" unicode="&#x162;" horiz-adv-x="454" 
d="M307 560q-10 0 -10 -10v-530q0 -8 -6 -14t-14 -6h-100q-8 0 -14 6t-6 14v530q0 10 -10 10h-125q-8 0 -14 6t-6 14v100q0 8 6 14t14 6h410q8 0 14 -6t6 -14v-100q0 -8 -6 -14t-14 -6h-125zM205 -305q-15 0 -21.5 12t0.5 26l34 69q3 5 -0.5 9t-8.5 4h-24q-8 0 -14 6t-6 14
v100q0 8 6 14t14 6h100q8 0 14 -6t6 -14v-97q0 -20 -6.5 -37.5t-15.5 -31.5l-34 -54q-5 -7 -12 -13.5t-22 -6.5h-10z" />
    <glyph glyph-name="tcommaaccent" unicode="&#x163;" horiz-adv-x="403" 
d="M363 497q8 0 14 -6t6 -14v-80q0 -8 -6 -14t-14 -6h-110q-10 0 -10 -10v-182q0 -25 16.5 -42.5t43.5 -17.5h70q8 0 14 -6t6 -14v-85q0 -8 -6 -14t-14 -6h-70q-86 0 -138 48.5t-52 134.5v184q0 10 -10 10h-78q-8 0 -14 6t-6 14v80q0 8 6 14t14 6h78q10 0 10 10v153
q0 8 6 14t14 6h90q8 0 14 -6t6 -14v-153q0 -10 10 -10h110zM192 -305q-15 0 -21.5 12t0.5 26l34 69q3 5 -0.5 9t-8.5 4h-24q-8 0 -14 6t-6 14v100q0 8 6 14t14 6h100q8 0 14 -6t6 -14v-97q0 -20 -6.5 -37.5t-15.5 -31.5l-34 -54q-5 -7 -12 -13.5t-22 -6.5h-10z" />
    <glyph glyph-name="Tcaron" unicode="&#x164;" horiz-adv-x="454" 
d="M307 560q-10 0 -10 -10v-530q0 -8 -6 -14t-14 -6h-100q-8 0 -14 6t-6 14v530q0 10 -10 10h-125q-8 0 -14 6t-6 14v100q0 8 6 14t14 6h410q8 0 14 -6t6 -14v-100q0 -8 -6 -14t-14 -6h-125zM226 850q7 -11 14 0l35 44q4 5 12 10.5t19 5.5h94q14 0 16 -10t-3 -15l-119 -123
q-5 -5 -10.5 -8.5t-18.5 -3.5h-62q-14 0 -19.5 3.5t-10.5 8.5l-119 123q-5 5 -3.5 15t14.5 10h95q11 0 19 -5.5t12 -10.5z" />
    <glyph glyph-name="tcaron" unicode="&#x165;" horiz-adv-x="527" 
d="M363 497q8 0 14 -6t6 -14v-80q0 -8 -6 -14t-14 -6h-110q-10 0 -10 -10v-182q0 -25 16.5 -42.5t43.5 -17.5h70q8 0 14 -6t6 -14v-85q0 -8 -6 -14t-14 -6h-70q-86 0 -138 48.5t-52 134.5v184q0 10 -10 10h-78q-8 0 -14 6t-6 14v80q0 8 6 14t14 6h78q10 0 10 10v153
q0 8 6 14t14 6h90q8 0 14 -6t6 -14v-153q0 -10 10 -10h110zM444 440q-15 0 -21.5 12t0.5 26l34 69q3 5 -0.5 9t-8.5 4h-24q-8 0 -14 6t-6 14v100q0 8 6 14t14 6h100q8 0 14 -6t6 -14v-97q0 -20 -6.5 -37.5t-15.5 -31.5l-34 -54q-5 -7 -12 -13.5t-22 -6.5h-10z" />
    <glyph glyph-name="Tbar" unicode="&#x166;" horiz-adv-x="454" 
d="M157 370q0 10 -10 10h-113q-8 0 -14 6t-6 14v80q0 8 6 14t14 6h113q10 0 10 10v50q0 10 -10 10h-125q-8 0 -14 6t-6 14v90q0 8 6 14t14 6h410q8 0 14 -6t6 -14v-90q0 -8 -6 -14t-14 -6h-125q-10 0 -10 -10v-50q0 -10 10 -10h112q8 0 14 -6t6 -14v-80q0 -8 -6 -14t-14 -6
h-112q-10 0 -10 -10v-350q0 -8 -6 -14t-14 -6h-100q-8 0 -14 6t-6 14v350z" />
    <glyph glyph-name="tbar" unicode="&#x167;" horiz-adv-x="403" 
d="M113 205q0 10 -10 10h-78q-8 0 -14 6t-6 14v70q0 8 6 14t14 6h78q10 0 10 10v42q0 10 -10 10h-78q-8 0 -14 6t-6 14v70q0 8 6 14t14 6h78q10 0 10 10v153q0 8 6 14t14 6h90q8 0 14 -6t6 -14v-153q0 -10 10 -10h110q8 0 14 -6t6 -14v-70q0 -8 -6 -14t-14 -6h-110
q-10 0 -10 -10v-42q0 -10 10 -10h110q8 0 14 -6t6 -14v-70q0 -8 -6 -14t-14 -6h-110q-10 0 -10 -10v-20q0 -25 16.5 -42.5t43.5 -17.5h70q8 0 14 -6t6 -14v-85q0 -8 -6 -14t-14 -6h-70q-86 0 -138 48.5t-52 134.5v22z" />
    <glyph glyph-name="Utilde" unicode="&#x168;" horiz-adv-x="582" 
d="M528 210q0 -45 -18 -85.5t-49.5 -70.5t-75 -47.5t-95.5 -17.5q-51 0 -94.5 17.5t-75 47.5t-49 70.5t-17.5 85.5v470q0 8 6 14t14 6h101q8 0 14 -6t6 -14v-470q0 -33 25 -56.5t70 -23.5q46 0 71.5 23.5t25.5 56.5v470q0 8 6 14t14 6h101q8 0 14 -6t6 -14v-470zM386 864
q19 0 29.5 6.5t16.5 14.5t15.5 4t9.5 -18v-60q0 -20 -20.5 -35.5t-50.5 -15.5q-24 0 -45.5 4t-43 8.5t-44 8.5t-47.5 4q-17 0 -27.5 -5.5t-18.5 -15.5q-6 -7 -15.5 -3.5t-9.5 17.5v60q0 20 20.5 35.5t50.5 15.5q24 0 45.5 -4t43 -8.5t43.5 -8.5t48 -4z" />
    <glyph glyph-name="utilde" unicode="&#x169;" horiz-adv-x="525" 
d="M55 480q0 8 6 14t14 6h90q8 0 14 -6t6 -14v-306q0 -25 19.5 -42t55.5 -17q35 0 55 16t20 39v310q0 8 6 14t14 6h90q8 0 14 -6t6 -14v-460q0 -8 -6 -14t-14 -6h-50q-9 0 -14 3t-9 7q-5 4 -9.5 7t-12.5 3q-11 0 -20.5 -5t-20.5 -10.5t-26.5 -10.5t-37.5 -5q-39 0 -74 14.5
t-60.5 39.5t-40.5 59t-15 73v305zM350 684q19 0 29.5 6.5t16.5 14.5t15.5 4t9.5 -18v-60q0 -20 -20.5 -35.5t-50.5 -15.5q-24 0 -45.5 4t-43 8.5t-44 8.5t-47.5 4q-17 0 -27.5 -5.5t-18.5 -15.5q-6 -7 -15.5 -3.5t-9.5 17.5v60q0 20 20.5 35.5t50.5 15.5q24 0 45.5 -4
t43 -8.5t43.5 -8.5t48 -4z" />
    <glyph glyph-name="Umacron" unicode="&#x16a;" horiz-adv-x="582" 
d="M528 210q0 -45 -18 -85.5t-49.5 -70.5t-75 -47.5t-95.5 -17.5q-51 0 -94.5 17.5t-75 47.5t-49 70.5t-17.5 85.5v470q0 8 6 14t14 6h101q8 0 14 -6t6 -14v-470q0 -33 25 -56.5t70 -23.5q46 0 71.5 23.5t25.5 56.5v470q0 8 6 14t14 6h101q8 0 14 -6t6 -14v-470zM429 858
q8 0 14 -6t6 -14v-58q0 -8 -6 -14t-14 -6h-262q-8 0 -14 6t-6 14v58q0 8 6 14t14 6h262z" />
    <glyph glyph-name="umacron" unicode="&#x16b;" horiz-adv-x="525" 
d="M55 480q0 8 6 14t14 6h90q8 0 14 -6t6 -14v-306q0 -25 19.5 -42t55.5 -17q35 0 55 16t20 39v310q0 8 6 14t14 6h90q8 0 14 -6t6 -14v-460q0 -8 -6 -14t-14 -6h-50q-9 0 -14 3t-9 7q-5 4 -9.5 7t-12.5 3q-11 0 -20.5 -5t-20.5 -10.5t-26.5 -10.5t-37.5 -5q-39 0 -74 14.5
t-60.5 39.5t-40.5 59t-15 73v305zM391 694q8 0 14 -6t6 -14v-58q0 -8 -6 -14t-14 -6h-262q-8 0 -14 6t-6 14v58q0 8 6 14t14 6h262z" />
    <glyph glyph-name="Ubreve" unicode="&#x16c;" horiz-adv-x="582" 
d="M528 210q0 -45 -18 -85.5t-49.5 -70.5t-75 -47.5t-95.5 -17.5q-51 0 -94.5 17.5t-75 47.5t-49 70.5t-17.5 85.5v470q0 8 6 14t14 6h101q8 0 14 -6t6 -14v-470q0 -33 25 -56.5t70 -23.5q46 0 71.5 23.5t25.5 56.5v470q0 8 6 14t14 6h101q8 0 14 -6t6 -14v-470zM355 886
q0 7 4.5 12t12.5 5h63q7 0 12 -5t5 -12q0 -29 -11 -55.5t-31.5 -46.5t-49.5 -32t-65 -12t-65 12t-50 32t-32 46.5t-11 55.5q0 7 5 12t12 5h63q8 0 12.5 -5t4.5 -12q0 -23 19 -39.5t42 -16.5t41.5 16.5t18.5 39.5z" />
    <glyph glyph-name="ubreve" unicode="&#x16d;" horiz-adv-x="525" 
d="M55 480q0 8 6 14t14 6h90q8 0 14 -6t6 -14v-306q0 -25 19.5 -42t55.5 -17q35 0 55 16t20 39v310q0 8 6 14t14 6h90q8 0 14 -6t6 -14v-460q0 -8 -6 -14t-14 -6h-50q-9 0 -14 3t-9 7q-5 4 -9.5 7t-12.5 3q-11 0 -20.5 -5t-20.5 -10.5t-26.5 -10.5t-37.5 -5q-39 0 -74 14.5
t-60.5 39.5t-40.5 59t-15 73v305zM320 713q0 7 4.5 12t12.5 5h63q7 0 12 -5t5 -12q0 -29 -11 -55.5t-31.5 -46.5t-49.5 -32t-65 -12t-65 12t-50 32t-32 46.5t-11 55.5q0 7 5 12t12 5h63q8 0 12.5 -5t4.5 -12q0 -23 19 -39.5t42 -16.5t41.5 16.5t18.5 39.5z" />
    <glyph glyph-name="Uring" unicode="&#x16e;" horiz-adv-x="582" 
d="M528 210q0 -45 -18 -85.5t-49.5 -70.5t-75 -47.5t-95.5 -17.5q-51 0 -94.5 17.5t-75 47.5t-49 70.5t-17.5 85.5v470q0 8 6 14t14 6h101q8 0 14 -6t6 -14v-470q0 -33 25 -56.5t70 -23.5q46 0 71.5 23.5t25.5 56.5v470q0 8 6 14t14 6h101q8 0 14 -6t6 -14v-470zM181 850
q0 24 9 45t25 36.5t37 24.5t45 9t45 -9t36.5 -24.5t24.5 -36.5t9 -45t-9 -45t-24.5 -37t-36.5 -25t-45 -9t-45 9t-37 25t-25 37t-9 45zM265 850q0 -14 9 -23t23 -9t23 9t9 23t-9 23t-23 9t-23 -9t-9 -23z" />
    <glyph glyph-name="uring" unicode="&#x16f;" horiz-adv-x="525" 
d="M55 480q0 8 6 14t14 6h90q8 0 14 -6t6 -14v-306q0 -25 19.5 -42t55.5 -17q35 0 55 16t20 39v310q0 8 6 14t14 6h90q8 0 14 -6t6 -14v-460q0 -8 -6 -14t-14 -6h-50q-9 0 -14 3t-9 7q-5 4 -9.5 7t-12.5 3q-11 0 -20.5 -5t-20.5 -10.5t-26.5 -10.5t-37.5 -5q-39 0 -74 14.5
t-60.5 39.5t-40.5 59t-15 73v305zM144 670q0 24 9 45t25 36.5t37 24.5t45 9t45 -9t36.5 -24.5t24.5 -36.5t9 -45t-9 -45t-24.5 -37t-36.5 -25t-45 -9t-45 9t-37 25t-25 37t-9 45zM228 670q0 -14 9 -23t23 -9t23 9t9 23t-9 23t-23 9t-23 -9t-9 -23z" />
    <glyph glyph-name="Uhungarumlaut" unicode="&#x170;" horiz-adv-x="582" 
d="M528 210q0 -45 -18 -85.5t-49.5 -70.5t-75 -47.5t-95.5 -17.5q-51 0 -94.5 17.5t-75 47.5t-49 70.5t-17.5 85.5v470q0 8 6 14t14 6h101q8 0 14 -6t6 -14v-470q0 -33 25 -56.5t70 -23.5q46 0 71.5 23.5t25.5 56.5v470q0 8 6 14t14 6h101q8 0 14 -6t6 -14v-470zM354 910
q14 0 17 -9t-5 -18l-115 -121q-5 -5 -10.5 -8.5t-19.5 -3.5h-69q-10 0 -16 9t3 21l82 114q4 5 9.5 10.5t16.5 5.5h107zM561 910q14 0 17 -9t-5 -18l-115 -121q-5 -5 -10.5 -8.5t-19.5 -3.5h-69q-10 0 -16 9t3 21l82 114q4 5 9.5 10.5t16.5 5.5h107z" />
    <glyph glyph-name="uhungarumlaut" unicode="&#x171;" horiz-adv-x="525" 
d="M55 480q0 8 6 14t14 6h90q8 0 14 -6t6 -14v-306q0 -25 19.5 -42t55.5 -17q35 0 55 16t20 39v310q0 8 6 14t14 6h90q8 0 14 -6t6 -14v-460q0 -8 -6 -14t-14 -6h-50q-9 0 -14 3t-9 7q-5 4 -9.5 7t-12.5 3q-11 0 -20.5 -5t-20.5 -10.5t-26.5 -10.5t-37.5 -5q-39 0 -74 14.5
t-60.5 39.5t-40.5 59t-15 73v305zM308 730q14 0 17 -9t-5 -18l-115 -121q-5 -5 -10.5 -8.5t-19.5 -3.5h-69q-10 0 -16 9t3 21l82 114q4 5 9.5 10.5t16.5 5.5h107zM515 730q14 0 17 -9t-5 -18l-115 -121q-5 -5 -10.5 -8.5t-19.5 -3.5h-69q-10 0 -16 9t3 21l82 114
q4 5 9.5 10.5t16.5 5.5h107z" />
    <glyph glyph-name="Uogonek" unicode="&#x172;" horiz-adv-x="582" 
d="M195 210q0 -33 25 -56.5t70 -23.5q46 0 71.5 23.5t25.5 56.5v470q0 8 6 14t14 6h101q8 0 14 -6t6 -14v-470q0 -38 -12 -73t-36 -62q-20 -22 -34.5 -39t-24 -32t-14.5 -30t-5 -34q0 -25 17.5 -42.5t42.5 -17.5q8 0 14 -6t6 -14v-60q0 -8 -6 -14t-14 -6q-38 0 -69.5 9.5
t-55 29t-36.5 50t-13 71.5q0 14 4 27t9 22h-11q-51 0 -94.5 17.5t-75 47.5t-49 70.5t-17.5 85.5v470q0 8 6 14t14 6h101q8 0 14 -6t6 -14v-470z" />
    <glyph glyph-name="uogonek" unicode="&#x173;" horiz-adv-x="525" 
d="M185 174q0 -25 19.5 -42t55.5 -17q35 0 55 16t20 39v310q0 8 6 14t14 6h90q8 0 14 -6t6 -14v-460q0 -8 -5 -14t-13 -6h-7q-23 0 -39 -18t-16 -42q0 -25 17.5 -42.5t42.5 -17.5q8 0 14 -6t6 -14v-60q0 -8 -6 -14t-14 -6q-38 0 -69.5 9t-55 28t-36.5 47.5t-13 67.5
q0 17 4.5 35t12.5 29q-9 -3 -19 -5t-24 -2q-39 0 -74 14.5t-60.5 39.5t-40.5 59t-15 73v305q0 8 6 14t14 6h90q8 0 14 -6t6 -14v-306z" />
    <glyph glyph-name="Wcircumflex" unicode="&#x174;" horiz-adv-x="757" 
d="M317 15q-3 -15 -19 -15h-139q-16 0 -19 15l-134 665q-2 8 3 14t17 6h100q16 0 19 -15l82 -441q1 -7 7 -7h6q6 0 7 7l67 441q3 15 19 15h90q16 0 19 -15l68 -441q1 -7 7 -7h6q6 0 7 7l82 441q3 15 19 15h100q12 0 17 -6t3 -14l-135 -665q-3 -15 -19 -15h-139q-16 0 -19 15
l-55 325q-1 6 -6 6t-6 -6zM343 766q-4 -5 -12 -10.5t-19 -5.5h-95q-13 0 -14.5 10t3.5 15l119 123q5 5 10.5 8.5t19.5 3.5h62q13 0 18.5 -3.5t10.5 -8.5l119 -123q5 -5 3 -15t-16 -10h-94q-11 0 -19 5.5t-12 10.5l-35 44q-7 10 -14 0z" />
    <glyph glyph-name="wcircumflex" unicode="&#x175;" horiz-adv-x="715" 
d="M219 191q1 -5 5.5 -5t5.5 5l57 294q3 15 19 15h98q16 0 19 -15l62 -294q1 -5 5 -5t6 5l74 294q4 15 19 15h91q12 0 16.5 -7.5t2.5 -15.5l-137 -462q-5 -15 -19 -15h-108q-16 0 -19 15l-55 232q-1 3 -5.5 3t-5.5 -3l-49 -232q-3 -15 -19 -15h-108q-15 0 -19 15l-139 462
q-2 8 2.5 15.5t16.5 7.5h91q15 0 19 -15zM312 586q-4 -5 -12 -10.5t-19 -5.5h-95q-13 0 -14.5 10t3.5 15l119 123q5 5 10.5 8.5t19.5 3.5h62q13 0 18.5 -3.5t10.5 -8.5l119 -123q5 -5 3 -15t-16 -10h-94q-11 0 -19 5.5t-12 10.5l-35 44q-7 10 -14 0z" />
    <glyph glyph-name="Ycircumflex" unicode="&#x176;" horiz-adv-x="518" 
d="M253 408q2 -5 6 -5t6 5l96 277q5 15 19 15h110q10 0 15.5 -8.5t0.5 -19.5l-177 -446v-206q0 -8 -6 -14t-14 -6h-100q-8 0 -14 6t-6 14v206l-177 446q-5 11 0.5 19.5t15.5 8.5h110q14 0 19 -15zM213 766q-4 -5 -12 -10.5t-19 -5.5h-95q-13 0 -14.5 10t3.5 15l119 123
q5 5 10.5 8.5t19.5 3.5h62q13 0 18.5 -3.5t10.5 -8.5l119 -123q5 -5 3 -15t-16 -10h-94q-11 0 -19 5.5t-12 10.5l-35 44q-7 10 -14 0z" />
    <glyph glyph-name="ycircumflex" unicode="&#x177;" horiz-adv-x="485" 
d="M236 201q2 -6 6 -6t6 6l81 284q4 15 19 15h101q12 0 17 -7.5t2 -15.5l-235 -662q-5 -15 -19 -15h-92q-12 0 -17 7.5t-2 15.5l70 187q2 7 2.5 10.5t-2.5 11.5l-166 445q-3 8 2 15.5t17 7.5h103q14 0 19 -15zM200 586q-4 -5 -12 -10.5t-19 -5.5h-95q-13 0 -14.5 10t3.5 15
l119 123q5 5 10.5 8.5t19.5 3.5h62q13 0 18.5 -3.5t10.5 -8.5l119 -123q5 -5 3 -15t-16 -10h-94q-11 0 -19 5.5t-12 10.5l-35 44q-7 10 -14 0z" />
    <glyph glyph-name="Ydieresis" unicode="&#x178;" horiz-adv-x="518" 
d="M253 408q2 -5 6 -5t6 5l96 277q5 15 19 15h110q10 0 15.5 -8.5t0.5 -19.5l-177 -446v-206q0 -8 -6 -14t-14 -6h-100q-8 0 -14 6t-6 14v206l-177 446q-5 11 0.5 19.5t15.5 8.5h110q14 0 19 -15zM222 780q0 -8 -6 -14t-14 -6h-90q-8 0 -14 6t-6 14v90q0 8 6 14t14 6h90
q8 0 14 -6t6 -14v-90zM422 780q0 -8 -6 -14t-14 -6h-90q-8 0 -14 6t-6 14v90q0 8 6 14t14 6h90q8 0 14 -6t6 -14v-90z" />
    <glyph glyph-name="Zacute" unicode="&#x179;" horiz-adv-x="522" 
d="M198 147q-2 -4 -0.5 -7t6.5 -3h264q8 0 14 -6t6 -14v-97q0 -8 -6 -14t-14 -6h-414q-8 0 -14 6t-6 14v119q0 8 5 16l276 398q2 4 0.5 7t-6.5 3h-240q-8 0 -14 6t-6 14v97q0 8 6 14t14 6h389q8 0 14 -6t6 -14v-116q0 -8 -5 -16zM389 910q14 0 17 -9t-5 -18l-115 -121
q-5 -5 -10.5 -8.5t-19.5 -3.5h-69q-10 0 -16 9t3 21l82 114q4 5 9.5 10.5t16.5 5.5h107z" />
    <glyph glyph-name="zacute" unicode="&#x17a;" horiz-adv-x="455" 
d="M270 370q3 4 1.5 7t-6.5 3h-205q-8 0 -14 6t-6 14v80q0 8 6 14t14 6h348q8 0 14 -6t6 -14v-87q0 -14 -6 -23.5t-14 -17.5l-214 -222q-3 -4 -1.5 -7t6.5 -3h219q8 0 14 -6t6 -14v-80q0 -8 -6 -14t-14 -6h-368q-8 0 -14 6t-6 14v90q0 10 1.5 15.5t11.5 15.5zM370 730
q14 0 17 -9t-5 -18l-115 -121q-5 -5 -10.5 -8.5t-19.5 -3.5h-69q-10 0 -16 9t3 21l82 114q4 5 9.5 10.5t16.5 5.5h107z" />
    <glyph glyph-name="Zdotaccent" unicode="&#x17b;" horiz-adv-x="522" 
d="M198 147q-2 -4 -0.5 -7t6.5 -3h264q8 0 14 -6t6 -14v-97q0 -8 -6 -14t-14 -6h-414q-8 0 -14 6t-6 14v119q0 8 5 16l276 398q2 4 0.5 7t-6.5 3h-240q-8 0 -14 6t-6 14v97q0 8 6 14t14 6h389q8 0 14 -6t6 -14v-116q0 -8 -5 -16zM312 766q0 -16 -16 -16h-108q-16 0 -16 16
v108q0 6 4.5 11t11.5 5h108q7 0 11.5 -5t4.5 -11v-108z" />
    <glyph glyph-name="zdotaccent" unicode="&#x17c;" horiz-adv-x="455" 
d="M270 370q3 4 1.5 7t-6.5 3h-205q-8 0 -14 6t-6 14v80q0 8 6 14t14 6h348q8 0 14 -6t6 -14v-87q0 -14 -6 -23.5t-14 -17.5l-214 -222q-3 -4 -1.5 -7t6.5 -3h219q8 0 14 -6t6 -14v-80q0 -8 -6 -14t-14 -6h-368q-8 0 -14 6t-6 14v90q0 10 1.5 15.5t11.5 15.5zM297 586
q0 -16 -16 -16h-108q-16 0 -16 16v108q0 6 4.5 11t11.5 5h108q7 0 11.5 -5t4.5 -11v-108z" />
    <glyph glyph-name="Zcaron" unicode="&#x17d;" horiz-adv-x="522" 
d="M198 147q-2 -4 -0.5 -7t6.5 -3h264q8 0 14 -6t6 -14v-97q0 -8 -6 -14t-14 -6h-414q-8 0 -14 6t-6 14v119q0 8 5 16l276 398q2 4 0.5 7t-6.5 3h-240q-8 0 -14 6t-6 14v97q0 8 6 14t14 6h389q8 0 14 -6t6 -14v-116q0 -8 -5 -16zM239 870q7 -11 14 0l35 44q4 5 12 10.5
t19 5.5h94q14 0 16 -10t-3 -15l-119 -123q-5 -5 -10.5 -8.5t-18.5 -3.5h-62q-14 0 -19.5 3.5t-10.5 8.5l-119 123q-5 5 -3.5 15t14.5 10h95q11 0 19 -5.5t12 -10.5z" />
    <glyph glyph-name="zcaron" unicode="&#x17e;" horiz-adv-x="455" 
d="M270 370q3 4 1.5 7t-6.5 3h-205q-8 0 -14 6t-6 14v80q0 8 6 14t14 6h348q8 0 14 -6t6 -14v-87q0 -14 -6 -23.5t-14 -17.5l-214 -222q-3 -4 -1.5 -7t6.5 -3h219q8 0 14 -6t6 -14v-80q0 -8 -6 -14t-14 -6h-368q-8 0 -14 6t-6 14v90q0 10 1.5 15.5t11.5 15.5zM220 670
q7 -11 14 0l35 44q4 5 12 10.5t19 5.5h94q14 0 16 -10t-3 -15l-119 -123q-5 -5 -10.5 -8.5t-18.5 -3.5h-62q-14 0 -19.5 3.5t-10.5 8.5l-119 123q-5 5 -3.5 15t14.5 10h95q11 0 19 -5.5t12 -10.5z" />
    <glyph glyph-name="longs" unicode="&#x17f;" horiz-adv-x="390" 
d="M115 367q0 10 -10 10h-80q-8 0 -14 6t-6 14v80q0 8 6 14t14 6h80q10 0 10 10v20q0 39 15 72.5t41 58t60.5 38.5t73.5 14h60q8 0 14 -6t6 -14v-90q0 -8 -6 -14t-14 -6h-60q-25 0 -42.5 -15t-17.5 -40v-505q0 -8 -6 -14t-14 -6h-90q-8 0 -14 6t-6 14v347z" />
    <glyph glyph-name="florin" unicode="&#x192;" horiz-adv-x="413" 
d="M115 367q0 10 -10 10h-80q-8 0 -14 6t-6 14v80q0 8 6 14t14 6h80q10 0 10 10v20q0 39 15 72.5t41 58t60.5 38.5t73.5 14h60q8 0 14 -6t6 -14v-90q0 -8 -6 -14t-14 -6h-60q-25 0 -42.5 -15t-17.5 -40v-18q0 -10 10 -10h100q8 0 14 -6t6 -14v-80q0 -8 -6 -14t-14 -6h-100
q-10 0 -10 -10v-377q0 -94 -33.5 -142t-120.5 -48h-41q-8 0 -14 6t-6 14v90q0 8 5.5 14t13.5 6h23q20 0 31.5 14t11.5 46v377z" />
    <glyph glyph-name="Aringacute" unicode="&#x1fa;" horiz-adv-x="537" 
d="M434 1080q14 0 17 -9t-5 -18l-105 -110q22 -16 34.5 -40t12.5 -53q0 -24 -9 -45t-24.5 -37t-36.5 -25t-45 -9t-45 9t-37 25t-25 37t-9 45q0 42 25.5 72.5t64.5 39.5l54 102q3 6 9 11t17 5h107zM241 850q0 -14 9 -23t23 -9t23 9t9 23t-9 23t-23 9t-23 -9t-9 -23zM314 273
q11 0 8 11l-48 240q-1 4 -5 4h-2q-4 0 -5 -4l-48 -240q-3 -11 8 -11h92zM358 118q-2 6 -5 10.5t-10 4.5h-152q-12 0 -15 -15l-28 -103q-3 -15 -19 -15h-105q-12 0 -17 6.5t-3 13.5l179 665q3 15 19 15h134q16 0 19 -15l178 -665q2 -7 -3 -13.5t-17 -6.5h-105q-14 0 -19 15z
" />
    <glyph glyph-name="aringacute" unicode="&#x1fb;" horiz-adv-x="512" 
d="M419 900q14 0 17 -9t-5 -18l-105 -110q22 -16 34.5 -40t12.5 -53q0 -24 -9 -45t-24.5 -37t-36.5 -25t-45 -9t-45 9t-37 25t-25 37t-9 45q0 42 25.5 72.5t64.5 39.5l54 102q3 6 9 11t17 5h107zM226 670q0 -14 9 -23t23 -9t23 9t9 23t-9 23t-23 9t-23 -9t-9 -23zM216 204
q-16 0 -26 -5.5t-15.5 -13.5t-7.5 -16.5t-2 -14.5q0 -28 19.5 -40.5t46.5 -12.5q43 0 72 15t29 54v24q0 10 -10 10h-106zM250 397q-8 0 -18.5 -1.5t-21 -5.5t-18.5 -11.5t-11 -19.5q-3 -13 -8 -16t-19 -3h-72q-8 0 -14 6t-6 14q0 30 13.5 57t38 48t60.5 33.5t81 12.5
q91 0 145.5 -46.5t54.5 -134.5v-310q0 -8 -6 -14t-14 -6h-50q-8 0 -14 7q-5 6 -7.5 13t-12.5 7q-7 0 -16 -6t-23 -13t-33.5 -13t-47.5 -6q-88 0 -138 43t-50 122q0 26 10.5 53.5t32 50.5t54 37.5t75.5 14.5h102q10 0 10 10v16q0 31 -22 46t-55 15z" />
    <glyph glyph-name="AEacute" unicode="&#x1fc;" horiz-adv-x="775" 
d="M711 700q8 0 14 -6t6 -14v-100q0 -8 -6 -14t-14 -6h-233q-10 0 -10 -10v-120q0 -10 10 -10h225q8 0 14 -6t6 -14v-100q0 -8 -6 -14t-14 -6h-225q-10 0 -10 -10v-120q0 -10 10 -10h237q8 0 14 -6t6 -14v-100q0 -8 -6 -14t-14 -6h-367q-8 0 -14 6t-6 14v98q0 6 -4 10.5
t-11 4.5h-122q-12 0 -15 -15l-28 -103q-3 -15 -19 -15h-105q-12 0 -17 6.5t-3 13.5l176 654q2 7 10 16.5t24 9.5h497zM328 550q0 10 -10 10h-37q-7 0 -9.5 -3.5t-3.5 -6.5l-54 -266q-3 -11 8 -11h96q10 0 10 11v266zM579 910q14 0 17 -9t-5 -18l-115 -121q-5 -5 -10.5 -8.5
t-19.5 -3.5h-69q-10 0 -16 9t3 21l82 114q4 5 9.5 10.5t16.5 5.5h107z" />
    <glyph glyph-name="aeacute" unicode="&#x1fd;" horiz-adv-x="814" 
d="M336 194q0 10 -10 10h-106q-16 0 -26 -5.5t-15.5 -13.5t-7.5 -16.5t-2 -14.5q0 -28 19.5 -40.5t46.5 -12.5q43 0 72 15t29 54v24zM424 463q26 23 60 35.5t76 12.5q45 0 82.5 -13t64.5 -38.5t42 -62t15 -84.5v-83q0 -8 -6 -14t-14 -6h-257q-15 0 -15 -15q0 -42 26 -65.5
t62 -23.5q60 0 79 46q7 17 23 17h83q8 0 13.5 -4.5t3.5 -15.5q-14 -71 -66 -115.5t-136 -44.5q-42 0 -74.5 12t-58.5 33q-10 8 -19.5 7t-18.5 -7q-29 -20 -66 -32.5t-88 -12.5q-88 0 -138 43t-50 122q0 26 10.5 53.5t32 50.5t54 37.5t75.5 14.5h102q10 0 10 10v16
q0 31 -22 46t-55 15q-8 0 -18.5 -1.5t-21 -5.5t-18.5 -11.5t-11 -19.5q-3 -13 -8 -16t-19 -3h-72q-8 0 -14 6t-6 14q0 30 13.5 57t38 48t60.5 33.5t81 12.5q36 0 71.5 -12.5t63.5 -35.5q6 -5 14 -6t16 6zM560 393q-43 0 -65 -22.5t-22 -51.5q0 -9 10 -9h152q10 0 10 9
q0 19 -7 33t-19 23t-27.5 13.5t-31.5 4.5zM559 730q14 0 17 -9t-5 -18l-115 -121q-5 -5 -10.5 -8.5t-19.5 -3.5h-69q-10 0 -16 9t3 21l82 114q4 5 9.5 10.5t16.5 5.5h107z" />
    <glyph glyph-name="Oslashacute" unicode="&#x1fe;" horiz-adv-x="592" 
d="M148 15q-9 -15 -21 -15h-64q-10 0 -16 8.5t0 19.5l41 68q5 7 3.5 10l-2.5 5q-25 44 -31 99q-4 31 -6 67t-2 73t2 72.5t6 67.5q5 45 23.5 85t49 70.5t72 48t93.5 17.5q37 0 69 -9t58 -26q3 -2 6.5 -3.5t8.5 5.5l5 7q5 8 8.5 11.5t10.5 3.5h64q10 0 16 -9t0 -19l-40 -66
q-5 -8 -3 -11t3 -5q13 -23 20.5 -48t11.5 -52q4 -32 5.5 -67.5t1.5 -72.5t-1.5 -73t-5.5 -67q-5 -45 -23.5 -85t-49 -70.5t-72 -48t-93.5 -17.5q-78 0 -133 37q-2 1 -4.5 2t-5.5 -4zM296 130q46 0 69.5 23.5t27.5 56.5q5 47 6.5 101.5t-0.5 106.5q0 4 -2 6t-5 -3l-160 -265
q-2 -4 -1 -6t3 -3q25 -17 62 -17zM296 570q-46 0 -69.5 -23.5t-27.5 -56.5q-6 -47 -7.5 -101.5t0.5 -106.5q0 -3 2 -4.5t5 3.5l157 260q4 7 2.5 9.5t-3.5 3.5q-24 16 -59 16zM448 910q14 0 17 -9t-5 -18l-115 -121q-5 -5 -10.5 -8.5t-19.5 -3.5h-69q-10 0 -16 9t3 21l82 114
q4 5 9.5 10.5t16.5 5.5h107z" />
    <glyph glyph-name="oslashacute" unicode="&#x1ff;" horiz-adv-x="523" 
d="M446 413q-3 -4 -2.5 -5.5t1.5 -3.5q18 -36 24 -79q2 -15 3 -34.5t1 -40.5t-1 -40.5t-3 -34.5q-5 -39 -20.5 -73t-42 -59t-62.5 -39.5t-82 -14.5q-36 0 -65 8t-53 24q-2 2 -5 3t-7 -4l-6 -7q-10 -13 -24 -13h-66q-10 0 -14.5 9.5t3.5 18.5l48 59q5 6 4 9t-2 5
q-8 17 -13.5 35.5t-7.5 38.5q-2 15 -3 34.5t-1 40.5t1 40.5t3 34.5q5 39 20.5 73t42 59t62.5 39.5t82 14.5q35 0 64 -8.5t52 -22.5l4 -2t6 3l4 4q13 15 24 15h64q10 0 15.5 -9.5t-2.5 -18.5zM339 175q3 19 4 45.5t0 52.5q0 3 -1.5 5t-5.5 -3l-113 -140q-5 -5 -2.5 -7.5
t4.5 -3.5q17 -5 36 -5q38 0 56 15.5t22 40.5zM184 325q-3 -18 -4.5 -42.5t-0.5 -49.5q0 -3 2 -5.5t7 3.5l109 137q4 5 1.5 6.5t-4.5 2.5q-7 2 -15.5 3t-17.5 1q-38 0 -55 -13.5t-22 -42.5zM424 730q14 0 17 -9t-5 -18l-115 -121q-5 -5 -10.5 -8.5t-19.5 -3.5h-69
q-10 0 -16 9t3 21l82 114q4 5 9.5 10.5t16.5 5.5h107z" />
    <glyph glyph-name="Scommaaccent" unicode="&#x218;" horiz-adv-x="542" 
d="M367 208q0 32 -23.5 49.5t-80.5 30.5q-47 10 -88 26.5t-71 41.5t-47.5 60.5t-17.5 83.5q0 44 17 82.5t48 67t72.5 45t91.5 16.5t92.5 -16.5t73 -45t47.5 -67t17 -82.5v-15q0 -8 -6 -14t-14 -6h-101q-8 0 -14 6t-6 14v15q0 30 -23 52.5t-66 22.5q-42 0 -64.5 -20
t-22.5 -50q0 -29 25 -46.5t64 -25.5q52 -11 96.5 -27.5t76.5 -43t50.5 -64.5t18.5 -90q0 -49 -18 -89t-50.5 -69t-77.5 -45t-98 -16q-52 0 -95.5 17t-75 46.5t-49.5 69.5t-18 86v30q0 8 6 14t14 6h101q8 0 14 -6t6 -14v-30q0 -35 25 -58.5t72 -23.5q45 0 72 23.5t27 58.5z
M255 -305q-15 0 -21.5 12t0.5 26l34 69q3 5 -0.5 9t-8.5 4h-24q-8 0 -14 6t-6 14v100q0 8 6 14t14 6h100q8 0 14 -6t6 -14v-97q0 -20 -6.5 -37.5t-15.5 -31.5l-34 -54q-5 -7 -12 -13.5t-22 -6.5h-10z" />
    <glyph glyph-name="scommaaccent" unicode="&#x219;" horiz-adv-x="490" 
d="M444 350q0 -8 -6 -14t-14 -6h-75q-8 0 -14.5 4.5t-8.5 20.5q-4 25 -28 35.5t-52 10.5q-34 0 -57 -10t-23 -31q0 -11 6.5 -18t18 -11t26 -6.5t29.5 -5.5q33 -6 70 -14t68.5 -24.5t52.5 -47t21 -81.5q0 -37 -17 -67t-46 -51.5t-67.5 -33t-81.5 -11.5q-41 0 -79.5 9.5
t-68.5 30.5t-48 54.5t-18 80.5q0 8 6 14t14 6h76q18 0 23 -6t7 -19q3 -29 28 -40.5t60 -11.5q41 0 66.5 12t25.5 35q0 13 -8 21t-21 12.5t-29.5 7.5t-33.5 5q-31 4 -66 13t-65 27t-50 47t-20 73q0 33 18 61t46.5 48t64.5 31t72 11q34 0 69 -9t63.5 -28t47 -50t18.5 -74z
M212 -305q-15 0 -21.5 12t0.5 26l34 69q3 5 -0.5 9t-8.5 4h-24q-8 0 -14 6t-6 14v100q0 8 6 14t14 6h100q8 0 14 -6t6 -14v-97q0 -20 -6.5 -37.5t-15.5 -31.5l-34 -54q-5 -7 -12 -13.5t-22 -6.5h-10z" />
    <glyph glyph-name="uni021A" unicode="&#x21a;" horiz-adv-x="454" 
d="M307 560q-10 0 -10 -10v-530q0 -8 -6 -14t-14 -6h-100q-8 0 -14 6t-6 14v530q0 10 -10 10h-125q-8 0 -14 6t-6 14v100q0 8 6 14t14 6h410q8 0 14 -6t6 -14v-100q0 -8 -6 -14t-14 -6h-125zM205 -305q-15 0 -21.5 12t0.5 26l34 69q3 5 -0.5 9t-8.5 4h-24q-8 0 -14 6t-6 14
v100q0 8 6 14t14 6h100q8 0 14 -6t6 -14v-97q0 -20 -6.5 -37.5t-15.5 -31.5l-34 -54q-5 -7 -12 -13.5t-22 -6.5h-10z" />
    <glyph glyph-name="uni021B" unicode="&#x21b;" horiz-adv-x="403" 
d="M363 497q8 0 14 -6t6 -14v-80q0 -8 -6 -14t-14 -6h-110q-10 0 -10 -10v-182q0 -25 16.5 -42.5t43.5 -17.5h70q8 0 14 -6t6 -14v-85q0 -8 -6 -14t-14 -6h-70q-86 0 -138 48.5t-52 134.5v184q0 10 -10 10h-78q-8 0 -14 6t-6 14v80q0 8 6 14t14 6h78q10 0 10 10v153
q0 8 6 14t14 6h90q8 0 14 -6t6 -14v-153q0 -10 10 -10h110zM192 -305q-15 0 -21.5 12t0.5 26l34 69q3 5 -0.5 9t-8.5 4h-24q-8 0 -14 6t-6 14v100q0 8 6 14t14 6h100q8 0 14 -6t6 -14v-97q0 -20 -6.5 -37.5t-15.5 -31.5l-34 -54q-5 -7 -12 -13.5t-22 -6.5h-10z" />
    <glyph glyph-name="apostrophemod" unicode="&#x2bc;" horiz-adv-x="245" 
d="M70 390q-15 0 -22 12t1 26l54 99q3 5 -0.5 9t-8.5 4h-24q-8 0 -14 6t-6 14v120q0 8 6 14t14 6h120q8 0 14 -6t6 -14v-117q0 -20 -6 -38t-16 -31l-64 -84q-5 -7 -12 -13.5t-22 -6.5h-20z" />
    <glyph glyph-name="circumflex" unicode="&#x2c6;" horiz-adv-x="396" 
d="M158 586q-4 -5 -12 -10.5t-19 -5.5h-95q-13 0 -14.5 10t3.5 15l119 123q5 5 10.5 8.5t19.5 3.5h62q13 0 18.5 -3.5t10.5 -8.5l119 -123q5 -5 3 -15t-16 -10h-94q-11 0 -19 5.5t-12 10.5l-35 44q-7 10 -14 0z" />
    <glyph glyph-name="caron" unicode="&#x2c7;" horiz-adv-x="455" 
d="M224 670q7 -11 14 0l35 44q4 5 12 10.5t19 5.5h94q14 0 16 -10t-3 -15l-119 -123q-5 -5 -10.5 -8.5t-18.5 -3.5h-62q-14 0 -19.5 3.5t-10.5 8.5l-119 123q-5 5 -3.5 15t14.5 10h95q11 0 19 -5.5t12 -10.5z" />
    <glyph glyph-name="breve" unicode="&#x2d8;" horiz-adv-x="470" 
d="M294 713q0 7 4.5 12t12.5 5h63q7 0 12 -5t5 -12q0 -29 -11 -55.5t-31.5 -46.5t-49.5 -32t-65 -12t-65 12t-50 32t-32 46.5t-11 55.5q0 7 5 12t12 5h63q8 0 12.5 -5t4.5 -12q0 -23 19 -39.5t42 -16.5t41.5 16.5t18.5 39.5z" />
    <glyph glyph-name="dotaccent" unicode="&#x2d9;" horiz-adv-x="267" 
d="M200 586q0 -16 -16 -16h-108q-16 0 -16 16v108q0 6 4.5 11t11.5 5h108q7 0 11.5 -5t4.5 -11v-108z" />
    <glyph glyph-name="ring" unicode="&#x2da;" horiz-adv-x="459" 
d="M136 670q0 24 9 45t25 36.5t37 24.5t45 9t45 -9t36.5 -24.5t24.5 -36.5t9 -45t-9 -45t-24.5 -37t-36.5 -25t-45 -9t-45 9t-37 25t-25 37t-9 45zM220 670q0 -14 9 -23t23 -9t23 9t9 23t-9 23t-23 9t-23 -9t-9 -23z" />
    <glyph glyph-name="ogonek" unicode="&#x2db;" horiz-adv-x="833" 
d="M544 20q0 -8 -6 -14t-14 -6q-25 0 -42.5 -17.5t-17.5 -42.5t17.5 -42.5t42.5 -17.5q8 0 14 -6t6 -14v-60q0 -8 -6 -14t-14 -6q-38 0 -69.5 9.5t-55 29t-36.5 50t-13 71.5q0 37 14.5 67t38.5 50.5t55.5 31.5t65.5 11q8 0 14 -6t6 -14v-60z" />
    <glyph glyph-name="tilde" unicode="&#x2dc;" horiz-adv-x="492" 
d="M351 684q19 0 29.5 6.5t16.5 14.5t15.5 4t9.5 -18v-60q0 -20 -20.5 -35.5t-50.5 -15.5q-24 0 -45.5 4t-43 8.5t-44 8.5t-47.5 4q-17 0 -27.5 -5.5t-18.5 -15.5q-6 -7 -15.5 -3.5t-9.5 17.5v60q0 20 20.5 35.5t50.5 15.5q24 0 45.5 -4t43 -8.5t43.5 -8.5t48 -4z" />
    <glyph glyph-name="hungarumlaut" unicode="&#x2dd;" horiz-adv-x="508" 
d="M257 730q14 0 17 -9t-5 -18l-115 -121q-5 -5 -10.5 -8.5t-19.5 -3.5h-69q-10 0 -16 9t3 21l82 114q4 5 9.5 10.5t16.5 5.5h107zM464 730q14 0 17 -9t-5 -18l-115 -121q-5 -5 -10.5 -8.5t-19.5 -3.5h-69q-10 0 -16 9t3 21l82 114q4 5 9.5 10.5t16.5 5.5h107z" />
    <glyph glyph-name="Delta" unicode="&#x394;" horiz-adv-x="660" 
d="M62 0q-8 0 -14 6t-6 14v51q0 8 2.5 16.5t4.5 12.5l230 525q6 15 19 15h64q13 0 19 -15l230 -525q2 -4 4.5 -12.5t2.5 -16.5v-51q0 -8 -6 -14t-14 -6h-536zM476 118q8 0 4 10l-145 343q-2 4 -4 4h-2q-4 0 -4 -4l-145 -343q-4 -10 4 -10h292z" />
    <glyph glyph-name="Omega" unicode="&#x3a9;" horiz-adv-x="683" 
d="M528 142q-8 -5 -6 -13.5t13 -8.5h57q8 0 14 -6t6 -14v-80q0 -8 -6 -14t-14 -6h-186q-8 0 -14 6t-6 14v109q0 7 3.5 20.5t21.5 25.5q17 11 32 27.5t26.5 41.5t18 58.5t6.5 78.5q0 42 -11 77t-31 60t-48 39t-63 14t-63 -14t-48 -39t-30.5 -60t-10.5 -77q0 -45 6.5 -78.5
t18 -58.5t26.5 -41.5t32 -27.5q18 -12 21.5 -25.5t3.5 -20.5v-109q0 -8 -6 -14t-14 -6h-186q-8 0 -14 6t-6 14v80q0 8 6 14t14 6h57q11 0 13.5 8t-5.5 13q-29 20 -49.5 48.5t-33 61t-18 66.5t-5.5 65q0 64 21.5 122.5t59.5 102.5t91.5 70t118.5 26q64 0 118 -26t92.5 -70
t60 -102.5t21.5 -122.5q0 -31 -5.5 -65t-18 -66t-32.5 -60.5t-49 -48.5z" />
    <glyph glyph-name="mu" unicode="&#x3bc;" horiz-adv-x="520" 
d="M252 -10q-14 0 -24 3.5t-18 7.5q-11 5 -20.5 0.5t-9.5 -21.5v-160q0 -8 -6 -14t-14 -6h-90q-8 0 -14 6t-6 14l1 660q0 8 5.5 14t13.5 6h90q8 0 14 -6t6 -14v-306q0 -25 19.5 -42t55.5 -17q35 0 55 16t20 39v310q0 8 6 14t14 6h90q8 0 14 -6t6 -14v-460q0 -8 -6 -14
t-14 -6h-50q-9 0 -14 3t-9 7t-9 7t-13 3q-10 0 -17.5 -4.5l-17.5 -10.5t-23.5 -10.5t-34.5 -4.5z" />
    <glyph glyph-name="pi" unicode="&#x3c0;" horiz-adv-x="535" 
d="M434 370q-10 0 -10 -10v-170q0 -37 16 -54t60 -17q8 0 14 -6t6 -14v-79q0 -8 -6 -14t-14 -6q-100 0 -150 45t-50 145v170q0 10 -8 10h-67q-10 0 -10 -10v-340q0 -8 -6 -14t-14 -6h-85q-8 0 -14 6t-6 14v340q0 10 -10 10h-45q-8 0 -14 6t-6 14v90q0 8 6 14t14 6h460
q8 0 14 -6t6 -14v-90q0 -8 -6 -14t-14 -6h-61z" />
    <glyph glyph-name="Wgrave" unicode="&#x1e80;" horiz-adv-x="757" 
d="M317 15q-3 -15 -19 -15h-139q-16 0 -19 15l-134 665q-2 8 3 14t17 6h100q16 0 19 -15l82 -441q1 -7 7 -7h6q6 0 7 7l67 441q3 15 19 15h90q16 0 19 -15l68 -441q1 -7 7 -7h6q6 0 7 7l82 441q3 15 19 15h100q12 0 17 -6t3 -14l-135 -665q-3 -15 -19 -15h-139q-16 0 -19 15
l-55 325q-1 6 -6 6t-6 -6zM337 910q11 0 16.5 -5.5t9.5 -10.5l82 -114q9 -12 3 -21t-16 -9h-69q-14 0 -19.5 3.5t-10.5 8.5l-115 121q-8 9 -5 18t17 9h107z" />
    <glyph glyph-name="wgrave" unicode="&#x1e81;" horiz-adv-x="715" 
d="M219 191q1 -5 5.5 -5t5.5 5l57 294q3 15 19 15h98q16 0 19 -15l62 -294q1 -5 5 -5t6 5l74 294q4 15 19 15h91q12 0 16.5 -7.5t2.5 -15.5l-137 -462q-5 -15 -19 -15h-108q-16 0 -19 15l-55 232q-1 3 -5.5 3t-5.5 -3l-49 -232q-3 -15 -19 -15h-108q-15 0 -19 15l-139 462
q-2 8 2.5 15.5t16.5 7.5h91q15 0 19 -15zM319 730q11 0 16.5 -5.5t9.5 -10.5l82 -114q9 -12 3 -21t-16 -9h-69q-14 0 -19.5 3.5t-10.5 8.5l-115 121q-8 9 -5 18t17 9h107z" />
    <glyph glyph-name="Wacute" unicode="&#x1e82;" horiz-adv-x="757" 
d="M317 15q-3 -15 -19 -15h-139q-16 0 -19 15l-134 665q-2 8 3 14t17 6h100q16 0 19 -15l82 -441q1 -7 7 -7h6q6 0 7 7l67 441q3 15 19 15h90q16 0 19 -15l68 -441q1 -7 7 -7h6q6 0 7 7l82 441q3 15 19 15h100q12 0 17 -6t3 -14l-135 -665q-3 -15 -19 -15h-139q-16 0 -19 15
l-55 325q-1 6 -6 6t-6 -6zM534 910q14 0 17 -9t-5 -18l-115 -121q-5 -5 -10.5 -8.5t-19.5 -3.5h-69q-10 0 -16 9t3 21l82 114q4 5 9.5 10.5t16.5 5.5h107z" />
    <glyph glyph-name="wacute" unicode="&#x1e83;" horiz-adv-x="715" 
d="M219 191q1 -5 5.5 -5t5.5 5l57 294q3 15 19 15h98q16 0 19 -15l62 -294q1 -5 5 -5t6 5l74 294q4 15 19 15h91q12 0 16.5 -7.5t2.5 -15.5l-137 -462q-5 -15 -19 -15h-108q-16 0 -19 15l-55 232q-1 3 -5.5 3t-5.5 -3l-49 -232q-3 -15 -19 -15h-108q-15 0 -19 15l-139 462
q-2 8 2.5 15.5t16.5 7.5h91q15 0 19 -15zM496 730q14 0 17 -9t-5 -18l-115 -121q-5 -5 -10.5 -8.5t-19.5 -3.5h-69q-10 0 -16 9t3 21l82 114q4 5 9.5 10.5t16.5 5.5h107z" />
    <glyph glyph-name="Wdieresis" unicode="&#x1e84;" horiz-adv-x="757" 
d="M317 15q-3 -15 -19 -15h-139q-16 0 -19 15l-134 665q-2 8 3 14t17 6h100q16 0 19 -15l82 -441q1 -7 7 -7h6q6 0 7 7l67 441q3 15 19 15h90q16 0 19 -15l68 -441q1 -7 7 -7h6q6 0 7 7l82 441q3 15 19 15h100q12 0 17 -6t3 -14l-135 -665q-3 -15 -19 -15h-139q-16 0 -19 15
l-55 325q-1 6 -6 6t-6 -6zM351 780q0 -8 -6 -14t-14 -6h-90q-8 0 -14 6t-6 14v90q0 8 6 14t14 6h90q8 0 14 -6t6 -14v-90zM551 780q0 -8 -6 -14t-14 -6h-90q-8 0 -14 6t-6 14v90q0 8 6 14t14 6h90q8 0 14 -6t6 -14v-90z" />
    <glyph glyph-name="wdieresis" unicode="&#x1e85;" horiz-adv-x="715" 
d="M219 191q1 -5 5.5 -5t5.5 5l57 294q3 15 19 15h98q16 0 19 -15l62 -294q1 -5 5 -5t6 5l74 294q4 15 19 15h91q12 0 16.5 -7.5t2.5 -15.5l-137 -462q-5 -15 -19 -15h-108q-16 0 -19 15l-55 232q-1 3 -5.5 3t-5.5 -3l-49 -232q-3 -15 -19 -15h-108q-15 0 -19 15l-139 462
q-2 8 2.5 15.5t16.5 7.5h91q15 0 19 -15zM319 600q0 -8 -6 -14t-14 -6h-90q-8 0 -14 6t-6 14v90q0 8 6 14t14 6h90q8 0 14 -6t6 -14v-90zM519 600q0 -8 -6 -14t-14 -6h-90q-8 0 -14 6t-6 14v90q0 8 6 14t14 6h90q8 0 14 -6t6 -14v-90z" />
    <glyph glyph-name="Ygrave" unicode="&#x1ef2;" horiz-adv-x="518" 
d="M253 408q2 -5 6 -5t6 5l96 277q5 15 19 15h110q10 0 15.5 -8.5t0.5 -19.5l-177 -446v-206q0 -8 -6 -14t-14 -6h-100q-8 0 -14 6t-6 14v206l-177 446q-5 11 0.5 19.5t15.5 8.5h110q14 0 19 -15zM216 910q11 0 16.5 -5.5t9.5 -10.5l82 -114q9 -12 3 -21t-16 -9h-69
q-14 0 -19.5 3.5t-10.5 8.5l-115 121q-8 9 -5 18t17 9h107z" />
    <glyph glyph-name="ygrave" unicode="&#x1ef3;" horiz-adv-x="485" 
d="M236 201q2 -6 6 -6t6 6l81 284q4 15 19 15h101q12 0 17 -7.5t2 -15.5l-235 -662q-5 -15 -19 -15h-92q-12 0 -17 7.5t-2 15.5l70 187q2 7 2.5 10.5t-2.5 11.5l-166 445q-3 8 2 15.5t17 7.5h103q14 0 19 -15zM197 730q11 0 16.5 -5.5t9.5 -10.5l82 -114q9 -12 3 -21t-16 -9
h-69q-14 0 -19.5 3.5t-10.5 8.5l-115 121q-8 9 -5 18t17 9h107z" />
    <glyph glyph-name="endash" unicode="&#x2013;" horiz-adv-x="570" 
d="M500 325q8 0 14 -6t6 -14v-89q0 -8 -6 -14t-14 -6h-410q-8 0 -14 6t-6 14v89q0 8 6 14t14 6h410z" />
    <glyph glyph-name="emdash" unicode="&#x2014;" horiz-adv-x="710" 
d="M640 325q8 0 14 -6t6 -14v-89q0 -8 -6 -14t-14 -6h-557q-8 0 -14 6t-6 14v89q0 8 6 14t14 6h557z" />
    <glyph glyph-name="quoteleft" unicode="&#x2018;" horiz-adv-x="257" 
d="M185 700q15 0 22 -12t-1 -26l-54 -99q-3 -5 0.5 -9t8.5 -4h24q8 0 14 -6t6 -14v-120q0 -8 -6 -14t-14 -6h-120q-8 0 -14 6t-6 14v117q0 20 6 38t16 31l64 84q5 7 12 13.5t22 6.5h20v0z" />
    <glyph glyph-name="quoteright" unicode="&#x2019;" horiz-adv-x="257" 
d="M70 390q-15 0 -22 12t1 26l54 99q3 5 -0.5 9t-8.5 4h-24q-8 0 -14 6t-6 14v120q0 8 6 14t14 6h120q8 0 14 -6t6 -14v-117q0 -20 -6 -38t-16 -31l-64 -84q-5 -7 -12 -13.5t-22 -6.5h-20z" />
    <glyph glyph-name="quotesinglbase" unicode="&#x201a;" horiz-adv-x="259" 
d="M73 -150q-15 0 -22 12t1 26l54 99q3 5 -0.5 9t-8.5 4h-24q-8 0 -14 6t-6 14v120q0 8 6 14t14 6h120q8 0 14 -6t6 -14v-117q0 -20 -6 -38t-16 -31l-64 -84q-5 -7 -12 -13.5t-22 -6.5h-20z" />
    <glyph glyph-name="quotedblleft" unicode="&#x201c;" horiz-adv-x="477" 
d="M185 700q15 0 22 -12t-1 -26l-54 -99q-3 -5 0.5 -9t8.5 -4h24q8 0 14 -6t6 -14v-120q0 -8 -6 -14t-14 -6h-120q-8 0 -14 6t-6 14v117q0 20 6 38t16 31l64 84q5 7 12 13.5t22 6.5h20zM405 700q15 0 22 -12t-1 -26l-54 -99q-3 -5 0.5 -9t8.5 -4h24q8 0 14 -6t6 -14v-120
q0 -8 -6 -14t-14 -6h-120q-8 0 -14 6t-6 14v117q0 20 6 38t16 31l64 84q5 7 12 13.5t22 6.5h20z" />
    <glyph glyph-name="quotedblright" unicode="&#x201d;" horiz-adv-x="477" 
d="M290 390q-15 0 -22 12t1 26l54 99q3 5 -0.5 9t-8.5 4h-24q-8 0 -14 6t-6 14v120q0 8 6 14t14 6h120q8 0 14 -6t6 -14v-117q0 -20 -6 -38t-16 -31l-64 -84q-5 -7 -12 -13.5t-22 -6.5h-20zM70 390q-15 0 -22 12t1 26l54 99q3 5 -0.5 9t-8.5 4h-24q-8 0 -14 6t-6 14v120
q0 8 6 14t14 6h120q8 0 14 -6t6 -14v-117q0 -20 -6 -38t-16 -31l-64 -84q-5 -7 -12 -13.5t-22 -6.5h-20z" />
    <glyph glyph-name="quotedblbase" unicode="&#x201e;" horiz-adv-x="481" 
d="M70 -150q-15 0 -22 12t1 26l54 99q3 5 -0.5 9t-8.5 4h-24q-8 0 -14 6t-6 14v120q0 8 6 14t14 6h120q8 0 14 -6t6 -14v-117q0 -20 -6 -38t-16 -31l-64 -84q-5 -7 -12 -13.5t-22 -6.5h-20zM290 -150q-15 0 -22 12t1 26l54 99q3 5 -0.5 9t-8.5 4h-24q-8 0 -14 6t-6 14v120
q0 8 6 14t14 6h120q8 0 14 -6t6 -14v-117q0 -20 -6 -38t-16 -31l-64 -84q-5 -7 -12 -13.5t-22 -6.5h-20z" />
    <glyph glyph-name="dagger" unicode="&#x2020;" horiz-adv-x="467" 
d="M174 360q0 10 -10 10h-130q-8 0 -14 6t-6 14v80q0 8 6 14t14 6h130q10 0 10 10v180q0 8 6 14t14 6h80q8 0 14 -6t6 -14v-180q0 -10 10 -10h130q8 0 14 -6t6 -14v-80q0 -8 -6 -14t-14 -6h-130q-10 0 -10 -10v-460q0 -8 -6 -14t-14 -6h-80q-8 0 -14 6t-6 14v460z" />
    <glyph glyph-name="daggerdbl" unicode="&#x2021;" horiz-adv-x="517" 
d="M186 542q10 0 10 10v128q0 8 6 14t14 6h74q8 0 14 -6t6 -14v-128q0 -10 10 -10h128q8 0 14 -6t6 -14v-78q0 -8 -6 -14t-14 -6h-128q-10 0 -10 -10v-128q0 -10 10 -10h128q8 0 14 -6t6 -14v-78q0 -8 -6 -14t-14 -6h-128q-10 0 -10 -10v-128q0 -8 -6 -14t-14 -6h-74
q-8 0 -14 6t-6 14v128q0 10 -10 10h-128q-8 0 -14 6t-6 14v78q0 8 6 14t14 6h128q10 0 10 10v128q0 10 -10 10h-128q-8 0 -14 6t-6 14v78q0 8 6 14t14 6h128z" />
    <glyph glyph-name="bullet" unicode="&#x2022;" horiz-adv-x="283" 
d="M233 194q0 -8 -6 -14t-14 -6h-143q-8 0 -14 6t-6 14v143q0 8 6 14t14 6h143q8 0 14 -6t6 -14v-143z" />
    <glyph glyph-name="ellipsis" unicode="&#x2026;" horiz-adv-x="789" 
d="M210 20q0 -8 -6 -14t-14 -6h-120q-8 0 -14 6t-6 14v120q0 8 6 14t14 6h120q8 0 14 -6t6 -14v-120zM474 20q0 -8 -6 -14t-14 -6h-120q-8 0 -14 6t-6 14v120q0 8 6 14t14 6h120q8 0 14 -6t6 -14v-120zM739 20q0 -8 -6 -14t-14 -6h-120q-8 0 -14 6t-6 14v120q0 8 6 14t14 6
h120q8 0 14 -6t6 -14v-120z" />
    <glyph glyph-name="perthousand" unicode="&#x2030;" horiz-adv-x="953" 
d="M202 15q-9 -15 -21 -15h-52q-10 0 -16 8.5t0 19.5l366 657q9 15 22 15h49q10 0 15.5 -8.5t0.5 -19.5zM173 418q14 0 21.5 7.5t8.5 18.5q1 10 1.5 28t0.5 38t-0.5 38t-1.5 28q-1 11 -8.5 18.5t-21.5 7.5q-15 0 -22 -7.5t-9 -18.5q-1 -10 -1.5 -28t-0.5 -38t0.5 -38
t1.5 -28q2 -11 9 -18.5t22 -7.5zM173 692q52 0 83 -32.5t36 -77.5q4 -32 4 -72t-4 -72q-3 -23 -12 -43t-24 -35t-36 -24t-47 -9t-47 9t-36 24t-24 35t-12 43q-4 32 -4 72t4 72q5 45 36 77.5t83 32.5zM507 98q14 0 21.5 7.5t8.5 18.5q1 10 1.5 28t0.5 38t-0.5 38t-1.5 28
q-1 11 -8.5 18.5t-21.5 7.5q-15 0 -22 -7.5t-9 -18.5q-1 -10 -1.5 -28t-0.5 -38t0.5 -38t1.5 -28q2 -11 9 -18.5t22 -7.5zM507 372q52 0 83 -32.5t36 -77.5q4 -32 4 -72t-4 -72q-3 -23 -12 -43t-24 -35t-36 -24t-47 -9t-47 9t-36 24t-24 35t-12 43q-4 32 -4 72t4 72
q5 45 36 77.5t83 32.5zM788 98q14 0 21.5 7.5t8.5 18.5q1 10 1.5 28t0.5 38t-0.5 38t-1.5 28q-1 11 -8.5 18.5t-21.5 7.5q-15 0 -22 -7.5t-9 -18.5q-1 -10 -1.5 -28t-0.5 -38t0.5 -38t1.5 -28q2 -11 9 -18.5t22 -7.5zM788 372q52 0 83 -32.5t36 -77.5q4 -32 4 -72t-4 -72
q-3 -23 -12 -43t-24 -35t-36 -24t-47 -9t-47 9t-36 24t-24 35t-12 43q-4 32 -4 72t4 72q5 45 36 77.5t83 32.5z" />
    <glyph glyph-name="guilsinglleft" unicode="&#x2039;" horiz-adv-x="329" 
d="M152 435q2 4 8 9.5t17 5.5h80q14 0 19.5 -8.5t-3.5 -24.5l-85 -145q-8 -11 0 -24l85 -145q9 -16 3.5 -24.5t-19.5 -8.5h-80q-11 0 -17 5.5t-8 9.5l-96 161q-5 8 -5 14t5 14z" />
    <glyph glyph-name="guilsinglright" unicode="&#x203a;" horiz-adv-x="329" 
d="M273 274q5 -8 5 -14t-5 -14l-96 -161q-2 -4 -8 -9.5t-17 -5.5h-80q-14 0 -19.5 8.5t3.5 24.5l85 145q8 13 0 24l-85 145q-9 16 -3.5 24.5t19.5 8.5h80q11 0 17 -5.5t8 -9.5z" />
    <glyph glyph-name="fraction" unicode="&#x2044;" horiz-adv-x="200" 
d="M-61 15q-9 -15 -21 -15h-67q-10 0 -16.5 8.5t0.5 19.5l427 657q9 15 22 15h65q10 0 16.5 -9t-0.5 -19z" />
    <glyph glyph-name="Euro" unicode="&#x20ac;" horiz-adv-x="550" 
d="M191 342q0 -10 9 -10h113q8 0 14 -6t6 -14v-62q0 -8 -6 -14t-14 -6h-105q-5 0 -7.5 -4t-1.5 -16q3 -33 27 -56.5t70 -23.5q43 0 69 24.5t29 63.5q1 8 6.5 14t13.5 6h100q8 0 14 -6t6 -14q0 -50 -18 -92t-49.5 -72.5t-75 -47.5t-95.5 -17t-93.5 17.5t-72 48t-49 70.5
t-23.5 85q-2 14 -3.5 17t-7.5 3h-44q-8 0 -14 6t-6 14v62q0 8 6 14t14 6h39q5 0 6.5 3t1.5 5v39q0 5 -6 5h-41q-8 0 -14 6t-6 14v62q0 8 6 14t14 6h46q3 0 6 2t3 5q6 44 24.5 83.5t49 69.5t72 47.5t92.5 17.5q52 0 95.5 -17t75 -47.5t49.5 -72.5t18 -92q0 -8 -6 -14t-14 -6
h-100q-8 0 -13.5 6t-6.5 14q-3 39 -29 63.5t-69 24.5q-45 0 -68 -22.5t-29 -54.5q-1 -7 5 -7h109q8 0 14 -6t6 -14v-62q0 -8 -6 -14t-14 -6h-114q-8 0 -8 -8v-34z" />
    <glyph glyph-name="afii61289" unicode="&#x2113;" horiz-adv-x="493" 
d="M50 270q-8 0 -14 6t-6 14v70q0 8 6 14t14 6h48v120q0 40 14 76t39 63.5t59 44t73 16.5q44 0 77.5 -15t56.5 -40.5t34.5 -60.5t11.5 -74q0 -46 -15.5 -89.5t-45.5 -77t-75 -54t-104 -20.5v-44q0 -39 8.5 -62t25 -34.5t39.5 -15t53 -3.5h36q8 0 14 -6t6 -14v-80
q0 -8 -6 -14t-14 -6h-36q-68 0 -115.5 14.5t-77.5 44t-44 73t-14 101.5v47h-48zM223 380q115 0 115 130q0 30 -13.5 50t-41.5 20t-44 -20t-16 -60v-120z" />
    <glyph glyph-name="afii61352" unicode="&#x2116;" horiz-adv-x="1058" 
d="M382 0q-13 0 -19 5.5t-8 11.5l-136 351q-2 5 -5.5 4t-3.5 -6v-346q0 -8 -6 -14t-14 -6h-100q-8 0 -14 6t-6 14v660q0 8 6 14t14 6h119q11 0 17 -5.5t8 -12.5l137 -380q2 -5 5.5 -4t3.5 6v376q0 8 6 14t14 6h100q8 0 14 -6t6 -14v-660q0 -8 -6 -14t-14 -6h-118zM720 325
q0 -26 17 -41t50 -15q34 0 51 15.5t17 40.5v90q0 25 -17 40.5t-51 15.5q-67 0 -67 -56v-90zM590 325q-2 20 -2 45t2 45q4 40 19 74t40 59t59.5 39t78.5 14t79 -14t60 -39t40 -59t19 -74q2 -20 2 -45t-2 -45q-4 -40 -19 -74t-40 -59t-60 -39t-78 -14q-44 0 -79 14t-60 39
t-40 59t-19 74zM610 0q-8 0 -14 6t-6 14v63q0 8 6 14t14 6h355q8 0 14 -6t6 -14v-63q0 -8 -6 -14t-14 -6h-355z" />
    <glyph glyph-name="trademark" unicode="&#x2122;" horiz-adv-x="702" 
d="M194 360q0 -10 -10 -10h-68q-10 0 -10 10v247q0 5 -5 5h-66q-10 0 -10 10v68q0 10 10 10h230q10 0 10 -10v-68q0 -10 -10 -10h-66q-5 0 -5 -5v-247zM474 492q1 -2 2.5 -2t2.5 2l55 199q1 9 10 9h98q10 0 10 -10v-330q0 -10 -10 -10h-59q-10 0 -10 10v190q0 2 -2 2.5
t-2 -1.5l-62 -193q-3 -8 -10 -8h-41q-8 0 -11 8l-61 193q-1 2 -2.5 1.5t-1.5 -2.5v-190q0 -10 -10 -10h-60q-10 0 -10 10v330q0 10 10 10h98q8 0 11 -9z" />
    <glyph glyph-name="uni2126" unicode="&#x2126;" horiz-adv-x="683" 
d="M528 142q-8 -5 -6 -13.5t13 -8.5h57q8 0 14 -6t6 -14v-80q0 -8 -6 -14t-14 -6h-186q-8 0 -14 6t-6 14v109q0 7 3.5 20.5t21.5 25.5q17 11 32 27.5t26.5 41.5t18 58.5t6.5 78.5q0 42 -11 77t-31 60t-48 39t-63 14t-63 -14t-48 -39t-30.5 -60t-10.5 -77q0 -45 6.5 -78.5
t18 -58.5t26.5 -41.5t32 -27.5q18 -12 21.5 -25.5t3.5 -20.5v-109q0 -8 -6 -14t-14 -6h-186q-8 0 -14 6t-6 14v80q0 8 6 14t14 6h57q11 0 13.5 8t-5.5 13q-29 20 -49.5 48.5t-33 61t-18 66.5t-5.5 65q0 64 21.5 122.5t59.5 102.5t91.5 70t118.5 26q64 0 118 -26t92.5 -70
t60 -102.5t21.5 -122.5q0 -31 -5.5 -65t-18 -66t-32.5 -60.5t-49 -48.5z" />
    <glyph glyph-name="estimated" unicode="&#x212e;" horiz-adv-x="594" 
d="M306 100q38 0 64.5 9t48.5 34q7 8 11.5 12.5t11.5 4.5h76q8 0 13 -4.5t4 -15.5q-3 -33 -22 -60.5t-49 -47.5t-70.5 -31t-87.5 -11q-95 0 -161.5 47.5t-86.5 148.5q-4 19 -6 43.5t-2 50t2 50t6 43.5q12 54 37 93t59 64.5t73 37.5t79 12q43 0 85.5 -11.5t76.5 -40t55 -75.5
t21 -119v-63q0 -8 -6 -14t-14 -6h-339q-10 0 -10 -10q7 -78 40.5 -109.5t90.5 -31.5zM178 362q0 -10 10 -10h226q10 0 10 10q0 51 -29 79.5t-91 28.5q-57 0 -91.5 -28.5t-34.5 -79.5z" />
    <glyph glyph-name="arrowleft" unicode="&#x2190;" horiz-adv-x="654" 
d="M584 311q8 0 14 -6t6 -14v-77q0 -8 -6 -14t-14 -6h-354l72 -67q12 -11 12 -25v-85q0 -9 -8 -13.5t-16 3.5l-233 233q-13 13 1 27l225 225q9 9 20 3.5t11 -17.5v-82q0 -8 -4.5 -12.5l-10.5 -10.5l-67 -62h352z" />
    <glyph glyph-name="arrowup" unicode="&#x2191;" horiz-adv-x="596" 
d="M237 372l-62 -67l-10.5 -10.5t-12.5 -4.5h-82q-12 0 -17.5 11t3.5 20l225 225q14 14 27 1l233 -233q8 -8 3.5 -16t-13.5 -8h-85q-14 0 -25 12l-67 72v-354q0 -8 -6 -14t-14 -6h-77q-8 0 -14 6t-6 14v352z" />
    <glyph glyph-name="arrowright" unicode="&#x2192;" horiz-adv-x="654" 
d="M422 311l-67 62l-10.5 10.5t-4.5 12.5v82q0 12 11 17.5t20 -3.5l225 -225q14 -14 1 -27l-233 -233q-8 -8 -16 -3.5t-8 13.5v85q0 14 12 25l72 67h-354q-8 0 -14 6t-6 14v77q0 8 6 14t14 6h352z" />
    <glyph glyph-name="arrowdown" unicode="&#x2193;" horiz-adv-x="596" 
d="M237 511q0 8 6 14t14 6h77q8 0 14 -6t6 -14v-354l67 72q11 12 25 12h85q9 0 13.5 -8t-3.5 -16l-233 -233q-13 -13 -27 1l-225 225q-9 9 -3.5 20t17.5 11h82q8 0 12.5 -4.5l10.5 -10.5l62 -67v352z" />
    <glyph glyph-name="uni2196" unicode="&#x2196;" horiz-adv-x="530" 
d="M142 282l4 -92q0 -8 -0.5 -14.5t-5.5 -11.5l-58 -58q-8 -9 -20 -5t-12 17v318q0 20 19 20h329q11 0 14 -9t-4 -15l-60 -61q-5 -4 -11 -6.5t-15 -2.5l-98 4l250 -250q5 -6 5 -15t-5 -14l-55 -54q-5 -5 -14 -5t-14 5z" />
    <glyph glyph-name="uni2197" unicode="&#x2197;" horiz-adv-x="530" 
d="M139 33q-5 -5 -14 -5t-14 5l-55 54q-5 5 -5 14t5 15l250 250l-98 -4q-9 0 -15 2.5t-11 6.5l-60 61q-7 6 -4 15t14 9h329q19 0 19 -20v-318q0 -13 -12 -17t-20 5l-58 58q-5 5 -5.5 11.5t-0.5 14.5l4 92z" />
    <glyph glyph-name="uni2198" unicode="&#x2198;" horiz-adv-x="530" 
d="M111 470q5 5 14 5t14 -5l249 -249l-4 92q0 8 0.5 14.5t5.5 11.5l58 58q8 9 20 5t12 -17v-318q0 -20 -19 -20h-329q-11 0 -13.5 8.5t3.5 15.5l60 61q7 9 26 9l98 -4l-250 250q-5 6 -5 15t5 14z" />
    <glyph glyph-name="uni2199" unicode="&#x2199;" horiz-adv-x="530" 
d="M391 470q5 5 14 5t14 -5l55 -54q5 -5 5 -14t-5 -15l-250 -250l98 4q18 0 26 -9l60 -61q6 -7 3.5 -15.5t-13.5 -8.5h-329q-19 0 -19 20v318q0 13 12 17t20 -5l58 -58q5 -5 5.5 -11.5t0.5 -14.5l-4 -92z" />
    <glyph glyph-name="partialdiff" unicode="&#x2202;" horiz-adv-x="514" 
d="M250 120q39 0 62.5 23.5t26.5 62.5q1 19 0 39q-3 39 -26.5 64.5t-62.5 25.5t-62.5 -25.5t-26.5 -64.5q-1 -20 0 -39q3 -39 26.5 -62.5t62.5 -23.5zM148 570q-8 0 -14 6t-6 14v90q0 8 6 14t14 6h66q176 0 238 -220q7 -26 12 -60.5t7 -71.5t1.5 -74t-4.5 -68
q-5 -45 -20 -84.5t-41 -69t-65 -46.5t-92 -17q-46 0 -86.5 17t-71 46.5t-48 69.5t-17.5 86v35q0 46 17.5 85.5t48 69t71 46t86.5 16.5q9 0 22.5 -2.5t23.5 -7.5q8 -5 15.5 -1.5t7.5 14.5q0 26 -9.5 46t-25 33.5t-34 20.5t-36.5 7h-66z" />
    <glyph glyph-name="uni2206" unicode="&#x2206;" horiz-adv-x="660" 
d="M62 0q-8 0 -14 6t-6 14v51q0 8 2.5 16.5t4.5 12.5l230 525q6 15 19 15h64q13 0 19 -15l230 -525q2 -4 4.5 -12.5t2.5 -16.5v-51q0 -8 -6 -14t-14 -6h-536zM476 118q8 0 4 10l-145 343q-2 4 -4 4h-2q-4 0 -4 -4l-145 -343q-4 -10 4 -10h292z" />
    <glyph glyph-name="product" unicode="&#x220f;" horiz-adv-x="569" 
d="M383 550q0 10 -10 10h-176q-10 0 -10 -10v-730q0 -8 -6 -14t-14 -6h-82q-8 0 -14 6t-6 14v860q0 8 6 14t14 6h400q8 0 14 -6t6 -14v-860q0 -8 -6 -14t-14 -6h-82q-8 0 -14 6t-6 14v730z" />
    <glyph glyph-name="summation" unicode="&#x2211;" horiz-adv-x="517" 
d="M74 541q-2 4 -5.5 11.5t-3.5 18.5v109q0 8 6 14t14 6h373q8 0 14 -6t6 -14v-100q0 -8 -6 -14t-14 -6h-233q-8 0 -9.5 -4t0.5 -8l172 -268q5 -9 6 -18.5t-6 -21.5l-182 -287q-2 -4 0 -8.5t9 -4.5h245q8 0 14 -6t6 -14v-100q0 -8 -6 -14t-14 -6h-385q-8 0 -14 6t-6 14v109
q0 11 3.5 18.5t5.5 11.5l185 290q3 5 2.5 11t-2.5 10z" />
    <glyph glyph-name="minus" unicode="&#x2212;" horiz-adv-x="550" 
d="M480 325q8 0 14 -6t6 -14v-89q0 -8 -6 -14t-14 -6h-410q-8 0 -14 6t-6 14v89q0 8 6 14t14 6h410z" />
    <glyph glyph-name="radical" unicode="&#x221a;" horiz-adv-x="508" 
d="M604 860q8 0 14 -6t6 -14v-60q0 -8 -6 -14t-14 -6h-112l-215 -745q-5 -15 -19 -15h-96q-15 0 -19 15l-118 371q-2 8 2.5 16t16.5 8h85q15 0 19 -15l55 -228q1 -6 6 -6h2q4 0 6 6l185 678q4 15 19 15h183z" />
    <glyph glyph-name="infinity" unicode="&#x221e;" horiz-adv-x="833" 
d="M809 259q0 -41 -13.5 -75.5t-38 -59.5t-58.5 -38.5t-76 -13.5q-55 0 -104.5 28.5t-91.5 72.5q-4 5 -10 5.5t-12 -5.5q-20 -19 -42 -37t-45.5 -32.5t-50 -23t-55.5 -8.5q-41 0 -75.5 13.5t-59 38.5t-38 59.5t-13.5 75.5t13.5 75.5t38 59t59 38t75.5 13.5q55 0 104 -29.5
t91 -71.5q3 -4 8.5 -5t11.5 5q21 20 43.5 38t47 32t50.5 22.5t55 8.5q42 0 76 -13.5t58.5 -38t38 -59t13.5 -75.5zM691 259q0 17 -6.5 30.5t-17 23t-23.5 14.5t-26 5q-17 0 -33.5 -7t-32 -18t-29 -24t-24.5 -24q11 -11 24.5 -23.5t29 -23.5t32 -18.5t33.5 -7.5q13 0 26 5
t23.5 14t17 22.5t6.5 31.5zM336 259q-12 12 -25.5 25t-29 23.5t-32 17.5t-32.5 7q-26 0 -49 -19.5t-23 -53.5q0 -35 23 -54t49 -19q16 0 32.5 7t32 17.5t29 23.5t25.5 25z" />
    <glyph glyph-name="integral" unicode="&#x222b;" horiz-adv-x="380" 
d="M124 520q0 45 15 80t42 58.5t63.5 36t79.5 12.5h10q8 0 14 -6t6 -14v-72q0 -8 -6 -14t-14 -6h-10q-42 0 -61 -16.5t-19 -58.5v-533q0 -45 -15 -80t-42 -58.5t-63.5 -36t-79.5 -12.5h-10q-8 0 -14 6t-6 14v72q0 8 6 14t14 6h10q45 0 62.5 17.5t17.5 57.5v533z" />
    <glyph glyph-name="approxequal" unicode="&#x2248;" horiz-adv-x="550" 
d="M161 300q-8 0 -20.5 -2t-24.5 -5.5t-22.5 -8.5t-14.5 -10q-8 -10 -18.5 -8t-10.5 17v80q0 13 10.5 24.5t26.5 19.5t35.5 12.5t38.5 4.5q39 0 64.5 -7t48 -15.5t48.5 -15.5t67 -7q8 0 20.5 2t24.5 5.5t22.5 8.5t14.5 10q8 10 18.5 8t10.5 -17v-80q0 -14 -10.5 -25
t-26.5 -19t-35.5 -12.5t-38.5 -4.5q-39 0 -64.5 7t-48 15.5t-49 15.5t-66.5 7zM161 110q-8 0 -20.5 -2t-24.5 -5.5t-22.5 -8.5t-14.5 -10q-8 -10 -18.5 -8t-10.5 17v80q0 13 10.5 24.5t26.5 19.5t35.5 12.5t38.5 4.5q39 0 64.5 -7t48 -15.5t48.5 -15.5t67 -7q8 0 20.5 2
t24.5 5.5t22.5 8.5t14.5 10q8 10 18.5 8t10.5 -17v-80q0 -14 -10.5 -25t-26.5 -19t-35.5 -12.5t-38.5 -4.5q-39 0 -64.5 7t-48 15.5t-49 15.5t-66.5 7z" />
    <glyph glyph-name="notequal" unicode="&#x2260;" horiz-adv-x="540" 
d="M70 87q-8 0 -14 6t-6 14v87q0 8 6 14t14 6h106q6 0 9 2t5 5l41 58q2 2 1 4.5t-6 2.5h-156q-8 0 -14 6t-6 14v87q0 8 6 14t14 6h241q6 0 9 2t5 5l39 55q5 8 8.5 11.5t10.5 3.5h72q10 0 16.5 -9t-0.5 -19l-30 -42q-2 -2 -1 -4.5t6 -2.5h24q8 0 14 -6t6 -14v-87q0 -8 -6 -14
t-14 -6h-108q-6 0 -9 -2t-5 -5l-40 -58q-2 -2 -1 -4.5t6 -2.5h157q8 0 14 -6t6 -14v-87q0 -8 -6 -14t-14 -6h-242q-6 0 -9 -2t-5 -5l-41 -55q-5 -8 -9.5 -11.5t-11.5 -3.5h-69q-10 0 -16.5 9t0.5 19l29 42q2 2 1 4.5t-6 2.5h-21z" />
    <glyph glyph-name="lessequal" unicode="&#x2264;" horiz-adv-x="534" 
d="M446 315q15 -8 15 -21v-105q0 -12 -8 -17.5t-15 -1.5l-362 204q-7 4 -11 11t-4 21v29q0 14 4 21t11 11l362 203q7 4 15 -1.5t8 -17.5v-105q0 -12 -15 -21l-202 -101q-8 -4 0 -8zM464 129q8 0 14 -6t6 -14v-89q0 -8 -6 -14t-14 -6h-394q-8 0 -14 6t-6 14v89q0 8 6 14t14 6
h394z" />
    <glyph glyph-name="greaterequal" unicode="&#x2265;" horiz-adv-x="534" 
d="M290 416q8 4 0 8l-202 101q-15 7 -15 21v105q0 12 8 17.5t15 1.5l362 -203q7 -4 11 -11t4 -21v-29q0 -14 -4 -21t-11 -11l-362 -204q-7 -4 -15 1.5t-8 17.5v105q0 13 15 21zM464 129q8 0 14 -6t6 -14v-89q0 -8 -6 -14t-14 -6h-394q-8 0 -14 6t-6 14v89q0 8 6 14t14 6h394
z" />
    <glyph glyph-name="lozenge" unicode="&#x25ca;" horiz-adv-x="606" 
d="M53 347q-5 9 0 16l203 332q4 7 11 11t21 4h29q14 0 21 -4t11 -11l204 -332q5 -8 0 -16l-204 -332q-4 -7 -11 -11t-21 -4h-29q-14 0 -21 4t-11 11zM307 527q-4 8 -8 0l-101 -172l101 -172q4 -8 8 0l101 172z" />
    <glyph glyph-name="commaaccent" unicode="&#xf6c3;" horiz-adv-x="287" 
d="M101 -305q-15 0 -21.5 12t0.5 26l34 69q3 5 -0.5 9t-8.5 4h-24q-8 0 -14 6t-6 14v100q0 8 6 14t14 6h100q8 0 14 -6t6 -14v-97q0 -20 -6.5 -37.5t-15.5 -31.5l-34 -54q-5 -7 -12 -13.5t-22 -6.5h-10v0z" />
    <glyph glyph-name="apple" unicode="&#xf8ff;" horiz-adv-x="550" 
d="M184 120q-14 0 -19 -9t-9.5 -19.5t-12.5 -19.5t-27 -9q-21 0 -36.5 13.5t-15.5 31.5t6.5 27t14.5 17t14.5 19t6.5 34q0 17 -8.5 27.5t-19.5 10.5q-12 0 -15.5 -3.5t-14.5 -3.5q-15 0 -22.5 16t-7.5 36q0 14 9.5 26.5t23.5 12.5q10 0 14.5 -5.5t12.5 -5.5q15 0 21 15t6 25
q0 12 -5 24.5t-5 24.5q0 20 11.5 28.5t28.5 8.5q9 0 9 8q0 5 -4 10.5t-4 13.5q0 5 5.5 9.5t10.5 4.5q8 0 13 -5.5t9 -12t8.5 -12t11.5 -5.5q12 0 15 8.5t5 19t7 19t22 8.5q16 0 23.5 -7.5t13.5 -16.5t13.5 -16.5t21.5 -7.5q21 0 28 11.5t7 36.5q0 28 15 40.5t38 12.5
q22 0 34.5 -13t12.5 -35q0 -16 -7.5 -26t-16.5 -16.5t-16.5 -12.5t-7.5 -14q0 -14 12 -22t27 -16.5t27 -21t12 -36.5q0 -14 -5 -22.5t-11 -15t-11 -14t-5 -20.5q0 -10 9.5 -18t34.5 -8q22 0 31 -13t9 -32q0 -22 -15 -37t-37 -15q-12 0 -19.5 8t-15 17t-16 17t-21.5 8
q-11 0 -18 -5.5t-7 -15.5q0 -8 3 -12.5t7 -8.5t7 -10t3 -18q0 -13 -8.5 -23t-26.5 -10q-9 0 -17.5 4.5t-18 10.5t-20.5 10.5t-24 4.5q-9 0 -17.5 -7t-8.5 -24q0 -12 -6.5 -19.5t-17.5 -7.5q-9 0 -12.5 7.5t-7.5 16.5t-11 16.5t-23 7.5zM298 340q0 -17 11.5 -28.5t28.5 -11.5
t30 11.5t13 28.5t-13 32t-30 15t-28.5 -15t-11.5 -32zM281 226q-14 0 -26 5.5t-22 14.5q-5 4 -7 1t2 -8q8 -12 20 -20.5t33 -8.5q20 0 29.5 11.5t14.5 22.5q2 5 -1 6.5t-5 -2.5q-12 -22 -38 -22zM214 335q0 9 4 15t10 6t10 -6t4 -15t-4 -15t-10 -6t-10 6t-4 15zM310 340
q0 9 4 15t10 6t10 -6t4 -15t-4 -15t-10 -6t-10 6t-4 15zM178 340q0 -21 9.5 -35.5t26.5 -14.5t28.5 14.5t11.5 35.5t-11.5 35.5t-28.5 14.5t-26.5 -14.5t-9.5 -35.5zM85 520q0 14 8.5 24t20.5 10q10 0 17 -10t7 -24t-7 -24t-17 -10q-12 0 -20.5 10t-8.5 24z" />
    <glyph glyph-name="ffi" unicode="&#xfb03;" horiz-adv-x="934" 
d="M619 580q-25 0 -42.5 -15t-17.5 -40v-18q0 -10 10 -10h289q7 0 11.5 -5t4.5 -11v-465q0 -6 -4.5 -11t-11.5 -5h-98q-7 0 -11.5 5t-4.5 11v351q0 10 -10 10h-165q-10 0 -10 -10v-347q0 -8 -6 -14t-14 -6h-90q-8 0 -14 6t-6 14v347q0 10 -10 10h-164q-10 0 -10 -10v-347
q0 -8 -6 -14t-14 -6h-90q-8 0 -14 6t-6 14v347q0 10 -10 10h-80q-8 0 -14 6t-6 14v80q0 8 6 14t14 6h80q10 0 10 10v20q0 39 15 72.5t41 58t60.5 38.5t73.5 14h60q8 0 14 -6t6 -14v-90q0 -8 -6 -14t-14 -6h-60q-25 0 -42.5 -15t-17.5 -40v-18q0 -10 10 -10h164q10 0 10 10
v20q0 39 15 72.5t41 58t60.5 38.5t73.5 14h235q8 0 14 -6t6 -14v-90q0 -8 -6 -14t-14 -6h-235z" />
    <glyph glyph-name="ffl" unicode="&#xfb04;" horiz-adv-x="953" 
d="M758 690q0 8 6 14t14 6h90q8 0 14 -6t6 -14v-670q0 -8 -6 -14t-14 -6h-90q-8 0 -14 6t-6 14v347q0 10 -10 10h-180q-10 0 -10 -10v-347q0 -8 -6 -14t-14 -6h-90q-8 0 -14 6t-6 14v347q0 10 -10 10h-163q-10 0 -10 -10v-347q0 -8 -6 -14t-14 -6h-90q-8 0 -14 6t-6 14v347
q0 10 -10 10h-80q-8 0 -14 6t-6 14v80q0 8 6 14t14 6h80q10 0 10 10v20q0 39 15 72.5t41 58t60.5 38.5t73.5 14h60q8 0 14 -6t6 -14v-90q0 -8 -6 -14t-14 -6h-60q-25 0 -42.5 -15t-17.5 -40v-18q0 -10 10 -10h163q10 0 10 10v20q0 39 15 72.5t41 58t60.5 38.5t73.5 14h50
q8 0 14 -6t6 -14v-90q0 -8 -6 -14t-14 -6h-50q-25 0 -42.5 -15t-17.5 -40v-18q0 -10 10 -10h180q10 0 10 10v183z" />
    <glyph glyph-name="commaturn" horiz-adv-x="290" 
d="M181 820q15 0 21.5 -12t-0.5 -26l-34 -69q-3 -5 0.5 -9t8.5 -4h24q8 0 14 -6t6 -14v-100q0 -8 -6 -14t-14 -6h-100q-8 0 -14 6t-6 14v97q0 20 6.5 37.5t15.5 31.5l34 54q5 7 12 13.5t22 6.5h10v0z" />
    <glyph glyph-name="zero.otlfslash" horiz-adv-x="550" 
d="M275 711q46 0 84.5 -17.5t67.5 -48t47.5 -70.5t23.5 -85q4 -32 5.5 -67.5t1.5 -72.5t-1.5 -73t-5.5 -67q-5 -45 -23.5 -85t-47.5 -70.5t-67.5 -48t-84.5 -17.5t-84.5 17.5t-67.5 48t-47.5 70.5t-23.5 85q-4 31 -6 67t-2 73t2 72.5t6 67.5q5 45 23.5 85t47.5 70.5t67.5 48
t84.5 17.5zM275 575q-35 0 -57.5 -23.5t-26.5 -57.5q-5 -42 -7 -89t-1 -94q0 -7 3.5 -11.5t10.5 6.5l136 226q6 10 2.5 15t-6.5 8q-23 20 -54 20zM275 125q35 0 57.5 23.5t26.5 57.5q5 40 6.5 86t0.5 92q0 8 -4 12.5t-13 -9.5l-130 -218q-8 -12 -4 -17.5t7 -7.5
q22 -19 53 -19z" />
    <glyph glyph-name="zero.slash" horiz-adv-x="552" 
d="M276 711q46 0 84.5 -17.5t67.5 -48t47.5 -70.5t23.5 -85q4 -32 5.5 -67.5t1.5 -72.5t-1.5 -73t-5.5 -67q-5 -45 -23.5 -85t-47.5 -70.5t-67.5 -48t-84.5 -17.5t-84.5 17.5t-67.5 48t-47.5 70.5t-23.5 85q-4 31 -6 67t-2 73t2 72.5t6 67.5q5 45 23.5 85t47.5 70.5t67.5 48
t84.5 17.5zM276 575q-35 0 -57.5 -23.5t-26.5 -57.5q-5 -42 -7 -89t-1 -94q0 -7 3.5 -11.5t10.5 6.5l136 226q6 10 2.5 15t-6.5 8q-23 20 -54 20zM276 125q35 0 57.5 23.5t26.5 57.5q5 40 6.5 86t0.5 92q0 8 -4 12.5t-13 -9.5l-130 -218q-8 -12 -4 -17.5t7 -7.5
q22 -19 53 -19z" />
    <glyph glyph-name="one.otlf" horiz-adv-x="550" 
d="M229 500q0 10 -7 11.5t-12 -3.5l-121 -113q-9 -9 -21.5 -4t-12.5 20v96q0 12 2.5 22.5t13.5 21.5l116 125q7 8 19 16t31 8h111q8 0 14 -6t6 -14v-535q0 -10 10 -10h111q8 0 14 -6t6 -14v-95q0 -8 -6 -14t-14 -6h-410q-8 0 -14 6t-6 14v95q0 8 6 14t14 6h140q10 0 10 10
v355z" />
    <glyph glyph-name="zero.otlf" horiz-adv-x="550" 
d="M52 490q5 45 23.5 85t47.5 70.5t67.5 48t84.5 17.5t84.5 -17.5t67.5 -48t47.5 -70.5t23.5 -85q4 -32 5.5 -67.5t1.5 -72.5t-1.5 -73t-5.5 -67q-5 -45 -23.5 -85t-47.5 -70.5t-67.5 -48t-84.5 -17.5t-84.5 17.5t-67.5 48t-47.5 70.5t-23.5 85q-4 31 -6 67t-2 73t2 72.5
t6 67.5zM275 575q-35 0 -57.5 -23.5t-26.5 -57.5q-8 -66 -8 -144t8 -144q4 -34 26.5 -57.5t57.5 -23.5t57.5 23.5t26.5 57.5q8 66 8 144t-8 144q-4 34 -26.5 57.5t-57.5 23.5z" />
    <glyph glyph-name="two.otlf" horiz-adv-x="550" 
d="M355 503q0 30 -19 51.5t-53 21.5q-38 0 -60 -20t-22 -53v-17q0 -8 -6 -14t-14 -6h-95q-8 0 -14 6t-6 14v16q0 44 17 82t46 66.5t67.5 44.5t82.5 16t82.5 -16t67 -44.5t45 -66.5t16.5 -82q0 -42 -17 -80t-45 -68l-188 -199q-5 -5 -4 -12.5t14 -7.5h221q8 0 14 -6t6 -14
v-95q0 -8 -6 -14t-14 -6h-392q-8 0 -14 6t-6 14v118q0 11 3 16.5t6 8.5l259 275q8 9 18 29t10 36z" />
    <glyph glyph-name="three.otlf" horiz-adv-x="550" 
d="M363 208q0 39 -24 61t-63 22h-12q-8 0 -14 6t-6 14v94q0 8 6 14t14 6h12q35 0 56.5 20.5t21.5 55.5q0 34 -21.5 54t-56.5 20q-34 0 -56 -20t-22 -54v-15q0 -8 -6 -14t-14 -6h-96q-8 0 -14 6t-6 14v15q0 44 17 82t46 66.5t68 45t83 16.5t83 -16.5t68 -45t45.5 -66.5
t16.5 -82q0 -38 -15 -72t-38 -59q-10 -10 0 -18q29 -24 46 -63t17 -81q0 -46 -17.5 -86t-48 -69.5t-71 -46.5t-86.5 -17t-86.5 17t-71 46.5t-48 69.5t-17.5 86v10q0 8 6 14t14 6h96q8 0 14 -6t6 -14v-10q0 -39 23.5 -61t63.5 -22q39 0 63 22t24 61z" />
    <glyph glyph-name="four.otlf" horiz-adv-x="550" 
d="M486 251q8 0 14 -6t6 -14v-86q0 -8 -6 -14t-14 -6h-37q-10 0 -10 -10v-95q0 -8 -6 -14t-14 -6h-90q-8 0 -14 6t-6 14v95q0 10 -10 10h-235q-8 0 -14 6t-6 14v104q0 11 5 19.5t11 18.5l231 399q5 8 9 11t12 3h107q8 0 14 -6t6 -14v-419q0 -10 10 -10h37zM183 263
q-7 -12 6 -12h110q10 0 10 10v212q0 5 -4.5 6t-6.5 -3z" />
    <glyph glyph-name="five.otlf" horiz-adv-x="550" 
d="M53 188q0 10 6 15t14 5h94q8 0 14 -6t6 -14q0 -17 7.5 -29t20 -19.5t28 -11t31.5 -3.5q39 0 61.5 24t25.5 59q2 17 2 26.5t-2 21.5q-5 35 -26.5 61t-60.5 26q-23 0 -39.5 -9t-26.5 -23q-8 -11 -24 -11h-97q-8 0 -14 6t-6 14v360q0 8 6 14t14 6h361q8 0 14 -6t6 -14v-96
q0 -8 -6 -14t-14 -6h-238q-10 0 -10 -10v-93q0 -10 6 -12t13 3q10 7 26.5 12t35.5 5q46 0 84.5 -16t66.5 -44.5t44.5 -67.5t19.5 -85q1 -12 1 -21.5t-1 -26.5q-2 -46 -20 -86t-47.5 -69.5t-69 -46.5t-85.5 -17q-44 0 -84 12t-70.5 37t-48.5 62t-18 88z" />
    <glyph glyph-name="six.otlf" horiz-adv-x="550" 
d="M280 335q-39 0 -62.5 -25.5t-26.5 -64.5q-1 -20 0 -39q3 -39 26.5 -62.5t62.5 -23.5t62.5 23.5t26.5 62.5q1 19 0 39q-3 39 -26.5 64.5t-62.5 25.5zM492 516q0 -8 -6 -14t-14 -6h-85q-23 0 -28 20q-6 25 -26 44.5t-58 19.5q-47 0 -69 -32t-22 -85q0 -11 7.5 -14.5
t15.5 1.5q10 5 30 10.5t43 5.5q46 0 86.5 -17.5t71 -48t48 -71t17.5 -86.5v-35q0 -46 -17.5 -86t-48 -69.5t-71 -46.5t-86.5 -17t-84.5 17t-67.5 46.5t-47.5 69t-23.5 84.5q-4 31 -6 68.5t-2 75.5t2 75t6 69q5 45 23 84.5t46.5 69t66.5 46.5t82 17q41 0 80 -14t69.5 -39.5
t49 -61.5t18.5 -80z" />
    <glyph glyph-name="seven.otlf" horiz-adv-x="550" 
d="M345 555q4 10 -7 10h-255q-8 0 -14 6t-6 14v95q0 8 6 14t14 6h384q8 0 14 -6t6 -14v-120q0 -9 -5 -20l-228 -525q-7 -15 -19 -15h-107q-14 0 -17.5 8.5t-0.5 15.5z" />
    <glyph glyph-name="eight.otlf" horiz-adv-x="550" 
d="M275 122q44 0 70 24t26 62t-26 64t-70 26t-70 -26t-26 -64t26 -62t70 -24zM275 420q38 0 62 23.5t24 57.5q0 33 -24 55t-62 22q-37 0 -61.5 -22t-24.5 -55q0 -34 24.5 -57.5t61.5 -23.5zM275 711q46 0 86 -16.5t69 -45t46 -66.5t17 -82q0 -76 -44 -129q-5 -6 -5.5 -11
t5.5 -11q27 -27 40.5 -63.5t13.5 -78.5q0 -46 -17.5 -86t-48.5 -69.5t-72.5 -46.5t-89.5 -17t-89.5 17t-72.5 46.5t-48.5 69.5t-17.5 86q0 42 14 77.5t39 64.5q9 10 -1 22q-43 55 -43 129q0 44 17 82t46.5 66.5t69.5 45t86 16.5z" />
    <glyph glyph-name="nine.otlf" horiz-adv-x="550" 
d="M271 366q35 0 56.5 24t25.5 59q2 16 2 27t-2 28q-3 35 -25 57t-57 22t-57 -22t-25 -57q-2 -17 -2 -28t2 -27q4 -35 25.5 -59t56.5 -24zM49 186q0 8 6 14t14 6h81q23 0 28 -20q6 -26 26.5 -46t61.5 -20q23 0 42.5 6t33.5 20t21.5 37t7.5 57q0 11 -8 13.5t-16 -0.5
q-11 -4 -35 -9.5t-47 -5.5q-44 0 -81.5 16.5t-66 45.5t-45.5 68t-20 84q-1 14 -1 23.5t1 25.5q2 44 19 82t45.5 66.5t67 45t82.5 16.5q47 0 86.5 -17t68.5 -46.5t47.5 -69t23.5 -84.5q4 -32 5.5 -69t1.5 -75t-1.5 -75.5t-5.5 -68.5q-5 -45 -23.5 -84.5t-47.5 -69
t-67.5 -46.5t-84.5 -17q-47 0 -87 15t-69.5 41.5t-46.5 62.5t-17 78z" />
    <glyph glyph-name="hyphen.case" horiz-adv-x="409" 
d="M341 407q8 0 14 -6t6 -14v-103q0 -8 -6 -14t-14 -6h-273q-8 0 -14 6t-6 14v103q0 8 6 14t14 6h273z" />
    <glyph glyph-name="endash.case" horiz-adv-x="572" 
d="M504 395q8 0 14 -6t6 -14v-93q0 -8 -6 -14t-14 -6h-414q-8 0 -14 6t-6 14v93q0 8 6 14t14 6h414z" />
    <glyph glyph-name="emdash.case" horiz-adv-x="710" 
d="M642 395q8 0 14 -6t6 -14v-93q0 -8 -6 -14t-14 -6h-560q-8 0 -14 6t-6 14v93q0 8 6 14t14 6h560z" />
    <glyph glyph-name="plus.case" horiz-adv-x="540" 
d="M70 252q-8 0 -14 6t-6 14v93q0 8 6 14t14 6h123q10 0 10 10v123q0 8 6 14t14 6h93q8 0 14 -6t6 -14v-123q0 -10 10 -10h124q8 0 14 -6t6 -14v-93q0 -8 -6 -14t-14 -6h-124q-10 0 -10 -10v-124q0 -8 -6 -14t-14 -6h-93q-8 0 -14 6t-6 14v124q0 10 -10 10h-123z" />
    <glyph glyph-name="parenleft.case" horiz-adv-x="364" 
d="M411 -65q11 0 18 -7t7 -18v-78q0 -10 -7 -17.5t-18 -7.5h-66q-56 0 -104.5 18.5t-85 52.5t-60.5 83t-31 109q-3 25 -5.5 64t-3.5 85t-1 95.5t1 95t3 84.5t5 64q6 51 28 98.5t57.5 83.5t85 58t111.5 22h61q11 0 18 -7t7 -18v-77q0 -11 -7 -18t-18 -7h-61q-27 0 -52 -9
t-45 -26.5t-34 -42.5t-20 -58q-5 -26 -8 -64.5t-4.5 -84t-1.5 -94.5t1.5 -94.5t4.5 -84.5t7 -65t16 -50t31 -43t45.5 -30.5t59.5 -11.5h66z" />
    </font>
</defs>
</svg>
