<svg width="162" height="108" viewBox="0 0 162 108" xmlns="http://www.w3.org/2000/svg"><g fill="none" fill-rule="evenodd"><path d="m60.828 21.387c-14.14-8.589-32.18 1.517-33.31 19.273-15.506 2.04-27.518 16.226-27.518 33.434 0 18.609 14.04 33.696 31.367 33.696h98.31c17.324 0 31.368-15.09 31.368-33.696 0-15.04-9.18-27.782-21.849-32.11-3.217-43.522-56.56-57.862-78.37-20.596" fill="#fff"/><g fill="#555"><path d="m78.38 55.662c.844.43 1.787.921 2.804 1.462 2.9 1.545 5.799 3.184 8.49 4.838 2.176 1.337 4.12 2.625 5.767 3.836 1.852 1.362 3.273 2.587 4.165 3.59.371.417.609.75.712.953-.051-.101-.119-.381-.078-.847.035-.399.11-.566.102-.556-.21.279-.605.664-1.165 1.108-1.885 1.496-5.071 3.234-9.116 5.03-2.698 1.199-5.607 2.351-8.519 3.41-1.021.371-1.967.704-2.815.993-.503.172-.858.289-1.038.348l2.465 8.613c.219-.071.613-.202 1.157-.387.898-.306 1.897-.657 2.971-1.048 3.075-1.119 6.152-2.338 9.04-3.621 4.635-2.059 8.348-4.084 10.917-6.123 2.575-2.044 4.184-4.175 4.427-6.925.381-4.307-2.632-7.694-8.413-11.945-1.854-1.363-3.985-2.776-6.346-4.226-2.852-1.752-5.893-3.472-8.933-5.091-1.063-.566-2.05-1.08-2.938-1.532-.537-.274-.926-.468-1.14-.574l-3.554 8.171c.181.089.535.266 1.037.522"/><path d="m98.93 64.925c-1.709-.227-3.718-.453-6.02-.664-18.785-1.718-42.472-1.378-70.08 2.438l1.091 8.928c26.978-3.729 50.06-4.06 68.26-2.396 2.191.2 4.092.414 5.694.627.942.125 1.565.22 1.856.27l1.351-8.887c-.391-.067-1.113-.178-2.157-.316"/></g></g></svg>