<svg width="1200" height="382" viewBox="0 0 1200 382" xmlns="http://www.w3.org/2000/svg"><g fill="none" fill-rule="evenodd" transform="translate(-10-14)"><g transform="translate(478.6 14.681)"><path d="m123.32 24.705c32.06 8.249 57.686 37.39 64.13 73.913h22.19c-6.993-48.553-41.645-88.15-86.32-96.84" fill="#2e85bc"/><path d="m86.32 1.8c-44.41 8.74-79.29 48.31-86.32 96.82h22.14c6.445-36.526 32.09-65.67 64.18-73.916v-22.902" fill="#d04522"/><path d="m123.32 209.26c32.28-8.158 58-37.16 64.18-73.66h22.14c-6.651 48.48-41.43 88.13-86.32 96.8" fill="#f7e111"/><path d="m86.32 209.25c-32.29-8.163-58.02-37.16-64.18-73.65h-22.14c6.708 48.43 41.691 88.06 86.32 96.78v-23.13" fill="#7b9b66"/></g><text font-family="Akkurat" font-size="100" fill="#9b9b9b"><tspan x="683.52" y="373.05">community</tspan></text><g transform="translate(10 14.05)" fill="#fff"><path d="m0 118.25c0-65.38 47.02-118.25 105.61-118.25 55.892 0 100.27 48.07 104.7 109.6v1.912c0 6.238-4.876 10.565-10.635 10.565h-178.38c2.206 51.44 39.498 90.38 84.31 90.38 28.84 0 55.45-16.35 70.08-42.788 3.112-5.76 9.776-6.716 14.211-3.849 4.9 3.849 6.664 10.59 3.553 16.35-18.646 32.2-51.04 53.35-87.84 53.35-58.59 0-105.61-52.875-105.61-117.27m22.617-18.74h164.63c-7.106-44.25-41.727-76.44-81.64-76.44-40.822 0-75 31.745-82.991 76.44"/><path d="m810.32 0c-51.29 0-92.8 43.35-92.8 95.86v128.12c0 6.73 5.124 11.544 11.176 11.544 6.076 0 11.2-4.814 11.2-11.544v-128.12c0-39.976 31.23-72.74 70.42-72.74 39.16 0 70.4 32.767 70.4 72.74v128.12c0 6.73 5.124 11.544 11.2 11.544 6.05 0 11.176-4.814 11.176-11.544v-128.12c0-52.5-41.481-95.86-92.77-95.86"/><path d="m340.63 0c-51.29 0-92.8 43.35-92.8 95.86v128.12c0 6.73 5.124 11.544 11.176 11.544 6.076 0 11.2-4.814 11.2-11.544v-128.12c0-39.976 31.23-72.74 70.42-72.74 39.16 0 70.4 32.767 70.4 72.74v128.12c0 6.73 5.124 11.544 11.2 11.544 6.05 0 11.176-4.814 11.176-11.544v-128.12c0-52.5-41.481-95.86-92.77-95.86"/><path d="m940.21 11.546c0-6.741 5.196-11.546 11.357-11.546 6.606 0 11.802 4.805 11.802 11.546v212.46c0 6.238-5.196 11.521-11.802 11.521-6.161 0-11.357-5.282-11.357-11.521v-212.46"/><path d="m1002.06 117.3c0-65.38 53.19-117.3 119.69-117.3 27.541 0 53.691 9.609 74.1 25.96 4.748 3.371 5.692 10.565 1.442 15.847-3.828 4.327-10.465 5.786-15.685 1.937-16.629-13.458-37.534-21.16-59.855-21.16-54.14 0-96.89 42.788-96.89 94.71 0 52.85 42.754 95.16 96.89 95.16 22.321 0 43.23-7.697 59.855-20.677 5.22-3.849 11.857-2.39 15.685 1.937 4.251 5.282 3.306 12.502-2.386 16.828-19.463 15.369-45.612 24.979-73.15 24.979-66.49 0-119.69-51.919-119.69-118.23"/></g></g></svg>