<svg width="177" height="250" viewBox="0 0 177 250" xmlns="http://www.w3.org/2000/svg"><g fill="none" fill-rule="evenodd" transform="translate(1 1)"><path d="m172.86 2.965c-1.985-1.958-4.649-3.037-7.502-3.037h-155.17c-2.694 0-5.244 1.081-7.181 3.045-1.943 1.97-3.01 4.576-3.01 7.338v227.96c0 5.725 5.02 10.382 11.189 10.382h153.58c2.985 0 5.772-1.074 7.849-3.02 2.145-2.01 3.326-4.794 3.326-7.829v-227.49c0-2.785-1.09-5.393-3.068-7.345" fill="#3d3d3d"/><path d="m165.37 1.903h-155.17c-2.161 0-4.212.873-5.775 2.457-1.577 1.598-2.445 3.712-2.445 5.951v227.96c0 4.636 4.133 8.408 9.214 8.408h153.58c2.481 0 4.788-.883 6.498-2.488 1.743-1.636 2.702-3.905 2.702-6.389v-227.49c0-2.252-.881-4.362-2.48-5.94-1.613-1.592-3.785-2.468-6.116-2.468" fill="#000"/><path d="m163.83 22.15h-151.65c-.545 0-.987.442-.987.987v202.2c0 .545.442.987.987.987h151.65c.545 0 .987-.442.987-.987v-202.2c0-.545-.442-.987-.987-.987" fill="#1c1c1c"/><g fill="#3d3d3d"><path d="m87.9 13.52c.818 0 1.481-.663 1.481-1.481 0-.818-.663-1.481-1.481-1.481-.818 0-1.481.663-1.481 1.481 0 .818.663 1.481 1.481 1.481m0-2.37c.49 0 .889.398.889.889 0 .49-.398.889-.889.889-.49 0-.889-.399-.889-.889 0-.49.399-.889.889-.889"/><path d="m83.66 12.874c.438 0 .793-.357.793-.797 0-.44-.355-.797-.793-.797-.438 0-.793.357-.793.797 0 .44.355.797.793.797"/><path d="m87.89 231.3c-3.272 0-5.924 2.652-5.924 5.924 0 .047.002.094.004.142.076 3.206 2.696 5.782 5.92 5.782 3.272 0 5.924-2.652 5.924-5.924 0-3.272-2.652-5.924-5.924-5.924m0 11.06c-1.349 0-2.624-.52-3.588-1.463-.963-.942-1.511-2.202-1.542-3.548l-.002-.054c-.001-.023-.002-.046-.002-.069 0-2.831 2.303-5.134 5.134-5.134 2.831 0 5.134 2.303 5.134 5.134 0 2.831-2.303 5.134-5.134 5.134"/><path d="m89.03 234.91h-2.339c-.553 0-1 .449-1 1v2.339c0 .554.449 1 1 1h2.339c.554 0 1-.449 1-1v-2.339c0-.553-.449-1-1-1m.213 3.341c0 .117-.095.213-.213.213h-2.339c-.117 0-.212-.095-.212-.213v-2.339c0-.117.095-.212.212-.212h2.339c.117 0 .213.095.213.212v2.339"/></g></g></svg>