<svg width="328" height="190" viewBox="0 0 328 190" xmlns="http://www.w3.org/2000/svg"><g fill="none" fill-rule="evenodd" transform="translate(1)"><path d="m296.21 176.94c.187-.757.289-1.546.289-2.36v-164.64c0-5.464-4.446-9.91-9.91-9.91h-246.47c-5.464 0-9.91 4.446-9.91 9.91v164.64c0 .814.102 1.604.289 2.36h265.71" fill="#000"/><path d="m326.15 177.8h-325.64c-.284 0-.515.229-.515.51v5.061c0 .158 0 .578.377.852.089.067.185.136.287.207 2.251 1.549 7.896 3.853 14.226 3.853h296.9c6.33 0 11.975-2.304 14.225-3.852.129-.089.252-.179.367-.268.298-.231.298-.586.298-.72v-5.127c0-.274-.243-.516-.519-.516" fill="#b5b5b5"/><path d="m287.42 10.612h-248.18c-.474 0-.859.385-.859.859v155.2c0 .475.385.859.859.859h248.18c.475 0 .859-.385.859-.859v-155.2c0-.474-.385-.859-.859-.859" fill="#1c1c1c"/><path d="m185.72 178.48c-.202 1.107-1.29 2.993-3.216 2.993h-38.34c-1.926 0-3.01-1.885-3.216-2.993h44.777" fill="#8e8e8e"/><path d="m163.4 8.287c.759 0 1.375-.615 1.375-1.375 0-.759-.615-1.375-1.375-1.375-.759 0-1.375.615-1.375 1.375 0 .759.616 1.375 1.375 1.375m0-2.062c.379 0 .687.308.687.687 0 .379-.308.687-.687.687-.379 0-.687-.308-.687-.687 0-.379.308-.687.687-.687" fill="#3f3f3f"/></g></svg>