<svg width="65" height="132" viewBox="0 0 65 132" xmlns="http://www.w3.org/2000/svg"><g fill="none" fill-rule="evenodd" transform="translate(1)"><path d="m60.777 4.379c-1.262-1.455-3.626-3.19-7.727-3.19h-.028v-.351c0-.405-.385-.788-.791-.788h-9.321c-.403 0-.785.385-.785.793v.346h-31.03c-4.101 0-6.466 1.735-7.727 3.19-1.444 1.665-2.272 3.92-2.272 6.185v8.311h-.37c-.36 0-.652.293-.652.652v5.381c0 .36.293.652.652.652h.37v2.777h-.379c-.359 0-.725.363-.725.718v8.351c0 .36.348.713.703.713h.401v2.24h-.394c-.365 0-.71.34-.71.7v8.417c0 .39.4.703.731.703h.373v72.06c0 2.266.828 4.52 2.272 6.185 1.262 1.455 3.626 3.19 7.727 3.19h41.959c4.101 0 6.466-1.735 7.727-3.19 1.444-1.665 2.272-3.92 2.272-6.185v-111.67c0-2.265-.828-4.52-2.272-6.185" fill="#b5b5b5"/><path d="m56.942 3.643c-1.126-.493-2.436-.742-3.892-.742h-41.959c-1.456 0-2.766.25-3.892.742-.995.435-1.85 1.06-2.541 1.857-1.178 1.359-1.854 3.204-1.854 5.064v111.67c0 1.859.676 3.705 1.854 5.064.691.797 1.546 1.422 2.541 1.857 1.126.493 2.436.742 3.892.742h41.959c1.456 0 2.766-.25 3.892-.742.995-.435 1.85-1.06 2.541-1.857 1.178-1.359 1.854-3.205 1.854-5.064v-111.67c0-1.86-.676-3.705-1.854-5.064-.691-.797-1.546-1.422-2.541-1.857" fill="#000"/><g fill="#3d3d3d"><path d="m32.07 9.22c.764 0 1.386-.622 1.386-1.386 0-.764-.622-1.386-1.386-1.386-.764 0-1.386.622-1.386 1.386 0 .764.622 1.386 1.386 1.386m0-2.283c.495 0 .897.402.897.897 0 .494-.402.897-.897.897-.494 0-.897-.402-.897-.897 0-.494.402-.897.897-.897"/><path d="m27.627 14.01h8.886c.698 0 1.263-.566 1.263-1.264 0-.698-.566-1.264-1.263-1.264h-8.886c-.698 0-1.264.565-1.264 1.264 0 .698.566 1.264 1.264 1.264"/><path d="m32.07 116.23c-3.152 0-5.707 2.555-5.707 5.707 0 3.152 2.555 5.707 5.707 5.707 3.152 0 5.707-2.555 5.707-5.707 0-3.152-2.555-5.707-5.707-5.707m0 10.761c-2.787 0-5.05-2.267-5.05-5.05 0-2.787 2.267-5.05 5.05-5.05 2.787 0 5.05 2.267 5.05 5.05 0 2.787-2.267 5.05-5.05 5.05"/></g><path d="m58.16 19.483h-52.18c-.36 0-.652.292-.652.652v92.61c0 .36.292.652.652.652h52.18c.36 0 .652-.292.652-.652v-92.61c0-.36-.292-.652-.652-.652" fill="#1c1c1c"/><g fill="#8e8e8e"><path d="m.721 25.07c-.09 0-.163-.073-.163-.163v-5.381c0-.09.073-.163.163-.163h.37v5.707h-.37"/><path d="m.691 37.631c-.09 0-.214-.134-.214-.224v-8.351c0-.09.146-.229.236-.229h.379v8.805h-.401"/><path d="m.719 49.691c-.09 0-.242-.124-.242-.214v-8.417c0-.09.131-.21.221-.21h.394v8.842h-.373"/><path d="m42.614.844c0-.136.16-.303.295-.303h9.321c.135 0 .302.162.302.298v.351h-9.919v-.346"/></g></g></svg>