<svg width="681" height="482" viewBox="0 0 681 482" xmlns="http://www.w3.org/2000/svg"><g fill="none" fill-rule="evenodd"><path d="m442.99 474.63c-6.551-1.01-13.977-2.145-16.411-3.206-.5-.218-3.167-2.805-6.587-32.434-1.183-10.251-2.126-21.02-2.673-29.26h-155.74c-.548 8.236-1.49 19.01-2.673 29.26-3.42 29.629-6.086 32.22-6.586 32.434-2.435 1.061-9.86 2.201-16.411 3.206-11.72 1.799-13.341 2.201-13.341 3.311v1.674c0 .419.001.763 2.193 1.048l.971.108c3.053.295 9.05.522 20.841.703 11.71.18 27.784.267 49.14.267 10.557 0 20.556-.02 29.377-.038 5.547-.011 10.442-.021 14.361-.023 3.918.002 8.814.012 14.361.023 8.823.018 18.822.038 29.377.038 21.358 0 37.432-.088 49.14-.267 11.79-.181 17.787-.408 20.84-.703l.971-.108c2.192-.286 2.193-.629 2.193-1.048v-1.674c0-1.11-1.621-1.512-13.34-3.311" fill="#b5b5b5"/><path d="m660.29.108h-640.29c-10.966 0-19.857 8.89-19.857 19.857v368.29c0 10.966 8.89 19.856 19.857 19.856h640.29c10.966 0 19.856-8.89 19.856-19.856v-368.29c0-10.967-8.89-19.857-19.856-19.857" fill="#000"/><path d="m651 27.308h-621.71c-1.073 0-1.943.87-1.943 1.943v349.71c0 1.073.87 1.943 1.943 1.943h621.71c1.073 0 1.943-.87 1.943-1.943v-349.71c0-1.073-.87-1.943-1.943-1.943" fill="#1c1c1c"/><path d="m340.15 17c1.431 0 2.59-1.16 2.59-2.591 0-1.431-1.16-2.59-2.59-2.59-1.431 0-2.59 1.159-2.59 2.59 0 1.431 1.16 2.591 2.59 2.591m0-3.886c.714 0 1.295.581 1.295 1.295 0 .715-.581 1.296-1.295 1.296-.714 0-1.295-.581-1.295-1.296 0-.714.581-1.295 1.295-1.295" fill="#3f3f3f"/></g></svg>