<svg xmlns="http://www.w3.org/2000/svg" viewBox="0 0 523.8 300.7" enable-background="new 0 0 523.8 300.7"><path d="m238.2 66.4c-.4.8-1.2 1.5-2.2 1.8l-4.1 1.4-3.5-10.1 4-1.4c.9-.3 2-.4 2.8.1.6.3 1 .7 1.2 1.5.3 1 .1 2.1-.7 2.8 1.2 0 2.2.8 2.5 1.9.3.6.2 1.4 0 2m-5.4-7.2l-2.8 1 1.1 3.2 2.8-1c1.1-.4 1.6-1.1 1.2-2.2-.3-1.1-1.4-1.3-2.3-1m1.5 4.3l-2.9 1 1.2 3.5 2.8-1c1.1-.4 1.8-1.2 1.4-2.4-.3-1.1-1.4-1.5-2.5-1.1"/><path d="m245.8 65.5l-.4-1.1c-.2.9-1 1.6-1.9 1.8-1.7.4-2.8-.4-3.2-2.2l-1.1-4.9 1.3-.3 1.1 4.7c.3 1.1.8 1.7 2 1.4.5-.1.9-.4 1.1-.8.4-.6.3-1.4.1-2.2l-.9-3.9 1.3-.3 1.7 7.5-1.1.3"/><path d="m254.4 63.5c-.5.7-1.4 1-2.4 1.2-.9.1-1.8 0-2.6-.5-.5-.4-.9-1-1-1.6l1.3-.2c.1.5.4.9.8 1.1.4.2.9.2 1.4.2.5-.1 1-.2 1.3-.6.2-.2.3-.5.3-.9-.1-.6-.5-.9-1.3-.9-.3 0-1.2 0-1.7 0-1.2 0-2-.6-2.1-1.8-.1-.6.1-1.2.4-1.6.4-.6 1.2-1 2.1-1.1 1-.1 1.9.1 2.5.6.4.4.6.8.7 1.4l-1.3.2c-.1-.4-.3-.7-.6-.9-.4-.2-.8-.3-1.3-.2-.3 0-.5.1-.9.3-.5.3-.7.7-.6 1.1.1.6.5.8 1.1.9.4 0 1 0 1.9 0 1.1 0 2.1.7 2.2 1.8.3.6.1 1.1-.2 1.5"/><path d="m256.4 54.6l-.1-1.5 1.5-.1.1 1.5-1.5.1m.7 9.4l-.5-7.6 1.3-.1.5 7.6-1.3.1"/><path d="m265.9 63.9l.1-4.9c0-1.1-.4-1.8-1.6-1.9-.7 0-1.3.5-1.7 1.2-.3.6-.3 1.4-.3 1.9l-.1 3.6h-1.3l.1-7.6h1.1l.1 1.2c.4-.9 1.5-1.3 2.3-1.3 1.7 0 2.6 1.1 2.6 2.9l-.1 5-1.2-.1"/><path d="m276.1 61.4l-5.4-.6c-.1.7.1 1.5.5 2 .3.4.7.6 1.3.7.6.1 1.1 0 1.5-.3.2-.2.4-.4.5-.8l1.2.1c-.2.7-.7 1.4-1.4 1.7-.6.3-1.3.4-2 .3-1.1-.1-1.9-.7-2.4-1.4-.5-.8-.7-1.9-.6-2.9.1-.9.4-1.7.9-2.4.6-.9 1.7-1.4 3.1-1.3 1 .1 1.7.6 2.2 1.2.5.7.8 1.8.6 2.8v.9m-1.4-2.9c-.3-.5-.7-.8-1.4-.9-1.4-.2-2.2.9-2.3 2l4.1.5c-.1-.5-.2-1.1-.4-1.6"/><path d="m282.7 65.5c-.7.5-1.6.5-2.6.3-.9-.2-1.7-.6-2.2-1.4-.4-.5-.5-1.2-.4-1.9l1.3.3c-.1.5.1 1 .4 1.3.3.3.8.5 1.3.6.5.1 1 .1 1.5-.1.2-.1.5-.4.5-.7.1-.6-.2-1-.9-1.3-.3-.1-1.1-.4-1.6-.6-1.1-.4-1.6-1.3-1.4-2.4.1-.6.5-1.1.9-1.3.6-.4 1.4-.6 2.4-.4 1 .2 1.8.7 2.2 1.5.2.5.4.9.2 1.5l-1.3-.3c.1-.4 0-.8-.2-1-.2-.3-.6-.6-1.1-.7-.3-.1-.5-.1-.9 0-.5.1-.9.4-1 .8-.1.6.2 1 .8 1.2.4.1 1 .3 1.8.6 1 .4 1.7 1.4 1.5 2.5-.4.8-.8 1.3-1.2 1.5"/><path d="m290.1 67.7c-.7.4-1.7.4-2.6.1-.9-.3-1.7-.8-2.1-1.6-.3-.6-.4-1.3-.2-1.9l1.2.4c-.1.5 0 1 .2 1.3.3.4.7.6 1.2.7.5.2 1 .2 1.5 0 .3-.1.5-.3.6-.7.2-.5-.1-1.1-.8-1.4-.3-.1-1.1-.5-1.6-.7-1-.5-1.5-1.4-1.2-2.5.2-.6.6-1 1.1-1.2.6-.3 1.5-.4 2.4-.1 1 .3 1.7.9 2 1.7.2.5.3 1 .1 1.6l-1.2-.4c.1-.4 0-.8-.1-1-.2-.4-.6-.6-1.1-.8-.3-.1-.5-.2-.9-.1-.5 0-.9.3-1 .8-.2.6.1 1 .7 1.3.4.2.9.4 1.7.8 1 .5 1.6 1.5 1.2 2.6-.3.5-.7.9-1.1 1.1"/><path d="m189.4 186.5l-9.5 5-.6-1.2 9.5-5 .6 1.2"/><path d="m186.6 180.5c.7 1.5-.1 2.3-1 2.8l-4.2 1.9.6 1.3-1 .5-.6-1.3-1.8.8-.8-1 2.1-.9-.9-2.1 1-.5.9 2.1 4-1.8c.7-.3.8-.7.5-1.4-.2-.5-.7-1.1-.7-1.1l1-.5c.3.2.6.6.9 1.2"/><path d="m225.5 267.5c4.1 0 6.9 3.3 7.4 7.4.3 2.8.3 7 0 9.8-.5 4-3.3 7.4-7.4 7.4h-6.7c-.4 0-.7-.3-.7-.7v-23.1c0-.4.3-.7.7-.7h6.7zm-3.7 3.3c-.2 0-.3.1-.3.3v17.2c0 .2.1.3.3.3h3.7c2.1 0 3.8-1.9 4-4 .3-2.8.3-7 0-9.8-.2-2.1-1.9-4-4-4h-3.7"/><path d="m239.7 284.3c-.2 0-.4.1-.4.3 0 3.2 1.6 4.6 4.1 4.6 1.8 0 3.2-.9 3.6-2.2.1-.5.5-.6.8-.6h1.8c.3 0 .7.2.6.7-.4 3-3.2 5.3-6.8 5.3-4.2 0-6.9-3-7.2-6.7-.1-1.4-.1-3.5 0-4.9.3-3.7 3-6.7 7.2-6.7 4.2 0 7 2.6 7 7v2.4c0 .4-.3.7-.7.7h-10zm-.3-3.2c0 .2.1.3.3.3h7.3c.2 0 .3-.1.3-.3 0-2.4-1.8-3.8-4-3.8-2.3 0-3.9 1.7-3.9 3.8"/><path d="m267.9 280.8c.1 1.4.1 3.5 0 4.9-.3 3.7-3 6.7-6.7 6.7-1.6 0-2.6-.9-3.3-.9-.5 0-.8.2-.8.9v6c0 .4-.3.7-.7.7h-1.8c-.4 0-.7-.3-.7-.7v-23.1c0-.4.3-.7.7-.7h1.2c.2 0 .4.1.5.2.2.2.5.6.9.6 1 0 1.3-1.2 3.9-1.2 3.8-.1 6.5 2.9 6.8 6.6m-3 0c-.1-1.9-1.6-3.5-4-3.5s-3.9 1.6-4 3.5c-.1 1.4-.1 3.5 0 4.9.1 1.9 1.6 3.5 4 3.5s3.9-1.6 4-3.5c.1-1.4.1-3.5 0-4.9"/><path d="m274.2 291.3c0 .4-.3.7-.7.7h-1.8c-.4 0-.7-.3-.7-.7v-23.3c0-.4.3-.7.7-.7h1.8c.4 0 .7.3.7.7v23.3"/><path d="m278 280.8c.3-3.7 3-6.7 7.2-6.7 4.2 0 6.9 3 7.2 6.7.1 1.4.1 3.5 0 4.9-.3 3.7-3 6.7-7.2 6.7-4.2 0-6.9-3-7.2-6.7-.1-1.4-.1-3.5 0-4.9m3.2 4.9c.1 1.9 1.6 3.5 4 3.5 2.4 0 3.9-1.6 4-3.5.1-1.4.1-3.5 0-4.9-.1-1.9-1.6-3.5-4-3.5-2.4 0-3.9 1.6-4 3.5-.1 1.4-.1 3.5 0 4.9"/><path d="m301.2 286.4c.1.2.2.2.3 0l4.1-11.4c.1-.4.4-.5.7-.5h2.1c.6 0 .8.5.7.8l-8.9 23.2c-.1.4-.4.5-.7.5h-1.9c-.6 0-.8-.5-.7-.8l2.6-7.1c.1-.2.1-.3 0-.5l-6-15.3c-.1-.4.1-.8.7-.8h2.1c.3 0 .5.1.7.5l4.2 11.4"/><path d="m17.6 100.7c0 3.9-3.3 7.3-7.9 7.3-4.2 0-7.3-2.8-7.9-7.3-.3-2.8-.3-7.7 0-10.5.5-3.8 3.3-7.3 7.9-7.3 4.2 0 7.9 2.7 7.9 7.3v.5c0 .4-.3.7-.7.7h-1.9c-.4 0-.7-.3-.7-.7v-.5c0-2.1-1.8-3.9-4.6-4-2.3 0-4.2 1.4-4.6 4-.4 2.9-.4 7.6 0 10.5.3 2 1.8 4 4.6 4 2.3 0 4.6-1.4 4.6-4v-.5c0-.4.3-.7.7-.7h1.9c.4 0 .7.3.7.7v.5"/><path d="m20.6 96.5c.3-3.7 3-6.7 7.2-6.7 4.2 0 6.9 3 7.2 6.7.1 1.4.1 3.5 0 4.9-.3 3.7-3 6.7-7.2 6.7-4.2 0-6.9-3-7.2-6.7-.1-1.4-.1-3.5 0-4.9m3.1 4.9c.1 1.9 1.6 3.5 4 3.5 2.4 0 3.9-1.6 4-3.5.1-1.4.1-3.5 0-4.9-.1-1.9-1.6-3.5-4-3.5-2.4 0-3.9 1.6-4 3.5-.1 1.4-.1 3.4 0 4.9"/><path d="m52.6 107c0 .4-.3.7-.7.7h-1.8c-.4 0-.7-.3-.7-.7v-10.5c0-2.2-1.7-3.5-3.9-3.5-2.2 0-3.9 1.3-3.9 3.3v10.7c0 .4-.3.7-.7.7h-1.8c-.4 0-.7-.3-.7-.7v-16.1c0-.4.3-.7.7-.7h1.5c.2 0 .4.1.5.2.2.2.5.6.9.6 1 0 1.3-1.2 3.7-1.2 3.9 0 6.7 2.5 6.7 6.7v10.5z"/><path d="m67.3 101.4h1.8c.4 0 .7.3.7.7 0 3.4-2.8 6-6.8 6-4.2 0-6.7-3-7-6.7-.1-1.4-.1-3.5 0-4.9.3-3.7 2.8-6.7 7-6.7 3.9 0 6.8 2.6 6.8 6 0 .4-.2.7-.6.7h-1.9c-.3 0-.7-.2-.7-.6 0-1.6-1.4-2.9-3.6-2.9-2.4 0-3.7 1.6-3.9 3.5-.1 1.4-.1 3.5 0 4.9.1 1.9 1.4 3.5 3.9 3.5 2.1 0 3.6-1.3 3.6-2.9.1-.5.4-.6.7-.6"/><path d="m76.3 99.9c-.2 0-.4.1-.4.4 0 3.2 1.6 4.6 4.1 4.6 1.8 0 3.2-.9 3.6-2.2.1-.5.5-.6.8-.6h1.8c.3 0 .7.2.6.7-.4 3-3.2 5.3-6.8 5.3-4.2 0-6.9-3-7.2-6.7-.1-1.4-.1-3.5 0-4.9.3-3.7 3-6.7 7.2-6.7 4.2 0 7 2.6 7 7v2.4c0 .4-.3.7-.7.7h-10m-.3-3.1c0 .2.1.4.4.4h7.3c.2 0 .4-.1.4-.4 0-2.4-1.8-3.8-4-3.8-2.5 0-4.1 1.6-4.1 3.8"/><path d="m94.3 85.9c0 .3-.2.6-.6.6h-2.4c-.3 0-.6-.2-.6-.6v-2.4c0-.3.2-.6.6-.6h2.4c.3 0 .6.3.6.6v2.4m-.2 21.1c0 .4-.3.7-.7.7h-1.8c-.4 0-.7-.3-.7-.7v-16.1c0-.4.3-.7.7-.7h1.8c.4 0 .7.3.7.7v16.1"/><path d="m109.1 90.7c.1-.4.4-.5.7-.5h2.2c.6 0 .8.5.7.8l-6.2 16.2c-.1.4-.4.5-.7.5h-1.9c-.3 0-.5-.2-.7-.5l-6.3-16.2c-.1-.4.1-.8.7-.8h2.2c.3 0 .5.1.7.5l4.1 11.7c.1.2.4.2.5 0l4-11.7"/><path d="m117.3 99.9c-.2 0-.4.1-.4.4 0 3.2 1.6 4.6 4.1 4.6 1.8 0 3.2-.9 3.6-2.2.1-.5.5-.6.8-.6h1.8c.3 0 .7.2.6.7-.4 3-3.2 5.3-6.8 5.3-4.2 0-6.9-3-7.2-6.7-.1-1.4-.1-3.5 0-4.9.3-3.7 3-6.7 7.2-6.7 4.2 0 7 2.6 7 7v2.4c0 .4-.3.7-.7.7h-10m-.3-3.1c0 .2.1.4.4.4h7.3c.2 0 .4-.1.4-.4 0-2.4-1.8-3.8-4-3.8-2.5 0-4.1 1.6-4.1 3.8"/><path d="m412.1 100.7c0 3.9-3.3 7.3-7.9 7.3-4.2 0-7.3-2.8-7.9-7.3-.3-2.8-.3-7.7 0-10.5.5-3.8 3.3-7.3 7.9-7.3 4.2 0 7.9 2.7 7.9 7.3v.5c0 .4-.3.7-.7.7h-1.9c-.4 0-.7-.3-.7-.7v-.5c0-2.1-1.8-3.9-4.6-4-2.3 0-4.2 1.4-4.5 4-.4 2.9-.4 7.6 0 10.5.3 2 1.8 4 4.5 4 2.3 0 4.6-1.4 4.6-4v-.5c0-.4.3-.7.7-.7h1.9c.4 0 .7.3.7.7v.5"/><path d="m424 93.3c-2.8 0-5.2 1.4-5.2 5.3v8.4c0 .4-.3.7-.7.7h-1.8c-.4 0-.7-.3-.7-.7v-16.1c0-.4.3-.7.7-.7h1.2c.4 0 .6.2.7.7.1.5.1 1.2.6 1.2.8 0 1.4-1.9 5.2-1.9h.7c.4 0 .7.3.7.7v1.7c0 .4-.3.7-.7.7h-.7"/><path d="m429.7 99.9c-.2 0-.4.1-.4.4 0 3.2 1.6 4.6 4.1 4.6 1.8 0 3.2-.9 3.6-2.2.1-.5.5-.6.8-.6h1.8c.3 0 .7.2.6.7-.4 3-3.2 5.3-6.8 5.3-4.2 0-6.9-3-7.2-6.7-.1-1.4-.1-3.5 0-4.9.3-3.7 3-6.7 7.2-6.7 4.2 0 7 2.6 7 7v2.4c0 .4-.3.7-.7.7h-10m-.3-3.1c0 .2.1.4.3.4h7.3c.2 0 .4-.1.4-.4 0-2.4-1.8-3.8-4-3.8-2.4 0-4 1.6-4 3.8"/><path d="m447.3 94.8c0 .6-.5.6-.8.6h-1.6c-.5 0-.7-.3-.7-.7 0-3.3 3.4-4.9 6.3-4.9 4 0 6.4 1.7 6.4 5.6v11.6c0 .4-.3.7-.7.7h-1.2c-.2 0-.3-.1-.5-.2-.2-.3-.3-.7-.7-.7-.6 0-1.5 1.3-4.1 1.3-4.3 0-6.4-2.6-6.4-5.6 0-2.9 2.1-5.3 5.8-5.3h4.3c.2 0 .3-.1.3-.3v-1.3c0-1.9-1.3-2.8-3.3-2.8-1.1-.2-3.1.3-3.1 2m1.9 5.2c-1.8 0-2.6.9-2.6 2.4 0 1.7 1.1 2.7 3.1 2.7 3.2 0 4.4-1.3 4.4-3.7v-1.1c0-.2-.1-.4-.3-.4h-4.6z"/><path d="m470.1 90.3c.4 0 .7.3.7.7v1.8c0 .4-.3.7-.7.7h-4c-.2 0-.4.1-.4.3v8.2c0 1.5.7 2.6 2.8 2.6h1.9c.4 0 .7.3.7.7v1.6c0 .4-.3.7-.7.7h-1.9c-3.6 0-6-1.6-6-5.6v-8.2c0-.2-.1-.3-.3-.3h-2.5c-.4 0-.7-.3-.7-.7v-1.8c0-.4.3-.7.7-.7h2.5c.2 0 .3-.1.3-.4v-5.4c0-.4.3-.7.7-.7h1.8c.4 0 .7.3.7.7v5.5c0 .2.1.4.4.4h4z"/><path d="m476.6 99.9c-.2 0-.3.1-.3.4 0 3.2 1.6 4.6 4.1 4.6 1.8 0 3.2-.9 3.6-2.2.1-.5.5-.6.8-.6h1.8c.3 0 .7.2.6.7-.4 3-3.2 5.3-6.8 5.3-4.2 0-6.9-3-7.2-6.7-.1-1.4-.1-3.5 0-4.9.3-3.7 3-6.7 7.2-6.7 4.2 0 7 2.6 7 7v2.4c0 .4-.3.7-.7.7h-10.1m-.3-3.1c0 .2.1.4.3.4h7.3c.2 0 .3-.1.3-.4 0-2.4-1.8-3.8-4-3.8-2.3 0-3.9 1.6-3.9 3.8"/><g fill="none" stroke="#fc5d4b" stroke-width="4" stroke-miterlimit="10"><path d="m141.7 66.9c26-39.1 70.5-64.9 120.9-64.9 40.7 0 77.5 16.8 103.8 43.7"/><path d="m196.6 276.1c-46.9-24-79-72.8-79-129.1"/><path d="m407.4 138.8c.2 2.7.2 5.5.2 8.2 0 42.7-18.5 81.1-47.8 107.6-3.7 3.4-7.7 6.6-11.7 9.5"/></g><g fill="#fc5d4b"><path d="m111.1 150l6.5-11.2 6.5 11.2z"/><path d="m370.8 41l3 12.7-12.4-3.8z"/><path d="m352.7 268.8l-12.8 2.1 4.7-12.1z"/></g><path d="m346 155.2l9 .5-8.7-3.8.1-1.1 9.1-2.8-9.1-.5.1-1.3 10.7.6-.1 1.9-8.9 2.8 8.5 3.7-.1 1.9-10.7-.6.1-1.3"/><path d="m344.4 164.5c.1-.7.7-1 1.3-.9-.7-.6-1-1.6-.8-2.7.3-1.7 1.6-2.4 2.8-2.2 1 .2 2.1 1 1.9 3.1l-.3 2.3.6.1c.4.1.8.1 1.2-.2.3-.2.5-.6.6-1.2.1-.7 0-1.2-.2-1.5-.2-.3-.5-.5-.8-.5l.2-1.2c.7.1 1.1.5 1.5.9.4.6.5 1.5.4 2.5-.3 1.5-1 2.2-1.9 2.4-.4.1-.8.1-1.2 0l-3.6-.7c-.4-.1-.5.1-.6.3 0 .1 0 .3 0 .3l-.9-.2c-.3 0-.3-.3-.2-.6m3.9-.4l.2-2c.1-.8-.1-1.7-1.1-1.9-.7-.1-1.4.2-1.6 1.3-.1.6 0 1.2.3 1.7.4.5 1 .8 1.6 1l.6-.1"/><path d="m349.2 172.1c.2-.6 0-1.1-.2-1.6-.4-.8-1.4-1.1-2.2-1.3l-3.3-.9.3-1.2 7.4 2-.3 1.1-1.3-.2c.8.6 1 1.6.8 2.6-.1.2-.1.4-.2.6l-1.2-.3c.1-.3.1-.5.2-.8"/><path d="m340.6 177.4l4.3-1-1-1.9-1.9-.7.4-1.2 10.3 3.7-.4 1.2-6.7-2.4 2.5 4.6-.5 1.5-1.9-3.6-5.4 1.3.3-1.5"/><path d="m340.1 186.9l2.3-4.9c-.6-.3-1.4-.4-2.1-.1-.5.2-.8.5-1.1 1-.3.5-.3 1.1-.2 1.5.1.3.2.5.6.8l-.5 1.1c-.6-.4-1.1-1.1-1.2-1.9-.1-.6 0-1.4.3-2 .5-1 1.2-1.6 2.1-1.8.9-.3 2-.1 3 .3.8.4 1.5.9 2 1.6.6.9.8 2.1.2 3.3-.4.9-1.1 1.4-1.9 1.7-.9.3-1.9.2-2.8-.3l-.7-.3m3.1-.5c.5-.1 1-.5 1.3-1.1.6-1.3-.1-2.4-1.1-2.9l-1.7 3.7c.4.3 1 .4 1.5.3"/><path d="m334.7 189.2c.8-1.4 2-1.3 2.8-.8l4 2.3.7-1.3 1 .5-.7 1.3 1.7 1-.4 1.3-2-1.1-1.1 2-1-.5 1.1-2-3.8-2.2c-.6-.4-1.1-.2-1.4.4-.3.5-.5 1.2-.5 1.2l-1-.5c.2-.5.3-1 .6-1.6"/><path d="m333.1 192l6.4 4.2-.7 1.1-6.4-4.2.7-1.1m8 5l1.3.8-.8 1.3-1.3-.8.8-1.3"/><path d="m328 199.1l3.9 3c.9.7 1.7.7 2.5-.2.5-.6.4-1.4.1-2-.3-.5-.9-1-1.4-1.4l-2.8-2.2.8-1 6.1 4.7-.7.9-1-.6c.5.8.2 2-.3 2.7-1.1 1.4-2.4 1.5-3.8.4l-4-3.1.6-1.2"/><path d="m319.7 204.4c0-1 .7-2.1 1.5-2.9.7-.7 1.6-1.5 2.6-1.5.4 0 .9.1 1.4.5.6.5.7 1.3.5 2 .5-.2 1.1-.2 1.5.2.5.5.6 1.1.4 1.8.7-.1 1.5.2 2 .7.6.6.8 1.2.9 1.8 0 .8-.2 1.5-.9 2.2-.5.5-1 .8-1.5 1 .3.7.2 1.4-.3 1.9-.1.1-.2.2-.3.3l-.8-.7c.1 0 .1-.1.2-.2.3-.4.4-.8.1-1.2-.5 0-1-.3-1.5-.7-.5-.5-.8-1.1-.9-1.8-.1-.7.2-1.5.9-2.3.4-.4.6-.6 1-.8.1-.3.2-.7-.1-.9-.5-.5-1 0-1.3.3-.4.4-1 1.1-1 1.1-.6.7-1.4 1.3-2.3 1.3-.5 0-1-.1-1.5-.6-.4-.4-.6-1-.6-1.5m4-.3l1-1c.2-.5.2-1.1-.2-1.5-.3-.2-.5-.3-.8-.3-.7 0-1.3.6-1.8 1.1-.4.5-1.1 1.2-1 1.9 0 .3.1.5.4.8.9.8 1.8-.3 2.4-1m5.1 4.5c.7-.8.7-1.8 0-2.4s-1.7-.7-2.4.1c-.7.8-.7 1.8.1 2.4s1.5.7 2.3-.1"/><g fill="none" stroke="#000" stroke-width="4" stroke-miterlimit="10"><path d="m177.5 165.1c-1.2-5.8-1.9-11.9-1.9-18.1 0-30.7 15.8-57.7 39.7-73.3"/><path d="m313.4 218.6c-14.2 10-31.5 15.9-50.2 15.9-27 0-51.2-12.3-67.2-31.5"/><path d="m309.2 72.6c21 13 36.1 34.8 40.3 60.1"/></g><path d="m206.3 72.4l12.9-1.3-5.3 11.8z"/><path d="m354.8 124.6l-4 12.3-8.7-9.7z"/><path d="m195.2 211.8l-2.2-12.7 12.2 4.5z"/></svg>