<svg width="984" height="624" viewBox="0 0 984 624" xmlns="http://www.w3.org/2000/svg" xmlns:xlink="http://www.w3.org/1999/xlink"><defs><path d="m5.4 20.4h34.2c-1.5-8.8-8.7-15.3-17-15.3-8.4 0-15.5 6.3-17.2 15.3m-4.7 3.7c0-13.1 9.8-23.6 22-23.6 11.6 0 20.8 9.6 21.8 21.9v.4c0 1.2-1 2.1-2.2 2.1h-37.1c.5 10.3 8.2 18.1 17.5 18.1 6 0 11.5-3.3 14.6-8.6.6-1.2 2-1.3 3-.8 1 .8 1.4 2.1.7 3.3-3.9 6.4-10.6 10.7-18.3 10.7-12.2-.1-22-10.6-22-23.5" id="0"/><path id="1" d="m20.2.5c-10.7 0-19.3 8.7-19.3 19.2v25.6c0 1.3 1.1 2.3 2.3 2.3 1.3 0 2.3-1 2.3-2.3v-25.6c0-8 6.5-14.5 14.6-14.5 8.1 0 14.6 6.5 14.6 14.5v25.6c0 1.3 1.1 2.3 2.3 2.3 1.3 0 2.3-1 2.3-2.3v-25.6c.2-10.6-8.5-19.2-19.1-19.2"/><path id="2" d="m19.5.5c-10.7 0-19.3 8.7-19.3 19.2v25.6c0 1.3 1.1 2.3 2.3 2.3 1.3 0 2.3-1 2.3-2.3v-25.6c0-8 6.5-14.5 14.6-14.5 8.1 0 14.6 6.5 14.6 14.5v25.6c0 1.3 1.1 2.3 2.3 2.3 1.3 0 2.3-1 2.3-2.3v-25.6c.2-10.6-8.4-19.2-19.1-19.2"/><path id="3" d="m.2 2.8c0-1.3 1.1-2.3 2.4-2.3 1.4 0 2.5 1 2.5 2.3v42.5c0 1.2-1.1 2.3-2.5 2.3-1.3 0-2.4-1.1-2.4-2.3v-42.5"/><path id="4" d="m.1 23.9c0-13.1 11.1-23.4 24.9-23.4 5.7 0 11.2 1.9 15.4 5.2 1 .7 1.2 2.1.3 3.2-.8.9-2.2 1.2-3.3.4-3.5-2.7-7.8-4.2-12.4-4.2-11.3 0-20.1 8.6-20.1 18.9 0 10.6 8.9 19 20.1 19 4.6 0 9-1.5 12.4-4.1 1.1-.8 2.5-.5 3.3.4.9 1.1.7 2.5-.5 3.4-4 3.1-9.5 5-15.2 5-13.9-.2-24.9-10.5-24.9-23.8"/><path id="5" d="m5.1 20.3c1.6-8.7 8.8-15.3 17.2-15.3 8.4 0 15.6 6.6 17.2 15.3h4.6c-1.7-11.1-10.7-19.8-21.9-19.8-11 0-20.2 8.8-21.9 19.8h4.8"/><path id="6" d="m39.6.7c-1.5 8.7-8.8 15.3-17.2 15.3-8.5 0-15.7-6.6-17.2-15.3h-4.6c1.6 11 10.8 19.8 21.9 19.8 11.2 0 20.3-8.8 21.9-19.8h-4.8"/><mask id="C" fill="#fff"><use xlink:href="#5"/></mask><mask id="B" fill="#fff"><use xlink:href="#4"/></mask><mask id="D" fill="#fff"><use xlink:href="#6"/></mask><mask id="A" fill="#fff"><use xlink:href="#3"/></mask><mask id="8" fill="#fff"><use xlink:href="#1"/></mask><mask id="7" fill="#fff"><use xlink:href="#0"/></mask><mask id="9" fill="#fff"><use xlink:href="#2"/></mask></defs><g fill="none" fill-rule="evenodd"><g transform="translate(185 28)" fill="#fc5d4b"><path d="m78.7 163c3.3 0 4.9 1.2 6.7 2.4.9.7 1.9 1.4 3.1 1.9h.1c.8.3 1.5.5 2.1.5 2 0 2.9-1.4 2.9-3.8v-34c0-1.1-.5-2-1.6-2h-34c-1.3 0-2.2-.4-2.6-1-.5-.8-.5-2 .1-3.4v-.1c.5-1.1 1.2-2.1 1.8-3 1.3-1.8 2.6-3.6 2.6-7.1 0-3.7-1.3-6.8-3.9-9-2.2-1.9-5.2-3-8.4-3-3.2 0-6.2 1.1-8.4 3-2.5 2.2-3.8 5.3-3.8 9 0 3.4 1.3 5.2 2.5 7 .7 1 1.4 2 1.9 3.2.6 1.4.6 2.6.1 3.4-.5.7-1.3 1-2.6 1h-34.3c-1.1 0-2.3.8-2.3 2v34.1c0 1.2.4 2.2 1 2.8.9 1.1 2.7 1.2 4.7.4h.1c1.2-.5 2.2-1.2 3.2-1.9 1.8-1.2 3.4-2.4 6.7-2.4 5.4 0 11.2 3.6 11.2 11.5 0 5.5-3.5 11.4-11.2 11.4-3.1 0-4.8-1.2-6.5-2.4-1-.7-2-1.4-3.4-2-.8-.3-1.7-.5-2.4-.5-2 0-3.3 1.4-3.3 3.8v34.1c0 1.1 1.2 2 2.3 2h34.2c1.2 0 2.1.4 2.6 1 .5.7.5 2-.1 3.4-.5 1.3-1.2 2.3-1.9 3.2-1.2 1.8-2.5 3.6-2.5 7 0 3.7 1.3 6.8 3.8 9 2.2 1.9 5.2 3 8.4 3 6.1 0 12.3-4.1 12.3-12 0-3.5-1.3-5.3-2.6-7.1-.6-.9-1.3-1.8-1.8-3v-.1c-.6-1.4-.6-2.7-.1-3.4.4-.7 1.3-1.1 2.5-1.1h34.2c1.1 0 1.6-.8 1.6-2v-34.1c0-2.4-1-3.8-3-3.8-.7 0-1.3.2-2.2.5-1.3.5-2.3 1.3-3.3 2-1.8 1.2-3.4 2.4-6.5 2.4-7.7 0-11.2-5.9-11.2-11.4 0-7.8 5.8-11.4 11.2-11.4"/><path d="m609.7 256c3.3 0 4.9 1.2 6.7 2.4.9.7 1.9 1.4 3.1 1.9h.1c.8.3 1.5.5 2.1.5 2 0 2.9-1.4 2.9-3.8v-34c0-1.1-.5-2-1.6-2h-34c-1.3 0-2.2-.4-2.6-1-.5-.8-.5-2 .1-3.4v-.1c.5-1.1 1.2-2.1 1.8-3 1.3-1.8 2.6-3.6 2.6-7.1 0-3.7-1.3-6.8-3.9-9-2.2-1.9-5.2-3-8.4-3-3.2 0-6.2 1.1-8.4 3-2.5 2.2-3.8 5.3-3.8 9 0 3.4 1.3 5.2 2.5 7 .7 1 1.4 2 1.9 3.2.6 1.4.6 2.6.1 3.4-.5.7-1.3 1-2.6 1h-34.3c-1.1 0-2.3.8-2.3 2v34.1c0 1.2.4 2.2 1 2.8.9 1.1 2.7 1.2 4.7.4h.1c1.2-.5 2.2-1.2 3.2-1.9 1.8-1.2 3.4-2.4 6.7-2.4 5.4 0 11.2 3.6 11.2 11.5 0 5.5-3.5 11.4-11.2 11.4-3.1 0-4.8-1.2-6.5-2.4-1-.7-2-1.4-3.4-2-.8-.3-1.7-.5-2.4-.5-2 0-3.3 1.4-3.3 3.8v34.1c0 1.1 1.2 2 2.3 2h34.2c1.2 0 2.1.4 2.6 1 .5.7.5 2-.1 3.4-.5 1.3-1.2 2.3-1.9 3.2-1.2 1.8-2.5 3.6-2.5 7 0 3.7 1.3 6.8 3.8 9 2.2 1.9 5.2 3 8.4 3 6.1 0 12.3-4.1 12.3-12 0-3.5-1.3-5.3-2.6-7.1-.6-.9-1.3-1.8-1.8-3v-.1c-.6-1.4-.6-2.7-.1-3.4.4-.7 1.3-1.1 2.5-1.1h34.2c1.1 0 1.6-.8 1.6-2v-34.1c0-2.4-1-3.8-3-3.8-.7 0-1.3.2-2.2.5-1.3.5-2.3 1.3-3.3 2-1.8 1.2-3.4 2.4-6.5 2.4-7.7 0-11.2-5.9-11.2-11.4 0-7.8 5.8-11.4 11.2-11.4"/><path d="m440.7 16c0-3.3 1.2-4.9 2.4-6.7.7-.9 1.4-1.9 1.9-3.1v-.1c.3-.8.5-1.4.5-2.1 0-2-1.4-2.9-3.8-2.9h-34.1c-1.1 0-1.9.5-1.9 1.6v34.1c0 1.3-.4 2.2-1.1 2.6-.8.5-2 .5-3.4-.1h-.1c-1.1-.5-2.1-1.2-3-1.8-1.8-1.3-3.6-2.6-7.1-2.6-3.7 0-6.8 1.3-9 3.9-1.9 2.2-3 5.2-3 8.4 0 3.2 1.1 6.2 3 8.4 2.2 2.5 5.3 3.8 9 3.8 3.4 0 5.2-1.3 7-2.5 1-.7 2-1.4 3.2-1.9 1.4-.6 2.6-.6 3.4-.1.7.5 1.1 1.3 1.1 2.6v34.1c0 1.1.8 2.3 1.9 2.3h34.1c1.2 0 2.2-.4 2.8-1 1.1-.9 1.2-2.7.4-4.7v-.1c-.5-1.2-1.2-2.2-1.9-3.2-1.2-1.8-2.4-3.4-2.4-6.7 0-5.4 3.6-11.2 11.5-11.2 5.5 0 11.4 3.5 11.4 11.2 0 3.1-1.2 4.8-2.4 6.5-.7 1-1.4 2-2 3.4-.3.8-.5 1.7-.5 2.4 0 2 1.4 3.3 3.8 3.3h34.1c1.1 0 2-1.2 2-2.3v-34.2c0-1.2.4-2.1 1-2.6.7-.5 1.9-.5 3.3.1 1.3.5 2.3 1.2 3.2 1.9 1.8 1.2 3.6 2.5 7 2.5 3.7 0 6.8-1.3 9-3.8 1.9-2.2 3-5.2 3-8.4 0-6.1-4.1-12.3-12-12.3-3.5 0-5.3 1.3-7.1 2.6-.9.6-1.8 1.3-3 1.8h-.1c-1.4.6-2.7.6-3.4.1-.7-.4-1-1.3-1-2.5v-34.2c0-1.1-.9-1.6-2-1.6h-34.1c-2.4 0-3.8.9-3.8 2.9 0 .7.2 1.3.5 2.2.5 1.3 1.3 2.3 2 3.3 1.2 1.8 2.4 3.4 2.4 6.5 0 7.7-5.9 11.2-11.4 11.2-7.7.2-11.3-5.6-11.3-11"/><path d="m348.7 362c0-3.3 1.2-4.9 2.4-6.7.7-.9 1.4-1.9 1.9-3.1v-.1c.3-.8.5-1.4.5-2.1 0-2-1.4-2.9-3.8-2.9h-34.1c-1.1 0-1.9.5-1.9 1.6v34.1c0 1.3-.4 2.2-1.1 2.6-.8.5-2 .5-3.4-.1h-.1c-1.1-.5-2.1-1.2-3-1.8-1.8-1.3-3.6-2.6-7.1-2.6-3.7 0-6.8 1.3-9 3.9-1.9 2.2-3 5.2-3 8.4 0 3.2 1.1 6.2 3 8.4 2.2 2.5 5.3 3.8 9 3.8 3.4 0 5.2-1.3 7-2.5 1-.7 2-1.4 3.2-1.9 1.4-.6 2.6-.6 3.4-.1.7.5 1.1 1.3 1.1 2.6v34.1c0 1.1.8 2.3 1.9 2.3h34.1c1.2 0 2.2-.4 2.8-1 1.1-.9 1.2-2.7.4-4.7v-.1c-.5-1.2-1.2-2.2-1.9-3.2-1.2-1.8-2.4-3.4-2.4-6.7 0-5.4 3.6-11.2 11.5-11.2 5.5 0 11.4 3.5 11.4 11.2 0 3.1-1.2 4.8-2.4 6.5-.7 1-1.4 2-2 3.4-.3.8-.5 1.7-.5 2.4 0 2 1.4 3.3 3.8 3.3h34.1c1.1 0 2-1.2 2-2.3v-34.2c0-1.2.4-2.1 1-2.6.7-.5 1.9-.5 3.3.1 1.3.5 2.3 1.2 3.2 1.9 1.8 1.2 3.6 2.5 7 2.5 3.7 0 6.8-1.3 9-3.8 1.9-2.2 3-5.2 3-8.4 0-6.1-4.1-12.3-12-12.3-3.5 0-5.3 1.3-7.1 2.6-.9.6-1.8 1.3-3 1.8h-.1c-1.4.6-2.7.6-3.4.1-.7-.4-1-1.3-1-2.5v-34.2c0-1.1-.9-1.6-2-1.6h-34.1c-2.4 0-3.8.9-3.8 2.9 0 .7.2 1.3.5 2.2.5 1.3 1.3 2.3 2 3.3 1.2 1.8 2.4 3.4 2.4 6.5 0 7.7-5.9 11.2-11.4 11.2-7.7.2-11.3-5.6-11.3-11"/></g><g fill-opacity=".99" fill="#f7f7f7"><path d="m813.8 62.6c3.3 0 4.9 1.2 6.7 2.4.9.7 1.9 1.4 3.1 1.9h.1c.8.3 1.5.5 2.1.5 2 0 2.9-1.4 2.9-3.8v-34.1c0-1.1-.5-2-1.6-2h-34.1c-1.3 0-2.2-.4-2.6-1-.5-.8-.5-2 .1-3.4v-.1c.5-1.1 1.2-2.1 1.8-3 1.3-1.8 2.6-3.6 2.6-7.1 0-3.7-1.3-6.8-3.9-9-2.2-1.9-5.2-3-8.4-3-3.2 0-6.2 1.1-8.4 3-2.5 2.2-3.8 5.3-3.8 9 0 3.4 1.3 5.2 2.5 7 .7 1 1.4 2 1.9 3.2.6 1.4.6 2.6.1 3.4-.5.7-1.3 1-2.6 1h-34.1c-1.1 0-2.3.8-2.3 2v34.1c0 1.2.4 2.2 1 2.8.9 1.1 2.7 1.2 4.7.4h.1c1.2-.5 2.2-1.2 3.2-1.9 1.8-1.2 3.4-2.4 6.7-2.4 5.4 0 11.2 3.6 11.2 11.5 0 5.5-3.5 11.4-11.2 11.4-3.1 0-4.8-1.2-6.5-2.4-1-.7-2-1.4-3.4-2-.8-.3-1.7-.5-2.4-.5-2 0-3.3 1.4-3.3 3.8v34.1c0 1.1 1.2 2 2.3 2h34.2c1.2 0 2.1.4 2.6 1 .5.7.5 2-.1 3.4-.5 1.3-1.2 2.3-1.9 3.2-1.2 1.8-2.5 3.6-2.5 7 0 3.7 1.3 6.8 3.8 9 2.2 1.9 5.2 3 8.4 3 6.1 0 12.3-4.1 12.3-12 0-3.5-1.3-5.3-2.6-7.1-.6-.9-1.3-1.8-1.8-3v-.1c-.6-1.4-.6-2.7-.1-3.4.4-.7 1.3-1.1 2.5-1.1h34.2c1.1 0 1.6-.8 1.6-2v-34.1c0-2.4-1-3.8-3-3.8-.7 0-1.3.2-2.2.5-1.3.5-2.3 1.3-3.3 2-1.8 1.2-3.4 2.4-6.5 2.4-7.7 0-11.2-5.9-11.2-11.4-.1-7.7 5.7-11.3 11.1-11.3"/><path d="m576.7 538.8c3.3 0 4.9 1.2 6.7 2.4.9.7 1.9 1.4 3.1 1.9h.1c.8.3 1.5.5 2.1.5 2 0 2.9-1.4 2.9-3.8v-34.1c0-1.1-.5-2-1.6-2h-34c-1.3 0-2.2-.4-2.6-1-.5-.8-.5-2 .1-3.4v-.1c.5-1.1 1.2-2.1 1.8-3 1.3-1.8 2.6-3.6 2.6-7.1 0-3.7-1.3-6.8-3.9-9-2.2-1.9-5.2-3-8.4-3-3.2 0-6.2 1.1-8.4 3-2.5 2.2-3.8 5.3-3.8 9 0 3.4 1.3 5.2 2.5 7 .7 1 1.4 2 1.9 3.2.6 1.4.6 2.6.1 3.4-.5.7-1.3 1-2.6 1h-34.3c-1.1 0-2.3.8-2.3 2v34.1c0 1.2.4 2.2 1 2.8.9 1.1 2.7 1.2 4.7.4h.1c1.2-.5 2.2-1.2 3.2-1.9 1.8-1.2 3.4-2.4 6.7-2.4 5.4 0 11.2 3.6 11.2 11.5 0 5.5-3.5 11.4-11.2 11.4-3.1 0-4.8-1.2-6.5-2.4-1-.7-2-1.4-3.4-2-.8-.3-1.7-.5-2.4-.5-2 0-3.3 1.4-3.3 3.8v34.1c0 1.1 1.2 2 2.3 2h34.2c1.2 0 2.1.4 2.6 1 .5.7.5 2-.1 3.4-.5 1.3-1.2 2.3-1.9 3.2-1.2 1.8-2.5 3.6-2.5 7 0 3.7 1.3 6.8 3.8 9 2.2 1.9 5.2 3 8.4 3 6.1 0 12.3-4.1 12.3-12 0-3.5-1.3-5.3-2.6-7.1-.6-.9-1.3-1.8-1.8-3v-.1c-.6-1.4-.6-2.7-.1-3.4.4-.7 1.3-1.1 2.5-1.1h34.2c1.1 0 1.6-.8 1.6-2v-34.1c0-2.4-1-3.8-3-3.8-.7 0-1.3.2-2.2.5-1.3.5-2.3 1.3-3.3 2-1.8 1.2-3.4 2.4-6.5 2.4-7.7 0-11.2-5.9-11.2-11.4 0-7.7 5.8-11.3 11.2-11.3"/><path d="m104.7 330.5c3.3 0 4.9 1.2 6.7 2.4.9.7 1.9 1.4 3.1 1.9h.1c.8.3 1.5.5 2.1.5 2 0 2.9-1.4 2.9-3.8v-34.1c0-1.1-.5-2-1.6-2h-34c-1.3 0-2.2-.4-2.6-1-.5-.8-.5-2 .1-3.4v-.1c.5-1.1 1.2-2.1 1.8-3 1.3-1.8 2.6-3.6 2.6-7.1 0-3.7-1.3-6.8-3.9-9-2.2-1.9-5.2-3-8.4-3-3.2 0-6.2 1.1-8.4 3-2.5 2.2-3.8 5.3-3.8 9 0 3.4 1.3 5.2 2.5 7 .7 1 1.4 2 1.9 3.2.6 1.4.6 2.6.1 3.4-.5.7-1.3 1-2.6 1h-34.3c-1.1 0-2.3.8-2.3 2v34.1c0 1.2.4 2.2 1 2.8.9 1.1 2.7 1.2 4.7.4h.1c1.2-.5 2.2-1.2 3.2-1.9 1.8-1.2 3.4-2.4 6.7-2.4 5.4 0 11.2 3.6 11.2 11.5 0 5.5-3.5 11.4-11.2 11.4-3.1 0-4.8-1.2-6.5-2.4-1-.7-2-1.4-3.4-2-.8-.3-1.7-.5-2.4-.5-2 0-3.3 1.4-3.3 3.8v34.1c0 1.1 1.2 2 2.3 2h34.2c1.2 0 2.1.4 2.6 1 .5.7.5 2-.1 3.4-.5 1.3-1.2 2.3-1.9 3.2-1.2 1.8-2.5 3.6-2.5 7 0 3.7 1.3 6.8 3.8 9 2.2 1.9 5.2 3 8.4 3 6.1 0 12.3-4.1 12.3-12 0-3.5-1.3-5.3-2.6-7.1-.6-.9-1.3-1.8-1.8-3v-.1c-.6-1.4-.6-2.7-.1-3.4.4-.7 1.3-1.1 2.5-1.1h34.2c1.1 0 1.6-.8 1.6-2v-34.1c0-2.4-1-3.8-3-3.8-.7 0-1.3.2-2.2.5-1.3.5-2.3 1.3-3.3 2-1.8 1.2-3.4 2.4-6.5 2.4-7.7 0-11.2-5.9-11.2-11.4 0-7.7 5.8-11.3 11.2-11.3"/><path d="m243.7 88.4c0 3.3-1.2 4.9-2.4 6.7-.7.9-1.4 1.9-1.9 3.1v.1c-.3.8-.5 1.5-.5 2.1 0 2 1.4 2.9 3.8 2.9h34.1c1.1 0 2-.5 2-1.6v-34.1c0-1.3.4-2.2 1-2.6.8-.5 2-.5 3.4.1h.1c1.1.5 2.1 1.2 3 1.8 1.8 1.3 3.6 2.6 7.1 2.6 3.7 0 6.8-1.3 9-3.9 1.9-2.2 3-5.2 3-8.4 0-3.2-1.1-6.2-3-8.4-2.2-2.5-5.3-3.8-9-3.8-3.4 0-5.2 1.3-7 2.5-1 .7-2 1.4-3.2 1.9-1.4.6-2.6.6-3.4.1-.7-.5-1-1.3-1-2.6v-34.1c0-1.1-.8-2.3-2-2.3h-34.1c-1.2 0-2.2.4-2.8 1-1.1.9-1.2 2.7-.4 4.7v.1c.5 1.2 1.2 2.2 1.9 3.2 1.2 1.8 2.4 3.4 2.4 6.7 0 5.4-3.6 11.2-11.5 11.2-5.5 0-11.4-3.5-11.4-11.2 0-3.1 1.2-4.8 2.4-6.5.7-1 1.4-2 2-3.4.3-.8.5-1.7.5-2.4 0-2-1.4-3.3-3.8-3.3h-34.1c-1.1 0-2 1.2-2 2.3v34.2c0 1.2-.4 2.1-1 2.6-.7.5-2 .5-3.4-.1-1.3-.5-2.3-1.2-3.2-1.9-1.8-1.2-3.6-2.5-7-2.5-3.7 0-6.8 1.3-9 3.8-1.9 2.2-3 5.2-3 8.4 0 6.1 4.1 12.3 12 12.3 3.5 0 5.3-1.3 7.1-2.6.9-.6 1.8-1.3 3-1.8h.1c1.4-.6 2.7-.6 3.4-.1.7.4 1.1 1.3 1.1 2.5v34.2c0 1.1.8 1.6 2 1.6h34.1c2.4 0 3.8-1 3.8-3 0-.7-.2-1.3-.5-2.2-.5-1.3-1.3-2.3-2-3.3-1.2-1.8-2.4-3.4-2.4-6.5 0-7.7 5.9-11.2 11.4-11.2 7.7-.2 11.3 5.7 11.3 11.1"/><path d="m84.7 231c0 3.3-1.2 4.9-2.4 6.7-.7.9-1.4 1.9-1.9 3.1v.1c-.3.8-.5 1.5-.5 2.1 0 2 1.4 2.9 3.8 2.9h34.1c1.1 0 2-.5 2-1.6v-34.1c0-1.3.4-2.2 1-2.6.8-.5 2-.5 3.4.1h.1c1.1.5 2.1 1.2 3 1.8 1.8 1.3 3.6 2.6 7.1 2.6 3.7 0 6.8-1.3 9-3.9 1.9-2.2 3-5.2 3-8.4 0-3.2-1.1-6.2-3-8.4-2.2-2.5-5.3-3.8-9-3.8-3.4 0-5.2 1.3-7 2.5-1 .7-2 1.4-3.2 1.9-1.4.6-2.6.6-3.4.1-.7-.5-1-1.3-1-2.6v-34.1c0-1.1-.8-2.3-2-2.3h-34.1c-1.2 0-2.2.4-2.8 1-1.1.9-1.2 2.7-.4 4.7v.1c.5 1.2 1.2 2.2 1.9 3.2 1.2 1.8 2.4 3.4 2.4 6.7 0 5.4-3.6 11.2-11.5 11.2-5.5 0-11.4-3.5-11.4-11.2 0-3.1 1.2-4.8 2.4-6.5.7-1 1.4-2 2-3.4.3-.8.5-1.7.5-2.4 0-2-1.4-3.3-3.8-3.3h-34.1c-1.1 0-2 1.2-2 2.3v34.2c0 1.2-.4 2.1-1 2.6-.7.5-2 .5-3.4-.1-1.3-.5-2.3-1.2-3.2-1.9-1.8-1.2-3.6-2.5-7-2.5-3.7 0-6.8 1.3-9 3.8-1.9 2.2-3 5.2-3 8.4 0 6.1 4.1 12.3 12 12.3 3.5 0 5.3-1.3 7.1-2.6.9-.6 1.8-1.3 3-1.8h.1c1.4-.6 2.7-.6 3.4-.1.7.4 1.1 1.3 1.1 2.5v34.2c0 1.1.8 1.6 2 1.6h34.1c2.4 0 3.8-1 3.8-3 0-.7-.2-1.3-.5-2.2-.5-1.3-1.3-2.3-2-3.3-1.2-1.8-2.4-3.4-2.4-6.5 0-7.7 5.9-11.2 11.4-11.2 7.7-.1 11.3 5.7 11.3 11.1"/><path d="m398.5 518.7c0-3.3 1.2-4.9 2.4-6.7.7-.9 1.4-1.9 1.9-3.1v-.1c.3-.8.5-1.4.5-2.1 0-2-1.4-2.9-3.8-2.9h-34.1c-1.1 0-1.9.5-1.9 1.6v34.1c0 1.3-.4 2.2-1.1 2.6-.8.5-2 .5-3.4-.1h-.1c-1.1-.5-2.1-1.2-3-1.8-1.8-1.3-3.6-2.6-7.1-2.6-3.7 0-6.8 1.3-9 3.9-1.9 2.2-3 5.2-3 8.4 0 3.2 1.1 6.2 3 8.4 2.2 2.5 5.3 3.8 9 3.8 3.4 0 5.2-1.3 7-2.5 1-.7 2-1.4 3.2-1.9 1.4-.6 2.6-.6 3.4-.1.7.5 1.1 1.3 1.1 2.6v34.1c0 1.1.8 2.3 1.9 2.3h34.1c1.2 0 2.2-.4 2.8-1 1.1-.9 1.2-2.7.4-4.7v-.1c-.5-1.2-1.2-2.2-1.9-3.2-1.2-1.8-2.4-3.4-2.4-6.7 0-5.4 3.6-11.2 11.5-11.2 5.5 0 11.4 3.5 11.4 11.2 0 3.1-1.2 4.8-2.4 6.5-.7 1-1.4 2-2 3.4-.3.8-.5 1.7-.5 2.4 0 2 1.4 3.3 3.8 3.3h34.1c1.1 0 2-1.2 2-2.3v-34.2c0-1.2.4-2.1 1-2.6.7-.5 1.9-.5 3.3.1 1.3.5 2.3 1.2 3.2 1.9 1.8 1.2 3.6 2.5 7 2.5 3.7 0 6.8-1.3 9-3.8 1.9-2.2 3-5.2 3-8.4 0-6.1-4.1-12.3-12-12.3-3.5 0-5.3 1.3-7.1 2.6-.9.6-1.8 1.3-3 1.8h-.1c-1.4.6-2.7.6-3.4.1-.7-.4-1-1.3-1-2.5v-34.2c0-1.1-.9-1.6-2-1.6h-34.1c-2.4 0-3.8.9-3.8 2.9 0 .7.2 1.3.5 2.2.5 1.3 1.3 2.3 2 3.3 1.2 1.8 2.4 3.4 2.4 6.5 0 7.7-5.9 11.2-11.4 11.2-7.7.3-11.3-5.6-11.3-11"/><path d="m899.7 264c0-3.3 1.2-4.9 2.4-6.7.7-.9 1.4-1.9 1.9-3.1v-.1c.3-.8.5-1.4.5-2.1 0-2-1.4-2.9-3.8-2.9h-34.1c-1.1 0-1.9.5-1.9 1.6v34.1c0 1.3-.4 2.2-1.1 2.6-.8.5-2 .5-3.4-.1h-.1c-1.1-.5-2.1-1.2-3-1.8-1.8-1.3-3.6-2.6-7.1-2.6-3.7 0-6.8 1.3-9 3.9-1.9 2.2-3 5.2-3 8.4 0 3.2 1.1 6.2 3 8.4 2.2 2.5 5.3 3.8 9 3.8 3.4 0 5.2-1.3 7-2.5 1-.7 2-1.4 3.2-1.9 1.4-.6 2.6-.6 3.4-.1.7.5 1.1 1.3 1.1 2.6v34.1c0 1.1.8 2.3 1.9 2.3h34.1c1.2 0 2.2-.4 2.8-1 1.1-.9 1.2-2.7.4-4.7v-.1c-.5-1.2-1.2-2.2-1.9-3.2-1.2-1.8-2.4-3.4-2.4-6.7 0-5.4 3.6-11.2 11.5-11.2 5.5 0 11.4 3.5 11.4 11.2 0 3.1-1.2 4.8-2.4 6.5-.7 1-1.4 2-2 3.4-.3.8-.5 1.7-.5 2.4 0 2 1.4 3.3 3.8 3.3h34.1c1.1 0 2-1.2 2-2.3v-34.2c0-1.2.4-2.1 1-2.6.7-.5 1.9-.5 3.3.1 1.3.5 2.3 1.2 3.2 1.9 1.8 1.2 3.6 2.5 7 2.5 3.7 0 6.8-1.3 9-3.8 1.9-2.2 3-5.2 3-8.4 0-6.1-4.1-12.3-12-12.3-3.5 0-5.3 1.3-7.1 2.6-.9.6-1.8 1.3-3 1.8h-.1c-1.4.6-2.7.6-3.4.1-.7-.4-1-1.3-1-2.5v-34.2c0-1.1-.9-1.6-2-1.6h-34.1c-2.4 0-3.8.9-3.8 2.9 0 .7.2 1.3.5 2.2.5 1.3 1.3 2.3 2 3.3 1.2 1.8 2.4 3.4 2.4 6.5 0 7.7-5.9 11.2-11.4 11.2-7.7.2-11.3-5.6-11.3-11"/></g><g transform="translate(288 130)"><path d="m409.7 153c-4 0-5.9 2.9-9.6 4.4-2.8 1.1-4.4.4-4.4-2.9v-34.1c0-.8-.5-1.4-1.3-1.6.7-.2 1.3-.8 1.3-1.6v-34.1c0-3.3-2.2-4-4.9-2.9-3.7 1.5-5.1 4.4-10.1 4.4-15 0-15-23.7 0-23.7 5 0 6.4 2.8 9.9 4.3h.1c2.8 1.1 5 .4 5-2.9v-34.1c0-.9-.8-2.1-1.7-2.1h-34.1c-3.3 0-4-1.9-2.9-4.7v.3c1.5-3.5 4.3-5.6 4.3-9.6 0-16-23.7-16-23.7 0 0 4 2.9 5.9 4.4 9.6 1.1 2.8.4 4.4-2.9 4.4h-34.1c-.8 0-1.4.5-1.6 1.3-.2-.7-.8-1.3-1.6-1.3h-34.1c-3.3 0-4 2.4-2.9 5.2v-.1c1.5 3.5 4.3 4.9 4.3 9.9 0 16-23.7 16-23.7 0 0-5 2.9-6.4 4.4-10.1 1.1-2.7.4-4.9-2.9-4.9h-34.1c-.6 0-1.1.3-1.4.8-.3-.5-.8-.8-1.4-.8h-34.1c-3.3 0-4-1.9-2.9-4.7v.3c1.5-3.5 4.3-5.6 4.3-9.6 0-16-23.7-16-23.7 0 0 4 2.9 5.9 4.4 9.6 1.1 2.8.4 4.4-2.9 4.4h-34.1c-.8 0-1.4.5-1.6 1.3-.2-.7-.8-1.3-1.6-1.3h-34.1c-3.3 0-4 2.4-2.9 5.2v-.1c1.5 3.5 4.3 4.9 4.3 9.9 0 16-23.7 16-23.7 0 0-5 2.9-6.4 4.4-10.1 1.1-2.7.4-4.9-2.9-4.9h-34.1c-.9 0-1.9 1.2-1.9 2.1v34.2c0 3.2-1.7 3.9-4.4 2.8-3.7-1.5-5.6-4.4-9.6-4.4-17 0-17 23.7 0 23.7 4 0 6.1-2.8 9.6-4.3h-.3c2.7-1.1 4.7-.4 4.7 2.8v34.2c0 .8.6 1.4 1.3 1.6-.7.2-1.3.8-1.3 1.6v34.1c0 3.3 2.2 4 5 2.9 3.5-1.5 5-4.3 10-4.3 15 0 15 23.7 0 23.7-5 0-6.4-2.9-10.1-4.4-2.7-1.1-4.9-.4-4.9 2.9v34.1c0 .9.9 1.6 1.8 1.6h34.2c3.2 0 3.9 2.2 2.8 4.9-1.5 3.7-4.4 5.1-4.4 10.1 0 15 23.7 15 23.7 0 0-5-2.8-6.4-4.3-10v-.1c-1.1-2.7-.4-5 2.8-5h34.2c.6 0 1.1-.3 1.4-.8.3.5.8.8 1.4.8h34.1c3.3 0 4-2.2 2.9-4.9-1.5-3.7-4.4-5.1-4.4-10.1 0-15 23.7-15 23.7 0 0 5-2.8 6.5-4.3 10-1.1 2.8-.4 4.9 2.9 4.9h34.1c.8 0 1.4-.5 1.6-1.3.2.7.8 1.3 1.6 1.3h34.2c3.2 0 3.9 2.2 2.8 4.9-1.5 3.7-4.4 5.1-4.4 10.1 0 15 23.7 15 23.7 0 0-5-2.8-6.4-4.3-10v-.1c-1.1-2.7-.4-5 2.8-5h34.2c.9 0 1.6-.7 1.6-1.6 0 .9.7 1.6 1.6 1.6h34.1c3.3 0 4-2.2 2.9-4.9-1.5-3.7-4.4-5.1-4.4-10.1 0-15 23.7-15 23.7 0 0 5-2.8 6.5-4.3 10-1.1 2.8-.4 4.9 2.9 4.9h34.1c.9 0 1.8-.7 1.8-1.6v-34.1c0-3.3 2.1-4 4.9-2.9h-.4c3.5 1.5 5.5 4.3 9.5 4.3 17 .5 17-23.3 0-23.3" fill="#1a1a1a"/><g transform="translate(87 92)" fill="#fff"><path d="m5.4 20.4h34.2c-1.5-8.8-8.7-15.3-17-15.3-8.4 0-15.5 6.3-17.2 15.3m-4.7 3.7c0-13.1 9.8-23.6 22-23.6 11.6 0 20.8 9.6 21.8 21.9v.4c0 1.2-1 2.1-2.2 2.1h-37.1c.5 10.3 8.2 18.1 17.5 18.1 6 0 11.5-3.3 14.6-8.6.6-1.2 2-1.3 3-.8 1 .8 1.4 2.1.7 3.3-3.9 6.4-10.6 10.7-18.3 10.7-12.2-.1-22-10.6-22-23.5"/><path mask="url(#7)" d="m-12.2-11.9h69.5v71.9h-69.5z"/><g transform="translate(149)"><path d="m20.2.5c-10.7 0-19.3 8.7-19.3 19.2v25.6c0 1.3 1.1 2.3 2.3 2.3 1.3 0 2.3-1 2.3-2.3v-25.6c0-8 6.5-14.5 14.6-14.5 8.1 0 14.6 6.5 14.6 14.5v25.6c0 1.3 1.1 2.3 2.3 2.3 1.3 0 2.3-1 2.3-2.3v-25.6c.2-10.6-8.5-19.2-19.1-19.2"/><path mask="url(#8)" d="m-12-11.9h64.3v71.9h-64.3z"/></g><g transform="translate(52)"><path d="m19.5.5c-10.7 0-19.3 8.7-19.3 19.2v25.6c0 1.3 1.1 2.3 2.3 2.3 1.3 0 2.3-1 2.3-2.3v-25.6c0-8 6.5-14.5 14.6-14.5 8.1 0 14.6 6.5 14.6 14.5v25.6c0 1.3 1.1 2.3 2.3 2.3 1.3 0 2.3-1 2.3-2.3v-25.6c.2-10.6-8.4-19.2-19.1-19.2"/><path mask="url(#9)" d="m-12.6-11.9h64.3v71.9h-64.3z"/></g><g transform="translate(196)"><path d="m.2 2.8c0-1.3 1.1-2.3 2.4-2.3 1.4 0 2.5 1 2.5 2.3v42.5c0 1.2-1.1 2.3-2.5 2.3-1.3 0-2.4-1.1-2.4-2.3v-42.5"/><path mask="url(#A)" d="m-12.7-11.9h30.5v71.9h-30.5z"/></g><g transform="translate(209)"><path d="m.1 23.9c0-13.1 11.1-23.4 24.9-23.4 5.7 0 11.2 1.9 15.4 5.2 1 .7 1.2 2.1.3 3.2-.8.9-2.2 1.2-3.3.4-3.5-2.7-7.8-4.2-12.4-4.2-11.3 0-20.1 8.6-20.1 18.9 0 10.6 8.9 19 20.1 19 4.6 0 9-1.5 12.4-4.1 1.1-.8 2.5-.5 3.3.4.9 1.1.7 2.5-.5 3.4-4 3.1-9.5 5-15.2 5-13.9-.2-24.9-10.5-24.9-23.8"/><path mask="url(#B)" d="m-12.8-11.9h66.9v71.9h-66.9z"/></g><g transform="translate(98)"><path d="m5.1 20.3c1.6-8.7 8.8-15.3 17.2-15.3 8.4 0 15.6 6.6 17.2 15.3h4.6c-1.7-11.1-10.7-19.8-21.9-19.8-11 0-20.2 8.8-21.9 19.8h4.8"/><path mask="url(#C)" d="m-12.4-11.9h69.5v44.6h-69.5z"/></g><g transform="translate(98 27)"><path d="m39.6.7c-1.5 8.7-8.8 15.3-17.2 15.3-8.5 0-15.7-6.6-17.2-15.3h-4.6c1.6 11 10.8 19.8 21.9 19.8 11.2 0 20.3-8.8 21.9-19.8h-4.8"/><path mask="url(#D)" d="m-12.4-11.7h69.5v44.6h-69.5z"/></g></g></g><g fill="#fff"><path d="m514.55 417.52v-1.2c-.468-.096-.744-.132-1.176-.132-1.344 0-2.124.816-2.124 1.968v.6h-1.056v1.236h1.056v5h1.5v-5h1.668v-1.236h-1.668v-.576c0-.444.276-.756.816-.756.396 0 .672.036.984.096m4.572 2.628v-1.44c-.156-.024-.312-.036-.468-.036-.732 0-1.476.3-1.764 1.02l-.132-.936h-1.272v6.24h1.512v-3.144c0-1.01.552-1.764 1.608-1.764.168 0 .348.024.516.06m6.54 4.776v-1.104c0 0-.096.024-.192.024-.252 0-.348-.108-.348-.396v-2.316c0-.42-.024-.864-.18-1.26-.36-.936-1.272-1.272-2.34-1.272-1.392 0-2.508.624-2.592 2.028h1.452c.036-.576.444-.888 1.14-.888.852 0 1.056.396 1.056.984v.384l-1.836.132c-1.188.084-2.112.768-2.112 1.956 0 1.02.768 1.956 2.256 1.956.888 0 1.608-.432 1.896-.936.048.468.408.876 1.056.876.36 0 .492-.06.744-.168m-2-2.412c0 .924-.66 1.428-1.596 1.428-.468 0-.888-.3-.888-.78 0-.504.444-.78.9-.816l1.584-.12v.288m12.156 2.484v-4.212c0-1.296-.696-2.184-2.028-2.184-.84 0-1.512.372-1.884 1.02-.312-.636-.912-1.02-1.788-1.02-.828 0-1.428.408-1.776.984l-.12-.828h-1.248v6.24h1.488v-3.408c0-.78.384-1.68 1.236-1.68.756 0 .96.444.96 1.212v3.876h1.488v-3.408c0-.78.372-1.68 1.224-1.68.756 0 .96.444.96 1.212v3.876h1.488m7.06-3.072c.024-.78-.084-1.488-.54-2.172-.516-.78-1.356-1.152-2.28-1.152-.852 0-1.524.312-1.992.792-.6.612-.9 1.5-.9 2.496 0 1.02.336 1.896.96 2.496.492.468 1.116.768 1.968.768.792 0 1.572-.252 2.1-.876.24-.288.492-.78.528-1.152h-1.44c-.06.228-.168.396-.3.528-.216.216-.48.3-.912.3-.408 0-.708-.18-.924-.384-.3-.288-.468-.744-.456-1.224h4.176c0-.132.012-.42.012-.42m-1.5-.672h-2.7c.012-.408.108-.696.324-.972.216-.288.588-.48 1.044-.48.432 0 .744.144.948.36.24.264.372.624.384 1.092m10.944-2.496h-1.428l-.96 4.08-1.32-4.02h-1.236l-1.308 4.03-.996-4.092h-1.452l1.584 6.24h1.392l1.392-4.212 1.416 4.212h1.392l1.524-6.24m6.612 3.12c0-1.056-.264-1.716-.732-2.304-.432-.528-1.236-.972-2.184-.972-.948 0-1.752.444-2.184.972-.468.588-.732 1.248-.732 2.304 0 1.056.264 1.716.732 2.304.432.528 1.236.972 2.184.972.948 0 1.752-.444 2.184-.972.468-.588.732-1.248.732-2.304m-1.524 0c0 .588-.084 1.176-.444 1.572-.204.216-.54.396-.948.396-.408 0-.744-.18-.948-.396-.36-.396-.444-.984-.444-1.572 0-.588.084-1.176.444-1.572.204-.216.54-.396.948-.396.408 0 .744.18.948.396.36.396.444.984.444 1.572m6.6-1.728v-1.44c-.156-.024-.312-.036-.468-.036-.732 0-1.476.3-1.764 1.02l-.132-.936h-1.272v6.24h1.512v-3.144c0-1.01.552-1.764 1.608-1.764.168 0 .348.024.516.06m7.092 4.848l-2.472-3.828 2.232-2.412h-1.884l-2.364 2.532v-4.956h-1.5v8.664h1.5v-1.644l.996-1.08 1.752 2.724h1.74m5.784-1.932c0-.984-.72-1.608-1.704-1.764-.612-.096-.768-.108-1.332-.18-.336-.048-.72-.18-.72-.624 0-.324.216-.552.48-.66.228-.096.432-.096.648-.096.312 0 .636.108.816.288.144.156.252.348.252.588h1.428c0-.456-.216-.924-.552-1.284-.456-.492-1.212-.732-1.956-.732-.78 0-1.44.228-1.896.624-.372.324-.636.768-.636 1.404 0 .792.576 1.488 1.428 1.668.552.12 1.176.156 1.728.24.384.06.624.3.624.66 0 .684-.768.792-1.272.792-.432 0-.708-.084-.948-.276-.192-.156-.336-.456-.336-.732h-1.404c0 .588.3 1.104.66 1.452.516.492 1.224.72 2.02.72.852 0 1.632-.216 2.136-.72.324-.324.54-.768.54-1.368"/><path d="m729.46 299.42v-1.26c-.408.048-.66.06-.972.06-.48 0-.696-.204-.696-.684v-3.036h1.572v-1.236h-1.572v-1.956l-1.5.372v1.584h-1.14v1.236h1.14v3.168c0 1.2.624 1.92 1.884 1.92.444 0 .864-.06 1.284-.168m6.552-2.988c.024-.78-.084-1.488-.54-2.172-.516-.78-1.356-1.152-2.28-1.152-.852 0-1.524.312-1.992.792-.6.612-.9 1.5-.9 2.496 0 1.02.336 1.896.96 2.496.492.468 1.116.768 1.968.768.792 0 1.572-.252 2.1-.876.24-.288.492-.78.528-1.152h-1.44c-.06.228-.168.396-.3.528-.216.216-.48.3-.912.3-.408 0-.708-.18-.924-.384-.3-.288-.468-.744-.456-1.224h4.176c0-.132.012-.42.012-.42m-1.5-.672h-2.7c.012-.408.108-.696.324-.972.216-.288.588-.48 1.044-.48.432 0 .744.144.948.36.24.264.372.624.384 1.092m7.944 1.536h-1.476c-.012.228-.084.42-.18.576-.18.276-.504.468-.96.468-.408 0-.708-.18-.912-.396-.36-.396-.42-.984-.42-1.572 0-.588.06-1.188.42-1.584.204-.216.504-.384.912-.384.456 0 .78.192.96.468.096.156.168.348.18.576h1.476c-.024-.492-.192-.984-.48-1.356-.432-.54-1.188-.984-2.136-.984-.948 0-1.74.456-2.172.984-.468.588-.684 1.368-.684 2.28 0 .912.216 1.692.684 2.28.432.528 1.224.984 2.172.984.948 0 1.704-.444 2.136-.984.288-.372.456-.864.48-1.356m6.648 2.208v-4.164c0-1.284-.78-2.232-2.112-2.232-.648 0-1.344.288-1.704.816v-3.084h-1.5v8.664h1.5v-3.288c0-.768.384-1.728 1.284-1.728.792 0 1.032.444 1.032 1.164v3.852h1.5m7.092 0v-4.164c0-1.296-.78-2.232-2.112-2.232-.72 0-1.464.3-1.836.96l-.108-.804h-1.26v6.24h1.5v-2.544c0-.528-.012-1.176.204-1.668.204-.456.552-.792 1.08-.792.792 0 1.032.444 1.032 1.176v3.828h1.5m7.176-3.12c0-1.056-.264-1.716-.732-2.304-.432-.528-1.236-.972-2.184-.972-.948 0-1.752.444-2.184.972-.468.588-.732 1.248-.732 2.304 0 1.056.264 1.716.732 2.304.432.528 1.236.972 2.184.972.948 0 1.752-.444 2.184-.972.468-.588.732-1.248.732-2.304m-1.524 0c0 .588-.084 1.176-.444 1.572-.204.216-.54.396-.948.396-.408 0-.744-.18-.948-.396-.36-.396-.444-.984-.444-1.572 0-.588.084-1.176.444-1.572.204-.216.54-.396.948-.396.408 0 .744.18.948.396.36.396.444.984.444 1.572m5.292 3.108v-1.26c-.084 0-.12.012-.252.012-.516 0-.6-.24-.6-.6v-6.816h-1.512v7.07c0 1.188.684 1.68 1.704 1.68.3 0 .36-.024.66-.084m6.696-3.108c0-1.056-.264-1.716-.732-2.304-.432-.528-1.236-.972-2.184-.972-.948 0-1.752.444-2.184.972-.468.588-.732 1.248-.732 2.304 0 1.056.264 1.716.732 2.304.432.528 1.236.972 2.184.972.948 0 1.752-.444 2.184-.972.468-.588.732-1.248.732-2.304m-1.524 0c0 .588-.084 1.176-.444 1.572-.204.216-.54.396-.948.396-.408 0-.744-.18-.948-.396-.36-.396-.444-.984-.444-1.572 0-.588.084-1.176.444-1.572.204-.216.54-.396.948-.396.408 0 .744.18.948.396.36.396.444.984.444 1.572m8.46 3.948c0-.6-.216-1.128-.756-1.5-.588-.408-1.404-.42-2.028-.42h-1.032c-.312 0-.684-.084-.684-.456 0-.204.168-.36.312-.444.312.108.66.168 1.01.168 1.344 0 2.544-.84 2.544-2.268 0-.42-.12-.792-.324-1.128.096-.3.408-.396.756-.396.036 0 .084.012.12.012v-1.164c-.096-.024-.312-.024-.408-.024-.528 0-1.01.24-1.272.78-.408-.24-.9-.384-1.416-.384-1.404 0-2.556.804-2.556 2.292 0 .636.24 1.152.624 1.536-.504.312-.744.732-.744 1.26 0 .408.228.852.624 1.068-.48.24-.744.732-.744 1.272 0 .588.276 1.032.756 1.368.648.456 1.452.516 2.208.516 1.392 0 3.01-.444 3.01-2.088m-2.076-4.932c0 .672-.42 1.152-1.104 1.152-.684 0-1.104-.48-1.104-1.152 0-.672.42-1.164 1.104-1.164.684 0 1.104.492 1.104 1.164m.66 4.968c0 .828-1.056.864-1.656.864-.588 0-1.572-.072-1.572-.864 0-.396.24-.672.564-.768h1.176c.564 0 1.488 0 1.488.768m4.116-7.968v-1.548h-1.608v1.548h1.608m-.036 7.104v-6.24h-1.524v6.24h1.524m7.164-3.072c.024-.78-.084-1.488-.54-2.172-.516-.78-1.356-1.152-2.28-1.152-.852 0-1.524.312-1.992.792-.6.612-.9 1.5-.9 2.496 0 1.02.336 1.896.96 2.496.492.468 1.116.768 1.968.768.792 0 1.572-.252 2.1-.876.24-.288.492-.78.528-1.152h-1.44c-.06.228-.168.396-.3.528-.216.216-.48.3-.912.3-.408 0-.708-.18-.924-.384-.3-.288-.468-.744-.456-1.224h4.176c0-.132.012-.42.012-.42m-1.5-.672h-2.7c.012-.408.108-.696.324-.972.216-.288.588-.48 1.044-.48.432 0 .744.144.948.36.24.264.372.624.384 1.092m7.752 1.812c0-.984-.72-1.608-1.704-1.764-.612-.096-.768-.108-1.332-.18-.336-.048-.72-.18-.72-.624 0-.324.216-.552.48-.66.228-.096.432-.096.648-.096.312 0 .636.108.816.288.144.156.252.348.252.588h1.428c0-.456-.216-.924-.552-1.284-.456-.492-1.212-.732-1.956-.732-.78 0-1.44.228-1.896.624-.372.324-.636.768-.636 1.404 0 .792.576 1.488 1.428 1.668.552.12 1.176.156 1.728.24.384.06.624.3.624.66 0 .684-.768.792-1.272.792-.432 0-.708-.084-.948-.276-.192-.156-.336-.456-.336-.732h-1.404c0 .588.3 1.104.66 1.452.516.492 1.224.72 2.02.72.852 0 1.632-.216 2.136-.72.324-.324.54-.768.54-1.368" transform="matrix(0 1-1 0 1057.86-464.62)"/><path d="m215.71 199.87c0-1.176-.372-2.112-1.116-2.724-.384-.312-.888-.528-1.512-.528-.684 0-1.38.252-1.752.828l-.096-.684h-1.296v8.628h1.5v-2.844c.288.348.888.612 1.632.612.636 0 1.14-.192 1.524-.504.744-.612 1.116-1.56 1.116-2.784m-1.524.024c0 .54-.084 1.104-.396 1.512-.216.276-.54.492-1.01.492-1.176 0-1.416-1.104-1.416-2 0-.9.24-2.02 1.416-2.02.468 0 .792.216 1.01.492.312.408.396.984.396 1.524m5.292 3.096v-1.26c-.084 0-.12.012-.252.012-.516 0-.6-.24-.6-.6v-6.816h-1.512v7.07c0 1.188.684 1.68 1.704 1.68.3 0 .36-.024.66-.084m6.504.012v-6.24h-1.5v3.3c0 .504-.096 1.068-.456 1.404-.18.18-.42.312-.768.312-.792 0-1.08-.456-1.08-1.188v-3.828h-1.5v4.164c0 1.332.828 2.232 2.16 2.232.792 0 1.488-.36 1.788-.972l.108.816h1.248m7.368.828c0-.6-.216-1.128-.756-1.5-.588-.408-1.404-.42-2.028-.42h-1.032c-.312 0-.684-.084-.684-.456 0-.204.168-.36.312-.444.312.108.66.168 1.01.168 1.344 0 2.544-.84 2.544-2.268 0-.42-.12-.792-.324-1.128.096-.3.408-.396.756-.396.036 0 .084.012.12.012v-1.164c-.096-.024-.312-.024-.408-.024-.528 0-1.01.24-1.272.78-.408-.24-.9-.384-1.416-.384-1.404 0-2.556.804-2.556 2.292 0 .636.24 1.152.624 1.536-.504.312-.744.732-.744 1.26 0 .408.228.852.624 1.068-.48.24-.744.732-.744 1.272 0 .588.276 1.032.756 1.368.648.456 1.452.516 2.208.516 1.392 0 3.01-.444 3.01-2.088m-2.076-4.932c0 .672-.42 1.152-1.104 1.152-.684 0-1.104-.48-1.104-1.152 0-.672.42-1.164 1.104-1.164.684 0 1.104.492 1.104 1.164m.66 4.968c0 .828-1.056.864-1.656.864-.588 0-1.572-.072-1.572-.864 0-.396.24-.672.564-.768h1.176c.564 0 1.488 0 1.488.768m6.432-3.888v-1.344h-4.116v1.344h4.116m3.24-4.08v-1.548h-1.608v1.548h1.608m-.036 7.104v-6.24h-1.524v6.24h1.524m7.2 0v-4.164c0-1.296-.78-2.232-2.112-2.232-.72 0-1.464.3-1.836.96l-.108-.804h-1.26v6.24h1.5v-2.544c0-.528-.012-1.176.204-1.668.204-.456.552-.792 1.08-.792.792 0 1.032.444 1.032 1.176v3.828h1.5m6.624-1.932c0-.984-.72-1.608-1.704-1.764-.612-.096-.768-.108-1.332-.18-.336-.048-.72-.18-.72-.624 0-.324.216-.552.48-.66.228-.096.432-.096.648-.096.312 0 .636.108.816.288.144.156.252.348.252.588h1.428c0-.456-.216-.924-.552-1.284-.456-.492-1.212-.732-1.956-.732-.78 0-1.44.228-1.896.624-.372.324-.636.768-.636 1.404 0 .792.576 1.488 1.428 1.668.552.12 1.176.156 1.728.24.384.06.624.3.624.66 0 .684-.768.792-1.272.792-.432 0-.708-.084-.948-.276-.192-.156-.336-.456-.336-.732h-1.404c0 .588.3 1.104.66 1.452.516.492 1.224.72 2.02.72.852 0 1.632-.216 2.136-.72.324-.324.54-.768.54-1.368" transform="matrix(0-1 1 0 32.778 433.02)"/><path d="m613.22 74.928c.024-.78-.084-1.488-.54-2.172-.516-.78-1.356-1.152-2.28-1.152-.852 0-1.524.312-1.992.792-.6.612-.9 1.5-.9 2.496 0 1.02.336 1.896.96 2.496.492.468 1.116.768 1.968.768.792 0 1.572-.252 2.1-.876.24-.288.492-.78.528-1.152h-1.44c-.06.228-.168.396-.3.528-.216.216-.48.3-.912.3-.408 0-.708-.18-.924-.384-.3-.288-.468-.744-.456-1.224h4.176c0-.132.012-.42.012-.42m-1.5-.672h-2.7c.012-.408.108-.696.324-.972.216-.288.588-.48 1.044-.48.432 0 .744.144.948.36.24.264.372.624.384 1.092m8.124-2.496h-1.644l-1.356 2.02-1.392-2.02h-1.728l2.196 3.06-2.184 3.18h1.644l1.368-2.088 1.392 2.088h1.692l-2.136-3.168 2.148-3.072m4.5 6.156v-1.26c-.408.048-.66.06-.972.06-.48 0-.696-.204-.696-.684v-3.036h1.572v-1.236h-1.572v-1.956l-1.5.372v1.584h-1.14v1.236h1.14v3.168c0 1.2.624 1.92 1.884 1.92.444 0 .864-.06 1.284-.168m6.552-2.988c.024-.78-.084-1.488-.54-2.172-.516-.78-1.356-1.152-2.28-1.152-.852 0-1.524.312-1.992.792-.6.612-.9 1.5-.9 2.496 0 1.02.336 1.896.96 2.496.492.468 1.116.768 1.968.768.792 0 1.572-.252 2.1-.876.24-.288.492-.78.528-1.152h-1.44c-.06.228-.168.396-.3.528-.216.216-.48.3-.912.3-.408 0-.708-.18-.924-.384-.3-.288-.468-.744-.456-1.224h4.176c0-.132.012-.42.012-.42m-1.5-.672h-2.7c.012-.408.108-.696.324-.972.216-.288.588-.48 1.044-.48.432 0 .744.144.948.36.24.264.372.624.384 1.092m8.22 3.744v-4.164c0-1.296-.78-2.232-2.112-2.232-.72 0-1.464.3-1.836.96l-.108-.804h-1.26v6.24h1.5v-2.544c0-.528-.012-1.176.204-1.668.204-.456.552-.792 1.08-.792.792 0 1.032.444 1.032 1.176v3.828h1.5m5.304-.084v-1.26c-.408.048-.66.06-.972.06-.48 0-.696-.204-.696-.684v-3.036h1.572v-1.236h-1.572v-1.956l-1.5.372v1.584h-1.14v1.236h1.14v3.168c0 1.2.624 1.92 1.884 1.92.444 0 .864-.06 1.284-.168m2.856-7.02v-1.548h-1.608v1.548h1.608m-.036 7.104v-6.24h-1.524v6.24h1.524m7.284-3.12c0-1.056-.264-1.716-.732-2.304-.432-.528-1.236-.972-2.184-.972-.948 0-1.752.444-2.184.972-.468.588-.732 1.248-.732 2.304 0 1.056.264 1.716.732 2.304.432.528 1.236.972 2.184.972.948 0 1.752-.444 2.184-.972.468-.588.732-1.248.732-2.304m-1.524 0c0 .588-.084 1.176-.444 1.572-.204.216-.54.396-.948.396-.408 0-.744-.18-.948-.396-.36-.396-.444-.984-.444-1.572 0-.588.084-1.176.444-1.572.204-.216.54-.396.948-.396.408 0 .744.18.948.396.36.396.444.984.444 1.572m8.28 3.12v-4.164c0-1.296-.78-2.232-2.112-2.232-.72 0-1.464.3-1.836.96l-.108-.804h-1.26v6.24h1.5v-2.544c0-.528-.012-1.176.204-1.668.204-.456.552-.792 1.08-.792.792 0 1.032.444 1.032 1.176v3.828h1.5m6.624-1.932c0-.984-.72-1.608-1.704-1.764-.612-.096-.768-.108-1.332-.18-.336-.048-.72-.18-.72-.624 0-.324.216-.552.48-.66.228-.096.432-.096.648-.096.312 0 .636.108.816.288.144.156.252.348.252.588h1.428c0-.456-.216-.924-.552-1.284-.456-.492-1.212-.732-1.956-.732-.78 0-1.44.228-1.896.624-.372.324-.636.768-.636 1.404 0 .792.576 1.488 1.428 1.668.552.12 1.176.156 1.728.24.384.06.624.3.624.66 0 .684-.768.792-1.272.792-.432 0-.708-.084-.948-.276-.192-.156-.336-.456-.336-.732h-1.404c0 .588.3 1.104.66 1.452.516.492 1.224.72 2.02.72.852 0 1.632-.216 2.136-.72.324-.324.54-.768.54-1.368"/></g></g></svg>