<svg width="333" height="445" viewBox="0 0 333 445" xmlns="http://www.w3.org/2000/svg" xmlns:xlink="http://www.w3.org/1999/xlink"><defs><path id="0" d="m0 0h411v445h-411z"/><mask id="1" fill="#fff"><use xlink:href="#0"/></mask></defs><g fill="none" fill-rule="evenodd"><g mask="url(#1)" transform="translate(-34)"><g transform="translate(34)"><g transform="translate(57)"><path d="m180.36 102.3c0 0 11.02.67 8.503 24.564-2.52 23.894-19.966 47.868-19.966 47.868l-.504-69.29 11.967-3.139" fill="#421"/><path d="m182.23 470.31h-145.83l-7.812-349.38 153.64-12.13v361.51" fill="#f2d3b3"/><path d="m182.23 470.31h-145.83l-5.522-246.94.073.003c3.937.181 7.255-2.905 7.359-6.845l-.331-15.235 9.271-3.103c0 0 1.302 8.898 4.123 14.323 2.821 5.425 7.662 12.427 16.276 15.299 9.765 3.255 29.27-2.976 61.846-4.558 33.442-1.623 52.865 2.273 52.732 2.279v244.78" fill="#e2bb98"/><path d="m33.12 323.5l3.283 187.74 73.1 9.448 13.226-11.337 10.392 12.282 49.11-9.503v-179.54l-55.661 39.692-93.45-48.783" fill="#97dcff"/><g fill="#e8f3f9"><path d="m132.65 383.84c0 2.87-2.326 5.196-5.196 5.196-2.87 0-5.196-2.326-5.196-5.196 0-2.87 2.326-5.196 5.196-5.196 2.87 0 5.196 2.326 5.196 5.196"/><path d="m132.65 430.13c0 2.87-2.326 5.196-5.196 5.196-2.87 0-5.196-2.326-5.196-5.196 0-2.87 2.326-5.196 5.196-5.196 2.87 0 5.196 2.326 5.196 5.196"/></g><g fill="#79bff2"><path d="m115.83 350.85l10.742 21.44-20.13-8.866 9.386-12.574"/><path d="m137.64 349.87l-11.07 22.417 17.648-9.601-6.581-12.816"/></g><g fill="#82ccf9"><path d="m32.931 315.04l82.9 35.808-17.252 23.11-65.41-48.5-.233-10.418"/><path d="m137.64 349.87l44.594-24.09v14.973l-33.08 31.531-11.511-22.417"/></g><path d="m42.04 191.24c0 11.505-9.327 20.832-20.832 20.832-11.506 0-20.833-9.327-20.833-20.832 0-11.505 9.327-20.832 20.833-20.832 11.505 0 20.832 9.327 20.832 20.832" fill="#f2d3b3"/><path d="m23.708 167.72c0 0-13.454-26.365-10.416-55.878 3.038-29.512 13.628-30.858 13.628-30.858l-.933 12.412c0 0 13.597-36.8 55.55-41.01 80.62-8.094 76.82-30.38 76.82-30.38 0 0 5.882 2.912 5.642 13.02-.242 10.246-4.754 13.348-4.754 13.348 0 0 7.904-2.035 18.209-19.424 6.944-11.718 2.604-28.21 2.604-28.21 0 0 40.86 23.22 34.35 67.27-6.51 44.05-53.88 55.55-79.05 57.723-25.17 2.17-68.05-4.138-68.05-4.138l4.34 11.719c0 0-12.243-10.185-19.19-4.326-12.43 10.488-4.88 68.31-4.88 68.31l-9.551 3.73c0 0-1.746-17.67-5.105-24.303-3.683-7.271-9.217-9.01-9.217-9.01" fill="#421"/><path d="m215.78 63.716c.477-43.931-35.901-63.3-35.901-63.3 0 0 24.03 15.181 16.533 61.41-9.447 58.26-90.07 63.3-90.07 63.3 0 0 12.216.629 26.14.629 27.398 0 82.82-18.58 83.3-62.04" fill="#603719"/><path d="m48.555 203.72l-10.316 4.828-.1-2.712 10.09-4.123.326 2.01" fill="#421"/><g fill="#f9fdff"><path d="m61.726 169.26c.031-3.711 13.222-8.672 32.1-8.997 18.879-.326 31.765 6.02 32.09 9.602.326 3.581-6.495 26.827-29.946 29.3-27.831 2.929-34.29-24.693-34.25-29.901"/><path d="m149.68 170.68c.326-3.906 13.346-8.657 25.06-9.292 11.718-.636 17.976.679 18.554 4.727.976 6.844-1.344 30.441-19.53 30.443-19.856.002-24.414-21.972-24.09-25.878"/></g><path d="m173.77 196.56c-19.856.002-24.413-21.972-24.09-25.878.326-3.906 13.346-8.657 25.06-9.292 11.718-.636 17.976.679 18.553 4.727.977 6.844-1.344 30.441-19.53 30.443m-77.8 2.604c-27.831 2.93-34.29-24.693-34.24-29.901.032-3.711 13.222-8.671 32.1-8.997 18.88-.326 31.765 6.02 32.09 9.602.325 3.581-6.496 26.828-29.947 29.3m105.79-40.2c0 0-12.04-5.05-26.04-4.069-13.997.977-27.668 8.789-38.08 8.463-10.416-.325-18.229-8.788-41.665-9.114-23.437-.325-31.574 5.859-39.39 6.51-7.813.651-25.553 2.767-31.25 3.744-5.696.976-6.51 6.02-6.51 6.02 0 0 2.604-.651 4.882 0 2.279.651 2.767 1.465 2.767 1.465 0 0 29.13 1.14 31.09 4.72 1.953 3.581 6.836 29.947 38.08 27.994 31.25-1.953 33.2-33.2 43.29-32.551 8.776.566 6.51 30.27 34.503 29.621 27.994-.651 25.06-34.18 25.06-34.18l3.256-3.255v-5.371" fill="#000"/><path d="m142.19 193.63c0 0 15.16 5.835 16.926 10.09 1.767 4.255-8.961 12.188-13.02 13.448-4.059 1.259-12.04-7.589-12.04-7.589 0 0 6.185 10.09 12.532 10.742 6.348.651 18.924-11.393 16.971-16.601-1.953-5.208-21.365-10.09-21.365-10.09" fill="#c69e87"/><path d="m219.91 240.33l-15.342-28.577 9.681-20.04 7.107 8.564-3.263 9.694 6.522 8.714 34.3-40.773 7.188 5.277-2.01 11.741 8.095 11.139 2.921 21.739-27.527 25.2-27.666-12.678" fill="#f2d3b3"/><path d="m216.03 178.24l11.978 54.48 29.45-15.543-13.888-55.944-27.54 17.01" fill="#4f4b48"/><path d="m218.85 179.62l9.783 44.493 24.05-12.694-11.343-45.69-22.492 13.891" fill="#bbefff"/><path d="m181.39 372.35l72.61-56.61.976-68.894-19.4-.335-3.44 56.825-49.97 34.02-.776 34.995" fill="#97dcff"/><g fill="#421"><path d="m87.69 133.04l27.468-1.965-11.645-9.1-15.823 11.06"/><path d="m165.44 118.47l-10.76 9.09 22.917-.684-12.157-8.407"/></g></g><path d="m90.99 334.1l-90.24 71.63 75.1 82.39 9.743-19.791-51.46-59.895 58.05-40.914-1.193-33.428" fill="#97dcff"/><g transform="translate(145 240)"><path d="m64.17 6.983c0 0-14.08-.492-29.3-1.621-22.814-1.694-34.28-5.138-34.28-5.138 0 0 7.911 28.06 23.749 31.01 22.956 4.268 35.79-4.428 35.79-4.428 0 0-1.115-7.05-1.784-10.11-.364-1.662-.754-3.587.029-6.685.783-3.097 5.793-3.03 5.793-3.03" fill="#442f26"/><path d="m55.52 7.869c0 0-12.947-.751-21.85-1.193-12.517-.622-24.2-2.824-24.2-2.824 0 0 1.471 4.669 2.533 7.739 1.063 3.069 2.559 3.529 6.776 3.925 4.218.397 29.935 1.82 32.07 1.817 4.177-.005 4.081-4.087 4.081-4.087l.594-5.377" fill="#fff"/><path d="m53.816 94.02l-45.552-23.944 43.8 3.504 34.456-17.52-32.704 37.96" fill="#cea282"/></g></g></g></g></svg>