<svg width="4544" height="1011" viewBox="0 0 4544 1011" xmlns="http://www.w3.org/2000/svg"><g fill="none" fill-rule="evenodd" transform="translate(0 1)"><path fill="#39a5c9" d="m0 609h4544v401h-4544z"/><g transform="translate(1541 154)"><g fill="#fff"><path d="m190.69.399l-60.61 386.6 154.46 82.85-.629-290.79-93.22-178.66"/><path d="m198.18 593.49h307.45l-14.13-142.8-293.31 142.8"/></g><path d="m198.18 593.49h158.54l134.78-142.8-293.31 142.8" fill="#f2f2f2"/><path d="m84.78 593.49h355.38l-118.11-448.85-237.28 448.85" fill="#fff"/><g fill="#f2f2f2"><path d="m119.9 593.24l193.14-193.7 9.01-255.15-75.73 45.759-126.43 403.09"/><path d="m-.349 593.49l120.25-.257 96.57-47.31-58.747-221.12 32.972-324.41-148.22 368.78-42.82 224.32"/><path d="m190.69.399l-10.03 219.7-138.19 149.08 148.22-368.78"/></g><g fill="#e6e6e6"><path d="m42.471 369.18l115.25-48.45 9.585-40.29-124.84 88.74"/><path d="m211.11 501.75l56.15-56.31-86.64-45.817 30.489 102.13"/></g><path d="m-.349 593.49h238.85l-65.974-221-172.87 221" fill="#fff"/><path d="m-.349 593.49h92.21l80.66-221-172.87 221" fill="#e6e6e6"/><path d="m343.99 636l201.95-42.507-170.87-123.65-31.08 166.15" fill="#fff"/><path d="m238.5 593.49l105.6 42.484 30.975-166.13-136.57 123.65" fill="#f2f2f2"/></g><g transform="translate(2464)"><path d="m473.52-.387l-96.42 721.8.907-419.41 95.52-302.39" fill="#e6e6e6"/><path d="m501.66 899.75h-443.44l197.77-378.75 245.66 378.75" fill="#f2f2f2"/><path d="m501.66 899.75h-228.66l-17-378.75 245.66 378.75" fill="#fff"/><path d="m665.22 899.75h-443.44l101.21-647.38 342.22 647.38" fill="#f2f2f2"/><path d="m614.57 899.38l-278.57-279.38-13-368 109.22 66 182.34 581.38" fill="#fff"/><path d="m309.02 937.85l-308.95-38.1 113.36-162.2 195.59 200.3" fill="#e6e6e6"/><path d="m443.51 899.75l-134.48 38.1-195.59-200.3 330.08 162.2" fill="#fff"/><path d="m788 899.75l-173.43-.371-139.28-68.23-64.19-387.41 62.42-444.12 252.72 576.6 61.76 323.54" fill="#f2f2f2"/><path d="m473.52-.387l-62.42 444.12 315.15 132.48-252.72-576.6" fill="#fff"/><g fill="#e6e6e6"><path d="m726.24 576.22l-315.15-132.48 11.697-83.22 303.45 215.7"/><path d="m461.08 745.45l-129.06-97.17 3.763-26.772 125.29 123.94"/></g><path d="m788 899.75h-133l-116.34-318.75 249.34 318.75" fill="#fff"/></g><g transform="translate(2114 700)"><path d="m83.19 47.866l-75.19 19.932-8.04 41.28 83.991 31.634 37.13 28.29 65.785-11 86.977-6.914 39.573-27.653-39.573-49.23-37.901-.203h-71.49l-81.26-26.13" fill="#f2f2f2"/><path d="m313.42 123.43l-116.79-33.364 42.03-65.59 74.75 98.95" fill="#e6e6e6"/><path d="m313.42 123.43l-55.42-58.42-19.334-40.532 74.75 98.95" fill="#fff"/><path d="m83.951 140.71l-83.99-31.634 37.884-54.21 46.11 85.84" fill="#e6e6e6"/><path d="m148.16 109.08l-64.21 31.634-46.11-85.84 110.31 54.21" fill="#fff"/><path d="m92.09 19.07c0 0 2.369 2.643 3.275 5.03.907 2.382.565 5.784.565 5.784l-6.376-5.863 2.536-4.946" fill="#421"/><path d="m57.48 76.74l3.17-1.343 3.349-7.345 12.184 14.223-6.441.27-4.846-2.083-4.848 1.736-2.627-6.235" fill="#edc6a6"/><g fill="#97dcff"><path d="m84.08 86.03l-30.17-1.318 7.648-2.256-1.02-3.829-3.123-2.665-15.396 7.313-1.24 5.05 3.103 3.473 43.938 6.549-3.742-12.319"/><path d="m125.47 67.74l-2.848-16.658-6.7 4.368-5.414-6.01 12.783-8.06 4.366 1.538 7.763 31.29-9.95-6.466"/></g><path d="m71.4 83.61l6.462.213-3.262-3.412" fill="#79bff2"/><path d="m58.06 61.795c0 0 4 6.93 9.263 13.162 5.261 6.233 9.396 8.641 9.396 8.641l39.37.125 26.786.169-5.55-9.284c0 0-16.07-13.847-26.28-26.647-10.214-12.8-19.511-26.769-19.511-26.769l-24.905 10.08-8.562 30.526" fill="#f2d3b3"/><path d="m89.45 39.464c-1.768 0-4.653.664-7.805 2.424-4.418 2.466-7.06 5.278-7.05 6.451 0 .099.021.187.059.261.519.989 3.62 4.617 7.912 4.617 1.526 0 3.203-.459 4.968-1.658 3.41-2.317 4.246-5.734 4.246-8.28 0-1.686-.366-2.989-.595-3.337-.197-.299-.815-.478-1.736-.478" fill="#f8f3ed"/><path d="m106.76 30.06c0 0-3.049-.92-6.501 1.253-3.452 2.172-4.249 4-6.963 5.352-2.713 1.347-5.876.252-11.926 3.386-6.05 3.135-7.285 5.836-9.197 7.08-1.912 1.238-6.166 4.216-7.492 5.249-1.326 1.032-.84 2.437-.84 2.437 0 0 .577-.525 1.25-.671.673-.146.911-.005.911-.005-.001 0 7.62-3.707 8.611-3.058.992.649 5.863 6.734 13.602 1.942 7.736-4.79 3.947-13.06 6.622-14.283 1.114-.508 2.225.688 3.661 1.883 1.559 1.297 3.503 2.596 6.255 1.715 5.811-1.856 2.359-9.618 2.359-9.618l.386-1.281-.738-1.377m-19.222 21.499c-6.728 4.572-12.176-1.618-12.88-2.959-.501-.955 2.197-4.04 6.99-6.712 4.792-2.676 8.964-2.819 9.541-1.946.575.873 2.02 7.766-3.651 11.617m17.228-10.837c-3.298 1.782-6.926-2.788-7.378-3.833-.454-1.046-.259-1.85 2.657-3.621 2.915-1.772 4.826-1.171 5.53-.213 1.19 1.62 2.268 6.01-.809 7.667" fill="#000"/><path d="m103.44 32.13c-.043 0-.085.001-.129.002-.871.039-1.948.36-3.215 1.13-.037.022-.073.044-.108.066 1.604 2.226 3.367 4.631 5.229 7.106 2.51-1.831 1.482-5.847.356-7.382-.376-.512-1.097-.922-2.133-.922" fill="#fafdff"/><path d="m99.99 33.33c-2.812 1.727-2.995 2.523-2.549 3.555.381.878 3 4.242 5.784 4.242.027 0 .053 0 .081-.001.486-.019.977-.144 1.46-.405.162-.088.312-.183.453-.285-1.862-2.475-3.625-4.88-5.229-7.106" fill="#f8f3ed"/><path d="m103.5 32.13c-.059 0-.119.001-.181.004.044-.001.086-.002.129-.002 1.036 0 1.757.41 2.133.922 1.126 1.535 2.154 5.551-.356 7.382-.141.102-.291.197-.453.285-.483.261-.974.386-1.46.405.504-.012 1.013-.136 1.515-.407 3.075-1.662 1.997-6.05.808-7.667-.377-.512-1.098-.922-2.135-.922" fill="#bfc2c4"/><path d="m65.71 73.09c0 0 2.925-1.413 3.783-4.03.859-2.617.288-5.981.288-5.981l1.372-3.176c0 0 1.767 2.167 3.378 2.332 4.482.457 6.476-5.864 17.386-7.289 3.637-.475 8.906-1.54 13.209-3.03 5.376-1.857 5.75-3.952 5.75-3.952l25.496 27.16 6.155 8.293-65.972.182c0 0-3.161-2.288-6.02-5.072-2.859-2.784-4.825-5.444-4.825-5.444" fill="#e2bb98"/><g fill="#421"><path d="m58.61 63.22c0 0-8.826-3.392-12.409-11.257-.623-1.367-1.077-2.811-1.35-4.301-.116-.633-2.394-4.199-2.394-4.199 0 0 2.095 1.423 2.092.993-.044-6.237 3.07-12.829 10.11-17.851 21.772-15.539 14.741-17.7 14.741-17.7 0 0 2.149-.7 3.578 1.876 1.448 2.611.529 4.621.529 4.621 0 0 2.892-2.373 2.921-8.261.019-3.968-4.706-6.777-4.706-6.777 0 0 15.603-1.296 21.363 10.327 2.584 5.216-1 12.25-7.096 15.462-4.41 2.325-13.773 7.389-16.598 9.406-5.422 3.872-5.631 7.807-5.631 7.807l2.356-1.271c-.001 0-1.766 2.634-2.69 5.114-1.16 3.114 7.737 12.689 7.737 12.689l-1.368 3.284c-.001 0-3.163-3.632-5.058-3.929-2.345-.368-6.125 3.967-6.125 3.967"/><path d="m72.31 60.863l-1.103 3.122-.581-.533 1.202-2.931.482.342"/></g><path d="m93.28 10.821c-3.214-8.182-11.415-9.04-11.415-9.04 0 0 5.596 1.01 7.681 10.145 2.627 11.513-11.944 18.507-11.944 18.507 0 0 2.313-.801 4.895-1.848 5.08-2.059 13.961-9.67 10.783-17.765" fill="#603719"/><g fill="#f2d3b3"><path d="m68.64 64.09c.122 2.935-2.157 5.414-5.093 5.537-2.934.123-5.414-2.157-5.536-5.092-.123-2.935 2.156-5.414 5.091-5.537 2.935-.123 5.414 2.157 5.538 5.092"/><path d="m98.32 43.38l5.323-1.298 1.217 3.39-.959 3.109-4.282.122-1.299-5.323"/></g><path d="m97.85 43.563c0 0 4.44-1.606 5.639-1.01 1.198.598.354 4.383-.297 5.433-.651 1.05-4.09.628-4.09.628 0 0 3.28 1.038 4.798-.029 1.517-1.066 1.984-6.106.563-6.877-1.421-.771-6.613 1.854-6.613 1.854" fill="#c69e87"/><g fill="#421"><path d="m79.08 35.986l5.382-4.496 4.356 2.046-4.989.58-4.749 1.87"/><path d="m94 32.974l1.33-3.937 3.527.413-2.9 1.465-1.957 2.059"/></g><path d="m107.1 53.933c0 .001-4.107 2.108-9.06 3.122-4.959 1.015-7.857 1.136-9.803.895-1.946-.241-2.361 5.261-2.361 5.261 0 0 5.194.751 11.225-1.599 6.03-2.35 10-7.679 10-7.679" fill="#442f26"/><path d="m87.69 59.1c-.611.832-.12 2.264-.12 2.264-.001 0 4.03-.008 8.333-1.317 4.3-1.31 5.501-3.457 5.501-3.457 0 0-3.498 1.222-7.671 1.719-4.174.498-5.433-.041-6.04.791" fill="#fff"/><path d="m103.09 62.17c0 0 .544 1.43-2.462 2.846-3.01 1.416-6.884 1.256-6.884 1.256 0 0 3.825 2.744 6.978.998 3.154-1.745 2.368-5.1 2.368-5.1" fill="#cea282"/><path d="m171.87 102.14l17.03-29.966 6.862-.502 33.743 25.04-5.062 7.525-29.25-20.5-10.932 41.971-14.169 10.918 1.781-34.489" fill="#a7aaaf"/><path d="m192.54 92.46l10.287-6.02 3.955 1.985 17.381 29.815-7.38 3.536-13.631-22.444-2.317 1.172-.322-2.567-13.649 18.209 5.676-23.683" fill="#838991"/><g fill="#000"><path d="m227.49 96.8l4.373-1.47 16.297-12.266 2.16 1.743-15.1 18.664-2.668.347.387 1.981-3.673 4.54-7.695-6.224 5.917-7.315"/><path d="m224.14 117.72l4.274 1.734 20.355 1.32.502 2.73-23.615 4.314-2.249-1.475-.998 1.754-5.745 1.05-1.779-9.736 9.255-1.691"/></g><path d="m71.39 83.5c-.001 0 18.911 22.707 45.2 39.24 26.288 16.536 53.666 17.97 53.666 17.97l6.855-31.475-4.04-9.08 4.597-8.366-22.914-7.859-27.899-19.05 8.994 14.465-13.913-3.504-10.575-.848c-.001 0-13.74 5.738-24.431 7.261-10.691 1.523-15.542 1.242-15.542 1.242" fill="#97dcff"/><path d="m110.93 74.8l10.154 1.08-10.198 3.01.044-4.089" fill="#79bff2"/><g fill="#82ccf9"><path d="m71.45 83.55c0 0 5.488.093 17.919-2.256 10.424-1.97 21.873-6.724 21.873-6.724l.109 7.739c0 0-8.553 1.218-21.21 1.964-12.659.745-18.689-.723-18.689-.723"/><path d="m124.9 62.948l6.701 2.058-2.596 3.497-4.105-5.555"/></g><g fill="#e8f3f9"><path d="m144.24 84.16c.035.833-.613 1.537-1.446 1.572-.833.035-1.537-.612-1.573-1.446-.034-.833.614-1.537 1.447-1.572.833-.035 1.537.612 1.572 1.446"/><path d="m156.2 90c.035.833-.612 1.537-1.446 1.572-.833.035-1.537-.612-1.572-1.446-.035-.833.613-1.537 1.446-1.572.833-.035 1.537.612 1.572 1.446"/><path d="m167.47 94.58c.034.834-.613 1.538-1.447 1.573-.833.035-1.537-.613-1.572-1.446-.035-.834.613-1.537 1.446-1.572.834-.035 1.537.612 1.573 1.445"/></g></g></g></svg>