<svg width="1235" height="704" viewBox="0 0 1235 704" xmlns="http://www.w3.org/2000/svg"><g fill="none" fill-rule="evenodd"><g fill="#e0f2ff"><path d="m672.18 44.48c-9.486 0-17.18-7.69-17.18-17.18 0-9.486 7.69-17.18 17.18-17.18 1.073 0 2.124.098 3.143.287 2.625-6.125 8.708-10.416 15.794-10.416 8.835 0 16.11 6.672 17.07 15.252 1.796-.747 3.765-1.159 5.832-1.159 8.391 0 15.194 6.802 15.194 15.194 0 8.244-6.566 14.954-14.753 15.187v.006h-42.28"/><path d="m262.09 703.13c-5.573 0-10.09-4.518-10.09-10.09 0-5.573 4.518-10.09 10.09-10.09.631 0 1.248.058 1.847.169 1.542-3.599 5.117-6.12 9.28-6.12 5.191 0 9.467 3.92 10.03 8.961 1.055-.439 2.212-.681 3.426-.681 4.93 0 8.927 3.997 8.927 8.927 0 4.844-3.858 8.786-8.668 8.923v.004h-24.84"/><path d="m1187.9 482c-7.677 0-13.901-6.224-13.901-13.901 0-7.677 6.224-13.901 13.901-13.901.869 0 1.719.08 2.544.232 2.124-4.957 7.05-8.43 12.783-8.43 7.151 0 13.04 5.4 13.815 12.344 1.453-.605 3.048-.938 4.72-.938 6.791 0 12.297 5.506 12.297 12.297 0 6.672-5.314 12.1-11.941 12.292v.005h-34.22"/><path d="m13.901 426c-7.677 0-13.901-6.224-13.901-13.901 0-7.677 6.224-13.901 13.901-13.901.869 0 1.719.08 2.544.232 2.124-4.957 7.05-8.43 12.783-8.43 7.151 0 13.04 5.4 13.815 12.344 1.453-.605 3.048-.938 4.72-.938 6.791 0 12.297 5.506 12.297 12.297 0 6.672-5.314 12.1-11.941 12.292v.005h-34.22"/></g><g transform="translate(226 151)"><path d="m268.68 429.91c0 0 7.79 0 10.907-3.115 7.098-21.634 17.745-57.636 24.06-78.57.244-9.692.028-11.423-8.31-11.423-7.271 0-8.767 1.353-8.767 11.676 0 8.654-22.05 74.51-22.05 74.51l4.155 6.923" fill="#333"/><path d="m297.77 184.21v16.231c0 .001-11.08 19.09-11.08 64.21v83.58h16.966l.055-83.77c0 0 0-41.883 15.525-61.867v-13.13l24.24-5.251v-9.06h-45.703v9.06" fill="#1a1a1a"/><path d="m643.21 100.47c-33.391-1.793-140.49-9.706-198.96-14.07-71.872 4.368-202.43 12.281-235.82 14.07-46.742 2.506-36.01-32.17-36.01-32.17 2.161-7.297 8.656-8.07 8.656-8.07 0 0 41.42-1.066 55.23-1.565 78.8-2.845 190.6-20.727 190.6-20.727.001 0 109.63 17.882 188.43 20.727 13.801.498 55.23 1.565 55.23 1.565 0 0 6.489.775 8.656 8.07.001 0 10.733 34.677-36.01 32.17" fill="#4d4d4d"/><path d="m616.3 39.658c0 0 14.818 3.308 34.03 3.308 19.215 0 20.672-3.308 20.672-3.308v24.934c.001 0-.037.007-.041.016.001.017-.01.033-.01.049 0 2.406-12.201 4.358-27.24 4.358-15.04 0-27.24-1.952-27.24-4.358 0-.021-.081-.042-.079-.062l-.099-.003v-24.934" fill="#666"/><path d="m616.48 39.722c0 2.407 12.192 5.376 27.23 5.376 15.04 0 27.23-2.969 27.23-5.376 0-2.406-12.192-4.357-27.23-4.357-15.04 0-27.23 1.951-27.23 4.357" fill="#333"/><path d="m633.62 40.17c.001 0-.001-.004-.001-.006l.001-.005v-21.466h21.467v21.461h-.271c-.424.692-5.02 1.578-10.649 1.578-5.624 0-10.224-.886-10.648-1.578h.1v.015" fill="#4d4d4d"/><path d="m632.46 19.815c0-.583.268-1.11.701-1.49.075-.08.185-.16.328-.24.016-.01.032-.019.048-.028.069-.036.145-.073.226-.109.071-.032.141-.064.215-.09 1.709-.667 5.592-1.276 10.114-1.276 4.531 0 8.425.611 10.129 1.281.056.019.109.008.163.031.109.047.207.105.294.105.177 0 .303.228.379.323.411.378.668.908.668 1.475 0 .551-.245 1.058-.636 1.433-.55.839-5.264 1.852-10.996 1.852-5.654 0-10.311-.978-10.964-1.81-.412-.379-.669-.89-.669-1.457" fill="#999"/><g fill="#808080"><path d="m633.27 19.384c0 0 2.238-19.434 10.629-19.434 8.391 0 10.488 19.434 10.488 19.434h-.014c0 0 .02.003.02.024 0 .93-4.713 2.057-10.527 2.057-5.813 0-10.526-1.117-10.526-2.047 0-.022.015-.035.015-.035h-.085"/><path d="m606.53 23.343c10.171 0 19.531.701 26.961 1.876l4.937 12.985c-7.979 1.715-19.317 2.788-31.898 2.788-24.16 0-43.738-3.951-43.738-8.825 0-4.874 19.582-8.825 43.738-8.825"/><path d="m681.73 23.343c-10.172 0-19.531.701-26.961 1.876l-4.938 12.985c7.979 1.715 19.317 2.788 31.899 2.788 24.16 0 43.738-3.951 43.738-8.825 0-4.874-19.582-8.825-43.738-8.825"/></g><path d="m585.06 429.91c0 0-7.79 0-10.907-3.115-7.099-21.634-17.745-57.636-24.06-78.57-.244-9.692-.028-11.423 8.31-11.423 7.271 0 8.767 1.353 8.767 11.676 0 8.654 22.05 74.51 22.05 74.51l-4.155 6.923" fill="#333"/><path d="m556.06 184.21v16.231c0 .001 11.08 19.09 11.08 64.21v83.58h-17.05l-.014-83.77c0 0-.249-41.883-15.484-61.867v-13.13l-24.24-5.251v-9.06h45.703v9.06" fill="#1a1a1a"/><path d="m795.99 155.07c0 15.313-16.799 6.376-22.402 8.307-7.271 2.506-12.984 18.17-73.58 6.06-60.59-12.11-112.01-4.154-112.01-4.154.001 0-6.925 19.46-79.29 7.345 0 0-9.348-3.191-11.426 2.52-2.077 5.711-13.85 21.98-13.85 21.98 0 0-2.728 1.038-16.578 1.038-10.865 0-30.337 13.1-38.22 18.747-.665.478-1.246.9-1.731 1.253-.485-.36-1.066-.775-1.731-1.253-7.901-5.642-27.394-18.747-38.26-18.747-13.85 0-16.619-1.038-16.619-1.038.001 0-11.772-16.269-13.85-21.98-2.077-5.711-11.426-2.52-11.426-2.52-72.36 12.11-79.29-7.345-79.29-7.345 0 0-51.42-7.961-112.01 4.154-60.59 12.11-66.3-3.551-73.58-6.06-5.602-1.931-22.395 7.01-22.395-8.307 0-20.422 12.05-21.461 12.05-21.461l90.58-13.153c119.11-32.537 138.93-44.31 189.48-65.07 43.29-17.785 70.2-17.799 77.04-17.439 6.842-.36 33.717-.339 76.997 17.439 50.551 20.769 70.35 32.537 189.45 65.07l90.58 13.153c0 0 12.05 1.038 12.05 21.461" fill="#666"/><g fill="#1a1a1a"><path d="m528.96 107.54c.913.514 2.08.189 2.594-.723 0 0 2.85-6.531 4.02-8.613 1.132-2.01 5.198-7.747 5.198-7.747.515-.912.188-2.079-.724-2.593-.913-.514-2.08-.189-2.594.723 0 0-4 5.628-5.116 7.6-1.195 2.118-4.106 8.759-4.106 8.759-.515.912-.188 2.08.724 2.593"/><path d="m521.3 106.2c.913.514 2.08.188 2.594-.723 0 0 2.85-6.531 4.02-8.613 1.132-2.01 5.199-7.747 5.199-7.747.515-.912.188-2.078-.724-2.593-.912-.514-2.08-.188-2.594.724 0 0-4 5.628-5.116 7.6-1.194 2.118-4.106 8.759-4.106 8.759-.514.912-.188 2.079.724 2.593"/><path d="m514.38 104.64c.912.514 2.08.188 2.594-.723.001 0 2.85-6.531 4.02-8.613 1.132-2.01 5.199-7.747 5.199-7.747.514-.912.188-2.078-.724-2.593-.913-.514-2.08-.188-2.594.724 0 0-4 5.628-5.116 7.6-1.195 2.118-4.106 8.759-4.106 8.759-.515.912-.189 2.079.724 2.593"/><path d="m507.5 103.38c.913.514 2.08.189 2.595-.723 0 0 2.85-6.531 4.02-8.613 1.133-2.01 5.199-7.747 5.199-7.747.515-.912.188-2.079-.724-2.593-.913-.514-2.08-.189-2.594.723 0 0-4 5.628-5.116 7.6-1.195 2.118-4.106 8.759-4.106 8.759-.515.912-.188 2.08.724 2.593"/></g><path d="m705.63 99.69c0 0 19.995 4.5 46.14 4.5 26.14 0 27.959-4.5 27.959-4.5v33.922c0 0-.046.009-.052.021.001.023-.01.045-.01.067 0 3.275-16.597 5.929-37.06 5.929-20.461 0-37.05-2.654-37.05-5.929 0-.028.049-.057.052-.084l.026-.003v-33.922" fill="#808080"/><path d="m705.55 99.78c0 3.274 16.586 7.312 37.05 7.312 20.461 0 37.05-4.04 37.05-7.312 0-3.275-16.587-5.929-37.05-5.929-20.461 0-37.05 2.654-37.05 5.929" fill="#4d4d4d"/><path d="m728.49 100.38c0 0-.002-.004-.002-.007 0 0 .002-.005.002-.007v-29.06h29.08v29.08h.131c-.576 1.385-6.834 2.147-14.486 2.147-7.653 0-13.91-.762-14.487-2.147h-.242v.001" fill="#666"/><path d="m727.29 72.7c0-.794.366-1.511.954-2.029.1-.108.251-.217.446-.326.021-.012.044-.024.065-.037.093-.049.197-.099.308-.148.096-.044.191-.087.293-.122 2.325-.908 7.608-1.736 13.759-1.736 6.165 0 11.462.831 13.78 1.742.077.027.148.06.222.091.147.064.282.127.4.192.24.131.412.261.516.39.56.514.909 1.211.909 1.983 0 .749-.333 1.427-.866 1.936-.747 1.142-7.161 2.514-14.96 2.514-7.692 0-14.03-1.334-14.915-2.467-.562-.514-.911-1.212-.911-1.983" fill="#b3b3b3"/><g fill="#999"><path d="m728.4 71.998c0 0 3.044-26.438 14.46-26.438 11.415 0 14.269 26.438 14.269 26.438h-.019c.007 0 .028.059.028.089 0 1.265-6.412 2.827-14.321 2.827-7.909 0-14.321-1.562-14.321-2.827 0-.03.021-.089.028-.089h-.123"/><path d="m692.01 77.49c13.838 0 26.572.954 36.678 2.552l6.718 17.666c-10.855 2.334-26.28 3.793-43.4 3.793-32.862 0-59.5-5.376-59.5-12.01 0-6.63 26.64-12.01 59.5-12.01"/><path d="m794.32 77.49c-13.838 0-26.572.954-36.678 2.552l-6.718 17.666c10.855 2.334 26.28 3.793 43.4 3.793 32.862 0 59.5-5.376 59.5-12.01 0-6.63-26.64-12.01-59.5-12.01"/></g><g fill="#1a1a1a"><path d="m324.78 107.54c-.913.514-2.08.189-2.595-.723 0 0-2.85-6.531-4.02-8.613-1.132-2.01-5.198-7.747-5.198-7.747-.515-.912-.189-2.079.724-2.593.913-.514 2.08-.189 2.594.723.001 0 4 5.628 5.116 7.6 1.195 2.118 4.106 8.759 4.106 8.759.514.912.188 2.08-.724 2.593"/><path d="m332.44 106.2c-.913.514-2.08.188-2.594-.723 0 0-2.85-6.531-4.02-8.613-1.132-2.01-5.199-7.747-5.199-7.747-.515-.912-.188-2.078.724-2.593.913-.514 2.08-.188 2.595.724 0 0 4 5.628 5.116 7.6 1.194 2.118 4.106 8.759 4.106 8.759.515.912.188 2.079-.724 2.593"/><path d="m339.36 104.64c-.913.514-2.08.188-2.594-.723 0 0-2.85-6.531-4.02-8.613-1.132-2.01-5.199-7.747-5.199-7.747-.514-.912-.188-2.078.724-2.593.913-.514 2.08-.188 2.595.724 0 0 4 5.628 5.116 7.6 1.194 2.118 4.106 8.759 4.106 8.759.515.912.189 2.079-.724 2.593"/><path d="m346.24 103.38c-.912.514-2.08.189-2.594-.723 0 0-2.85-6.531-4.02-8.613-1.132-2.01-5.199-7.747-5.199-7.747-.514-.912-.188-2.079.724-2.593.913-.514 2.08-.189 2.594.723 0 0 4 5.628 5.116 7.6 1.195 2.118 4.106 8.759 4.106 8.759.515.912.188 2.08-.724 2.593"/></g><path d="m235.44 39.658c0 0-14.818 3.308-34.03 3.308-19.216 0-20.673-3.308-20.673-3.308v24.934c.001 0-.012.007-.007.016-.001.017-.015.033-.015.049 0 2.406 12.188 4.358 27.23 4.358 15.04 0 27.23-1.952 27.23-4.358 0-.021.126-.042.125-.062l.145-.003v-24.934" fill="#666"/><path d="m235.17 39.722c0 2.407-12.192 5.376-27.23 5.376-15.04 0-27.23-2.969-27.23-5.376 0-2.406 12.192-4.357 27.23-4.357 15.04 0 27.23 1.951 27.23 4.357" fill="#333"/><path d="m218.13 40.17c.001 0 .002-.004.002-.006l-.002-.005v-21.466h-21.467v21.461h.174c.424.692 5.02 1.578 10.648 1.578 5.624 0 10.224-.886 10.648-1.578h-.003v.015" fill="#4d4d4d"/><path d="m219.19 19.815c0-.583-.268-1.11-.701-1.49-.073-.08-.184-.16-.328-.24-.016-.01-.032-.019-.048-.028-.069-.036-.145-.073-.226-.109-.071-.032-.141-.064-.215-.09-1.709-.667-5.592-1.276-10.114-1.276-4.532 0-8.425.611-10.13 1.281-.056.019-.109.008-.163.031-.108.047-.207.105-.294.105-.177 0-.303.228-.379.323-.411.378-.668.908-.668 1.475 0 .551.245 1.058.637 1.433.549.839 5.264 1.852 10.996 1.852 5.654 0 10.31-.978 10.963-1.81.413-.379.669-.89.669-1.457" fill="#999"/><g fill="#808080"><path d="m218.38 19.384c0 0-2.237-19.434-10.629-19.434-8.391 0-10.488 19.434-10.488 19.434h.015c-.006 0-.021.003-.021.024 0 .93 4.713 2.057 10.527 2.057 5.814 0 10.526-1.117 10.526-2.047 0-.022-.015-.035-.015-.035h.084"/><path d="m245.12 23.343c-10.171 0-19.531.701-26.96 1.876l-4.938 12.985c7.979 1.715 19.317 2.788 31.898 2.788 24.16 0 43.738-3.951 43.738-8.825 0-4.874-19.582-8.825-43.738-8.825"/><path d="m169.92 23.343c10.172 0 19.532.701 26.961 1.876l4.938 12.985c-7.979 1.715-19.317 2.788-31.899 2.788-24.16 0-43.738-3.951-43.738-8.825 0-4.874 19.582-8.825 43.738-8.825"/><path d="m148.19 99.69c0 0-19.995 4.5-46.14 4.5-26.14 0-27.959-4.5-27.959-4.5v33.922c0 0 .004.009.011.021-.002.023-.011.045-.011.067 0 3.275 16.587 5.929 37.05 5.929 20.461 0 37.05-2.654 37.05-5.929 0-.028-.01-.057-.014-.084l.014-.003v-33.922"/></g><path d="m148.19 99.78c0 3.274-16.586 7.312-37.05 7.312-20.461 0-37.05-4.04-37.05-7.312 0-3.275 16.587-5.929 37.05-5.929 20.461 0 37.05 2.654 37.05 5.929" fill="#4d4d4d"/><path d="m125.34 100.38c0 0 .002-.004.002-.007 0 0-.002-.005-.002-.007v-29.06h-29.08v29.08h-.214c.576 1.385 6.834 2.147 14.486 2.147 7.652 0 13.91-.762 14.487-2.147h.325v.001" fill="#666"/><path d="m126.45 72.7c0-.794-.366-1.511-.954-2.029-.101-.108-.252-.217-.446-.326-.021-.012-.044-.024-.065-.037-.093-.049-.197-.099-.308-.148-.096-.044-.192-.087-.293-.122-2.325-.908-7.608-1.736-13.76-1.736-6.164 0-11.461.831-13.78 1.742-.076.027-.147.06-.221.091-.147.064-.282.127-.4.192-.24.131-.413.261-.517.39-.56.514-.909 1.211-.909 1.983 0 .749.334 1.427.867 1.936.747 1.142 7.161 2.514 14.959 2.514 7.692 0 14.03-1.334 14.915-2.467.562-.514.911-1.212.911-1.983" fill="#b3b3b3"/><g fill="#999"><path d="m125.34 71.998c0 0-3.045-26.438-14.46-26.438-11.415 0-14.27 26.438-14.27 26.438h.02c-.007.029-.028.059-.028.089 0 1.265 6.412 2.827 14.322 2.827 7.909 0 14.321-1.562 14.321-2.827 0-.03-.021-.06-.028-.089h.123"/><path d="m161.73 77.49c-13.838 0-26.572.954-36.678 2.552l-6.718 17.666c10.856 2.334 26.28 3.793 43.4 3.793 32.861 0 59.5-5.376 59.5-12.01 0-6.63-26.64-12.01-59.5-12.01"/><path d="m59.42 77.49c13.838 0 26.571.954 36.678 2.552l6.718 17.666c-10.855 2.334-26.28 3.793-43.4 3.793-32.862 0-59.5-5.376-59.5-12.01 0-6.63 26.64-12.01 59.5-12.01"/></g><path d="m647.78 413.99h-444.84l20.774-146.23h403.3l20.774 146.23" fill="#f2f2f2"/><g fill="#ccc"><path d="m283.72 414.07h-18.569l13.85-146.32h18.569l-13.85 146.32"/><path d="m570.11 414.07h18.57l-13.85-146.32h-18.57l13.85 146.32"/></g><path d="m781.22 177.4c-7.271 2.506-20.601 7.442-81.19-4.673-60.59-12.11-110.11-3.808-110.11-3.808 0 0-2.153 4.223-12.388 7.283v27.331c.001 0 15.234 27.691 15.234 93.11v120.11c0 0 1.773 13.153-7.922 13.153-9.695 0-10.775-3.808-10.775-13.846v-58.36-61.41c0 0 4.155-56.767-27.699-89.65v-19.04l-36.01-7.615v-4.493c-.713-.111-1.433-.228-2.161-.353 0 0-4.411-1.558-6.489 4.154-2.077 5.711-15.671 26.48-15.671 26.48 0 0-7.728 13.555-21.467 13.673h-75.4c-13.739-.118-21.467-13.673-21.467-13.673.001 0-13.593-20.769-15.67-26.48-2.077-5.711-6.489-4.154-6.489-4.154-.699.118-1.392.228-2.077.339v4.507l-36.01 7.615v19.04c-31.854 32.884-27.699 89.65-27.699 89.65v119.77c0 10.04-1.08 13.846-10.775 13.846-9.695 0-7.922-13.153-7.922-13.153v-120.11c0-65.42 15.234-93.11 15.234-93.11v-27.311c-10.304-3.06-12.472-7.304-12.472-7.304 0 0-49.52-8.307-110.11 3.808-60.59 12.11-73.922 7.186-81.19 4.673-5.595-1.931-14.743-7.442-14.743-22.326 64.788 15.923 99.64-.685 132.48-5.538 155.73-23.03 224.83-23.794 236.56-23.732 12.285-.055 81.39.768 236.71 23.732 32.837 4.853 67.65 21.461 132.44 5.538 0 14.884-9.148 20.395-14.743 22.326" fill="#4d4d4d"/><path d="m449.76 172.73c0 13.477-10.929 24.403-24.41 24.403-13.481 0-24.41-10.926-24.41-24.403 0-13.477 10.929-24.403 24.41-24.403 13.481 0 24.41 10.926 24.41 24.403" fill="#333"/><path d="m441.45 172.73c0 8.89-7.208 16.1-16.1 16.1-8.892 0-16.1-7.206-16.1-16.1 0-8.89 7.208-16.1 16.1-16.1 8.892 0 16.1 7.206 16.1 16.1" fill="#666"/><text font-family="Akkurat" font-size="24" font-weight="bold" line-spacing="22" fill="#8c8c8c"><tspan x="296.74" y="352.01">Stable and hassle-free</tspan></text></g></g></svg>