<svg xmlns="http://www.w3.org/2000/svg" xmlns:xlink="http://www.w3.org/1999/xlink" viewBox="0 0 896 170" enable-background="new 0 0 896 170"><defs><path id="8" d="m215.9 128.7c-9.8 0-17.7 7.8-17.7 17.4 0 9.6 7.9 17.4 17.7 17.4 9.8 0 17.7-7.8 17.7-17.4.1-9.5-7.9-17.4-17.7-17.4"/><path id="9" d="m159.2 128.7c-9.8 0-17.7 7.8-17.7 17.4 0 9.6 7.9 17.4 17.7 17.4 9.8 0 17.7-7.8 17.7-17.4 0-9.5-8-17.4-17.7-17.4"/><path id="A" d="m195 146v8.8c-4 1.1-8 1.1-13 0v-8.8h13"/><path id="B" d="m224.1 146.2c0-4.4-3.6-8.3-8.1-8.3-2.2 0-4.2 1-5.6 2h-45.5c-1.5-1-3.5-2-5.7-2-4.5 0-8.1 3.7-8.1 8.1 0 4.4 3.6 8.2 8.1 8.2 3.2 0 5.9-2.3 7.3-4.3h42.2c1.3 2 4.1 4.3 7.3 4.3 4.5.1 8.1-3.6 8.1-8"/><path id="C" d="m785 128.7c-9.8 0-17.7 7.8-17.7 17.4 0 9.6 7.9 17.4 17.7 17.4 9.8 0 17.7-7.8 17.7-17.4 0-9.5-7.9-17.4-17.7-17.4"/><path id="D" d="m728.2 128.7c-9.8 0-17.7 7.8-17.7 17.4 0 9.6 7.9 17.4 17.7 17.4 9.8 0 17.7-7.8 17.7-17.4 0-9.5-7.9-17.4-17.7-17.4"/><path id="E" d="m764 146v8.8c-4 1.1-9 1.1-13 0v-8.8h13"/><path id="F" d="m793.1 146.2c0-4.4-3.6-8.3-8.1-8.3-2.2 0-4.2 1-5.6 2h-45.5c-1.5-1-3.5-2-5.7-2-4.5 0-8.1 3.7-8.1 8.1 0 4.4 3.6 8.2 8.1 8.2 3.2 0 5.9-2.3 7.3-4.3h42.2c1.3 2 4.1 4.3 7.3 4.3 4.5.1 8.1-3.6 8.1-8"/><clipPath id="6"><use xlink:href="#E"/></clipPath><clipPath id="5"><use xlink:href="#D"/></clipPath><clipPath id="7"><use xlink:href="#F"/></clipPath><clipPath id="4"><use xlink:href="#C"/></clipPath><clipPath id="3"><use xlink:href="#B"/></clipPath><clipPath id="0"><use xlink:href="#8"/></clipPath><clipPath id="2"><use xlink:href="#A"/></clipPath><clipPath id="1"><use xlink:href="#9"/></clipPath></defs><path clip-path="url(#4)" fill="#ccc" d="m762 123h46v46h-46z"/><path clip-path="url(#5)" fill="#ccc" d="m705 123h46v46h-46z"/><path clip-path="url(#6)" fill="#808080" d="m746 140h23v21h-23z"/><path clip-path="url(#7)" fill="#808080" d="m715 133h83v27h-83z"/><path clip-path="url(#0)" fill="#ccc" d="m193 123h46v46h-46z"/><path clip-path="url(#1)" fill="#ccc" d="m136 123h46v46h-46z"/><path clip-path="url(#2)" fill="#808080" d="m177 140h24v21h-24z"/><g fill="#808080"><path clip-path="url(#3)" d="m146 133h84v27h-84z"/><path d="m244 139h454v18h-454z"/><path d="m132 157c0 0-101 0-126.9 0-3.8 0 22.8-5.3 22.8-10.3 0-3.4-5.7-7.7-5.7-7.7h109.8v18"/><path d="m846.1 157h-32.1v-18h63.7z"/></g><path fill="#c4c3c2" d="m877 23h19v103h-19z"/><path fill="#dddcdb" d="M5.7,93.5c0,0,73-65.8,154-84.4L878,8.9V140H21.9c0,0-14.7-2.8-19.4-19.8S5.7,93.5,5.7,93.5z"/><path fill="#e6e6e6" d="M878,91V8.9L159.6,9.3C88.9,25.5,24.2,77,9,91H878z"/><g fill="#808080"><path d="m177 18.3c0 0-84.8 62.1-151.3 58.8 0 0 54.8-45 103.3-58.9l48 .1"/><path d="m248 68c0 1.1-.9 2-2 2h-53c-1.1 0-2-.9-2-2v-29c0-1.1.9-2 2-2h53c1.1 0 2 .9 2 2v29"/><path d="m325 68c0 1.1-.9 2-2 2h-53c-1.1 0-2-.9-2-2v-29c0-1.1.9-2 2-2h53c1.1 0 2 .9 2 2v29"/><path d="m765 68c0 1.1-.9 2-2 2h-53c-1.1 0-2-.9-2-2v-29c0-1.1.9-2 2-2h53c1.1 0 2 .9 2 2v29"/><path d="m842 68c0 1.1-.9 2-2 2h-53c-1.1 0-2-.9-2-2v-29c0-1.1.9-2 2-2h53c1.1 0 2 .9 2 2v29"/></g><path fill="#dddcdb" d="m127.5 18.3l750.5.5v-10.8c0 0-542.3 0-718.1 0-3.9 0-32.4 10.3-32.4 10.3"/><path fill="#d1d1d1" d="M4.6,126c5.9,12,17.3,14,17.3,14H878v-14H4.6z"/></svg>