<svg width="872" height="338" viewBox="0 0 872 338" xmlns="http://www.w3.org/2000/svg"><g fill="none" fill-rule="evenodd" transform="translate(0 1)"><g fill="#fff"><path d="m540.31 253c-44.36 0-80.31-35.958-80.31-80.31 0-44.36 35.958-80.31 80.31-80.31 5.02 0 9.932.46 14.696 1.342 12.274-28.642 40.722-48.707 73.856-48.707 41.32 0 75.35 31.2 79.82 71.32 8.397-3.493 17.608-5.422 27.27-5.422 39.24 0 71.05 31.809 71.05 71.05 0 38.55-30.702 69.928-68.988 71.02v.029h-197.7" opacity=".746"/><path d="m26.312 67.5c-14.502 0-26.26-11.756-26.26-26.26 0-14.502 11.756-26.26 26.26-26.26 1.641 0 3.247.151 4.805.439 4.01-9.364 13.313-15.924 24.15-15.924 13.508 0 24.633 10.199 26.09 23.317 2.745-1.142 5.757-1.772 8.915-1.772 12.828 0 23.23 10.399 23.23 23.23 0 12.603-10.04 22.862-22.554 23.22v.01h-64.63" opacity=".828" fill-opacity=".74"/><path d="m359.31 181.32c-7.611-102.96-133.82-136.89-185.4-48.724-33.46-20.319-76.13 3.589-78.81 45.594-36.684 4.826-65.1 38.39-65.1 79.1 0 44.02 33.22 79.72 74.21 79.72h232.58c40.985 0 74.21-35.692 74.21-79.72 0-35.59-21.717-65.724-51.69-75.966" opacity=".918"/><path d="m862.53 274.25c-1.283-17.362-22.566-23.08-31.26-8.216-5.642-3.426-12.838.605-13.289 7.688-6.186.814-10.978 6.473-10.978 13.338 0 7.424 5.602 13.442 12.513 13.442h39.22c6.911 0 12.514-6.02 12.514-13.442 0-6-3.662-11.08-8.716-12.81" opacity=".918"/><path d="m836.88 21.376c-1.638-22.16-28.801-29.461-39.903-10.487-7.201-4.373-16.385.772-16.961 9.813-7.895 1.039-14.01 8.262-14.01 17.02 0 9.475 7.151 17.16 15.971 17.16h50.06c8.821 0 15.972-7.682 15.972-17.16 0-7.66-4.674-14.15-11.125-16.35" opacity=".426" transform="matrix(-1 0 0 1 1614 0)"/></g><g fill="#4a4a4a"><path d="m136.37 219.81c0-4.704-3.318-7.728-8.274-8.442-1.638-.252-3.276-.546-4.956-.756-2.226-.294-4.452-1.512-4.452-4.2 0-1.344.462-2.352 1.218-3.234 1.302-1.47 3.15-2.058 5.292-2.058 2.31 0 4.116.756 5.25 2.058.84.966 1.386 2.268 1.47 3.738h3.906c-.084-2.52-1.05-4.662-2.856-6.384-1.974-1.89-4.83-2.856-7.728-2.856-3.108 0-5.754 1.01-7.812 2.94-1.596 1.512-2.604 3.654-2.604 5.88 0 4.746 3.486 7.224 7.938 7.896 1.596.252 3.066.462 4.704.714 3.528.546 4.998 2.478 4.998 4.788 0 1.596-.588 2.646-1.512 3.486-1.344 1.26-3.276 1.722-5.544 1.722-2.1 0-4.368-.546-5.712-1.848-1.218-1.176-2.1-2.94-2.1-4.704h-3.906c0 2.814 1.302 5.376 3.192 7.14 2.02 1.848 4.914 2.856 8.526 2.856 3.192 0 6.384-.966 8.442-2.982 1.47-1.428 2.52-3.276 2.52-5.754m28.01-6.678c0-4.746-.588-9.114-3.822-12.264-2.142-2.1-5.04-3.192-8.02-3.192-2.982 0-5.88 1.092-8.02 3.192-3.234 3.15-3.822 7.518-3.822 12.264 0 4.746.588 9.114 3.822 12.264 2.142 2.1 5.04 3.192 8.02 3.192 2.982 0 5.88-1.092 8.02-3.192 3.234-3.15 3.822-7.518 3.822-12.264m-3.864 0c0 3.108-.126 7.14-2.562 9.66-1.428 1.47-3.402 2.226-5.418 2.226-2.02 0-3.99-.756-5.418-2.226-2.436-2.52-2.562-6.552-2.562-9.66 0-3.108.126-7.14 2.562-9.66 1.428-1.47 3.402-2.226 5.418-2.226 2.02 0 3.99.756 5.418 2.226 2.436 2.52 2.562 6.552 2.562 9.66m29.568-11.466v-3.444h-19.278v29.778h3.738v-13.1h13.86v-3.528h-13.86v-9.702h15.54m23.23.042v-3.486h-21.504v3.486h8.862v26.292h3.78v-26.292h8.862m35.406-3.486h-3.402l-4.746 24.23-6.888-23.814h-3.36l-6.888 23.856-4.746-24.276h-3.486l5.964 29.778h3.948l6.888-23.982 6.804 23.982h3.99l5.922-29.778m27.09 29.778l-10.542-29.778h-4.368l-10.5 29.778h3.78l2.394-7.06h12.936l2.436 7.06h3.864m-7.518-10.584h-10.542l5.25-15.456 5.292 15.456m33.768 10.584l-5.964-13.1c1.428-.462 2.688-1.176 3.57-2.1 1.428-1.512 2.268-3.276 2.268-5.88 0-2.604-.924-4.536-2.352-6.05-1.638-1.68-4.074-2.646-7.56-2.646h-11.676v29.778h3.738v-12.39h8.232l5.628 12.39h4.116m-3.99-21.08c0 3.78-2.52 5.208-6.05 5.208h-7.938v-10.458h7.938c3.528 0 6.05 1.47 6.05 5.25m29.988 21.08v-3.444h-16.17v-10.29h14.196v-3.528h-14.196v-9.07h16.17v-3.444h-19.908v29.778h19.908m-175.66 32.81c0-4.704-3.318-7.728-8.274-8.442-1.638-.252-3.276-.546-4.956-.756-2.226-.294-4.452-1.512-4.452-4.2 0-1.344.462-2.352 1.218-3.234 1.302-1.47 3.15-2.058 5.292-2.058 2.31 0 4.116.756 5.25 2.058.84.966 1.386 2.268 1.47 3.738h3.906c-.084-2.52-1.05-4.662-2.856-6.384-1.974-1.89-4.83-2.856-7.728-2.856-3.108 0-5.754 1.01-7.812 2.94-1.596 1.512-2.604 3.654-2.604 5.88 0 4.746 3.486 7.224 7.938 7.896 1.596.252 3.066.462 4.704.714 3.528.546 4.998 2.478 4.998 4.788 0 1.596-.588 2.646-1.512 3.486-1.344 1.26-3.276 1.722-5.544 1.722-2.1 0-4.368-.546-5.712-1.848-1.218-1.176-2.1-2.94-2.1-4.704h-3.906c0 2.814 1.302 5.376 3.192 7.14 2.02 1.848 4.914 2.856 8.526 2.856 3.192 0 6.384-.966 8.442-2.982 1.47-1.428 2.52-3.276 2.52-5.754m27.22-2.73v-18.858h-3.738v18.942c0 4.746-1.974 7.896-7.14 7.896-5.166 0-7.14-3.15-7.14-7.896v-18.942h-3.738v18.858c0 7.434 4.2 11.466 10.878 11.466 6.678 0 10.878-4.03 10.878-11.466m28.434-9.87c0-2.604-.84-4.746-2.268-6.3-1.596-1.722-4.074-2.688-7.56-2.688h-11.05v29.778h3.738v-11.55h7.35c3.276 0 5.712-.882 7.308-2.478 1.596-1.596 2.478-3.864 2.478-6.762m-3.864 0c0 3.99-2.02 5.838-6.01 5.838h-7.266v-11.424h7.224c3.696 0 6.05 1.806 6.05 5.586m30.2 0c0-2.604-.84-4.746-2.268-6.3-1.596-1.722-4.074-2.688-7.56-2.688h-11.05v29.778h3.738v-11.55h7.35c3.276 0 5.712-.882 7.308-2.478 1.596-1.596 2.478-3.864 2.478-6.762m-3.864 0c0 3.99-2.02 5.838-6.01 5.838h-7.266v-11.424h7.224c3.696 0 6.05 1.806 6.05 5.586m31.04 5.922c0-4.746-.588-9.114-3.822-12.264-2.142-2.1-5.04-3.192-8.02-3.192-2.982 0-5.88 1.092-8.02 3.192-3.234 3.15-3.822 7.518-3.822 12.264 0 4.746.588 9.114 3.822 12.264 2.142 2.1 5.04 3.192 8.02 3.192 2.982 0 5.88-1.092 8.02-3.192 3.234-3.15 3.822-7.518 3.822-12.264m-3.864 0c0 3.108-.126 7.14-2.562 9.66-1.428 1.47-3.402 2.226-5.418 2.226-2.02 0-3.99-.756-5.418-2.226-2.436-2.52-2.562-6.552-2.562-9.66 0-3.108.126-7.14 2.562-9.66 1.428-1.47 3.402-2.226 5.418-2.226 2.02 0 3.99.756 5.418 2.226 2.436 2.52 2.562 6.552 2.562 9.66m32 14.868l-5.964-13.1c1.428-.462 2.688-1.176 3.57-2.1 1.428-1.512 2.268-3.276 2.268-5.88 0-2.604-.924-4.536-2.352-6.05-1.638-1.68-4.074-2.646-7.56-2.646h-11.676v29.778h3.738v-12.39h8.232l5.628 12.39h4.116m-3.99-21.08c0 3.78-2.52 5.208-6.05 5.208h-7.938v-10.458h7.938c3.528 0 6.05 1.47 6.05 5.25m27.93-5.208v-3.486h-21.504v3.486h8.862v26.292h3.78v-26.292h8.862"/><path d="m578.68 148.51h-3.864c-.042 1.638-.672 3.192-1.638 4.284-1.176 1.302-3.15 2.268-5.418 2.268-2.02 0-3.99-.798-5.418-2.268-2.436-2.52-2.52-6.552-2.52-9.66 0-3.108.084-7.14 2.52-9.66 1.428-1.47 3.402-2.268 5.418-2.268 2.268 0 4.2.882 5.376 2.184.966 1.092 1.596 2.52 1.638 4.158h3.864c-.126-2.772-1.218-5.04-2.94-6.804-1.806-1.806-4.704-3.066-7.938-3.066-2.982 0-5.922 1.092-8.06 3.192-3.234 3.15-3.738 7.518-3.738 12.264 0 4.746.504 9.114 3.738 12.264 2.142 2.1 5.082 3.192 8.06 3.192 3.234 0 6.174-1.386 7.98-3.192 1.722-1.764 2.814-4.116 2.94-6.888m23.94 9.492v-3.486h-14.322v-26.292h-3.738v29.778h18.06m26.502-14.868c0-4.746-.588-9.114-3.822-12.264-2.142-2.1-5.04-3.192-8.02-3.192-2.982 0-5.88 1.092-8.02 3.192-3.234 3.15-3.822 7.518-3.822 12.264 0 4.746.588 9.114 3.822 12.264 2.142 2.1 5.04 3.192 8.02 3.192 2.982 0 5.88-1.092 8.02-3.192 3.234-3.15 3.822-7.518 3.822-12.264m-3.864 0c0 3.108-.126 7.14-2.562 9.66-1.428 1.47-3.402 2.226-5.418 2.226-2.02 0-3.99-.756-5.418-2.226-2.436-2.52-2.562-6.552-2.562-9.66 0-3.108.126-7.14 2.562-9.66 1.428-1.47 3.402-2.226 5.418-2.226 2.02 0 3.99.756 5.418 2.226 2.436 2.52 2.562 6.552 2.562 9.66m31.21 3.948v-18.858h-3.738v18.942c0 4.746-1.974 7.896-7.14 7.896-5.166 0-7.14-3.15-7.14-7.896v-18.942h-3.738v18.858c0 7.434 4.2 11.466 10.878 11.466 6.678 0 10.878-4.03 10.878-11.466m29.568-3.99c0-4.284-.546-8.736-3.822-11.844-2.1-2.02-4.914-3.02-7.812-3.02h-10.374v29.778h10.374c2.898 0 5.712-.966 7.812-2.982 3.234-3.108 3.822-7.644 3.822-11.928m-3.78 0c0 3.192-.21 7.01-2.562 9.408-1.386 1.386-3.36 2.058-5.292 2.058h-6.636v-22.89h6.636c1.932 0 3.906.672 5.292 2.058 2.352 2.436 2.562 6.174 2.562 9.366m-124.89 55.91v-29.778h-3.738v12.432h-14.28v-12.432h-3.738v29.778h3.738v-13.734h14.28v13.734h3.738m30.11-14.868c0-4.746-.588-9.114-3.822-12.264-2.142-2.1-5.04-3.192-8.02-3.192-2.982 0-5.88 1.092-8.02 3.192-3.234 3.15-3.822 7.518-3.822 12.264 0 4.746.588 9.114 3.822 12.264 2.142 2.1 5.04 3.192 8.02 3.192 2.982 0 5.88-1.092 8.02-3.192 3.234-3.15 3.822-7.518 3.822-12.264m-3.864 0c0 3.108-.126 7.14-2.562 9.66-1.428 1.47-3.402 2.226-5.418 2.226-2.02 0-3.99-.756-5.418-2.226-2.436-2.52-2.562-6.552-2.562-9.66 0-3.108.126-7.14 2.562-9.66 1.428-1.47 3.402-2.226 5.418-2.226 2.02 0 3.99.756 5.418 2.226 2.436 2.52 2.562 6.552 2.562 9.66m30.66 6.678c0-4.704-3.318-7.728-8.274-8.442-1.638-.252-3.276-.546-4.956-.756-2.226-.294-4.452-1.512-4.452-4.2 0-1.344.462-2.352 1.218-3.234 1.302-1.47 3.15-2.058 5.292-2.058 2.31 0 4.116.756 5.25 2.058.84.966 1.386 2.268 1.47 3.738h3.906c-.084-2.52-1.05-4.662-2.856-6.384-1.974-1.89-4.83-2.856-7.728-2.856-3.108 0-5.754 1.01-7.812 2.94-1.596 1.512-2.604 3.654-2.604 5.88 0 4.746 3.486 7.224 7.938 7.896 1.596.252 3.066.462 4.704.714 3.528.546 4.998 2.478 4.998 4.788 0 1.596-.588 2.646-1.512 3.486-1.344 1.26-3.276 1.722-5.544 1.722-2.1 0-4.368-.546-5.712-1.848-1.218-1.176-2.1-2.94-2.1-4.704h-3.906c0 2.814 1.302 5.376 3.192 7.14 2.02 1.848 4.914 2.856 8.526 2.856 3.192 0 6.384-.966 8.442-2.982 1.47-1.428 2.52-3.276 2.52-5.754m24.15-18.1v-3.486h-21.504v3.486h8.862v26.292h3.78v-26.292h8.862m8.568 26.292v-29.778h-3.822v29.778h3.822m30.828 0v-29.778h-3.612v24.02l-14.616-24.02h-4.2v29.778h3.612v-23.94l14.616 23.94h4.2m29.652 0v-16.04h-11.34v3.486h7.98c0 2.73-.588 5.628-2.562 7.56-1.344 1.344-3.318 2.058-5.418 2.058-2.02 0-3.906-.672-5.334-2.142-2.478-2.52-2.688-6.804-2.688-9.786 0-3.108.168-7.14 2.604-9.66 1.428-1.47 3.402-2.268 5.418-2.268 2.436 0 4.494.756 5.838 2.352.756.924 1.218 1.89 1.344 3.276h3.906c-.126-2.394-1.134-4.284-2.562-5.796-2.058-2.184-5.166-3.36-8.526-3.36-2.982 0-5.88 1.092-8.02 3.192-3.234 3.15-3.864 7.518-3.864 12.264 0 5.334.84 9.45 3.864 12.39 2.142 2.1 5.04 3.066 8.02 3.066 3.36 0 6.636-1.722 8.106-4.158l.63 3.57h2.604"/></g></g></svg>