<svg width="1000" height="816" viewBox="0 0 1000 816" xmlns="http://www.w3.org/2000/svg"><g fill="none" fill-rule="evenodd"><g><g transform="translate(0 707)"><ellipse fill="#9b9b9b" cx="500" cy="54" rx="500" ry="54"/><g fill="#8b8b8b"><path d="m115.41 45.47c35.7-19.976 197.52-35.16 386.09-35.16 188.46 0 350.17 15.189 385.87 35.16h103.63c-37.04-25.395-240.27-45.47-489.5-45.47-247.32 0-452.23 20.08-489.5 45.47h103.41"/><path d="m887.61 63c-34.2 19.94-196.49 35.03-386.06 35.03-189.67 0-352.08-15.09-386.17-35.03h-103.39c35.543 25.34 241.09 45.45 489.56 45.45 250.25 0 454.24-20.11 489.44-45.45h-103.39"/></g></g><path d="m357.43 505h-329.47v-504.5h329.47v504.5" fill="#fff"/><path d="m341.04 471.41h-297.44v-452.72h297.44v452.72" fill="#b6ebff"/><g transform="translate(220 322)" fill="#fff"><path d="m100.15 12.287c-.958-12.07-16.85-16.05-23.345-5.711-4.213-2.382-9.586.42-9.923 5.344-4.619.566-8.197 4.5-8.197 9.272 0 5.16 4.184 9.343 9.344 9.343h29.29c5.16 0 9.343-4.183 9.343-9.343 0-4.172-2.734-7.704-6.508-8.905"/><path d="m75.07 64.787c-1.733-21.824-30.471-29.02-42.22-10.328-7.619-4.307-17.335.761-17.944 9.665-8.353 1.023-14.823 8.136-14.823 16.766 0 9.332 7.565 16.897 16.897 16.897h52.959c9.332 0 16.897-7.565 16.897-16.897 0-7.544-4.945-13.932-11.77-16.1"/></g><path d="m627.73 582.67l12.282 172.89 17.95.945 1.89-94.48 9.448-40.625 69.912 4.724 11.337 54.796-4.724 84.08h16.06l11.427-80.24-.089-102.1h-145.49" fill="#91959b"/><g fill="#000"><path d="m637.18 737.61l-37.791 28.343.945 8.503h50.07l11.337-15.12.945-21.73h-25.509"/><path d="m772.93 736.66l12.782 8.124 64.964 16.275.012 9.112h-78.82l-6.391-6.093-4.261 5.078h-19.17v-32.496h30.89"/></g><g transform="translate(592 83)"><path d="m180.28 101.92c0 0 11.02.67 8.503 24.564-2.52 23.894-19.966 47.868-19.966 47.868l-.504-69.29 11.967-3.139" fill="#421"/><path d="m182.15 469.93h-145.83l-7.812-349.38 153.64-12.13v361.51" fill="#f2d3b3"/><path d="m182.15 469.93h-145.83l-5.522-246.94.073.003c3.937.181 7.255-2.905 7.359-6.845l-.331-15.235 9.271-3.103c0 0 1.302 8.898 4.123 14.323 2.821 5.425 7.662 12.427 16.276 15.299 9.765 3.255 29.27-2.976 61.846-4.558 33.442-1.623 52.865 2.273 52.732 2.279v244.78" fill="#e2bb98"/><path d="m139.18 334.52l-50.779-26.692 48.826 3.907 38.41-19.531-36.457 42.32" fill="#cea282"/><path d="m33.04 323.12l3.283 187.74 73.1 9.448 13.226-11.337 10.392 12.282 49.11-8.503v-179.54l-55.662 38.692-93.45-48.783" fill="#97dcff"/><g fill="#e8f3f9"><path d="m132.57 383.46c0 2.87-2.326 5.196-5.196 5.196-2.87 0-5.196-2.326-5.196-5.196 0-2.87 2.326-5.196 5.196-5.196 2.87 0 5.196 2.326 5.196 5.196"/><path d="m132.57 429.75c0 2.87-2.326 5.196-5.196 5.196-2.87 0-5.196-2.326-5.196-5.196 0-2.87 2.326-5.196 5.196-5.196 2.87 0 5.196 2.326 5.196 5.196"/><path d="m132.57 481.71c0 2.87-2.326 5.196-5.196 5.196-2.87 0-5.196-2.326-5.196-5.196 0-2.87 2.326-5.196 5.196-5.196 2.87 0 5.196 2.326 5.196 5.196"/></g><g fill="#79bff2"><path d="m115.75 350.47l10.742 21.44-20.13-8.866 9.386-12.574"/><path d="m137.56 349.49l-11.07 22.417 17.648-9.601-6.581-12.816"/></g><g fill="#82ccf9"><path d="m32.852 314.66l82.89 35.808-17.251 23.11-65.41-48.5-.233-10.418"/><path d="m137.56 349.49l44.594-24.09v14.973l-33.08 31.531-11.511-22.417"/></g><path d="m41.966 190.86c0 11.505-9.327 20.832-20.832 20.832-11.506 0-20.833-9.327-20.833-20.832 0-11.505 9.327-20.832 20.833-20.832 11.505 0 20.832 9.327 20.832 20.832" fill="#f2d3b3"/><path d="m23.629 167.34c0 0-13.454-26.365-10.416-55.878 3.038-29.512 13.628-30.858 13.628-30.858l-.933 12.412c0 0 13.597-36.8 55.55-41.01 80.62-8.094 76.82-30.38 76.82-30.38 0 0 5.882 2.912 5.642 13.02-.242 10.246-4.754 13.348-4.754 13.348 0 0 7.904-2.035 18.209-19.424 6.944-11.718 2.604-28.21 2.604-28.21 0 0 40.86 23.22 34.35 67.27-6.51 44.05-53.88 55.55-79.05 57.723-25.17 2.17-68.05-4.138-68.05-4.138l4.34 11.718c0 0-12.243-10.184-19.19-4.325-12.43 10.488-4.88 68.31-4.88 68.31l-9.551 3.73c0 0-1.746-17.67-5.105-24.303-3.683-7.271-9.217-9.01-9.217-9.01" fill="#421"/><path d="m215.71 63.34c.478-43.931-35.901-63.3-35.901-63.3 0 0 24.03 15.181 16.533 61.41-9.447 58.26-90.07 63.3-90.07 63.3 0 0 12.216.629 26.14.629 27.399 0 82.82-18.58 83.3-62.04" fill="#603719"/><path d="m48.48 203.34l-10.316 4.828-.1-2.712 10.09-4.123.326 2.01" fill="#421"/><g fill="#f9fdff"><path d="m61.65 168.88c.031-3.711 13.222-8.672 32.1-8.997 18.879-.326 31.765 6.02 32.09 9.602.326 3.581-6.495 26.827-29.946 29.3-27.831 2.929-34.29-24.693-34.24-29.901"/><path d="m149.6 170.3c.326-3.906 13.346-8.657 25.06-9.292 11.718-.636 17.976.679 18.554 4.727.976 6.844-1.344 30.441-19.531 30.443-19.855.002-24.413-21.972-24.09-25.878"/></g><path d="m173.69 196.18c-19.856.002-24.413-21.972-24.09-25.878.325-3.906 13.345-8.657 25.06-9.292 11.718-.636 17.976.679 18.553 4.727.977 6.844-1.344 30.441-19.53 30.443m-77.8 2.604c-27.831 2.93-34.29-24.693-34.24-29.901.032-3.711 13.222-8.672 32.1-8.997 18.88-.326 31.765 6.02 32.09 9.602.325 3.581-6.496 26.827-29.947 29.3m105.79-40.2c0 0-12.04-5.04-26.04-4.069-13.997.977-27.668 8.789-38.08 8.463-10.416-.325-18.229-8.788-41.665-9.114-23.437-.325-31.574 5.859-39.39 6.51-7.813.651-25.553 2.767-31.25 3.744-5.696.976-6.51 6.02-6.51 6.02 0 0 2.604-.651 4.882 0 2.279.651 2.767 1.465 2.767 1.465 0 0 29.13 1.14 31.09 4.72 1.953 3.581 6.836 29.947 38.08 27.994 31.25-1.953 33.2-33.2 43.29-32.551 8.776.566 6.51 30.27 34.503 29.621 27.994-.651 25.06-34.18 25.06-34.18l3.255-3.255v-5.371" fill="#000"/><path d="m142.11 193.25c0 0 15.16 5.835 16.926 10.09 1.767 4.255-8.961 12.188-13.02 13.448-4.059 1.259-12.04-7.589-12.04-7.589 0 0 6.185 10.09 12.532 10.742 6.348.651 18.924-11.393 16.971-16.601-1.953-5.208-21.365-10.09-21.365-10.09" fill="#c69e87"/><path d="m209.23 244.26l-16.856-27.711 8.589-20.534 7.558 8.169-2.738 9.856 6.982 8.351 32.06-42.558 7.462 4.883-1.38 11.832 8.682 10.687 4.086 21.551-26.13 26.646-28.31-11.172" fill="#f2d3b3"/><path d="m202.03 182.47l14.89 53.755 28.571-17.1-16.875-55.12-26.586 18.465" fill="#4f4b48"/><path d="m204.91 183.7l12.161 43.902 23.334-13.968-13.782-45.02-21.713 15.08" fill="#bbefff"/><path d="m177.65 374.17l69.57-58.44-2.621-66.85-19.391.709 2.455 53.77-49.905 39.764-.107 31.04" fill="#97dcff"/><g fill="#421"><path d="m95.42 132.5l21.691-1.551-9.196-7.185-12.495 8.736"/><path d="m157.11 131.25l-8.497 7.179 18.1-.54-9.6-6.639"/></g><path d="m139.55 244.75c-3.37-2.091-8.414 2.115-8.619 9.99-.153 5.859 3.571 8.8 6.372 7.132 2.801-1.668.863-4.156 1.166-7.979.303-3.823 4.451-7.05 1.081-9.143" fill="#442f26"/></g><path d="m584.07 592.58l-11.48 11.491-19.05 5.821-30.55 9.08-1.722-7.482 25.13-9.01 37.673-9.903" fill="#e2bb98"/><g fill="#f2d3b3"><path d="m597.45 576.53l-11.223 22.755 15.846 17.197-5.246 8.622-24.02-17.525-42.573-2.24-22.727-.64 1.607-8.941 19.244-3.244 39.959-9.402 15.05-17.14 14.08 10.563"/><path d="m565.06 591.17l-45.04-4.391-.353 7.761 21.571.826 23.818-4.196"/></g><path d="m625.53 414.82l-52.25 161.41 18.66 12.13 44.784-125.02-11.196-48.52" fill="#97dcff"/><path d="m43.976 18.817l81.02 28.18v375l-81.02 49.54" stroke="#fff" stroke-width="8"/><path d="m285.24 202.11l6.362-12.58.166-9.388 5.715-21.1 3.649.668-.514 10.442 11.554-7.217 5.324-9.672 5.02-1.308 3.398 6.924-3.972 17.14-16.213 12.397-5.851 4.21-7.693 14.15-6.948-4.669" fill="#efc4a0"/><path d="m219.92 225.63l55.56 9.06 19.589-29.02-11.173-5.34-14.666 20.616-35.838-7.455-13.471 12.143" fill="#2e85bc"/><g transform="translate(72 102)"><path d="m10.587 215.18c0 0-8.37 1.848-8.744 8.891-.374 7.04.34 14.925.34 14.925 0 0 6.633-6.57 10.221-12.01 3.587-5.441-1.817-11.806-1.817-11.806" fill="#ce450f"/><g fill="#3a3a3a"><path d="m89.63 94.98c4.484-15.11-4.131-30.996-19.242-35.48-15.11-4.484-30.996 4.131-35.48 19.243-.276.93-34.17 115.17-34.17 115.17l54.722 16.238c0 0 33.898-114.24 34.17-115.17"/><path d="m47.39 217.91l-44.12-13.09 1.888-6.363 44.12 13.09-1.888 6.363"/></g><path d="m127.49 209.83l-6.615 149.97-11.499.509.813-70.19-5.729-45.05-27.792-1.4-8.781 53.43-.644 70.31h-10.482l-1.134-68.24-3.959-90.5 75.82 1.165" fill="#2e85bc"/><g fill="#efc4a0"><path d="m56.929 152.49l38.571-149.49 56.688-2.712 45.48 15.712-39.09 121.59-101.64 14.901"/><path d="m120.31 23.302c0 6.187-5.02 11.203-11.203 11.203-6.187 0-11.203-5.02-11.203-11.203 0-6.187 5.02-11.203 11.203-11.203 6.187 0 11.203 5.02 11.203 11.203"/></g><g fill="#2e85bc"><path d="m76.35 72.66l-26.687 71.34c0 0-6.666 16-11 49.667-4.333 33.667 27.667 35.33 27.667 35.33l37.415 2.518 11.163.266c0 0 26.09 7.216 39.755-38.45 11.451-38.26 14.02-65.32 14.02-65.32l1.066-26.343-12.624 14.184-15.386-14.598c0 0-14.203-2.367-30.26-8.899-25.03-10.179-35.12-19.69-35.12-19.69"/><path d="m104.13 342.85c0 0 8.03-.446 13.519-2.152 5.49-1.706 3.798-2.124 7.599-2.98 3.802-.857 6.786 8.01 16.516 11.364 9.731 3.353 27.913 5.837 34.68 7.508 6.767 1.672 5.105 11.397 5.105 11.397l-80.73.232c0 0-2.56-8.446-1.727-12.675.834-4.229 5.04-12.694 5.04-12.694"/><path d="m182.4 370.52c.003.934-.752 1.693-1.686 1.695l-79.46.228c-.934.003-1.693-.752-1.695-1.685l-.011-3.804c-.003-.934.752-1.693 1.686-1.696l79.46-.228c.933-.002 1.692.752 1.695 1.686l.011 3.804"/><path d="m75.69 353.92c-1.581-3.203-10.481 3.615-16.05 2.109-5.574-1.506-6.752-1.694-10.554-2.641-3.222-.803-4.325 10.04-5.308 14.308-1.19 5.172 2.375 11.358 2.375 11.358l30.84-.202c0 0 2.489-7.729 1.595-11.579-.894-3.851-1.312-10.15-2.893-13.353"/><path d="m43.794 381.39c.008.852.781 1.537 1.726 1.531 0 0 4.364 3.524 15.809 3.093 11.445-.431 15.273-3.305 15.273-3.305.945-.006 1.704-.701 1.695-1.553l-.034-3.471c-.009-.851-.781-1.537-1.726-1.531 0 0-7.02-.098-15.537.181-8.516.278-15.546.031-15.546.031-.944.006-1.703.702-1.695 1.554l.035 3.47"/><path d="m71 355.87c0 1.176-.953 2.129-2.129 2.129h-14.742c-1.176 0-2.129-.953-2.129-2.129v-7.743c0-1.175.953-2.128 2.129-2.128h14.742c1.176 0 2.129.953 2.129 2.128v7.743"/></g><g fill="#3a3a3a"><path d="m92.83 172.06c0 0 1.195-.01 3.619.697 2.424.707 3.199 1.291 3.199 1.291l-4.106 14.08-6.818-1.987 4.106-14.08"/><path d="m87.11 186.06c.264-.906 2.683-.999 5.402-.206 2.72.793 4.71 2.17 4.446 3.077-.265.906-2.683.999-5.403.206-2.719-.793-4.709-2.171-4.445-3.077"/></g><path d="m60.64 163.16c0 0 4.992 1.226 14.574 4.055 5.549 1.638 12.224 2.218 12.224 2.218 0 0-2.527-4.162-.076-6.95 2.452-2.789 5.279-7.48 8.437-6.03 1.759.808 3.586 6.325.136 6.942-1.925.344.644 1.587 3.157 1.315 1.259-.136 2.504.062 3.156-.395 1.867-1.307-1.172 3.072-1.874 3.452-2.853 1.548-4.447-1.061-2.86-5.556 1.292-3.66 5.435-10.36 10.652-6.444 1.834 1.377 5.959 4.585 7.101 8.417 1.141 3.832-7.617 18.419-11.865 19.535-2.545.668-13.08-2.474-23.404-5.556-15.251-4.554-23.279-6.71-23.279-6.71l3.921-8.295" fill="#ebbd9b"/><g fill="#3a3a3a"><path d="m101.94 166.19c0 0-1.195.01-3.619-.697-2.424-.707-3.199-1.291-3.199-1.291l3.44-12.08 6.817 1.987-3.439 12.08"/><path d="m101.98 166.25c-.182.625-1.85.689-3.725.142-1.875-.547-3.247-1.497-3.065-2.122.182-.625 1.85-.688 3.725-.142 1.875.547 3.247 1.497 3.065 2.122"/></g><path d="m51 102.33c-12.191 22.623-27 66.33-27 66.33l51.15 14.201c0 0-.466-4.391 1.193-10.296 1.659-5.905 3.805-8.572 3.805-8.572l-22.628-6.95 20.482-61.716c0 0-14.965-15.335-27 7" fill="#2e85bc"/><path d="m97 157.56c0 0 .558-1.793.822-2.717 5.925-20.793 1.526-40.32-11.223-53.678-9.593-10.05-20.03-11.776-20.15-11.814l2.249-6.629c.531.18 12.193 2.329 22.961 13.61 10.03 10.505 21.18 31.346 12.891 60.43-.331 1.161-1.04 3.407-1.04 3.407l-6.514-2.608" fill="#3a3a3a"/><path d="m25.833 225.67c-2.834 3.967-6.846 7.245-6.846 7.245 0 0-.829-4.679-.154-9.912.667-5.166 3.353-6.904 2.277-6.475-5.467 2.181-14.607 7.424-15.181 18.237-.822 15.488.748 32.822.748 32.822 0 0 14.586-14.448 22.476-26.413 5.262-7.98 1.728-16.863-1.21-21.896-.508-.87.39 2.892-2.11 6.392" fill="#ce450f"/><path d="m167.38 41.25c0 0 1.801 8.403 2.218 10.674.657 3.576-2.24 4.899-5.968 5.451-3.375.5-5.649-2.735-5.649-2.735 0 0 1.524 4.61 5.808 4.979 4.83.415 8.841-3.369 7.866-7.695-.703-3.121-4.275-10.674-4.275-10.674" fill="#efc4a0"/><path d="m171.2 71.56l-6.849 1.482-8.823-.215 8.715 3.613 6.957-4.88" fill="#c69e87"/><path d="m101.32 26.559c.283 5.449-3.905 10.09-9.354 10.378-5.449.283-10.09-3.905-10.378-9.354-.283-5.449 3.905-10.1 9.354-10.378 5.449-.283 10.09 3.905 10.378 9.354" fill="#efc4a0"/><path d="m164.1 85.65l-14 .576c0 0-.884 5.416 2.509 5.633 4.375.281 4.866-3.612 4.866-3.612l6.629-2.597" fill="#442f26"/></g><g fill="#4dafd6"><path d="m230.98 222.21l-2.373-.529.302-1.356 2.373.529-.302 1.356"/><path d="m228.25 223.03l-2.373-.529.302-1.356 2.373.529-.302 1.356"/><path d="m230.4 224.81l-2.373-.529.302-1.356 2.373.529-.302 1.356"/><path d="m227.7 225.51l-2.373-.529.302-1.356 2.373.529-.302 1.356"/><path d="m229.85 227.3l-2.373-.529.302-1.356 2.373.529-.302 1.356"/><path d="m227.12 228.11l-2.373-.529.302-1.356 2.373.529-.302 1.356"/><path d="m229.27 229.89l-2.373-.529.302-1.356 2.373.529-.302 1.356"/><path d="m226.54 230.71l-2.373-.529.302-1.355 2.373.528-.302 1.356"/><path d="m228.69 232.49l-2.373-.529.302-1.356 2.373.529-.302 1.356"/><path d="m225.96 233.31l-2.373-.529.302-1.355 2.373.528-.302 1.356"/><path d="m228.11 235.09l-2.373-.529.302-1.356 2.373.529-.302 1.356"/><path d="m225.27 235.88l-2.373-.529.302-1.356 2.373.529-.302 1.356"/><path d="m227.42 237.67l-2.373-.529.302-1.356 2.373.529-.302 1.356"/><path d="m224.69 238.48l-2.373-.529.302-1.356 2.373.529-.302 1.356"/><path d="m226.84 240.27l-2.373-.529.302-1.356 2.373.529-.302 1.356"/><path d="m224.13 240.97l-2.373-.529.302-1.356 2.373.529-.302 1.356"/><path d="m226.2 243l-2.349-.627.358-1.342 2.349.627-.358 1.342"/><path d="m223.43 243.7l-2.349-.627.358-1.342 2.349.627-.358 1.342"/><path d="m225.51 245.57l-2.349-.627.358-1.342 2.349.627-.358 1.342"/><path d="m222.75 246.27l-2.349-.627.358-1.342 2.349.627-.358 1.342"/><path d="m224.82 248.15l-2.349-.627.358-1.342 2.349.627-.358 1.342"/><path d="m222.06 248.85l-2.349-.627.358-1.342 2.349.627-.358 1.342"/><path d="m224.14 250.72l-2.349-.627.358-1.342 2.349.627-.358 1.342"/><path d="m221.26 251.56l-2.349-.627.358-1.342 2.349.627-.358 1.342"/><path d="m223.33 253.43l-2.349-.627.358-1.342 2.349.627-.358 1.342"/><path d="m220.57 254.13l-2.349-.627.358-1.342 2.349.627-.358 1.342"/><path d="m222.65 256l-2.349-.627.358-1.342 2.349.627-.358 1.342"/><path d="m219.91 256.59l-2.349-.627.358-1.342 2.349.627-.358 1.342"/><path d="m221.99 258.46l-2.349-.627.358-1.342 2.349.627-.358 1.342"/><path d="m219.23 259.16l-2.349-.627.358-1.342 2.349.627-.358 1.342"/><path d="m221.3 261.04l-2.349-.627.358-1.342 2.349.627-.358 1.342"/><path d="m218.54 261.74l-2.349-.627.358-1.342 2.349.627-.358 1.342"/><path d="m220.62 263.61l-2.349-.627.358-1.342 2.349.627-.358 1.342"/><path d="m217.85 264.31l-2.349-.627.358-1.342 2.349.627-.358 1.342"/><path d="m219.93 266.18l-2.349-.627.358-1.342 2.349.627-.358 1.342"/><path d="m217.06 266.85l-2.349-.627.358-1.342 2.349.627-.358 1.342"/><path d="m219.13 268.72l-2.349-.627.358-1.342 2.349.627-.358 1.342"/><path d="m216.37 269.42l-2.349-.627.358-1.342 2.349.627-.358 1.342"/><path d="m218.45 271.3l-2.349-.627.358-1.342 2.349.627-.358 1.342"/><path d="m215.71 271.88l-2.349-.627.358-1.342 2.349.627-.358 1.342"/><path d="m217.79 273.76l-2.349-.627.358-1.342 2.349.627-.358 1.342"/><path d="m215.03 274.46l-2.349-.627.358-1.342 2.349.627-.358 1.342"/><path d="m217.1 276.33l-2.349-.627.358-1.342 2.349.627-.358 1.342"/><path d="m214.34 277.03l-2.349-.627.358-1.342 2.349.627-.358 1.342"/><path d="m216.35 279.26l-2.326-.706.403-1.329 2.326.706-.403 1.329"/><path d="m213.56 279.87l-2.326-.706.403-1.329 2.326.706-.403 1.329"/><path d="m215.57 281.81l-2.326-.706.403-1.329 2.326.706-.403 1.329"/><path d="m212.72 282.69l-2.326-.706.403-1.329 2.326.706-.403 1.329"/><path d="m214.73 284.63l-2.326-.706.403-1.329 2.326.706-.403 1.329"/><path d="m211.95 285.23l-2.326-.706.403-1.329 2.326.706-.403 1.329"/><path d="m213.96 287.18l-2.326-.706.403-1.329 2.326.706-.403 1.329"/><path d="m211.21 287.67l-2.326-.706.403-1.329 2.326.706-.403 1.329"/><path d="m213.22 289.61l-2.326-.706.403-1.329 2.326.706-.403 1.329"/><path d="m210.44 290.22l-2.326-.706.403-1.329 2.326.706-.403 1.329"/><path d="m212.45 292.16l-2.326-.706.403-1.329 2.326.706-.403 1.329"/><path d="m209.66 292.77l-2.326-.706.403-1.329 2.326.706-.403 1.329"/><path d="m211.67 294.71l-2.326-.706.403-1.329 2.326.706-.403 1.329"/><path d="m208.89 295.31l-2.326-.706.403-1.329 2.326.706-.403 1.329"/><path d="m210.9 297.26l-2.326-.706.403-1.329 2.326.706-.403 1.329"/><path d="m208 297.83l-2.326-.706.403-1.329 2.326.706-.403 1.329"/><path d="m209.82 300.01l-2.273-.862.492-1.299 2.274.862-.493 1.299"/><path d="m207 300.42l-2.273-.862.492-1.299 2.274.862-.493 1.299"/><path d="m208.87 302.5l-2.273-.862.492-1.299 2.274.862-.493 1.299"/><path d="m206.09 302.8l-2.273-.862.492-1.299 2.274.862-.493 1.299"/><path d="m207.97 304.88l-2.273-.862.492-1.299 2.274.862-.493 1.299"/><path d="m205.15 305.29l-2.273-.862.492-1.299 2.274.862-.493 1.299"/><path d="m207.03 307.37l-2.273-.862.492-1.299 2.274.862-.493 1.299"/><path d="m204.21 307.78l-2.273-.862.492-1.299 2.274.862-.493 1.299"/><path d="m205.63 310.22l-2.228-.972.555-1.273 2.228.972-.555 1.273"/><path d="m202.8 310.5l-2.228-.972.555-1.273 2.228.972-.555 1.273"/><path d="m204.57 312.66l-2.228-.972.555-1.273 2.228.972-.555 1.273"/><path d="m201.6 313.05l-2.228-.972.555-1.273 2.228.972-.555 1.273"/><path d="m203.37 315.22l-2.228-.972.555-1.273 2.228.972-.555 1.273"/><path d="m200.53 315.49l-2.228-.972.555-1.273 2.228.972-.555 1.273"/><path d="m202.3 317.66l-2.228-.972.555-1.273 2.228.972-.555 1.273"/><path d="m199.51 317.83l-2.228-.972.555-1.273 2.228.972-.555 1.273"/><path d="m201.29 319.99l-2.228-.972.555-1.273 2.228.972-.555 1.273"/><path d="m198.45 320.27l-2.228-.972.555-1.273 2.228.972-.555 1.273"/><path d="m200.22 322.43l-2.228-.972.555-1.273 2.228.972-.555 1.273"/><path d="m197.39 322.71l-2.228-.972.555-1.273 2.228.972-.555 1.273"/><path d="m199.16 324.87l-2.228-.972.555-1.273 2.228.972-.555 1.273"/><path d="m196.32 325.15l-2.228-.972.555-1.273 2.228.972-.555 1.273"/><path d="m198.09 327.31l-2.228-.972.555-1.273 2.228.972-.555 1.273"/><path d="m195.15 327.55l-2.228-.972.555-1.273 2.228.972-.555 1.273"/><path d="m196.92 329.71l-2.228-.972.555-1.273 2.228.972-.555 1.273"/><path d="m194.09 329.99l-2.228-.972.555-1.273 2.228.972-.555 1.273"/><path d="m195.86 332.15l-2.228-.972.555-1.273 2.228.972-.555 1.273"/><path d="m193.07 332.32l-2.228-.972.555-1.273 2.228.972-.555 1.273"/><path d="m192.5 333.92l.667-1.679 2.5 1.096-3.167.583"/><path d="m189.77 333.79l.555-1.273 2.229.971-2.784.302"/></g><g transform="translate(221 220)" fill="#fff"><path d="m1.846 5.711c.552-2.476 2.695-4.292 5.109-4.2 2.413.092 4.412 2.066 4.774 4.576l1.325.05c-.353-3.187-2.86-5.792-6.05-5.913-3.167-.12-5.885 2.286-6.483 5.437l1.325.05"/><path d="m11.66 8.098c-.533 2.497-2.686 4.319-5.116 4.226-2.431-.092-4.44-2.072-4.782-4.603l-1.325-.05c.334 3.212 2.872 5.846 6.06 5.967 3.208.122 5.918-2.312 6.492-5.49l-1.326-.05"/></g><g transform="translate(163 62)"><path d="m.61 56.37c0 0 5.986-34.05 18.724-44.708 10.767-9.01 27.916-13.59 53.05-8.269 25.13 5.32 34.728 14.251 40.29 28.27 5.56 14.02-.48 29-1.774 38.26-.476 3.403 2.357 7.986 2.357 7.986 0 0-27.21 13.398-50.08 11.08-27.21-2.753-52.643-22.601-52.643-22.601l-9.914-10.02" fill="#2e85bc"/><path d="m112.25 76.25c0 0 7.1 12.283 10.167 18.417 4 8-3.972 11.191-10.167 11.833-18.584 1.926-49.584 3.207-65.75-5.75-18.5-10.25-35.976-34.35-35.976-34.35 0 0 32.643 13.518 65.14 14.768 31.416 1.208 36.583-4.917 36.583-4.917" fill="#3597c9"/><path d="m68.87 3.942l.385-2.718c0 0 2-1.289 5.431-.355 3.426.935 4.183 2.433 4.183 2.433l-.981 2.852c0 0-1.973.794-4.829.204-2.856-.589-4.189-2.416-4.189-2.416" fill="#2e85bc"/></g><g transform="translate(218 122)" fill="#fff"><path d="m1.107 4.148l6.811.986c-.049-1.732-1.303-3.169-2.955-3.408-1.689-.245-3.279.763-3.856 2.422m-1.039.581c.361-2.498 2.599-4.235 5.02-3.884 2.312.334 3.883 2.436 3.726 4.813l-.003.018-.008.055c-.035.238-.26.374-.499.34l-7.379-1.068c-.194 1.977 1.134 3.687 2.988 3.956 1.193.173 2.385-.292 3.136-1.214.161-.202.442-.199.609-.062.181.176.217.444.057.646-.949 1.118-2.406 1.732-3.93 1.511-2.423-.351-4.076-2.652-3.72-5.111"/><path d="m34.05 2.529c-2.04-.001-3.692 1.668-3.693 3.689l-.003 4.935c0 .259.204.445.445.445.242 0 .446-.186.446-.445l.002-4.934c.001-1.54 1.244-2.8 2.803-2.8 1.558.001 2.8 1.263 2.799 2.803l-.002 4.934c-.001.259.203.445.445.445.241 0 .445-.186.445-.445l.002-4.934c.001-2.02-1.649-3.692-3.689-3.693"/><path d="m14.541 1.823c-2.032-.19-3.831 1.318-4.02 3.331l-.46 4.913c-.024.258.161.462.401.484.241.023.461-.143.485-.401l.46-4.913c.144-1.533 1.498-2.673 3.05-2.528 1.552.146 2.671 1.517 2.528 3.05l-.46 4.913c-.024.258.161.462.402.484.24.023.46-.143.484-.401l.46-4.913c.189-2.01-1.299-3.829-3.331-4.02"/><path d="m39.958 2.78c0-.26.204-.445.445-.445.26 0 .464.186.463.445l-.004 8.199c0 .241-.204.445-.464.445-.24 0-.444-.204-.444-.445l.004-8.199"/><path d="m42.724 6.303c.001-2.523 1.935-4.526 4.351-4.524 1 0 1.951.372 2.693 1 .172.13.207.408.051.612-.138.167-.38.222-.57.074-.603-.519-1.362-.817-2.174-.817-1.968-.001-3.522 1.649-3.523 3.652-.001 2.04 1.552 3.674 3.519 3.675.812 0 1.572-.296 2.175-.797.19-.148.432-.092.57.075.156.203.121.482-.086.649-.708.593-1.658.963-2.659.963-2.416-.001-4.348-2.01-4.347-4.565"/><path d="m20.753 6.291c.385-1.674 1.844-2.893 3.478-2.82 1.633.073 2.978 1.418 3.211 3.119l.898.04c-.225-2.159-1.911-3.934-4.07-4.03-2.143-.096-3.995 1.521-4.414 3.652l.897.04"/><path d="m27.387 7.952c-.372 1.688-1.838 2.912-3.483 2.838-1.645-.073-2.997-1.423-3.217-3.137l-.897-.041c.212 2.176 1.919 3.971 4.074 4.068 2.172.097 4.02-1.539 4.42-3.688l-.897-.04"/></g></g><g transform="translate(276 371)"><path d="m28.756 29.817c6.259 9.908 7.775 52.06 13.316 59.04" stroke="#417505" stroke-width="3"/><rect fill="#d8d8d8" x="20" y="68" width="36" height="41" rx="8"/><g fill="#98bb71"><path d="m47.42 58.4c5.583-2.588 9.279-6.168 8.255-7.997-1.024-1.829-6.381-1.213-11.964 1.375-5.583 2.588-9.279 6.168-8.255 7.997 1.024 1.829 6.381 1.213 11.964-1.375"/><path d="m24.738 60.875c-5.583-2.588-9.279-6.168-8.255-7.997 1.024-1.829 6.381-1.213 11.964 1.375 5.583 2.588 9.279 6.168 8.255 7.997-1.024 1.829-6.381 1.213-11.964-1.375"/></g><g fill="#ffcf73"><path d="m25.858 0l9.242 17.341h-18.488z"/><path d="m42.486 7.02l-1.648 19.33-16.339-8.931 17.987-10.398"/><path d="m7.238 9.146l20.22 6.131-13.479 12.262-6.739-18.393"/><path d="m.821 25.488l18.717-9.27.665 17.33-19.383-8.06"/><path d="m3.992 40.39l11.43-16.363 9.817 14.864-21.248 1.499"/><ellipse cx="28.94" cy="28.08" rx="14.97" ry="10.735"/><path d="m16.315 33.09l20.22 6.131-13.479 12.262-6.739-18.393"/><path d="m43.932 24.288l1.325 19.35-17.546-6.776 16.221-12.575"/><path d="m32.28 16.1l20.22 6.131-13.479 12.262-6.739-18.393"/></g><ellipse fill="#ff966b" cx="26.299" cy="26.424" rx="9.687" ry="9.08"/></g></g></svg>