<svg width="1000" height="728" viewBox="0 0 1000 728" xmlns="http://www.w3.org/2000/svg" xmlns:xlink="http://www.w3.org/1999/xlink"><defs><path id="0" d="m27.881.359c-.377 0-.761.002-1.144.01-15.492.267-26.316 4.338-26.341 7.383-.035 4.06 4.744 24.714 24.797 24.714 1.058 0 2.158-.057 3.303-.177 19.244-2.026 24.84-21.1 24.574-24.04-.26-2.866-10.32-7.89-25.19-7.889"/><mask id="1" fill="#fff"><use xlink:href="#0"/></mask></defs><g fill="none" fill-rule="evenodd" transform="translate(0 1)"><ellipse fill="#9b9b9b" cx="500" cy="673" rx="500" ry="54"/><g transform="translate(186)"><g transform="translate(0 91)"><path d="m115.01 424.4l10.08 141.88 14.729.775 1.551-77.53 7.753-33.34 57.37 3.875 9.303 44.967-3.876 69h13.18l9.376-65.848-.074-83.78h-119.39" fill="#91959b"/><g fill="#000"><path d="m122.77 551.55l-31.01 23.258.775 6.978h41.09l9.303-12.405.775-17.831h-20.931"/><path d="m234.17 550.77l10.489 6.666 53.31 13.356.01 7.478h-64.68l-5.245-5-3.495 4.167h-15.734v-26.667h25.348"/></g><path d="m233.63 98c0 0 9.04.55 6.978 20.16-2.067 19.607-16.384 39.28-16.384 39.28l-.413-56.863 9.819-2.576" fill="#421"/><path d="m235.16 400h-119.66l-6.411-286.71h126.07v286.71" fill="#f2d3b3"/><path d="m235.16 400h-119.66l-4.532-202.65.059.002c3.231.149 5.954-2.384 6.04-5.617l-.271-12.503 7.607-2.546c0 0 1.069 7.302 3.384 11.754 2.315 4.452 6.287 10.198 13.354 12.554 8.01 2.672 24.02-2.441 50.75-3.739 27.442-1.332 43.38 1.865 43.27 1.87v200.87" fill="#e2bb98"/><path d="m199.91 288.88l-41.669-21.904 40.07 3.206 31.518-16.03-29.916 34.726" fill="#cea282"/><path d="m112.81 279.53l2.693 154.07 59.98 7.753 10.854-9.304 8.527 10.08 40.3-6.978v-147.34l-45.675 31.752-76.68-40.03" fill="#97dcff"/><g fill="#e8f3f9"><path d="m194.48 329.04c0 2.355-1.908 4.265-4.263 4.265-2.355 0-4.265-1.91-4.265-4.265 0-2.354 1.91-4.264 4.265-4.264 2.355 0 4.263 1.91 4.263 4.264"/><path d="m194.48 367.03c0 2.355-1.908 4.265-4.263 4.265-2.355 0-4.265-1.91-4.265-4.265 0-2.355 1.91-4.264 4.265-4.264 2.355 0 4.263 1.909 4.263 4.264"/><path d="m194.48 409.67c0 2.355-1.908 4.264-4.263 4.264-2.355 0-4.265-1.909-4.265-4.264 0-2.355 1.91-4.264 4.265-4.264 2.355 0 4.263 1.909 4.263 4.264"/></g><g fill="#79bff2"><path d="m180.68 301.97l8.814 17.595-16.517-7.275 7.703-10.319"/><path d="m198.57 301.16l-9.08 18.395 14.482-7.878-5.4-10.517"/></g><g fill="#82ccf9"><path d="m112.65 272.58l68.02 29.385-14.156 18.966-53.675-39.801-.19-8.549"/><path d="m198.57 301.16l36.593-19.766v12.287l-27.15 25.874-9.445-18.395"/></g><path d="m120.13 170.99c0 9.441-7.653 17.09-17.09 17.09-9.44 0-17.09-7.654-17.09-17.09 0-9.442 7.655-17.1 17.09-17.1 9.442 0 17.09 7.654 17.09 17.1" fill="#f2d3b3"/><path d="m105.08 153.98c0 0-11.04-13.979-8.547-38.2 2.493-24.22 10.417-29.917 10.417-29.917v7.122c0 0 11.157-22.543 45.585-25.999 66.16-6.642 63.04-24.93 63.04-24.93 0 0 4.826 2.39 4.63 10.685-.199 8.408-3.902 10.954-3.902 10.954 0 0 6.486-1.671 14.943-15.94 5.698-9.617 2.137-23.15 2.137-23.15 0 0 33.529 19.05 28.19 55.2-5.342 36.15-44.21 45.587-64.869 47.37-20.656 1.781-55.84-3.395-55.84-3.395l3.561 9.616c0 0-10.05-8.357-15.743-3.55-10.201 8.607-4.01 48.4-4.01 48.4l-7.838 3.061c0 0-1.432-14.501-4.189-19.944-3.02-5.966-7.562-7.392-7.562-7.392" fill="#421"/><path d="m262.7 76.29c.392-36.05-29.459-51.944-29.459-51.944 0 0 19.718 12.457 13.567 50.39-7.753 47.81-73.908 51.945-73.908 51.945 0 0 10.02.517 21.449.517 22.482 0 67.963-15.248 68.35-50.911" fill="#603719"/><path d="m125.47 181.23l-8.465 3.962-.083-2.225 8.281-3.384.267 1.648" fill="#421"/><path d="m.36.358h52.975v32.11h-52.975v-32.11" fill="#f8f3ed" mask="url(#1)" transform="translate(135.89 145.2)"/><path d="m235.16 146.4v27.21c8.583-4.884 9.735-18.651 9.08-23.24-.36-2.525-3.414-3.754-9.08-3.97" fill="#fafdff"/><path d="m233.24 146.37c-1.295 0-2.702.042-4.221.125-9.615.522-20.299 4.42-20.566 7.626-.268 3.204 3.471 21.237 19.765 21.236 2.729-.001 5.02-.648 6.945-1.742v-27.21c-.611-.023-1.252-.034-1.923-.034" fill="#f8f3ed"/><path d="m251.19 144.5c0 0-9.883-4.14-21.368-3.339-11.486.802-22.704 7.212-31.25 6.945-8.547-.267-14.958-7.212-34.19-7.479-19.23-.267-25.908 4.808-32.32 5.342-6.41.534-20.968 2.27-25.641 3.072-4.675.801-5.342 4.941-5.342 4.941 0 0 2.137-.534 4.01 0 1.87.535 2.27 1.202 2.27 1.202 0 0 23.906.935 25.509 3.873 1.603 2.939 5.609 24.575 31.25 22.972 25.642-1.603 27.25-27.25 35.525-26.712 7.202.465 5.342 24.842 28.313 24.308 22.972-.534 20.567-28.05 20.567-28.05l2.672-2.671v-4.408m-86.81 32.989c-22.836 2.404-28.14-20.264-28.1-24.537.025-3.045 10.849-7.116 26.341-7.383 15.491-.267 26.06 4.941 26.332 7.879.267 2.939-5.33 22.01-24.574 24.04m63.839-2.138c-16.294.002-20.03-18.03-19.767-21.235.268-3.206 10.952-7.104 20.567-7.626 9.616-.522 14.751.557 15.225 3.879.801 5.617-1.103 24.98-16.03 24.981" fill="#000"/><g fill="#421"><path d="m170.26 133.68l23.24 9.349v-9.349h-23.24"/><path d="m205.03 136.35v8.01l17.04-12.02-17.04 4.01"/></g><path d="m202.31 172.95c0 0 12.44 4.789 13.89 8.281 1.45 3.492-7.354 10-10.684 11.04-3.332 1.034-9.883-6.227-9.883-6.227 0 0 5.075 8.28 10.284 8.815 5.209.534 15.529-9.35 13.926-13.623-1.603-4.275-17.532-8.281-17.532-8.281" fill="#c69e87"/><path d="m213.53 207.14c0-.001-21.1-4.275-36.86 1.602-12.13 4.523-18.608 18.877-14.957 21.37 3.651 2.492 14.156-2.138 27.511-6.144 13.356-4.01 28.314-2.582 28.314-2.582 0 0-10.417-2.493-10.383-4.798.033-2.304-.656-3.579.233-6.778.888-3.198 6.143-2.671 6.143-2.671" fill="#442f26"/><path d="m205.23 207.54v8.937c0 0-6.904.445-18.04 1.559-11.135 1.114-20.15 2.718-20.15 2.718 0 0 1.267-8.08 12.385-11.474 10.836-3.31 25.675-1.727 25.799-1.74" fill="#fff"/><path d="m257.39 214.81l-13.831-22.74 7.05-16.851 6.201 6.704-2.247 8.088 5.729 6.853 26.304-34.923 6.123 4.01-1.132 9.71 7.124 8.77 3.352 17.684-21.443 21.867-23.23-9.168" fill="#f2d3b3"/><path d="m251.47 164.1l12.219 44.11 23.445-14.04-13.848-45.23-21.816 15.15" fill="#4f4b48"/><path d="m253.84 165.11l9.978 36.03 19.15-11.464-11.309-36.939-17.817 12.375" fill="#bbefff"/><path d="m231.47 321.42l57.09-47.956-2.151-54.858-15.911.581 2.01 44.13-40.95 32.631-.089 25.476" fill="#97dcff"/><path d="m70.947 214.53l2.463-30.12-19.597-26.601-6.04 3.457 3.75 10.987-29.05-.851-17.573-13.689-5.176 10.366 19.363 18.15 36.424 11.83 1.456 13.981 13.987 2.489" fill="#f2d3b3"/><path d="m115.57 325.52l-62.57-52.4 2.355-66.86 17.424 3.749-2.228 51.971 44.883 35.653.138 27.887" fill="#97dcff"/><g fill="#fff"><path d="m76.14 75.887c0 0-4.846-8.02-15.893-12.704-15.64-6.625-23.17 11.32-9.06 11.82 6.162.218 9.865-1.269 16.181-1.195 5.303.061 8.768 2.078 8.768 2.078"/><path d="m86.962 50.48c0 0-.552-12.42-6.974-25.2-9.983-19.867-32.979-7.193-18.894 4.782 6.149 5.227 11.157 6.707 17.583 11.911 5.394 4.369 8.285 8.505 8.285 8.505"/><path d="m113.3 36.701c0 0 2.112-8.166 4.42-20.591 4.086-22.01-19.898-19.839-15.758-5.55 1.808 6.239 6.364 12.01 8.549 17.695 2 5.215 2.789 8.446 2.789 8.446"/><path d="m139.07 36.887c0 0-1.02-8.122 4.02-17.306 7.136-13 22.01-4.778 12.601 3.201-4.106 3.483-7.447 4.469-11.737 7.936-3.601 2.911-4.885 6.169-4.885 6.169"/></g></g><g transform="translate(301)"><g fill="#fff"><path d="m69.933 137.76l-42.92 51.702 10.73 13.658-38.04 42.923 70.23-42.923-9.755-12.682 47.799-39.02-38.04-13.657"/><path d="m326.57 90.77c0 50.36-65.42 91.18-146.12 91.18-80.7 0-146.12-40.821-146.12-91.18 0-50.36 65.42-91.18 146.12-91.18 80.7 0 146.12 40.823 146.12 91.18"/></g><g fill="#000"><path d="m145.72 48.45l-.944 1.722c-.08.143.061.266.184.266h.35c.225 0 .41.184.41.41v1.845c0 .225-.184.41-.41.41h-1.845c-.224 0-.41-.184-.41-.41v-1.845c0-.533.164-.922.41-1.27l1.065-1.497c.083-.123.227-.307.534-.307h.287c.389 0 .533.369.369.676m4.1 0l-.944 1.722c-.08.143.061.266.184.266h.348c.227 0 .411.184.411.41v1.845c0 .225-.184.41-.411.41h-1.844c-.227 0-.411-.184-.411-.41v-1.845c0-.533.165-.922.411-1.27l1.065-1.497c.082-.123.227-.307.533-.307h.288c.388 0 .533.369.369.676"/><path d="m155.37 54.46h.162l2.277-6.376c.08-.225.203-.307.388-.307h1.353c.266 0 .451.266.328.574l-3.443 8.834v4.53c0 .225-.186.411-.41.411h-1.149c-.225 0-.41-.186-.41-.411v-4.508l-3.484-8.856c-.123-.307.061-.574.328-.574h1.352c.184 0 .307.082.391.307l2.316 6.376"/><path d="m170 51.875c.203 1.64.184 4.51 0 6.15-.246 2.255-1.907 4.263-4.612 4.263-2.46 0-4.284-1.618-4.612-4.263-.205-1.661-.205-4.51 0-6.15.268-2.233 1.907-4.263 4.612-4.263 2.46 0 4.283 1.62 4.612 4.263m-1.948 6.15c.246-1.681.225-4.469 0-6.15-.164-1.209-1.045-2.315-2.665-2.315-1.333 0-2.48.819-2.665 2.315-.206 1.681-.206 4.469 0 6.15.164 1.188 1.067 2.316 2.665 2.316 1.374 0 2.46-.841 2.665-2.316"/><path d="m181.62 58.03c0 2.46-2.13 4.263-4.611 4.263-2.644 0-4.612-1.803-4.612-4.263v-9.838c0-.227.184-.411.41-.411h1.127c.227 0 .41.184.41.411v9.838c0 1.639 1.334 2.316 2.666 2.316 1.557 0 2.665-1 2.665-2.316v-9.838c0-.227.184-.411.408-.411h1.128c.225 0 .41.184.41.411v9.838"/><path d="m194.93 58.681c-.041-.184-.206-.287-.391-.287h-3.402c-.184 0-.328.102-.389.287l-.901 3.136c-.061.186-.205.309-.391.309h-1.127c-.328 0-.451-.227-.41-.411l3.812-13.631c.042-.184.206-.307.391-.307h1.434c.184 0 .35.123.389.307l3.812 13.631c.042.184-.08.411-.41.411h-1.125c-.186 0-.329-.123-.391-.309l-.901-3.136m-.821-2.193c.123 0 .206-.061.164-.225l-1.332-5.719-.082-.123h-.041l-.082.123-1.332 5.719c-.042.164.041.225.164.225h2.54"/><path d="m201.52 56.38l-.205.205v5.124c0 .225-.184.411-.41.411h-1.128c-.225 0-.41-.186-.41-.411v-13.527c0-.227.184-.411.41-.411h3.69c2.378 0 4.303 1.927 4.303 4.305 0 1.557-.881 2.931-2.13 3.668-.391.225-.533.41-.348.778l2.417 4.981c.145.307.022.616-.389.616h-1.149c-.326 0-.47-.164-.594-.411l-2.417-5.083c-.061-.121-.165-.246-.391-.246h-1.25m0-6.661l-.205.205v4.304l.205.206h1.948c1.292 0 2.357-1.067 2.357-2.357 0-1.292-1.065-2.357-2.357-2.357h-1.948"/><path d="m212.18 59.973l.203.205h4.921c.225 0 .41.184.41.41v1.127c0 .225-.184.411-.41.411h-6.662c-.225 0-.41-.186-.41-.411v-13.527c0-.227.184-.411.41-.411h6.621c.225 0 .41.184.41.411v1.127c0 .225-.184.41-.41.41h-4.88l-.203.205v3.69l.203.205h4.653c.227 0 .41.184.41.408v1.128c0 .225-.183.41-.41.41h-4.653l-.203.205v3.998"/><path d="m77.65 86.71c-.224 0-.326-.061-.43-.348l-4.04-10.146-.164.041v10.04c0 .225-.184.41-.41.41h-1.046c-.225 0-.41-.184-.41-.41v-13.528c0-.225.184-.41.41-.41h1.702c.227 0 .328.061.43.348l4.04 10.11.162-.041v-10c0-.225.186-.41.411-.41h1.046c.225 0 .41.184.41.41v13.528c0 .225-.184.41-.41.41h-1.703"/><path d="m91.63 82.61c0 2.46-2.13 4.263-4.611 4.263-2.644 0-4.611-1.803-4.611-4.263v-9.839c0-.225.183-.41.408-.41h1.127c.227 0 .41.184.41.41v9.839c0 1.639 1.334 2.316 2.666 2.316 1.557 0 2.665-1.01 2.665-2.316v-9.839c0-.225.184-.41.408-.41h1.128c.225 0 .41.184.41.41v9.839"/><path d="m100.02 82.83h.203l2.83-10.126c.061-.246.203-.348.43-.348h2.089c.227 0 .411.184.411.41v13.528c0 .225-.184.41-.411.41h-1.086c-.225 0-.41-.184-.41-.41v-10.247l-.164-.042-2.931 10.351c-.082.246-.205.348-.43.348h-.862c-.224 0-.347-.102-.43-.348l-2.931-10.351-.164.042v10.247c0 .225-.184.41-.411.41h-1.086c-.225 0-.41-.184-.41-.41v-13.528c0-.225.184-.41.41-.41h2.091c.225 0 .369.102.43.348l2.83 10.126"/><path d="m117.07 76.17c0 .942-.389 2.09-1.168 2.766-.164.143-.164.328 0 .452.84.676 1.454 1.967 1.454 3.136 0 2.376-1.948 4.181-4.303 4.181h-3.793c-.225 0-.41-.184-.41-.41v-13.528c0-.225.184-.41.41-.41h3.793c2.214 0 4.02 1.598 4.02 3.813m-4.02 2.09c1.332 0 2.07-.901 2.07-2.09 0-1.21-1.01-1.866-2.07-1.866h-2.091l-.206.205v3.546l.206.205h2.091m-2.091 1.845l-.206.205v4.244l.206.205h2.091c1.27 0 2.356-1.01 2.356-2.234 0-1.435-1.086-2.419-2.356-2.419h-2.091"/><path d="m121.35 84.56l.203.205h4.921c.225 0 .41.184.41.408v1.128c0 .225-.184.41-.41.41h-6.662c-.225 0-.41-.184-.41-.41v-13.528c0-.225.184-.41.41-.41h6.62c.227 0 .411.184.411.41v1.127c0 .227-.184.411-.411.411h-4.878l-.203.205v3.689l.203.205h4.653c.225 0 .41.184.41.41v1.128c0 .225-.184.41-.41.41h-4.653l-.203.205v3.998"/><path d="m131.38 80.968l-.205.205v5.124c0 .225-.184.41-.41.41h-1.127c-.227 0-.411-.184-.411-.41v-13.528c0-.225.184-.41.411-.41h3.689c2.378 0 4.305 1.926 4.305 4.304 0 1.558-.881 2.931-2.132 3.67-.389.225-.533.41-.348.778l2.417 4.981c.145.307.022.615-.388.615h-1.149c-.328 0-.47-.164-.594-.41l-2.419-5.083c-.061-.123-.164-.246-.389-.246h-1.251m0-6.661l-.205.205v4.304l.205.205h1.948c1.292 0 2.359-1.065 2.359-2.357 0-1.291-1.067-2.356-2.359-2.356h-1.948"/><path d="m145.11 82.71h1.046c.224 0 .408.184.408.41 0 1.127 1.108 1.907 2.316 1.907 1.517 0 2.4-1.292 2.4-3.01 0-1.743-.903-3.01-2.4-3.01-.84 0-1.516.514-1.845 1.231-.08.184-.203.225-.388.225h-1.108c-.224 0-.41-.184-.41-.41v-7.277c0-.225.186-.41.41-.41h6.62c.227 0 .411.184.411.41v1.026c0 .224-.184.41-.411.41h-5.082l-.205.203v3.076c0 .205.162.389.451.164.41-.328 1.147-.492 1.557-.492 2.562 0 4.223 2.253 4.223 4.858 0 2.624-1.599 4.857-4.223 4.857-2.171 0-4.18-1.598-4.18-3.75 0-.266.184-.41.41-.41"/><path d="m163.86 76.46c.205 1.64.183 4.51 0 6.15-.247 2.255-1.702 4.263-4.407 4.263-2.46 0-4.078-1.618-4.407-4.263-.205-1.661-.205-4.51 0-6.15.268-2.234 1.702-4.263 4.407-4.263 2.46 0 4.079 1.62 4.407 4.263m-1.845 6.15c.246-1.722.246-4.428 0-6.15-.164-1.229-.903-2.397-2.562-2.417-1.352 0-2.378.901-2.562 2.417-.225 1.722-.225 4.428 0 6.15.164 1.209.923 2.419 2.562 2.419 1.394 0 2.337-.923 2.562-2.419"/><path d="m167.54 82.65c0 1.229.963 2.275 2.378 2.275 1.393 0 2.356-1.046 2.356-2.275 0-1.149-.511-2.48-2.315-2.48h-.247c-.224 0-.408-.184-.408-.41v-1.087c0-.225.184-.41.408-.41h.247c1.394 0 2.01-1.106 2.01-2.151 0-1.046-.84-1.968-2.048-1.968-1.231 0-2.07.922-2.07 1.968v.307c0 .224-.184.41-.41.41h-1.106c-.225 0-.41-.186-.41-.41v-.307c0-2.195 1.741-3.916 3.996-3.916 2.233 0 3.996 1.721 3.996 3.916 0 1.127-.43 2.131-1.188 2.808-.164.143-.205.328-.02.49.903.78 1.516 1.948 1.516 3.24 0 2.357-1.926 4.222-4.303 4.222-2.419 0-4.325-1.864-4.325-4.222v-.143c0-.227.184-.411.41-.411h1.128c.225 0 .41.184.41.411v.143"/><path d="m183.33 86.3c0 .225-.184.41-.41.41h-1.128c-.225 0-.41-.184-.41-.41v-13.528c0-.225.184-.41.41-.41h1.128c.225 0 .41.184.41.41v13.528"/><path d="m192.7 86.71c-.224 0-.326-.061-.429-.348l-4.04-10.146-.164.041v10.04c0 .225-.184.41-.41.41h-1.046c-.225 0-.41-.184-.41-.41v-13.528c0-.225.184-.41.41-.41h1.702c.227 0 .328.061.43.348l4.04 10.11.162-.041v-10c0-.225.186-.41.411-.41h1.045c.227 0 .411.184.411.41v13.528c0 .225-.184.41-.411.41h-1.702"/><path d="m206.58 74.51v11.785c0 .225-.184.41-.41.41h-1.127c-.225 0-.41-.184-.41-.41v-11.785l-.206-.205h-2.725c-.227 0-.411-.184-.411-.411v-1.127c0-.225.184-.41.411-.41h7.787c.225 0 .41.184.41.41v1.127c0 .227-.184.411-.41.411h-2.705l-.205.205"/><path d="m218.75 72.36h1.127c.227 0 .411.184.411.41v13.528c0 .225-.184.41-.411.41h-1.127c-.224 0-.408-.184-.408-.41v-5.739l-.206-.205h-4.51l-.205.205v5.739c0 .225-.183.41-.41.41h-1.127c-.227 0-.411-.184-.411-.41v-13.528c0-.225.184-.41.411-.41h1.127c.227 0 .41.184.41.41v5.432l.205.205h4.51l.206-.205v-5.432c0-.225.184-.41.408-.41"/><path d="m225.1 84.56l.203.205h4.921c.225 0 .41.184.41.408v1.128c0 .225-.184.41-.41.41h-6.662c-.225 0-.41-.184-.41-.41v-13.528c0-.225.184-.41.41-.41h6.62c.227 0 .411.184.411.41v1.127c0 .227-.184.411-.411.411h-4.878l-.203.205v3.689l.203.205h4.653c.225 0 .411.184.411.41v1.128c0 .225-.186.41-.411.41h-4.653l-.203.205v3.998"/><path d="m245.51 85.79l1.086 2.193c.145.287-.061.574-.326.574h-1.251c-.184 0-.287-.082-.41-.307l-.759-1.456c-.102-.164-.348-.082-.49-.041-.329.082-.698.123-1.087.123-2.46 0-4.283-1.618-4.612-4.263-.205-1.661-.205-4.51 0-6.15.268-2.234 1.907-4.263 4.612-4.263 2.46 0 4.283 1.62 4.612 4.263.203 1.64.184 4.51 0 6.15-.123 1.106-.575 2.11-1.313 2.89-.08.082-.123.143-.061.287m-.574-3.177c.246-1.681.225-4.469 0-6.15-.165-1.209-1.045-2.294-2.665-2.315-1.333 0-2.48.819-2.665 2.315-.206 1.681-.206 4.469 0 6.15.164 1.188 1.065 2.316 2.665 2.316 1.374 0 2.46-.841 2.665-2.316"/><path d="m258.49 82.61c0 2.46-2.13 4.263-4.611 4.263-2.644 0-4.612-1.803-4.612-4.263v-9.839c0-.225.184-.41.41-.41h1.127c.225 0 .411.184.411.41v9.839c0 1.639 1.333 2.316 2.665 2.316 1.557 0 2.665-1.01 2.665-2.316v-9.839c0-.225.184-.41.408-.41h1.128c.225 0 .41.184.41.41v9.839"/><path d="m263.08 84.56l.205.205h4.919c.225 0 .41.184.41.408v1.128c0 .225-.184.41-.41.41h-6.662c-.225 0-.41-.184-.41-.41v-13.528c0-.225.184-.41.41-.41h6.621c.225 0 .41.184.41.41v1.127c0 .227-.184.411-.41.411h-4.878l-.205.205v3.689l.205.205h4.652c.227 0 .411.184.411.41v1.128c0 .225-.184.41-.411.41h-4.652l-.205.205v3.998"/><path d="m279.96 82.61c0 2.46-2.13 4.263-4.611 4.263-2.644 0-4.612-1.803-4.612-4.263v-9.839c0-.225.184-.41.41-.41h1.127c.225 0 .41.184.41.41v9.839c0 1.639 1.334 2.316 2.666 2.316 1.557 0 2.665-1.01 2.665-2.316v-9.839c0-.225.184-.41.408-.41h1.128c.225 0 .41.184.41.41v9.839"/><path d="m284.55 84.56l.203.205h4.921c.225 0 .41.184.41.408v1.128c0 .225-.184.41-.41.41h-6.662c-.225 0-.41-.184-.41-.41v-13.528c0-.225.184-.41.41-.41h6.62c.227 0 .411.184.411.41v1.127c0 .227-.184.411-.411.411h-4.878l-.203.205v3.689l.203.205h4.653c.225 0 .411.184.411.41v1.128c0 .225-.186.41-.411.41h-4.653l-.203.205v3.998"/><path d="m129.31 121.53c2.378 0 4.303 1.927 4.303 4.305 0 2.378-1.926 4.304-4.303 4.304h-1.948l-.205.205v5.124c0 .225-.184.41-.41.41h-1.127c-.227 0-.411-.184-.411-.41v-13.528c0-.225.184-.41.411-.41h3.689m-1.948 1.948l-.205.205v4.304l.205.205h1.948c1.292 0 2.357-1.065 2.357-2.356 0-1.292-1.065-2.357-2.357-2.357h-1.948"/><path d="m137.3 133.72l.205.205h4.59c.227 0 .411.184.411.41v1.127c0 .225-.184.41-.411.41h-6.333c-.225 0-.41-.184-.41-.41v-13.528c0-.225.184-.41.41-.41h1.128c.225 0 .41.184.41.41v11.787"/><path d="m146.19 133.72l.205.205h4.919c.225 0 .41.184.41.41v1.127c0 .225-.184.41-.41.41h-6.662c-.225 0-.41-.184-.41-.41v-13.528c0-.225.184-.41.41-.41h6.621c.225 0 .41.184.41.41v1.127c0 .227-.184.411-.41.411h-4.878l-.205.205v3.689l.205.206h4.652c.227 0 .411.183.411.408v1.128c0 .225-.184.41-.411.41h-4.652l-.205.205v3.998"/><path d="m159.84 132.43c-.041-.184-.205-.287-.389-.287h-3.402c-.184 0-.328.102-.389.287l-.901 3.136c-.061.184-.206.307-.391.307h-1.127c-.328 0-.451-.225-.411-.41l3.813-13.631c.041-.184.205-.307.389-.307h1.435c.184 0 .348.123.389.307l3.812 13.631c.041.184-.082.41-.41.41h-1.127c-.186 0-.328-.123-.389-.307l-.903-3.136m-.819-2.193c.123 0 .205-.061.164-.225l-1.332-5.719-.083-.123h-.04l-.083.123-1.332 5.719c-.041.164.042.225.164.225h2.542"/><path d="m167.38 129.13c-2.01-.451-3.422-1.681-3.422-3.916 0-2.458 2.11-3.853 4.223-3.853 2.417 0 4.201 1.743 4.201 3.853v.266c0 .227-.184.411-.411.411h-1.127c-.224 0-.41-.184-.41-.411v-.266c0-1.373-1.209-1.905-2.253-1.905-1.333 0-2.255.737-2.255 1.905 0 1.804 1.741 1.989 3.073 2.316 2.338.574 3.793 1.886 3.793 4.244 0 2.624-2.233 4.264-4.611 4.264-2.645 0-4.614-1.927-4.614-4.264v-.328c0-.225.184-.41.411-.41h1.147c.225 0 .41.184.41.41v.328c0 1.332 1.108 2.316 2.645 2.316 1.535 0 2.643-1.01 2.643-2.316 0-1.907-1.372-2.173-3.443-2.644"/><path d="m176.88 133.72l.203.205h4.921c.225 0 .41.184.41.41v1.127c0 .225-.184.41-.41.41h-6.662c-.225 0-.41-.184-.41-.41v-13.528c0-.225.184-.41.41-.41h6.62c.227 0 .411.184.411.41v1.127c0 .227-.184.411-.411.411h-4.878l-.203.205v3.689l.203.206h4.653c.225 0 .411.183.411.408v1.128c0 .225-.186.41-.411.41h-4.653l-.203.205v3.998"/><path d="m193.33 135.87h-1.743c-.184 0-.35-.102-.389-.307l-2.726-13.631c-.042-.205.08-.41.41-.41h1.106c.186 0 .348.082.389.307l2.01 10.515.124.123h.04l.124-.123 1.762-10.515c.041-.205.205-.307.391-.307h1.434c.184 0 .348.102.389.307l1.927 10.515.123.123h.04l.123-.123 2.193-10.515c.042-.225.206-.307.391-.307h1.106c.328 0 .451.205.41.41l-2.91 13.631c-.041.205-.205.307-.389.307h-1.741c-.186 0-.35-.102-.391-.307l-1.886-10.227h-.162l-1.763 10.227c-.042.205-.205.307-.389.307"/><path d="m209.76 132.43c-.041-.184-.205-.287-.389-.287h-3.402c-.184 0-.328.102-.389.287l-.901 3.136c-.061.184-.206.307-.391.307h-1.127c-.328 0-.451-.225-.411-.41l3.813-13.631c.041-.184.206-.307.391-.307h1.434c.184 0 .348.123.389.307l3.812 13.631c.041.184-.08.41-.41.41h-1.127c-.186 0-.328-.123-.389-.307l-.903-3.136m-.819-2.193c.123 0 .206-.061.164-.225l-1.332-5.719-.082-.123h-.041l-.082.123-1.333 5.719c-.041.164.042.225.165.225h2.54"/><path d="m216.15 135.46c0 .225-.184.41-.411.41h-1.127c-.225 0-.41-.184-.41-.41v-13.528c0-.225.184-.41.41-.41h1.127c.227 0 .411.184.411.41v13.528"/><path d="m223.01 123.68v11.785c0 .225-.184.41-.408.41h-1.128c-.225 0-.41-.184-.41-.41v-11.785l-.206-.205h-2.725c-.225 0-.41-.184-.41-.411v-1.127c0-.225.184-.41.41-.41h7.787c.227 0 .411.184.411.41v1.127c0 .227-.184.411-.411.411h-2.704l-.206.205"/><path d="m229.44 135.46c0 .225-.184.41-.41.41h-1.844c-.227 0-.411-.184-.411-.41v-1.845c0-.225.184-.408.411-.408h1.844c.225 0 .41.183.41.408v1.845"/><path d="m235.44 135.46c0 .225-.184.41-.408.41h-1.845c-.225 0-.41-.184-.41-.41v-1.845c0-.225.184-.408.41-.408h1.845c.224 0 .408.183.408.408v1.845"/><path d="m241.45 135.46c0 .225-.184.41-.408.41h-1.845c-.227 0-.41-.184-.41-.41v-1.845c0-.225.183-.408.41-.408h1.845c.224 0 .408.183.408.408v1.845"/><path d="m244.54 126.86c-.391 0-.533-.369-.37-.676l.944-1.722c.082-.143-.061-.266-.184-.266h-.35c-.224 0-.41-.184-.41-.41v-1.845c0-.225.186-.41.41-.41h1.845c.225 0 .411.184.411.41v1.845c0 .533-.165.922-.411 1.27l-1.065 1.497c-.082.123-.225.307-.534.307h-.285m4.098 0c-.389 0-.533-.369-.369-.676l.944-1.722c.08-.143-.061-.266-.186-.266h-.348c-.225 0-.41-.184-.41-.41v-1.845c0-.225.184-.41.41-.41h1.845c.225 0 .41.184.41.41v1.845c0 .533-.164.922-.41 1.27l-1.067 1.497c-.08.123-.225.307-.533.307h-.287"/></g></g></g></g></svg>