<svg width="1000" height="519" viewBox="0 0 1000 519" xmlns="http://www.w3.org/2000/svg"><g fill="none" fill-rule="evenodd" transform="translate(0-144)"><ellipse fill="#818181" cx="500" cy="564.62" rx="500" ry="98.38"/><path d="m481.57 345.73l223.24 43.27v118.01l-5.841 6.449-8.436-1.935v-96.73l-52.57 54.816v105.76l-6.49 7.739-11.03-3.87v-107.7l-206.36-48.563 67.49-77.26" fill="#000407"/><path d="m540.83 267.14l122.44 20.636v3.869l-30.28 101.03-45.43 48.15-128.92-27.09 25.09-51.16 57.11-95.44" fill="#4c5159"/><path d="m660.67 289.92l-28.986 91.14-132.82-26.23 43.26-84.7 118.54 19.777" fill="#6b6f75"/><path d="m561.21 298.67l-19.456 57.33 51.876 10.122 9.629-27.874-16.439-3.304 10.13-29.552-35.741-6.725" fill="#94979b"/><path d="m600.23 295.82l-3.282 9.572 16.581 3.12-10.272 29.736 22.07 4.434 13.303-39.785-38.4-7.08" fill="#a9abaf"/><path d="m596.95 305.39l-10.13 29.552 16.439 3.304 10.272-29.736-16.581-3.12" fill="#c1c3c5"/><path d="m550.03 256.71c-3.173 0-5.616.545-6.115 1.638-.497 1.087-1.226 5.083-.317 9.258l22.73 3.831c1.737-2.648 2.789-5.4 3.101-6.916.489-2.384-2.774-4.373-9.51-6.363-3.266-.965-6.901-1.448-9.889-1.448" fill="#9cacb7"/><path d="m543.6 267.6c.214.984.519 1.977.939 2.945l19.939 3.327c.685-.776 1.303-1.603 1.853-2.441l-22.73-3.831" fill="#b3b8bd"/><path d="m544.53 270.55c1.281 2.949 3.634 5.659 7.748 7.119 1.256.446 2.448.646 3.576.646 3.522 0 6.413-1.948 8.614-4.438l-19.939-3.327" fill="#c0c4c8"/><path d="m572.77 261.28c0 0-5.692-4.336-13.263-5.764-7.57-1.429-15.924.796-21.41-.822-5.487-1.619-8.454-7.171-20.855-10.597-12.403-3.427-17.589-1.293-21.829-2.034-4.239-.741-13.957-2.088-17.12-2.364-3.162-.276-4.299 2.274-4.299 2.274 0 0 1.474.018 2.593.678 1.119.661 1.265 1.158 1.265 1.158 0 0 15.314 4.647 15.851 6.808.536 2.161-.554 16.755 16.315 20.06 16.87 3.309 22.274-12.913 27.543-11.168 4.582 1.518-.773 16.882 14.186 20.426 14.959 3.544 18.09-14.559 18.09-14.559l2.184-1.266.751-2.834m-61.806 6.526c-15.191-2.319-14.76-17.795-14.01-20.538.535-1.954 8.234-2.741 18.307-.291 10.07 2.451 16.03 7.59 15.702 9.525-.327 1.935-7.199 13.258-20 11.304m41.684 9.429c-10.546-2.756-9.896-14.987-9.176-17 .718-2.02 8.298-2.716 14.61-1.424 6.312 1.292 9.453 2.855 9.193 5.072-.438 3.747-4.968 15.88-14.627 13.355" fill="#000"/><g fill="#f2d3b3"><path d="m415.15 327.54l36.99-103.18 111.62 9.351-42.83 124.46-105.78-30.633"/><path d="m555.36 284.39c0 6.937-5.658 12.56-12.639 12.56-6.98 0-12.639-5.623-12.639-12.56 0-6.936 5.659-12.559 12.639-12.559 6.981 0 12.639 5.623 12.639 12.559"/></g><path d="m456.28 263.32c0 6.936-5.659 12.56-12.639 12.56-6.981 0-12.639-5.624-12.639-12.56 0-6.937 5.658-12.56 12.639-12.56 6.98 0 12.639 5.623 12.639 12.56" fill="#e2bb98"/><path d="m570.12 262.86c0 0-20.1 7-22.913 8.04-4.651 1.72-6.381 5.482-6.922 7.202-.6 1.908.757 2.149 1.406 1.504 1.302-1.293 1.514-4.084 6.49-5.804 3.556-1.229 20.12-6.314 20.12-6.314l1.822-4.63" fill="#000"/><g fill="#593328"><path d="m424.23 300.46l21.416-61.695c0 0-3.245-4.944-4.327-12.897-.675-4.971 1.145-11.831 1.145-11.831 0 0-2.01-3.647-6.986-3.862-8.431-.364-11.681 6.234-11.681 6.234 0 0 2.596-8.813 11.465-15.907 8.869-7.094 18.82-10.963 18.82-10.963 0 0-6.06-1.72-9.734-10.963-3.916-9.845 0-19.347 0-19.347 0 0 4.759 10.748 11.681 15.477 6.922 4.73 13.628 6.449 13.628 6.449 0 0 15.39-3.717 28.553-8.813 16.656-6.449 9.08-24.721 9.08-24.721 0 0 10.167 12.468 8.437 22.571-1.731 10.1-7.139 12.898-7.139 12.898 0 0 6.706-1.075 11.03-3.869 4.326-2.795 7.788-11.608 7.788-11.608l-.649 14.187c0 0 8.868.215 14.276-4.514 5.409-4.729 7.139-16.767 7.139-16.767 0 0 3.245 10.1 2.596 16.12-.649 6.02-4.542 11.608-4.542 11.608 0 0 14.985-5.564 19.468-16.12 4.437-10.448-.178-27.587 0-27.73 0 0 19.936 20.985 18.387 45.36-1.298 20.421-27.15 49.12-27.15 49.12l-13.514 31.13-9.392 8.667-6.374 18.333c0 0-38.968 16.999-39.18 16.999-.216 0-53.646-9.03-53.646-9.03l-10.599-4.514"/><path d="m584.09 191.25c.105-30.526-17.954-46.22-17.954-46.22 0 0 14.291 12.265 11.573 39.34-1.984 19.762-8.802 33.724-24.336 44.927-13.553 9.774-35.908 15.477-35.908 15.477 0 0 66.41 9.566 66.63-53.53"/><path d="m505.31 190.08c0 0-26.326 5.4-39.78 2.882-13.455-2.518-19.256-8.536-29.419-8.833-14.392-.421-9.525 10.09-9.525 10.09 0 0-2.81-9.928 10.794-6.52 9.813 2.459 12.523 7.396 28.312 10.3 15.789 2.904 41.695-4.02 41.695-4.02l-2.078-3.901"/><path d="m549.57 243.76c0 0-.251-2.106 11.509-9.07 11.758-6.968 20.12-6.276 27.93-12.742 11.06-9.156.409-13.832.409-13.832 0 0 8.721 5.589-3.742 11.988-8.992 4.617-11.824 1.944-25.628 10.09-9.296 5.488-8.89 10.1-8.89 10.1l-1.587 3.47"/><path d="m565.02 230.09c0 0 4.232-1.262 7.619 1.893 3.386 3.155 2.117 11.358 3.598 15.564 1.481 4.207 5.926 4.838 5.926 4.838 0 0-5.715-.631-7.196-5.259-1.481-4.627-.211-10.09-2.964-13.04-2.751-2.944-8.889-1.051-8.889-1.051l1.905-2.945"/><path d="m461.08 183.7c0 0 5.08-11.568 1.013-20.925-4.484-10.321-16.675-12.516-16.675-12.516 0 0 9.736.63 16.08 8.833 7.087 9.155 2.758 24.941 1.715 24.696l-2.137-.088"/><path d="m583.84 188.12c0 0-2.425-11.734 5.504-21.01 7.324-8.568 21.785-6.831 21.785-6.831 0 0-10.426-2.973-19.459 3.233-9.56 6.569-10.815 23.23-9.745 23.306l1.914 1.302"/></g><path d="m527.85 550.35l-1.947 11.823 1.082 10.963c0 0 1.32 2.464 6.922 3.01 11.03 1.075 15.791-5.266 15.791-5.266l3.569-6.557 4.218.108 21.739-24.936 4.76-15.692-4.76-3.655-17.846 15.05-16.12 3.439-17.413 11.716" fill="#000"/><path d="m489.78 448.57c0 0 46.29 17.627 53.21 29.664 6.922 12.04 2.271 72.23 2.271 72.23.046.01-.991 4.605-5.515 5.159-7.896.968-9.193-2.579-9.193-2.579 0 0 2.055-45.572-.974-57.61-3.03-12.04-32.879-20.21-32.879-20.21 0 0-16.02 18.34-39.812 21.779-23.795 3.439-54.934-12.321-54.934-12.321l-29.419-36.973 117.24.86" fill="#6b6f75"/><path d="m549.7 411.16l8.653-21.926 25.525-4.729 3.893 4.299 6.49 1.29 1.731 5.159 4.759 2.579-6.099 5.428-9.04-1.558-13.412 13.327-18.603 3.44-3.893-7.309" fill="#f2d3b3"/><path d="m501.46 318.73c0 0 12.654-3.117 19.469 30.739 3.139 15.599 15.574 58.686 15.574 58.686l15.575-3.225c0 0 6.489-1.72 9.08 5.159 2.595 6.879-3.03 8.169-3.03 8.169l-32.987 4.729-12.871-37.619-20.333 64.7c0 0-11.91 16.11-41.762 18.263-29.852 2.15-62.934-4.935-62.934-4.935l-1.731-147.9 115.94 3.225" fill="#73d2ef"/><g fill="#000407"><path d="m509.71 592.09c-1.541-.229-2.794-1.462-2.977-3.073l-22.343-92.21c-.217-1.921 12.9-5.674 14.834-5.889 1.935-.219 3.675 1.168 3.891 3.089l10.617 94.23c.217 1.922-1.174 3.653-3.107 3.868-.313.035-.62.028-.916-.016"/><path d="m325.25 604.03c1.555-.084 2.92-1.193 3.254-2.78l30.995-89.7c.398-1.892-12.304-6.858-14.209-7.253-1.906-.4-3.77.818-4.167 2.71l-19.514 92.81c-.398 1.893.823 3.747 2.727 4.142.308.064.614.086.914.07"/><path d="m443.02 647.38c-1.748-.502-3.01-2.122-2.968-4.01l-11.534-116.17c.047-2.258 15.816-4.589 18.09-4.541 2.275.043 4.073 1.915 4.03 4.173l-2.354 116.71c-.048 2.258-1.928 4.049-4.199 4-.367-.006-.722-.062-1.058-.158"/></g><g fill="#fff"><path d="m358.13 486.23c0 0-9.792 1.676-10.435 8.71-.835 9.126 11.538 20.445 11.538 20.445 0 0 68.873 15.762 80.14 15.347 11.27-.415 69.44-40.35 69.44-40.35 0 0 7.514-4.563 5.845-12.859-.934-4.638-7.096-10.37-17.11-6.637-10.02 3.733-24.553 18.14-41.667 23.12-17.11 4.978-43.41 2.074-43.41 2.074l-54.34-9.848"/><path d="m429.9 363.38c12.138-1.132 17.529 3.22 19.19 17.484 1.213 10.406 8.71 93.14 9.677 105.07.968 11.927-7.312 21.453-21.855 21.533-14.543.079-55.984-1.743-62.03-2.517-6.05-.775-12.719-1.99-13.65-13.613-.932-11.623-11.319-120.01-11.319-120.01 0 0 71.36-7.146 79.987-7.951"/></g><path d="m182.18 485.54c0 0 8.653-16.337 34.18-30.09 25.525-13.757 51.915-16.767 51.915-16.767 0 0-20.767-24.08-60.14-3.869-27.891 14.315-25.958 50.731-25.958 50.731" fill="#a52626"/><path d="m516.38 333.99c.248-.142-3.997-16.474-19.14-24.506-14.03-7.44-36.01-15.653-64.5-15.484-15.259.091-42.18 5.913-67.56 21.933-30.22 19.08-55.32 48.13-72.25 59.12-31.15 20.21-61.867 24.936-86.959 49.44-25.09 24.506-22.497 55.89-22.497 55.89 0 0-5.624-52.02 73.98-42.992 79.6 9.03 101.67 113.93 101.67 113.93 0 0 26.547-46.25 40.451-87.7 17.522-52.24 65.36-131.61 100.37-136.93 11.31-1.718 16.441 7.309 16.441 7.309" fill="#eb3636"/><path d="m642.77 432.84l2.305-30.356h-33.05l2.31 30.426-.021.191c0 .24.033.477.09.711l.01.13h.033c.909 3.18 6.871 5.638 14.11 5.638 7.238 0 13.201-2.458 14.11-5.638h.02l.006-.08c.064-.25.107-.503.107-.761l-.029-.261" fill="#fff"/><path d="m645.07 402.69c0 4.152-7.398 7.518-16.524 7.518-9.126 0-16.524-3.366-16.524-7.518 0-4.152 7.398-7.518 16.524-7.518 9.126 0 16.524 3.366 16.524 7.518" fill="#ccc"/><g fill="#fff"><path d="m643.58 424.25c-4.226 0-7.664-3.417-7.664-7.617 0-4.2 3.437-7.617 7.664-7.617 4.226 0 7.666 3.417 7.666 7.617 0 4.2-3.439 7.617-7.666 7.617m0-12.859c-2.908 0-5.275 2.352-5.275 5.242 0 2.891 2.367 5.243 5.275 5.243 2.909 0 5.276-2.352 5.276-5.243 0-2.89-2.367-5.242-5.276-5.242"/><path d="m641.21 406.57l11.982-28.02-31.3-10.534-7.633 29.554-.082.174c-.077.228-.122.463-.144.702l-.033.127.032.01c-.166 3.302 4.687 7.531 11.543 9.838 6.855 2.307 13.296 1.879 15.183-.843l.019.006.031-.073c.142-.217.264-.443.347-.687l.056-.257"/></g><path d="m653.13 378.75c-1.34 3.933-9.434 4.762-18.08 1.853-8.643-2.909-14.564-8.455-13.225-12.388 1.34-3.933 9.435-4.763 18.08-1.853 8.644 2.909 14.565 8.455 13.225 12.388" fill="#ccc"/><g fill="#fff"><path d="m644.75 398.69c-4-1.347-6.156-5.679-4.801-9.658 1.355-3.978 5.715-6.118 9.718-4.77 4 1.347 6.157 5.679 4.802 9.657-1.355 3.978-5.717 6.119-9.719 4.771m4.15-12.18c-2.754-.927-5.755.547-6.688 3.284-.934 2.738.549 5.721 3.304 6.648 2.755.927 5.757-.546 6.69-3.285.933-2.737-.549-5.719-3.306-6.647"/><path d="m683.94 410.12l2.098-27.622h-30.07l2.103 27.686-.019.174c0 .219.03.434.082.647l.009.118h.03c.826 2.894 6.252 5.131 12.838 5.131 6.585 0 12.01-2.237 12.837-5.131h.019l.005-.072c.059-.228.098-.458.098-.693l-.027-.238"/></g><path d="m686.04 382.67c0 3.779-6.732 6.842-15.04 6.842-8.305 0-15.04-3.063-15.04-6.842 0-3.778 6.732-6.841 15.04-6.841 8.304 0 15.04 3.063 15.04 6.841" fill="#ccc"/><path d="m660.75 571.84l-2.305-30.356h33.05l-2.31 30.426.021.191c0 .24-.033.477-.09.711l-.01.13h-.033c-.909 3.18-6.871 5.638-14.11 5.638-7.238 0-13.201-2.458-14.11-5.638h-.021l-.006-.08c-.064-.25-.107-.503-.107-.761l.029-.261" fill="#fff"/><path d="m658.45 541.68c0 4.152 7.398 7.518 16.524 7.518 9.127 0 16.525-3.366 16.525-7.518 0-4.152-7.398-7.518-16.525-7.518-9.126 0-16.524 3.366-16.524 7.518" fill="#ccc"/><g fill="#fff"><path d="m652.27 555.63c0-4.2 3.438-7.617 7.665-7.617 4.226 0 7.665 3.417 7.665 7.617 0 4.2-3.438 7.617-7.665 7.617-4.226 0-7.665-3.417-7.665-7.617m2.389 0c0 2.891 2.367 5.243 5.276 5.243 2.908 0 5.275-2.352 5.275-5.243 0-2.89-2.367-5.242-5.275-5.242-2.909 0-5.276 2.352-5.276 5.242"/><path d="m632.04 179h225.16v64h-225.16v-64"/><path d="m653.11 270v-69l56.35-1-56.35 70"/></g><path d="m669.7 215.07v-1.848h-2.256v-4.968h-2.064v4.968h-5.688l6.528-11.28h-2.16l-6.336 10.992v2.136h7.656v3.552h2.064v-3.552h2.256m12.48 3.552v-1.92h-7.344l5.664-7.03c.912-1.128 1.416-2.232 1.416-3.552 0-1.056-.264-1.872-.768-2.592-.84-1.176-2.256-1.92-4.08-1.92-2.952 0-4.92 1.968-4.92 4.872h2.112c0-2.208 1.344-3.02 2.832-3.02 1.752 0 2.736.984 2.736 2.688 0 .864-.288 1.608-.912 2.4l-6.744 8.328v1.752h10.01m13.824-8.592c0-2.352-.216-4.704-1.416-6.36-.816-1.104-2.208-2.064-4.08-2.064-1.728 0-3.048.648-3.936 1.608-.936 1.032-1.512 2.4-1.512 4.08 0 1.776.6 3.288 1.68 4.32.792.768 1.992 1.296 3.504 1.296 1.584 0 3.168-.792 3.696-1.944-.024 1.752-.12 3.912-1.176 5.112-.504.576-1.224 1.01-2.28 1.01-.792 0-1.392-.216-1.872-.648-.504-.432-.888-1.056-.936-1.872h-2.064c.048 1.224.6 2.256 1.344 3 .84.864 2.04 1.368 3.456 1.368 2.112 0 3.552-1.01 4.344-2.256 1.128-1.8 1.248-4.272 1.248-6.648m-2.28-2.76c0 1.176-.312 2.112-.936 2.808-.504.576-1.272 1.01-2.328 1.01-1.056 0-1.848-.384-2.352-.96-.624-.696-.984-1.68-.984-2.856 0-1.176.336-2.16.984-2.856.528-.576 1.248-.96 2.304-.96 1.056 0 1.8.432 2.328 1.01.648.696.984 1.632.984 2.808m21.72-3.672v-1.992h-12.288v1.992h5.064v15.02h2.16v-15.02h5.064m15.02 15.02l-6.02-17.02h-2.496l-6 17.02h2.16l1.368-4.03h7.392l1.392 4.03h2.208m-4.296-6.05h-6.02l3-8.832 3.02 8.832m18.528 1.368c0-2.688-1.896-4.416-4.728-4.824-.936-.144-1.872-.312-2.832-.432-1.272-.168-2.544-.864-2.544-2.4 0-.768.264-1.344.696-1.848.744-.84 1.8-1.176 3.02-1.176 1.32 0 2.352.432 3 1.176.48.552.792 1.296.84 2.136h2.232c-.048-1.44-.6-2.664-1.632-3.648-1.128-1.08-2.76-1.632-4.416-1.632-1.776 0-3.288.576-4.464 1.68-.912.864-1.488 2.088-1.488 3.36 0 2.712 1.992 4.128 4.536 4.512.912.144 1.752.264 2.688.408 2.02.312 2.856 1.416 2.856 2.736 0 .912-.336 1.512-.864 1.992-.768.72-1.872.984-3.168.984-1.2 0-2.496-.312-3.264-1.056-.696-.672-1.2-1.68-1.2-2.688h-2.232c0 1.608.744 3.072 1.824 4.08 1.152 1.056 2.808 1.632 4.872 1.632 1.824 0 3.648-.552 4.824-1.704.84-.816 1.44-1.872 1.44-3.288m16.776 4.68l-6.12-10.536 5.544-6.48h-2.664l-7.8 9.07v-9.07h-2.136v17.02h2.136v-4.8l3.456-4.03 5.088 8.832h2.496m14.352-4.68c0-2.688-1.896-4.416-4.728-4.824-.936-.144-1.872-.312-2.832-.432-1.272-.168-2.544-.864-2.544-2.4 0-.768.264-1.344.696-1.848.744-.84 1.8-1.176 3.02-1.176 1.32 0 2.352.432 3 1.176.48.552.792 1.296.84 2.136h2.232c-.048-1.44-.6-2.664-1.632-3.648-1.128-1.08-2.76-1.632-4.416-1.632-1.776 0-3.288.576-4.464 1.68-.912.864-1.488 2.088-1.488 3.36 0 2.712 1.992 4.128 4.536 4.512.912.144 1.752.264 2.688.408 2.02.312 2.856 1.416 2.856 2.736 0 .912-.336 1.512-.864 1.992-.768.72-1.872.984-3.168.984-1.2 0-2.496-.312-3.264-1.056-.696-.672-1.2-1.68-1.2-2.688h-2.232c0 1.608.744 3.072 1.824 4.08 1.152 1.056 2.808 1.632 4.872 1.632 1.824 0 3.648-.552 4.824-1.704.84-.816 1.44-1.872 1.44-3.288m19.44 4.68v-1.992h-8.184v-15.02h-2.136v17.02h10.32m14.11 0v-1.968h-9.24v-5.88h8.112v-2.02h-8.112v-5.184h9.24v-1.968h-11.376v17.02h11.376m14.64-15.05v-1.968h-11.02v17.02h2.136v-7.488h7.92v-2.02h-7.92v-5.544h8.88m13.272.024v-1.992h-12.288v1.992h5.064v15.02h2.16v-15.02h5.064" fill="#000"/></g></svg>