<svg width="1000" height="733" viewBox="0 0 1000 733" xmlns="http://www.w3.org/2000/svg"><g fill="none" fill-rule="evenodd"><ellipse fill="#9b9b9b" cx="500" cy="678" rx="500" ry="54"/><g fill="#8b8b8b"><path d="m115.41 669.47c35.7-19.976 197.52-35.16 386.09-35.16 188.46 0 350.17 15.189 385.87 35.16h103.63c-37.04-25.395-240.27-45.47-489.5-45.47-247.32 0-452.23 20.08-489.5 45.47h103.41"/><path d="m887.61 687c-34.2 19.94-196.49 35.03-386.06 35.03-189.67 0-352.08-15.09-386.17-35.03h-103.39c35.543 25.34 241.09 45.45 489.56 45.45 250.25 0 454.24-20.11 489.44-45.45h-103.39"/></g><g transform="translate(134)"><path d="m601.35 684.54l60.735-18.269c2.214-.666 2.266-3.783.075-4.522l-67.2-22.663-65.12 15.826 71.51 29.628" fill="#ccc"/><path d="m587.51 599.56l16.38 81.35c.506 2.62-2.033 4.794-4.544 3.891l-70.63-29.488c-1.141-.411-1.982-1.391-2.213-2.582l-14.837-72.41c-.463-2.382 1.618-4.482 4-4.04l69.09 20.552c1.392.258 2.483 1.342 2.752 2.731" fill="#bcbcbc"/><g fill="#494949"><path d="m0 12h240v296h-240v-296"/><path d="m247 0h239v296h-239v-296"/><path d="m493 51h239.96v296h-239.96v-296"/></g><path d="m462.44 557.69l9.343 108.53-9.343-108.53m-87.82 108.53l9.343-108.53-9.343 108.53m87.85-109.76c0 4.117-17.576 7.454-39.26 7.454-21.682 0-39.26-3.337-39.26-7.454 0-4.117 17.576-7.454 39.26-7.454 21.682 0 39.26 3.337 39.26 7.454m8.945 108.76c0 9.331-21.581 16.895-48.2 16.895-26.622 0-48.2-7.564-48.2-16.895 0-9.332 21.581-16.896 48.2-16.896 26.622 0 48.2 7.564 48.2 16.896" stroke="#c1c1c1" stroke-width="2"/><g fill="#ffe36e"><path d="m336.94 219.07c0 0 1.578-6.7 2.272-13.35.694-6.649-2.776-16.442-2.776-16.442l10.07 3.174c0 0 1.408 4.988.901 13.331-.506 8.343-5.494 15.702-5.494 15.702l-4.97-2.415"/><path d="m651 81h27v29h-27v-29"/><path d="m546.17 110.98l-24.04-6.766 7.689-27.32 24.04 6.766-7.688 27.32"/></g><g fill="#b6e032"><path d="m668 194h29v29h-29v-29"/><path d="m632 203h29v29h-29v-29"/><path d="m336 34h29v29h-29v-29"/></g><path d="m486.9 261.53l41.07-32.35 11.07-40.884-2.338-16.11 6.161-8.214 6.161-23.618 4.108 1.027-2.567 19.51 11.295 13.349-8.215 15.403-14.376 48.775-54.936 46.21 2.567-23.1" fill="#f2ccaa"/><path d="m481.23 264.29l45.704-34.902 4.439-15.986-5.192-2.18 5.904-10.526 19.767 5.905-1.283 12.06-4.108-1.283-7.255 22.355-61.18 49.92 3.202-25.368" fill="#fff"/><path d="m428.64 155.96l-14.889 37.993c0 0-6.06-2.738-9.486-1.026-3.423 1.711-3.423 8.557-1.027 10.268 2.396 1.711 2.812 4.107 2.812 4.107l-3.594 14.376c0 0 4.792 1.712 8.728-2.053 3.936-3.766 5.134-8.729 5.134-8.729 0 0-2.225 13.52-5.647 19.51-3.423 5.99-9.242 7.188-9.242 7.188 0 0-9.737 25.882-17.02 62.49-7.282 36.605-11.732 73.813-11.732 73.813l98.58 11.98c0 0 8.899-98.82 23.617-143.14 8.03-24.19 22.08-45.18 22.08-45.18l-88.31-41.587" fill="#f2ccaa"/><path d="m375.68 384.87l8.09 146.41 14.06.622-.995-67.844 7.01-36.09 37.8.562 6.927 44.07.789 67.99h12.819l1.386-65.46 7.949-90.25h-95.83" fill="#91959b"/><path d="m399.92 528.16c0 0-7.692-.342-12.966-1.918-5.273-1.575-3.658-1.993-7.306-2.773-3.649-.779-6.412 7.741-15.692 11.05-9.281 3.314-26.66 5.884-33.12 7.555-6.462 1.672-4.767 10.965-4.767 10.965l77.29-.631c0 0 2.362-8.113 1.519-12.153-.842-4.04-4.954-12.1-4.954-12.1" fill="#1a53ad"/><path d="m325.28 555.48c.007.894.738 1.612 1.631 1.605l76.07-.622c.894-.007 1.613-.737 1.606-1.631l-.03-3.642c-.007-.894-.738-1.613-1.632-1.605l-76.07.621c-.894.007-1.612.738-1.605 1.632l.03 3.642" fill="#fff"/><path d="m468.79 519.74c-1.493-3.36-7.887 3.322-13.16 1.746-5.274-1.575-3.71-1.782-7.307-2.773-3.049-.84-6.781 12.784-7.715 17.264-1.131 5.429 2.238 11.917 2.238 11.917l29.19-.238c0 0 2.361-8.113 1.519-12.153-.842-4.04-3.267-12.404-4.76-15.763" fill="#1a53ad"/><path d="m440.62 550.35c.007.894.737 1.613 1.631 1.606l29.415-.248c.894-.008 1.613-.738 1.605-1.632l-.029-3.642c-.008-.894-.738-1.613-1.632-1.605l-29.415.248c-.894.007-1.612.738-1.605 1.632l.03 3.641" fill="#fff"/><path d="m455.17 208.67c4.689 3.552 11.369 2.629 14.92-2.059 3.55-4.689 2.628-11.368-2.06-14.92-2.274-1.721-5.02-2.391-7.641-2.09-2.79.319-9.907 15.519-5.219 19.07" fill="#d6af8e"/><path d="m452.17 207.15c4.689 3.551 11.368 2.629 14.919-2.06 3.551-4.688 4.847-11.305-1.656-15.926-2.325-1.651-5.419-1.384-8.04-1.084-2.79.32-9.908 15.519-5.219 19.07" fill="#f2ccaa"/><path d="m490.91 133.62c25.389 1.686 31.01 17.876 34.399 27.468 6.563 18.601-16.9 52.56-16.9 52.56l-7.115 13.17c0 0-1.626 1.37-7.787-.342-5.43-1.508-9.413-4.278-9.413-4.278 0 0-.256-13.01-5.391-20.537-3.357-4.925-8.642-6.504-8.642-6.504 0 0-1.027-3.251-3.937-5.647-2.909-2.396-6.287-2.337-6.287-2.337 0 0-4.841 3.058-7.745 8.458-4.495 8.358-3.337 14.746-3.337 14.746 0 0-2.1-7.151-1.173-14.897 1.199-10.02 3.24-15.16 3.24-15.16 0 0-3.27 3.275-4.943 7.37-2.364 5.788-2.703 14.36-2.703 14.36 0 0-1.924-6.865-1.142-15.232.782-8.367 4.716-20.721 4.716-20.721 0 0-5.181 9.807-7.851 23.2-1.152 5.781-2.65 15.349-2.65 15.349l-1.655-16.967-3.452 19.703-2.238-13.175-2.76 11.391c0 0-1.634-5.4-1.347-13.06.288-7.687 2.13-15.299 2.13-15.299 0 0-1.586 2.174-3.984 8.676-3.347 9.07-2.64 19.752-2.64 19.752 0 0-1.907-8.415-1-17.234 1.14-11.11 2.413-12.531 2.488-12.438 0 0-1.131.905-3.618 9.498-1.922 6.638-3.618 17.19-3.618 17.19 0 0-.158-16.237 2.619-27.972 2.01-8.489 8.02-45.45 73.74-41.08" fill="#895943"/><path d="m393.13 283.78l-48.69 10.994-4.514-52.3 7.094-16.12-.995-13.239-5.965 14.486-5.615-3.827 4.621-15.913-17.197 8.497-1.612 17.09 9.351 14.51 2.579 66.17 61.59-15.831-.645-14.51" fill="#f2ccaa"/><g fill="#fff"><path d="m390.13 273.02c0 0 13.15-13.828 38.434-20.6 28.752-7.702 66.3-1.478 66.3-1.478-2.148-1.79-11.457 35.18-14.889 70.853-3.398 35.31-5.305 66.47-5.305 66.47-.001 0-18.313 24.302-49.631 23.1-31.32-1.198-54.595-26.01-54.595-26.01 0 0 2.91-39.604 8.386-67.67 5.477-28.07 11.296-44.667 11.296-44.667"/><path d="m391.11 283.46l-45.695 11.317-1.129-28.605 3.386-1.935-2.902-11.124-19.831 1.451-.967 12.575 4.837.484 2.418 46.5 60.965-13.989-1.082-16.675"/></g><path d="m573 111h30v29h-30v-29" fill="#ffe36e"/><g fill="#b6e032"><path d="m533 97h29v30h-29v-30"/><path d="m85.25 687.07l-27.301 9.267-25.736-16.664 26.631-3.167c2.754-.327 5.543.158 8.02 1.396l18.381 9.168"/></g><path d="m406.35 209.97l-.879 3.699m4.144-3.475l-.743 3.091m4.113-3.368l-.646 2.641" stroke="#bf997f" stroke-width="2"/><g fill="#ffe36e"><path d="m606 261h27v29h-27v-29"/><path d="m481.44 436.42l-23.1 9.503-10.799-26.25 23.1-9.503 10.799 26.25"/></g><path d="m535.67 187.33l-28.334 7c0 0-4.052-2.535-6.859-11.434-2.807-8.899-3.547-16.604-3.547-16.604l28.865-6.166c0 0 .648 7.325 3.261 15.265 2.614 7.939 6.614 11.939 6.614 11.939" fill="#b6e032"/><g fill="#f2ccaa"><path d="m156.94 416.57c0 0 3.135 62.6 1.915 118.11-1.22 55.51-11.22 127.14-10.192 139.44 1.029 12.293 36.946 19.428 40.757 17.12 2.304-1.397-24.285-18.03-25.17-26.01-.884-7.983 6.615-73.11 10.61-131.08 4.03-58.49 6.257-119.09 5.452-118.97l-23.373 1.4"/><path d="m107.74 404.46c0 0 3.134 62.6 1.914 118.11-1.219 55.51-11.22 127.14-10.191 139.44 1.029 12.292 35.81 21.699 39.622 19.389 2.304-1.397-23.339-22.377-24.22-30.36-.884-7.983 6.804-71.03 10.799-129 4.03-58.49 6.256-119.09 5.452-118.97l-23.373 1.4"/></g><path d="m169.47 125.64c0 0-18.3 4.806-32.03 14.378-13.726 9.571-30.753 41.08-44.843 49.844-14.09 8.761-30.15-2.052-30.15-2.052 0 0 14.09 15.11 32.596 5.337 18.508-9.77 29.496-39.545 45.654-50.21 16.16-10.663 34.15-12.896 34.15-12.896l-5.386-4.402" fill="#ce450f"/><path d="m222.74 126.11c0 0-5.063-2.122-10.949-1.711-5.884.41-11.633 3.695-16.01 3.558-4.38-.137-7.665-3.695-17.518-3.832-9.854-.137-13.276 2.464-16.561 2.737-3.284.274-10.743 1.164-13.14 1.574-2.396.411-2.738 2.532-2.738 2.532 0 0 15.466 1.095 16.287 2.601.821 1.505 2.874 12.591 16.01 11.77 13.14-.822 13.96-13.96 18.202-13.686 3.69.237 2.737 12.728 14.508 12.454 11.77-.274 10.538-14.371 10.538-14.371l1.368-1.368v-2.258m-44.48 16.902c-11.702 1.232-14.418-10.382-14.399-12.572.013-1.56 5.559-3.646 13.497-3.783 7.938-.137 13.356 2.532 13.493 4.04.137 1.506-2.731 11.28-12.591 12.318m32.709-1.095c-8.348.001-10.264-9.238-10.127-10.88.137-1.643 5.611-3.64 10.538-3.908 4.927-.267 7.558.286 7.801 1.988.411 2.878-.565 12.799-8.212 12.8" fill="#000"/><path d="m106.54 233.27c-12.09 66.839-9.46 105.96-9.46 105.96l82.87.757c0 0-1.21-33.996 6.436-82.34 7.645-48.34 16.278-76.7 16.278-76.7 0 0-3.207-4.932-3.946-9.865-.74-4.933 1.233-11.592 1.233-11.592l6.659 7.399 1.726-10.605c0 0 2.22 0 3.7-1.973 1.48-1.974 2.713-9.373.987-10.113-1.727-.74-5.92 1.727-5.92 1.727l3.207-32.31-79.932 5.378c0 0-11.755 47.44-23.841 114.28" fill="#f2ccaa"/><path d="m220.66 127.84l-35.25 7.409 2.55 1.873 32.19-5.45.511-3.832" fill="#000"/><g fill="#ffe36e"><path d="m104 47h24v27h-24v-27"/><path d="m300.31 144.97l-21.64-6.09 6.921-24.591 21.639 6.09-6.92 24.591"/></g><g fill="#f2ccaa"><path d="m123.23 195.39l-45.46-46.553 14.07-74.1 18.217-14.176-12.428.297.246-7.46 6.681-7.381 7.901 2.5-8.291-9.436-17.15 4.443-22.348 110.33 54.37 59.27 4.193-17.732"/><path d="m184.79 206.87l80.2 16.986 36.1-68.77-4.97-25.08 8.558 9.02 5.114-5.438.516-9.941-7.346-3.836 12.537-.782 8.949 15.285-54.791 105.44-91.57-12.526 6.707-20.349"/></g><path d="m104.46 230.43c-12.09 66.839-9.839 106.33-9.839 106.33l86.09.946c0 0-1.065-25.678 3.807-66.57.518-4.347 1.137-8.852 1.872-13.497.368-2.327-10.459-15.354-1.749-36.05 1.99-4.729 5.62-9.196 11.306-14.174.597-.523-22.547 17.24-51.669 8.554-29.22-8.715-27.898-34.552-27.898-34.552-3.697 14.627-8.69 31.14-11.92 49" fill="#fff"/><path d="m180.58 329.95l-86.7.19c-.001 0-4.249 5.676-8.673 26.915-7.589 36.431 14.892 63.48 14.929 63.15l85.83-1.335c0 0 17.995-34.14 6.409-63.942-8.169-21.01-11.797-24.976-11.797-24.976" fill="#000"/><g fill="#ce450f"><path d="m125.88 155.94c0 0 .087-.739 0-.767-1.589-.512-22.679-1.122-27.547-19.844-8.666-33.33 29.09-56.633 29-56.666 0 0 60.17-18.598 81.67-3.667 48 33.33-23.54 63.14-23.54 63.14l-11.793 14.192-8.445-1.754-7.842 17.729c0 0-5.312-4.743-7.169-9.492-1.974-5.05-1.339-4.149-1.339-4.149l-8.175.51-6.423 14.629c0 0-3.455-2.992-5.495-6.869-2.748-5.22-2.899-6.993-2.899-6.993"/><path d="m189.64 129.84c0 0 .109 34.987-13.492 52.1-13.601 17.11-30.901 22.86-37.911 36.586-7.01 13.725 6.163 24.916 6.163 24.916 0 0-9.615-13.08.121-25.977 9.736-12.894 20.481-11.948 36.37-32.06 15.888-20.12 15.841-55.57 15.841-55.57l-7.091.01"/><path d="m202.9 45.19c3.391 14.721-12.745 31-36.04 36.37-23.297 5.367-44.932-2.216-48.32-16.936-3.391-14.721 12.745-31 36.04-36.37 23.297-5.367 44.932 2.216 48.32 16.936"/></g><g fill="#db5816"><path d="m187.94 65.751c0 0 9.03-8.383 7.97-17.738-1.058-9.355-16.548-13.566-16.548-13.566 0 0 8.355 6.511 10.277 14.998 1.922 8.486-1.699 16.306-1.699 16.306"/><path d="m157.89 165.05c0 0-8.08-14.433-7.231-29.801.854-15.369 3.066-20.693 3.066-20.693 0 0-.205 6.993 1.533 19.16 2.043 14.306 8.43 17.371 8.43 17.371l-5.798 13.963"/><path d="m135.74 164.54c0 0-6.535-14.09-5.826-26.848.709-12.755 3.464-19.05 3.464-19.05 0 0-1.102 7.716-.157 17.872.945 10.157 7.734 16.11 7.734 16.11l-5.215 11.919"/></g><path d="m210.69 86.969c6.897.511 15.11 2.283 19.16 12.518 4.343 10.985-7.774 24.14-7.774 24.14 0 0 7.899-12.177 3.429-20.403-4.47-8.227-11.554-5.285-11.554-5.285l-12.908-7.979c0 0 4.03-3.408 9.648-2.992" fill="#ce450f"/><path d="m181.87 152.95c-5.07 0-9.181-4.111-9.181-9.181 0-5.071 4.111-9.181 9.181-9.181 2.459 0 4.691.966 6.339 2.54 1.751 1.671-1.268 15.822-6.339 15.822" fill="#f2ccaa"/><g fill="#ce450f"><path d="m158.14 82.67c0 0-15.744-4.808-26.296-2.597-10.552 2.212-15.829 6.03-23.426 6.337-14.366.575-7.01-9.544-7.01-9.544 0 0-4.446 9.659 8.115 6.313 7.702-2.052 10.869-5.717 23.25-8.272 12.383-2.554 26.934 4.639 26.934 4.639l-1.573 3.124"/><path d="m166.63 80.79c0 0 15.37-9.782 28.373-13.8 13-4.02 19.46 4.572 19.46 4.572 0 0-8.413-6.108-18.01-2.16-9.602 3.949-26.684 13.199-26.684 13.199l-3.134-1.811"/><path d="m200.35 133.76c0 0-7.628 14.13-7.543 24.65.084 10.518 2.723 16.299 1.552 23.623-2.215 13.851-10.476 4.866-10.476 4.866 0 0 8.382 6.11 7.599-6.547-.48-7.76-3.376-11.495-3.436-23.83-.061-12.335 9.619-24.867 9.619-24.867l2.685 2.105"/></g></g></g></svg>