<svg xmlns="http://www.w3.org/2000/svg" viewBox="0 0 100 60" enable-background="new 0 0 100 60"><path fill="#e5e5e5" d="m-77.3-104.3h254.7v268.6h-254.7z"/><g transform="translate(94)"><g fill="#f2ccaa"><path d="m-29.6 59.3c0 0 13.4 36.4 13.6 85 .3 48.6-6.9 110.9-6.9 110.9l-12.5 1.2-3.2-4 5.1-.7 2.6-4.9v-3.9l-4.5 5.1 5.1-14 3.2-14.3c0 0 2.8-34.6 3.6-74.6.6-31.3-9.4-67.3-9.4-67.3l3.3-18.5"/><path d="m-76.9 9l-9 154.7 52.2 1.8 9-156.8-8.1-8-44.1 8.3"/><path d="m-73.2 25.8c0 3.7-3 6.7-6.7 6.7-3.7 0-6.7-3-6.7-6.7 0-3.7 3-6.7 6.7-6.7 3.6 0 6.7 3 6.7 6.7"/><path d="m-18.9 22.9c0 3.1-2.6 5.7-5.7 5.7-3.1 0-5.7-2.6-5.7-5.7s2.6-5.7 5.7-5.7c3.2 0 5.7 2.5 5.7 5.7"/></g><path fill="#ce450f" d="m-78.1 18.9c0 0-19.7-3.4-13.9-19.6 4.3-12.1 47.2-31.7 47.2-31.7s31.8 23.5 32.2 33.4c.5 10.5-17.2 14.2-17.2 14.2v-.2c0 0 .1-3-1-6.1-1-3-3-5-3-5s1.1 2 2 6c.6 3 .1 5.3.1 5.3l-10.5.7-.4-4.8c0-.1 0 .2.1.4.1.4.1.8-.2-.8-.4-2.5-1.6-5.1-1.6-5.1 0 0 .5 2.8.6 5.3.1 2.5-.2 4.8-.2 4.8l-19.1 1.5-.5-5.5-2.4 6.3-12.2.9"/><path fill="#db5816" d="m-25.4-10.8c0 0 5.6 8.5 6.4 12.1s-2 6.9-2 6.9 7.4-3.4 6.2-7.2c-1.3-3.8-10.6-11.8-10.6-11.8"/><path fill="#bf3910" d="m-75.2-11.4c0 0-7.3 11.1-8.4 15.9s2.7 9 2.7 9-9.1-4.3-8.1-9.4c1.4-7.1 13.8-15.5 13.8-15.5"/><path fill="#ba8c75" d="m-45.3 26.8c0 0 .8 1 2.7 1.1 1.9.1 1.9-2.3 1.9-2.3s.3 3.4-1.8 3.7c-2.2.3-2.8-2.5-2.8-2.5"/><path fill="#bf072b" d="m-47.6 37.1l4.4-3.8 1.8 4-2.8-1-3.4.8"/><path fill="#fff" d="m-80.4 58.4l-5.6 105.3 54.1 1.9 4.6-106.4c0 0-.8 39.8-25.7 39.7-19-.1-27.4-40.5-27.4-40.5"/><path fill="#f2ccaa" d="m-80.6 59.9c0 0-19 33.8-27 81.8s-7.2 111.2-7.2 111.2l12.1 3.1 3.7-3.4-4.9-1.5-1.8-5.2.6-3.9 7.8 5.4-7-14.2-.9-14.6c0 0-.8-35.1 4.8-74.8 4.4-31 20-65 20-65l-.2-18.9"/><g fill="#ce450f"><path d="m-28.7 10.2c0 0-2.1 12.6 0 23.7 2.1 11.1 16.8 30.3 18.3 41.4 1.5 11.1-9.6 18-9.6 18s13.2-4.5 12.3-18.6c-.9-14.1-16.2-29.1-18.3-42-2.1-12.9 1.5-24.6 1.5-24.6l-4.2 2.1"/><path d="m-72.1 15c0 0 3 22.2-4.2 34.2-7.2 12-17.7 17.1-21 26.4-3.3 9.3 6 15.3 6 15.3s-7.2-7.5-2.1-16.5c5.1-9 12-9.3 20.4-23.4s5.4-36.6 5.4-36.6l-4.5.6"/></g><path d="m-26.2 16.5c0 0-3.2-1.4-7-1.1-3.8.3-7.4 2.4-10.2 2.3-2.8-.1-4.9-2.4-11.2-2.5-6.3-.1-8.5 1.6-10.6 1.8-2.1.2-6.9.7-8.4 1-1.5.3-1.8 1.6-1.8 1.6s9.9.7 10.4 1.7c.5 1 1.8 8.1 10.2 7.5 8.4-.5 8.9-8.9 11.7-8.8 2.4.2 1.8 8.1 9.3 8 7.5-.2 6.7-9.2 6.7-9.2l.9-.9v-1.4m-28.5 10.8c-7.5.8-9.2-6.6-9.2-8 0-1 3.6-2.3 8.6-2.4 5.1-.1 8.5 1.6 8.6 2.6.2.9-1.7 7.1-8 7.8m21-.7c-5.3 0-6.6-5.9-6.5-7 .1-1.1 3.6-2.3 6.7-2.5 3.2-.2 4.8.2 5 1.3.3 1.8-.3 8.2-5.2 8.2"/><path fill="#f7e9dd" d="m-54.8 16.8c-.1 0-.3 0-.4 0-3.8.1-6.8.8-8.1 1.6-.4.3-.6.5-.6.8 0 1.3 1.6 8.1 8.1 8.1.3 0 .7 0 1.1-.1 6.3-.7 8.1-6.9 8.1-7.9-.1-.7-2-1.9-5.1-2.3-1-.1-2-.2-3.1-.2"/><path fill="#959899" d="m-51.7 17c3.1.5 5.1 1.6 5.1 2.3.1 1-1.7 7.2-8.1 7.9-.4 0-.7.1-1.1.1-6.6 0-8.1-6.8-8.1-8.1 0-.2.2-.5.6-.8-.5.3-.7.6-.7.8 0 1.4 1.6 8.2 8.3 8.2.4 0 .7 0 1.1-.1 6.4-.7 8.3-7 8.2-8-.1-.6-2.1-1.8-5.3-2.3"/><g fill="#f7e9dd"><path d="m-32.1 17.1c-.4 0-.9 0-1.4 0-2 .1-4.2.7-5.5 1.3-.7.4-1.2.8-1.2 1.2-.1 1.1 1.1 7 6.5 7 1.7 0 2.9-.8 3.8-1.9-.2-.6-.3-1.2-.3-1.8 0-1 .3-1.9.7-2.8 0-.9.1-1.9.1-2.7 0 0 0 0-.1 0-.6-.2-1.4-.3-2.6-.3"/><path d="m-29.5 20.1c-.5.8-.7 1.8-.7 2.8 0 .6.1 1.2.3 1.8.1-.2.3-.4.4-.6-.1-1.4-.1-2.7 0-4"/></g><path fill="#e7b39f" d="m-29.4 17.4c-.1.9-.1 1.8-.1 2.7 0 1.2-.1 2.6 0 3.9 1.1-2 1.3-4.6 1.1-5.6-.1-.5-.5-.8-1-1"/><path fill="#959899" d="m-29.5 17.4c0 0 .1 0 0 0 .6.2.9.6 1 1 .2 1.1 0 3.7-1.1 5.6-.1.2-.3.4-.4.6-.8 1.1-2 1.9-3.8 1.9-5.3 0-6.6-5.9-6.5-7 0-.4.5-.8 1.2-1.2-.8.4-1.3.8-1.3 1.2-.1 1.1 1.2 7.1 6.6 7.1 5 0 5.6-6.5 5.3-8.3 0-.4-.3-.7-1-.9"/></g></svg>