<svg xmlns="http://www.w3.org/2000/svg" viewBox="0 0 100 60" enable-background="new 0 0 100 60"><path fill="#e5e5e5" d="m-77.3-105h254.7v268.6h-254.7z"/><g transform="translate(134)"><g fill="#494949"><path d="m-184.6-48.5h128.9v159h-128.9v-159"/><path d="m-51.9-55h128.4v159h-128.4v-159"/></g><path fill="#ce450f" d="m-93.5 12.5c0 0-9.8 2.6-17.2 7.7-7.4 5.1-16.5 22.1-24.1 26.8-7.6 4.7-16.2-1.1-16.2-1.1s7.6 8.1 17.5 2.9c9.9-5.2 15.8-21.2 24.5-27 8.7-5.7 18.3-6.9 18.3-6.9l-2.8-2.4"/><path d="m-64.9 12.8c0 0-2.7-1.1-5.9-.9-3.2.2-6.2 2-8.6 1.9-2.4-.1-4.1-2-9.4-2.1-5.3-.1-7.1 1.3-8.9 1.5-1.8.1-5.8.6-7.1.8-1.3.2-1.5 1.4-1.5 1.4s8.3.6 8.7 1.4c.4.8 1.5 6.8 8.6 6.3 7.1-.4 7.5-7.5 9.8-7.4 2 .1 1.5 6.8 7.8 6.7 6.3-.1 5.7-7.7 5.7-7.7l.7-.7v-1.2h.1m-23.9 9c-6.3.7-7.7-5.6-7.7-6.8 0-.8 3-2 7.3-2 4.3-.1 7.2 1.4 7.2 2.2 0 .8-1.5 6.1-6.8 6.6m17.6-.5c-4.5 0-5.5-5-5.4-5.8.1-.9 3-2 5.7-2.1 2.6-.1 4.1.2 4.2 1.1.1 1.4-.4 6.8-4.5 6.8"/><path fill="#f2ccaa" d="m-127.3 70.3c-6.5 35.9-5.1 56.9-5.1 56.9l44.5.4c0 0-.7-18.3 3.5-44.2 4.1-26 8.7-41.2 8.7-41.2s-1.7-2.6-2.1-5.3c-.4-2.7.7-6.2.7-6.2l3.6 4 .9-5.7c0 0 1.2 0 2-1.1.8-1.1 1.5-5 .5-5.4-.9-.4-3.2.9-3.2.9l1.7-17.4-42.9 2.9c0 0-6.3 25.5-12.8 61.4"/><path d="m-66 13.7l-18.9 4 1.4 1 17.3-2.9.2-2.1"/><path fill="#ffe36e" d="m-23.2 22.9l-11.6-3.3 3.7-13.2 11.6 3.3-3.7 13.2"/><g fill="#f2ccaa"><path d="m-118.4 50l-24.4-25 7.6-39.8 9.8-7.6-6.7.2.1-4 3.6-4 4.2 1.3-4.5-5.1-9.2 2.4-12 59.3 29.2 31.8 2.3-9.5"/><path d="m-85.3 56.2l43.1 9.1 19.4-36.9-2.7-13.5 4.6 4.8 2.7-2.9.3-5.3-3.9-2.1 6.7-.4 4.8 8.2-29.4 56.6-49.2-6.7 3.6-10.9"/></g><path fill="#fff" d="m-128.4 68.8c-6.5 35.9-5.3 57.1-5.3 57.1l46.2.5c0 0-.6-13.8 2-35.8.3-2.3.6-4.8 1-7.3.2-1.3-5.6-8.2-.9-19.4 1.1-2.5 3-4.9 6.1-7.6.3-.3-12.1 9.3-27.8 4.6-15.7-4.7-15-18.6-15-18.6s.1-.5 0 0c-1.9 8-4.6 16.9-6.3 26.5"/><g fill="#ce450f"><path d="m-116.9 28.8c0 0 0-.4 0-.4-.9-.3-12.2-.6-14.8-10.7-4.7-17.9 15.6-30.4 15.6-30.4 0 0 32.3-10 43.9-2 25.8 17.9-12.6 33.9-12.6 33.9l-6.3 7.6-4.5-.9-4.2 9.5c0 0-2.9-2.5-3.9-5.1-1.1-2.7-.7-2.2-.7-2.2l-4.4.3-3.5 7.9c0 0-1.9-1.6-3-3.7-1.6-2.9-1.6-3.8-1.6-3.8"/><path d="m-82.7 14.8c0 0 .1 18.8-7.2 28-7.3 9.2-16.6 12.3-20.4 19.7-3.8 7.4 3.3 13.4 3.3 13.4s-5.2-7 .1-14c5.2-6.9 11-6.4 19.5-17.2s8.5-29.9 8.5-29.9h-3.8"/></g><g fill="#db5816"><path d="m-99.7 33.7c0 0-4.3-7.8-3.9-16 .5-8.3 1.6-11.1 1.6-11.1s-.1 3.8.8 10.3c1.1 7.7 4.5 9.3 4.5 9.3l-3 7.5"/><path d="m-111.6 33.4c0 0-3.5-7.6-3.1-14.4s1.9-10.2 1.9-10.2-.6 4.1-.1 9.6c.5 5.5 4.2 8.7 4.2 8.7l-2.9 6.3"/></g><path fill="#ce450f" d="m-71.4-8.3c3.7.3 8.1 1.3 10.3 6.8 2.3 5.9-4.2 13-4.2 13s4.2-6.5 1.8-11c-2.4-4.4-6.2-2.8-6.2-2.8l-6.9-4.3c0-.1 2.2-1.9 5.2-1.7"/><path fill="#f2ccaa" d="m-86.9 27.2c-2.7 0-4.9-2.2-4.9-4.9 0-2.7 2.2-4.9 4.9-4.9 1.3 0 2.5.5 3.4 1.4 1 .8-.6 8.4-3.4 8.4"/><path fill="#ce450f" d="m-76.9 16.9c0 0-4.1 7.6-4.1 13.2 0 5.7 1.5 8.8.8 12.7-1.2 7.4-5.6 2.6-5.6 2.6s4.5 3.3 4.1-3.5c-.3-4.2-1.8-6.2-1.8-12.8 0-6.6 5.2-13.4 5.2-13.4l1.4 1.2"/></g></svg>